<?xml version="1.0" encoding="utf-8"?>
<!-- Generator: Adobe Illustrator 22.1.0, SVG Export Plug-In . SVG Version: 6.00 Build 0)  -->
<svg version="1.1" id="레이어_1" xmlns="http://www.w3.org/2000/svg" xmlns:xlink="http://www.w3.org/1999/xlink" x="0px"
	 y="0px" viewBox="0 0 113.6 35" style="enable-background:new 0 0 113.6 35;" xml:space="preserve">
<style type="text/css">
	.st0{fill:#D7304F;}
	.st1{fill:#1FA9C0;}
</style>
<g>
	<path class="st0" d="M89.8,7.5c0,0.7-0.2,1.4-0.5,2c-0.3,0.6-0.8,1.2-1.3,1.6c-0.8,0.6-1.6,0.9-2.6,1c-0.9,0.1-1.8-0.1-2.7-0.4
		c-0.8-0.3-1.5-0.9-2.1-1.6c-0.6-0.7-0.9-1.6-0.9-2.6c0-0.6,0.1-1.1,0.2-1.6c0.2-0.5,0.4-0.9,0.7-1.3h-0.2c-0.4,0-0.7-0.1-1-0.4
		C79.1,4,79,3.7,79,3.3c0-0.4,0.1-0.7,0.4-1c0.3-0.3,0.6-0.4,1-0.4h2.8V1.1c0-0.3,0.1-0.6,0.4-0.8c0.3-0.2,0.6-0.3,1-0.3
		c0.4,0,0.7,0.1,1,0.3c0.3,0.2,0.4,0.5,0.4,0.8V2H89c0.4,0,0.7,0.1,1,0.4c0.3,0.3,0.4,0.6,0.4,1c0,0.4-0.1,0.7-0.4,0.9
		c-0.3,0.3-0.6,0.4-1,0.4h-0.2c0.3,0.4,0.5,0.8,0.7,1.3C89.7,6.4,89.8,6.9,89.8,7.5 M81.1,17.1c0-0.8,0.2-1.4,0.7-1.9
		c0.5-0.5,1.1-0.9,1.8-1.2c0.8-0.3,1.7-0.5,2.7-0.6c1-0.1,2.2-0.2,3.4-0.2c1.2,0,2.3,0,3.4,0.1c1,0.1,2,0.3,2.7,0.6
		c0.8,0.3,1.4,0.7,1.8,1.2c0.5,0.5,0.7,1.2,0.7,2.1c0,0.9-0.2,1.5-0.7,2.1c-0.5,0.5-1.1,0.9-1.8,1.2c-0.8,0.3-1.7,0.5-2.7,0.6
		c-1,0.1-2.2,0.1-3.4,0.1c-1.2,0-2.3,0-3.4-0.1c-1-0.1-2-0.3-2.7-0.6c-0.8-0.3-1.4-0.7-1.8-1.2C81.3,18.7,81.1,18,81.1,17.1
		 M85.2,9.3C85.7,9.2,86,9,86.3,8.8c0.3-0.3,0.5-0.7,0.5-1.3c0-0.7-0.2-1.2-0.6-1.5c-0.4-0.4-0.9-0.5-1.4-0.6c-0.5,0-1,0.1-1.4,0.5
		c-0.4,0.3-0.6,0.9-0.6,1.6c0,0.4,0.1,0.8,0.2,1c0.1,0.3,0.3,0.5,0.6,0.6c0.2,0.1,0.5,0.2,0.8,0.3C84.6,9.4,84.9,9.4,85.2,9.3
		 M94.9,17.1c0-0.3-0.2-0.5-0.5-0.7c-0.3-0.2-0.7-0.3-1.2-0.4c-0.5-0.1-1-0.1-1.7-0.2c-0.6,0-1.2,0-1.8,0c-0.6,0-1.2,0-1.8,0
		c-0.6,0-1.1,0.1-1.6,0.2c-0.5,0.1-0.9,0.2-1.1,0.4c-0.3,0.2-0.4,0.4-0.4,0.7c0,0.3,0.1,0.5,0.4,0.6c0.3,0.2,0.7,0.3,1.1,0.4
		c0.5,0.1,1,0.1,1.6,0.2c0.6,0,1.2,0.1,1.8,0.1h1.8c0.6,0,1.2,0,1.7-0.1c0.5-0.1,0.9-0.2,1.2-0.4C94.7,17.7,94.9,17.5,94.9,17.1
		 M98.1,11c0,0,0,0.1,0,0.2c0,0.1,0,0.2-0.1,0.4c-0.1,0.1-0.1,0.3-0.2,0.5c-0.1,0.2-0.2,0.3-0.4,0.4c-0.2,0.1-0.4,0.2-0.6,0.2
		c-0.3,0-0.6-0.1-0.9-0.3c-0.2-0.1-0.3-0.3-0.4-0.5c-0.3-0.5-0.4-1-0.4-1.6c0-0.6,0-1.1,0.1-1.7V8.2c-0.2,0-0.4,0-0.6,0
		c-0.2,0-0.4,0-0.5,0h-0.1v2.4c0,0.2,0,0.4-0.1,0.6c0,0.2-0.1,0.4-0.2,0.6c-0.1,0.2-0.3,0.4-0.4,0.5c-0.1,0.1-0.2,0.2-0.3,0.2
		c-0.1,0.1-0.2,0.1-0.4,0.1c-0.2,0-0.5-0.1-0.7-0.2c-0.2-0.1-0.3-0.2-0.4-0.4c-0.1-0.2-0.2-0.3-0.2-0.4c-0.1-0.1-0.1-0.3-0.1-0.5
		V2.4c0-0.1,0-0.3,0-0.6c0-0.3,0.1-0.6,0.2-0.8c0.2-0.4,0.5-0.6,1.1-0.6c0.3,0,0.5,0,0.7,0.1c0.2,0.1,0.4,0.2,0.5,0.3
		c0.1,0.1,0.2,0.3,0.2,0.4c0,0.1,0.1,0.3,0.1,0.4C94,1.8,94.1,2,94.1,2.2c0,0.2,0,0.4,0,0.6c0,0.1,0,0.2,0,0.3v2.3
		c0.1,0,0.2,0,0.5,0c0.2,0,0.5,0,0.7,0V3V2.7c0-0.2,0-0.4,0-0.6c0-0.2,0-0.4,0.1-0.6c0.1-0.3,0.2-0.5,0.5-0.8
		c0.3-0.3,0.7-0.5,1.2-0.4c0.4,0.1,0.8,0.3,0.9,0.7c0.1,0.2,0.2,0.5,0.2,0.8c0,0.3,0,0.5,0,0.5V11z"/>
	<path class="st0" d="M72.7,3.5c0-0.2,0-0.5,0-0.7c0-0.3,0-0.5,0.1-0.8c0-0.3,0.1-0.5,0.2-0.7c0.1-0.2,0.2-0.4,0.3-0.6
		c0.2-0.2,0.5-0.3,0.8-0.3h0.1c0.4,0,0.8,0.1,1,0.4c0.2,0.2,0.4,0.5,0.5,0.8c0.1,0.3,0.2,0.7,0.2,1c0,0.4,0.1,0.7,0.1,0.9v15.2V19
		c0,0.1,0,0.3-0.1,0.5c0,0.2-0.1,0.4-0.2,0.6c-0.1,0.2-0.2,0.4-0.3,0.5c-0.1,0.1-0.3,0.2-0.5,0.3C74.8,21,74.6,21,74.4,21
		c-0.4,0-0.7-0.1-1-0.4c-0.2-0.2-0.4-0.5-0.4-0.7c-0.1-0.2-0.1-0.5-0.1-0.8c0-0.2,0-0.4,0-0.7c0-0.3,0-0.6,0-1v-1.1v-0.9h-1.6
		c-0.4,0-0.7-0.1-0.9-0.2c-0.2-0.1-0.4-0.3-0.4-0.5c-0.1-0.1-0.1-0.2-0.1-0.3c0-0.1-0.1-0.2-0.1-0.3v-0.3c0-0.1,0-0.2,0.1-0.3
		c0-0.1,0.1-0.3,0.1-0.4c0-0.2,0.1-0.3,0.2-0.4c0.2-0.2,0.5-0.3,0.7-0.3c0.3-0.1,0.6-0.1,1-0.1c0.4,0,0.7,0,1-0.1v-0.6v-0.8
		c0-0.3,0-0.6,0-0.9c0-0.3,0-0.6,0-0.9L71.2,9c-0.3,0-0.6-0.1-0.9-0.1c-0.3-0.1-0.4-0.2-0.5-0.4c-0.1-0.2-0.2-0.5-0.2-0.7V7.5
		c0-0.1,0-0.2,0.1-0.3c0-0.1,0.1-0.3,0.1-0.4c0.1-0.1,0.1-0.2,0.2-0.3c0.2-0.2,0.5-0.3,0.7-0.3c0.2,0,0.4-0.1,0.8-0.1
		c0.3,0,0.7,0,1.2-0.1V4.5C72.7,4,72.7,3.7,72.7,3.5"/>
	<path class="st1" d="M51.9,25.2H1.6c-0.9,0-1.6-0.6-1.6-1.3c0-0.7,0.7-1.3,1.6-1.3h50.3c0.9,0,1.6,0.6,1.6,1.3
		C53.5,24.6,52.8,25.2,51.9,25.2"/>
	<path class="st1" d="M36.9,16.6c0.3,0.9,0.8,1.6,1.5,2.1c0.2,0.2,0.4,0.3,0.6,0.4c0.2,0.1,0.4,0.2,0.7,0.3c0.4,0.2,0.9,0.3,1.3,0.4
		c0.1,0,0.2,0,0.3,0c0.1,0,0.2,0,0.4,0c0.1,0,0.2,0.1,0.3,0.1h0.3c0.1,0,0.2,0.1,0.2,0.1h0.2h0.5c0.1,0,0.2-0.1,0.2-0.1h0.2H44
		c0.1,0,0.2,0,0.3-0.1c0.2-0.1,0.5-0.1,0.7-0.1c0.2,0,0.5-0.1,0.7-0.2c0.2-0.1,0.5-0.1,0.7-0.2c0.2-0.1,0.4-0.2,0.7-0.4
		c0.3-0.2,0.6-0.4,0.8-0.6c0.2-0.2,0.4-0.5,0.6-0.8c0.3-0.6,0.5-1.2,0.6-1.8c0.1-0.1,0.1-0.2,0.1-0.4c0-0.1,0-0.3,0.1-0.4
		c0-0.1,0-0.2,0-0.3c0-0.1,0-0.2,0-0.3c0-0.2,0-0.4,0-0.6c0-0.2,0-0.4-0.1-0.6c0-0.2-0.1-0.4-0.1-0.6c0-0.2-0.1-0.4-0.1-0.6
		c0-0.2-0.1-0.4-0.2-0.6c-0.1-0.2-0.2-0.4-0.3-0.5c-0.2-0.3-0.4-0.6-0.7-0.9c-0.1-0.1-0.2-0.2-0.4-0.3c-0.1-0.1-0.2-0.2-0.3-0.2
		c-0.3-0.2-0.6-0.3-0.9-0.5c-0.2-0.1-0.3-0.2-0.5-0.2c-0.2-0.1-0.3-0.1-0.5-0.2c-0.1,0-0.1-0.1-0.2-0.1c-0.1,0-0.2,0-0.2,0
		c-0.1,0-0.2-0.1-0.2-0.1c-0.1,0-0.2,0-0.2-0.1c-0.1,0-0.3-0.1-0.5-0.1c-0.2,0-0.3,0-0.4,0c-0.3-0.1-0.6-0.1-0.9,0
		c-0.4,0-0.9,0-1.3,0.1c-0.4,0.1-0.8,0.2-1.1,0.4c-0.4,0.1-0.7,0.3-1,0.5c-0.3,0.2-0.6,0.5-0.9,0.7c-0.3,0.2-0.5,0.5-0.7,0.8
		c-0.2,0.3-0.4,0.7-0.6,1c-0.1,0.4-0.2,0.8-0.3,1.1c-0.1,0.4-0.1,0.8-0.1,1.2c0,0.4,0,0.8,0.1,1.3C36.7,15.7,36.8,16.2,36.9,16.6
		 M39.9,13.6c0.1-0.3,0.1-0.5,0.2-0.7c0.1-0.2,0.2-0.4,0.3-0.6c0.1-0.2,0.3-0.3,0.5-0.4c0.2-0.1,0.3-0.2,0.5-0.3
		c0.2-0.1,0.4-0.1,0.6-0.2c0.2,0,0.4-0.1,0.6-0.1c0.5,0,0.9,0.1,1.4,0.2c0.1,0,0.2,0.1,0.2,0.1c0.1,0,0.1,0.1,0.2,0.1
		c0.1,0.1,0.3,0.1,0.4,0.2c0.2,0.1,0.3,0.2,0.3,0.3c0.1,0,0.1,0.1,0.2,0.1c0,0.1,0.1,0.1,0.1,0.2c0.1,0.1,0.1,0.2,0.2,0.3
		c0.1,0.1,0.1,0.2,0.1,0.3c0.1,0.3,0.1,0.6,0.2,0.8c0,0.3,0,0.5-0.1,0.8c-0.1,0.2-0.1,0.4-0.2,0.5c-0.1,0.2-0.1,0.4-0.3,0.5
		c-0.2,0.4-0.5,0.6-0.8,0.8c-0.1,0.1-0.2,0.1-0.3,0.2c-0.1,0.1-0.2,0.1-0.3,0.1c-0.1,0-0.3,0.1-0.4,0.1c-0.1,0-0.2,0-0.4,0.1
		c-0.2,0-0.5,0-0.7-0.1c-0.2,0-0.5-0.1-0.7-0.2c-0.7-0.3-1.2-0.6-1.5-1.2c-0.1-0.3-0.2-0.6-0.3-1C39.9,14.3,39.9,13.9,39.9,13.6"/>
	<path class="st1" d="M20.3,17.4c0,0.3,0,0.6,0,0.9c0,0.3,0,0.5,0,0.5c0,0.2,0,0.4,0.1,0.5c0,0.1,0.1,0.3,0.2,0.5
		c0.1,0.4,0.3,0.6,0.5,0.8c0.2,0.2,0.5,0.3,0.8,0.4c0.3,0.1,0.6,0.1,0.9,0.1c0.3,0,0.6,0,0.9,0c0.3,0,0.5,0,0.8,0c0.3,0,0.5,0,0.8,0
		h0.9h1.5h1.5h0.9h0.9c0.1,0,0.3,0,0.4,0c0.2,0,0.3,0,0.4,0h0.8c0.3,0,0.6,0,0.8,0c0.3,0,0.5-0.1,0.8-0.2c0.3-0.1,0.5-0.2,0.7-0.4
		c0.3-0.2,0.4-0.4,0.5-0.6c0.1-0.2,0-0.4-0.2-0.7c-0.2-0.3-0.5-0.6-0.9-0.7c-0.4-0.1-0.7-0.1-1-0.1c-0.2,0-0.4,0-0.6,0
		c-0.2,0-0.4,0-0.6,0h-7.4c-0.1,0-0.2,0-0.3,0c-0.1,0-0.2,0-0.3,0c-0.1,0-0.2,0-0.3-0.1c-0.1,0-0.1-0.1-0.2-0.3
		c-0.1-0.1-0.1-0.2-0.1-0.3c0-0.1,0-0.2,0-0.3l-0.2-1.6c0-0.2,0-0.3-0.1-0.5c0-0.2,0-0.3-0.1-0.4c-0.1-0.2-0.1-0.4-0.3-0.6
		c-0.2-0.2-0.4-0.4-0.7-0.5c-0.1,0-0.2-0.1-0.3-0.1c-0.1,0-0.2,0-0.3,0c-0.2,0-0.4,0-0.6,0.1c-0.1,0.1-0.2,0.2-0.4,0.3
		c-0.1,0.1-0.3,0.2-0.3,0.3c-0.1,0.2-0.2,0.4-0.2,0.6c-0.1,0.2-0.1,0.4-0.1,0.7c0,0.1,0,0.3,0,0.5C20.3,16.8,20.3,17.1,20.3,17.4"/>
	<path class="st1" d="M54.9,12.7V11c0-0.2-0.1-0.4-0.1-0.6V9.8c0-0.2,0-0.4-0.1-0.6c-0.1-0.2-0.1-0.4-0.2-0.6
		c-0.1-0.3-0.3-0.5-0.5-0.6c-0.1-0.1-0.3-0.1-0.4-0.2c-0.1,0-0.3-0.1-0.4-0.1h-0.4c-0.1,0-0.2,0-0.3,0.1C52.5,7.9,52.3,8,52,8.2
		c-0.3,0.3-0.4,0.7-0.5,1.1c-0.1,0.3-0.1,0.5-0.1,0.7c0,0.2,0,0.4,0,0.7l0.1,15.2v0.3c0,0.1,0,0.1,0,0.2c0,0.1,0,0.2,0.1,0.3
		c0,0.1,0,0.2,0.1,0.3c0,0.1,0.1,0.2,0.1,0.3c0.1,0.3,0.2,0.5,0.4,0.5c0.1,0.2,0.3,0.3,0.6,0.3c0.2,0,0.4,0,0.6,0
		c0.2,0,0.4-0.1,0.5-0.2c0.1-0.1,0.2-0.1,0.3-0.2c0.1-0.1,0.1-0.1,0.2-0.2c0-0.1,0.1-0.2,0.1-0.2c0-0.1,0.1-0.1,0.1-0.2
		c0.1-0.2,0.2-0.4,0.2-0.7c0-0.1,0.1-0.3,0.1-0.4v-0.5c0-0.2,0-0.5,0-0.8c0-0.3,0-0.5,0-0.8v-2.9c0-0.3,0.1-0.7,0.1-1V19v-4.2v-1.1
		C55,13.3,55,13,54.9,12.7"/>
	<path class="st1" d="M36.4,32.9c-0.2-0.1-0.4-0.2-0.7-0.2H22.6v-0.9h11.6c0.2,0,0.4,0,0.7,0c0.2,0,0.4-0.1,0.7-0.2
		c0.3-0.2,0.5-0.3,0.6-0.6c0.1-0.2,0.2-0.5,0.2-0.7v-2c0-0.6-0.2-1-0.7-1.3c-0.5-0.3-1.1-0.4-2-0.4h-4h-2.9c-0.8,0-1.5,0-2,0
		c-0.5,0-1,0-1.4,0h-1h-0.8c-0.3,0-0.5,0-0.8,0.1c-0.1,0-0.2,0-0.3,0c-0.1,0-0.3,0.1-0.4,0.1c-0.1,0.1-0.3,0.1-0.4,0.2
		c-0.1,0.1-0.2,0.2-0.2,0.3c-0.1,0.4-0.1,0.7,0.2,1.1c0.1,0.1,0.2,0.2,0.3,0.3c0.1,0,0.3,0.1,0.4,0.1c0.1,0,0.3,0.1,0.4,0.1h0.5
		h12.1v1h-5c-1.4,0-2.5,0-3.4,0c-0.9,0-1.6,0-2.1,0h-1.1c-0.4,0-0.7,0-1.1,0.1c-0.4,0.1-0.7,0.2-0.9,0.5c-0.2,0.2-0.3,0.4-0.3,0.6
		c-0.1,0.3-0.1,0.5-0.1,0.7l0.1,1.8c0,0.4,0.2,0.7,0.4,0.9c0.2,0.2,0.5,0.4,0.9,0.4c0.4,0,0.7,0,1.1,0c0.4,0,0.7,0,1.1,0h11.9
		c0.2,0,0.4,0,0.6,0c0.2,0,0.4-0.1,0.6-0.2c0.6-0.3,0.9-0.7,0.7-1.3C36.7,33.2,36.6,33.1,36.4,32.9"/>
	<path class="st1" d="M2.5,16.5c0.3,0.4,0.7,0.8,1.1,1.1c0.4,0.3,0.8,0.5,1.3,0.7c0.5,0.2,0.9,0.3,1.4,0.4c0.5,0.1,1,0.1,1.5,0.2
		l0,3.7h3.3l-0.1-3.7c0.8,0,1.6-0.1,2.4-0.3c0.8-0.2,1.5-0.5,2.1-1c0.6-0.4,1.1-1,1.5-1.7c0.4-0.7,0.6-1.5,0.7-2.5
		c0.1-0.9,0-1.7-0.2-2.4c-0.2-0.8-0.6-1.5-1.2-2.1c-0.2-0.3-0.5-0.5-0.8-0.7C15.3,8.2,15,8,14.7,7.9c-0.6-0.3-1.3-0.5-2-0.6
		c-0.7-0.1-1.4-0.2-2.1-0.2C9.7,7,8.9,7,8,7.1C7.2,7.2,6.4,7.3,5.5,7.6C4.3,8,3.3,8.7,2.6,9.6c-0.7,0.9-1.1,2-1.1,3.3
		c0,0.7,0.1,1.3,0.2,1.9C1.9,15.4,2.2,15.9,2.5,16.5 M5.1,12.5C5.2,11.8,5.5,11.3,6,11c0.5-0.3,1.1-0.5,1.8-0.6
		c0.7-0.1,1.4-0.1,2.1-0.1c0.7,0.1,1.3,0.1,1.8,0.2c0.8,0.1,1.5,0.4,2,0.8c0.5,0.4,0.8,1.1,0.8,2c0,0.2,0,0.4-0.1,0.6
		c-0.1,0.3-0.2,0.6-0.4,0.8c-0.2,0.2-0.4,0.4-0.7,0.6c-0.3,0.2-0.5,0.3-0.8,0.4c-0.3,0.1-0.6,0.2-0.9,0.2C11,16,10.4,16,9.8,16
		c-0.6-0.1-1.2-0.1-1.8-0.2c-0.6-0.1-1.1-0.2-1.5-0.4c-0.4-0.2-0.7-0.5-0.9-0.7c-0.2-0.3-0.4-0.6-0.4-1C5.1,13.3,5.1,12.9,5.1,12.5"
		/>
	<g>
		<path class="st1" d="M113,23.2c-1-0.8-2.1-0.8-2.4-0.8c-0.1,0-0.2,0-0.3,0l-9.5,0.2c-0.2,0-0.3-0.1-0.4-0.2l-2.2-2h-0.8
			c-0.1,0-0.2,0.1-0.2,0.2c0.2,0.4,0.5,1.2,0.8,1.9H56.1v2.6l48.5,0l-3,4.9c-0.1,0.2,0,0.4,0.2,0.4h1.1c0.2,0,0.3-0.1,0.4-0.2
			l5.1-5.1c0,0,1.6,0,3,0c1.4,0,1.7-0.3,1.8-0.4C113.3,24.7,114.3,24.1,113,23.2z"/>
		<path class="st1" d="M103.5,21.8h2.9l-2.9-2.7c-0.1-0.1-0.3-0.2-0.4-0.2h-0.8c-0.2,0-0.3,0.2-0.2,0.3L103.5,21.8z"/>
	</g>
	<path class="st0" d="M63.6,0.5c0.2,0,0.4,0,0.6,0c0.2,0,0.4,0,0.6,0.1c0.7,0.1,1.2,0.4,1.7,0.9c0.4,0.4,0.8,1,1,1.5
		c0.3,0.6,0.5,1.2,0.6,1.8c0.2,0.6,0.3,1.3,0.3,2c0.1,0.7,0.1,1.3,0.2,1.9c0,0.8,0,1.6,0,2.4c0,0.8-0.1,1.6-0.2,2.4
		c-0.1,0.8-0.2,1.6-0.4,2.5c-0.2,0.8-0.5,1.6-0.9,2.2c-0.4,0.6-0.8,1-1.4,1.4c-0.5,0.4-1.1,0.6-1.7,0.7c-0.5,0.1-1.1,0.1-1.6,0.1
		c-0.6-0.1-1.1-0.2-1.6-0.5c-0.5-0.3-0.9-0.6-1.2-1c-0.3-0.4-0.6-0.9-0.8-1.5c-0.3-0.8-0.5-1.7-0.6-2.6c-0.1-0.7-0.1-1.5-0.1-2.2
		c0-0.7,0-1.5,0-2.2c0-0.5,0-1,0-1.5c0-0.5,0-1,0.1-1.4c0-0.4,0.1-0.8,0.1-1.2c0.1-0.4,0.1-0.8,0.2-1.2c0.1-0.3,0.1-0.6,0.2-0.9
		C59,4,59.1,3.7,59.2,3.4c0.1-0.3,0.3-0.6,0.5-0.8c0.2-0.3,0.4-0.5,0.6-0.7C60.6,1.5,61,1.2,61.5,1c0.5-0.2,1-0.3,1.5-0.4
		c0.1,0,0.2,0,0.3,0S63.5,0.5,63.6,0.5z M63.5,16.9c0.3,0,0.7-0.1,1-0.3c0.3-0.2,0.5-0.5,0.6-0.8c0.1-0.3,0.2-0.7,0.3-1.1
		c0.1-0.8,0.2-1.6,0.2-2.5c0-0.9,0-1.8,0-2.6c0-0.3,0-0.7,0-1.1c0-0.4,0-0.7-0.1-1.1c0-0.4-0.1-0.7-0.2-1.1
		c-0.1-0.3-0.2-0.6-0.4-0.9c-0.2-0.3-0.4-0.5-0.6-0.7c-0.2-0.2-0.5-0.2-0.8-0.2c-0.3,0-0.6,0.1-0.8,0.3c-0.2,0.2-0.4,0.4-0.6,0.8
		l-0.2,0.5c-0.1,0.3-0.2,0.7-0.2,1c-0.1,0.4-0.1,0.7-0.1,1.1c0,0.3-0.1,0.7-0.1,1.1c0,0.4,0,0.7,0,1.1c0,0.3,0,0.7,0,1
		c0,0.3,0,0.7,0,1c0,0.4,0.1,0.9,0.1,1.5c0.1,0.5,0.2,1,0.3,1.5c0.1,0.5,0.3,0.8,0.6,1.1C62.8,16.7,63.1,16.9,63.5,16.9z M73.1,3.7
		c0-0.2,0-0.5,0-0.7c0-0.3,0-0.5,0.1-0.8c0-0.3,0.1-0.5,0.2-0.8c0.1-0.2,0.2-0.4,0.3-0.6c0.2-0.2,0.5-0.3,0.8-0.3h0.1
		c0.4,0,0.8,0.1,1,0.4c0.2,0.2,0.4,0.5,0.6,0.8c0.1,0.3,0.2,0.7,0.2,1c0,0.4,0.1,0.7,0.1,0.9v15.4c0,0,0,0.1,0,0.2
		c0,0.1,0,0.3-0.1,0.5c0,0.2-0.1,0.4-0.2,0.6c-0.1,0.2-0.2,0.4-0.3,0.5c-0.1,0.1-0.3,0.2-0.5,0.3c-0.2,0.1-0.4,0.1-0.6,0.1
		c-0.4,0-0.7-0.1-1-0.4c-0.2-0.2-0.4-0.5-0.4-0.7c-0.1-0.2-0.1-0.5-0.1-0.8c0-0.2,0-0.4,0-0.7c0-0.3,0-0.6,0-1c0-0.4,0-0.7,0-1.1
		c0-0.4,0-0.7,0-0.9h-1.6c-0.4,0-0.7-0.1-0.9-0.2c-0.2-0.1-0.4-0.3-0.5-0.5c-0.1-0.1-0.1-0.2-0.1-0.3c0-0.1-0.1-0.2-0.1-0.4
		c0-0.1,0-0.2,0-0.3c0-0.1,0-0.2,0.1-0.3c0-0.1,0.1-0.3,0.1-0.4c0.1-0.2,0.1-0.3,0.2-0.4c0.2-0.2,0.5-0.3,0.7-0.3
		c0.3-0.1,0.6-0.1,1-0.1c0.4,0,0.7,0,1-0.1c0-0.1,0-0.3,0-0.6s0-0.5,0-0.8c0-0.3,0-0.6,0-0.9c0-0.3,0-0.6,0-0.9l-1.6-0.1
		c-0.3,0-0.6-0.1-0.9-0.1c-0.3-0.1-0.4-0.2-0.5-0.4c-0.1-0.2-0.2-0.5-0.2-0.7c0-0.1,0-0.2,0-0.3c0-0.1,0-0.2,0.1-0.3
		c0-0.1,0.1-0.3,0.1-0.4c0.1-0.1,0.1-0.3,0.2-0.3c0.2-0.2,0.5-0.3,0.7-0.3c0.2,0,0.5-0.1,0.8-0.1c0.3,0,0.7,0,1.2-0.1
		c0-0.6,0-1.1,0-1.5C73,4.2,73,3.9,73.1,3.7z"/>
</g>
</svg>
