<?xml version="1.0" encoding="utf-8"?>
<!-- Generator: Adobe Illustrator 16.0.0, SVG Export Plug-In . SVG Version: 6.00 Build 0)  -->
<!DOCTYPE svg PUBLIC "-//W3C//DTD SVG 1.1//EN" "http://www.w3.org/Graphics/SVG/1.1/DTD/svg11.dtd">
<svg version="1.1" id="Layer_1" xmlns="http://www.w3.org/2000/svg" xmlns:xlink="http://www.w3.org/1999/xlink" x="0px" y="0px"
	 width="240px" height="120px" viewBox="0 0 240 120" enable-background="new 0 0 240 120" xml:space="preserve">
<path fill="#FFFFFF" d="M60,0C27,0,0,27,0,60s27,60,60,60s60-27,60-60S93,0,60,0z M91.906,43.265
	c1.943,24.526-15.834,46.408-40.48,49.326c-11.522,1.365-22.552-1.649-31.425-7.731c0,0,15.951,1.922,24.212-6.873
	c0,0-11.194-0.266-14.924-11.459c0,0,4.753,0.666,7.174-0.268c0,0-13.037-2.798-12.637-16.124c0,0,2.932,1.733,6.929,1.866
	c0,0-11.86-8.128-4.797-22.12c0,0,11.456,16.32,33.314,17.173c-0.256-1.153-0.396-2.351-0.396-3.581
	c0-9.052,7.338-16.39,16.39-16.39c4.688,0,8.914,1.971,11.9,5.126v-0.003c0,0,5.589-0.792,10.586-3.94c0,0-0.55,4.847-6.546,8.795
	c0,0,2.948,0.45,8.794-2.299C100,34.763,97.195,39.983,91.906,43.265z"/>
<path fill="#FFD700" d="M180,0c-33,0-60,27-60,60s27,60,60,60s60-27,60-60S213,0,180,0z M211.906,43.265
	c1.943,24.526-15.834,46.408-40.48,49.326c-11.521,1.365-22.552-1.649-31.425-7.731c0,0,15.951,1.922,24.212-6.873
	c0,0-11.193-0.266-14.924-11.459c0,0,4.753,0.666,7.174-0.268c0,0-13.037-2.798-12.637-16.124c0,0,2.932,1.733,6.929,1.866
	c0,0-11.86-8.128-4.797-22.12c0,0,11.456,16.32,33.313,17.173c-0.256-1.153-0.396-2.351-0.396-3.581
	c0-9.052,7.338-16.39,16.39-16.39c4.688,0,8.914,1.971,11.9,5.126v-0.003c0,0,5.589-0.792,10.586-3.94c0,0-0.55,4.847-6.546,8.795
	c0,0,2.948,0.45,8.794-2.299C220,34.763,217.195,39.983,211.906,43.265z"/>
</svg>
