<?xml version="1.0" encoding="utf-8"?>
<!-- Generator: Adobe Illustrator 16.0.0, SVG Export Plug-In . SVG Version: 6.00 Build 0)  -->
<!DOCTYPE svg PUBLIC "-//W3C//DTD SVG 1.1//EN" "http://www.w3.org/Graphics/SVG/1.1/DTD/svg11.dtd">
<svg version="1.1" id="Layer_1" xmlns="http://www.w3.org/2000/svg" xmlns:xlink="http://www.w3.org/1999/xlink" x="0px" y="0px"
	 width="240px" height="120px" viewBox="0 0 240 120" enable-background="new 0 0 240 120" xml:space="preserve">
<path fill="#FFFFFF" d="M60,0C27,0,0,27,0,60s27,60,60,60s60-27,60-60S93,0,60,0z M99.654,73.087
	c-0.299,6.583-3.287,13.474-14.049,14.155c-10.76,0.681-42.441,0.598-51.109,0s-13.451-5.297-14.049-14.155
	c-0.598-8.858-0.598-18.209,0-26.387c0.598-8.178,4.883-13.043,14.049-13.856c9.166-0.813,44.137-0.697,51.708,0
	c7.571,0.697,12.853,5.296,13.45,13.856C100.251,55.26,99.953,66.504,99.654,73.087z"/>
<polygon fill="#FFFFFF" points="52.43,47.789 52.43,72.298 72.355,60.043 "/>
<path fill="#FFD700" d="M180,0c-33,0-60,27-60,60s27,60,60,60s60-27,60-60S213,0,180,0z M219.654,73.087
	c-0.299,6.583-3.287,13.474-14.049,14.155c-10.76,0.681-42.441,0.598-51.109,0s-13.451-5.297-14.049-14.155s-0.598-18.209,0-26.387
	c0.598-8.178,4.883-13.043,14.049-13.856c9.166-0.813,44.137-0.697,51.708,0c7.571,0.697,12.853,5.296,13.45,13.856
	C220.251,55.26,219.953,66.504,219.654,73.087z"/>
<polygon fill="#FFD700" points="172.43,47.789 172.43,72.298 192.355,60.043 "/>
</svg>
