<?xml version="1.0" encoding="utf-8"?>
<!-- Generator: Adobe Illustrator 16.0.0, SVG Export Plug-In . SVG Version: 6.00 Build 0)  -->
<!DOCTYPE svg PUBLIC "-//W3C//DTD SVG 1.1//EN" "http://www.w3.org/Graphics/SVG/1.1/DTD/svg11.dtd">
<svg version="1.1" id="Layer_1" xmlns="http://www.w3.org/2000/svg" xmlns:xlink="http://www.w3.org/1999/xlink" x="0px" y="0px"
	 width="240px" height="120px" viewBox="0 0 240 120" enable-background="new 0 0 240 120" xml:space="preserve">
<g>
	<path fill="#FFFFFF" d="M59.863,46.523c-7.471,0-13.547,6.077-13.547,13.547c0,7.47,6.076,13.547,13.547,13.547
		c7.469,0,13.547-6.077,13.547-13.547C73.41,52.6,67.332,46.523,59.863,46.523z"/>
	<path fill="#FFFFFF" d="M76.963,27.314H43.037v-0.001c-8.67,0-15.724,7.054-15.724,15.724v33.925
		c0,8.67,7.054,15.724,15.724,15.724h33.926c8.67,0,15.723-7.054,15.723-15.724V43.038C92.686,34.368,85.633,27.314,76.963,27.314z
		 M59.863,80.932c-11.502,0-20.861-9.359-20.861-20.861c0-11.503,9.359-20.861,20.861-20.861c11.502,0,20.862,9.358,20.862,20.861
		C80.725,71.572,71.365,80.932,59.863,80.932z M81.07,43.577c-2.728,0-4.938-2.21-4.938-4.936s2.21-4.936,4.938-4.936
		c2.726,0,4.936,2.21,4.936,4.936S83.796,43.577,81.07,43.577z"/>
	<path fill="#FFFFFF" d="M60,0C27,0,0,27,0,60s27,60,60,60s60-27,60-60S93,0,60,0z M100,76.963C100,89.665,89.666,100,76.963,100
		H43.037C30.334,100,20,89.665,20,76.962V43.038C20,30.334,30.334,20,43.037,20h33.926C89.666,20,100,30.334,100,43.038V76.963z"/>
</g>
<g>
	<path fill="#FFD700" d="M179.863,46.523c-7.471,0-13.547,6.077-13.547,13.547c0,7.47,6.076,13.547,13.547,13.547
		c7.469,0,13.547-6.077,13.547-13.547C193.41,52.6,187.332,46.523,179.863,46.523z"/>
	<path fill="#FFD700" d="M196.963,27.314h-33.926v-0.001c-8.67,0-15.725,7.054-15.725,15.724v33.925
		c0,8.67,7.055,15.724,15.725,15.724h33.926c8.67,0,15.723-7.054,15.723-15.724V43.038
		C212.686,34.368,205.633,27.314,196.963,27.314z M179.863,80.932c-11.502,0-20.861-9.359-20.861-20.861
		c0-11.503,9.359-20.861,20.861-20.861s20.861,9.358,20.861,20.861C200.725,71.572,191.365,80.932,179.863,80.932z M201.07,43.577
		c-2.728,0-4.938-2.21-4.938-4.936s2.21-4.936,4.938-4.936c2.726,0,4.936,2.21,4.936,4.936S203.796,43.577,201.07,43.577z"/>
	<path fill="#FFD700" d="M180,0c-33,0-60,27-60,60s27,60,60,60s60-27,60-60S213,0,180,0z M220,76.963
		C220,89.665,209.666,100,196.963,100h-33.926C150.334,100,140,89.665,140,76.962V43.038C140,30.334,150.334,20,163.037,20h33.926
		C209.666,20,220,30.334,220,43.038V76.963z"/>
</g>
</svg>
