<?xml version="1.0" encoding="utf-8"?>
<!-- Generator: Adobe Illustrator 16.0.0, SVG Export Plug-In . SVG Version: 6.00 Build 0)  -->
<!DOCTYPE svg PUBLIC "-//W3C//DTD SVG 1.1//EN" "http://www.w3.org/Graphics/SVG/1.1/DTD/svg11.dtd">
<svg version="1.1" id="Layer_1" xmlns="http://www.w3.org/2000/svg" xmlns:xlink="http://www.w3.org/1999/xlink" x="0px" y="0px"
	 width="277.605px" height="69.688px" viewBox="0 0 277.605 69.688" enable-background="new 0 0 277.605 69.688"
	 xml:space="preserve">
<g>
	<path fill="#FFFFFF" d="M27.492,28.881c3.013,0,5.2-0.754,6.56-2.261c1.36-1.506,2.04-3.473,2.04-5.899
		c0-1.227-0.199-2.253-0.6-3.08c-0.4-0.826-0.92-1.521-1.56-2.08c-0.641-0.561-1.374-1.014-2.2-1.36
		c-0.827-0.346-1.667-0.653-2.521-0.92c-0.854-0.266-1.693-0.54-2.52-0.819c-0.827-0.28-1.561-0.62-2.2-1.021
		c-0.64-0.426-1.153-0.946-1.54-1.56s-0.58-1.413-0.58-2.4c0-1.12,0.5-2.146,1.5-3.08c1-0.933,2.46-1.4,4.38-1.4
		c1.04,0,1.94,0.141,2.7,0.421c0.76,0.279,1.42,0.619,1.98,1.02l0.8,2.56h1.399V2.24c-0.507-0.106-1.026-0.22-1.56-0.34
		c-0.534-0.12-1.094-0.233-1.68-0.34c-0.587-0.08-1.181-0.16-1.78-0.24c-0.601-0.08-1.22-0.12-1.86-0.12
		c-2.826,0-4.939,0.66-6.34,1.98c-1.4,1.319-2.1,2.993-2.1,5.02c0,1.228,0.192,2.24,0.58,3.04c0.386,0.8,0.899,1.454,1.54,1.96
		c0.64,0.534,1.373,0.967,2.199,1.3c0.826,0.334,1.667,0.634,2.521,0.9c0.853,0.267,1.687,0.554,2.5,0.86
		c0.813,0.307,1.54,0.687,2.18,1.14c0.666,0.48,1.193,1.074,1.58,1.78c0.387,0.707,0.593,1.594,0.62,2.66
		c0,1.52-0.527,2.773-1.58,3.76c-1.054,0.986-2.58,1.479-4.58,1.479c-1.12,0-2.24-0.192-3.36-0.58
		c-1.119-0.386-1.92-0.899-2.399-1.539l-0.68-3h-1.48v5.52c0.88,0.32,2.026,0.634,3.44,0.94
		C24.306,28.727,25.839,28.881,27.492,28.881z"/>
	<path fill="#FFFFFF" d="M42.012,26c0.72,0.935,1.64,1.647,2.76,2.141s2.48,0.74,4.08,0.74c1.12,0,2.24-0.167,3.36-0.5
		c1.12-0.334,2.04-0.754,2.76-1.261l-0.4-1.199c-0.319,0.079-0.674,0.18-1.06,0.3c-0.387,0.12-0.794,0.22-1.22,0.3
		c-0.454,0.106-0.914,0.193-1.38,0.26c-0.468,0.067-0.914,0.101-1.341,0.101c-1.279,0-2.366-0.214-3.26-0.641
		c-0.894-0.426-1.606-1.013-2.14-1.76c-0.534-0.746-0.92-1.633-1.16-2.66c-0.24-1.026-0.36-2.126-0.36-3.3
		c0-2.773,0.613-4.854,1.84-6.24c1.227-1.386,2.681-2.08,4.36-2.08c0.72,0,1.38,0.061,1.98,0.181c0.6,0.119,1.14,0.3,1.619,0.54
		c0.24,0.399,0.427,0.819,0.561,1.26c0.133,0.439,0.227,0.819,0.28,1.14l0.88,0.2l0.56-0.08v-4.4c-0.8-0.159-1.72-0.3-2.76-0.42
		s-2.08-0.18-3.12-0.18c-2.56,0-4.687,0.847-6.38,2.54s-2.54,4.207-2.54,7.54c0,1.547,0.166,2.954,0.5,4.22
		C40.765,24.008,41.292,25.094,42.012,26z"/>
	<path fill="#FFFFFF" d="M66.931,27.28l-2.76-0.52V8.721l-0.6-0.36c-0.827,0.187-1.554,0.327-2.181,0.42
		c-0.627,0.094-1.273,0.141-1.939,0.141l0.08,1.359l2.199,0.32v16.16l-2.72,0.52v1.2h7.92V27.28z"/>
	<path fill="#FFFFFF" d="M62.891,4.24c0.561,0,1.054-0.206,1.48-0.62c0.426-0.413,0.64-0.913,0.64-1.5
		c0-0.56-0.214-1.053-0.64-1.479C63.944,0.214,63.451,0,62.891,0c-0.587,0-1.087,0.214-1.5,0.641s-0.62,0.92-0.62,1.479
		c0,0.587,0.207,1.087,0.62,1.5C61.804,4.034,62.304,4.24,62.891,4.24z"/>
	<path fill="#FFFFFF" d="M72.41,25.961c0.64,0.906,1.486,1.619,2.54,2.14c1.053,0.52,2.34,0.78,3.86,0.78
		c0.586,0,1.206-0.061,1.859-0.181s1.273-0.286,1.86-0.5c0.613-0.186,1.173-0.393,1.68-0.62c0.507-0.226,0.92-0.446,1.24-0.659
		l-0.4-1.28c-0.666,0.24-1.514,0.5-2.54,0.78c-1.026,0.279-1.939,0.42-2.739,0.42c-1.228,0-2.254-0.193-3.08-0.58
		c-0.827-0.387-1.494-0.9-2-1.54c-0.507-0.641-0.867-1.38-1.08-2.221c-0.214-0.84-0.32-1.699-0.32-2.579V19.04h12.04l0.84-1.119
		c0-3.094-0.693-5.446-2.08-7.061c-1.387-1.613-3.174-2.42-5.359-2.42c-2.48,0-4.46,0.914-5.94,2.74
		c-1.479,1.827-2.22,4.34-2.22,7.54c0,1.439,0.14,2.773,0.42,4S71.743,25.027,72.41,25.961z M74.91,12
		c1.08-1.199,2.354-1.8,3.82-1.8c1.439,0,2.606,0.601,3.5,1.8c0.893,1.2,1.34,2.961,1.34,5.28H73.33
		C73.304,14.961,73.83,13.2,74.91,12z"/>
	<path fill="#FFFFFF" d="M91.97,10.561v16.28l-2.199,0.479v1.16h7.119v-1.16l-2.479-0.479v-15.32c0.24-0.026,0.606-0.093,1.1-0.2
		c0.493-0.106,1.033-0.2,1.62-0.28c0.561-0.105,1.12-0.199,1.681-0.279c0.56-0.08,1.025-0.12,1.399-0.12
		c1.12,0,1.96,0.32,2.521,0.96c0.56,0.64,0.84,1.507,0.84,2.6v12.641l-2.44,0.479v1.16h7.12v-1.16l-2.24-0.479v-13
		c0-1.946-0.507-3.333-1.52-4.16c-1.014-0.826-2.2-1.24-3.561-1.24c-0.479,0-1.007,0.06-1.58,0.18s-1.14,0.274-1.699,0.46
		c-0.587,0.188-1.141,0.395-1.66,0.62c-0.521,0.228-0.954,0.434-1.3,0.62c-0.08,0.08-0.174,0.101-0.28,0.061
		c-0.107-0.04-0.134-0.113-0.08-0.221l0.08-1.319L93.73,8.4c-0.827,0.187-1.534,0.327-2.12,0.42
		c-0.587,0.094-1.214,0.141-1.88,0.141l0.08,1.279L91.97,10.561z"/>
	<path fill="#FFFFFF" d="M125.229,26.221c-0.387,0.12-0.794,0.22-1.22,0.3c-0.454,0.106-0.914,0.193-1.38,0.26
		c-0.468,0.067-0.914,0.101-1.341,0.101c-1.279,0-2.366-0.214-3.26-0.641c-0.894-0.426-1.606-1.013-2.14-1.76
		c-0.534-0.746-0.92-1.633-1.16-2.66c-0.24-1.026-0.36-2.126-0.36-3.3c0-2.773,0.613-4.854,1.84-6.24
		c1.227-1.386,2.681-2.08,4.36-2.08c0.72,0,1.38,0.061,1.98,0.181c0.6,0.119,1.14,0.3,1.619,0.54c0.24,0.399,0.427,0.819,0.561,1.26
		c0.133,0.439,0.227,0.819,0.28,1.14l0.88,0.2l0.56-0.08v-4.4c-0.8-0.159-1.72-0.3-2.76-0.42s-2.08-0.18-3.12-0.18
		c-2.56,0-4.687,0.847-6.38,2.54s-2.54,4.207-2.54,7.54c0,1.547,0.166,2.954,0.5,4.22c0.333,1.268,0.86,2.354,1.58,3.26
		c0.72,0.935,1.64,1.647,2.76,2.141s2.48,0.74,4.08,0.74c1.12,0,2.24-0.167,3.36-0.5c1.12-0.334,2.04-0.754,2.76-1.261l-0.4-1.199
		C125.97,26,125.615,26.101,125.229,26.221z"/>
	<path fill="#FFFFFF" d="M145.729,19.04l0.84-1.119c0-3.094-0.693-5.446-2.08-7.061c-1.387-1.613-3.174-2.42-5.359-2.42
		c-2.48,0-4.46,0.914-5.94,2.74c-1.479,1.827-2.22,4.34-2.22,7.54c0,1.439,0.14,2.773,0.42,4s0.753,2.307,1.42,3.24
		c0.64,0.906,1.486,1.619,2.54,2.14c1.053,0.52,2.34,0.78,3.86,0.78c0.586,0,1.206-0.061,1.859-0.181s1.273-0.286,1.86-0.5
		c0.613-0.186,1.173-0.393,1.68-0.62c0.507-0.226,0.92-0.446,1.24-0.659l-0.4-1.28c-0.666,0.24-1.514,0.5-2.54,0.78
		c-1.026,0.279-1.939,0.42-2.739,0.42c-1.228,0-2.254-0.193-3.08-0.58c-0.827-0.387-1.494-0.9-2-1.54
		c-0.507-0.641-0.867-1.38-1.08-2.221c-0.214-0.84-0.32-1.699-0.32-2.579V19.04H145.729z M135.309,12c1.08-1.199,2.354-1.8,3.82-1.8
		c1.439,0,2.606,0.601,3.5,1.8c0.893,1.2,1.34,2.961,1.34,5.28h-10.24C133.702,14.961,134.229,13.2,135.309,12z"/>
	<path fill="#FFFFFF" d="M162.607,2.681l2.561,0.56v23.4l-2.96,0.56v1.28h9.079V27.2l-3.56-0.56V16.4h7.6l0.601,2.68h1.319v-7.239
		h-1.319l-0.601,2.64h-7.6V3.36h4.28c0.293,0,0.706,0.007,1.239,0.021s1.094,0.033,1.681,0.06c0.613,0.027,1.213,0.06,1.8,0.1
		c0.586,0.04,1.08,0.074,1.48,0.101l0.64,2.92h1.399V1.48h-17.64V2.681z"/>
	<path fill="#FFFFFF" d="M187.647,4.24c0.561,0,1.054-0.206,1.48-0.62c0.426-0.413,0.64-0.913,0.64-1.5
		c0-0.56-0.214-1.053-0.64-1.479C188.701,0.214,188.208,0,187.647,0c-0.587,0-1.087,0.214-1.5,0.641s-0.62,0.92-0.62,1.479
		c0,0.587,0.207,1.087,0.62,1.5C186.561,4.034,187.061,4.24,187.647,4.24z"/>
	<path fill="#FFFFFF" d="M188.928,8.721l-0.6-0.36c-0.827,0.187-1.554,0.327-2.181,0.42c-0.627,0.094-1.273,0.141-1.939,0.141
		l0.08,1.359l2.199,0.32v16.16l-2.72,0.52v1.2h7.92v-1.2l-2.76-0.52V8.721z"/>
	<path fill="#FFFFFF" d="M208.827,26.221c-0.387,0.12-0.794,0.22-1.22,0.3c-0.454,0.106-0.914,0.193-1.38,0.26
		c-0.468,0.067-0.914,0.101-1.341,0.101c-1.279,0-2.366-0.214-3.26-0.641c-0.894-0.426-1.606-1.013-2.14-1.76
		c-0.534-0.746-0.92-1.633-1.16-2.66c-0.24-1.026-0.36-2.126-0.36-3.3c0-2.773,0.613-4.854,1.84-6.24
		c1.227-1.386,2.681-2.08,4.36-2.08c0.72,0,1.38,0.061,1.98,0.181c0.6,0.119,1.14,0.3,1.619,0.54c0.24,0.399,0.427,0.819,0.561,1.26
		c0.133,0.439,0.227,0.819,0.28,1.14l0.88,0.2l0.56-0.08v-4.4c-0.8-0.159-1.72-0.3-2.76-0.42s-2.08-0.18-3.12-0.18
		c-2.56,0-4.687,0.847-6.38,2.54s-2.54,4.207-2.54,7.54c0,1.547,0.166,2.954,0.5,4.22c0.333,1.268,0.86,2.354,1.58,3.26
		c0.72,0.935,1.64,1.647,2.76,2.141s2.48,0.74,4.08,0.74c1.12,0,2.24-0.167,3.36-0.5c1.12-0.334,2.04-0.754,2.76-1.261l-0.4-1.199
		C209.567,26,209.213,26.101,208.827,26.221z"/>
	<path fill="#FFFFFF" d="M222.586,26.461c-0.653,0.199-1.22,0.3-1.699,0.3c-0.641,0-1.127-0.094-1.46-0.28
		c-0.334-0.187-0.5-0.72-0.5-1.6v-14.24h5.079v-1.88h-5.079v-4.8h-0.881l-1.72,4.8l-3.08,0.76v1.12h3.2v14.64
		c0,0.934,0.227,1.767,0.68,2.5s1.32,1.101,2.601,1.101c0.426,0,0.886-0.061,1.38-0.181c0.493-0.12,0.966-0.272,1.42-0.46
		c0.479-0.186,0.9-0.373,1.26-0.56c0.36-0.187,0.646-0.36,0.86-0.521l-0.44-1.239C223.779,26.08,223.239,26.261,222.586,26.461z"/>
	<path fill="#FFFFFF" d="M232.286,8.721l-0.6-0.36c-0.827,0.187-1.554,0.327-2.181,0.42c-0.627,0.094-1.273,0.141-1.939,0.141
		l0.08,1.359l2.199,0.32v16.16l-2.72,0.52v1.2h7.92v-1.2l-2.76-0.52V8.721z"/>
	<path fill="#FFFFFF" d="M231.006,4.24c0.561,0,1.054-0.206,1.48-0.62c0.426-0.413,0.64-0.913,0.64-1.5
		c0-0.56-0.214-1.053-0.64-1.479C232.06,0.214,231.566,0,231.006,0c-0.587,0-1.087,0.214-1.5,0.641s-0.62,0.92-0.62,1.479
		c0,0.587,0.207,1.087,0.62,1.5C229.919,4.034,230.419,4.24,231.006,4.24z"/>
	<path fill="#FFFFFF" d="M247.166,8.44c-2.88,0-5.02,0.92-6.42,2.76c-1.399,1.84-2.1,4.308-2.1,7.4c0,3.146,0.706,5.646,2.12,7.5
		c1.413,1.854,3.493,2.78,6.24,2.78c2.933,0,5.1-0.934,6.5-2.801c1.399-1.866,2.1-4.359,2.1-7.479c0-3.173-0.714-5.66-2.14-7.46
		C252.04,9.341,249.939,8.44,247.166,8.44z M251.587,24.841c-0.895,1.573-2.421,2.359-4.58,2.359c-2.16,0-3.641-0.793-4.44-2.38
		c-0.8-1.586-1.2-3.66-1.2-6.22c0-2.507,0.4-4.546,1.2-6.12c0.8-1.573,2.28-2.36,4.44-2.36c2.159,0.027,3.686,0.827,4.58,2.4
		c0.893,1.573,1.34,3.613,1.34,6.12C252.927,21.2,252.479,23.268,251.587,24.841z"/>
	<path fill="#FFFFFF" d="M275.365,26.841v-13c0-1.946-0.507-3.333-1.52-4.16c-1.014-0.826-2.2-1.24-3.561-1.24
		c-0.479,0-1.007,0.06-1.58,0.18s-1.14,0.274-1.699,0.46c-0.587,0.188-1.141,0.395-1.66,0.62c-0.521,0.228-0.954,0.434-1.3,0.62
		c-0.08,0.08-0.174,0.101-0.28,0.061c-0.107-0.04-0.134-0.113-0.08-0.221l0.08-1.319l-0.68-0.44c-0.827,0.187-1.534,0.327-2.12,0.42
		c-0.587,0.094-1.214,0.141-1.88,0.141l0.08,1.279l2.159,0.32v16.28l-2.199,0.479v1.16h7.119v-1.16l-2.479-0.479v-15.32
		c0.24-0.026,0.606-0.093,1.1-0.2c0.493-0.106,1.033-0.2,1.62-0.28c0.561-0.105,1.12-0.199,1.681-0.279
		c0.56-0.08,1.025-0.12,1.399-0.12c1.12,0,1.96,0.32,2.521,0.96c0.56,0.64,0.84,1.507,0.84,2.6v12.641l-2.44,0.479v1.16h7.12v-1.16
		L275.365,26.841z"/>
	<path fill="#FFFFFF" d="M5.836,41.881c0.257,0.063,0.555,0.106,0.896,0.128c0.341,0.021,0.608,0.031,0.8,0.031
		c0.384,0,0.752,0.006,1.104,0.017c0.352,0.011,0.698,0.016,1.04,0.016c0.341,0,0.682,0,1.023,0c0.341,0,0.704-0.011,1.088-0.032
		c1.408-0.042,2.646-0.079,3.712-0.111s1.633-0.048,1.696-0.048l3.136-0.032c-0.128,1.109-0.325,2.352-0.592,3.728
		s-0.56,2.641-0.88,3.792c-0.064,0.192-0.048,0.357,0.048,0.496c0.096,0.14,0.219,0.229,0.368,0.272s0.314,0.026,0.496-0.048
		c0.181-0.075,0.325-0.219,0.432-0.433c0.171-0.319,0.373-0.832,0.608-1.536c0.234-0.704,0.469-1.461,0.704-2.271
		c0.213-0.789,0.41-1.558,0.592-2.304c0.181-0.747,0.293-1.333,0.336-1.761c0-0.106,0.005-0.196,0.016-0.271
		s0.017-0.145,0.017-0.208c0-0.064,0.005-0.123,0.016-0.176c0.011-0.054,0.026-0.134,0.048-0.24c0-0.064-0.011-0.133-0.031-0.208
		c-0.021-0.074-0.054-0.145-0.097-0.208c-0.149-0.234-0.373-0.379-0.672-0.433c-0.299-0.053-0.533-0.058-0.704-0.016l-3.903,0.192
		c-0.064,0-0.315,0.011-0.752,0.031c-0.438,0.021-0.944,0.043-1.521,0.064c-0.576,0-1.174,0.011-1.792,0.032
		c-0.619,0.021-1.142,0.032-1.568,0.032c-0.319,0.021-0.73,0.026-1.231,0.016c-0.502-0.011-1.02-0.026-1.552-0.048
		c-0.556-0.043-1.089-0.097-1.601-0.16c-0.512-0.064-0.949-0.16-1.312-0.288l-0.256,1.216c-0.064,0.214-0.07,0.39-0.017,0.528
		C5.585,41.779,5.687,41.859,5.836,41.881z"/>
	<path fill="#FFFFFF" d="M18.893,59.416c-0.598-0.512-1.296-0.906-2.097-1.184c-0.8-0.277-1.637-0.416-2.512-0.416
		c-1.92,0-3.51,0.528-4.768,1.584c-1.259,1.056-1.889,2.512-1.889,4.368c0,0.853,0.165,1.643,0.496,2.368
		c0.331,0.725,0.795,1.354,1.393,1.888c0.576,0.512,1.274,0.917,2.096,1.216s1.712,0.448,2.672,0.448
		c0.917,0,1.776-0.149,2.576-0.448s1.498-0.704,2.096-1.216c0.576-0.533,1.035-1.163,1.376-1.888
		c0.342-0.726,0.513-1.516,0.513-2.368c0-0.917-0.177-1.744-0.528-2.48C19.965,60.553,19.489,59.929,18.893,59.416z M17.708,66.648
		c-0.726,0.832-1.866,1.248-3.424,1.248c-1.515,0-2.661-0.416-3.439-1.248c-0.779-0.832-1.168-1.792-1.168-2.88
		c0-1.152,0.384-2.133,1.151-2.944c0.769-0.811,1.92-1.216,3.456-1.216c1.493,0,2.619,0.405,3.376,1.216
		c0.757,0.812,1.136,1.792,1.136,2.944C18.796,64.856,18.434,65.816,17.708,66.648z"/>
	<path fill="#FFFFFF" d="M26.988,52.505c-0.192-0.149-0.496-0.219-0.912-0.208s-0.955,0.048-1.616,0.111
		c-0.128,0.021-0.384,0.043-0.768,0.064s-0.811,0.054-1.28,0.096c-0.491,0.021-0.976,0.048-1.456,0.08
		c-0.479,0.032-0.88,0.048-1.199,0.048l-5.729,0.192v-5.952c0-0.192-0.059-0.427-0.176-0.704s-0.433-0.448-0.944-0.512l-2.016-0.192
		l-0.064,0.608c-0.043,0.256,0,0.447,0.128,0.576c0.128,0.128,0.277,0.213,0.448,0.256c0.32,0.106,0.512,0.256,0.576,0.447
		c0.063,0.192,0.096,0.491,0.096,0.896v4.64C11.223,52.974,10.337,52.99,9.42,53c-0.917,0.012-1.855,0.006-2.815-0.016
		c-0.192,0-0.555-0.005-1.088-0.016c-0.534-0.011-1.12-0.026-1.76-0.048c-0.641-0.043-1.28-0.091-1.921-0.145
		c-0.64-0.053-1.162-0.133-1.567-0.24l-0.225,1.088C-0.02,53.881-0.015,54.1,0.061,54.28c0.074,0.182,0.176,0.283,0.304,0.304
		c0.128,0.064,0.304,0.107,0.528,0.129c0.224,0.021,0.453,0.031,0.688,0.031c0.256,0,0.507-0.005,0.752-0.016
		s0.464-0.026,0.656-0.048l3.616-0.128l12.544-0.32c0.405,0,0.901,0,1.488,0c0.586,0,1.178,0,1.775,0
		c0.619,0,1.211,0.011,1.776,0.032c0.564,0.021,1.051,0.043,1.456,0.063l2.016,0.32c0.128,0.043,0.245,0.006,0.353-0.112
		c0.106-0.116,0.191-0.239,0.256-0.367c0.042-0.086,0.053-0.187,0.032-0.305c-0.021-0.117-0.107-0.25-0.257-0.399L26.988,52.505z"/>
	<path fill="#FFFFFF" d="M55.916,48.152c-0.171-0.085-0.319-0.139-0.447-0.16c-0.128-0.021-0.256-0.031-0.384-0.031
		c-0.107,0.021-0.235,0.053-0.385,0.096s-0.319,0.096-0.512,0.16c-0.491,0.149-0.854,0.245-1.088,0.288
		c-0.235,0.043-0.512,0.063-0.832,0.063l-1.28,0.032v-7.904c0-0.384-0.048-0.666-0.144-0.848c-0.097-0.182-0.39-0.39-0.88-0.624
		l-1.408-0.641c-0.277-0.128-0.502-0.031-0.672,0.288c-0.171,0.32-0.149,0.565,0.063,0.736c0.299,0.256,0.549,0.512,0.752,0.769
		c0.203,0.256,0.305,0.587,0.305,0.991v15.937c0,0.149,0.085,0.24,0.256,0.271c0.17,0.032,0.309-0.016,0.416-0.144
		c0.063-0.085,0.165-0.245,0.304-0.48c0.139-0.234,0.282-0.501,0.432-0.8s0.283-0.613,0.4-0.944c0.117-0.33,0.176-0.645,0.176-0.943
		v-4.128h3.968c0.085,0,0.245,0.005,0.48,0.016c0.234,0.011,0.427,0.027,0.576,0.048c0.191,0.064,0.378,0.069,0.56,0.017
		c0.182-0.054,0.336-0.165,0.464-0.336l0.16-0.225c0.106-0.148,0.149-0.298,0.128-0.448c-0.021-0.148-0.106-0.276-0.256-0.384
		L55.916,48.152z"/>
	<path fill="#FFFFFF" d="M48.908,59.416c-0.576-0.512-1.253-0.906-2.031-1.184c-0.779-0.277-1.605-0.416-2.48-0.416
		c-1.92,0-3.478,0.528-4.672,1.584c-1.195,1.056-1.792,2.47-1.792,4.24c0,1.728,0.597,3.114,1.792,4.16
		c1.194,1.045,2.752,1.567,4.672,1.567c1.856,0,3.387-0.522,4.592-1.567c1.205-1.046,1.809-2.433,1.809-4.16
		c0-0.875-0.171-1.669-0.513-2.384C49.943,60.542,49.484,59.929,48.908,59.416z M47.772,66.377c-0.672,0.82-1.798,1.231-3.376,1.231
		c-1.515,0-2.635-0.411-3.36-1.231c-0.726-0.822-1.088-1.756-1.088-2.801c0-1.023,0.357-1.946,1.072-2.768s1.84-1.232,3.376-1.232
		c1.493,0,2.597,0.411,3.313,1.232c0.714,0.821,1.071,1.744,1.071,2.768C48.78,64.621,48.444,65.555,47.772,66.377z"/>
	<path fill="#FFFFFF" d="M43.725,55.145c0.148,0.011,0.32-0.048,0.512-0.176c0.149-0.085,0.24-0.197,0.272-0.336
		c0.031-0.139,0.016-0.347-0.048-0.624l-0.353-0.96c-0.128-0.427-0.277-0.721-0.448-0.88c-0.171-0.16-0.405-0.337-0.704-0.528
		c-0.191-0.085-0.357-0.165-0.495-0.24c-0.14-0.074-0.272-0.154-0.4-0.24c-0.149-0.085-0.294-0.176-0.432-0.271
		c-0.14-0.097-0.283-0.219-0.433-0.368l-3.936-3.392c0.256-0.576,0.501-1.195,0.735-1.856c0.235-0.661,0.448-1.365,0.641-2.112
		c0.128-0.532,0.144-0.912,0.048-1.136s-0.272-0.4-0.528-0.528c-0.319-0.128-0.683-0.267-1.088-0.416
		c-0.405-0.148-0.821-0.276-1.248-0.384c-0.191-0.042-0.357,0.096-0.496,0.416s-0.111,0.544,0.08,0.672l0.641,0.416
		c0.256,0.192,0.41,0.348,0.464,0.464c0.053,0.118,0.068,0.251,0.048,0.4c-0.235,1.387-0.656,2.678-1.264,3.872
		c-0.608,1.195-1.297,2.262-2.064,3.2c-0.747,0.96-1.51,1.787-2.288,2.479c-0.779,0.693-1.445,1.232-2,1.616
		c-0.063,0.064-0.123,0.16-0.176,0.288s-0.059,0.256-0.017,0.384c0.043,0.214,0.139,0.368,0.288,0.464
		c0.149,0.097,0.31,0.134,0.48,0.112c0.063,0,0.16-0.032,0.288-0.096c0.128-0.064,0.256-0.139,0.384-0.225
		c0.341-0.234,0.763-0.544,1.264-0.928s1.051-0.853,1.648-1.408c0.576-0.555,1.162-1.194,1.76-1.92
		c0.597-0.725,1.173-1.557,1.729-2.496l6.655,6.433C43.415,55.032,43.575,55.134,43.725,55.145z"/>
	<path fill="#FFFFFF" d="M86.892,54.744l-1.184-0.64c-0.171-0.085-0.315-0.139-0.433-0.16c-0.117-0.021-0.229-0.032-0.336-0.032
		c-0.128,0.021-0.262,0.054-0.399,0.097c-0.14,0.043-0.305,0.085-0.496,0.128c-0.491,0.171-0.864,0.277-1.12,0.319
		c-0.256,0.043-0.544,0.064-0.864,0.064l-1.248,0.063V40.696c0-0.384-0.048-0.666-0.144-0.848c-0.097-0.182-0.39-0.39-0.88-0.624
		l-1.376-0.641c-0.3-0.128-0.534-0.031-0.704,0.288c-0.171,0.32-0.14,0.565,0.096,0.736c0.299,0.256,0.544,0.512,0.736,0.769
		c0.191,0.256,0.288,0.587,0.288,0.991v27.2c0,0.128,0.085,0.208,0.256,0.24c0.17,0.032,0.309-0.017,0.416-0.145
		c0.063-0.085,0.165-0.239,0.304-0.464c0.139-0.224,0.282-0.485,0.432-0.784s0.283-0.613,0.4-0.943
		c0.117-0.331,0.176-0.656,0.176-0.977v-9.439h3.968c0.085,0,0.245,0.005,0.48,0.016c0.234,0.011,0.427,0.027,0.576,0.048
		c0.191,0.064,0.362,0.097,0.512,0.097s0.288-0.085,0.416-0.256l0.352-0.48c0.128-0.128,0.16-0.251,0.097-0.368
		C87.147,54.995,87.041,54.872,86.892,54.744z"/>
	<path fill="#FFFFFF" d="M76.779,58.521c-0.128-0.064-0.277-0.133-0.447-0.208c-0.172-0.074-0.288-0.101-0.353-0.08
		c-1.365,0.448-2.896,0.821-4.592,1.12s-3.28,0.522-4.752,0.672v-7.424c0-0.192-0.06-0.427-0.176-0.704
		c-0.118-0.277-0.433-0.448-0.944-0.512L63.5,51.192l-0.064,0.576c-0.043,0.256,0,0.448,0.128,0.576s0.277,0.213,0.448,0.256
		c0.32,0.106,0.512,0.256,0.576,0.448c0.063,0.191,0.096,0.49,0.096,0.896v6.24c-1.152,0.063-2.293,0.096-3.424,0.096
		s-2.08-0.074-2.848-0.224l-0.16,0.928c-0.064,0.256-0.08,0.453-0.048,0.592c0.031,0.14,0.111,0.229,0.239,0.272
		c0.277,0.128,0.561,0.203,0.849,0.224c0.288,0.021,0.527,0.032,0.72,0.032c0.362,0.021,0.794,0.021,1.296,0
		c0.501-0.021,1.019-0.043,1.552-0.064c0.513-0.042,1.014-0.079,1.504-0.111c0.491-0.032,0.896-0.069,1.217-0.112
		c0.703-0.063,1.524-0.154,2.464-0.271c0.938-0.117,1.92-0.272,2.943-0.465c1.024-0.191,2.054-0.416,3.088-0.672
		c1.035-0.256,2-0.564,2.896-0.928c0.234-0.085,0.309-0.234,0.224-0.448C77.11,58.819,76.972,58.648,76.779,58.521z"/>
	<path fill="#FFFFFF" d="M64.844,44.265c-0.47-0.011-0.949-0.026-1.44-0.048c-0.512-0.043-1.008-0.097-1.487-0.16
		c-0.48-0.064-0.902-0.16-1.265-0.288l-0.256,1.216c-0.063,0.214-0.069,0.39-0.016,0.528c0.053,0.139,0.154,0.219,0.304,0.24
		c0.256,0.063,0.555,0.106,0.896,0.128c0.341,0.021,0.607,0.031,0.8,0.031h3.936c0.192,0,0.496-0.005,0.912-0.016
		s0.88-0.026,1.393-0.048c0.49-0.021,1.008-0.043,1.552-0.064c0.544-0.021,1.05-0.042,1.52-0.063
		c-0.043,0.683-0.106,1.467-0.191,2.352c-0.086,0.886-0.182,1.776-0.288,2.672c-0.107,0.918-0.229,1.804-0.368,2.656
		c-0.139,0.854-0.272,1.568-0.4,2.145c-0.063,0.191-0.048,0.357,0.048,0.495c0.097,0.14,0.219,0.229,0.368,0.272
		c0.171,0.043,0.341,0.027,0.513-0.048c0.17-0.074,0.309-0.219,0.416-0.433c0.17-0.319,0.362-0.933,0.575-1.84
		c0.213-0.906,0.416-1.882,0.608-2.928c0.192-1.045,0.362-2.069,0.512-3.072c0.149-1.002,0.245-1.771,0.288-2.304l0.064-0.928
		c0-0.064-0.012-0.133-0.032-0.208c-0.021-0.075-0.054-0.145-0.096-0.208c-0.149-0.234-0.374-0.379-0.673-0.433
		c-0.299-0.053-0.533-0.059-0.703-0.016H72.3l-2.24,0.192c-0.063,0-0.229,0.011-0.496,0.031c-0.267,0.021-0.592,0.043-0.976,0.064
		c-0.384,0-0.8,0.011-1.248,0.032s-0.886,0.031-1.313,0.031C65.708,44.27,65.313,44.275,64.844,44.265z"/>
	<path fill="#FFFFFF" d="M116.107,49.881l-1.152-0.673c-0.171-0.085-0.314-0.138-0.432-0.159s-0.24-0.021-0.368,0
		c-0.106,0-0.229,0.026-0.368,0.08c-0.139,0.053-0.304,0.101-0.496,0.144c-0.512,0.149-0.891,0.245-1.136,0.288
		s-0.528,0.063-0.848,0.063l-1.28,0.064v-8.992c0-0.384-0.048-0.666-0.144-0.848c-0.097-0.182-0.379-0.39-0.849-0.624l-1.408-0.641
		c-0.277-0.128-0.501-0.031-0.672,0.288c-0.171,0.32-0.149,0.565,0.064,0.736c0.299,0.256,0.544,0.512,0.736,0.769
		c0.191,0.256,0.287,0.587,0.287,0.991v16.641c0,0.149,0.091,0.239,0.272,0.271c0.181,0.032,0.314-0.026,0.4-0.176
		c0.063-0.085,0.17-0.24,0.319-0.464c0.149-0.225,0.288-0.485,0.416-0.784c0.149-0.299,0.283-0.613,0.4-0.944
		c0.117-0.33,0.176-0.655,0.176-0.976v-3.744h4c0.064,0,0.213,0.006,0.448,0.016c0.234,0.012,0.437,0.027,0.607,0.049
		c0.192,0.063,0.379,0.069,0.561,0.016c0.181-0.053,0.325-0.165,0.432-0.336l0.192-0.224c0.128-0.149,0.176-0.299,0.144-0.448
		C116.38,50.115,116.278,49.987,116.107,49.881z"/>
	<path fill="#FFFFFF" d="M100.747,55.576c1.045-1.023,1.568-2.347,1.568-3.968c0-1.643-0.555-2.971-1.664-3.984
		c-1.109-1.013-2.528-1.52-4.256-1.52c-1.856,0-3.328,0.507-4.416,1.52c-1.088,1.014-1.632,2.342-1.632,3.984
		c0,1.621,0.544,2.944,1.632,3.968c1.088,1.024,2.56,1.536,4.416,1.536C98.251,57.112,99.702,56.601,100.747,55.576z M92.331,51.576
		c0-1.088,0.357-1.983,1.072-2.688s1.712-1.057,2.992-1.057s2.261,0.353,2.944,1.057c0.682,0.704,1.023,1.6,1.023,2.688
		s-0.32,1.995-0.96,2.721c-0.64,0.725-1.643,1.088-3.008,1.088c-1.174,0-2.145-0.347-2.912-1.04S92.331,52.729,92.331,51.576z"/>
	<path fill="#FFFFFF" d="M109.579,59.801c-0.063-0.064-0.144-0.112-0.239-0.145c-0.097-0.032-0.208-0.048-0.337-0.048l-4.928,0.192
		c-0.213,0.021-0.683,0.037-1.408,0.048c-0.725,0.011-1.578,0.016-2.56,0.016c-0.619,0-1.232,0-1.84,0c-0.608,0-1.189,0-1.744,0
		c-0.555-0.021-1.077-0.053-1.568-0.096c-0.49-0.043-0.938-0.106-1.344-0.192l-0.096,1.057c-0.021,0.191-0.021,0.367,0,0.527
		c0.021,0.16,0.096,0.272,0.224,0.336c0.128,0.086,0.267,0.145,0.416,0.177c0.149,0.031,0.288,0.059,0.416,0.08
		c0.149,0,0.288-0.006,0.416-0.017s0.245-0.016,0.353-0.016c0.256,0,0.517-0.005,0.783-0.017c0.267-0.01,0.528-0.026,0.784-0.048
		l3.393-0.16c0.148,0,0.416-0.005,0.8-0.016s0.789-0.026,1.216-0.048c0.405-0.021,0.773-0.037,1.104-0.048
		c0.331-0.011,0.539-0.017,0.624-0.017l3.776-0.096v7.68c0,0.149,0.091,0.234,0.272,0.256c0.181,0.021,0.314-0.031,0.399-0.159
		l0.448-0.736c0.128-0.192,0.293-0.512,0.496-0.96c0.202-0.448,0.325-0.875,0.368-1.28V60.28c0-0.063-0.021-0.144-0.064-0.24
		C109.696,59.944,109.644,59.864,109.579,59.801z"/>
	<path fill="#FFFFFF" d="M96.459,44.664c0.491-0.021,0.997-0.042,1.521-0.063c0.522-0.021,1.04-0.043,1.552-0.064
		c0.512,0,1.019,0.006,1.521,0.017c0.501,0.011,0.997,0.026,1.487,0.048c0.149,0.021,0.31,0.048,0.48,0.08
		c0.17,0.032,0.33,0.069,0.479,0.111c0.149,0.022,0.288,0.049,0.416,0.08c0.128,0.032,0.245,0.06,0.353,0.08
		c0.191,0.043,0.336,0.032,0.432-0.031c0.096-0.064,0.208-0.225,0.336-0.48s0.176-0.448,0.145-0.576
		c-0.032-0.128-0.177-0.298-0.433-0.512l-0.8-0.48c-0.256-0.128-0.491-0.196-0.704-0.208c-0.213-0.01-0.672,0.017-1.376,0.08
		c-0.213,0.064-0.778,0.134-1.695,0.208c-0.918,0.075-1.856,0.134-2.816,0.177v-2.4c0-0.384-0.043-0.688-0.128-0.912
		c-0.086-0.224-0.374-0.421-0.864-0.592l-1.216-0.384c-0.192-0.043-0.347,0.063-0.464,0.319c-0.118,0.256-0.112,0.438,0.016,0.544
		c0.277,0.257,0.459,0.47,0.544,0.641s0.128,0.479,0.128,0.928v1.92c-0.533,0.021-1.04,0.032-1.52,0.032
		c-0.48,0-0.977-0.011-1.488-0.032c-0.704,0-1.435-0.021-2.191-0.063c-0.758-0.043-1.51-0.139-2.257-0.288l-0.159,1.184
		c-0.043,0.192-0.049,0.342-0.017,0.448s0.112,0.203,0.24,0.288c0.192,0.128,0.453,0.208,0.784,0.239
		c0.33,0.032,0.752,0.038,1.264,0.017c0.981-0.064,2.043-0.123,3.184-0.176C94.353,44.787,95.436,44.729,96.459,44.664z"/>
</g>
</svg>
