<?xml version="1.0" encoding="utf-8"?>
<!-- Generator: Adobe Illustrator 16.0.0, SVG Export Plug-In . SVG Version: 6.00 Build 0)  -->
<!DOCTYPE svg PUBLIC "-//W3C//DTD SVG 1.1//EN" "http://www.w3.org/Graphics/SVG/1.1/DTD/svg11.dtd">
<svg version="1.1" id="Layer_1" xmlns="http://www.w3.org/2000/svg" xmlns:xlink="http://www.w3.org/1999/xlink" x="0px" y="0px"
	 width="226.187px" height="104.777px" viewBox="0 0 226.187 104.777" enable-background="new 0 0 226.187 104.777"
	 xml:space="preserve">
<g>
	<path fill="#FFFFFF" d="M70.111,62.297l-2.64-2.4c-0.48-0.372-1.24-0.546-2.28-0.52c-1.04,0.027-2.388,0.12-4.04,0.28
		c-0.32,0.054-0.96,0.107-1.92,0.16c-0.96,0.054-2.027,0.107-3.2,0.159c-1.228,0.107-2.439,0.188-3.64,0.24
		c-1.2,0.054-2.2,0.08-3,0.08c-1.813,0.107-3.72,0.2-5.72,0.28s-4.12,0.12-6.36,0.12v-7.761c0-0.479-0.147-1.065-0.44-1.76
		c-0.293-0.692-1.08-1.12-2.359-1.28l-5.04-0.479l-0.16,1.52c-0.107,0.641,0,1.12,0.32,1.44c0.319,0.32,0.692,0.534,1.119,0.64
		c0.801,0.268,1.28,0.641,1.44,1.12c0.16,0.48,0.24,1.228,0.24,2.24v4.48c-2.454,0.054-5,0.094-7.641,0.119
		c-2.64,0.028-5.399,0.014-8.279-0.04c-0.48,0-1.388-0.012-2.721-0.04c-1.333-0.025-2.8-0.065-4.399-0.119
		c-1.601-0.106-3.2-0.227-4.8-0.36c-1.601-0.133-2.908-0.333-3.92-0.6l-0.561,2.72c-0.16,0.64-0.147,1.187,0.04,1.64
		c0.187,0.453,0.44,0.706,0.76,0.76c0.32,0.16,0.761,0.267,1.32,0.32c0.56,0.053,1.133,0.08,1.72,0.08
		c0.641,0,1.267-0.014,1.88-0.04c0.613-0.027,1.16-0.067,1.641-0.12l9.04-0.319l31.359-0.721c1.013,0,2.253,0,3.721,0
		c1.466,0,2.946,0,4.439,0c1.547,0,3.026,0.026,4.44,0.08c1.412,0.053,2.626,0.133,3.64,0.24l5.04,0.8
		c0.32,0.106,0.612,0.013,0.88-0.28c0.267-0.293,0.48-0.6,0.641-0.92c0.105-0.214,0.132-0.467,0.079-0.76
		C70.697,63.003,70.484,62.67,70.111,62.297z"/>
	<path fill="#FFFFFF" d="M14.352,30.937c0.372,0.214,0.666,0.428,0.88,0.641c0.213,0.214,0.372,0.479,0.48,0.8
		c0.052,0.32,0.092,0.693,0.119,1.12c0.026,0.428,0.04,0.907,0.04,1.439v7.681c0,1.067,0.227,1.92,0.681,2.56
		c0.452,0.641,1.026,1.12,1.72,1.44c0.692,0.319,1.412,0.52,2.16,0.6c0.746,0.08,1.439,0.12,2.08,0.12h31.6
		c0.746,0,1.267-0.093,1.561-0.28c0.292-0.186,0.52-0.652,0.68-1.399c0.16-0.746,0.146-1.253-0.04-1.521
		c-0.188-0.266-0.68-0.56-1.48-0.88l-2.8-1.12c-0.533-0.16-0.974-0.252-1.319-0.279c-0.348-0.026-0.814,0.039-1.4,0.199
		c-0.96,0.268-2.454,0.534-4.48,0.801c-2.027,0.267-4.213,0.399-6.56,0.399H22.751c-0.96,0-1.52-0.227-1.68-0.68
		s-0.24-1.106-0.24-1.96v-9.04l28.32-0.4c1.28,0,2.2-0.226,2.76-0.68c0.561-0.452,0.84-1.16,0.84-2.12v-14.56
		c0-0.641-0.067-1.106-0.199-1.4c-0.134-0.293-0.28-0.521-0.44-0.68c-0.214-0.213-0.533-0.36-0.96-0.44
		c-0.428-0.08-0.827-0.12-1.2-0.12l-18.56,0.4c-1.548,0.054-3.027,0.08-4.44,0.08s-2.84-0.026-4.279-0.08
		c-1.388,0-2.801-0.066-4.24-0.2c-1.44-0.133-2.934-0.332-4.48-0.6l-0.56,2.88c-0.107,0.427-0.054,0.787,0.16,1.08
		c0.212,0.293,0.506,0.52,0.88,0.68c0.532,0.268,1.24,0.414,2.12,0.44c0.88,0.027,1.56,0.014,2.04-0.04
		c0.586,0,1.212-0.026,1.88-0.08c0.666-0.053,1.319-0.08,1.96-0.08l9.359-0.16l14.4-0.16c0.746,0,1.2,0.067,1.36,0.2
		c0.16,0.134,0.239,0.573,0.239,1.32v8.079c0,0.748-0.134,1.268-0.399,1.561c-0.268,0.294-0.694,0.439-1.28,0.439l-27.52,0.48
		c-0.107,0-0.214-0.013-0.32-0.04c-0.107-0.026-0.214-0.04-0.32-0.04c-0.107-0.053-0.214-0.08-0.319-0.08
		c-0.107,0-0.214-0.026-0.32-0.08l-4.72-0.399v1.6c0,0.588,0.159,1.107,0.479,1.56C13.392,30.391,13.817,30.725,14.352,30.937z"/>
	<path fill="#FFFFFF" d="M111.23,8.857c0.319,0.319,0.612,0.64,0.88,0.96c0.213,0.319,0.4,0.693,0.56,1.119
		c0.16,0.428,0.24,0.908,0.24,1.44v42.24c0,0.319,0.213,0.52,0.64,0.6s0.773-0.04,1.04-0.359c0.16-0.213,0.413-0.601,0.761-1.16
		c0.346-0.561,0.706-1.213,1.08-1.96c0.319-0.747,0.626-1.533,0.92-2.36c0.292-0.826,0.439-1.64,0.439-2.44V30.857h9.601v26.72
		c0,0.319,0.212,0.52,0.64,0.6c0.426,0.08,0.772-0.04,1.04-0.359c0.16-0.213,0.412-0.601,0.76-1.16
		c0.347-0.561,0.706-1.213,1.08-1.96c0.373-0.746,0.706-1.533,1-2.36c0.293-0.826,0.44-1.64,0.44-2.44V5.417
		c0-0.96-0.12-1.666-0.36-2.12c-0.24-0.452-0.974-0.973-2.2-1.56l-3.439-1.601c-0.694-0.319-1.268-0.08-1.721,0.721
		c-0.453,0.8-0.387,1.413,0.2,1.84c0.746,0.64,1.36,1.279,1.84,1.92c0.48,0.64,0.721,1.467,0.721,2.479v19.681h-9.601v-16.08
		c0-1.013-0.12-1.746-0.359-2.2c-0.24-0.452-0.948-0.973-2.12-1.561l-3.521-1.6c-0.693-0.32-1.254-0.08-1.68,0.72
		c-0.428,0.801-0.374,1.414,0.16,1.84C110.59,8.217,110.91,8.537,111.23,8.857z"/>
	<path fill="#FFFFFF" d="M76.99,17.497l1.44,22.56l0.239,2.48c0,0.428,0.12,0.747,0.36,0.96c0.24,0.214,0.466,0.32,0.68,0.32
		c0.48,0.159,1.026,0.213,1.641,0.159c0.612-0.052,1.052-0.239,1.319-0.56c0.32-0.32,0.507-0.68,0.561-1.08
		c0.053-0.4,0.08-0.92,0.08-1.56l17.2-0.32c1.226,0,2.012-0.307,2.359-0.92c0.347-0.612,0.521-1.4,0.521-2.36V16.697
		c0-0.533-0.054-0.96-0.16-1.28c-0.107-0.32-0.24-0.56-0.4-0.72c-0.214-0.16-0.547-0.28-1-0.36s-0.867-0.12-1.24-0.12l-19.439,0.4
		l-2-2.32c-0.268-0.213-0.588-0.307-0.96-0.28c-0.374,0.028-0.854,0.2-1.44,0.521c-0.479,0.32-0.867,0.64-1.16,0.96
		s-0.307,0.72-0.04,1.2L76.99,17.497z M82.391,19.337c0.132-0.32,0.626-0.479,1.479-0.479l12.96-0.24c0.746,0,1.2,0.094,1.36,0.279
		c0.16,0.188,0.24,0.601,0.24,1.24v14c0,0.748-0.107,1.268-0.32,1.561c-0.214,0.293-0.614,0.439-1.2,0.439l-13.84,0.32l-0.8-15.76
		C82.217,20.11,82.257,19.657,82.391,19.337z"/>
	<path fill="#FFFFFF" d="M131.311,74.457c0.746,0,1.266-0.08,1.56-0.24c0.293-0.16,0.547-0.64,0.76-1.439
		c0.16-0.748,0.133-1.254-0.08-1.521c-0.213-0.268-0.72-0.56-1.52-0.88l-3.12-1.28c-0.533-0.214-1-0.308-1.399-0.279
		c-0.4,0.025-0.895,0.119-1.48,0.279c-0.96,0.267-2.52,0.521-4.68,0.761c-2.16,0.239-4.868,0.359-8.12,0.359H100.59
		c-0.96,0-1.52-0.2-1.68-0.6c-0.16-0.4-0.24-1.027-0.24-1.88v-10.08c0-0.692-0.027-1.36-0.08-2c-0.054-0.641-0.188-1.2-0.399-1.681
		c-0.214-0.479-0.561-0.88-1.04-1.199c-0.48-0.32-1.147-0.561-2-0.721l-4.96-0.56v2.08c0,0.64,0.146,1.08,0.439,1.319
		c0.293,0.24,0.761,0.468,1.4,0.681c0.8,0.374,1.28,0.867,1.44,1.479c0.159,0.614,0.239,1.48,0.239,2.601v10.16
		c0,1.119,0.187,1.985,0.561,2.6c0.372,0.612,0.853,1.08,1.439,1.4c0.587,0.319,1.227,0.506,1.92,0.56c0.693,0.053,1.36,0.08,2,0.08
		H131.311z"/>
	<path fill="#FFFFFF" d="M215.63,64.737c0.267-0.294,0.48-0.601,0.641-0.92c0.105-0.214,0.132-0.468,0.079-0.761
		c-0.054-0.293-0.267-0.627-0.64-1l-2.64-2.399c-0.48-0.373-1.24-0.561-2.28-0.561s-2.388,0.08-4.04,0.24
		c-0.32,0.054-0.96,0.107-1.92,0.16c-0.96,0.054-2.027,0.107-3.2,0.16c-1.228,0.107-2.439,0.188-3.64,0.239
		c-1.2,0.055-2.2,0.08-3,0.08c-2.134,0.054-4.414,0.12-6.84,0.2c-2.428,0.08-5,0.147-7.721,0.2c-2.773,0.107-5.68,0.174-8.72,0.2
		c-3.04,0.027-6.24-0.013-9.6-0.12c-0.48,0-1.388-0.013-2.721-0.04c-1.333-0.026-2.8-0.093-4.399-0.2
		c-1.601-0.106-3.2-0.227-4.8-0.359c-1.601-0.133-2.908-0.333-3.92-0.601l-0.561,2.72c-0.16,0.641-0.147,1.187,0.04,1.641
		c0.187,0.452,0.44,0.706,0.76,0.76c0.32,0.16,0.761,0.267,1.32,0.32c0.56,0.052,1.133,0.08,1.72,0.08
		c0.641,0,1.267-0.014,1.88-0.04c0.613-0.028,1.16-0.04,1.641-0.04l9.04-0.32l31.359-0.56c1.013,0,2.253,0,3.721,0
		c1.466,0,2.946,0,4.439,0c1.547,0,3.026,0.025,4.44,0.079c1.412,0.053,2.626,0.133,3.64,0.24l5.04,0.88
		C215.07,65.123,215.362,65.029,215.63,64.737z"/>
	<path fill="#FFFFFF" d="M156.271,48.697c0.159,0.054,0.426,0.054,0.8,0c0.372-0.053,0.746-0.16,1.12-0.32
		c1.065-0.48,2.452-1.253,4.159-2.32c1.707-1.066,3.573-2.399,5.601-4c1.973-1.546,4-3.359,6.08-5.439s4-4.4,5.76-6.96l23.68,17.68
		c0.533,0.428,0.986,0.64,1.36,0.64c0.372,0,0.772-0.186,1.2-0.56c0.319-0.267,0.506-0.572,0.56-0.92
		c0.053-0.347-0.08-0.84-0.399-1.48l-1.2-2.399c-0.48-0.96-0.974-1.601-1.48-1.92c-0.507-0.32-1.16-0.641-1.96-0.96
		c-0.479-0.16-0.907-0.307-1.279-0.44c-0.374-0.133-0.748-0.28-1.12-0.439c-0.374-0.16-0.734-0.333-1.08-0.521
		c-0.348-0.187-0.734-0.44-1.16-0.76l-15.36-10.561c0.96-1.6,1.826-3.279,2.601-5.04c0.772-1.76,1.426-3.6,1.96-5.52
		c0.319-1.28,0.386-2.2,0.2-2.76c-0.188-0.561-0.574-1-1.16-1.32c-0.801-0.32-1.734-0.692-2.801-1.12
		c-1.067-0.426-2.107-0.8-3.119-1.12c-0.48-0.16-0.908,0.188-1.28,1.04c-0.374,0.854-0.294,1.44,0.24,1.76l1.52,1.12
		c0.64,0.48,1.026,0.868,1.16,1.16c0.133,0.294,0.173,0.601,0.12,0.92c-0.907,3.628-2.44,7.08-4.601,10.36
		c-2.159,3.28-4.547,6.2-7.159,8.76c-2.561,2.614-5.094,4.813-7.601,6.601s-4.507,3-6,3.64c-0.214,0.107-0.413,0.294-0.6,0.56
		c-0.188,0.268-0.28,0.588-0.28,0.96c0,0.588,0.146,1,0.44,1.24C155.482,48.497,155.843,48.645,156.271,48.697z"/>
	<path fill="#FFFFFF" d="M87.67,92.377c1.439-0.4,2.653-1.24,3.64-2.52c0.986-1.28,1.48-2.934,1.48-4.961
		c0-1.065-0.16-2.053-0.48-2.96c-0.319-0.906-0.854-1.706-1.6-2.399c-0.747-0.666-1.734-1.193-2.96-1.58
		c-1.228-0.387-2.747-0.58-4.561-0.58h-9.12v1.2l2.561,0.52v23.48l-2.96,0.52v1.28h9v-1.28l-3.48-0.52v-9.681h5.641l6.64,11.48h3.96
		v-1.28l-2.32-1.16L87.67,92.377z M83.43,91.137h-4.24v-11.92h4.16c2.08,0,3.693,0.454,4.84,1.36s1.721,2.399,1.721,4.479
		c0,2-0.527,3.514-1.58,4.54C87.276,90.624,85.643,91.137,83.43,91.137z"/>
	<path fill="#FFFFFF" d="M106.269,84.337c-2.88,0-5.02,0.92-6.42,2.76c-1.399,1.84-2.1,4.308-2.1,7.4c0,3.146,0.706,5.646,2.12,7.5
		c1.413,1.854,3.493,2.78,6.24,2.78c2.933,0,5.1-0.934,6.5-2.801c1.399-1.866,2.1-4.359,2.1-7.479c0-3.173-0.714-5.66-2.14-7.46
		C111.143,85.237,109.042,84.337,106.269,84.337z M110.689,100.737c-0.895,1.573-2.421,2.359-4.58,2.359
		c-2.16,0-3.641-0.793-4.44-2.38c-0.8-1.586-1.2-3.66-1.2-6.22c0-2.507,0.4-4.546,1.2-6.12c0.8-1.573,2.28-2.36,4.44-2.36
		c2.159,0.027,3.686,0.827,4.58,2.4c0.893,1.573,1.34,3.613,1.34,6.12C112.029,97.097,111.582,99.164,110.689,100.737z"/>
	<path fill="#FFFFFF" d="M144.588,89.737c0-1.946-0.474-3.333-1.42-4.16c-0.946-0.826-2.1-1.24-3.46-1.24
		c-0.507,0-1.06,0.067-1.66,0.2c-0.6,0.134-1.207,0.307-1.819,0.52c-0.587,0.214-1.16,0.44-1.721,0.681
		c-0.56,0.239-1.054,0.479-1.479,0.72c-0.4-0.72-0.94-1.253-1.62-1.6s-1.46-0.521-2.34-0.521c-0.96,0-2.007,0.214-3.141,0.64
		c-1.134,0.428-2.06,0.841-2.779,1.24c-0.08,0.08-0.174,0.101-0.28,0.061c-0.107-0.04-0.134-0.113-0.08-0.221l0.08-1.319l-0.68-0.44
		c-0.827,0.187-1.534,0.327-2.12,0.42c-0.587,0.094-1.214,0.141-1.88,0.141l0.08,1.279l2.159,0.32v16.28l-2.319,0.479v1.16h7.12
		v-1.16l-2.36-0.479v-15.24c0.24-0.026,0.58-0.101,1.02-0.22c0.44-0.12,0.9-0.233,1.381-0.341c0.506-0.133,1.006-0.246,1.5-0.34
		c0.492-0.093,0.926-0.14,1.3-0.14c1.12,0,1.933,0.267,2.439,0.8c0.507,0.534,0.761,1.48,0.761,2.84v12.641l-2.32,0.479v1.16h7.12
		v-1.16l-2.36-0.479v-13c0-0.4-0.033-0.801-0.1-1.2c-0.067-0.4-0.141-0.773-0.221-1.12c0.267-0.026,0.641-0.093,1.12-0.2
		c0.48-0.106,0.986-0.213,1.521-0.32c0.533-0.105,1.06-0.199,1.58-0.279c0.52-0.08,0.953-0.12,1.3-0.12
		c1.093,0,1.906,0.28,2.439,0.84s0.801,1.48,0.801,2.76v12.641l-1.92,0.479v1.16h6.72v-1.16l-2.36-0.479V89.737z"/>
	<path fill="#FFFFFF" d="M164.349,89.417c0-0.986-0.18-1.8-0.54-2.44c-0.36-0.64-0.82-1.159-1.38-1.56
		c-0.587-0.373-1.267-0.64-2.04-0.8s-1.574-0.24-2.4-0.24c-0.533,0-1.073,0.047-1.62,0.14c-0.547,0.094-1.073,0.194-1.58,0.301
		c-0.533,0.134-1.04,0.26-1.52,0.38c-0.48,0.12-0.934,0.22-1.36,0.3l0.4,3.479l0.6,0.12l1.04-0.239
		c-0.026-0.32-0.007-0.681,0.061-1.08c0.066-0.4,0.166-0.773,0.3-1.12c0.479-0.24,1.033-0.413,1.66-0.521
		c0.626-0.106,1.26-0.16,1.899-0.16c1.094,0,2.04,0.341,2.841,1.021c0.8,0.68,1.199,1.54,1.199,2.58v3.24
		c-1.6,0.159-3.08,0.326-4.439,0.5c-1.36,0.173-2.707,0.42-4.04,0.739c-0.774,0.32-1.507,0.874-2.2,1.66
		c-0.693,0.787-1.04,1.94-1.04,3.46c0,1.574,0.373,2.9,1.12,3.98c0.746,1.08,1.906,1.62,3.479,1.62c0.4,0,0.913-0.007,1.54-0.021
		s1.153-0.087,1.58-0.22c0.507-0.134,0.946-0.28,1.32-0.44c0.373-0.16,0.706-0.333,1-0.52c0.293-0.16,0.553-0.326,0.78-0.5
		c0.226-0.173,0.446-0.34,0.66-0.5c0.079-0.106,0.173-0.166,0.279-0.181c0.106-0.013,0.187,0.061,0.24,0.221l0.44,1.76h4v-0.88
		l-2.28-0.92V89.417z M161.908,101.017c-0.427,0.214-1.04,0.46-1.84,0.74s-1.56,0.5-2.28,0.66c-0.213,0.054-0.406,0.087-0.579,0.1
		c-0.174,0.014-0.341,0.021-0.5,0.021c-0.16,0.026-0.314,0.033-0.461,0.02c-0.146-0.013-0.3-0.02-0.46-0.02
		c-0.96,0-1.687-0.307-2.18-0.92s-0.727-1.493-0.7-2.641c0-0.72,0.174-1.399,0.521-2.04c0.346-0.64,0.813-1.133,1.399-1.479
		c0.641-0.16,1.273-0.293,1.9-0.4c0.626-0.105,1.233-0.199,1.82-0.279c0.56-0.08,1.12-0.16,1.68-0.24s1.12-0.16,1.68-0.24V101.017z"
		/>
	<path fill="#FFFFFF" d="M185.628,89.737c0-1.946-0.507-3.333-1.52-4.16c-1.014-0.826-2.2-1.24-3.561-1.24
		c-0.479,0-1.007,0.06-1.58,0.18s-1.14,0.274-1.699,0.46c-0.587,0.188-1.141,0.395-1.66,0.62c-0.521,0.228-0.954,0.434-1.3,0.62
		c-0.08,0.08-0.174,0.101-0.28,0.061c-0.107-0.04-0.134-0.113-0.08-0.221l0.08-1.319l-0.68-0.44c-0.827,0.187-1.534,0.327-2.12,0.42
		c-0.587,0.094-1.214,0.141-1.88,0.141l0.08,1.279l2.159,0.32v16.28l-2.199,0.479v1.16h7.119v-1.16l-2.479-0.479v-15.32
		c0.24-0.026,0.606-0.093,1.1-0.2c0.493-0.106,1.033-0.2,1.62-0.28c0.561-0.105,1.12-0.199,1.681-0.279
		c0.56-0.08,1.025-0.12,1.399-0.12c1.12,0,1.96,0.32,2.521,0.96c0.56,0.64,0.84,1.507,0.84,2.6v12.641l-2.44,0.479v1.16h7.12v-1.16
		l-2.24-0.479V89.737z"/>
	<path fill="#FFFFFF" d="M204.848,102.117c-0.387,0.12-0.794,0.22-1.22,0.3c-0.454,0.106-0.914,0.193-1.38,0.26
		c-0.468,0.067-0.914,0.101-1.341,0.101c-1.279,0-2.366-0.214-3.26-0.641c-0.894-0.426-1.606-1.013-2.14-1.76
		c-0.534-0.746-0.92-1.633-1.16-2.66c-0.24-1.026-0.36-2.126-0.36-3.3c0-2.773,0.613-4.854,1.84-6.24
		c1.227-1.386,2.681-2.08,4.36-2.08c0.72,0,1.38,0.061,1.98,0.181c0.6,0.119,1.14,0.3,1.619,0.54c0.24,0.399,0.427,0.819,0.561,1.26
		c0.133,0.439,0.227,0.819,0.28,1.14l0.88,0.2l0.56-0.08v-4.4c-0.8-0.159-1.72-0.3-2.76-0.42s-2.08-0.18-3.12-0.18
		c-2.56,0-4.687,0.847-6.38,2.54s-2.54,4.207-2.54,7.54c0,1.547,0.166,2.954,0.5,4.22c0.333,1.268,0.86,2.354,1.58,3.26
		c0.72,0.935,1.64,1.647,2.76,2.141s2.48,0.74,4.08,0.74c1.12,0,2.24-0.167,3.36-0.5c1.12-0.334,2.04-0.754,2.76-1.261l-0.4-1.199
		C205.588,101.896,205.233,101.997,204.848,102.117z"/>
	<path fill="#FFFFFF" d="M222.526,102.317c-1.026,0.279-1.939,0.42-2.739,0.42c-1.228,0-2.254-0.193-3.08-0.58
		c-0.827-0.387-1.494-0.9-2-1.54c-0.507-0.641-0.867-1.38-1.08-2.221c-0.214-0.84-0.32-1.699-0.32-2.579v-0.881h12.04l0.84-1.119
		c0-3.094-0.693-5.446-2.08-7.061c-1.387-1.613-3.174-2.42-5.359-2.42c-2.48,0-4.46,0.914-5.94,2.74
		c-1.479,1.827-2.22,4.34-2.22,7.54c0,1.439,0.14,2.773,0.42,4s0.753,2.307,1.42,3.24c0.64,0.906,1.486,1.619,2.54,2.14
		c1.053,0.52,2.34,0.78,3.86,0.78c0.586,0,1.206-0.061,1.859-0.181s1.273-0.286,1.86-0.5c0.613-0.186,1.173-0.393,1.68-0.62
		c0.507-0.226,0.92-0.446,1.24-0.659l-0.4-1.28C224.4,101.777,223.553,102.037,222.526,102.317z M214.927,87.896
		c1.08-1.199,2.354-1.8,3.82-1.8c1.439,0,2.606,0.601,3.5,1.8c0.893,1.2,1.34,2.961,1.34,5.28h-10.24
		C213.32,90.857,213.847,89.097,214.927,87.896z"/>
</g>
</svg>
