<?xml version="1.0" encoding="utf-8"?>
<!-- Generator: Adobe Illustrator 16.0.0, SVG Export Plug-In . SVG Version: 6.00 Build 0)  -->
<!DOCTYPE svg PUBLIC "-//W3C//DTD SVG 1.1//EN" "http://www.w3.org/Graphics/SVG/1.1/DTD/svg11.dtd">
<svg version="1.1" id="Layer_1" xmlns="http://www.w3.org/2000/svg" xmlns:xlink="http://www.w3.org/1999/xlink" x="0px" y="0px"
	 width="192.541px" height="85.576px" viewBox="0 0 192.541 85.576" enable-background="new 0 0 192.541 85.576"
	 xml:space="preserve">
<g>
	<path fill="#FFFFFF" d="M48.776,22.664l-2.017-1.176c-0.299-0.149-0.551-0.252-0.756-0.309c-0.205-0.056-0.42-0.064-0.644-0.027
		c-0.225,0.037-0.468,0.094-0.729,0.168c-0.262,0.075-0.56,0.168-0.896,0.279c-0.859,0.262-1.494,0.43-1.904,0.505
		c-0.411,0.075-0.896,0.111-1.456,0.111l-2.296,0.112V3.792c0-0.672-0.084-1.166-0.252-1.484c-0.168-0.316-0.682-0.681-1.54-1.092
		l-2.408-1.12C33.395-0.128,32.993,0.04,32.676,0.6c-0.317,0.561-0.271,0.99,0.141,1.288c0.521,0.448,0.951,0.896,1.287,1.345
		c0.337,0.447,0.505,1.027,0.505,1.735V40.92c0,0.225,0.148,0.364,0.447,0.42c0.299,0.057,0.541-0.027,0.729-0.252
		c0.111-0.148,0.288-0.42,0.532-0.812c0.242-0.393,0.494-0.849,0.756-1.372c0.261-0.522,0.494-1.073,0.7-1.652
		c0.204-0.578,0.308-1.147,0.308-1.708V24.96h7c0.148,0,0.429,0.01,0.84,0.028c0.41,0.019,0.746,0.047,1.008,0.084
		c0.336,0.111,0.663,0.121,0.98,0.027c0.316-0.093,0.588-0.288,0.812-0.588L49,24.12c0.224-0.261,0.308-0.522,0.252-0.784
		C49.196,23.075,49.037,22.852,48.776,22.664z"/>
	<path fill="#FFFFFF" d="M38.92,49.264l-2.184-0.896c-0.374-0.149-0.7-0.216-0.98-0.196c-0.28,0.019-0.626,0.084-1.036,0.196
		c-0.672,0.187-1.764,0.364-3.275,0.532c-1.513,0.168-3.407,0.252-5.685,0.252h-8.848c-0.672,0-1.064-0.141-1.176-0.42
		c-0.112-0.28-0.168-0.72-0.168-1.316v-5.824c0-0.484-0.02-0.952-0.057-1.399c-0.037-0.448-0.131-0.84-0.279-1.177
		c-0.15-0.336-0.393-0.615-0.729-0.84c-0.336-0.224-0.803-0.392-1.4-0.504L9.632,37.28v1.456c0,0.447,0.103,0.756,0.309,0.924
		c0.204,0.168,0.531,0.327,0.979,0.476c0.56,0.262,0.896,0.607,1.008,1.036c0.112,0.43,0.168,1.036,0.168,1.82v5.88
		c0,0.784,0.131,1.391,0.393,1.82c0.261,0.429,0.597,0.756,1.008,0.979c0.41,0.225,0.858,0.354,1.344,0.393
		c0.485,0.036,0.952,0.056,1.4,0.056h22.176c0.522,0,0.887-0.056,1.092-0.168s0.383-0.448,0.532-1.008
		c0.112-0.523,0.093-0.878-0.056-1.064C39.834,49.692,39.479,49.488,38.92,49.264z"/>
	<path fill="#FFFFFF" d="M12.992,31.848c2.8-0.336,5.702-0.783,8.708-1.344c3.005-0.56,6.076-1.456,9.212-2.688
		c0.41-0.112,0.541-0.373,0.392-0.784c-0.149-0.41-0.392-0.729-0.728-0.952c-0.225-0.112-0.485-0.224-0.784-0.336
		s-0.504-0.148-0.616-0.112c-1.008,0.411-2.054,0.766-3.136,1.064c-1.083,0.299-2.184,0.56-3.304,0.784V15.104
		c0-0.337-0.104-0.747-0.309-1.232c-0.205-0.484-0.756-0.784-1.651-0.896l-3.528-0.336l-0.112,1.064
		c-0.075,0.448,0,0.784,0.225,1.008c0.224,0.225,0.484,0.374,0.783,0.448c0.561,0.188,0.896,0.448,1.009,0.784
		c0.111,0.336,0.168,0.859,0.168,1.567v10.584c-1.195,0.225-2.344,0.402-3.444,0.532c-1.102,0.132-2.156,0.233-3.164,0.309
		l-2.016,0.168V16.504c0-0.336-0.104-0.746-0.309-1.231s-0.756-0.784-1.651-0.896L5.208,14.04l-0.112,1.064
		c-0.075,0.447,0,0.783,0.225,1.008c0.224,0.224,0.484,0.373,0.783,0.448C6.664,16.747,7,17.008,7.112,17.344
		c0.111,0.336,0.168,0.859,0.168,1.568v10.36c-1.345,0-2.624-0.028-3.836-0.084c-1.214-0.057-2.231-0.177-3.053-0.364l-0.279,1.68
		C0,30.915-0.028,31.241,0.028,31.484c0.056,0.243,0.195,0.401,0.42,0.476c0.484,0.224,0.979,0.355,1.483,0.393
		s0.925,0.056,1.261,0.056c0.634,0.037,1.399,0.037,2.296,0c0.896-0.037,1.792-0.074,2.688-0.112
		c0.933-0.074,1.829-0.148,2.688-0.224C11.723,31.998,12.432,31.923,12.992,31.848z"/>
	<path fill="#FFFFFF" d="M1.96,10.68c0.336,0.225,0.793,0.374,1.372,0.448c0.578,0.075,1.316,0.075,2.212,0
		c0.858-0.036,1.633-0.084,2.324-0.14c0.69-0.057,1.353-0.103,1.988-0.141c0.634-0.036,1.296-0.074,1.987-0.111
		c0.69-0.037,1.484-0.074,2.38-0.112c0.896,0,1.698-0.019,2.408-0.056c0.709-0.037,1.4-0.057,2.072-0.057s1.353,0.01,2.044,0.028
		c0.69,0.02,1.465,0.047,2.324,0.084c0.56,0.075,1.12,0.159,1.68,0.252c0.56,0.094,1.008,0.178,1.344,0.252
		c0.336,0.112,0.588,0.104,0.756-0.028c0.168-0.13,0.364-0.4,0.589-0.812c0.224-0.448,0.308-0.784,0.252-1.008
		c-0.057-0.225-0.309-0.504-0.757-0.84l-1.399-0.896c-0.411-0.224-0.813-0.345-1.204-0.364c-0.392-0.018-1.204,0.048-2.437,0.196
		c-0.224,0.038-0.579,0.075-1.063,0.112c-0.485,0.037-1.064,0.075-1.736,0.111c-0.635,0.038-1.335,0.076-2.1,0.112
		c-0.766,0.038-1.503,0.075-2.212,0.112c-0.636,0.075-1.167,0.121-1.597,0.14c-0.429,0.02-0.831,0.048-1.203,0.084
		c-0.374,0-0.738,0-1.093,0s-0.774,0-1.26,0c-1.231,0-2.492-0.056-3.78-0.168C4.564,7.768,3.267,7.6,1.96,7.376L1.568,9.504
		c-0.075,0.3-0.084,0.542-0.028,0.729S1.736,10.568,1.96,10.68z"/>
	<path fill="#FFFFFF" d="M96.487,29.692c0.41,0.019,0.746,0.047,1.008,0.084c0.336,0.111,0.662,0.121,0.979,0.027
		c0.317-0.093,0.588-0.288,0.813-0.588l0.28-0.392c0.186-0.261,0.261-0.522,0.224-0.784c-0.038-0.261-0.188-0.484-0.448-0.672
		l-2.016-1.176c-0.3-0.149-0.552-0.252-0.756-0.309c-0.206-0.056-0.42-0.064-0.645-0.027c-0.224,0.037-0.467,0.093-0.728,0.168
		c-0.262,0.075-0.561,0.168-0.896,0.279c-0.859,0.262-1.493,0.43-1.903,0.504c-0.412,0.076-0.896,0.112-1.456,0.112l-2.521,0.112
		V3.792c0-0.672-0.084-1.166-0.252-1.484c-0.168-0.316-0.663-0.681-1.484-1.092l-2.464-1.12C83.737-0.128,83.346,0.04,83.047,0.6
		c-0.299,0.561-0.262,0.99,0.112,1.288c0.522,0.448,0.961,0.896,1.315,1.345c0.354,0.447,0.532,1.027,0.532,1.735v47.601
		c0,0.224,0.148,0.363,0.448,0.42c0.298,0.056,0.541-0.028,0.728-0.252c0.112-0.149,0.289-0.42,0.532-0.813
		c0.242-0.392,0.494-0.85,0.756-1.372c0.225-0.522,0.438-1.073,0.645-1.651c0.204-0.579,0.308-1.148,0.308-1.708V29.664h7.224
		C95.796,29.664,96.076,29.674,96.487,29.692z"/>
	<path fill="#FFFFFF" d="M80.415,33.752c-0.374-0.224-0.7-0.345-0.98-0.364c-0.279-0.018-0.495,0.01-0.644,0.084
		c-1.195,0.523-2.576,0.98-4.145,1.372c-1.567,0.393-3.267,0.738-5.096,1.036c-1.792,0.336-3.659,0.588-5.6,0.756
		c-1.941,0.168-3.827,0.271-5.656,0.309c-0.112,0-0.243-0.057-0.392-0.168c-0.15-0.112-0.225-0.28-0.225-0.504v-9.969h15.624
		c0.561,0,0.989-0.036,1.288-0.111c0.299-0.074,0.578-0.373,0.84-0.896c0.149-0.336,0.177-0.616,0.084-0.84
		c-0.094-0.224-0.438-0.504-1.036-0.84l-0.951-0.504c-0.188-0.074-0.402-0.121-0.645-0.141c-0.243-0.018-0.514-0.027-0.812-0.027
		c-0.3,0.037-0.664,0.084-1.093,0.14s-0.924,0.104-1.483,0.14c-0.188,0.038-0.756,0.075-1.708,0.112
		c-0.952,0.038-2.044,0.056-3.276,0.056c-1.231,0.038-2.474,0.076-3.724,0.112c-1.251,0.038-2.287,0.057-3.108,0.057v-8.345
		c0-0.224-0.01-0.456-0.027-0.7c-0.02-0.242-0.048-0.476-0.084-0.699h16.743c0.561,0,0.999-0.047,1.316-0.141
		c0.316-0.093,0.625-0.42,0.924-0.979c0.112-0.225,0.141-0.448,0.084-0.672c-0.056-0.225-0.364-0.522-0.924-0.896l-1.008-0.616
		c-0.262-0.111-0.514-0.186-0.756-0.224c-0.243-0.037-0.588-0.019-1.036,0.056c-0.448,0.112-1.074,0.216-1.876,0.309
		c-0.804,0.094-1.634,0.159-2.492,0.195c-0.859,0.075-1.662,0.122-2.408,0.141c-0.747,0.019-1.307,0.027-1.68,0.027h-9.744
		l-2.296-0.279v0.952c0,0.224-0.01,0.401-0.028,0.531c-0.019,0.132-0.01,0.252,0.028,0.364c0.037,0.112,0.112,0.206,0.224,0.28
		c0.112,0.075,0.28,0.168,0.504,0.28c0.485,0.224,0.784,0.495,0.896,0.812c0.112,0.317,0.168,0.999,0.168,2.044v21.84
		c0,0.561,0.316,1.13,0.952,1.708c0.634,0.579,1.213,0.868,1.735,0.868c0.225,0,0.513,0,0.868,0c0.354,0,0.645-0.019,0.868-0.056
		c3.621-0.261,7.316-0.709,11.088-1.345c3.771-0.634,7.168-1.68,10.192-3.136c0.709-0.336,1.101-0.681,1.176-1.036
		C81.161,34.489,80.938,34.126,80.415,33.752z"/>
	<path fill="#FFFFFF" d="M101.611,39.044c0.316,0.168,0.644,0.216,0.979,0.14c0.148,0,0.326-0.046,0.532-0.14
		c0.205-0.093,0.457-0.252,0.756-0.476c2.501-1.755,4.75-3.845,6.748-6.272c1.997-2.426,3.668-4.834,5.012-7.224l12.04,13.216
		c0.299,0.336,0.578,0.523,0.84,0.56c0.261,0.038,0.561-0.036,0.896-0.224c0.224-0.112,0.382-0.298,0.476-0.56
		c0.093-0.261,0.084-0.635-0.027-1.12l-0.448-1.681c-0.224-0.783-0.477-1.324-0.756-1.624c-0.28-0.298-0.682-0.615-1.204-0.951
		c-0.3-0.149-0.569-0.299-0.813-0.448c-0.243-0.148-0.476-0.317-0.699-0.504c-0.225-0.149-0.448-0.317-0.673-0.504
		c-0.224-0.187-0.467-0.411-0.728-0.672L116.759,23c0.336-0.784,0.645-1.549,0.924-2.296c0.28-0.746,0.532-1.456,0.756-2.128
		c0.225-0.896,0.354-1.624,0.393-2.185c0.036-0.56,0-0.97-0.112-1.231c-0.149-0.224-0.392-0.467-0.728-0.729
		c-0.336-0.261-0.691-0.504-1.064-0.728h0.225c1.792-0.037,3.294-0.056,4.508-0.056c1.213,0,2.66,0.056,4.34,0.168
		c0.261,0.037,0.541,0.084,0.84,0.14s0.597,0.104,0.896,0.14c0.261,0.075,0.494,0.141,0.699,0.196s0.383,0.084,0.532,0.084
		c0.448,0.112,0.774,0.094,0.98-0.056c0.204-0.149,0.42-0.429,0.644-0.84c0.224-0.448,0.271-0.793,0.14-1.036
		c-0.131-0.242-0.476-0.569-1.035-0.98l-1.288-0.84c-0.188-0.074-0.374-0.14-0.561-0.196c-0.187-0.056-0.411-0.084-0.672-0.084
		c-0.299,0-0.653,0.01-1.063,0.028c-0.412,0.02-0.916,0.047-1.513,0.084c-0.224,0.038-0.635,0.084-1.231,0.14
		c-0.598,0.057-1.27,0.122-2.017,0.196c-0.783,0.038-1.567,0.094-2.352,0.168c-0.784,0.075-1.456,0.112-2.016,0.112
		c-0.673,0.037-1.279,0.075-1.82,0.111c-0.542,0.038-1.036,0.057-1.484,0.057c-0.485,0.037-0.952,0.056-1.399,0.056
		c-0.448,0-0.916-0.019-1.4-0.056c-1.232,0-2.492-0.057-3.78-0.168c-1.288-0.112-2.585-0.28-3.892-0.504l-0.28,2.239
		c-0.075,0.337-0.065,0.598,0.028,0.784c0.093,0.188,0.252,0.336,0.476,0.448c0.149,0.149,0.522,0.271,1.12,0.364
		c0.597,0.094,1.325,0.103,2.185,0.027l5.991-0.504c0.448,0.225,0.868,0.486,1.261,0.784c0.392,0.3,0.699,0.542,0.924,0.729
		c0.224,0.224,0.345,0.438,0.364,0.644c0.018,0.206,0.027,0.42,0.027,0.645c-0.188,1.194-0.616,2.65-1.288,4.367
		c-0.672,1.718-1.605,3.51-2.8,5.376c-1.157,1.867-2.558,3.725-4.2,5.572s-3.51,3.5-5.6,4.956c-0.149,0.075-0.29,0.243-0.42,0.504
		c-0.132,0.262-0.141,0.485-0.028,0.672C101.079,38.587,101.293,38.876,101.611,39.044z"/>
	<path fill="#FFFFFF" d="M138.543,52.568c0,0.224,0.148,0.363,0.448,0.42c0.298,0.056,0.54-0.028,0.728-0.252
		c0.112-0.149,0.299-0.42,0.561-0.813c0.261-0.392,0.504-0.85,0.728-1.372c0.261-0.522,0.494-1.073,0.7-1.651
		c0.205-0.579,0.308-1.148,0.308-1.708v-43.4c0-0.672-0.084-1.166-0.252-1.484c-0.168-0.316-0.663-0.681-1.483-1.092l-2.465-1.12
		c-0.485-0.224-0.877-0.056-1.176,0.504c-0.299,0.561-0.262,0.99,0.112,1.288c0.522,0.448,0.952,0.896,1.288,1.345
		c0.336,0.447,0.504,1.027,0.504,1.735V52.568z"/>
	<path fill="#FFFFFF" d="M90.077,58.024l2.048,0.447v18.721l-2.368,0.447v1.024h7.265V77.64l-2.849-0.447V69h6.08l0.48,2.145h1.056
		v-5.792h-1.056l-0.48,2.111h-6.08v-8.896h3.425c0.234,0,0.564,0.005,0.991,0.016s0.875,0.027,1.345,0.048
		c0.49,0.021,0.97,0.048,1.439,0.08c0.469,0.032,0.864,0.06,1.185,0.08l0.512,2.336h1.12v-4.063H90.077V58.024z"/>
	<path fill="#FFFFFF" d="M117.758,66.696c0-0.789-0.145-1.44-0.433-1.952s-0.656-0.928-1.104-1.248
		c-0.47-0.299-1.014-0.512-1.633-0.64c-0.618-0.128-1.259-0.192-1.92-0.192c-0.427,0-0.858,0.037-1.296,0.112
		c-0.438,0.074-0.858,0.154-1.264,0.239c-0.427,0.107-0.832,0.208-1.216,0.305c-0.384,0.096-0.747,0.176-1.088,0.24l0.319,2.783
		l0.48,0.097l0.832-0.192c-0.021-0.256-0.006-0.544,0.048-0.864c0.053-0.319,0.133-0.618,0.24-0.896
		c0.384-0.192,0.826-0.331,1.328-0.416c0.501-0.085,1.008-0.128,1.52-0.128c0.875,0,1.632,0.271,2.272,0.815
		c0.64,0.544,0.96,1.232,0.96,2.064v2.592c-1.28,0.128-2.464,0.262-3.553,0.4c-1.088,0.139-2.165,0.336-3.231,0.592
		c-0.619,0.256-1.206,0.699-1.76,1.328c-0.556,0.629-0.832,1.552-0.832,2.768c0,1.259,0.298,2.32,0.896,3.185
		c0.597,0.863,1.525,1.296,2.784,1.296c0.32,0,0.73-0.006,1.232-0.017c0.501-0.011,0.922-0.069,1.264-0.176
		c0.405-0.106,0.757-0.224,1.056-0.352s0.565-0.267,0.8-0.416c0.235-0.128,0.443-0.262,0.624-0.4c0.182-0.139,0.357-0.271,0.528-0.4
		c0.064-0.085,0.139-0.133,0.224-0.144s0.149,0.048,0.192,0.176l0.352,1.408h3.2V77.96l-1.823-0.736V66.696z M115.806,75.976
		c-0.342,0.172-0.832,0.368-1.473,0.593c-0.64,0.224-1.248,0.399-1.823,0.527c-0.172,0.043-0.326,0.07-0.465,0.08
		c-0.139,0.012-0.271,0.017-0.399,0.017c-0.128,0.021-0.251,0.026-0.368,0.016s-0.24-0.016-0.368-0.016
		c-0.768,0-1.35-0.245-1.744-0.736c-0.395-0.49-0.581-1.194-0.56-2.112c0-0.576,0.139-1.12,0.416-1.632
		c0.276-0.512,0.65-0.906,1.12-1.184c0.512-0.128,1.019-0.234,1.52-0.32c0.501-0.085,0.986-0.16,1.456-0.224
		c0.448-0.064,0.896-0.128,1.344-0.192c0.448-0.063,0.896-0.128,1.345-0.192V75.976z"/>
	<path fill="#FFFFFF" d="M134.78,66.952c0-1.557-0.405-2.667-1.216-3.328s-1.76-0.992-2.848-0.992c-0.384,0-0.806,0.048-1.264,0.145
		c-0.459,0.096-0.912,0.219-1.36,0.368c-0.47,0.149-0.912,0.314-1.328,0.495c-0.416,0.182-0.763,0.348-1.04,0.496
		c-0.063,0.064-0.139,0.08-0.224,0.048c-0.086-0.031-0.107-0.09-0.064-0.176l0.064-1.056l-0.544-0.353
		c-0.662,0.15-1.228,0.262-1.696,0.337c-0.47,0.074-0.971,0.111-1.504,0.111l0.063,1.024l1.729,0.256v13.024l-1.76,0.384v0.928
		h5.695v-0.928l-1.983-0.384V65.096c0.191-0.021,0.484-0.074,0.88-0.159c0.395-0.086,0.826-0.16,1.296-0.225
		c0.448-0.085,0.896-0.16,1.344-0.224c0.448-0.064,0.821-0.097,1.12-0.097c0.896,0,1.568,0.257,2.016,0.769
		c0.448,0.512,0.673,1.205,0.673,2.08v10.112l-1.952,0.384v0.928h5.695v-0.928l-1.792-0.384V66.952z"/>
	<path fill="#FFFFFF" d="M145.773,77.048c-0.523,0.16-0.977,0.24-1.36,0.24c-0.512,0-0.901-0.074-1.168-0.224
		s-0.399-0.576-0.399-1.28V64.392h4.063v-1.504h-4.063v-3.84h-0.704l-1.376,3.84l-2.464,0.608v0.896h2.56v11.713
		c0,0.746,0.181,1.413,0.544,2c0.362,0.586,1.056,0.88,2.08,0.88c0.341,0,0.709-0.048,1.104-0.145
		c0.394-0.096,0.772-0.219,1.136-0.368c0.384-0.148,0.72-0.298,1.008-0.447s0.517-0.288,0.688-0.416l-0.352-0.992
		C146.728,76.744,146.296,76.888,145.773,77.048z"/>
	<path fill="#FFFFFF" d="M160.829,66.696c0-0.789-0.145-1.44-0.433-1.952s-0.656-0.928-1.104-1.248
		c-0.47-0.299-1.014-0.512-1.633-0.64c-0.618-0.128-1.259-0.192-1.92-0.192c-0.427,0-0.858,0.037-1.296,0.112
		c-0.438,0.074-0.858,0.154-1.264,0.239c-0.427,0.107-0.832,0.208-1.216,0.305c-0.384,0.096-0.747,0.176-1.088,0.24l0.319,2.783
		l0.48,0.097l0.832-0.192c-0.021-0.256-0.006-0.544,0.048-0.864c0.053-0.319,0.133-0.618,0.24-0.896
		c0.384-0.192,0.826-0.331,1.328-0.416c0.501-0.085,1.008-0.128,1.52-0.128c0.875,0,1.632,0.271,2.272,0.815
		c0.64,0.544,0.96,1.232,0.96,2.064v2.592c-1.28,0.128-2.464,0.262-3.553,0.4c-1.088,0.139-2.165,0.336-3.231,0.592
		c-0.619,0.256-1.206,0.699-1.76,1.328c-0.556,0.629-0.832,1.552-0.832,2.768c0,1.259,0.298,2.32,0.896,3.185
		c0.597,0.863,1.525,1.296,2.784,1.296c0.32,0,0.73-0.006,1.232-0.017c0.501-0.011,0.922-0.069,1.264-0.176
		c0.405-0.106,0.757-0.224,1.056-0.352s0.565-0.267,0.8-0.416c0.235-0.128,0.443-0.262,0.624-0.4c0.182-0.139,0.357-0.271,0.528-0.4
		c0.064-0.085,0.139-0.133,0.224-0.144s0.149,0.048,0.192,0.176l0.352,1.408h3.2V77.96l-1.823-0.736V66.696z M158.877,75.976
		c-0.342,0.172-0.832,0.368-1.473,0.593c-0.64,0.224-1.248,0.399-1.823,0.527c-0.172,0.043-0.326,0.07-0.465,0.08
		c-0.139,0.012-0.271,0.017-0.399,0.017c-0.128,0.021-0.251,0.026-0.368,0.016s-0.24-0.016-0.368-0.016
		c-0.768,0-1.35-0.245-1.744-0.736c-0.395-0.49-0.581-1.194-0.56-2.112c0-0.576,0.139-1.12,0.416-1.632
		c0.276-0.512,0.65-0.906,1.12-1.184c0.512-0.128,1.019-0.234,1.52-0.32c0.501-0.085,0.986-0.16,1.456-0.224
		c0.448-0.064,0.896-0.128,1.344-0.192c0.448-0.063,0.896-0.128,1.345-0.192V75.976z"/>
	<path fill="#FFFFFF" d="M174.397,71.368c-0.385-0.362-0.816-0.672-1.297-0.928c-0.479-0.257-0.976-0.491-1.487-0.704
		c-0.491-0.213-0.981-0.427-1.473-0.641c-0.49-0.213-0.917-0.437-1.279-0.672c-0.385-0.256-0.688-0.544-0.912-0.863
		c-0.225-0.32-0.326-0.704-0.305-1.152c0-0.704,0.288-1.301,0.864-1.792c0.576-0.49,1.291-0.736,2.145-0.736
		c0.512,0,1.008,0.064,1.487,0.192c0.48,0.128,0.849,0.31,1.104,0.544l0.544,1.696h0.864v-3.2c-0.641-0.128-1.296-0.24-1.969-0.336
		c-0.672-0.097-1.359-0.145-2.063-0.145c-1.472,0-2.684,0.363-3.632,1.088c-0.95,0.726-1.424,1.761-1.424,3.104
		c-0.021,0.619,0.085,1.146,0.319,1.584s0.544,0.815,0.928,1.136c0.385,0.32,0.821,0.592,1.313,0.816
		c0.49,0.224,0.992,0.442,1.504,0.655c0.512,0.214,1.013,0.433,1.504,0.656c0.49,0.225,0.928,0.496,1.313,0.816
		c0.362,0.299,0.661,0.656,0.896,1.072c0.234,0.415,0.353,0.911,0.353,1.487c-0.021,0.896-0.39,1.568-1.104,2.017
		c-0.715,0.447-1.552,0.672-2.512,0.672c-0.704,0-1.308-0.097-1.809-0.288c-0.501-0.192-0.911-0.448-1.231-0.769l-0.64-2.048h-0.832
		v3.616c0.256,0.107,0.826,0.256,1.712,0.448c0.885,0.191,1.808,0.288,2.768,0.288c1.963,0,3.392-0.448,4.288-1.345
		c0.896-0.896,1.344-2.016,1.344-3.359c0-0.641-0.117-1.2-0.352-1.681C175.09,72.12,174.781,71.71,174.397,71.368z"/>
	<path fill="#FFFFFF" d="M187.869,62.888v0.929l1.824,0.384l-4.129,11.584l-4.544-11.648l1.792-0.319v-0.929h-5.119v0.929
		l1.184,0.384l5.632,14.271l-0.607,1.44c-0.47,1.194-0.977,2.133-1.521,2.816c-0.544,0.682-1.264,1.023-2.16,1.023
		c-0.299,0-0.613-0.069-0.943-0.208c-0.331-0.139-0.624-0.325-0.881-0.56l-0.544,0.256v2.016c0.213,0.043,0.4,0.08,0.561,0.112
		s0.314,0.069,0.464,0.112c0.149,0.021,0.314,0.042,0.496,0.063c0.181,0.021,0.421,0.032,0.72,0.032c0.726,0,1.36-0.149,1.904-0.448
		s1.029-0.704,1.456-1.216c0.426-0.533,0.805-1.163,1.136-1.888c0.33-0.726,0.656-1.516,0.976-2.368l5.761-15.521l1.216-0.319
		v-0.929H187.869z"/>
</g>
</svg>
