<?xml version="1.0" encoding="utf-8"?>
<!-- Generator: Adobe Illustrator 16.0.0, SVG Export Plug-In . SVG Version: 6.00 Build 0)  -->
<!DOCTYPE svg PUBLIC "-//W3C//DTD SVG 1.1//EN" "http://www.w3.org/Graphics/SVG/1.1/DTD/svg11.dtd">
<svg version="1.1" id="Layer_1" xmlns="http://www.w3.org/2000/svg" xmlns:xlink="http://www.w3.org/1999/xlink" x="0px" y="0px"
	 width="331.673px" height="106.096px" viewBox="0 0 331.673 106.096" enable-background="new 0 0 331.673 106.096"
	 xml:space="preserve">
<g>
	<path fill="#FFFFFF" d="M62.856,60.044H61.61L40.084,7.738v48.303l6.938,1.156v2.847H29.32v-2.847l6.227-1.156V4.003l-5.248-1.157
		V0h12.632l19.926,49.637L82.782,0h11.92v2.846l-5.249,1.068v52.127l6.228,1.156v2.847h-18.77v-2.847l6.938-1.156V8.361
		L62.856,60.044z"/>
	<path fill="#FFFFFF" d="M138.732,19.658l-16.012,43.144c-0.89,2.371-1.794,4.565-2.713,6.582c-0.92,2.016-1.972,3.766-3.158,5.249
		c-1.187,1.423-2.535,2.549-4.047,3.38c-1.513,0.83-3.277,1.245-5.293,1.245c-0.831,0-1.498-0.03-2.001-0.089
		c-0.505-0.06-0.965-0.119-1.379-0.178c-0.416-0.119-0.846-0.223-1.29-0.312c-0.445-0.089-0.965-0.193-1.557-0.312v-5.604
		l1.512-0.712c0.712,0.652,1.526,1.17,2.446,1.557c0.919,0.385,1.793,0.578,2.624,0.578c2.491,0,4.492-0.949,6.005-2.847
		c1.512-1.898,2.92-4.507,4.226-7.828l1.689-4.003L104.13,19.837l-3.292-1.068v-2.579h14.233v2.579l-4.981,0.89l12.631,32.38
		l11.476-32.201l-5.07-1.068v-2.579h12.987v2.579L138.732,19.658z"/>
	<path fill="#FFFFFF" d="M172.18,57.197c-2.491,2.491-6.465,3.736-11.92,3.736c-2.669,0-5.234-0.267-7.695-0.801
		c-2.461-0.533-4.047-0.948-4.759-1.245V48.836h2.313l1.778,5.692c0.89,0.89,2.031,1.602,3.425,2.136
		c1.393,0.533,3.069,0.8,5.026,0.8c2.669,0,4.995-0.622,6.982-1.867c1.986-1.246,3.01-3.114,3.069-5.604
		c0-1.602-0.327-2.98-0.979-4.137c-0.653-1.156-1.483-2.148-2.491-2.979c-1.067-0.89-2.283-1.646-3.646-2.269
		c-1.365-0.623-2.758-1.23-4.181-1.823c-1.424-0.593-2.817-1.201-4.182-1.824c-1.364-0.622-2.579-1.379-3.646-2.269
		c-1.067-0.889-1.928-1.941-2.58-3.157c-0.653-1.215-0.949-2.683-0.89-4.403c0-3.736,1.319-6.612,3.959-8.629
		c2.638-2.016,6.004-3.024,10.096-3.024c1.957,0,3.87,0.134,5.738,0.4c1.867,0.267,3.691,0.578,5.471,0.934v8.896h-2.402
		l-1.512-4.714c-0.712-0.652-1.735-1.156-3.069-1.513c-1.334-0.355-2.713-0.533-4.137-0.533c-2.372,0-4.358,0.682-5.96,2.046
		c-1.601,1.364-2.401,3.024-2.401,4.981c-0.06,1.245,0.223,2.313,0.845,3.202c0.623,0.89,1.468,1.69,2.535,2.401
		c1.008,0.653,2.193,1.276,3.559,1.868c1.363,0.594,2.727,1.188,4.092,1.779c1.424,0.594,2.802,1.245,4.137,1.957
		c1.334,0.712,2.535,1.572,3.603,2.58c1.067,0.949,1.927,2.09,2.579,3.425c0.652,1.334,0.979,2.891,0.979,4.67
		C175.915,51.593,174.67,54.707,172.18,57.197z"/>
	<path fill="#FFFFFF" d="M190.504,58.487c-1.009-1.631-1.512-3.483-1.512-5.56V20.37h-7.116v-2.49l6.85-1.69l3.824-10.675h1.957
		v10.675h11.298v4.181h-11.298v31.668c0,1.957,0.37,3.144,1.112,3.559c0.741,0.415,1.823,0.622,3.247,0.622
		c1.067,0,2.326-0.223,3.78-0.667c1.452-0.444,2.653-0.845,3.603-1.201l0.979,2.758c-0.476,0.355-1.111,0.742-1.912,1.156
		c-0.801,0.416-1.734,0.831-2.803,1.245c-1.009,0.416-2.061,0.757-3.157,1.023c-1.099,0.267-2.121,0.4-3.069,0.4
		C193.439,60.934,191.512,60.117,190.504,58.487z"/>
	<path fill="#FFFFFF" d="M219.325,39.051v1.957c0,1.957,0.236,3.869,0.711,5.737s1.275,3.514,2.402,4.938
		c1.126,1.423,2.608,2.565,4.447,3.425c1.838,0.86,4.121,1.289,6.85,1.289c1.779,0,3.81-0.311,6.094-0.934
		c2.282-0.623,4.165-1.201,5.648-1.734l0.89,2.847c-0.712,0.475-1.632,0.964-2.758,1.467c-1.127,0.505-2.372,0.965-3.736,1.379
		c-1.305,0.476-2.684,0.846-4.136,1.112c-1.454,0.267-2.833,0.4-4.137,0.4c-3.38,0-6.242-0.578-8.584-1.734
		c-2.344-1.157-4.226-2.742-5.648-4.76c-1.483-2.075-2.535-4.477-3.158-7.205c-0.623-2.727-0.934-5.693-0.934-8.896
		c0-7.116,1.646-12.705,4.937-16.768c3.291-4.062,7.694-6.094,13.21-6.094c4.862,0,8.836,1.795,11.92,5.382
		c3.083,3.589,4.626,8.822,4.626,15.7l-1.868,2.491H219.325z M222.928,23.395c-2.402,2.669-3.573,6.583-3.514,11.742h22.772
		c0-5.159-0.994-9.073-2.98-11.742c-1.987-2.669-4.581-4.003-7.783-4.003C228.16,19.392,225.329,20.726,222.928,23.395z"/>
	<path fill="#FFFFFF" d="M266.292,20.993c0,0.297,0.133,0.475,0.4,0.533c0.267,0.06,0.489-0.059,0.667-0.355
		c1.245-1.067,2.401-2.016,3.469-2.847c1.067-0.83,1.957-1.452,2.669-1.868c0.712-0.414,1.704-0.726,2.979-0.934
		c1.274-0.207,2.564-0.192,3.87,0.044c1.363,0.238,2.668,0.771,3.914,1.602c1.245,0.831,2.224,2.046,2.936,3.647l-4.271,3.824
		h-1.423c-0.534-1.778-1.35-2.891-2.446-3.335c-1.098-0.445-2.21-0.668-3.336-0.668c-0.831,0-1.734,0.238-2.713,0.712
		c-0.979,0.476-1.884,1.009-2.713,1.602c-0.89,0.653-1.69,1.261-2.402,1.823c-0.711,0.564-1.187,0.965-1.423,1.201V56.13
		l6.138,1.156v2.758h-16.278v-2.669l4.714-1.067V19.926l-4.804-0.712l-0.178-2.58c1.482,0,2.876-0.103,4.182-0.311
		c1.304-0.208,2.875-0.519,4.714-0.935l1.513,0.979L266.292,20.993z"/>
	<path fill="#FFFFFF" d="M328.292,19.658L312.28,62.802c-0.89,2.371-1.794,4.565-2.713,6.582c-0.92,2.016-1.972,3.766-3.158,5.249
		c-1.187,1.423-2.535,2.549-4.047,3.38c-1.513,0.83-3.277,1.245-5.293,1.245c-0.831,0-1.498-0.03-2.001-0.089
		c-0.505-0.06-0.965-0.119-1.379-0.178c-0.416-0.119-0.846-0.223-1.29-0.312c-0.445-0.089-0.965-0.193-1.557-0.312v-5.604
		l1.512-0.712c0.712,0.652,1.526,1.17,2.446,1.557c0.919,0.385,1.793,0.578,2.624,0.578c2.491,0,4.492-0.949,6.005-2.847
		c1.512-1.898,2.92-4.507,4.226-7.828l1.689-4.003l-15.655-39.673l-3.292-1.068v-2.579h14.233v2.579l-4.981,0.89l12.631,32.38
		l11.476-32.201l-5.07-1.068v-2.579h12.987v2.579L328.292,19.658z"/>
	<path fill="#FFFFFF" d="M9.945,97.844c0,0.288-0.052,0.524-0.155,0.708c-0.104,0.185-0.341,0.276-0.708,0.276l-6.696,0.12
		c0,0.191-0.012,0.348-0.036,0.468s-0.084,0.228-0.18,0.324c-0.081,0.096-0.213,0.155-0.396,0.18s-0.348,0.004-0.492-0.06
		c-0.063-0.017-0.132-0.052-0.204-0.108c-0.071-0.056-0.107-0.147-0.107-0.276c-0.017-0.128-0.028-0.256-0.036-0.384
		s-0.012-0.248-0.012-0.359l-0.433-8.881l-0.432-0.84c-0.08-0.144-0.076-0.264,0.012-0.359c0.088-0.097,0.204-0.192,0.349-0.288
		c0.176-0.097,0.319-0.148,0.432-0.156c0.111-0.008,0.208,0.021,0.288,0.084l0.6,0.696l7.368-0.12c0.112,0,0.236,0.012,0.372,0.036
		c0.136,0.023,0.236,0.06,0.3,0.107c0.048,0.048,0.088,0.12,0.12,0.216c0.032,0.097,0.048,0.225,0.048,0.385V97.844z M8.458,90.62
		c0-0.192-0.024-0.316-0.072-0.372s-0.185-0.084-0.408-0.084L2.554,90.26c-0.256,0-0.404,0.048-0.444,0.145
		c-0.04,0.096-0.052,0.231-0.036,0.407l0.24,6.841l5.64-0.145c0.177,0,0.304-0.044,0.385-0.132c0.079-0.088,0.12-0.244,0.12-0.468
		V90.62z M16.306,103.556c0,0.24-0.044,0.484-0.132,0.732c-0.089,0.248-0.181,0.483-0.276,0.708c-0.112,0.224-0.22,0.42-0.324,0.588
		c-0.104,0.168-0.18,0.284-0.228,0.348c-0.08,0.097-0.185,0.132-0.313,0.108c-0.128-0.024-0.191-0.084-0.191-0.18v-20.4
		c0-0.304-0.076-0.552-0.229-0.744c-0.152-0.191-0.34-0.384-0.563-0.576c-0.16-0.128-0.177-0.312-0.048-0.552
		c0.128-0.24,0.296-0.312,0.504-0.216l1.056,0.479c0.352,0.177,0.564,0.333,0.636,0.469c0.072,0.136,0.108,0.348,0.108,0.636
		V103.556z"/>
	<path fill="#FFFFFF" d="M24.873,102.644l-2.712,0.097c-0.144,0-0.308,0.004-0.491,0.012c-0.185,0.008-0.372,0.012-0.564,0.012
		c-0.176,0-0.348-0.008-0.516-0.023c-0.168-0.017-0.301-0.048-0.396-0.097c-0.096-0.016-0.172-0.092-0.228-0.228
		c-0.057-0.136-0.061-0.3-0.013-0.492l0.168-0.815c0.304,0.08,0.696,0.14,1.177,0.18c0.479,0.04,0.96,0.076,1.439,0.107
		c0.48,0.032,0.92,0.053,1.32,0.061c0.399,0.008,0.672,0.012,0.815,0.012c1.009,0.032,1.969,0.044,2.881,0.036
		c0.911-0.008,1.783-0.027,2.615-0.06c0.816-0.017,1.588-0.036,2.316-0.061c0.728-0.023,1.412-0.044,2.052-0.06
		c0.24,0,0.54-0.008,0.9-0.024c0.359-0.016,0.724-0.04,1.092-0.072c0.352-0.016,0.672-0.031,0.96-0.048
		c0.288-0.016,0.48-0.031,0.576-0.048c0.495-0.048,0.899-0.072,1.212-0.072c0.312,0,0.54,0.057,0.684,0.168l0.792,0.721
		c0.112,0.111,0.176,0.212,0.192,0.3c0.016,0.088,0.008,0.164-0.024,0.228c-0.048,0.097-0.111,0.188-0.191,0.276
		s-0.168,0.116-0.265,0.084l-1.512-0.264c-0.304-0.032-0.668-0.057-1.092-0.072c-0.424-0.017-0.868-0.024-1.332-0.024
		c-0.448,0-0.893,0-1.332,0c-0.44,0-0.813,0-1.116,0L24.873,102.644z M31.485,89.924c-0.232,0.528-0.492,1.032-0.78,1.512
		l4.608,3.168c0.128,0.097,0.244,0.173,0.348,0.229c0.104,0.057,0.212,0.108,0.324,0.156s0.224,0.092,0.336,0.132
		s0.24,0.084,0.384,0.132c0.24,0.096,0.437,0.192,0.588,0.288c0.152,0.096,0.301,0.288,0.444,0.576l0.36,0.72
		c0.096,0.192,0.136,0.34,0.12,0.444c-0.017,0.104-0.072,0.195-0.168,0.275c-0.129,0.112-0.249,0.168-0.36,0.168
		c-0.112,0-0.248-0.063-0.408-0.191l-7.104-5.305c-0.528,0.769-1.104,1.465-1.729,2.089s-1.232,1.168-1.824,1.632
		c-0.607,0.479-1.168,0.88-1.68,1.199c-0.512,0.32-0.928,0.553-1.248,0.696c-0.112,0.048-0.224,0.08-0.336,0.097
		c-0.112,0.016-0.191,0.016-0.24,0c-0.128-0.017-0.236-0.061-0.323-0.133c-0.089-0.071-0.133-0.195-0.133-0.372
		c0-0.111,0.028-0.207,0.084-0.288c0.057-0.079,0.116-0.136,0.181-0.168c0.447-0.191,1.048-0.556,1.8-1.092
		c0.752-0.535,1.512-1.195,2.28-1.979c0.783-0.769,1.5-1.645,2.147-2.628c0.648-0.984,1.108-2.021,1.38-3.108
		c0.016-0.096,0.004-0.188-0.036-0.276c-0.04-0.087-0.155-0.203-0.348-0.348l-0.456-0.336c-0.16-0.096-0.184-0.271-0.072-0.528
		c0.112-0.256,0.24-0.359,0.385-0.312c0.304,0.096,0.615,0.208,0.936,0.336s0.601,0.24,0.84,0.336
		c0.176,0.096,0.292,0.228,0.349,0.396c0.056,0.168,0.036,0.443-0.061,0.827C31.913,88.844,31.717,89.396,31.485,89.924z"/>
	<path fill="#FFFFFF" d="M44.001,90.188c0-0.447-0.023-0.739-0.071-0.876c-0.049-0.136-0.177-0.252-0.385-0.348
		c-0.096-0.032-0.168-0.067-0.216-0.108c-0.048-0.039-0.08-0.084-0.096-0.132c-0.017-0.031-0.021-0.079-0.012-0.144
		c0.008-0.063,0.012-0.145,0.012-0.24v-0.408l0.984,0.12h4.031c0.16,0,0.4-0.004,0.721-0.012c0.319-0.008,0.663-0.028,1.031-0.061
		c0.368-0.016,0.724-0.043,1.068-0.084c0.344-0.039,0.612-0.084,0.804-0.132c0.192-0.031,0.34-0.039,0.444-0.023
		c0.104,0.016,0.212,0.048,0.324,0.096l0.432,0.264c0.24,0.16,0.372,0.288,0.396,0.385c0.023,0.096,0.012,0.191-0.036,0.287
		c-0.129,0.24-0.261,0.381-0.396,0.421s-0.324,0.06-0.563,0.06h-7.032c0,0.096,0.008,0.196,0.023,0.3
		c0.017,0.104,0.024,0.204,0.024,0.3v3.576c0.336,0,0.748-0.008,1.236-0.023c0.487-0.016,0.972-0.032,1.452-0.049
		c0.479,0,0.903-0.008,1.271-0.023s0.592-0.032,0.672-0.048c0.24-0.016,0.452-0.036,0.636-0.061c0.185-0.023,0.34-0.044,0.469-0.06
		c0.128,0,0.243,0.004,0.348,0.012c0.104,0.009,0.196,0.028,0.276,0.061l0.407,0.216c0.256,0.144,0.404,0.264,0.444,0.359
		c0.04,0.097,0.028,0.217-0.036,0.36c-0.112,0.225-0.231,0.353-0.359,0.384c-0.129,0.032-0.313,0.048-0.553,0.048h-6.264v4.272
		c0,0.096,0.032,0.168,0.096,0.216c0.064,0.048,0.12,0.072,0.168,0.072c0.784-0.016,1.597-0.061,2.437-0.132
		c0.84-0.072,1.651-0.181,2.436-0.324c0.784-0.128,1.521-0.276,2.208-0.444c0.688-0.168,1.288-0.363,1.8-0.588
		c0.064-0.031,0.156-0.044,0.276-0.036c0.12,0.009,0.26,0.061,0.42,0.156c0.224,0.16,0.32,0.316,0.288,0.468
		c-0.032,0.152-0.2,0.3-0.504,0.444c-1.296,0.624-2.769,1.072-4.416,1.344c-1.648,0.272-3.248,0.465-4.8,0.576
		c-0.096,0.017-0.221,0.024-0.372,0.024c-0.152,0-0.276,0-0.372,0c-0.225,0-0.472-0.124-0.744-0.372s-0.408-0.492-0.408-0.732
		V90.188z M59.481,103.556c0,0.24-0.044,0.484-0.132,0.732c-0.089,0.248-0.188,0.483-0.301,0.708c-0.096,0.224-0.2,0.42-0.312,0.588
		c-0.112,0.168-0.192,0.284-0.24,0.348c-0.08,0.097-0.184,0.132-0.312,0.108c-0.129-0.024-0.192-0.084-0.192-0.18V93.956
		l-3.336,0.168c-0.192,0.016-0.34,0-0.444-0.048c-0.104-0.048-0.188-0.136-0.252-0.265l-0.504-0.768
		c-0.063-0.096-0.056-0.2,0.024-0.312c0.08-0.112,0.216-0.145,0.408-0.097l0.552,0.145c0.096,0.032,0.235,0.048,0.42,0.048
		c0.184,0,0.324,0,0.42,0l2.712-0.12V85.46c0-0.304-0.072-0.552-0.216-0.744c-0.145-0.191-0.328-0.384-0.552-0.576
		c-0.16-0.128-0.177-0.312-0.048-0.552c0.127-0.24,0.296-0.312,0.504-0.216l1.056,0.479c0.352,0.177,0.564,0.333,0.636,0.469
		c0.072,0.136,0.108,0.348,0.108,0.636V103.556z"/>
	<path fill="#FFFFFF" d="M66.345,99.116c0,0.08,0.017,0.14,0.049,0.18c0.031,0.04,0.096,0.06,0.191,0.06
		c0.864-0.016,1.748-0.084,2.652-0.203c0.903-0.12,1.779-0.269,2.628-0.444c0.832-0.192,1.604-0.408,2.316-0.648
		c0.711-0.239,1.308-0.504,1.787-0.792c0.064-0.048,0.156-0.063,0.276-0.048c0.12,0.017,0.26,0.072,0.42,0.168
		c0.224,0.16,0.315,0.309,0.276,0.444c-0.04,0.136-0.204,0.292-0.492,0.468c-1.473,0.832-3.057,1.42-4.752,1.764
		c-1.696,0.345-3.345,0.597-4.944,0.757c-0.112,0.016-0.24,0.027-0.384,0.035c-0.144,0.009-0.272,0.013-0.384,0.013
		c-0.225,0-0.468-0.128-0.732-0.384c-0.264-0.256-0.396-0.505-0.396-0.744v-4.393c0-0.159-0.004-0.304-0.013-0.432
		c-0.008-0.128-0.02-0.24-0.035-0.336c-0.032-0.096-0.081-0.18-0.145-0.252c-0.064-0.072-0.152-0.14-0.264-0.204
		c-0.16-0.08-0.288-0.184-0.384-0.313c-0.097-0.128-0.145-0.279-0.145-0.456v-0.479l1.368,0.12l6.456-0.096
		c0.176,0,0.304-0.044,0.384-0.133c0.08-0.087,0.12-0.243,0.12-0.468l0.048-3.12c0-0.207-0.023-0.336-0.072-0.384
		c-0.048-0.048-0.184-0.072-0.407-0.072l-4.944,0.12c-0.192,0-0.388,0.009-0.588,0.024s-0.389,0.023-0.564,0.023
		c-0.144,0.017-0.376,0.024-0.695,0.024c-0.32,0-0.568-0.056-0.744-0.168c-0.097-0.048-0.16-0.116-0.192-0.204s-0.032-0.195,0-0.324
		l0.12-0.936c0.608,0.128,1.408,0.208,2.4,0.24c0.991,0.032,1.951,0.023,2.88-0.024l3.576-0.12c0.128,0,0.255,0.012,0.384,0.036
		c0.128,0.024,0.231,0.06,0.312,0.108c0.064,0.063,0.108,0.144,0.132,0.239c0.024,0.097,0.036,0.232,0.036,0.408l-0.336,5.208
		c-0.032,0.288-0.124,0.5-0.275,0.636c-0.152,0.137-0.412,0.204-0.78,0.204l-6.168,0.097c0,0.128,0.004,0.26,0.012,0.396
		s0.012,0.276,0.012,0.42V99.116z M80.169,103.556c0,0.24-0.044,0.484-0.132,0.732s-0.188,0.483-0.3,0.708
		c-0.096,0.224-0.2,0.42-0.313,0.588c-0.111,0.168-0.191,0.284-0.239,0.348c-0.081,0.097-0.185,0.132-0.313,0.108
		c-0.128-0.024-0.191-0.084-0.191-0.18v-20.4c0-0.304-0.072-0.552-0.217-0.744c-0.144-0.191-0.328-0.384-0.552-0.576
		c-0.176-0.128-0.196-0.312-0.06-0.552c0.136-0.24,0.308-0.312,0.516-0.216l1.032,0.479c0.368,0.177,0.588,0.333,0.66,0.469
		c0.071,0.136,0.107,0.348,0.107,0.636V103.556z"/>
	<path fill="#FFFFFF" d="M101.132,90.428c-0.248,0.433-0.563,0.809-0.947,1.128c-0.368,0.32-0.784,0.597-1.248,0.828
		c-0.465,0.232-0.912,0.444-1.345,0.636l4.872,4.921c0.112-0.208,0.236-0.488,0.372-0.841c0.136-0.352,0.252-0.72,0.349-1.104
		c0.111-0.399,0.204-0.796,0.275-1.188c0.072-0.392,0.124-0.747,0.156-1.067l-1.248-0.313v-0.695h4.176v0.695l-1.271,0.313
		c-0.177,0.656-0.416,1.432-0.72,2.328c-0.305,0.896-0.729,1.792-1.272,2.688l2.016,1.848l1.368,0.601v0.84h-2.231l-2.04-2.088
		c-0.561,0.561-1.293,1.088-2.196,1.584c-0.904,0.496-1.932,0.744-3.084,0.744c-1.648,0-2.937-0.356-3.864-1.068
		s-1.392-1.788-1.392-3.228c0-0.721,0.124-1.36,0.372-1.92c0.248-0.561,0.556-1.048,0.924-1.465
		c0.384-0.432,0.796-0.787,1.236-1.067c0.439-0.28,0.859-0.508,1.26-0.685c-0.192-0.207-0.404-0.439-0.636-0.695
		c-0.232-0.256-0.444-0.536-0.637-0.84c-0.208-0.305-0.376-0.641-0.504-1.009c-0.128-0.367-0.191-0.775-0.191-1.224
		c0-0.976,0.312-1.808,0.936-2.496c0.624-0.688,1.647-1.032,3.072-1.032c1.376,0,2.355,0.333,2.939,0.996
		c0.584,0.664,0.876,1.452,0.876,2.364C101.504,89.492,101.38,89.996,101.132,90.428z M99.86,100.628
		c0.76-0.432,1.364-0.903,1.812-1.416l-5.376-5.568c-0.368,0.16-0.728,0.368-1.08,0.624c-0.352,0.257-0.664,0.561-0.936,0.912
		c-0.272,0.368-0.492,0.78-0.66,1.236s-0.252,0.956-0.252,1.5c0,0.608,0.108,1.124,0.324,1.548s0.508,0.772,0.876,1.044
		c0.368,0.272,0.792,0.468,1.271,0.588c0.48,0.12,0.992,0.181,1.536,0.181C98.272,101.276,99.101,101.06,99.86,100.628z
		 M95.265,90.08c0.128,0.344,0.288,0.66,0.479,0.948c0.176,0.271,0.372,0.512,0.588,0.72s0.412,0.376,0.588,0.504
		c0.353-0.144,0.716-0.304,1.093-0.48c0.375-0.176,0.724-0.392,1.044-0.647c0.304-0.256,0.556-0.564,0.756-0.924
		c0.199-0.36,0.3-0.796,0.3-1.309c0-0.752-0.248-1.34-0.744-1.764s-1.056-0.636-1.68-0.636c-0.736,0-1.356,0.216-1.86,0.647
		c-0.504,0.433-0.756,1.024-0.756,1.776C95.072,89.348,95.136,89.736,95.265,90.08z"/>
	<path fill="#FFFFFF" d="M126.439,97.748c0.288,0.16,0.46,0.352,0.517,0.576c0.056,0.224,0.084,0.464,0.084,0.72v4.872
		c0,0.16-0.04,0.344-0.12,0.552s-0.177,0.408-0.288,0.601c-0.096,0.207-0.196,0.396-0.3,0.563c-0.104,0.168-0.181,0.284-0.229,0.348
		c-0.063,0.097-0.172,0.133-0.324,0.108c-0.151-0.024-0.228-0.092-0.228-0.204v-6.576c0-0.432-0.064-0.747-0.192-0.947
		s-0.296-0.396-0.504-0.589l-4.536,0.12l-2.712,0.097c-0.144,0.016-0.308,0.027-0.491,0.036c-0.185,0.008-0.372,0.012-0.564,0.012
		c-0.176,0-0.348-0.008-0.516-0.024c-0.168-0.016-0.301-0.048-0.396-0.096c-0.096-0.016-0.172-0.092-0.228-0.229
		c-0.057-0.136-0.061-0.3-0.013-0.491l0.168-0.816c0.304,0.08,0.696,0.141,1.177,0.18c0.479,0.04,0.96,0.076,1.439,0.108
		c0.48,0.016,0.92,0.028,1.32,0.036c0.399,0.008,0.672,0.012,0.815,0.012c1.009,0.017,1.969,0.017,2.881,0
		c0.911-0.016,1.783-0.04,2.615-0.072c0.816-0.016,1.588-0.035,2.316-0.06c0.728-0.024,1.412-0.052,2.052-0.084
		c0.24,0,0.54-0.012,0.9-0.036c0.359-0.023,0.724-0.044,1.092-0.06c0.352-0.032,0.672-0.057,0.96-0.072s0.48-0.032,0.576-0.048
		c0.495-0.048,0.899-0.076,1.212-0.084c0.312-0.008,0.54,0.044,0.684,0.155l0.792,0.721c0.112,0.112,0.176,0.212,0.192,0.3
		c0.016,0.088,0.008,0.164-0.024,0.228c-0.048,0.097-0.111,0.188-0.191,0.276s-0.168,0.116-0.265,0.084l-1.512-0.24
		c-0.304-0.031-0.668-0.056-1.092-0.071c-0.424-0.017-0.868-0.024-1.332-0.024c-0.448,0-0.893,0.004-1.332,0.012
		c-0.44,0.009-0.813,0.013-1.116,0.013L126.439,97.748z M126.764,89.576c-0.12,0.184-0.236,0.356-0.348,0.516l3.6,1.872
		c0.128,0.064,0.252,0.116,0.372,0.156s0.244,0.076,0.372,0.107c0.111,0.049,0.228,0.084,0.348,0.108s0.252,0.052,0.396,0.084
		c0.111,0.048,0.22,0.088,0.324,0.12c0.104,0.032,0.204,0.072,0.3,0.12c0.08,0.048,0.159,0.112,0.24,0.191
		c0.079,0.081,0.168,0.177,0.264,0.288l0.479,0.672c0.112,0.177,0.168,0.316,0.168,0.421c0,0.104-0.048,0.203-0.144,0.3
		c-0.096,0.144-0.208,0.22-0.336,0.228c-0.128,0.009-0.272-0.02-0.432-0.084l-6.576-3.815c-0.513,0.56-1.072,1.067-1.681,1.523
		c-0.607,0.456-1.208,0.853-1.8,1.188c-0.576,0.336-1.112,0.616-1.607,0.84c-0.496,0.224-0.881,0.384-1.152,0.479
		c-0.112,0.049-0.225,0.081-0.336,0.097c-0.112,0.016-0.192,0.016-0.24,0c-0.128-0.016-0.236-0.048-0.324-0.097
		c-0.088-0.048-0.132-0.159-0.132-0.336c0-0.111,0.028-0.207,0.084-0.288c0.056-0.079,0.116-0.136,0.181-0.168
		c0.447-0.159,0.999-0.416,1.655-0.768s1.32-0.76,1.992-1.224c0.656-0.448,1.264-0.948,1.824-1.5
		c0.56-0.553,0.983-1.124,1.271-1.717c0.032-0.079,0.044-0.172,0.036-0.275c-0.008-0.104-0.076-0.204-0.204-0.3l-0.936-0.673
		l-3.24,0.24c-0.368,0.032-0.68,0.028-0.936-0.012c-0.257-0.04-0.417-0.092-0.48-0.156c-0.096-0.048-0.164-0.111-0.204-0.191
		s-0.044-0.192-0.012-0.337l0.12-0.96c0.56,0.097,1.076,0.168,1.548,0.217c0.472,0.048,0.972,0.071,1.5,0.071
		c0.416,0.017,0.848,0.021,1.296,0.013s0.896-0.021,1.344-0.036v-1.176c0-0.32-0.035-0.548-0.107-0.685
		c-0.072-0.136-0.204-0.3-0.396-0.492c-0.096-0.079-0.104-0.216-0.023-0.407c0.079-0.192,0.191-0.272,0.336-0.24l0.912,0.288
		c0.367,0.111,0.584,0.252,0.647,0.42s0.097,0.396,0.097,0.684v1.536l3.119-0.264c0.256-0.016,0.472-0.028,0.648-0.036
		c0.176-0.008,0.328-0.012,0.456-0.012c0.111,0,0.208,0.008,0.288,0.023c0.08,0.017,0.159,0.048,0.24,0.096l0.552,0.36
		c0.24,0.177,0.388,0.316,0.443,0.42c0.057,0.104,0.036,0.252-0.06,0.444c-0.096,0.176-0.188,0.296-0.276,0.359
		c-0.088,0.064-0.228,0.072-0.42,0.024c-0.063,0-0.14-0.012-0.228-0.036c-0.088-0.023-0.188-0.052-0.3-0.084
		c-0.129-0.016-0.257-0.036-0.385-0.06c-0.128-0.024-0.248-0.044-0.359-0.061c-0.72-0.048-1.42-0.075-2.101-0.084
		c-0.68-0.008-1.403,0.004-2.172,0.036h-0.048l0.576,0.24c0.176,0.096,0.312,0.236,0.408,0.42c0.096,0.184,0.056,0.452-0.12,0.804
		C126.992,89.204,126.884,89.393,126.764,89.576z"/>
	<path fill="#FFFFFF" d="M140.911,99.116c0,0.08,0.017,0.14,0.049,0.18c0.031,0.04,0.096,0.06,0.191,0.06
		c0.864-0.016,1.748-0.084,2.652-0.203c0.903-0.12,1.779-0.269,2.628-0.444c0.832-0.192,1.604-0.408,2.316-0.648
		c0.711-0.239,1.308-0.504,1.787-0.792c0.064-0.048,0.156-0.063,0.276-0.048c0.12,0.017,0.26,0.072,0.42,0.168
		c0.224,0.16,0.315,0.309,0.276,0.444c-0.04,0.136-0.204,0.292-0.492,0.468c-1.473,0.832-3.057,1.42-4.752,1.764
		c-1.696,0.345-3.345,0.597-4.944,0.757c-0.112,0.016-0.24,0.027-0.384,0.035c-0.144,0.009-0.272,0.013-0.384,0.013
		c-0.225,0-0.468-0.128-0.732-0.384c-0.264-0.256-0.396-0.505-0.396-0.744v-4.393c0-0.159-0.004-0.304-0.013-0.432
		c-0.008-0.128-0.02-0.24-0.035-0.336c-0.032-0.096-0.081-0.18-0.145-0.252c-0.064-0.072-0.152-0.14-0.264-0.204
		c-0.16-0.08-0.288-0.184-0.384-0.313c-0.097-0.128-0.145-0.279-0.145-0.456v-0.479l1.368,0.12l6.456-0.096
		c0.176,0,0.304-0.044,0.384-0.133c0.08-0.087,0.12-0.243,0.12-0.468l0.048-3.12c0-0.207-0.023-0.336-0.072-0.384
		c-0.048-0.048-0.184-0.072-0.407-0.072l-4.944,0.12c-0.192,0-0.388,0.009-0.588,0.024s-0.389,0.023-0.564,0.023
		c-0.144,0.017-0.376,0.024-0.695,0.024c-0.32,0-0.568-0.056-0.744-0.168c-0.097-0.048-0.16-0.116-0.192-0.204s-0.032-0.195,0-0.324
		l0.12-0.936c0.608,0.128,1.408,0.208,2.4,0.24c0.991,0.032,1.951,0.023,2.88-0.024l3.576-0.12c0.128,0,0.255,0.012,0.384,0.036
		c0.128,0.024,0.231,0.06,0.312,0.108c0.064,0.063,0.108,0.144,0.132,0.239c0.024,0.097,0.036,0.232,0.036,0.408l-0.336,5.208
		c-0.032,0.288-0.124,0.5-0.275,0.636c-0.152,0.137-0.412,0.204-0.78,0.204l-6.168,0.097c0,0.128,0.004,0.26,0.012,0.396
		s0.012,0.276,0.012,0.42V99.116z M154.735,103.556c0,0.24-0.044,0.484-0.132,0.732s-0.188,0.483-0.3,0.708
		c-0.096,0.224-0.2,0.42-0.313,0.588c-0.111,0.168-0.191,0.284-0.239,0.348c-0.081,0.097-0.185,0.132-0.313,0.108
		c-0.128-0.024-0.191-0.084-0.191-0.18v-20.4c0-0.304-0.072-0.552-0.217-0.744c-0.144-0.191-0.328-0.384-0.552-0.576
		c-0.176-0.128-0.196-0.312-0.06-0.552c0.136-0.24,0.308-0.312,0.516-0.216l1.032,0.479c0.368,0.177,0.588,0.333,0.66,0.469
		c0.071,0.136,0.107,0.348,0.107,0.636V103.556z"/>
</g>
</svg>
