<?xml version="1.0" encoding="utf-8"?>
<!-- Generator: Adobe Illustrator 22.1.0, SVG Export Plug-In . SVG Version: 6.00 Build 0)  -->
<svg version="1.1" id="Layer_1" xmlns="http://www.w3.org/2000/svg" xmlns:xlink="http://www.w3.org/1999/xlink" x="0px" y="0px"
	 viewBox="0 0 165.656 86.149" enable-background="new 0 0 165.656 86.149" xml:space="preserve">
<g>
	<path fill="#FFFFFF" d="M95.947,13.169c-0.347,1.054-0.747,2.06-1.2,3.02l6,6.12c0.347,0.374,0.727,0.7,1.14,0.979
		c0.413,0.28,0.82,0.54,1.221,0.78c0.186,0.134,0.346,0.247,0.479,0.34c0.134,0.094,0.253,0.194,0.36,0.3
		c0.106,0.134,0.193,0.28,0.26,0.44s0.126,0.36,0.18,0.6l0.28,1.32c0.08,0.347,0.08,0.601,0,0.76c-0.08,0.16-0.2,0.28-0.36,0.36
		c-0.239,0.134-0.453,0.18-0.64,0.14s-0.387-0.18-0.6-0.42l-9.04-10.2c-0.721,1.36-1.494,2.62-2.32,3.78
		c-0.827,1.16-1.64,2.194-2.439,3.101c-0.801,0.906-1.555,1.68-2.261,2.319c-0.707,0.641-1.286,1.12-1.739,1.44
		c-0.16,0.106-0.32,0.193-0.48,0.26c-0.16,0.067-0.294,0.1-0.4,0.1c-0.187,0-0.373-0.06-0.56-0.18s-0.32-0.313-0.4-0.58
		c-0.026-0.16-0.006-0.319,0.061-0.479s0.14-0.28,0.22-0.36c0.88-0.666,1.887-1.6,3.021-2.8c1.133-1.2,2.22-2.573,3.26-4.12
		c1.013-1.546,1.913-3.22,2.7-5.02c0.786-1.801,1.3-3.62,1.54-5.461c0-0.186-0.027-0.353-0.08-0.5
		c-0.054-0.146-0.24-0.353-0.561-0.619l-0.76-0.521c-0.267-0.16-0.307-0.439-0.12-0.84s0.4-0.573,0.64-0.521
		c0.507,0.16,1.026,0.334,1.561,0.521c0.533,0.187,1,0.36,1.399,0.52c0.294,0.188,0.474,0.414,0.54,0.681s0.047,0.747-0.06,1.439
		C96.573,11.016,96.293,12.116,95.947,13.169z M112.827,33.708c0,0.4-0.074,0.807-0.22,1.221c-0.147,0.413-0.314,0.806-0.5,1.18
		c-0.188,0.373-0.367,0.7-0.54,0.98c-0.174,0.279-0.3,0.473-0.38,0.58c-0.134,0.159-0.308,0.22-0.521,0.18
		c-0.214-0.04-0.32-0.141-0.32-0.3v-34c0-0.507-0.119-0.92-0.359-1.24s-0.547-0.64-0.92-0.96c-0.294-0.213-0.327-0.521-0.101-0.92
		c0.227-0.4,0.514-0.521,0.86-0.36l1.72,0.8c0.613,0.294,0.98,0.554,1.101,0.78s0.18,0.58,0.18,1.06V33.708z"/>
	<path fill="#FFFFFF" d="M8.58,57.769v12.72l5.64,0.9v1.8H0v-1.86l4.44-0.899V35.328l-3.78-0.779v-1.86h12.66
		c2.76,0,5.079,0.34,6.96,1.02c1.879,0.681,3.399,1.561,4.56,2.641c1.16,1.12,2,2.421,2.521,3.899
		c0.519,1.48,0.779,3.021,0.779,4.62c0,1.641-0.25,3.23-0.75,4.771s-1.33,2.91-2.489,4.109c-1.121,1.2-2.61,2.171-4.471,2.91
		c-1.859,0.741-4.13,1.11-6.81,1.11H8.58z M21.479,37.788c-1.6-1.64-4.22-2.46-7.859-2.46H8.58v19.801h5.22
		c3.68,0,6.279-0.95,7.8-2.851c1.521-1.899,2.28-4.35,2.28-7.35C23.88,41.809,23.079,39.429,21.479,37.788z"/>
	<path fill="#FFFFFF" d="M55.109,69.589c-2.1,2.8-5.35,4.199-9.75,4.199c-4.12,0-7.24-1.389-9.359-4.17
		c-2.121-2.779-3.181-6.529-3.181-11.25c0-4.64,1.051-8.34,3.15-11.1s5.31-4.14,9.63-4.14c4.16,0,7.31,1.35,9.45,4.05
		c2.14,2.7,3.21,6.43,3.21,11.189C58.26,63.049,57.21,66.789,55.109,69.589z M52.229,49.248c-1.341-2.359-3.63-3.56-6.87-3.6
		c-3.239,0-5.46,1.181-6.659,3.54c-1.2,2.36-1.801,5.421-1.801,9.18c0,3.84,0.601,6.951,1.801,9.33
		c1.199,2.381,3.42,3.57,6.659,3.57c3.24,0,5.529-1.18,6.87-3.54c1.34-2.359,2.011-5.46,2.011-9.3
		C54.24,54.669,53.569,51.61,52.229,49.248z"/>
	<path fill="#FFFFFF" d="M68.579,59.029v1.32c0,1.32,0.159,2.609,0.479,3.87c0.32,1.26,0.86,2.37,1.62,3.33s1.76,1.73,3,2.31
		c1.239,0.58,2.78,0.87,4.62,0.87c1.2,0,2.569-0.21,4.11-0.63c1.539-0.42,2.81-0.811,3.81-1.17l0.601,1.92
		c-0.48,0.32-1.101,0.65-1.86,0.99c-0.761,0.34-1.601,0.65-2.521,0.93c-0.88,0.32-1.81,0.57-2.79,0.75s-1.91,0.27-2.789,0.27
		c-2.28,0-4.211-0.39-5.79-1.17c-1.581-0.779-2.851-1.85-3.811-3.21c-1-1.399-1.71-3.02-2.13-4.859c-0.42-1.84-0.63-3.841-0.63-6
		c0-4.801,1.11-8.57,3.33-11.311c2.22-2.739,5.189-4.109,8.91-4.109c3.279,0,5.959,1.21,8.04,3.63
		c2.079,2.42,3.119,5.95,3.119,10.59l-1.26,1.68H68.579z M71.009,48.469c-1.62,1.8-2.41,4.439-2.37,7.92h15.36
		c0-3.48-0.671-6.12-2.01-7.92c-1.341-1.8-3.091-2.7-5.25-2.7C74.539,45.769,72.629,46.669,71.009,48.469z"/>
	<path fill="#FFFFFF" d="M98.099,72.139c-0.681-1.1-1.02-2.35-1.02-3.75v-21.96h-4.801v-1.681l4.62-1.14l2.58-7.2h1.32v7.2h7.62
		v2.82h-7.62v21.359c0,1.32,0.249,2.121,0.75,2.4c0.5,0.28,1.229,0.42,2.189,0.42c0.721,0,1.569-0.15,2.551-0.45
		c0.979-0.3,1.789-0.569,2.43-0.81l0.66,1.859c-0.321,0.24-0.75,0.501-1.29,0.78c-0.54,0.28-1.17,0.561-1.891,0.84
		c-0.681,0.28-1.39,0.511-2.13,0.69s-1.431,0.27-2.069,0.27C100.079,73.788,98.778,73.239,98.099,72.139z"/>
	<path fill="#FFFFFF" d="M121.558,46.849c0,0.2,0.09,0.32,0.27,0.359c0.181,0.041,0.33-0.039,0.45-0.239
		c0.84-0.721,1.62-1.359,2.34-1.92c0.721-0.56,1.32-0.98,1.801-1.261c0.479-0.279,1.148-0.489,2.01-0.63
		c0.859-0.14,1.729-0.129,2.609,0.03c0.92,0.16,1.801,0.521,2.641,1.08c0.84,0.561,1.5,1.38,1.979,2.46l-2.88,2.58h-0.96
		c-0.36-1.2-0.91-1.95-1.649-2.25c-0.741-0.3-1.491-0.45-2.25-0.45c-0.562,0-1.171,0.16-1.83,0.48c-0.66,0.32-1.271,0.681-1.83,1.08
		c-0.601,0.44-1.141,0.85-1.62,1.229c-0.48,0.381-0.801,0.65-0.96,0.81v20.341l4.14,0.779v1.86h-10.979v-1.8l3.18-0.72v-24.54
		l-3.24-0.48l-0.12-1.74c1,0,1.94-0.069,2.82-0.21c0.879-0.14,1.939-0.35,3.18-0.63l1.021,0.66L121.558,46.849z"/>
	<path fill="#FFFFFF" d="M163.376,45.949l-10.8,29.101c-0.601,1.599-1.211,3.079-1.83,4.439c-0.621,1.359-1.33,2.54-2.13,3.54
		c-0.801,0.96-1.71,1.72-2.73,2.28c-1.02,0.56-2.21,0.84-3.569,0.84c-0.561,0-1.011-0.021-1.351-0.06
		c-0.34-0.041-0.65-0.081-0.93-0.12c-0.28-0.081-0.57-0.15-0.87-0.21c-0.3-0.061-0.65-0.131-1.05-0.21v-3.78l1.02-0.48
		c0.48,0.44,1.029,0.79,1.65,1.051c0.619,0.26,1.209,0.39,1.77,0.39c1.681,0,3.03-0.641,4.051-1.92c1.02-1.28,1.97-3.04,2.85-5.28
		l1.14-2.7l-10.56-26.76l-2.22-0.72v-1.74h9.6v1.74l-3.36,0.6l8.521,21.84l7.74-21.72l-3.42-0.72v-1.74h8.76v1.74L163.376,45.949z"
		/>
</g>
</svg>
