<?xml version="1.0" encoding="utf-8"?>
<!-- Generator: Adobe Illustrator 16.0.0, SVG Export Plug-In . SVG Version: 6.00 Build 0)  -->
<!DOCTYPE svg PUBLIC "-//W3C//DTD SVG 1.1//EN" "http://www.w3.org/Graphics/SVG/1.1/DTD/svg11.dtd">
<svg version="1.1" id="Layer_1" xmlns="http://www.w3.org/2000/svg" xmlns:xlink="http://www.w3.org/1999/xlink" x="0px" y="0px"
	 width="135.469px" height="74.529px" viewBox="0 0 135.469 74.529" enable-background="new 0 0 135.469 74.529"
	 xml:space="preserve">
<g>
	<path fill="#FFFFFF" d="M90.358,24.754l-1.584-1.44c-0.288-0.224-0.744-0.336-1.368-0.336s-1.433,0.048-2.424,0.145
		c-0.192,0.032-0.576,0.064-1.152,0.096c-0.576,0.032-1.217,0.064-1.92,0.096c-0.736,0.064-1.464,0.113-2.184,0.145
		c-0.721,0.032-1.32,0.048-1.801,0.048l-6.576,0.24v-3.601c0-0.288-0.088-0.64-0.264-1.056s-0.647-0.672-1.416-0.768l-3.023-0.288
		l-0.097,0.911c-0.064,0.385,0,0.673,0.192,0.864c0.191,0.192,0.415,0.32,0.672,0.384c0.48,0.161,0.768,0.385,0.864,0.673
		c0.096,0.287,0.144,0.736,0.144,1.344v1.632c-1.568,0.032-3.208,0.057-4.92,0.072c-1.712,0.017-3.479-0.008-5.304-0.072
		c-0.288,0-0.833-0.008-1.632-0.024c-0.801-0.016-1.681-0.055-2.641-0.119s-1.92-0.136-2.88-0.217
		c-0.96-0.079-1.744-0.199-2.352-0.359l-0.336,1.632c-0.097,0.384-0.089,0.712,0.023,0.983c0.112,0.272,0.265,0.425,0.456,0.456
		c0.192,0.097,0.456,0.161,0.792,0.192c0.336,0.032,0.68,0.048,1.032,0.048c0.384,0,0.76-0.007,1.128-0.023
		c0.367-0.017,0.696-0.04,0.984-0.072l5.424-0.145l18.815-0.384c0.607,0,1.352,0,2.232,0c0.88,0,1.768,0,2.664,0
		c0.928,0.032,1.815,0.064,2.664,0.097c0.848,0.032,1.575,0.08,2.184,0.144l3.024,0.479c0.191,0.065,0.367,0.009,0.528-0.168
		c0.159-0.175,0.287-0.359,0.384-0.552c0.063-0.127,0.079-0.279,0.048-0.456C90.71,25.179,90.582,24.979,90.358,24.754z"/>
	<path fill="#FFFFFF" d="M62.854,44.338c0.863,0.768,1.911,1.359,3.144,1.776c1.231,0.415,2.568,0.623,4.008,0.623
		c1.376,0,2.664-0.208,3.864-0.623c1.2-0.417,2.248-1.009,3.144-1.776c0.864-0.736,1.552-1.616,2.064-2.64
		c0.512-1.025,0.768-2.145,0.768-3.36c0-1.279-0.264-2.448-0.792-3.504c-0.527-1.057-1.24-1.936-2.136-2.641
		c-0.896-0.735-1.944-1.303-3.144-1.703c-1.2-0.4-2.457-0.601-3.769-0.601c-2.88,0-5.264,0.752-7.151,2.256
		c-1.889,1.505-2.832,3.568-2.832,6.192c0,1.216,0.247,2.335,0.743,3.36C61.262,42.722,61.958,43.602,62.854,44.338z M64.822,34.233
		c1.151-1.104,2.88-1.655,5.184-1.655c2.239,0,3.928,0.584,5.064,1.752c1.136,1.168,1.704,2.504,1.704,4.008
		c0,1.439-0.545,2.752-1.633,3.936s-2.8,1.776-5.136,1.776c-2.272,0-3.992-0.561-5.16-1.68c-1.168-1.121-1.752-2.465-1.752-4.032
		C63.094,36.706,63.67,35.338,64.822,34.233z"/>
	<path fill="#FFFFFF" d="M57.766,5.458c0.48,0.191,0.784,0.424,0.912,0.695c0.128,0.272,0.192,0.744,0.192,1.416v6
		c0,0.641,0.111,1.152,0.336,1.536c0.224,0.385,0.512,0.672,0.864,0.864c0.352,0.192,0.735,0.313,1.151,0.36s0.8,0.071,1.152,0.071
		h17.808c0.385,0,0.688-0.048,0.912-0.144s0.4-0.352,0.528-0.768c0.096-0.385,0.079-0.664-0.048-0.841
		c-0.128-0.175-0.448-0.375-0.96-0.6l-1.488-0.624c-0.32-0.096-0.593-0.151-0.815-0.168c-0.225-0.016-0.528,0.008-0.912,0.072
		c-0.545,0.096-1.448,0.224-2.712,0.384c-1.265,0.16-2.601,0.24-4.009,0.24h-7.68c-0.576,0-0.912-0.12-1.008-0.36
		s-0.145-0.615-0.145-1.128V6.562c0-0.191-0.008-0.399-0.023-0.624c-0.017-0.224-0.024-0.447-0.024-0.672h17.376
		c0.48,0,0.856-0.04,1.128-0.12c0.271-0.079,0.504-0.359,0.696-0.84c0.128-0.288,0.168-0.512,0.12-0.672s-0.328-0.384-0.84-0.672
		l-0.96-0.528c-0.161-0.063-0.313-0.111-0.456-0.144c-0.145-0.032-0.329-0.048-0.552-0.048c-0.225,0-0.513,0.023-0.864,0.071
		c-0.353,0.048-0.816,0.104-1.393,0.168c-0.191,0.032-0.968,0.081-2.327,0.145c-1.361,0.064-2.889,0.112-4.585,0.144
		c-1.664,0.064-3.256,0.112-4.775,0.145c-1.521,0.032-2.521,0.048-3,0.048h-1.152l-3.647-0.24v1.104
		c0,0.479,0.104,0.848,0.312,1.104C57.086,5.187,57.382,5.361,57.766,5.458z"/>
	<path fill="#FFFFFF" d="M119.878,31.954c-0.192-0.097-0.416-0.2-0.672-0.313c-0.257-0.111-0.433-0.151-0.528-0.12
		c-1.632,0.576-3.44,1.08-5.424,1.513c-1.984,0.432-3.92,0.792-5.809,1.08v-4.416c2.176-0.288,3.937-1.152,5.28-2.593
		c1.344-1.439,2.017-3.199,2.017-5.279c0-2.4-0.824-4.345-2.473-5.832c-1.648-1.488-3.768-2.232-6.359-2.232
		c-2.688,0-4.865,0.744-6.528,2.232c-1.664,1.487-2.496,3.432-2.496,5.832c0,2.111,0.696,3.896,2.088,5.352
		c1.393,1.457,3.24,2.313,5.544,2.568v4.752l-1.775,0.144c-1.856,0.161-3.737,0.248-5.641,0.265
		c-1.904,0.016-3.496-0.104-4.775-0.36l-0.24,1.392c-0.096,0.385-0.12,0.681-0.072,0.889s0.168,0.344,0.36,0.407
		c0.415,0.192,0.84,0.304,1.271,0.336c0.433,0.032,0.792,0.049,1.08,0.049c0.544,0.031,1.192,0.031,1.944,0
		c0.751-0.032,1.512-0.064,2.28-0.097c0.768-0.064,1.512-0.127,2.231-0.191s1.32-0.128,1.8-0.192
		c1.057-0.096,2.296-0.247,3.721-0.456c1.423-0.208,2.903-0.472,4.439-0.792c1.536-0.319,3.088-0.68,4.656-1.08
		c1.567-0.399,3.023-0.871,4.368-1.416c0.352-0.127,0.463-0.367,0.336-0.72C120.373,32.322,120.166,32.082,119.878,31.954z
		 M105.91,27.153c-1.953,0-3.449-0.504-4.488-1.512c-1.04-1.008-1.561-2.296-1.561-3.864c0-1.535,0.521-2.815,1.561-3.84
		c1.039-1.023,2.535-1.536,4.488-1.536c1.823,0,3.255,0.513,4.296,1.536c1.039,1.024,1.56,2.305,1.56,3.84
		c0,1.568-0.521,2.856-1.56,3.864C109.165,26.649,107.733,27.153,105.91,27.153z"/>
	<path fill="#FFFFFF" d="M93.334,11.458c0.288,0.191,0.68,0.32,1.176,0.384c0.496,0.064,1.128,0.064,1.896,0
		c1.471-0.096,2.951-0.184,4.439-0.264s3-0.136,4.536-0.168c0.768-0.032,1.536-0.064,2.304-0.097
		c0.769-0.031,1.52-0.063,2.256-0.096c0.769-0.031,1.52-0.04,2.257-0.024c0.735,0.017,1.471,0.057,2.208,0.12
		c0.479,0.064,0.96,0.137,1.439,0.216c0.48,0.081,0.88,0.152,1.2,0.217c0.288,0.096,0.496,0.088,0.624-0.024
		c0.127-0.111,0.288-0.344,0.479-0.696c0.224-0.384,0.313-0.672,0.265-0.863c-0.048-0.192-0.265-0.433-0.648-0.721l-1.248-0.768
		c-0.353-0.192-0.688-0.296-1.008-0.313c-0.32-0.016-1.008,0.041-2.064,0.168c-0.319,0.065-1.128,0.145-2.424,0.24
		c-1.296,0.097-2.615,0.161-3.96,0.192V4.834c0-0.576-0.064-1.032-0.191-1.368c-0.129-0.336-0.561-0.632-1.296-0.888l-1.824-0.576
		c-0.288-0.063-0.513,0.096-0.672,0.479c-0.161,0.385-0.145,0.641,0.048,0.769c0.384,0.416,0.64,0.752,0.768,1.008
		c0.128,0.257,0.192,0.72,0.192,1.392v3.456c-0.384,0.032-0.744,0.057-1.08,0.072c-0.336,0.017-0.665,0.024-0.984,0.024
		c-0.32,0.032-0.656,0.048-1.008,0.048c-0.353,0-0.72-0.016-1.104-0.048c-0.545,0-1.089-0.017-1.633-0.049
		c-0.544-0.031-1.104-0.063-1.68-0.096c-0.544-0.063-1.104-0.127-1.68-0.191s-1.137-0.145-1.681-0.24l-0.239,1.824
		c-0.064,0.256-0.072,0.464-0.024,0.624S93.142,11.361,93.334,11.458z"/>
	<path fill="#FFFFFF" d="M135.046,25.186l-1.729-1.008c-0.256-0.128-0.472-0.216-0.647-0.264c-0.177-0.048-0.36-0.056-0.552-0.024
		c-0.192,0.032-0.401,0.08-0.624,0.145c-0.225,0.064-0.48,0.144-0.769,0.239c-0.736,0.225-1.28,0.368-1.632,0.433
		c-0.353,0.064-0.768,0.096-1.248,0.096l-1.92,0.096V3.25c0-0.576-0.072-1-0.216-1.272c-0.145-0.271-0.584-0.583-1.32-0.936
		l-2.063-0.96c-0.449-0.192-0.801-0.048-1.057,0.432c-0.256,0.48-0.208,0.849,0.145,1.104c0.447,0.384,0.815,0.768,1.104,1.151
		s0.433,0.881,0.433,1.488v40.8c0,0.192,0.127,0.313,0.384,0.36c0.256,0.048,0.463-0.024,0.624-0.216
		c0.096-0.129,0.247-0.36,0.456-0.696c0.207-0.336,0.424-0.729,0.647-1.176c0.224-0.449,0.424-0.921,0.601-1.416
		c0.175-0.497,0.264-0.984,0.264-1.464V27.153h5.952c0.127,0,0.367,0.009,0.72,0.024c0.352,0.017,0.64,0.041,0.864,0.072
		c0.288,0.096,0.567,0.104,0.84,0.023c0.271-0.079,0.504-0.247,0.696-0.504l0.239-0.336c0.192-0.224,0.265-0.447,0.217-0.672
		C135.406,25.538,135.27,25.347,135.046,25.186z"/>
	<path fill="#FFFFFF" d="M0.24,53.865l1.536,0.337v14.04L0,68.578v0.768h5.448v-0.768l-2.136-0.336v-6.145h4.56l0.36,1.608h0.792
		v-4.345H8.232l-0.36,1.584h-4.56v-6.672H5.88c0.177,0,0.424,0.004,0.744,0.013c0.32,0.008,0.656,0.02,1.008,0.035
		C8,54.338,8.36,54.357,8.712,54.382c0.353,0.023,0.648,0.044,0.889,0.06l0.384,1.752h0.84v-3.048H0.24V53.865z"/>
	<path fill="#FFFFFF" d="M21,60.37c0-0.592-0.107-1.08-0.324-1.465c-0.216-0.384-0.491-0.695-0.828-0.936
		c-0.352-0.224-0.76-0.384-1.224-0.48c-0.464-0.096-0.944-0.144-1.439-0.144c-0.32,0-0.645,0.028-0.973,0.084
		c-0.328,0.057-0.644,0.116-0.948,0.18c-0.319,0.081-0.624,0.156-0.911,0.229c-0.288,0.072-0.561,0.132-0.816,0.18l0.24,2.088
		l0.359,0.072l0.624-0.144c-0.016-0.192-0.004-0.408,0.036-0.648s0.1-0.464,0.181-0.672c0.287-0.145,0.619-0.248,0.995-0.313
		c0.376-0.063,0.757-0.096,1.141-0.096c0.655,0,1.224,0.204,1.704,0.612c0.479,0.408,0.72,0.924,0.72,1.548v1.944
		c-0.96,0.096-1.848,0.195-2.664,0.3c-0.816,0.104-1.624,0.252-2.424,0.443c-0.465,0.192-0.904,0.524-1.32,0.996
		c-0.416,0.473-0.624,1.164-0.624,2.076c0,0.944,0.224,1.74,0.672,2.388c0.448,0.648,1.145,0.973,2.088,0.973
		c0.24,0,0.548-0.004,0.925-0.013c0.375-0.008,0.691-0.052,0.947-0.132c0.304-0.08,0.568-0.168,0.792-0.264
		c0.225-0.096,0.424-0.2,0.601-0.313c0.176-0.096,0.332-0.195,0.468-0.3c0.136-0.104,0.268-0.204,0.396-0.3
		c0.048-0.063,0.104-0.1,0.168-0.108c0.063-0.008,0.111,0.036,0.144,0.133l0.264,1.056h2.4v-0.528L21,68.266V60.37z M19.536,67.33
		c-0.256,0.128-0.624,0.275-1.104,0.443c-0.479,0.168-0.936,0.3-1.367,0.396c-0.129,0.032-0.244,0.052-0.349,0.06
		c-0.104,0.009-0.204,0.013-0.3,0.013c-0.096,0.016-0.188,0.02-0.276,0.012s-0.18-0.012-0.275-0.012
		c-0.576,0-1.013-0.185-1.309-0.553c-0.296-0.367-0.436-0.896-0.42-1.584c0-0.432,0.104-0.84,0.313-1.224s0.487-0.68,0.84-0.888
		c0.384-0.097,0.764-0.177,1.14-0.24s0.74-0.12,1.093-0.168c0.336-0.048,0.672-0.097,1.008-0.145s0.672-0.096,1.008-0.144V67.33z"/>
	<path fill="#FFFFFF" d="M27.36,57.489L27,57.273c-0.496,0.112-0.932,0.196-1.308,0.252c-0.376,0.057-0.765,0.084-1.164,0.084
		l0.048,0.816l1.32,0.192v9.695l-1.633,0.313v0.72h4.753v-0.72l-1.656-0.313V57.489z"/>
	<path fill="#FFFFFF" d="M26.592,54.802c0.336,0,0.632-0.124,0.889-0.372c0.256-0.248,0.384-0.548,0.384-0.9
		c0-0.336-0.128-0.632-0.384-0.888c-0.257-0.256-0.553-0.384-0.889-0.384c-0.352,0-0.651,0.128-0.899,0.384
		s-0.372,0.552-0.372,0.888c0,0.353,0.124,0.652,0.372,0.9S26.24,54.802,26.592,54.802z"/>
	<path fill="#FFFFFF" d="M38.448,57.777c-0.336-0.224-0.688-0.367-1.056-0.432c-0.353-0.063-0.7-0.068-1.044-0.012
		c-0.345,0.056-0.612,0.14-0.805,0.252c-0.191,0.112-0.432,0.28-0.72,0.504s-0.6,0.479-0.937,0.768
		c-0.048,0.08-0.107,0.112-0.18,0.097c-0.072-0.017-0.107-0.064-0.107-0.145l0.048-1.248l-0.408-0.264
		c-0.496,0.112-0.92,0.196-1.272,0.252c-0.352,0.056-0.728,0.084-1.128,0.084l0.048,0.696l1.297,0.191v9.816l-1.272,0.288v0.72
		h4.392v-0.744l-1.655-0.312v-8.137c0.063-0.063,0.191-0.171,0.384-0.323s0.408-0.316,0.647-0.492
		c0.225-0.16,0.469-0.304,0.732-0.433c0.264-0.128,0.508-0.191,0.732-0.191c0.304,0,0.604,0.06,0.899,0.18s0.517,0.42,0.66,0.9
		h0.384l1.152-1.032C39.048,58.33,38.784,58.002,38.448,57.777z"/>
	<path fill="#FFFFFF" d="M47.736,58.21l1.368,0.288l-3.097,8.688l-3.407-8.736l1.344-0.239v-0.696h-3.84v0.696l0.888,0.288
		l4.224,10.704l-0.456,1.079c-0.352,0.896-0.731,1.601-1.14,2.112s-0.948,0.769-1.62,0.769c-0.224,0-0.46-0.053-0.708-0.156
		c-0.248-0.104-0.468-0.244-0.66-0.42l-0.407,0.191v1.513c0.159,0.031,0.3,0.06,0.42,0.084c0.119,0.023,0.235,0.052,0.348,0.084
		c0.111,0.016,0.235,0.031,0.372,0.048c0.136,0.016,0.315,0.023,0.54,0.023c0.544,0,1.02-0.111,1.428-0.336
		c0.408-0.224,0.771-0.527,1.092-0.912c0.32-0.399,0.604-0.872,0.853-1.416s0.492-1.136,0.731-1.775l4.32-11.641l0.912-0.239v-0.696
		h-3.504V58.21z"/>
	<path fill="#FFFFFF" d="M59.735,56.602h0.984l0.359-2.208c0.288-0.048,0.688-0.1,1.2-0.156c0.512-0.056,1.28-0.084,2.304-0.084
		h0.672v13.969l-2.256,0.359v0.864h6.168v-0.864l-2.256-0.359V54.178h0.624c0.88,0,1.636,0.024,2.269,0.072
		c0.632,0.048,1.092,0.096,1.38,0.144l0.336,2.208h0.96v-3.456H59.735V56.602z"/>
	<path fill="#FFFFFF" d="M81.888,60.37c0-0.592-0.107-1.08-0.324-1.465c-0.216-0.384-0.491-0.695-0.828-0.936
		c-0.352-0.224-0.76-0.384-1.224-0.48c-0.464-0.096-0.944-0.144-1.439-0.144c-0.32,0-0.645,0.028-0.973,0.084
		c-0.328,0.057-0.644,0.116-0.948,0.18c-0.319,0.081-0.624,0.156-0.911,0.229c-0.288,0.072-0.561,0.132-0.816,0.18l0.24,2.088
		l0.359,0.072l0.624-0.144c-0.016-0.192-0.004-0.408,0.036-0.648s0.1-0.464,0.181-0.672c0.287-0.145,0.619-0.248,0.995-0.313
		c0.376-0.063,0.757-0.096,1.141-0.096c0.655,0,1.224,0.204,1.704,0.612c0.479,0.408,0.72,0.924,0.72,1.548v1.944
		c-0.96,0.096-1.848,0.195-2.664,0.3c-0.816,0.104-1.624,0.252-2.424,0.443c-0.465,0.192-0.904,0.524-1.32,0.996
		c-0.416,0.473-0.624,1.164-0.624,2.076c0,0.944,0.224,1.74,0.672,2.388c0.448,0.648,1.145,0.973,2.088,0.973
		c0.24,0,0.548-0.004,0.925-0.013c0.375-0.008,0.691-0.052,0.947-0.132c0.304-0.08,0.568-0.168,0.792-0.264
		c0.225-0.096,0.424-0.2,0.601-0.313c0.176-0.096,0.332-0.195,0.468-0.3c0.136-0.104,0.268-0.204,0.396-0.3
		c0.048-0.063,0.104-0.1,0.168-0.108c0.063-0.008,0.111,0.036,0.144,0.133l0.264,1.056h2.4v-0.528l-1.368-0.552V60.37z
		 M80.424,67.33c-0.256,0.128-0.624,0.275-1.104,0.443c-0.479,0.168-0.936,0.3-1.367,0.396c-0.129,0.032-0.244,0.052-0.349,0.06
		c-0.104,0.009-0.204,0.013-0.3,0.013c-0.096,0.016-0.188,0.02-0.276,0.012s-0.18-0.012-0.275-0.012
		c-0.576,0-1.013-0.185-1.309-0.553c-0.296-0.367-0.436-0.896-0.42-1.584c0-0.432,0.104-0.84,0.313-1.224s0.487-0.68,0.84-0.888
		c0.384-0.097,0.764-0.177,1.14-0.24s0.74-0.12,1.093-0.168c0.336-0.048,0.672-0.097,1.008-0.145s0.672-0.096,1.008-0.144V67.33z"/>
	<path fill="#FFFFFF" d="M88.247,52.378l-0.36-0.216c-0.496,0.111-0.928,0.195-1.296,0.252c-0.368,0.056-0.752,0.084-1.152,0.084
		l0.049,0.768l1.296,0.192v14.784l-1.633,0.336v0.768h4.753v-0.768l-1.656-0.336V52.378z"/>
	<path fill="#FFFFFF" d="M100.942,63.682l0.505-0.672c0-1.855-0.417-3.268-1.248-4.236c-0.832-0.968-1.904-1.452-3.217-1.452
		c-1.487,0-2.676,0.549-3.563,1.645s-1.332,2.604-1.332,4.523c0,0.864,0.084,1.665,0.252,2.4c0.168,0.736,0.452,1.384,0.852,1.944
		c0.385,0.544,0.893,0.972,1.524,1.284c0.632,0.312,1.404,0.468,2.316,0.468c0.352,0,0.724-0.036,1.115-0.108
		c0.393-0.072,0.765-0.172,1.116-0.3c0.368-0.111,0.704-0.236,1.008-0.372s0.553-0.268,0.744-0.396l-0.24-0.769
		c-0.399,0.145-0.908,0.3-1.523,0.468c-0.616,0.168-1.164,0.252-1.645,0.252c-0.735,0-1.352-0.115-1.848-0.348
		c-0.496-0.231-0.896-0.54-1.2-0.924s-0.52-0.828-0.647-1.332c-0.129-0.504-0.192-1.021-0.192-1.548v-0.528H100.942z M94.69,59.458
		c0.648-0.721,1.412-1.08,2.292-1.08c0.864,0,1.564,0.359,2.101,1.08c0.536,0.72,0.804,1.775,0.804,3.168h-6.144
		C93.727,61.233,94.043,60.178,94.69,59.458z"/>
	<path fill="#FFFFFF" d="M110.759,63.874c-0.288-0.272-0.611-0.504-0.972-0.696s-0.732-0.368-1.116-0.528
		c-0.368-0.159-0.736-0.319-1.104-0.479c-0.368-0.16-0.688-0.328-0.96-0.504c-0.288-0.192-0.517-0.408-0.685-0.648
		s-0.244-0.528-0.228-0.864c0-0.527,0.216-0.976,0.647-1.344c0.433-0.368,0.969-0.552,1.608-0.552c0.384,0,0.756,0.048,1.116,0.144
		c0.359,0.097,0.636,0.232,0.828,0.408l0.407,1.272h0.648v-2.4c-0.48-0.096-0.972-0.18-1.476-0.252
		c-0.505-0.072-1.021-0.108-1.549-0.108c-1.104,0-2.012,0.272-2.724,0.816s-1.068,1.32-1.068,2.328
		c-0.016,0.464,0.064,0.86,0.24,1.188c0.176,0.328,0.408,0.612,0.696,0.853s0.615,0.443,0.983,0.612
		c0.368,0.168,0.744,0.332,1.129,0.491c0.384,0.16,0.76,0.324,1.128,0.492c0.367,0.168,0.695,0.372,0.983,0.612
		c0.272,0.224,0.496,0.492,0.672,0.804c0.176,0.313,0.265,0.685,0.265,1.116c-0.017,0.672-0.292,1.176-0.828,1.512
		s-1.164,0.504-1.884,0.504c-0.528,0-0.98-0.071-1.356-0.216c-0.376-0.144-0.684-0.336-0.924-0.576l-0.48-1.536h-0.624v2.713
		c0.192,0.08,0.62,0.191,1.284,0.336c0.664,0.144,1.356,0.216,2.076,0.216c1.472,0,2.544-0.336,3.216-1.008
		c0.672-0.673,1.008-1.513,1.008-2.521c0-0.479-0.088-0.9-0.264-1.26C111.279,64.438,111.047,64.13,110.759,63.874z"/>
</g>
</svg>
