<?xml version="1.0" encoding="utf-8"?>
<!-- Generator: Adobe Illustrator 22.1.0, SVG Export Plug-In . SVG Version: 6.00 Build 0)  -->
<svg version="1.1" id="Layer_1" xmlns="http://www.w3.org/2000/svg" xmlns:xlink="http://www.w3.org/1999/xlink" x="0px" y="0px"
	 viewBox="0 0 199.358 76.13" enable-background="new 0 0 199.358 76.13" xml:space="preserve">
<g>
	<path fill="#FFFFFF" d="M0,47.25v-2.17l5.18-0.98V3.01L0.7,2.03V0h13.44v2.03L9.66,3.01v18.34h21.56V3.01L26.74,2.03V0H40.18v2.03
		L35.7,3.01V44.1l5.18,0.98v2.17H26.04v-2.17l5.18-0.98V24.57H9.66V44.1l5.18,0.98v2.17H0z"/>
	<path fill="#FFFFFF" d="M73.185,43.05c-2.45,3.268-6.242,4.9-11.375,4.9c-4.808,0-8.447-1.621-10.92-4.865
		c-2.475-3.243-3.71-7.618-3.71-13.125c0-5.413,1.225-9.729,3.675-12.95c2.45-3.22,6.195-4.83,11.235-4.83
		c4.853,0,8.527,1.575,11.024,4.726c2.496,3.149,3.745,7.502,3.745,13.055C76.859,35.42,75.635,39.784,73.185,43.05z M69.824,19.32
		c-1.563-2.753-4.234-4.153-8.015-4.2c-3.78,0-6.37,1.377-7.771,4.13c-1.399,2.754-2.1,6.324-2.1,10.71c0,4.48,0.7,8.109,2.1,10.885
		c1.4,2.777,3.99,4.165,7.771,4.165s6.451-1.376,8.015-4.13c1.563-2.753,2.345-6.37,2.345-10.85
		C72.169,25.645,71.388,22.074,69.824,19.32z"/>
	<path fill="#FFFFFF" d="M91.139,16.52c0,0.234,0.105,0.375,0.315,0.421c0.21,0.047,0.385-0.046,0.525-0.28
		c0.979-0.84,1.89-1.586,2.729-2.24c0.84-0.653,1.54-1.143,2.1-1.47c0.561-0.326,1.342-0.571,2.346-0.735
		c1.003-0.163,2.018-0.15,3.045,0.035c1.073,0.188,2.1,0.607,3.08,1.26c0.979,0.654,1.75,1.61,2.31,2.87l-3.359,3.01h-1.12
		c-0.42-1.399-1.063-2.274-1.926-2.625c-0.863-0.35-1.738-0.524-2.625-0.524c-0.653,0-1.364,0.187-2.135,0.56
		c-0.77,0.374-1.481,0.794-2.135,1.26c-0.7,0.515-1.33,0.992-1.89,1.436c-0.561,0.444-0.935,0.759-1.12,0.945V44.17l4.83,0.91v2.17
		H83.299v-2.1l3.71-0.841V15.68l-3.779-0.56l-0.141-2.03c1.166,0,2.263-0.081,3.29-0.245c1.026-0.163,2.263-0.407,3.71-0.734
		l1.19,0.77L91.139,16.52z"/>
	<path fill="#FFFFFF" d="M118.578,16.52c0,0.234,0.105,0.375,0.315,0.421c0.21,0.047,0.385-0.046,0.525-0.28
		c0.979-0.84,1.89-1.586,2.729-2.24c0.84-0.653,1.54-1.143,2.1-1.47c0.561-0.326,1.342-0.571,2.346-0.735
		c1.003-0.163,2.018-0.15,3.045,0.035c1.073,0.188,2.1,0.607,3.08,1.26c0.979,0.654,1.75,1.61,2.31,2.87l-3.359,3.01h-1.12
		c-0.42-1.399-1.063-2.274-1.926-2.625c-0.863-0.35-1.738-0.524-2.625-0.524c-0.653,0-1.364,0.187-2.135,0.56
		c-0.77,0.374-1.481,0.794-2.135,1.26c-0.7,0.515-1.33,0.992-1.89,1.436c-0.561,0.444-0.935,0.759-1.12,0.945V44.17l4.83,0.91v2.17
		h-12.811v-2.1l3.71-0.841V15.68l-3.779-0.56l-0.141-2.03c1.166,0,2.263-0.081,3.29-0.245c1.026-0.163,2.263-0.407,3.71-0.734
		l1.19,0.77L118.578,16.52z"/>
	<path fill="#FFFFFF" d="M164.954,43.05c-2.45,3.268-6.242,4.9-11.375,4.9c-4.808,0-8.447-1.621-10.92-4.865
		c-2.475-3.243-3.71-7.618-3.71-13.125c0-5.413,1.225-9.729,3.675-12.95c2.45-3.22,6.195-4.83,11.235-4.83
		c4.853,0,8.527,1.575,11.024,4.726c2.496,3.149,3.745,7.502,3.745,13.055C168.629,35.42,167.404,39.784,164.954,43.05z
		 M161.594,19.32c-1.563-2.753-4.234-4.153-8.015-4.2c-3.78,0-6.37,1.377-7.771,4.13c-1.399,2.754-2.1,6.324-2.1,10.71
		c0,4.48,0.7,8.109,2.1,10.885c1.4,2.777,3.99,4.165,7.771,4.165s6.451-1.376,8.015-4.13c1.563-2.753,2.345-6.37,2.345-10.85
		C163.938,25.645,163.157,22.074,161.594,19.32z"/>
	<path fill="#FFFFFF" d="M182.908,16.52c0,0.234,0.105,0.375,0.315,0.421c0.21,0.047,0.385-0.046,0.525-0.28
		c0.979-0.84,1.89-1.586,2.729-2.24c0.84-0.653,1.54-1.143,2.1-1.47c0.561-0.326,1.342-0.571,2.346-0.735
		c1.003-0.163,2.018-0.15,3.045,0.035c1.073,0.188,2.1,0.607,3.08,1.26c0.979,0.654,1.75,1.61,2.31,2.87l-3.359,3.01h-1.12
		c-0.42-1.399-1.063-2.274-1.926-2.625c-0.863-0.35-1.738-0.524-2.625-0.524c-0.653,0-1.364,0.187-2.135,0.56
		c-0.77,0.374-1.481,0.794-2.135,1.26c-0.7,0.515-1.33,0.992-1.89,1.436c-0.561,0.444-0.935,0.759-1.12,0.945V44.17l4.83,0.91v2.17
		h-12.811v-2.1l3.71-0.841V15.68l-3.779-0.56l-0.141-2.03c1.166,0,2.263-0.081,3.29-0.245c1.026-0.163,2.263-0.407,3.71-0.734
		l1.19,0.77L182.908,16.52z"/>
	<path fill="#FFFFFF" d="M138.677,66.67l-2.261,0.08c-0.119,0.014-0.257,0.023-0.409,0.03c-0.154,0.007-0.311,0.01-0.471,0.01
		c-0.146,0-0.29-0.007-0.43-0.021c-0.14-0.013-0.25-0.039-0.33-0.079c-0.08-0.014-0.144-0.077-0.189-0.19
		c-0.047-0.113-0.051-0.25-0.011-0.41l0.141-0.68c0.253,0.066,0.58,0.117,0.979,0.149c0.4,0.034,0.8,0.063,1.2,0.091
		c0.4,0.013,0.767,0.023,1.1,0.029c0.333,0.007,0.561,0.011,0.681,0.011c0.6,0.013,1.187,0.017,1.76,0.01s1.127-0.017,1.66-0.03
		v-2.9c0-0.253-0.021-0.439-0.061-0.56s-0.16-0.213-0.359-0.28c-0.107-0.026-0.2-0.08-0.28-0.16c-0.08-0.079-0.106-0.199-0.08-0.359
		l0.04-0.38l1.26,0.12c0.32,0.04,0.517,0.146,0.59,0.319c0.073,0.174,0.11,0.32,0.11,0.44v3.72l3.58-0.12
		c0.2,0,0.45-0.01,0.75-0.029c0.3-0.021,0.604-0.037,0.91-0.051c0.293-0.026,0.56-0.046,0.8-0.06s0.4-0.026,0.48-0.04
		c0.413-0.04,0.75-0.063,1.01-0.07c0.26-0.006,0.45,0.037,0.569,0.13l0.66,0.601c0.094,0.093,0.146,0.177,0.16,0.25
		s0.007,0.137-0.02,0.189c-0.04,0.08-0.094,0.157-0.16,0.23c-0.067,0.073-0.141,0.097-0.22,0.07l-1.261-0.2
		c-0.253-0.014-0.557-0.026-0.91-0.04c-0.353-0.014-0.723-0.021-1.109-0.021c-0.374,0-0.743,0-1.11,0s-0.677,0-0.93,0L138.677,66.67
		z M148.606,58.28c-0.007,0.033-0.01,0.069-0.01,0.109s-0.004,0.084-0.01,0.13c-0.008,0.047-0.011,0.104-0.011,0.171
		c-0.026,0.267-0.097,0.633-0.21,1.1s-0.236,0.947-0.37,1.44c-0.146,0.507-0.293,0.979-0.439,1.42
		c-0.147,0.439-0.273,0.76-0.38,0.96c-0.067,0.133-0.157,0.223-0.271,0.27s-0.217,0.057-0.31,0.03
		c-0.094-0.026-0.17-0.083-0.23-0.17c-0.06-0.087-0.069-0.19-0.029-0.311c0.199-0.72,0.383-1.51,0.55-2.37
		c0.166-0.859,0.29-1.636,0.37-2.329l-1.96,0.02c-0.04,0-0.394,0.01-1.061,0.03c-0.667,0.02-1.439,0.043-2.32,0.069
		c-0.239,0.014-0.467,0.021-0.68,0.021s-0.427,0-0.64,0c-0.214,0-0.431-0.003-0.65-0.01s-0.45-0.011-0.689-0.011
		c-0.12,0-0.287-0.006-0.5-0.02c-0.214-0.014-0.4-0.04-0.561-0.08c-0.094-0.013-0.156-0.063-0.189-0.15
		c-0.034-0.086-0.03-0.196,0.01-0.33l0.16-0.76c0.227,0.08,0.5,0.141,0.819,0.181c0.32,0.04,0.653,0.073,1,0.1
		c0.333,0.014,0.657,0.023,0.971,0.03c0.313,0.007,0.569,0.003,0.77-0.011c0.267,0,0.593-0.006,0.98-0.02
		c0.386-0.013,0.76-0.021,1.12-0.021c0.359-0.013,0.676-0.026,0.949-0.039c0.273-0.014,0.431-0.021,0.471-0.021l2.439-0.12
		c0.106-0.026,0.253-0.023,0.44,0.01c0.187,0.034,0.326,0.124,0.42,0.271c0.026,0.04,0.046,0.083,0.06,0.13s0.021,0.09,0.021,0.13
		C148.623,58.197,148.613,58.247,148.606,58.28z M140.496,69.7c0.787-0.66,1.78-0.99,2.98-0.99c0.547,0,1.07,0.087,1.57,0.26
		c0.5,0.174,0.937,0.42,1.31,0.74s0.67,0.71,0.89,1.17c0.221,0.46,0.33,0.977,0.33,1.55c0,0.533-0.106,1.027-0.319,1.48
		c-0.214,0.453-0.5,0.847-0.86,1.18c-0.373,0.32-0.81,0.573-1.31,0.76s-1.037,0.28-1.61,0.28c-0.601,0-1.157-0.094-1.67-0.28
		c-0.514-0.187-0.95-0.439-1.311-0.76c-0.373-0.333-0.663-0.727-0.87-1.18c-0.206-0.453-0.31-0.947-0.31-1.48
		C139.316,71.27,139.71,70.36,140.496,69.7z M141.316,70.59c-0.479,0.507-0.72,1.12-0.72,1.84c0,0.681,0.243,1.28,0.729,1.801
		c0.487,0.52,1.203,0.779,2.15,0.779c0.973,0,1.687-0.26,2.14-0.779c0.453-0.521,0.681-1.12,0.681-1.801
		c0-0.72-0.237-1.333-0.71-1.84c-0.474-0.507-1.178-0.76-2.11-0.76C142.517,69.83,141.797,70.083,141.316,70.59z"/>
	<path fill="#FFFFFF" d="M156.877,72.83l-2.261,0.06c-0.119,0.014-0.257,0.023-0.409,0.03c-0.154,0.007-0.311,0.01-0.471,0.01
		c-0.146,0-0.29-0.007-0.43-0.02c-0.14-0.014-0.25-0.04-0.33-0.08c-0.08-0.014-0.144-0.077-0.189-0.19
		c-0.047-0.113-0.051-0.25-0.011-0.409l0.141-0.681c0.253,0.067,0.58,0.117,0.979,0.15c0.4,0.033,0.8,0.063,1.2,0.09
		s0.767,0.043,1.1,0.05s0.561,0.01,0.681,0.01c0.772,0.014,1.52,0.018,2.239,0.011c0.721-0.007,1.407-0.017,2.061-0.03v-1.82
		c0-0.253-0.021-0.439-0.061-0.56s-0.159-0.213-0.359-0.28c-0.107-0.026-0.2-0.08-0.28-0.16s-0.106-0.2-0.08-0.359l0.04-0.381
		l1.26,0.12c0.32,0.04,0.517,0.147,0.591,0.32c0.072,0.174,0.109,0.32,0.109,0.44v2.64l2.7-0.08c0.2,0,0.45-0.02,0.75-0.06
		s0.604-0.08,0.91-0.12c0.293-0.04,0.56-0.08,0.8-0.12s0.4-0.066,0.48-0.08c0.413-0.04,0.75-0.026,1.01,0.04s0.45,0.146,0.569,0.24
		l0.66,0.6c0.094,0.093,0.146,0.177,0.16,0.25s0.007,0.137-0.02,0.19c-0.04,0.08-0.094,0.156-0.16,0.229
		c-0.067,0.073-0.141,0.097-0.22,0.07l-1.261-0.2c-0.253-0.027-0.557-0.047-0.91-0.06c-0.353-0.014-0.723-0.021-1.109-0.021
		c-0.374,0-0.743,0-1.11,0s-0.677,0-0.93,0L156.877,72.83z M163.076,62.27c-0.079-0.079-0.106-0.199-0.079-0.359l0.04-0.38
		l1.26,0.12c0.319,0.04,0.517,0.146,0.59,0.319c0.073,0.174,0.11,0.32,0.11,0.44v4.04c0.093,0,0.18-0.003,0.26-0.01
		s0.153-0.017,0.22-0.03c0.066,0,0.123-0.003,0.17-0.01s0.083-0.017,0.11-0.03c0.439-0.066,0.729-0.09,0.87-0.07
		c0.14,0.021,0.283,0.07,0.43,0.15l0.52,0.3c0.188,0.12,0.283,0.217,0.29,0.29s-0.036,0.197-0.13,0.37
		c-0.08,0.146-0.149,0.243-0.21,0.29c-0.06,0.047-0.149,0.05-0.27,0.01c-0.12-0.026-0.28-0.06-0.48-0.1s-0.399-0.067-0.6-0.08
		c-0.294-0.014-0.637-0.026-1.03-0.04s-0.804-0.021-1.229-0.021c-0.427,0-0.848,0.004-1.261,0.011s-0.773,0.017-1.08,0.029
		c-0.319,0.027-0.689,0.047-1.109,0.061c-0.42,0.013-0.851,0.026-1.29,0.04c-0.44,0.013-0.87,0.029-1.29,0.05
		c-0.42,0.02-0.783,0.037-1.09,0.05c-0.32,0.027-0.584,0.033-0.79,0.021c-0.207-0.014-0.37-0.067-0.49-0.16
		c-0.08-0.04-0.127-0.097-0.14-0.17c-0.014-0.073-0.007-0.17,0.02-0.29l0.08-0.7c0.453,0.08,0.937,0.137,1.45,0.17
		c0.513,0.033,0.99,0.05,1.43,0.05v-3c0-0.253-0.02-0.439-0.06-0.56s-0.16-0.214-0.36-0.28c-0.106-0.026-0.2-0.08-0.28-0.16
		s-0.106-0.2-0.08-0.36l0.04-0.38l1.261,0.12c0.319,0.04,0.517,0.147,0.59,0.32c0.073,0.174,0.109,0.32,0.109,0.439v3.881
		c0.32,0,0.65,0,0.99,0s0.684-0.014,1.03-0.04l2.18-0.101v-3.24c0-0.253-0.02-0.439-0.06-0.56s-0.16-0.213-0.36-0.28
		C163.25,62.403,163.156,62.35,163.076,62.27z M160.257,60.91c-0.334,0.014-0.667,0.026-1,0.04c-0.347,0.014-0.688,0.026-1.021,0.04
		s-0.653,0.026-0.96,0.04c-0.319,0.026-0.583,0.033-0.79,0.02c-0.207-0.013-0.37-0.066-0.489-0.16
		c-0.08-0.04-0.127-0.097-0.141-0.17s-0.014-0.17,0-0.29l0.101-0.699c0.466,0.079,0.923,0.137,1.369,0.17
		c0.447,0.033,0.891,0.05,1.33,0.05c0.334,0.014,0.797,0.017,1.391,0.01c0.593-0.007,1.163-0.03,1.71-0.07
		c0.293-0.013,0.616-0.029,0.97-0.05c0.354-0.02,0.69-0.036,1.01-0.05c0.333-0.026,0.62-0.047,0.86-0.06
		c0.24-0.014,0.4-0.027,0.479-0.04c0.4-0.04,0.681-0.054,0.841-0.04c0.159,0.013,0.313,0.06,0.46,0.14l0.52,0.3
		c0.187,0.12,0.283,0.217,0.29,0.29s-0.037,0.197-0.13,0.37c-0.08,0.146-0.15,0.243-0.21,0.29s-0.15,0.05-0.271,0.01
		c-0.119-0.026-0.279-0.057-0.479-0.09s-0.4-0.063-0.6-0.09c-0.254-0.014-0.561-0.026-0.921-0.04
		c-0.359-0.014-0.733-0.021-1.119-0.021c-0.388,0-0.777,0.004-1.17,0.011c-0.394,0.007-0.744,0.017-1.051,0.029
		C160.917,60.877,160.59,60.896,160.257,60.91z"/>
</g>
</svg>
