<?xml version="1.0" encoding="utf-8"?>
<!-- Generator: Adobe Illustrator 16.0.0, SVG Export Plug-In . SVG Version: 6.00 Build 0)  -->
<!DOCTYPE svg PUBLIC "-//W3C//DTD SVG 1.1//EN" "http://www.w3.org/Graphics/SVG/1.1/DTD/svg11.dtd">
<svg version="1.1" id="Layer_1" xmlns="http://www.w3.org/2000/svg" xmlns:xlink="http://www.w3.org/1999/xlink" x="0px" y="0px"
	 width="186.312px" height="61.586px" viewBox="0 0 186.312 61.586" enable-background="new 0 0 186.312 61.586"
	 xml:space="preserve">
<g>
	<path fill="#FFFFFF" d="M33.317,23.602c1.44,0,2.752-0.24,3.937-0.72c1.184-0.48,2.191-1.136,3.023-1.968s1.48-1.808,1.944-2.929
		c0.464-1.119,0.696-2.335,0.696-3.647c0-1.152-0.216-2.28-0.648-3.384c-0.432-1.104-1.048-2.088-1.848-2.952
		c-0.833-0.864-1.841-1.567-3.024-2.112c-1.184-0.544-2.544-0.815-4.08-0.815c-1.6,0-3,0.271-4.199,0.815
		c-1.2,0.545-2.201,1.248-3,2.112c-0.833,0.864-1.448,1.848-1.849,2.952c-0.4,1.104-0.6,2.231-0.6,3.384
		c0,1.313,0.216,2.528,0.647,3.647c0.433,1.121,1.063,2.097,1.896,2.929c0.832,0.832,1.848,1.487,3.048,1.968
		C30.462,23.361,31.813,23.602,33.317,23.602z M26.742,14.338c0-1.951,0.575-3.56,1.728-4.824c1.152-1.264,2.768-1.896,4.848-1.896
		s3.688,0.664,4.824,1.991c1.136,1.329,1.704,2.904,1.704,4.729c0,1.952-0.568,3.561-1.704,4.824
		c-1.136,1.265-2.744,1.896-4.824,1.896s-3.695-0.631-4.848-1.896C27.317,17.898,26.742,16.29,26.742,14.338z"/>
	<path fill="#FFFFFF" d="M44.79,20.29c0.127,0.256,0.304,0.432,0.527,0.527c0.224,0.097,0.528,0.129,0.912,0.097l7.248-0.288v7.151
		c0,0.257,0.128,0.401,0.385,0.433c0.255,0.032,0.463-0.048,0.623-0.24c0.097-0.128,0.248-0.36,0.456-0.696s0.424-0.728,0.648-1.176
		c0.224-0.447,0.424-0.919,0.6-1.416c0.176-0.496,0.265-0.983,0.265-1.464V3.25c0-0.576-0.072-1-0.216-1.272
		c-0.145-0.271-0.585-0.583-1.32-0.936l-2.064-0.96c-0.416-0.192-0.76-0.048-1.031,0.432c-0.272,0.48-0.233,0.849,0.119,1.104
		c0.448,0.384,0.816,0.768,1.104,1.151s0.432,0.881,0.432,1.488v3.84l-5.664,0.145c-0.16,0-0.424,0-0.792,0
		s-0.664-0.032-0.888-0.097L45.03,7.906c-0.385-0.097-0.648-0.04-0.792,0.168c-0.145,0.208-0.168,0.424-0.072,0.647l1.008,1.536
		c0.128,0.257,0.304,0.432,0.528,0.528c0.224,0.096,0.527,0.128,0.912,0.096l6.863-0.288v7.536l-6.048,0.144
		c-0.16,0-0.425,0-0.792,0c-0.368,0-0.664-0.031-0.888-0.096l-1.104-0.24c-0.384-0.096-0.664-0.031-0.84,0.192
		c-0.176,0.225-0.185,0.432-0.023,0.624L44.79,20.29z"/>
	<path fill="#FFFFFF" d="M54.87,44.674c0.191-0.288,0.439-0.768,0.744-1.44c0.304-0.672,0.487-1.313,0.552-1.92v-9.744
		c0-0.096-0.032-0.216-0.096-0.359c-0.065-0.145-0.145-0.265-0.24-0.36c-0.097-0.096-0.216-0.168-0.36-0.216
		c-0.144-0.048-0.312-0.072-0.504-0.072l-7.392,0.288c-0.32,0.032-1.024,0.064-2.112,0.096c-1.088,0.033-2.368,0.049-3.84,0.049
		c-0.929,0-1.849,0-2.76,0c-0.912,0-1.785,0-2.616,0c-0.833-0.032-1.616-0.08-2.353-0.145c-0.736-0.063-1.408-0.159-2.016-0.288
		l-0.145,1.584c-0.032,0.288-0.032,0.553,0,0.792c0.032,0.24,0.145,0.408,0.337,0.504c0.191,0.129,0.399,0.217,0.623,0.265
		s0.433,0.088,0.624,0.12c0.224,0,0.433-0.008,0.624-0.024c0.192-0.016,0.368-0.024,0.528-0.024c0.384,0,0.775-0.007,1.176-0.023
		c0.4-0.016,0.792-0.04,1.177-0.072l5.088-0.24c0.224,0,0.624-0.016,1.199-0.048c0.576-0.031,1.184-0.048,1.824-0.048
		c0.607-0.031,1.16-0.063,1.656-0.096c0.496-0.031,0.808-0.048,0.936-0.048l5.664-0.145v12.576c0,0.224,0.136,0.352,0.408,0.384
		c0.271,0.031,0.472-0.048,0.601-0.24L54.87,44.674z"/>
	<path fill="#FFFFFF" d="M92.117,2.77c0.288,0.384,0.433,0.881,0.433,1.488v40.8c0,0.192,0.127,0.313,0.384,0.36
		c0.256,0.048,0.464-0.024,0.624-0.216c0.096-0.129,0.247-0.36,0.456-0.696c0.208-0.336,0.424-0.729,0.647-1.176
		c0.224-0.449,0.424-0.921,0.601-1.416c0.176-0.497,0.264-0.984,0.264-1.464V25.521h6.624c0.128,0,0.368,0.009,0.72,0.024
		c0.353,0.017,0.641,0.04,0.864,0.072c0.288,0.096,0.568,0.104,0.84,0.023c0.271-0.079,0.504-0.247,0.696-0.504l0.24-0.336
		c0.159-0.224,0.224-0.447,0.191-0.672c-0.032-0.224-0.16-0.416-0.384-0.576l-1.728-1.008c-0.257-0.128-0.473-0.216-0.648-0.264
		c-0.176-0.049-0.359-0.056-0.552-0.024c-0.192,0.032-0.4,0.08-0.624,0.144c-0.225,0.064-0.48,0.145-0.768,0.24
		c-0.737,0.225-1.28,0.368-1.633,0.433s-0.768,0.096-1.248,0.096l-2.592,0.096V3.25c0-0.576-0.072-1-0.216-1.272
		c-0.144-0.271-0.584-0.583-1.32-0.936l-2.063-0.96c-0.416-0.192-0.761-0.048-1.032,0.432c-0.272,0.48-0.232,0.849,0.12,1.104
		C91.461,2.002,91.83,2.386,92.117,2.77z"/>
	<path fill="#FFFFFF" d="M74.405,21.298l10.608,11.664c0.256,0.288,0.496,0.448,0.72,0.479c0.224,0.032,0.48-0.031,0.769-0.191
		c0.191-0.097,0.327-0.248,0.407-0.456s0.072-0.52-0.023-0.937l-0.384-1.535c-0.192-0.608-0.408-1.048-0.648-1.32
		c-0.24-0.271-0.584-0.552-1.032-0.84c-0.256-0.16-0.488-0.304-0.695-0.433c-0.209-0.127-0.408-0.256-0.601-0.384
		c-0.191-0.127-0.384-0.271-0.576-0.432c-0.191-0.16-0.4-0.352-0.624-0.576l-7.056-6.864c0.512-1.151,0.976-2.367,1.392-3.647
		s0.752-2.608,1.009-3.984c0.127-0.832,0.151-1.408,0.071-1.728c-0.08-0.32-0.296-0.592-0.647-0.816
		c-0.48-0.192-1.04-0.399-1.68-0.624c-0.641-0.224-1.265-0.432-1.872-0.624c-0.288-0.063-0.545,0.144-0.769,0.624
		c-0.224,0.479-0.176,0.816,0.145,1.008l0.912,0.624c0.384,0.32,0.607,0.568,0.672,0.744c0.063,0.176,0.096,0.377,0.096,0.6
		c-0.288,2.208-0.881,4.393-1.776,6.553c-0.896,2.159-1.937,4.168-3.12,6.023c-1.216,1.856-2.479,3.504-3.792,4.944
		c-1.313,1.439-2.495,2.561-3.552,3.359c-0.096,0.097-0.184,0.24-0.264,0.433c-0.08,0.191-0.104,0.384-0.072,0.576
		c0.096,0.32,0.264,0.552,0.504,0.695c0.24,0.145,0.456,0.217,0.648,0.217c0.127,0,0.288-0.04,0.479-0.12
		c0.192-0.08,0.384-0.184,0.576-0.313c0.544-0.384,1.224-0.96,2.04-1.728c0.816-0.769,1.688-1.696,2.616-2.784
		c0.928-1.088,1.872-2.32,2.832-3.696C72.678,24.435,73.573,22.93,74.405,21.298z"/>
	<path fill="#FFFFFF" d="M149.142,37.282l-1.584-1.44c-0.288-0.224-0.744-0.336-1.368-0.336s-1.433,0.048-2.424,0.144
		c-0.192,0.032-0.576,0.064-1.152,0.097s-1.217,0.08-1.92,0.144c-0.736,0.032-1.464,0.072-2.184,0.12
		c-0.721,0.048-1.32,0.072-1.801,0.072l-6.768,0.191v-8.399c0-0.288-0.089-0.64-0.264-1.057c-0.177-0.415-0.648-0.672-1.416-0.768
		l-3.072-0.288l-0.096,0.912c-0.065,0.384,0,0.672,0.191,0.864c0.192,0.191,0.416,0.32,0.672,0.384
		c0.48,0.16,0.769,0.384,0.864,0.672s0.144,0.736,0.144,1.344v6.433c-1.535,0.032-3.136,0.056-4.8,0.071
		c-1.664,0.017-3.392,0.009-5.184-0.023c-0.288,0-0.833-0.008-1.632-0.024c-0.801-0.016-1.681-0.056-2.641-0.12
		c-0.96-0.063-1.92-0.136-2.88-0.216c-0.96-0.079-1.744-0.199-2.352-0.359l-0.336,1.632c-0.097,0.384-0.089,0.712,0.023,0.983
		s0.265,0.424,0.456,0.456c0.192,0.097,0.456,0.16,0.792,0.192c0.336,0.031,0.68,0.048,1.032,0.048c0.384,0,0.76-0.008,1.128-0.024
		c0.367-0.016,0.696-0.04,0.984-0.071l5.424-0.145l18.815-0.384c0.607,0,1.352,0,2.232,0c0.88,0,1.768,0,2.664,0
		c0.928,0,1.815,0.016,2.664,0.048c0.848,0.031,1.575,0.08,2.184,0.145l3.024,0.479c0.191,0.063,0.367,0.008,0.528-0.168
		c0.159-0.176,0.287-0.36,0.384-0.552c0.063-0.128,0.079-0.28,0.048-0.456C149.493,37.705,149.365,37.505,149.142,37.282z"/>
	<path fill="#FFFFFF" d="M113.478,28.45c0.096,0.032,0.256,0.032,0.479,0s0.448-0.097,0.672-0.192
		c0.64-0.288,1.488-0.735,2.544-1.344c1.057-0.607,2.176-1.376,3.36-2.305c1.216-0.928,2.439-2.008,3.672-3.239
		c1.231-1.231,2.376-2.616,3.433-4.152l14.159,10.464c0.32,0.257,0.592,0.384,0.816,0.384c0.224,0,0.464-0.111,0.72-0.336
		c0.192-0.159,0.304-0.343,0.336-0.552c0.032-0.208-0.048-0.504-0.239-0.888l-0.721-1.44c-0.32-0.544-0.624-0.919-0.912-1.128
		c-0.287-0.208-0.672-0.408-1.151-0.6c-0.288-0.097-0.545-0.192-0.769-0.288c-0.224-0.097-0.448-0.192-0.672-0.288
		c-0.224-0.063-0.44-0.151-0.647-0.264c-0.209-0.112-0.44-0.265-0.696-0.456l-9.168-6.192c0.512-0.864,0.984-1.792,1.416-2.784
		c0.432-0.991,0.792-2.031,1.08-3.12c0.191-0.768,0.231-1.319,0.12-1.655c-0.112-0.337-0.345-0.601-0.696-0.792
		c-0.48-0.192-1.04-0.416-1.68-0.673c-0.641-0.255-1.265-0.479-1.872-0.672c-0.288-0.096-0.545,0.112-0.769,0.624
		c-0.224,0.513-0.176,0.864,0.145,1.057l0.912,0.672c0.384,0.288,0.615,0.521,0.695,0.695c0.08,0.177,0.104,0.36,0.072,0.553
		c-0.544,2.176-1.456,4.208-2.736,6.096c-1.28,1.889-2.688,3.584-4.224,5.088c-1.505,1.473-3,2.712-4.488,3.72
		c-1.487,1.009-2.68,1.704-3.575,2.088c-0.129,0.065-0.249,0.177-0.36,0.337c-0.112,0.16-0.168,0.353-0.168,0.575
		c0.031,0.353,0.127,0.601,0.288,0.744C113.013,28.33,113.221,28.418,113.478,28.45z"/>
	<path fill="#FFFFFF" d="M186.221,43.282c-0.112-0.161-0.408-0.337-0.888-0.528l-1.68-0.672c-0.32-0.097-0.585-0.152-0.792-0.168
		c-0.209-0.017-0.488,0.023-0.841,0.12c-0.575,0.159-1.472,0.319-2.688,0.479c-1.217,0.16-2.528,0.24-3.937,0.24h-8.831
		c-0.576,0-0.912-0.137-1.009-0.408c-0.096-0.272-0.144-0.664-0.144-1.176v-3.601l16.8-0.144c0.769,0,1.32-0.136,1.656-0.408
		c0.336-0.271,0.504-0.695,0.504-1.271v-6.624c0-0.385-0.041-0.664-0.12-0.84c-0.08-0.176-0.168-0.313-0.264-0.408
		c-0.129-0.128-0.32-0.216-0.576-0.265c-0.257-0.048-0.497-0.071-0.72-0.071l-10.752,0.239c-0.576,0.032-1.28,0.049-2.112,0.049
		c-0.833,0-1.729-0.017-2.688-0.049c-0.96,0-1.952-0.039-2.976-0.119c-1.024-0.08-2-0.2-2.928-0.36l-0.336,1.872
		c-0.064,0.257-0.032,0.473,0.096,0.647c0.127,0.177,0.304,0.313,0.528,0.408c0.319,0.161,0.743,0.248,1.271,0.265
		c0.528,0.016,0.937,0.008,1.224-0.024c0.353,0,0.728-0.016,1.129-0.048c0.399-0.031,0.792-0.048,1.176-0.048l5.855-0.097
		l8.256-0.096c0.448,0,0.721,0.041,0.816,0.12c0.096,0.08,0.144,0.344,0.144,0.792v2.736c0,0.448-0.071,0.736-0.216,0.863
		c-0.144,0.129-0.407,0.192-0.792,0.192l-16.271,0.24l-0.816-0.145l-2.832-0.24v0.864c0,0.353,0.097,0.665,0.288,0.937
		c0.192,0.271,0.448,0.473,0.769,0.6c0.223,0.128,0.399,0.264,0.527,0.408c0.128,0.144,0.224,0.312,0.288,0.504
		c0.031,0.224,0.056,0.464,0.072,0.72c0.016,0.256,0.023,0.544,0.023,0.864v2.832c0,0.64,0.136,1.152,0.408,1.536
		c0.271,0.384,0.616,0.672,1.032,0.864c0.415,0.191,0.848,0.312,1.296,0.359s0.864,0.072,1.248,0.072h18.48
		c0.447,0,0.76-0.048,0.936-0.145c0.176-0.096,0.313-0.416,0.408-0.96C186.341,43.745,186.333,43.441,186.221,43.282z"/>
	<path fill="#FFFFFF" d="M170.261,12.658c0.128,0.256,0.304,0.432,0.528,0.527c0.224,0.097,0.528,0.129,0.912,0.097l10.224-0.48
		v12.096c0,0.192,0.128,0.305,0.384,0.336c0.256,0.032,0.464-0.048,0.624-0.239c0.097-0.128,0.248-0.36,0.456-0.696
		s0.424-0.728,0.648-1.176c0.224-0.416,0.424-0.872,0.6-1.368s0.265-0.984,0.265-1.464V3.25c0-0.576-0.072-1-0.217-1.272
		c-0.144-0.271-0.584-0.583-1.319-0.936l-2.064-0.96c-0.416-0.192-0.761-0.048-1.032,0.432c-0.271,0.48-0.232,0.849,0.12,1.104
		c0.448,0.384,0.816,0.768,1.104,1.151s0.432,0.881,0.432,1.488v6.048l-9.023,0.336c-0.161,0-0.425,0-0.792,0
		c-0.369,0-0.665-0.031-0.889-0.096l-1.104-0.24c-0.384-0.096-0.665-0.031-0.84,0.192c-0.177,0.224-0.185,0.432-0.024,0.624
		L170.261,12.658z"/>
	<path fill="#FFFFFF" d="M170.933,23.41c0.224,0.288,0.448,0.448,0.672,0.479c0.224,0.032,0.48-0.048,0.769-0.24
		c0.224-0.096,0.367-0.247,0.432-0.456c0.064-0.207,0.048-0.52-0.048-0.936l-0.432-1.488c-0.192-0.607-0.408-1.048-0.648-1.319
		s-0.584-0.553-1.032-0.841c-0.544-0.287-0.992-0.543-1.344-0.768c-0.353-0.224-0.752-0.56-1.2-1.008l-5.184-4.752
		c0.479-0.96,0.903-1.968,1.272-3.024c0.367-1.056,0.679-2.16,0.936-3.312c0.16-0.8,0.176-1.368,0.048-1.704
		s-0.384-0.601-0.768-0.792c-0.48-0.192-1.024-0.4-1.632-0.624c-0.608-0.224-1.232-0.416-1.872-0.576
		c-0.288-0.063-0.537,0.144-0.744,0.624c-0.209,0.479-0.168,0.816,0.12,1.008l0.96,0.624c0.384,0.288,0.615,0.521,0.695,0.696
		s0.104,0.376,0.072,0.6c-0.416,2.049-1.049,3.944-1.896,5.688c-0.849,1.744-1.801,3.32-2.856,4.728
		c-1.056,1.44-2.168,2.705-3.336,3.792c-1.169,1.089-2.265,1.984-3.288,2.688c-0.096,0.096-0.185,0.239-0.264,0.432
		c-0.08,0.192-0.088,0.384-0.024,0.576c0.063,0.32,0.208,0.552,0.433,0.696c0.223,0.144,0.463,0.2,0.72,0.168
		c0.096,0,0.24-0.04,0.432-0.12c0.192-0.08,0.384-0.184,0.576-0.313c0.48-0.319,1.096-0.768,1.848-1.344s1.561-1.279,2.425-2.112
		c0.863-0.831,1.735-1.791,2.615-2.88c0.88-1.087,1.72-2.287,2.521-3.6L170.933,23.41z"/>
	<polygon fill="#FFFFFF" points="8.16,51.313 9.185,51.09 9.185,50.626 6.112,50.626 6.112,51.09 7.136,51.313 7.136,55.506 
		2.208,55.506 2.208,51.313 3.232,51.09 3.232,50.626 0.16,50.626 0.16,51.09 1.185,51.313 1.185,60.706 0,60.93 0,61.426 
		3.393,61.426 3.393,60.93 2.208,60.706 2.208,56.242 7.136,56.242 7.136,60.706 5.952,60.93 5.952,61.426 9.344,61.426 
		9.344,60.93 8.16,60.706 	"/>
	<path fill="#FFFFFF" d="M12.768,53.521l-0.24-0.144c-0.33,0.074-0.621,0.131-0.871,0.168c-0.251,0.037-0.51,0.056-0.776,0.056
		l0.032,0.544l0.88,0.128v6.464l-1.088,0.208v0.48h3.168v-0.48l-1.104-0.208V53.521z"/>
	<path fill="#FFFFFF" d="M12.256,51.729c0.224,0,0.421-0.082,0.592-0.248c0.171-0.165,0.256-0.365,0.256-0.6
		c0-0.224-0.085-0.421-0.256-0.592s-0.368-0.256-0.592-0.256c-0.234,0-0.435,0.085-0.6,0.256c-0.166,0.171-0.248,0.368-0.248,0.592
		c0,0.234,0.082,0.435,0.248,0.6C11.821,51.647,12.021,51.729,12.256,51.729z"/>
	<path fill="#FFFFFF" d="M19.84,57.777c-0.191-0.181-0.408-0.336-0.647-0.464c-0.24-0.128-0.488-0.245-0.744-0.352
		c-0.246-0.106-0.491-0.214-0.736-0.32s-0.459-0.219-0.64-0.336c-0.192-0.128-0.344-0.271-0.456-0.432s-0.163-0.353-0.152-0.576
		c0-0.353,0.145-0.65,0.433-0.896c0.288-0.245,0.645-0.367,1.071-0.367c0.256,0,0.504,0.031,0.744,0.096
		c0.24,0.063,0.424,0.154,0.552,0.271l0.272,0.849h0.432v-1.601c-0.319-0.063-0.647-0.12-0.983-0.168s-0.681-0.071-1.032-0.071
		c-0.736,0-1.342,0.181-1.816,0.544c-0.475,0.362-0.712,0.88-0.712,1.552c-0.011,0.31,0.043,0.573,0.16,0.792
		s0.272,0.408,0.464,0.568c0.192,0.159,0.411,0.296,0.656,0.407c0.245,0.112,0.496,0.222,0.752,0.328
		c0.256,0.107,0.507,0.216,0.752,0.328s0.464,0.248,0.656,0.408c0.181,0.149,0.33,0.328,0.448,0.536
		c0.117,0.208,0.176,0.456,0.176,0.744c-0.011,0.447-0.195,0.783-0.552,1.008c-0.358,0.224-0.776,0.336-1.257,0.336
		c-0.352,0-0.653-0.048-0.903-0.145c-0.251-0.096-0.456-0.224-0.616-0.384l-0.32-1.023h-0.416v1.808
		c0.128,0.054,0.413,0.128,0.856,0.224c0.442,0.097,0.904,0.145,1.384,0.145c0.981,0,1.696-0.225,2.144-0.672
		c0.448-0.448,0.673-1.008,0.673-1.681c0-0.319-0.06-0.6-0.177-0.84S20.032,57.948,19.84,57.777z"/>
	<path fill="#FFFFFF" d="M25.288,60.618c-0.262,0.08-0.488,0.119-0.68,0.119c-0.257,0-0.451-0.037-0.584-0.111
		c-0.134-0.074-0.2-0.288-0.2-0.641V54.29h2.032v-0.752h-2.032v-1.92h-0.353l-0.688,1.92l-1.232,0.304v0.448h1.28v5.855
		c0,0.374,0.091,0.707,0.272,1c0.181,0.294,0.527,0.44,1.04,0.44c0.17,0,0.354-0.024,0.552-0.072s0.387-0.109,0.567-0.184
		c0.192-0.075,0.36-0.149,0.504-0.225c0.145-0.074,0.259-0.144,0.345-0.208l-0.176-0.496C25.766,60.466,25.549,60.538,25.288,60.618
		z"/>
	<path fill="#FFFFFF" d="M30.591,53.41c-1.151,0-2.008,0.367-2.567,1.104c-0.561,0.736-0.84,1.723-0.84,2.96
		c0,1.259,0.282,2.259,0.848,3s1.397,1.112,2.496,1.112c1.173,0,2.04-0.373,2.6-1.12c0.561-0.746,0.84-1.744,0.84-2.992
		c0-1.27-0.285-2.264-0.855-2.983C32.54,53.77,31.7,53.41,30.591,53.41z M32.359,59.97c-0.357,0.63-0.968,0.944-1.832,0.944
		s-1.456-0.317-1.776-0.952c-0.319-0.635-0.479-1.464-0.479-2.488c0-1.002,0.16-1.818,0.479-2.448
		c0.32-0.629,0.912-0.943,1.776-0.943c0.864,0.011,1.475,0.33,1.832,0.96c0.357,0.629,0.536,1.445,0.536,2.448
		C32.896,58.514,32.717,59.341,32.359,59.97z"/>
	<path fill="#FFFFFF" d="M40.464,53.714c-0.224-0.149-0.459-0.245-0.704-0.288c-0.234-0.043-0.467-0.045-0.696-0.008
		s-0.407,0.094-0.536,0.168c-0.128,0.074-0.287,0.187-0.479,0.336s-0.4,0.32-0.624,0.512c-0.032,0.054-0.072,0.075-0.12,0.064
		s-0.072-0.043-0.072-0.097l0.032-0.832l-0.271-0.176c-0.331,0.075-0.614,0.131-0.849,0.168c-0.234,0.038-0.485,0.057-0.752,0.057
		l0.032,0.464l0.864,0.128v6.544l-0.849,0.191v0.48h2.929V60.93l-1.104-0.208v-5.424c0.043-0.043,0.128-0.114,0.256-0.216
		s0.272-0.211,0.433-0.328c0.148-0.106,0.312-0.202,0.487-0.288c0.177-0.085,0.339-0.128,0.488-0.128c0.202,0,0.402,0.04,0.6,0.12
		s0.345,0.279,0.44,0.6h0.256l0.769-0.688C40.864,54.082,40.688,53.863,40.464,53.714z"/>
	<path fill="#FFFFFF" d="M43.871,53.521l-0.24-0.144c-0.33,0.074-0.621,0.131-0.871,0.168c-0.251,0.037-0.51,0.056-0.776,0.056
		l0.032,0.544l0.88,0.128v6.464l-1.088,0.208v0.48h3.168v-0.48l-1.104-0.208V53.521z"/>
	<path fill="#FFFFFF" d="M43.359,51.729c0.224,0,0.421-0.082,0.592-0.248c0.171-0.165,0.256-0.365,0.256-0.6
		c0-0.224-0.085-0.421-0.256-0.592s-0.368-0.256-0.592-0.256c-0.234,0-0.435,0.085-0.6,0.256c-0.166,0.171-0.248,0.368-0.248,0.592
		c0,0.234,0.082,0.435,0.248,0.6C42.925,51.647,43.125,51.729,43.359,51.729z"/>
	<path fill="#FFFFFF" d="M51.832,60.521c-0.155,0.048-0.318,0.088-0.488,0.12c-0.182,0.043-0.365,0.078-0.552,0.104
		c-0.188,0.026-0.366,0.04-0.536,0.04c-0.513,0-0.947-0.086-1.305-0.257c-0.357-0.17-0.643-0.404-0.855-0.703
		c-0.214-0.299-0.368-0.653-0.464-1.064c-0.097-0.41-0.145-0.851-0.145-1.32c0-1.108,0.245-1.94,0.736-2.496
		c0.49-0.554,1.072-0.831,1.744-0.831c0.288,0,0.552,0.023,0.792,0.071s0.456,0.12,0.647,0.216c0.097,0.16,0.171,0.328,0.225,0.505
		c0.053,0.176,0.09,0.327,0.111,0.455l0.353,0.08l0.224-0.031v-1.761c-0.319-0.063-0.688-0.12-1.104-0.168s-0.832-0.071-1.248-0.071
		c-1.024,0-1.875,0.338-2.552,1.016c-0.678,0.678-1.017,1.683-1.017,3.016c0,0.619,0.066,1.182,0.2,1.688
		c0.133,0.507,0.344,0.941,0.632,1.304c0.288,0.374,0.656,0.659,1.104,0.856c0.447,0.197,0.991,0.296,1.632,0.296
		c0.448,0,0.896-0.067,1.344-0.2s0.816-0.301,1.104-0.504l-0.16-0.48C52.128,60.434,51.986,60.474,51.832,60.521z"/>
	<path fill="#FFFFFF" d="M59.743,55.441c0-0.395-0.072-0.72-0.216-0.976c-0.145-0.256-0.328-0.464-0.553-0.624
		c-0.234-0.149-0.507-0.256-0.815-0.32c-0.31-0.063-0.63-0.096-0.96-0.096c-0.214,0-0.43,0.019-0.648,0.056
		c-0.219,0.038-0.43,0.078-0.632,0.12c-0.214,0.054-0.416,0.104-0.608,0.152c-0.191,0.048-0.373,0.088-0.544,0.12l0.16,1.392
		l0.24,0.048l0.416-0.096c-0.011-0.128-0.003-0.272,0.023-0.432c0.027-0.16,0.067-0.31,0.12-0.448
		c0.192-0.096,0.414-0.165,0.664-0.208c0.251-0.043,0.504-0.064,0.761-0.064c0.437,0,0.815,0.137,1.136,0.408
		c0.319,0.272,0.479,0.616,0.479,1.032v1.296c-0.64,0.064-1.231,0.131-1.775,0.2s-1.083,0.168-1.616,0.296
		c-0.31,0.128-0.603,0.35-0.88,0.664s-0.416,0.775-0.416,1.384c0,0.63,0.149,1.16,0.448,1.592c0.298,0.433,0.762,0.648,1.392,0.648
		c0.16,0,0.365-0.003,0.616-0.008c0.25-0.006,0.461-0.035,0.632-0.088c0.202-0.054,0.379-0.112,0.528-0.177
		c0.148-0.063,0.282-0.133,0.399-0.208c0.117-0.063,0.222-0.13,0.313-0.199c0.09-0.069,0.178-0.137,0.264-0.2
		c0.032-0.043,0.069-0.066,0.112-0.072c0.042-0.005,0.074,0.024,0.096,0.088l0.176,0.704h1.601v-0.352l-0.912-0.368V55.441z
		 M58.767,60.082c-0.171,0.085-0.416,0.184-0.735,0.296c-0.32,0.112-0.624,0.2-0.912,0.264c-0.086,0.021-0.163,0.035-0.232,0.04
		c-0.069,0.006-0.136,0.008-0.2,0.008c-0.063,0.011-0.125,0.014-0.184,0.009c-0.059-0.006-0.12-0.009-0.184-0.009
		c-0.385,0-0.675-0.122-0.872-0.367c-0.198-0.246-0.291-0.598-0.28-1.057c0-0.288,0.069-0.56,0.208-0.815
		c0.139-0.257,0.325-0.454,0.56-0.593c0.257-0.063,0.51-0.117,0.761-0.159c0.25-0.043,0.493-0.08,0.728-0.112
		c0.224-0.032,0.448-0.064,0.672-0.096c0.225-0.032,0.448-0.064,0.672-0.097V60.082z"/>
	<path fill="#FFFFFF" d="M63.983,50.114l-0.24-0.145c-0.33,0.075-0.618,0.131-0.863,0.168c-0.246,0.037-0.502,0.056-0.769,0.056
		l0.032,0.513l0.864,0.128v9.855l-1.088,0.225v0.512h3.168v-0.512l-1.104-0.225V50.114z"/>
	<path fill="#FFFFFF" d="M71.263,51.105l1.024,0.225v9.359l-1.185,0.225v0.512h3.632v-0.512l-1.424-0.225v-4.096h3.04l0.24,1.072
		h0.528V54.77h-0.528l-0.24,1.057h-3.04v-4.448h1.712c0.117,0,0.283,0.003,0.496,0.008c0.214,0.006,0.438,0.014,0.672,0.024
		c0.245,0.011,0.485,0.023,0.721,0.04c0.234,0.016,0.432,0.029,0.592,0.04l0.256,1.168h0.56v-2.032h-7.056V51.105z"/>
	<path fill="#FFFFFF" d="M80.679,50.29c-0.166,0.171-0.248,0.368-0.248,0.592c0,0.234,0.082,0.435,0.248,0.6
		c0.165,0.166,0.365,0.248,0.6,0.248c0.224,0,0.421-0.082,0.592-0.248c0.171-0.165,0.256-0.365,0.256-0.6
		c0-0.224-0.085-0.421-0.256-0.592s-0.368-0.256-0.592-0.256C81.044,50.034,80.844,50.119,80.679,50.29z"/>
	<path fill="#FFFFFF" d="M81.79,53.521l-0.24-0.144c-0.33,0.074-0.621,0.131-0.871,0.168c-0.251,0.037-0.51,0.056-0.776,0.056
		l0.032,0.544l0.88,0.128v6.464l-1.088,0.208v0.48h3.168v-0.48l-1.104-0.208V53.521z"/>
	<path fill="#FFFFFF" d="M89.751,60.521c-0.155,0.048-0.318,0.088-0.488,0.12c-0.182,0.043-0.365,0.078-0.552,0.104
		c-0.188,0.026-0.366,0.04-0.536,0.04c-0.513,0-0.947-0.086-1.305-0.257c-0.357-0.17-0.643-0.404-0.855-0.703
		c-0.214-0.299-0.368-0.653-0.464-1.064c-0.097-0.41-0.145-0.851-0.145-1.32c0-1.108,0.245-1.94,0.736-2.496
		c0.49-0.554,1.072-0.831,1.744-0.831c0.288,0,0.552,0.023,0.792,0.071s0.456,0.12,0.647,0.216c0.097,0.16,0.171,0.328,0.225,0.505
		c0.053,0.176,0.09,0.327,0.111,0.455l0.353,0.08l0.224-0.031v-1.761c-0.319-0.063-0.688-0.12-1.104-0.168s-0.832-0.071-1.248-0.071
		c-1.024,0-1.875,0.338-2.552,1.016c-0.678,0.678-1.017,1.683-1.017,3.016c0,0.619,0.066,1.182,0.2,1.688
		c0.133,0.507,0.344,0.941,0.632,1.304c0.288,0.374,0.656,0.659,1.104,0.856c0.447,0.197,0.991,0.296,1.632,0.296
		c0.448,0,0.896-0.067,1.344-0.2s0.816-0.301,1.104-0.504l-0.16-0.48C90.047,60.434,89.905,60.474,89.751,60.521z"/>
	<path fill="#FFFFFF" d="M95.255,60.618c-0.262,0.08-0.488,0.119-0.68,0.119c-0.257,0-0.451-0.037-0.584-0.111
		c-0.134-0.074-0.2-0.288-0.2-0.641V54.29h2.032v-0.752h-2.032v-1.92h-0.353l-0.688,1.92l-1.232,0.304v0.448h1.28v5.855
		c0,0.374,0.091,0.707,0.272,1c0.181,0.294,0.527,0.44,1.04,0.44c0.17,0,0.354-0.024,0.552-0.072s0.387-0.109,0.567-0.184
		c0.192-0.075,0.36-0.149,0.504-0.225c0.145-0.074,0.259-0.144,0.345-0.208l-0.176-0.496C95.732,60.466,95.516,60.538,95.255,60.618
		z"/>
	<path fill="#FFFFFF" d="M99.134,53.521l-0.24-0.144c-0.33,0.074-0.621,0.131-0.871,0.168c-0.251,0.037-0.51,0.056-0.776,0.056
		l0.032,0.544l0.88,0.128v6.464l-1.088,0.208v0.48h3.168v-0.48l-1.104-0.208V53.521z"/>
	<path fill="#FFFFFF" d="M98.022,50.29c-0.166,0.171-0.248,0.368-0.248,0.592c0,0.234,0.082,0.435,0.248,0.6
		c0.165,0.166,0.365,0.248,0.6,0.248c0.224,0,0.421-0.082,0.592-0.248c0.171-0.165,0.256-0.365,0.256-0.6
		c0-0.224-0.085-0.421-0.256-0.592s-0.368-0.256-0.592-0.256C98.388,50.034,98.188,50.119,98.022,50.29z"/>
	<path fill="#FFFFFF" d="M105.086,53.41c-1.151,0-2.008,0.367-2.567,1.104c-0.561,0.736-0.84,1.723-0.84,2.96
		c0,1.259,0.282,2.259,0.848,3s1.397,1.112,2.496,1.112c1.173,0,2.04-0.373,2.6-1.12c0.561-0.746,0.84-1.744,0.84-2.992
		c0-1.27-0.285-2.264-0.855-2.983C107.035,53.77,106.195,53.41,105.086,53.41z M106.854,59.97c-0.357,0.63-0.968,0.944-1.832,0.944
		s-1.456-0.317-1.776-0.952c-0.319-0.635-0.479-1.464-0.479-2.488c0-1.002,0.16-1.818,0.479-2.448
		c0.32-0.629,0.912-0.943,1.776-0.943c0.864,0.011,1.475,0.33,1.832,0.96c0.357,0.629,0.536,1.445,0.536,2.448
		C107.391,58.514,107.212,59.341,106.854,59.97z"/>
	<path fill="#FFFFFF" d="M116.366,55.569c0-0.778-0.203-1.333-0.608-1.663c-0.405-0.331-0.88-0.496-1.424-0.496
		c-0.192,0-0.402,0.023-0.632,0.071s-0.456,0.109-0.681,0.185c-0.234,0.074-0.455,0.157-0.663,0.248s-0.382,0.173-0.521,0.248
		c-0.032,0.031-0.069,0.04-0.112,0.023c-0.042-0.016-0.053-0.045-0.031-0.088l0.031-0.528l-0.271-0.176
		c-0.331,0.075-0.613,0.131-0.849,0.168c-0.234,0.038-0.485,0.057-0.752,0.057l0.032,0.512l0.864,0.128v6.512l-0.88,0.192v0.464
		h2.848v-0.464l-0.992-0.192v-6.128c0.097-0.011,0.243-0.037,0.44-0.08c0.197-0.042,0.413-0.08,0.647-0.111
		c0.225-0.043,0.448-0.08,0.673-0.112c0.224-0.032,0.41-0.048,0.56-0.048c0.448,0,0.784,0.128,1.008,0.384
		c0.225,0.256,0.336,0.603,0.336,1.04v5.056l-0.976,0.192v0.464h2.848v-0.464l-0.896-0.192V55.569z"/>
</g>
</svg>
