<?xml version="1.0" encoding="utf-8"?>
<!-- Generator: Adobe Illustrator 16.0.0, SVG Export Plug-In . SVG Version: 6.00 Build 0)  -->
<!DOCTYPE svg PUBLIC "-//W3C//DTD SVG 1.1//EN" "http://www.w3.org/Graphics/SVG/1.1/DTD/svg11.dtd">
<svg version="1.1" id="Layer_1" xmlns="http://www.w3.org/2000/svg" xmlns:xlink="http://www.w3.org/1999/xlink" x="0px" y="0px"
	 width="240px" height="120px" viewBox="0 0 240 120" enable-background="new 0 0 240 120" xml:space="preserve">
<path fill="#000113" d="M60,0C27,0,0,27,0,60s27,60,60,60c1.256,0,2.499-0.053,3.736-0.129V73.484H51.818V59.285h11.918V46.353
	c0,0,0.468-14.531,14.796-16.047c0,0,7.448-0.689,14.745,0v12.951H84.18c0,0-5.854,0-5.854,5.856c0,5.855,0,9.988,0,9.988h14.122
	l-2.343,14.191H78.257v43.841C102.4,109.359,120,86.641,120,60C120,27,93,0,60,0z"/>
<path fill="#6609B7" d="M180,0c-33,0-60,27-60,60s27,60,60,60c1.256,0,2.499-0.053,3.736-0.129V73.484h-11.918V59.285h11.918V46.353
	c0,0,0.468-14.531,14.796-16.047c0,0,7.448-0.689,14.745,0v12.951h-9.098c0,0-5.854,0-5.854,5.856c0,5.855,0,9.988,0,9.988h14.122
	l-2.344,14.191h-11.849v43.841C222.4,109.359,240,86.641,240,60C240,27,213,0,180,0z"/>
</svg>
