<?xml version="1.0" encoding="utf-8"?>
<!-- Generator: Adobe Illustrator 16.0.0, SVG Export Plug-In . SVG Version: 6.00 Build 0)  -->
<!DOCTYPE svg PUBLIC "-//W3C//DTD SVG 1.1//EN" "http://www.w3.org/Graphics/SVG/1.1/DTD/svg11.dtd">
<svg version="1.1" id="Layer_1" xmlns="http://www.w3.org/2000/svg" xmlns:xlink="http://www.w3.org/1999/xlink" x="0px" y="0px"
	 width="900px" height="900px" viewBox="225 0 900 900" enable-background="new 225 0 900 900" xml:space="preserve">
<g>
	<defs>
		<circle id="SVGID_1_" cx="675" cy="450" r="450"/>
	</defs>
	<clipPath id="SVGID_2_">
		<use xlink:href="#SVGID_1_"  overflow="visible"/>
	</clipPath>
	<g clip-path="url(#SVGID_2_)">
		<rect x="0" fill="#FF9933" width="1350" height="900"/>
		<rect x="0" y="300" fill="#FFFFFF" width="1350" height="600"/>
		<rect x="0" y="600" fill="#128807" width="1350" height="300"/>
		<g>
			<circle fill="#000088" cx="562.5" cy="375" r="120"/>
			<circle fill="#FFFFFF" cx="562.5" cy="375" r="105"/>
			<circle fill="#000088" cx="562.5" cy="375" r="21"/>
			<g>
				<g>
					<g id="b">
						<g id="a">
							<circle fill="#000088" cx="666.601" cy="388.705" r="5.25"/>
							<path fill="#000088" d="M562.5,480l3.6-63l-3.6-30l-3.601,30L562.5,480z"/>
						</g>
						<g transform="rotate(15)">
							<g id="a_1_">
								<circle fill="#000088" cx="659.507" cy="415.182" r="5.25"/>
								<path fill="#000088" d="M535.323,476.422l19.783-59.921l4.287-29.91l-11.242,28.046L535.323,476.422z"/>
							</g>
						</g>
					</g>
					<g id="c">
						<g id="b_1_">
							<g id="a_2_">
								<circle fill="#000088" cx="645.802" cy="438.92" r="5.25"/>
								<path fill="#000088" d="M510,465.933l34.617-52.76l11.883-27.78l-18.118,24.181L510,465.933z"/>
							</g>
							<g transform="rotate(30)">
								<g id="a_3_">
									<circle fill="#000088" cx="626.42" cy="458.302" r="5.25"/>
									<path fill="#000088" d="M488.253,449.246l47.094-42.002l18.668-23.759l-23.759,18.668L488.253,449.246z"/>
								</g>
							</g>
						</g>
					</g>
					<g>
						<g id="d">
							<g id="b_2_">
								<g id="a_4_">
									<circle fill="#000088" cx="602.681" cy="472.007" r="5.25"/>
									<path fill="#000088" d="M471.567,427.5l56.36-28.382L552.108,381l-27.781,11.882L471.567,427.5z"/>
								</g>
								<g transform="rotate(15)">
									<g id="a_5_">
										<circle fill="#000088" cx="576.205" cy="479.102" r="5.25"/>
										<path fill="#000088" d="M461.077,402.176l61.785-12.828l28.046-11.242l-29.909,4.288L461.077,402.176z"/>
									</g>
								</g>
							</g>
							<g id="c_1_">
								<g id="b_3_">
									<g id="a_6_">
										<circle fill="#000088" cx="548.794" cy="479.102" r="5.25"/>
										<path fill="#000088" d="M457.5,375l63,3.6l30-3.6l-30-3.6L457.5,375z"/>
									</g>
									<g transform="rotate(60)">
										<g id="a_7_">
											<circle fill="#000088" cx="522.318" cy="472.007" r="5.25"/>
											<path fill="#000088" d="M461.077,347.824l59.922,19.783l29.909,4.287l-28.046-11.242L461.077,347.824z"/>
										</g>
									</g>
								</g>
							</g>
						</g>
						<g>
							<g>
								<g>
									<g id="b_4_">
										<g id="a_8_">
											<circle fill="#000088" cx="498.58" cy="458.302" r="5.25"/>
											<path fill="#000088" d="M471.567,322.5l52.76,34.618L552.108,369l-24.181-18.118L471.567,322.5z"/>
										</g>
										<g transform="rotate(15)">
											<g id="a_9_">
												<circle fill="#000088" cx="479.198" cy="438.92" r="5.25"/>
												<path fill="#000088" d="M488.253,300.754l42.003,47.093l23.759,18.668l-18.668-23.759L488.253,300.754z"/>
											</g>
										</g>
									</g>
									<g id="c_2_">
										<g id="b_5_">
											<g id="a_10_">
												<circle fill="#000088" cx="465.492" cy="415.182" r="5.25"/>
												<path fill="#000088" d="M510,284.067l28.382,56.359l18.118,24.181l-11.883-27.78L510,284.067z"/>
											</g>
											<g transform="rotate(30)">
												<g id="a_11_">
													<circle fill="#000088" cx="458.398" cy="388.705" r="5.25"/>
													<path fill="#000088" d="M535.323,273.578l12.828,61.785l11.242,28.046l-4.287-29.91L535.323,273.578z"/>
												</g>
											</g>
										</g>
									</g>
									<g>
										<g id="d_1_">
											<g id="b_6_">
												<g id="a_12_">
													<circle fill="#000088" cx="458.398" cy="361.295" r="5.25"/>
													<path fill="#000088" d="M562.5,270l-3.601,63l3.601,30l3.6-30L562.5,270z"/>
												</g>
												<g transform="rotate(15)">
													<g id="a_13_">
														<circle fill="#000088" cx="465.492" cy="334.818" r="5.25"/>
														<path fill="#000088" d="M589.676,273.578l-19.783,59.921l-4.287,29.91l11.242-28.046L589.676,273.578z"/>
													</g>
												</g>
											</g>
											<g id="c_3_">
												<g id="b_7_">
													<g id="a_14_">
														<circle fill="#000088" cx="479.198" cy="311.08" r="5.25"/>
														<path fill="#000088" d="M615,284.067l-34.618,52.76l-11.882,27.78l18.117-24.181L615,284.067z"/>
													</g>
													<g transform="rotate(120)">
														<g id="a_15_">
															<circle fill="#000088" cx="498.58" cy="291.698" r="5.25"/>
															<path fill="#000088" d="M636.746,300.754l-47.094,42.002l-18.668,23.759l23.759-18.668L636.746,300.754z"/>
														</g>
													</g>
												</g>
											</g>
										</g>
										<g>
											<g>
												<g>
													<g id="b_8_">
														<g id="a_16_">
															<circle fill="#000088" cx="522.318" cy="277.993" r="5.25"/>
															<path fill="#000088" d="M653.433,322.5l-56.36,28.382L572.892,369l27.781-11.882L653.433,322.5z"/>
														</g>
														<g transform="rotate(15)">
															<g id="a_17_">
																<circle fill="#000088" cx="548.794" cy="270.898" r="5.25"/>
																<path fill="#000088" d="M663.922,347.824l-61.785,12.828l-28.046,11.242L604,367.607L663.922,347.824z"/>
															</g>
														</g>
													</g>
													<g id="c_4_">
														<g id="b_9_">
															<g id="a_18_">
																<circle fill="#000088" cx="576.205" cy="270.898" r="5.25"/>
																<path fill="#000088" d="M667.5,375l-63-3.6l-30,3.6l30,3.6L667.5,375z"/>
															</g>
															<g transform="rotate(30)">
																<g id="a_19_">
																	<circle fill="#000088" cx="602.681" cy="277.993" r="5.25"/>
																	<path fill="#000088" d="M663.922,402.176L604,382.393l-29.909-4.287l28.046,11.242L663.922,402.176z"/>
																</g>
															</g>
														</g>
													</g>
													<g transform="translate(112.5,75)">
														<g id="d_2_">
															<g id="b_10_">
																<g id="a_20_">
																	<circle fill="#000088" cx="626.42" cy="291.698" r="5.25"/>
																	<path fill="#000088" d="M653.433,427.5l-52.76-34.618L572.892,381l24.181,18.118L653.433,427.5z"/>
																</g>
																<g transform="rotate(15)">
																	<g id="a_21_">
																		<circle fill="#000088" cx="645.802" cy="311.08" r="5.25"/>
																		<path fill="#000088" d="M636.746,449.246l-42.003-47.093l-23.759-18.668l18.668,23.759L636.746,449.246z"/>
																	</g>
																</g>
															</g>
															<g id="c_5_">
																<g id="b_11_">
																	<g id="a_22_">
																		<circle fill="#000088" cx="659.507" cy="334.818" r="5.25"/>
																		<path fill="#000088" d="M615,465.933l-28.383-56.359L568.5,385.393l11.882,27.78L615,465.933z"/>
																	</g>
																	<g transform="rotate(-120)">
																		<g id="a_23_">
																			<circle fill="#000088" cx="666.601" cy="361.295" r="5.25"/>
																			<path fill="#000088" d="M589.676,476.422l-12.828-61.785l-11.242-28.046l4.287,29.91L589.676,476.422z"/>
																		</g>
																	</g>
																</g>
															</g>
														</g>
													</g>
												</g>
											</g>
										</g>
									</g>
								</g>
							</g>
						</g>
					</g>
				</g>
			</g>
		</g>
	</g>
</g>
</svg>
