<?xml version="1.0" encoding="utf-8"?>
<!-- Generator: Adobe Illustrator 24.0.3, SVG Export Plug-In . SVG Version: 6.00 Build 0)  -->
<svg version="1.1"
	 id="svg378" xmlns:cc="http://web.resource.org/cc/" xmlns:dc="http://purl.org/dc/elements/1.1/" xmlns:inkscape="http://www.inkscape.org/namespaces/inkscape" xmlns:ns1="http://sozi.baierouge.fr" xmlns:rdf="http://www.w3.org/1999/02/22-rdf-syntax-ns#" xmlns:sodipodi="http://sodipodi.sourceforge.net/DTD/sodipodi-0.dtd" xmlns:svg="http://www.w3.org/2000/svg"
	 xmlns="http://www.w3.org/2000/svg" xmlns:xlink="http://www.w3.org/1999/xlink" x="0px" y="0px" viewBox="0 0 743.6 743.6"
	 style="enable-background:new 0 0 743.6 743.6;" xml:space="preserve">
<style type="text/css">
	.st0{fill:#FFFFFF;}
	.st1{fill:#0000CC;}
</style>
<g>
	<path class="st0" d="M588.1,674.2c-60.9,43.7-135.6,69.4-216.3,69.4s-155.4-25.7-216.3-69.4"/>
	<path class="st0" d="M371.8,0c-75.2,0-145.2,22.3-203.7,60.7h407.3C516.9,22.3,447,0,371.8,0z"/>
	<path class="st0" d="M371.8,743.6c80.7,0,155.4-25.7,216.3-69.4H155.5C216.4,717.9,291.1,743.6,371.8,743.6z"/>
	<path class="st0" d="M0,371.8c0,75.6,22.6,146,61.4,204.7h620.8c38.8-58.7,61.4-129.1,61.4-204.7c0-79.4-24.9-153-67.3-213.4h-609
		C24.9,218.8,0,292.4,0,371.8z M210.6,277.2L210.6,277.2l107.7,0.4l51.8-90.1l53.3,90.5l110.7,0.4L478.9,372l54.6,92.7L424,465
		l-53.4,90.5l-51.8-90.1L210,465.8v0l54.5-94.8L210.6,277.2z"/>
	<path class="st1" d="M155.5,674.2h432.7c37-26.5,68.9-59.7,94.1-97.7H61.4C86.5,614.5,118.4,647.7,155.5,674.2z"/>
	<path class="st1" d="M67.3,158.4h609c-27.1-38.6-61.3-71.8-100.8-97.7H168.1C128.6,86.6,94.4,119.8,67.3,158.4z"/>
	<polygon class="st1" points="370.9,513.4 342.5,465.3 318.9,465.4 370.7,555.5 424,465 400.1,465.1 	"/>
	<polygon class="st1" points="245.9,297.3 245.9,297.3 305.8,297.7 288.6,329.2 318.3,277.6 210.6,277.2 210.6,277.2 264.6,371 
		276.7,349.9 	"/>
	<polygon class="st1" points="435.5,297.7 495.4,297.3 495.4,297.3 465.2,348.8 478.9,372 534.1,278.3 423.4,277.9 440.9,307.5 	"/>
	<polygon class="st0" points="400.1,465.1 342.5,465.3 370.9,513.4 	"/>
	<path class="st1" d="M210,465.8l108.8-0.4L264.6,371L210,465.8L210,465.8z M276.8,393.9l28,52.1l-59.4,0.2L276.8,393.9z"/>
	<polygon class="st1" points="370.9,226.8 401.8,277.8 423.4,277.9 370.1,187.5 318.3,277.6 340.9,277.6 	"/>
	<polygon class="st1" points="465.7,394.5 496,446.2 435.6,445.4 424,465 533.5,464.7 478.9,372 458.5,406.6 	"/>
	<path class="st1" d="M342.5,465.3l-2.1-3.6v0L402,462l-1.9,3.1L424,465l11.6-19.6l-0.2,0l23.2-38.9l20.4-34.6l-13.7-23.2l-0.9,1.6
		l-23.5-42.9l-17.4-29.6l-21.6-0.1l0.2,0.3l-61.5,0.2v0l0.4-0.7l-22.6-0.1l-29.7,51.7L277,350.4l-0.3-0.5L264.6,371l54.3,94.4
		L342.5,465.3z M329.3,297.2l80.8-0.6l43,75.5l-46.6,74.9l-76.6-1.8l-41.9-73.1L329.3,297.2L329.3,297.2z"/>
	<polygon class="st1" points="402,462 340.4,461.8 340.4,461.8 342.5,465.3 400.1,465.1 	"/>
	<polygon class="st0" points="340.9,277.6 401.8,277.8 370.9,226.8 	"/>
	<polygon class="st0" points="340.4,278.4 340.4,278.4 402,278.2 401.8,277.8 340.9,277.6 	"/>
	<polygon class="st0" points="276.8,393.9 245.3,446.2 304.8,446 	"/>
	<polygon class="st0" points="245.9,297.3 245.9,297.3 276.7,349.9 288.6,329.2 305.8,297.7 	"/>
	<polygon class="st0" points="277,350.4 288.6,329.2 276.7,349.9 	"/>
	<polygon class="st0" points="465.7,394.5 458.5,406.6 435.6,445.4 496,446.2 	"/>
	<polygon class="st0" points="435.3,445.4 435.6,445.4 458.5,406.6 	"/>
	<polygon class="st0" points="495.4,297.3 435.5,297.7 440.9,307.5 465.2,348.8 495.4,297.3 	"/>
	<polygon class="st0" points="464.3,350.4 465.2,348.8 440.9,307.5 	"/>
	<polygon class="st0" points="329.9,445.2 406.6,446.9 453.1,372.1 410.1,296.6 329.3,297.2 329.3,297.2 288.1,372.1 	"/>
</g>
</svg>
