<?xml version="1.0" encoding="utf-8"?>
<!-- Generator: Adobe Illustrator 16.0.0, SVG Export Plug-In . SVG Version: 6.00 Build 0)  -->
<!DOCTYPE svg PUBLIC "-//W3C//DTD SVG 1.1//EN" "http://www.w3.org/Graphics/SVG/1.1/DTD/svg11.dtd">
<svg version="1.1"
	 id="svg30" xmlns:dc="http://purl.org/dc/elements/1.1/" xmlns:cc="http://creativecommons.org/ns#" xmlns:rdf="http://www.w3.org/1999/02/22-rdf-syntax-ns#" xmlns:svg="http://www.w3.org/2000/svg" xmlns:sodipodi="http://sodipodi.sourceforge.net/DTD/sodipodi-0.dtd" xmlns:inkscape="http://www.inkscape.org/namespaces/inkscape" inkscape:version="0.92.4 (5da689c313, 2019-01-14)" sodipodi:docname="Flag_of_Mongolia.svg"
	 xmlns="http://www.w3.org/2000/svg" xmlns:xlink="http://www.w3.org/1999/xlink" x="0px" y="0px" width="2400px" height="2400px"
	 viewBox="1200 0 2400 2400" enable-background="new 1200 0 2400 2400" xml:space="preserve">
<sodipodi:namedview  inkscape:cy="911.08837" inkscape:cx="2078.0057" inkscape:zoom="0.125" showgrid="false" guidetolerance="10" gridtolerance="10" objecttolerance="10" bordercolor="#666666" pagecolor="#ffffff" borderopacity="1" id="namedview32" inkscape:snap-intersection-paths="true" inkscape:snap-bbox-edge-midpoints="true" inkscape:snap-global="true" inkscape:snap-midpoints="true" inkscape:current-layer="g22" inkscape:window-maximized="1" inkscape:window-y="-8" inkscape:window-x="-8" inkscape:snap-center="true" inkscape:snap-object-midpoints="true" inkscape:snap-smooth-nodes="true" inkscape:object-paths="true" inkscape:snap-bbox-midpoints="true" inkscape:bbox-nodes="true" inkscape:bbox-paths="true" inkscape:snap-bbox="true" inkscape:window-height="838" inkscape:pageshadow="2" inkscape:window-width="1600" inkscape:pageopacity="0">
	</sodipodi:namedview>
<g>
	<defs>
		<circle id="SVGID_1_" cx="2400" cy="1200" r="1200"/>
	</defs>
	<clipPath id="SVGID_2_">
		<use xlink:href="#SVGID_1_"  overflow="visible"/>
	</clipPath>
	<g id="g22" clip-path="url(#SVGID_2_)">
		<path id="path2" inkscape:connector-curvature="0" fill="#DA2032" d="M1200,0h2400v2400H1200V0z"/>
		<path id="path4" inkscape:connector-curvature="0" fill="#0066B3" d="M2000,0h800v2400h-800V0z"/>
		<g id="g1781" transform="translate(1599.998)">
			<path id="path4-4-6-3-9-4" inkscape:connector-curvature="0" fill="#FFD900" d="M-219.998,1080h100v960h-100V1080z"/>
			<path id="path4-4-6-3-9-4-7" inkscape:connector-curvature="0" fill="#FFD900" d="M120.002,1080h100v960h-100V1080z"/>
			<path id="path4-4-6-3-9-4-5-8-3" inkscape:connector-curvature="0" fill="#FFD900" d="M-99.998,1920l100,120l100-120H-99.998z"/>
			<path id="path4-4-6-3-9-4-5-7" inkscape:connector-curvature="0" fill="#FFD900" d="M-99.998,1800h200v80h-200V1800z"/>
			<path id="path4-4-6-3-9-4-5-8-3-5" inkscape:connector-curvature="0" fill="#FFD900" d="M-99.998,1080l100,120l100-120H-99.998z"
				/>
			<path id="path4-4-6-3-9-4-5-7-7" inkscape:connector-curvature="0" fill="#FFD900" d="M-99.998,1240h200v80h-200V1240z"/>
			<path id="path1120-7-3-5-6-8" inkscape:connector-curvature="0" fill="#FFD900" d="M47.501,1384.216
				c7.44,20.22,11.464,44.664,11.484,69.769C59,1519.16,32.587,1572.012,0.001,1572.027c-25.953,0.007-46.991,42.083-46.994,93.988
				c0.004,51.904,21.042,93.978,46.994,93.984c55.226,0,100-89.544,100-200C100.001,1486.576,79.805,1419.092,47.501,1384.216
				L47.501,1384.216z M0.001,1626.016c11.045,0,20,17.909,20,40c0,22.092-8.955,40-20,40c-11.046,0-20-17.908-20-40
				C-19.999,1643.925-11.045,1626.016,0.001,1626.016z"/>
			<path id="path1120-7-3-5-6-8-9" inkscape:connector-curvature="0" fill="#FFD900" d="M-47.499,1735.784
				c-7.44-20.22-11.464-44.664-11.484-69.769c-0.015-65.176,26.398-118.027,58.984-118.043c25.953-0.007,46.99-42.083,46.994-93.988
				C46.99,1402.08,25.953,1360.007,0.001,1360c-55.226,0-100,89.544-100,200C-99.999,1633.424-79.803,1700.908-47.499,1735.784
				L-47.499,1735.784z M0.001,1493.984c-11.046,0-20-17.909-20-40c0-22.092,8.954-40,20-40c11.045,0,20,17.908,20,40
				C20.001,1476.075,11.047,1493.984,0.001,1493.984z"/>
			<path id="path1363-17" inkscape:connector-curvature="0" fill="#FFD900" d="M-109.8,815.62c-0.074,1.458-0.141,2.919-0.2,4.38
				c0,121.503,49.249,220,110,220c60.751,0,110-98.497,110-220c0.006-1.333,0.006-2.667,0-4
				C90.92,903.416,47.769,959.939,0.078,959.984c-47.723-0.145-90.868-56.833-109.882-144.376L-109.8,815.62z"/>
			<ellipse id="path1363-1-5" fill="#FFD900" cx="0.084" cy="759.997" rx="80" ry="160"/>
			<path id="path1363-1-5-5-3-9" inkscape:connector-curvature="0" fill="#FFD900" d="M8.408,240.05
				c-9.94,9.02-13.654,25.284-14.454,41.484c-0.5,13.64,2.51,29.004,2.81,42.344c0,22.956-11.876,30.516-11.876,63.28
				c0,11.26,5.2,23.668,5.2,52.892c-0.9,15.34-5.18,18.8-10,20l0,0c-5.523,0-10-8.954-10-20c0.007-5.127,0.999-10.053,2.77-13.76
				c0.315-0.715,0.656-1.383,1.02-2c2.28-4.6,5.41-6.38,5.39-18.521c0-6.239-2.02-11.92-3.95-22.968
				c-1.82-10.72-0.5-28.64,3.83-39.22c-7,5.4-11.314,18.82-13.514,30.86c-2.32,14.8-0.3,23.323-3.48,35.624
				c-1.94,7.96-4.25,11.26-6.44,17.899c-2.59,7.24-5.63,24.172-5.63,32.032l0,0c0,55.229,22.386,100,50,100l0,0
				c27.614,0,50-44.771,50-100l0,0c0-7.86-3-24.792-5.59-32.032c-2.19-6.64-4.54-9.939-6.48-17.899
				c-3.14-12.301-1.12-20.824-3.44-35.624c-2.2-12.04-6.52-25.456-13.516-30.86c4.33,10.58,5.65,28.5,3.83,39.22
				c-1.94,11.04-3.98,16.721-3.98,22.968c0,12.141,3.11,13.921,5.39,18.521c0.363,0.617,0.704,1.285,1.02,2
				c1.771,3.707,2.763,8.633,2.77,13.76c0,11.046-4.478,20-10,20c-5.53-1.399-9.5-6.56-10-20c0-38.504,8.24-40.96,8.24-69.452
				c0-40.684-18.242-59.943-18.242-89.688c0-10.08,1.18-27.26,8.32-40.86H8.408z"/>
		</g>
	</g>
</g>
</svg>
