<?xml version="1.0" encoding="utf-8"?>
<!-- Generator: Adobe Illustrator 16.0.0, SVG Export Plug-In . SVG Version: 6.00 Build 0)  -->
<!DOCTYPE svg PUBLIC "-//W3C//DTD SVG 1.1//EN" "http://www.w3.org/Graphics/SVG/1.1/DTD/svg11.dtd">
<svg version="1.1" id="Layer_1" xmlns="http://www.w3.org/2000/svg" xmlns:xlink="http://www.w3.org/1999/xlink" x="0px" y="0px"
	 width="400px" height="400px" viewBox="0 0 400 400" enable-background="new 0 0 400 400" xml:space="preserve">
<g>
	<g>
		<defs>
			<circle id="SVGID_1_" cx="200" cy="200" r="200"/>
		</defs>
		<clipPath id="SVGID_2_">
			<use xlink:href="#SVGID_1_"  overflow="visible"/>
		</clipPath>
		<g clip-path="url(#SVGID_2_)">
			<rect fill="#FF0000" width="400" height="400"/>
			<rect fill="#006600" width="160" height="400"/>
			<g>
				<path fill="#FFFF00" stroke="#000000" stroke-width="0.573" stroke-linecap="round" stroke-linejoin="round" d="M212.159,262.04
					c-20.14-0.91-112.493-87.38-113.126-101.15l5.1-12.757c9.161,19.966,103.573,104.061,112.848,101.08l-4.82,12.823"/>
				<path fill="#FFFF00" stroke="#000000" stroke-width="0.573" stroke-linecap="round" stroke-linejoin="round" d="M103.061,146.4
					c-1.808,7.294,24.099,31.318,55.269,59.754c31.168,28.434,58.043,46.006,60.036,43.486c0.121-0.326,0.979-2.541,0.9-2.523
					c-0.373,0.844-1.281,1.109-2.701,0.496c-8.42-3.643-30.383-18.764-57.582-43.506s-50.863-47.543-54.541-57.231
					c-0.256-0.671-0.438-1.896-0.401-2.849l-0.089-0.002l-0.783,2.053L103.061,146.4L103.061,146.4L103.061,146.4z M212.634,262.439
					c-0.342,0.93-0.979,0.961-2.188,0.762c-7.532-1.25-30.393-17.926-57.44-42.213c-31.473-28.26-57.466-54.01-54.646-60.74
					l0.768-2.035l0.151,0.071c-2.536,11.405,51.298,57.577,54.468,60.522c31.148,28.945,57.41,45.851,59.734,41.457l-0.847,2.182
					v-0.002V262.439z"/>
				<path fill="#FFFF00" stroke="#000000" stroke-width="0.573" stroke-linecap="round" stroke-linejoin="round" d="M160.113,169.23
					c20.158-0.239,45.033-4.132,59.35-12.69l-3.084-7.517c-8.462,7.024-33.475,11.644-56.436,12.335
					c-27.156-0.375-46.326-4.168-55.93-13.835l-2.912,8.004C118.756,166.735,136.85,169.115,160.113,169.23"/>
				<path fill="#FFFF00" stroke="#000000" stroke-width="0.573" stroke-linecap="round" stroke-linejoin="round" d="M220.293,156.71
					c-0.492,1.182-9.829,6.011-23.582,9.575c-9.324,2.133-21.488,3.956-36.669,3.978c-14.422,0.021-26.203-1.52-35.122-3.333
					c-14.438-3.396-21.889-8.12-24.644-9.79c0.263-0.786,0.433-1.337,0.687-2.071c7.93,4.736,15.416,7.592,24.186,9.616
					c8.861,1.8,20.5,3.362,34.852,3.342c15.109-0.023,27.139-1.984,36.411-4.054c14.103-3.412,21.808-7.803,22.89-9.842l0.996,2.579
					H220.293L220.293,156.71z M217.587,149.087c-1.528,1.841-9.146,5.893-22.546,9.104c-8.943,1.922-20.314,3.643-34.843,3.665
					c-13.804,0.02-25.08-1.375-33.657-3.249c-13.609-2.667-20.854-7.476-23.464-8.878c0.26-0.674,0.524-1.342,0.796-2.014
					c2.031,1.535,9.021,5.791,22.816,8.723c8.48,1.804,19.774,3.147,33.509,3.126c14.46-0.022,25.702-1.776,34.589-3.688
					c13.47-2.78,20.718-7.947,21.818-9.241L217.587,149.087L217.587,149.087L217.587,149.087z"/>
				<path fill="#FFFF00" stroke="#000000" stroke-width="0.573" stroke-linecap="round" stroke-linejoin="round" d="M93.92,205.66
					c12.398,10.003,39.938,15.044,65.996,15.391c23.727,0.057,54.639-5.502,66.197-14.689l-0.317-10.011
					c-3.616,8.477-36.741,16.609-66.138,16.276c-29.395-0.332-56.692-7.144-65.791-15.959l0.053,8.991"/>
				<path fill="#FFFF00" stroke="#000000" stroke-width="0.573" stroke-linecap="round" stroke-linejoin="round" d="
					M226.747,204.221v2.387c-1.737,3.115-12.631,7.826-26.292,11.144c-10.396,2.392-23.951,4.192-40.842,4.192
					c-16.045,0-28.842-1.715-38.766-4c-15.687-3.428-25.72-9.428-27.732-11.217l0.009-2.785c6.05,6.033,22.44,10.445,27.944,11.797
					c9.859,2.271,22.578,3.974,38.545,3.974c16.811,0,30.289-1.791,40.621-4.166C210.035,213.422,223.997,207.898,226.747,204.221
					L226.747,204.221L226.747,204.221z M226.753,195.728l0.001,2.388c-1.736,3.114-12.631,7.823-26.292,11.141
					c-10.396,2.392-23.95,4.193-40.841,4.193c-16.046,0-28.842-1.714-38.766-4.001c-15.687-3.426-25.719-9.424-27.733-11.216
					l0.009-2.785c6.05,6.032,22.439,10.446,27.945,11.796c9.857,2.271,22.578,3.976,38.544,3.976c16.812,0,30.29-1.792,40.621-4.169
					C210.041,204.927,224.003,199.405,226.753,195.728L226.753,195.728L226.753,195.728z"/>
				<path fill="#FFFF00" stroke="#000000" stroke-width="0.573" stroke-linecap="round" stroke-linejoin="round" d="M159.859,260.32
					c-28.514-0.256-52.946-11.659-58.105-13.545l3.762,8.834c9.113,5.752,32.949,14.32,54.618,13.371
					c21.669-0.947,40.606-3.465,53.952-13.211l3.857-9.154C208.85,253.04,177.898,260.254,159.859,260.32"/>
				<path fill="#FFFF00" stroke="#000000" stroke-width="0.55" stroke-linecap="round" stroke-linejoin="round" d="M215.533,253.721
					c-0.567,1.299-1.145,2.582-1.73,3.828c-6.295,3.33-16.213,6.825-20.398,7.846c-8.549,2.642-21.776,4.594-33.516,4.603
					c-25.26-0.556-45.937-7.972-55.664-14.3l-0.785-2.022l0.129-0.305l1.33,0.772c17.299,9.284,36.729,12.988,55.133,13.652
					c11.691,0.063,23.396-2.01,32.861-4.549c14.514-4.361,20.381-7.65,22.183-9.141L215.533,253.721L215.533,253.721
					L215.533,253.721z M218.878,245.445c0.015,0.025,0.028,0.05,0.043,0.076c-0.424,1.074-0.86,2.166-1.308,3.264
					c-3.356,1.799-12.469,5.799-25.773,8.589c-8.766,1.791-14.214,3.526-31.652,4.034c-32.677-1.248-53.832-10.831-58.858-13.195
					l-0.745-2.143c18.938,7.414,38.281,12.592,59.605,13.121c15.953-0.51,22.74-2.272,31.435-4.051
					c15.515-3.619,23.331-7.449,25.676-8.557c-0.028-0.063-0.063-0.13-0.103-0.199l1.683-0.941L218.878,245.445L218.878,245.445z"/>
				<path fill="#FFFF00" stroke="#000000" stroke-width="0.573" stroke-linecap="round" stroke-linejoin="round" d="M219.221,197.76
					c0.092,28.137-9.508,53.387-17.238,64.525c-10.939,15.759-25.442,25.896-42.381,26.363
					c-18.912,0.521-36.746-17.976-41.529-26.101c-9.352-15.885-16.967-36.057-17.211-63.243c1.158-30.709,9.195-52.1,20.846-66.769
					s27.162-21.813,40.081-21.302c14.905,0.59,32.315,11.558,44.349,33.332C214.018,158.833,217.432,174.315,219.221,197.76
					L219.221,197.76z M159.762,101.418c36.324,0,66.198,44.338,66.198,98.703c0,54.363-29.874,98.704-66.198,98.704
					c-36.322,0-65.949-44.339-65.949-98.704S123.439,101.418,159.762,101.418"/>
				<path fill="#FFFF00" stroke="#000000" stroke-width="0.573" stroke-linecap="round" stroke-linejoin="round" d="M159.939,101.08
					c36.355,0,66.008,44.483,66.008,99.022c0,54.539-29.652,99.02-66.008,99.02s-66.007-44.481-66.007-99.02
					C93.932,145.563,123.585,101.08,159.939,101.08L159.939,101.08z M95.385,200.103c0,53.26,29.157,96.842,64.555,96.842
					c35.398,0,64.556-43.582,64.556-96.842c0-53.262-29.158-96.844-64.556-96.844C124.543,103.259,95.385,146.842,95.385,200.103
					L95.385,200.103z"/>
				<path fill="#FFFF00" stroke="#000000" stroke-width="0.573" stroke-linecap="round" stroke-linejoin="round" d="M159.994,109.31
					c33.152,0,60.461,40.821,60.461,90.704c0,49.884-27.309,90.703-60.461,90.703c-33.154,0-60.462-40.818-60.462-90.703
					C99.531,150.131,126.841,109.31,159.994,109.31L159.994,109.31z M100.982,200.013c0,48.685,26.654,88.524,59.012,88.524
					c32.355,0,59.009-39.84,59.009-88.523c0-48.687-26.651-88.525-59.009-88.525S100.982,151.327,100.982,200.013L100.982,200.013z"
					/>
				<path fill="#FFFF00" stroke="#000000" stroke-width="0.573" stroke-linecap="round" stroke-linejoin="round" d="M162.652,100.68
					h-5.656l0.006,198.958h5.678L162.652,100.68z"/>
				<path fill="#FFFF00" stroke="#000000" stroke-width="0.573" stroke-linecap="round" stroke-linejoin="round" d="M162.087,99.546
					h1.44l0.012,201.25h-1.441L162.087,99.546L162.087,99.546z M156.473,99.548h1.45l0.002,201.25h-1.452V99.548L156.473,99.548z"/>
				<path fill="#FFFF00" stroke="#000000" stroke-width="0.573" stroke-linecap="round" stroke-linejoin="round" d="
					M225.993,203.936v-7.355L222,191l-22.667-9l-32.667-5l-39.333,3l-28,10l-5.654,6.28v7.357L108,194l34-8h32.667l24,4l16.667,6
					L225.993,203.936z"/>
				<path fill="#FFFF00" stroke="#000000" stroke-width="0.573" stroke-linecap="round" stroke-linejoin="round" d="M159.967,184.77
					c15.588-0.043,30.713,2.215,42.711,5.719c12.379,3.712,21.09,8.356,24.069,13.571l-0.004,2.582
					c-3.593-6.491-15.315-11.249-24.347-13.969c-11.904-3.474-26.928-5.717-42.431-5.674c-16.358,0.046-31.592,2.37-43.323,5.803
					c-9.414,2.802-21.968,8.368-23.535,13.858v-2.688c0.861-3.801,10.208-9.479,23.322-13.417
					C128.252,187.099,143.512,184.815,159.967,184.77L159.967,184.77z M159.973,176.278c15.59-0.042,30.713,2.217,42.709,5.719
					c12.381,3.714,21.092,8.356,24.07,13.571l-0.003,2.582c-3.593-6.488-15.315-11.247-24.347-13.966
					c-11.904-3.476-26.928-5.719-42.43-5.674c-16.359,0.044-31.519,2.37-43.25,5.802c-9.084,2.583-22.152,8.37-23.609,13.86v-2.691
					c0.861-3.759,10.398-9.641,23.324-13.417C128.258,178.607,143.518,176.325,159.973,176.278L159.973,176.278z"/>
				<path fill="#FFFF00" stroke="#000000" stroke-width="0.573" stroke-linecap="round" stroke-linejoin="round" d="M159.652,132.96
					c24.566-0.184,45.994,5.152,55.798,12.685l3.575,9.279c-8.521-6.888-31.637-14.05-59.336-12.979
					c-22.569,0.208-46.686,3.727-58.785,13.41l4.27-10.709c9.93-7.724,33.348-11.643,54.48-11.684"/>
				<path fill="#FFFF00" stroke="#000000" stroke-width="0.573" stroke-linecap="round" stroke-linejoin="round" d="M159.98,140.62
					c14.011-0.056,27.549,1.13,38.316,4.043c10.027,2.799,19.592,7.001,20.958,9.261l1.06,2.81
					c-3.324-3.257-11.601-6.883-22.226-9.906c-10.67-3.008-24.2-4.005-38.133-3.95c-15.813-0.081-28.101,1.171-38.646,3.929
					c-11.151,3.13-18.89,7.601-20.799,9.726l1.039-2.971c3.709-2.838,9.594-6.259,19.481-8.93
					C131.938,141.645,144.354,140.749,159.98,140.62L159.98,140.62L159.98,140.62z M159.975,132.136
					c13.408-0.053,26.646,1.068,36.967,3.851c8.14,2.377,16.188,6.087,19.137,9.389l1.55,3.695
					c-2.636-4.395-12.558-8.559-21.315-10.892c-10.24-2.649-22.93-3.698-36.338-3.865c-14.072,0.059-27.076,1.352-37.168,4.108
					c-9.627,2.748-15.841,6.001-18.47,8.542l1.364-3.087c3.627-2.864,9.486-5.495,16.867-7.646
					C132.734,133.454,145.82,132.195,159.975,132.136L159.975,132.136z"/>
				<path fill="#FFFF00" stroke="#000000" stroke-width="0.573" stroke-linecap="round" stroke-linejoin="round" d="M192.766,241.26
					c-12.145-3.4-24.313-3.895-32.811-3.744c-40.938,0.719-54.163,12.609-55.777,16.209l-3.059-7.481
					c10.422-11.332,32.715-17.687,59.058-17.037c13.679,0.337,25.482,1.698,35.413,4.584l-2.824,7.474"/>
				<path fill="#FFFF00" stroke="#000000" stroke-width="0.55" stroke-linecap="round" stroke-linejoin="round" d="M159.721,236.46
					c11.387,0.255,22.564,0.96,33.354,3.979l-0.781,2.068c-10.02-2.775-20.703-3.837-32.535-3.75
					c-15.107-0.178-30.39,1.939-43.693,7.666c-4.198,1.754-11.147,5.801-11.856,9.146l-0.776-1.924
					c0.223-1.978,4.424-6.08,12.275-9.39C130.945,237.711,145.2,236.607,159.721,236.46L159.721,236.46L159.721,236.46z
					 M160.236,227.863c11.8,0.33,23.984,1.148,35.828,4.668l-0.813,2.154c-10.694-3.186-20.913-4.246-34.942-4.57
					c-15.156,0.041-31.234,1.662-45.853,8.037c-4.72,2.063-12.865,6.521-13.136,10.051l-0.777-2.066
					c0.178-3.205,7.229-7.388,13.572-10.156C128.844,229.557,144.963,227.904,160.236,227.863L160.236,227.863z"/>
				<path fill="#FFFF00" stroke="#000000" stroke-width="0.573" stroke-linecap="round" stroke-linejoin="round" d="M218.387,247.38
					l-4.919,11.449L199.334,240l-36.667-37l-41.333-34l-21.46-11.01l4.574-12.72L106,144l13.333,5l44,34l25.333,24L210,230l8.667,15
					L218.387,247.38z"/>
				<path fill="#FFFF00" stroke="#000000" stroke-width="0.573" stroke-linecap="round" stroke-linejoin="round" d="M99.1,158.29
					c3.763-3.83,31.425,14.655,60.371,40.834c28.867,26.254,56.451,55.921,53.961,61.474l-0.818,1.932l-0.377,0.445
					c0.082-0.088,0.496-0.849-0.039-2.906c-1.23-6.069-20.797-29.491-53.264-58.896c-31.649-28.309-58.027-45.371-60.665-40.494
					L99.1,158.29L99.1,158.29L99.1,158.29z M219.395,247.217c2.379-7.052-23.278-36.044-55.088-64.272
					c-32.543-27.666-55.996-43.951-60.281-39.095l-0.951,2.599c-0.01,0.143,0.033-0.177,0.234-0.41
					c0.779-1.02,2.07-0.951,2.652-0.967c7.377,0.166,28.445,14.709,58.005,40.128c12.952,11.315,54.714,51.491,54.554,62.788
					c0.013,0.973,0.055,1.172-0.188,1.652L219.395,247.217L219.395,247.217L219.395,247.217z"/>
			</g>
			<g>
				<path fill="#FFFFFF" stroke="#000000" stroke-width="0.6704" d="M120.4,211.01c0,16.271,4.441,30.987,11.638,41.742
					c7.21,10.777,17.008,17.579,27.873,17.579c10.921,0,20.831-6.651,28.011-17.39c7.18-10.734,11.629-25.551,11.631-41.879h-0.001
					v-79.189l-79.159-0.141L120.4,211.01L120.4,211.01L120.4,211.01z"/>
				<path fill="#FF0000" stroke="#000000" stroke-width="0.5073" d="M121.88,211.12v0.045c0,15.558,4.294,29.724,11.185,40.009
					c6.902,10.305,16.41,16.712,26.81,16.712c10.454,0,19.94-6.36,26.813-16.626c6.873-10.265,11.131-24.433,11.133-40.044l0,0
					V134.39l-75.893-0.019L121.88,211.12 M182.561,157.373l0.002,48.891l-0.027,5.172l0,0c0,1.36-0.055,2.912-0.161,4.232
					c-0.617,7.73-2.985,14.469-6.497,19.709c-4.109,6.135-9.781,9.941-16.031,9.941c-6.218,0-11.759-3.938-15.886-10.102
					c-4.233-6.318-6.687-14.984-6.687-23.945l-0.008-54.023l45.293,0.122L182.561,157.373L182.561,157.373z"/>
				<g>
					<g id="castle">
						<path fill="#FFFF00" d="M126.793,154.43c0.09-5.521,2.702-6.828,2.721-6.848c0.02-0.019,2.821,1.408,2.812,6.899
							L126.793,154.43"/>
						<path fill="#FFFF00" stroke="#000000" stroke-width="0.5" d="M124.54,147.69l-0.454,6.345l2.76,0.009
							c0.027-5.25,2.649-6.123,2.713-6.104c0.06-0.005,2.659,1.161,2.729,6.104h2.769l-0.5-6.394l-10.015,0.038L124.54,147.69
							L124.54,147.69z"/>
						<path fill="#FFFF00" stroke="#000000" stroke-width="0.5" d="M123.9,154.06h11.297c0.238,0,0.433,0.353,0.433,0.784
							c0,0.43-0.194,0.781-0.433,0.781H123.9c-0.238,0-0.434-0.351-0.434-0.781C123.467,154.413,123.662,154.06,123.9,154.06z"/>
						<path fill="#FFFF00" stroke="#000000" stroke-width="0.5" d="M128.007,154.03c0.013-3.313,1.509-4.25,1.517-4.248
							c0,0,1.562,0.966,1.574,4.248H128.007"/>
						<path fill="#FFFF00" stroke="#000000" stroke-width="0.5" d="M124.141,145.05h10.83c0.227,0,0.414,0.318,0.414,0.705
							c0,0.387-0.188,0.705-0.414,0.705h-10.83c-0.229,0-0.416-0.316-0.416-0.705C123.725,145.368,123.912,145.05,124.141,145.05z"
							/>
						<path fill="#FFFF00" stroke="#000000" stroke-width="0.5" d="M124.367,146.47h10.357c0.219,0,0.396,0.316,0.396,0.704
							c0,0.388-0.178,0.705-0.396,0.705h-10.357c-0.219,0-0.396-0.316-0.396-0.705C123.969,146.787,124.148,146.47,124.367,146.47z"
							/>
						<path fill="#FFFF00" stroke="#000000" stroke-width="0.5" d="M127.713,135.88l0.818,0.002v0.872h0.596v-0.891l0.838,0.004
							v0.887h0.6v-0.891h0.838l-0.002,2.012c0,0.315-0.168,0.52-0.365,0.52h-2.941c-0.197,0-0.379-0.237-0.38-0.526L127.713,135.88
							L127.713,135.88L127.713,135.88z"/>
						<path fill="#FFFF00" stroke="#000000" stroke-width="0.5" d="M130.793,138.57l0.186,6.452l-2.869-0.016l0.189-6.452
							L130.793,138.57"/>
						<path id="cp1" fill="#FFFF00" stroke="#000000" stroke-width="0.5" d="M127.293,141.56l0.088,3.478l-2.75,0.002l0.077-3.479
							L127.293,141.56L127.293,141.56L127.293,141.56z"/>
						<g>
							<path id="cp1_1_" fill="#FFFF00" stroke="#000000" stroke-width="0.5" d="M134.366,141.56l0.087,3.478l-2.75,0.002
								l0.078-3.479L134.366,141.56L134.366,141.56L134.366,141.56z"/>
						</g>
						<path id="cp2" fill="#FFFF00" stroke="#000000" stroke-width="0.5" d="M124.2,139.04l0.8,0.003v0.872h0.585v-0.893
							l0.819,0.004v0.889h0.587v-0.892l0.819,0.002v2.012c0,0.314-0.166,0.519-0.357,0.519h-2.878c-0.193,0-0.373-0.236-0.373-0.526
							L124.2,139.04L124.2,139.04L124.2,139.04z"/>
						<g>
							<path id="cp2_1_" fill="#FFFF00" stroke="#000000" stroke-width="0.5" d="M131.273,139.04l0.799,0.003v0.872h0.584v-0.893
								l0.82,0.004v0.889h0.586v-0.892l0.819,0.002l-0.001,2.012c0,0.314-0.165,0.519-0.357,0.519h-2.877
								c-0.192,0-0.373-0.236-0.373-0.526l-0.002-1.989L131.273,139.04L131.273,139.04z"/>
						</g>
						<path d="M129.266,140.61c-0.018-0.627,0.586-0.634,0.578,0v1.537h-0.578V140.61"/>
						<path id="cp3" d="M125.713,142.84c-0.002-0.606,0.559-0.618,0.551,0v1.188h-0.551V142.84"/>
						<g>
							<path id="cp3_1_" d="M132.807,142.84c-0.002-0.606,0.559-0.618,0.551,0v1.188h-0.551V142.84"/>
						</g>
					</g>
					<g>
						<g id="castle_1_">
							<path fill="#FFFF00" d="M126.793,200.75c0.09-5.521,2.702-6.828,2.721-6.848c0.02-0.019,2.821,1.408,2.812,6.898
								L126.793,200.75"/>
							<path fill="#FFFF00" stroke="#000000" stroke-width="0.5" d="M124.54,194.01l-0.454,6.345l2.76,0.009
								c0.027-5.249,2.649-6.122,2.713-6.104c0.06-0.005,2.659,1.161,2.729,6.104h2.769l-0.5-6.393l-10.015,0.038L124.54,194.01
								L124.54,194.01z"/>
							<path fill="#FFFF00" stroke="#000000" stroke-width="0.5" d="M123.9,200.38h11.297c0.238,0,0.433,0.353,0.433,0.784
								c0,0.43-0.194,0.781-0.433,0.781H123.9c-0.238,0-0.434-0.353-0.434-0.781C123.467,200.732,123.662,200.38,123.9,200.38z"/>
							<path fill="#FFFF00" stroke="#000000" stroke-width="0.5" d="M128.007,200.35c0.013-3.313,1.509-4.25,1.517-4.248
								c0,0,1.562,0.967,1.574,4.248H128.007"/>
							<path fill="#FFFF00" stroke="#000000" stroke-width="0.5" d="M124.141,191.37h10.83c0.227,0,0.414,0.318,0.414,0.705
								c0,0.388-0.188,0.705-0.414,0.705h-10.83c-0.229,0-0.416-0.316-0.416-0.705C123.725,191.688,123.912,191.37,124.141,191.37z"
								/>
							<path fill="#FFFF00" stroke="#000000" stroke-width="0.5" d="M124.367,192.79h10.357c0.219,0,0.396,0.316,0.396,0.704
								c0,0.388-0.178,0.705-0.396,0.705h-10.357c-0.219,0-0.396-0.316-0.396-0.705C123.969,193.106,124.148,192.79,124.367,192.79z
								"/>
							<path fill="#FFFF00" stroke="#000000" stroke-width="0.5" d="M127.713,182.2l0.818,0.002v0.872h0.596v-0.891l0.838,0.004
								v0.887h0.6v-0.891h0.838l-0.002,2.012c0,0.316-0.168,0.521-0.365,0.521h-2.941c-0.197,0-0.379-0.237-0.38-0.526
								L127.713,182.2L127.713,182.2L127.713,182.2z"/>
							<path fill="#FFFF00" stroke="#000000" stroke-width="0.5" d="M130.793,184.89l0.186,6.452l-2.869-0.016l0.189-6.452
								L130.793,184.89"/>
							<path id="cp1_2_" fill="#FFFF00" stroke="#000000" stroke-width="0.5" d="M127.293,187.88l0.088,3.478l-2.75,0.002
								l0.077-3.479L127.293,187.88L127.293,187.88L127.293,187.88z"/>
							<g>
								<path id="cp1_3_" fill="#FFFF00" stroke="#000000" stroke-width="0.5" d="M134.366,187.88l0.087,3.478l-2.75,0.002
									l0.078-3.479L134.366,187.88L134.366,187.88L134.366,187.88z"/>
							</g>
							<path id="cp2_2_" fill="#FFFF00" stroke="#000000" stroke-width="0.5" d="M124.2,185.36l0.8,0.003v0.872h0.585v-0.893
								l0.819,0.004v0.889h0.587v-0.893l0.819,0.002v2.012c0,0.314-0.166,0.519-0.357,0.519h-2.878
								c-0.193,0-0.373-0.235-0.373-0.525L124.2,185.36L124.2,185.36L124.2,185.36z"/>
							<g>
								<path id="cp2_3_" fill="#FFFF00" stroke="#000000" stroke-width="0.5" d="M131.273,185.36l0.799,0.003v0.872h0.584v-0.893
									l0.82,0.004v0.889h0.586v-0.893l0.819,0.002l-0.001,2.012c0,0.314-0.165,0.519-0.357,0.519h-2.877
									c-0.192,0-0.373-0.235-0.373-0.525l-0.002-1.989L131.273,185.36L131.273,185.36z"/>
							</g>
							<path d="M129.266,186.93c-0.018-0.627,0.586-0.634,0.578,0v1.537h-0.578V186.93"/>
							<path id="cp3_2_" d="M125.713,189.16c-0.002-0.606,0.559-0.618,0.551,0v1.187h-0.551V189.16"/>
							<g>
								<path id="cp3_3_" d="M132.807,189.16c-0.002-0.606,0.559-0.618,0.551,0v1.187h-0.551V189.16"/>
							</g>
						</g>
						<g id="castle3">
							<g id="castle_2_">
								<path fill="#FFFF00" d="M138.834,248.964c-2.549-3.985-1.327-7.687-1.322-7.721c0.004-0.032,2.652-2.011,5.244,1.868
									L138.834,248.964"/>
								<path fill="#FFFF00" stroke="#000000" stroke-width="0.5" d="M134.059,246.613l2.68,4.953l1.949-2.932
									c-2.465-3.728-1.029-7.134-0.976-7.188c0.04-0.066,2.423-2.012,4.81,1.396l1.951-2.944l-3.377-3.974l-7.039,10.687
									L134.059,246.613L134.059,246.613z"/>
								<path fill="#FFFF00" stroke="#000000" stroke-width="0.5" d="M136.621,251.783l7.959-12.025
									c0.168-0.254,0.473-0.212,0.676,0.092c0.204,0.303,0.232,0.758,0.064,1.012l-7.959,12.025
									c-0.168,0.252-0.471,0.213-0.676-0.091C136.482,252.492,136.453,252.036,136.621,251.783z"/>
								<path fill="#FFFF00" stroke="#000000" stroke-width="0.5" d="M139.5,247.391c-1.559-2.348-0.947-4.6-0.941-4.606
									c0,0,1.558-0.979,3.119,1.317L139.5,247.391"/>
								<path fill="#FFFF00" stroke="#000000" stroke-width="0.5" d="M132.527,245.18l7.631-11.527
									c0.16-0.243,0.443-0.219,0.626,0.055c0.183,0.271,0.2,0.695,0.041,0.938l-7.632,11.527c-0.159,0.242-0.44,0.219-0.625-0.055
									C132.385,245.846,132.366,245.422,132.527,245.18z"/>
								<path fill="#FFFF00" stroke="#000000" stroke-width="0.5" d="M133.357,245.938l7.3-11.024
									c0.153-0.231,0.43-0.199,0.612,0.073c0.185,0.273,0.209,0.687,0.055,0.918l-7.299,11.025c-0.154,0.232-0.43,0.2-0.613-0.072
									C133.229,246.584,133.205,246.17,133.357,245.938z"/>
								<path fill="#FFFF00" stroke="#000000" stroke-width="0.5" d="M130.707,234.914l0.577-0.869l0.411,0.613l0.422-0.635
									l-0.422-0.627l0.593-0.89l0.42,0.625l0.422-0.638l-0.421-0.628l0.591-0.894l0.95,1.42c0.15,0.224,0.127,0.547-0.012,0.756
									l-2.071,3.131c-0.14,0.209-0.38,0.236-0.517,0.033L130.707,234.914L130.707,234.914L130.707,234.914z"/>
								<path fill="#FFFF00" stroke="#000000" stroke-width="0.5" d="M134.15,233.531l3.182,4.35l-2.029,3.041l-2.918-4.748
									L134.15,233.531"/>
								<path id="cp1_4_" fill="#FFFF00" stroke="#000000" stroke-width="0.5" d="M133.098,239.363l1.707,2.357l-1.937,2.928
									l-1.593-2.533L133.098,239.363L133.098,239.363L133.098,239.363z"/>
								<g>
									<path id="cp1_5_" fill="#FFFF00" stroke="#000000" stroke-width="0.5" d="M138.082,231.835l1.706,2.356l-1.937,2.93
										l-1.592-2.534L138.082,231.835L138.082,231.835L138.082,231.835z"/>
								</g>
								<path id="cp2_4_" fill="#FFFF00" stroke="#000000" stroke-width="0.5" d="M129.727,240.88l0.564-0.849l0.413,0.613
									l0.412-0.621l-0.423-0.629l0.58-0.871l0.42,0.627l0.414-0.623l-0.422-0.629l0.578-0.871l0.95,1.418
									c0.149,0.222,0.129,0.541-0.006,0.746l-2.026,3.063c-0.137,0.205-0.375,0.229-0.513,0.026L129.727,240.88L129.727,240.88
									L129.727,240.88z"/>
								<g>
									<path id="cp2_5_" fill="#FFFF00" stroke="#000000" stroke-width="0.5" d="M134.71,233.352l0.563-0.849l0.414,0.614
										l0.412-0.622l-0.422-0.629l0.578-0.87l0.422,0.627l0.412-0.624l-0.422-0.629l0.579-0.872l0.95,1.42
										c0.148,0.221,0.129,0.541-0.006,0.745l-2.027,3.063c-0.135,0.205-0.374,0.229-0.512,0.025l-0.941-1.398l0,0L134.71,233.352
										L134.71,233.352z"/>
								</g>
								<path d="M134.039,236.594c-0.309-0.424,0.111-1.068,0.406-0.615l0.727,1.084l-0.406,0.613L134.039,236.594"/>
								<path id="cp3_4_" d="M132.59,241.947c-0.287-0.426,0.102-1.029,0.389-0.588l0.562,0.838l-0.388,0.586L132.59,241.947"/>
								<g transform="matrix(0.70460892,-0.70959585,0.70959585,0.70460892,-35.341459,275.10898)">
									<path id="cp3_5_" d="M167.129,163.436c-0.289-0.426,0.101-1.029,0.387-0.587l0.563,0.837l-0.389,0.586L167.129,163.436"/>
								</g>
							</g>
						</g>
						<g>
							<g id="castle_3_">
								<path fill="#FFFF00" d="M157.27,154.43c0.09-5.521,2.701-6.828,2.721-6.848c0.02-0.019,2.82,1.408,2.811,6.899
									L157.27,154.43"/>
								<path fill="#FFFF00" stroke="#000000" stroke-width="0.5" d="M155.016,147.69l-0.455,6.345l2.762,0.009
									c0.025-5.25,2.648-6.123,2.713-6.104c0.059-0.005,2.658,1.161,2.729,6.104h2.769l-0.5-6.394l-10.015,0.038v0.002H155.016z"
									/>
								<path fill="#FFFF00" stroke="#000000" stroke-width="0.5" d="M154.376,154.06h11.298c0.238,0,0.432,0.353,0.432,0.784
									c0,0.43-0.193,0.781-0.432,0.781h-11.298c-0.237,0-0.433-0.351-0.433-0.781C153.943,154.413,154.137,154.06,154.376,154.06z
									"/>
								<path fill="#FFFF00" stroke="#000000" stroke-width="0.5" d="M158.482,154.03c0.013-3.313,1.509-4.25,1.517-4.248
									c0,0,1.562,0.966,1.573,4.248H158.482"/>
								<path fill="#FFFF00" stroke="#000000" stroke-width="0.5" d="M154.616,145.05h10.829c0.229,0,0.416,0.318,0.416,0.705
									c0,0.387-0.188,0.705-0.416,0.705h-10.829c-0.229,0-0.415-0.316-0.415-0.705C154.201,145.368,154.387,145.05,154.616,145.05
									z"/>
								<path fill="#FFFF00" stroke="#000000" stroke-width="0.5" d="M154.843,146.47h10.359c0.218,0,0.396,0.316,0.396,0.704
									c0,0.388-0.178,0.705-0.396,0.705h-10.359c-0.218,0-0.397-0.316-0.397-0.705C154.445,146.787,154.625,146.47,154.843,146.47
									z"/>
								<path fill="#FFFF00" stroke="#000000" stroke-width="0.5" d="M158.189,135.88l0.817,0.002v0.872h0.597v-0.891l0.838,0.004
									v0.887h0.598v-0.891h0.839l-0.001,2.012c0,0.315-0.169,0.52-0.365,0.52h-2.941c-0.197,0-0.379-0.237-0.381-0.526V135.88
									L158.189,135.88L158.189,135.88z"/>
								<path fill="#FFFF00" stroke="#000000" stroke-width="0.5" d="M161.27,138.57l0.185,6.452l-2.868-0.016l0.189-6.452
									L161.27,138.57"/>
								<path id="cp1_6_" fill="#FFFF00" stroke="#000000" stroke-width="0.5" d="M157.77,141.56l0.088,3.478l-2.752,0.002
									l0.078-3.479L157.77,141.56L157.77,141.56L157.77,141.56z"/>
								<g>
									<path id="cp1_7_" fill="#FFFF00" stroke="#000000" stroke-width="0.5" d="M164.842,141.56l0.088,3.478l-2.75,0.002
										l0.076-3.479L164.842,141.56L164.842,141.56L164.842,141.56z"/>
								</g>
								<path id="cp2_6_" fill="#FFFF00" stroke="#000000" stroke-width="0.5" d="M154.676,139.04l0.799,0.003v0.872h0.586v-0.893
									l0.819,0.004v0.889h0.586v-0.892l0.82,0.002l-0.001,2.012c0,0.314-0.166,0.519-0.357,0.519h-2.878
									c-0.192,0-0.372-0.236-0.372-0.526L154.676,139.04L154.676,139.04L154.676,139.04z"/>
								<g>
									<path id="cp2_7_" fill="#FFFF00" stroke="#000000" stroke-width="0.5" d="M161.748,139.04l0.8,0.003v0.872h0.584v-0.893
										l0.82,0.004v0.889h0.586v-0.892l0.819,0.002v2.012c0,0.314-0.166,0.519-0.357,0.519h-2.877
										c-0.193,0-0.373-0.236-0.373-0.526L161.748,139.04L161.748,139.04L161.748,139.04z"/>
								</g>
								<path d="M159.742,140.61c-0.018-0.627,0.584-0.634,0.578,0v1.537h-0.578V140.61"/>
								<path id="cp3_6_" d="M156.189,142.84c-0.002-0.606,0.558-0.618,0.551,0v1.188h-0.551V142.84"/>
								<g>
									<path id="cp3_7_" d="M163.283,142.84c-0.002-0.606,0.558-0.618,0.551,0v1.188h-0.551V142.84"/>
								</g>
							</g>
							<g>
								<g>
									<g id="castle_4_">
										<path fill="#FFFF00" d="M193.068,154.43c-0.09-5.521-2.702-6.828-2.721-6.848c-0.019-0.019-2.82,1.408-2.812,6.899
											L193.068,154.43"/>
										<path fill="#FFFF00" stroke="#000000" stroke-width="0.5" d="M195.32,147.69l0.455,6.345l-2.76,0.009
											c-0.025-5.25-2.648-6.123-2.711-6.104c-0.061-0.005-2.66,1.161-2.729,6.104h-2.767l0.5-6.394l10.014,0.038v0.002H195.32z"
											/>
										<path fill="#FFFF00" stroke="#000000" stroke-width="0.5" d="M195.961,154.06h-11.297c-0.238,0-0.434,0.353-0.434,0.784
											c0,0.43,0.195,0.781,0.434,0.781h11.297c0.238,0,0.434-0.351,0.434-0.781C196.395,154.413,196.199,154.06,195.961,154.06z
											"/>
										<path fill="#FFFF00" stroke="#000000" stroke-width="0.5" d="M191.854,154.03c-0.012-3.313-1.508-4.25-1.516-4.248
											c0,0-1.561,0.966-1.572,4.248H191.854"/>
										<path fill="#FFFF00" stroke="#000000" stroke-width="0.5" d="M195.721,145.05h-10.83c-0.229,0-0.414,0.318-0.414,0.705
											c0,0.387,0.187,0.705,0.414,0.705h10.83c0.229,0,0.416-0.316,0.416-0.705C196.137,145.368,195.949,145.05,195.721,145.05z
											"/>
										<path fill="#FFFF00" stroke="#000000" stroke-width="0.5" d="M195.495,146.47h-10.358c-0.218,0-0.396,0.316-0.396,0.704
											c0,0.388,0.179,0.705,0.396,0.705h10.358c0.218,0,0.396-0.316,0.396-0.705C195.891,146.787,195.713,146.47,195.495,146.47
											z"/>
										<path fill="#FFFF00" stroke="#000000" stroke-width="0.5" d="M192.148,135.88l-0.818,0.002v0.872h-0.598v-0.891
											l-0.838,0.004v0.887h-0.598v-0.891h-0.838l0.001,2.012c0,0.315,0.169,0.52,0.366,0.52h2.939
											c0.198,0,0.381-0.237,0.381-0.526L192.148,135.88L192.148,135.88L192.148,135.88z"/>
										<path fill="#FFFF00" stroke="#000000" stroke-width="0.5" d="M189.068,138.57l-0.186,6.452l2.869-0.016l-0.189-6.452
											L189.068,138.57"/>
										<path id="cp1_8_" fill="#FFFF00" stroke="#000000" stroke-width="0.5" d="M192.568,141.56l-0.088,3.478l2.75,0.002
											l-0.078-3.479L192.568,141.56L192.568,141.56L192.568,141.56z"/>
										<g>
											<path id="cp1_9_" fill="#FFFF00" stroke="#000000" stroke-width="0.5" d="M185.496,141.56l-0.088,3.478l2.75,0.002
												l-0.078-3.479L185.496,141.56L185.496,141.56L185.496,141.56z"/>
										</g>
										<path id="cp2_8_" fill="#FFFF00" stroke="#000000" stroke-width="0.5" d="M195.662,139.04l-0.801,0.003v0.872h-0.584
											v-0.893l-0.819,0.004v0.889h-0.586v-0.892l-0.82,0.002l0.001,2.012c0,0.314,0.165,0.519,0.357,0.519h2.877
											c0.193,0,0.373-0.236,0.373-0.526L195.662,139.04L195.662,139.04L195.662,139.04z"/>
										<g>
											<path id="cp2_9_" fill="#FFFF00" stroke="#000000" stroke-width="0.5" d="M188.589,139.04l-0.799,0.003v0.872h-0.585
												v-0.893l-0.818,0.004v0.889H185.8v-0.892l-0.819,0.002v2.012c0,0.314,0.166,0.519,0.357,0.519h2.878
												c0.193,0,0.372-0.236,0.373-0.526V139.04L188.589,139.04L188.589,139.04z"/>
										</g>
										<path d="M190.594,140.61c0.018-0.627-0.584-0.634-0.576,0v1.537h0.576V140.61"/>
										<path id="cp3_8_" d="M194.148,142.84c0.002-0.606-0.559-0.618-0.551,0v1.188h0.551V142.84"/>
										<g>
											<path id="cp3_9_" d="M187.055,142.84c0.002-0.606-0.559-0.618-0.553,0v1.188h0.551L187.055,142.84"/>
										</g>
									</g>
									<g>
										<g id="castle_5_">
											<path fill="#FFFF00" d="M193.068,200.75c-0.09-5.521-2.702-6.828-2.721-6.848c-0.019-0.019-2.82,1.408-2.812,6.898
												L193.068,200.75"/>
											<path fill="#FFFF00" stroke="#000000" stroke-width="0.5" d="M195.32,194.01l0.455,6.345l-2.76,0.009
												c-0.025-5.249-2.648-6.122-2.711-6.104c-0.061-0.005-2.66,1.161-2.729,6.104h-2.767l0.5-6.393l10.014,0.038v0.001H195.32
												z"/>
											<path fill="#FFFF00" stroke="#000000" stroke-width="0.5" d="M195.961,200.38h-11.297c-0.238,0-0.434,0.353-0.434,0.784
												c0,0.43,0.195,0.781,0.434,0.781h11.297c0.238,0,0.434-0.353,0.434-0.781C196.395,200.732,196.199,200.38,195.961,200.38
												z"/>
											<path fill="#FFFF00" stroke="#000000" stroke-width="0.5" d="M191.854,200.35c-0.012-3.313-1.508-4.25-1.516-4.248
												c0,0-1.561,0.967-1.572,4.248H191.854"/>
											<path fill="#FFFF00" stroke="#000000" stroke-width="0.5" d="M195.721,191.37h-10.83c-0.229,0-0.414,0.318-0.414,0.705
												c0,0.388,0.187,0.705,0.414,0.705h10.83c0.229,0,0.416-0.316,0.416-0.705C196.137,191.688,195.949,191.37,195.721,191.37
												z"/>
											<path fill="#FFFF00" stroke="#000000" stroke-width="0.5" d="M195.495,192.79h-10.358c-0.218,0-0.396,0.316-0.396,0.704
												c0,0.388,0.179,0.705,0.396,0.705h10.358c0.218,0,0.396-0.316,0.396-0.705
												C195.891,193.106,195.713,192.79,195.495,192.79z"/>
											<path fill="#FFFF00" stroke="#000000" stroke-width="0.5" d="M192.148,182.2l-0.818,0.002v0.872h-0.598v-0.891
												l-0.838,0.004v0.887h-0.598v-0.891h-0.838l0.001,2.012c0,0.316,0.169,0.521,0.366,0.521h2.939
												c0.198,0,0.381-0.237,0.381-0.526L192.148,182.2L192.148,182.2L192.148,182.2z"/>
											<path fill="#FFFF00" stroke="#000000" stroke-width="0.5" d="M189.068,184.89l-0.186,6.452l2.869-0.016l-0.189-6.452
												L189.068,184.89"/>
											<path id="cp1_10_" fill="#FFFF00" stroke="#000000" stroke-width="0.5" d="M192.568,187.88l-0.088,3.478l2.75,0.002
												l-0.078-3.479L192.568,187.88L192.568,187.88L192.568,187.88z"/>
											<g>
												<path id="cp1_11_" fill="#FFFF00" stroke="#000000" stroke-width="0.5" d="M185.496,187.88l-0.088,3.478l2.75,0.002
													l-0.078-3.479L185.496,187.88L185.496,187.88L185.496,187.88z"/>
											</g>
											<path id="cp2_10_" fill="#FFFF00" stroke="#000000" stroke-width="0.5" d="M195.662,185.36l-0.801,0.003v0.872h-0.584
												v-0.893l-0.819,0.004v0.889h-0.586v-0.893l-0.82,0.002l0.001,2.012c0,0.314,0.165,0.519,0.357,0.519h2.877
												c0.193,0,0.373-0.235,0.373-0.525L195.662,185.36L195.662,185.36L195.662,185.36z"/>
											<g>
												<path id="cp2_11_" fill="#FFFF00" stroke="#000000" stroke-width="0.5" d="M188.589,185.36l-0.799,0.003v0.872h-0.585
													v-0.893l-0.818,0.004v0.889H185.8v-0.893l-0.819,0.002v2.012c0,0.314,0.166,0.519,0.357,0.519h2.878
													c0.193,0,0.372-0.235,0.373-0.525V185.36L188.589,185.36L188.589,185.36z"/>
											</g>
											<path d="M190.594,186.93c0.018-0.627-0.584-0.634-0.576,0v1.537h0.576V186.93"/>
											<path id="cp3_10_" d="M194.148,189.16c0.002-0.606-0.559-0.618-0.551,0v1.187h0.551V189.16"/>
											<g>
												<path id="cp3_11_" d="M187.055,189.16c0.002-0.606-0.559-0.618-0.553,0v1.187h0.551L187.055,189.16"/>
											</g>
										</g>
										<g id="castle3_1_">
											<g id="castle_6_">
												<path fill="#FFFF00" d="M181.027,248.964c2.549-3.985,1.326-7.687,1.322-7.721c-0.004-0.032-2.654-2.011-5.244,1.868
													L181.027,248.964"/>
												<path fill="#FFFF00" stroke="#000000" stroke-width="0.5" d="M185.803,246.613l-2.681,4.953l-1.95-2.932
													c2.465-3.728,1.03-7.134,0.977-7.188c-0.039-0.066-2.422-2.012-4.811,1.396l-1.949-2.944l3.377-3.974l7.039,10.687
													L185.803,246.613L185.803,246.613z"/>
												<path fill="#FFFF00" stroke="#000000" stroke-width="0.5" d="M183.241,251.783l-7.96-12.025
													c-0.168-0.254-0.473-0.212-0.676,0.092c-0.205,0.303-0.232,0.758-0.064,1.012l7.959,12.025
													c0.168,0.252,0.471,0.213,0.675-0.091S183.409,252.036,183.241,251.783z"/>
												<path fill="#FFFF00" stroke="#000000" stroke-width="0.5" d="M180.361,247.391c1.56-2.348,0.949-4.6,0.943-4.606
													c0,0-1.559-0.979-3.119,1.317L180.361,247.391"/>
												<path fill="#FFFF00" stroke="#000000" stroke-width="0.5" d="M187.334,245.18l-7.631-11.527
													c-0.161-0.243-0.443-0.219-0.625,0.055c-0.184,0.271-0.202,0.695-0.041,0.938l7.631,11.527
													c0.161,0.242,0.441,0.219,0.625-0.055C187.477,245.846,187.495,245.422,187.334,245.18z"/>
												<path fill="#FFFF00" stroke="#000000" stroke-width="0.5" d="M186.503,245.938l-7.299-11.024
													c-0.153-0.231-0.431-0.199-0.612,0.073c-0.184,0.273-0.208,0.687-0.054,0.918l7.299,11.025
													c0.154,0.232,0.429,0.2,0.613-0.072C186.633,246.584,186.656,246.17,186.503,245.938z"/>
												<path fill="#FFFF00" stroke="#000000" stroke-width="0.5" d="M189.154,234.914l-0.577-0.869l-0.412,0.613l-0.42-0.635
													l0.422-0.627l-0.592-0.89l-0.421,0.625l-0.42-0.638l0.42-0.628l-0.59-0.894l-0.951,1.42
													c-0.149,0.224-0.127,0.547,0.012,0.756l2.072,3.131c0.139,0.209,0.38,0.236,0.517,0.033L189.154,234.914
													L189.154,234.914L189.154,234.914z"/>
												<path fill="#FFFF00" stroke="#000000" stroke-width="0.5" d="M185.712,233.531l-3.183,4.35l2.029,3.041l2.918-4.748
													L185.712,233.531"/>
												<path id="cp1_12_" fill="#FFFF00" stroke="#000000" stroke-width="0.5" d="M186.764,239.363l-1.707,2.357l1.937,2.928
													l1.591-2.533L186.764,239.363L186.764,239.363L186.764,239.363z"/>
												<g>
													<path id="cp1_13_" fill="#FFFF00" stroke="#000000" stroke-width="0.5" d="M181.779,231.835l-1.707,2.356l1.938,2.93
														l1.592-2.534L181.779,231.835L181.779,231.835L181.779,231.835z"/>
												</g>
												<path id="cp2_12_" fill="#FFFF00" stroke="#000000" stroke-width="0.5" d="M190.135,240.88l-0.564-0.849l-0.412,0.613
													l-0.412-0.621l0.422-0.629l-0.58-0.871l-0.42,0.627l-0.413-0.623l0.423-0.629l-0.58-0.871l-0.951,1.418
													c-0.147,0.222-0.127,0.541,0.008,0.746l2.027,3.063c0.137,0.205,0.375,0.229,0.512,0.026L190.135,240.88L190.135,240.88
													L190.135,240.88z"/>
												<g>
													<path id="cp2_13_" fill="#FFFF00" stroke="#000000" stroke-width="0.5" d="M185.152,233.352l-0.565-0.849l-0.413,0.614
														l-0.412-0.622l0.422-0.629l-0.578-0.87l-0.422,0.627l-0.412-0.624l0.422-0.629l-0.58-0.872l-0.95,1.42
														c-0.147,0.221-0.128,0.541,0.007,0.745l2.027,3.063c0.136,0.205,0.373,0.229,0.512,0.025l0.941-1.398l0,0
														L185.152,233.352z"/>
												</g>
												<path d="M185.822,236.594c0.31-0.424-0.111-1.068-0.406-0.615l-0.727,1.084l0.406,0.613L185.822,236.594"/>
												<path id="cp3_12_" d="M187.271,241.947c0.287-0.426-0.102-1.029-0.389-0.588l-0.563,0.838l0.389,0.586L187.271,241.947"
													/>
												<g transform="matrix(-1,0,0,1,479.79195,0)">
													<path id="cp3_13_" d="M382.272,234.396c0.289-0.426-0.1-1.029-0.388-0.588l-0.563,0.838l0.388,0.586L382.272,234.396"
														/>
												</g>
											</g>
										</g>
										<g id="quina">
											<path fill="#003399" d="M155.091,202.406v0.005c0,2.212,0.566,4.228,1.476,5.688c0.91,1.467,2.164,2.379,3.535,2.379
												c1.377,0,2.629-0.905,3.535-2.365c0.905-1.459,1.467-3.473,1.467-5.693v-10.768l-9.994-0.012L155.091,202.406"/>
											<ellipse fill="#FFFFFF" cx="157.383" cy="195.735" rx="0.99" ry="1.486"/>
											<ellipse fill="#FFFFFF" cx="162.928" cy="195.742" rx="0.991" ry="1.486"/>
											<ellipse fill="#FFFFFF" cx="160.15" cy="199.735" rx="0.99" ry="1.486"/>
											<ellipse fill="#FFFFFF" cx="157.383" cy="203.916" rx="0.99" ry="1.486"/>
											<ellipse fill="#FFFFFF" cx="162.922" cy="203.905" rx="0.991" ry="1.486"/>
										</g>
										<g>
											<g id="quina_1_">
												<path fill="#003399" d="M155.091,176.39v0.005c0,2.212,0.566,4.227,1.476,5.689c0.91,1.467,2.164,2.377,3.535,2.377
													c1.377,0,2.629-0.905,3.535-2.365c0.905-1.458,1.467-3.472,1.467-5.693v-10.768l-9.994-0.012L155.091,176.39"/>
												<ellipse fill="#FFFFFF" cx="157.383" cy="169.719" rx="0.99" ry="1.486"/>
												<ellipse fill="#FFFFFF" cx="162.928" cy="169.726" rx="0.991" ry="1.486"/>
												<ellipse fill="#FFFFFF" cx="160.15" cy="173.719" rx="0.99" ry="1.486"/>
												<ellipse fill="#FFFFFF" cx="157.383" cy="177.9" rx="0.99" ry="1.486"/>
												<ellipse fill="#FFFFFF" cx="162.922" cy="177.889" rx="0.991" ry="1.486"/>
											</g>
										</g>
										<g>
											<g id="quina_2_">
												<path fill="#003399" d="M141.225,202.406v0.005c0,2.212,0.566,4.228,1.476,5.688c0.909,1.467,2.163,2.379,3.534,2.379
													c1.379,0,2.629-0.905,3.535-2.365c0.905-1.459,1.469-3.473,1.469-5.693v-10.768l-9.995-0.012L141.225,202.406"/>
												<ellipse fill="#FFFFFF" cx="143.516" cy="195.735" rx="0.991" ry="1.486"/>
												<ellipse fill="#FFFFFF" cx="149.063" cy="195.742" rx="0.99" ry="1.486"/>
												<ellipse fill="#FFFFFF" cx="146.284" cy="199.735" rx="0.991" ry="1.486"/>
												<ellipse fill="#FFFFFF" cx="143.516" cy="203.916" rx="0.991" ry="1.486"/>
												<ellipse fill="#FFFFFF" cx="149.057" cy="203.905" rx="0.989" ry="1.486"/>
											</g>
										</g>
										<g>
											<g id="quina_3_">
												<path fill="#003399" d="M168.921,202.406v0.005c0,2.212,0.565,4.228,1.476,5.688c0.91,1.467,2.164,2.379,3.535,2.379
													c1.377,0,2.629-0.905,3.534-2.365c0.906-1.459,1.468-3.473,1.468-5.693v-10.768l-9.994-0.012L168.921,202.406"/>
												<ellipse fill="#FFFFFF" cx="171.213" cy="195.735" rx="0.991" ry="1.486"/>
												<ellipse fill="#FFFFFF" cx="176.758" cy="195.742" rx="0.991" ry="1.486"/>
												<ellipse fill="#FFFFFF" cx="173.98" cy="199.735" rx="0.99" ry="1.486"/>
												<ellipse fill="#FFFFFF" cx="171.213" cy="203.916" rx="0.991" ry="1.486"/>
												<ellipse fill="#FFFFFF" cx="176.752" cy="203.905" rx="0.99" ry="1.486"/>
											</g>
										</g>
										<g>
											<g id="quina_4_">
												<path fill="#003399" d="M155.091,228.189v0.006c0,2.211,0.566,4.227,1.476,5.688c0.91,1.468,2.164,2.377,3.535,2.377
													c1.377,0,2.629-0.903,3.535-2.364c0.905-1.459,1.467-3.474,1.467-5.693v-10.768l-9.994-0.013L155.091,228.189"/>
												<ellipse fill="#FFFFFF" cx="157.383" cy="221.519" rx="0.99" ry="1.486"/>
												<ellipse fill="#FFFFFF" cx="162.928" cy="221.526" rx="0.991" ry="1.486"/>
												<ellipse fill="#FFFFFF" cx="160.15" cy="225.519" rx="0.99" ry="1.486"/>
												<ellipse fill="#FFFFFF" cx="157.383" cy="229.7" rx="0.99" ry="1.486"/>
												<ellipse fill="#FFFFFF" cx="162.922" cy="229.689" rx="0.991" ry="1.486"/>
											</g>
										</g>
									</g>
								</g>
							</g>
						</g>
					</g>
				</g>
			</g>
		</g>
	</g>
</g>
</svg>
