<?xml version="1.0" encoding="utf-8"?>
<!-- Generator: Adobe Illustrator 24.0.3, SVG Export Plug-In . SVG Version: 6.00 Build 0)  -->
<svg version="1.1" id="레이어_1" xmlns="http://www.w3.org/2000/svg" xmlns:xlink="http://www.w3.org/1999/xlink" x="0px"
	 y="0px" viewBox="0 0 40 40" style="enable-background:new 0 0 40 40;" xml:space="preserve">
<style type="text/css">
	.st0{fill:#FFFFFF;}
	.st1{fill:none;}
</style>
<path class="st0" d="M33.1,0.9c-0.9,0.4-1.8,1.1-2.7,1.8l-6.9,6.9c-0.2,0.2-0.7,0.4-0.9,0.4H3.6c-0.5,0-0.9,0.2-1.1,0.4l-2.2,2.4
	c-0.2,0.4,0,1.1,0.5,1.3l13.8,4.5c0.4,0.2,0.7,0.7,0.2,1.1l-4.9,4.9l-7.6,0.2c-0.4,0-0.7,0.2-1.1,0.4l-0.9,0.9
	c-0.4,0.4-0.2,0.9,0.2,1.1l7.1,3.8c0.7,0.2,1.1,0.9,1.3,1.3l3.8,7.1c0.2,0.4,0.9,0.4,1.1,0.2l0.9-0.9c0.2-0.2,0.4-0.7,0.4-1.1
	l0.2-7.6l4.9-4.9c0.4-0.4,0.9-0.2,1.1,0.2l4.4,13.8c0.2,0.4,0.9,0.7,1.3,0.4l2.4-2.2c0.2-0.2,0.4-0.7,0.4-1.1V17.1
	c0-0.4,0.2-0.7,0.5-0.9l6.9-6.9c0.7-0.7,1.3-1.6,1.8-2.4c0.9-1.6,1.6-4.2-0.2-5.8C37.1-0.7,34.7,0,33.1,0.9 M36.7,6.7l-1.8-1.8
	l-1.6-1.6c1.8-1.8,3.3,0,3.3,0S38.4,5.1,36.7,6.7"/>
</svg>
