<?xml version="1.0" encoding="utf-8"?>
<!-- Generator: Adobe Illustrator 24.0.3, SVG Export Plug-In . SVG Version: 6.00 Build 0)  -->
<svg version="1.1" id="레이어_1" xmlns="http://www.w3.org/2000/svg" xmlns:xlink="http://www.w3.org/1999/xlink" x="0px"
	 y="0px" viewBox="0 0 40 40" style="enable-background:new 0 0 40 40;" xml:space="preserve">
<style type="text/css">
	.st0{fill:#FFFFFF;}
	.st1{fill:none;}
</style>
<g>
	<path class="st0" d="M39.3,36.7h-0.7v-19c0-0.4-0.2-0.7-0.7-0.7h-3.8v19.6h-1.3V14.2c0-0.9-0.7-1.5-1.5-1.5H18.7
		c-0.9,0-1.5,0.7-1.5,1.5v22.5h-1.3V25.4h-2.2c-0.2,0-0.7,0.2-0.7,0.7v10.6h-0.7c-0.4,0-0.7,0.5-0.7,0.9v1.6c0,0.4,0.2,0.9,0.7,0.9
		h27.1c0.5,0,0.7-0.5,0.7-0.9v-1.6C40,37.2,39.8,36.7,39.3,36.7 M25.1,17.1c0-0.4,0.2-0.7,0.7-0.7h1.5c0.4,0,0.7,0.2,0.7,0.7v1.8
		c0,0.4-0.2,0.7-0.7,0.7h-1.5c-0.5,0-0.7-0.2-0.7-0.7V17.1z M25.1,21.7c0-0.4,0.2-0.7,0.7-0.7h1.5c0.4,0,0.7,0.2,0.7,0.7v1.8
		c0,0.4-0.2,0.7-0.7,0.7h-1.5c-0.5,0-0.7-0.2-0.7-0.7V21.7z M20.9,17.1c0-0.4,0.2-0.7,0.7-0.7h1.6c0.4,0,0.7,0.2,0.7,0.7v1.8
		c0,0.4-0.2,0.7-0.7,0.7h-1.6c-0.4,0-0.7-0.2-0.7-0.7V17.1z M20.9,21.7c0-0.4,0.2-0.7,0.7-0.7h1.6c0.4,0,0.7,0.2,0.7,0.7v1.8
		c0,0.4-0.2,0.7-0.7,0.7h-1.6c-0.4,0-0.7-0.2-0.7-0.7V21.7z M20.9,26.1c0-0.5,0.2-0.7,0.7-0.7h1.6c0.4,0,0.7,0.2,0.7,0.7v1.8
		c0,0.4-0.2,0.7-0.7,0.7h-1.6c-0.4,0-0.7-0.2-0.7-0.7V26.1z M28,36.7h-7.3v-3.8c0-0.4,0.5-0.9,0.7-0.9h5.8c0.4,0,0.7,0.4,0.7,0.9
		v3.8H28z"/>
	<path class="st0" d="M18.9,3.6l5.8-3.1c0,0,3.1-1.5,5.1,0.7c0,0,1.1,1.3-0.4,2.4S11.4,14,9.2,15.3c0,0-0.2,0.2-0.5,0.2l-3.3,0.2
		c-0.2,0-0.7,0-0.9-0.2l-4.2-3.8c0,0-0.7-0.7,0-1.8s2-0.4,2-0.4l3.8,1.3c0.2,0,0.4,0,0.7,0l3.3-1.8c0.2,0,0.2-0.4,0-0.4L3.4,5.1
		c-0.2-0.2-0.2-0.4,0-0.7l1.8-1.5c0.2-0.2,0.4-0.2,0.7-0.2L18,3.8C18.3,3.8,18.7,3.8,18.9,3.6"/>
</g>
</svg>
