<?xml version="1.0" encoding="utf-8"?>
<!-- Generator: Adobe Illustrator 24.0.3, SVG Export Plug-In . SVG Version: 6.00 Build 0)  -->
<svg version="1.1" id="레이어_1" xmlns="http://www.w3.org/2000/svg" xmlns:xlink="http://www.w3.org/1999/xlink" x="0px"
	 y="0px" viewBox="0 0 40 40" style="enable-background:new 0 0 40 40;" xml:space="preserve">
<style type="text/css">
	.st0{fill:#FFFFFF;}
	.st1{fill:none;}
</style>
<path class="st0" d="M40,16.1c0-1.8-1.1-2.9-2.4-2.9h-1.3l-0.9-7.7C34.9,2.4,32.7,0,30.2,0H20H9.8C7.1,0,4.9,2.4,4.7,5.5l-0.9,7.7
	H2.4c-1.3,0-2.4,1.1-2.4,2.9c0,1.3,0.9,2.6,2,2.9L1.6,29.6c0,1.5,0.9,2.9,2.2,3.1v3.1c0,0,0,0.2,0,0.5c0,2,1.6,3.8,3.3,3.8
	c1.8,0,3.3-1.8,3.3-3.8v-3.5H20h9.8v3.5c0,2,1.6,3.8,3.3,3.8c1.8,0,3.3-1.8,3.3-3.8c0-0.2,0-0.2,0-0.5v-3.1c1.3-0.2,2.2-1.6,2.2-3.1
	L38.3,19C39.1,18.6,40,17.5,40,16.1z M9.6,28.1C9.6,28.1,9.6,28.1,9.6,28.1C9.5,28.1,9.5,28.1,9.6,28.1C9.5,28.1,9.5,28.1,9.6,28.1
	c-1.6,0-2.9-1.3-2.9-2.9c0-1.6,1.3-2.8,2.8-2.9c0,0,0,0,0,0c0,0,0,0,0,0c0,0,0,0,0,0c1.6,0,2.9,1.3,2.9,2.9
	C12.4,26.8,11.1,28.1,9.6,28.1z M20,14.4C9.3,14.1,8,13.3,8,13.3l0.9-6.8C8.9,5.1,10,4,11.1,4H20h8.9c1.1,0,2.2,1.1,2.5,2.4l0.7,6.8
	C32,13.3,30.7,14.1,20,14.4z M30.7,28c-0.1,0-0.2,0-0.3,0c0,0,0,0,0,0c0,0,0,0,0,0c-1.6,0-2.9-1.3-2.9-2.9c0-1.6,1.3-2.9,2.9-2.9
	c0,0,0,0,0,0c0,0,0,0,0,0c0.1,0,0.2,0,0.3,0c1.4,0.2,2.5,1.4,2.5,2.8C33.3,26.7,32.2,27.9,30.7,28z"/>
</svg>
