<?xml version="1.0" encoding="utf-8"?>
<!-- Generator: Adobe Illustrator 24.0.3, SVG Export Plug-In . SVG Version: 6.00 Build 0)  -->
<svg version="1.1" id="레이어_1" xmlns="http://www.w3.org/2000/svg" xmlns:xlink="http://www.w3.org/1999/xlink" x="0px"
	 y="0px" viewBox="0 0 40 40" style="enable-background:new 0 0 40 40;" xml:space="preserve">
<style type="text/css">
	.st0{fill:#FFFFFF;}
	.st1{fill:none;}
</style>
<path class="st0" d="M38.7,35.6h-0.9v-28c0-0.4-0.4-0.9-0.9-0.9h-5.1v28.9h-2V2.2c0-1.3-0.9-2.2-2-2.2H9.9C8.8,0,8,1.1,8,2.2v33.3H6
	V19.1H2.9C2.4,19.1,2,19.6,2,20v15.6H1.1C0.4,35.6,0,36,0,36.7v2.2C0,39.6,0.4,40,1.1,40h37.8c0.7,0,1.1-0.4,1.1-1.1v-2.2
	C39.8,36,39.4,35.6,38.7,35.6 M18.8,6.4c0-0.4,0.4-0.9,0.9-0.9h2.2c0.4,0,0.9,0.4,0.9,0.9v2.4c0,0.4-0.4,0.9-0.9,0.9h-2.2
	c-0.4,0-0.9-0.4-0.9-0.9L18.8,6.4L18.8,6.4z M18.8,13.1c0-0.4,0.4-0.9,0.9-0.9h2.2c0.4,0,0.9,0.4,0.9,0.9v2.4c0,0.4-0.4,0.9-0.9,0.9
	h-2.2c-0.4,0-0.9-0.4-0.9-0.9L18.8,13.1L18.8,13.1z M12.8,6.4c0-0.4,0.4-0.9,0.9-0.9h2.2c0.4,0,0.9,0.4,0.9,0.9v2.4
	c0,0.4-0.4,0.9-0.9,0.9h-2.2c-0.4,0-0.9-0.4-0.9-0.9V6.4z M12.8,13.1c0-0.4,0.4-0.9,0.9-0.9h2.2c0.4,0,0.9,0.4,0.9,0.9v2.4
	c0,0.4-0.4,0.9-0.9,0.9h-2.2c-0.4,0-0.9-0.4-0.9-0.9V13.1z M12.8,19.8c0-0.4,0.4-0.9,0.9-0.9h2.2c0.4,0,0.9,0.4,0.9,0.9v2.4
	c0,0.4-0.4,0.9-0.9,0.9h-2.2c-0.4,0-0.9-0.4-0.9-0.9V19.8z M23,35.6H12.6V30c0-0.7,0.4-1.1,1.1-1.1h8.4c0.7,0,1.1,0.4,1.1,1.1v5.6
	H23z"/>
</svg>
