<?xml version="1.0" encoding="utf-8"?>
<!-- Generator: Adobe Illustrator 24.0.3, SVG Export Plug-In . SVG Version: 6.00 Build 0)  -->
<svg version="1.1" id="레이어_1" xmlns="http://www.w3.org/2000/svg" xmlns:xlink="http://www.w3.org/1999/xlink" x="0px"
	 y="0px" viewBox="0 0 290 40" style="enable-background:new 0 0 290 40;" xml:space="preserve">
<style type="text/css">
	.st0{fill:#FFFFFF;}
	.st1{fill:none;}
</style>
<path class="st0" d="M111.6,17.3c-1.3,0.2-4.9,1.6-4.9,1.6c-0.4,0.4-1.3-0.4-0.2-1.3c1.1-0.9,4.9-2.9,4.9-2.9l-2.2-6.5
	c0-0.2,0-0.4,0.2-0.4l0.9-0.2c0.2,0,0.4,0,0.7,0.2l3.3,4.7c0.2,0.4,0.7,0.4,1.1,0.4c2.9-1.3,7.8-2.2,7.8-2.2
	c1.8-0.2,2.2,1.6,2.2,1.6l1.1,2.5c-3.8-0.2-9.7,1.3-9.7,1.3c1.5,2.7,2.9,2.5,3.3,2.5c0.2,0,0.4-0.2,0.7-0.2c1.1-0.2,4.2-0.7,6.9-0.7
	c2.9,0.2,7.5,2.9,7.5,2.9c-15.1,1.3-25.7,4.7-25.7,4.7L111.6,17.3z M139.9,24.3c-2.4,3.6-6.2,11-7.8,14.4c-0.4,0.9-1.1,1.3-1.8,1.3
	h-29.2c-0.7,0-1.3-0.9-1.1-1.8c0.4-2.3,1.8-6.3,5.3-7.9c6-2.7,13.7-4.9,34.1-7C139.9,23.4,140.1,24,139.9,24.3 M111.1,34.6
	c0-1.1-0.7-2.3-1.6-2.3c-0.9,0-1.5,0.9-1.5,2.3c0,1.1,0.7,2.2,1.5,2.2C110.5,36.6,111.1,35.7,111.1,34.6 M116.4,33.5
	c0-1.1-0.7-2.3-1.6-2.3c-0.9,0-1.6,0.9-1.6,2.3c0,1.1,0.7,2.3,1.6,2.3C115.8,35.7,116.4,34.6,116.4,33.5 M121.5,32.8
	c0-1.1-0.7-2.3-1.5-2.3s-1.5,0.9-1.5,2.3c0,1.1,0.7,2.2,1.5,2.2S121.5,34.1,121.5,32.8 M133.3,4.3c-0.5-0.4-0.9-0.7-1.6-0.7
	c-0.4,0-1.1,0.2-1.5,0.4c-0.2,0.2-0.4,0.2-0.7,0.4l-0.2,0.2l-0.4-0.2c-0.2-0.2-0.4-0.2-0.7-0.4c-0.4-0.2-1.1-0.4-1.5-0.4
	c-0.5,0-1.1,0.2-1.6,0.7s-0.9,0.9-1.1,1.3c0.4-0.4,0.9-0.7,1.3-0.7c0.5-0.2,0.9-0.2,1.3,0c0.4,0,0.9,0.2,1.1,0.4
	c0.2,0.2,0.4,0.2,0.7,0.4l0.4,0.4c0.2,0.2,0.4,0.2,0.7,0l0.4-0.4c0.2-0.2,0.5-0.2,0.7-0.4c0.4-0.2,0.9-0.4,1.1-0.4
	c0.4,0,0.9,0,1.3,0c0.4,0.2,0.9,0.4,1.3,0.7C134.2,5.2,133.7,4.5,133.3,4.3 M137.5,1.6c-0.2-0.4-0.7-0.7-1.1-0.7
	c-0.4-0.2-0.9-0.2-1.1,0c-0.2,0-0.4,0.2-0.7,0.2l-0.2,0.2l-0.2-0.2c-0.2-0.2-0.2-0.4-0.5-0.4c-0.4-0.2-0.7-0.4-1.1-0.7
	c-0.4,0-0.9,0-1.1,0c-0.4,0.2-0.7,0.4-0.9,0.9c0.4-0.2,0.7-0.2,1.1-0.2c0.4,0,0.7,0,0.9,0.2c0.2,0.2,0.7,0.4,0.9,0.7
	c0.2,0.2,0.2,0.2,0.4,0.4l0.4,0.4c0.2,0.2,0.2,0.2,0.4,0.2l0.4-0.2c0.2,0,0.2-0.2,0.4-0.2s0.7-0.2,0.9-0.2s0.7,0.2,0.9,0.4
	c0.2,0.2,0.7,0.4,0.9,0.9C138.1,2.2,137.9,1.8,137.5,1.6"/>
<path class="st0" d="M238.7,35.6h-0.9v-28c0-0.4-0.4-0.9-0.9-0.9h-5.1v28.9h-2V2.2c0-1.3-0.9-2.2-2-2.2h-17.9c-1.1,0-2,1.1-2,2.2
	v33.3h-2V19.1h-3.1c-0.4,0-0.9,0.4-0.9,0.9v15.6h-0.9c-0.7,0-1.1,0.4-1.1,1.1v2.2c0,0.7,0.4,1.1,1.1,1.1h37.8c0.7,0,1.1-0.4,1.1-1.1
	v-2.2C239.8,36,239.4,35.6,238.7,35.6 M218.8,6.4c0-0.4,0.4-0.9,0.9-0.9h2.2c0.4,0,0.9,0.4,0.9,0.9v2.4c0,0.4-0.4,0.9-0.9,0.9h-2.2
	c-0.4,0-0.9-0.4-0.9-0.9L218.8,6.4L218.8,6.4z M218.8,13.1c0-0.4,0.4-0.9,0.9-0.9h2.2c0.4,0,0.9,0.4,0.9,0.9v2.4
	c0,0.4-0.4,0.9-0.9,0.9h-2.2c-0.4,0-0.9-0.4-0.9-0.9L218.8,13.1L218.8,13.1z M212.8,6.4c0-0.4,0.4-0.9,0.9-0.9h2.2
	c0.4,0,0.9,0.4,0.9,0.9v2.4c0,0.4-0.4,0.9-0.9,0.9h-2.2c-0.4,0-0.9-0.4-0.9-0.9V6.4z M212.8,13.1c0-0.4,0.4-0.9,0.9-0.9h2.2
	c0.4,0,0.9,0.4,0.9,0.9v2.4c0,0.4-0.4,0.9-0.9,0.9h-2.2c-0.4,0-0.9-0.4-0.9-0.9V13.1z M212.8,19.8c0-0.4,0.4-0.9,0.9-0.9h2.2
	c0.4,0,0.9,0.4,0.9,0.9v2.4c0,0.4-0.4,0.9-0.9,0.9h-2.2c-0.4,0-0.9-0.4-0.9-0.9V19.8z M223,35.6h-10.4V30c0-0.7,0.4-1.1,1.1-1.1h8.4
	c0.7,0,1.1,0.4,1.1,1.1v5.6H223z"/>
<path class="st0" d="M83.1,0.9c-0.9,0.4-1.8,1.1-2.7,1.8l-6.9,6.9c-0.2,0.2-0.7,0.4-0.9,0.4H53.6c-0.5,0-0.9,0.2-1.1,0.4l-2.2,2.4
	c-0.2,0.4,0,1.1,0.5,1.3l13.8,4.5c0.4,0.2,0.7,0.7,0.2,1.1l-4.9,4.9l-7.6,0.2c-0.4,0-0.7,0.2-1.1,0.4l-0.9,0.9
	c-0.4,0.4-0.2,0.9,0.2,1.1l7.1,3.8c0.7,0.2,1.1,0.9,1.3,1.3l3.8,7.1c0.2,0.4,0.9,0.4,1.1,0.2l0.9-0.9c0.2-0.2,0.4-0.7,0.4-1.1
	l0.2-7.6l4.9-4.9c0.4-0.4,0.9-0.2,1.1,0.2l4.4,13.8c0.2,0.4,0.9,0.7,1.3,0.4l2.4-2.2c0.2-0.2,0.4-0.7,0.4-1.1V17.1
	c0-0.4,0.2-0.7,0.5-0.9l6.9-6.9c0.7-0.7,1.3-1.6,1.8-2.4c0.9-1.6,1.6-4.2-0.2-5.8C87.1-0.7,84.7,0,83.1,0.9 M86.7,6.7l-1.8-1.8
	l-1.6-1.6c1.8-1.8,3.3,0,3.3,0S88.4,5.1,86.7,6.7"/>
<g>
	<path class="st0" d="M189.3,36.7h-0.7v-19c0-0.4-0.2-0.7-0.7-0.7h-3.8v19.6h-1.3V14.2c0-0.9-0.7-1.5-1.5-1.5h-12.6
		c-0.9,0-1.5,0.7-1.5,1.5v22.5h-1.3V25.4h-2.2c-0.2,0-0.7,0.2-0.7,0.7v10.6h-0.7c-0.4,0-0.7,0.5-0.7,0.9v1.6c0,0.4,0.2,0.9,0.7,0.9
		h27.1c0.5,0,0.7-0.5,0.7-0.9v-1.6C190,37.2,189.8,36.7,189.3,36.7 M175.1,17.1c0-0.4,0.2-0.7,0.7-0.7h1.5c0.4,0,0.7,0.2,0.7,0.7
		v1.8c0,0.4-0.2,0.7-0.7,0.7h-1.5c-0.5,0-0.7-0.2-0.7-0.7V17.1z M175.1,21.7c0-0.4,0.2-0.7,0.7-0.7h1.5c0.4,0,0.7,0.2,0.7,0.7v1.8
		c0,0.4-0.2,0.7-0.7,0.7h-1.5c-0.5,0-0.7-0.2-0.7-0.7V21.7z M170.9,17.1c0-0.4,0.2-0.7,0.7-0.7h1.6c0.4,0,0.7,0.2,0.7,0.7v1.8
		c0,0.4-0.2,0.7-0.7,0.7h-1.6c-0.4,0-0.7-0.2-0.7-0.7V17.1z M170.9,21.7c0-0.4,0.2-0.7,0.7-0.7h1.6c0.4,0,0.7,0.2,0.7,0.7v1.8
		c0,0.4-0.2,0.7-0.7,0.7h-1.6c-0.4,0-0.7-0.2-0.7-0.7V21.7z M170.9,26.1c0-0.5,0.2-0.7,0.7-0.7h1.6c0.4,0,0.7,0.2,0.7,0.7v1.8
		c0,0.4-0.2,0.7-0.7,0.7h-1.6c-0.4,0-0.7-0.2-0.7-0.7V26.1z M178,36.7h-7.3v-3.8c0-0.4,0.5-0.9,0.7-0.9h5.8c0.4,0,0.7,0.4,0.7,0.9
		v3.8H178z"/>
	<path class="st0" d="M168.9,3.6l5.8-3.1c0,0,3.1-1.5,5.1,0.7c0,0,1.1,1.3-0.4,2.4s-18,10.4-20.2,11.7c0,0-0.2,0.2-0.5,0.2l-3.3,0.2
		c-0.2,0-0.7,0-0.9-0.2l-4.2-3.8c0,0-0.7-0.7,0-1.8c0.7-1.1,2-0.4,2-0.4l3.8,1.3c0.2,0,0.4,0,0.7,0l3.3-1.8c0.2,0,0.2-0.4,0-0.4
		l-6.7-3.5c-0.2-0.2-0.2-0.4,0-0.7l1.8-1.5c0.2-0.2,0.4-0.2,0.7-0.2L168,3.8C168.3,3.8,168.7,3.8,168.9,3.6"/>
</g>
<path class="st0" d="M290,16.1c0-1.8-1.1-2.9-2.4-2.9h-1.3l-0.9-7.7c-0.4-3.1-2.7-5.5-5.1-5.5H270h-10.2c-2.7,0-4.9,2.4-5.1,5.5
	l-0.9,7.7h-1.3c-1.3,0-2.4,1.1-2.4,2.9c0,1.3,0.9,2.6,2,2.9l-0.4,10.6c0,1.5,0.9,2.9,2.2,3.1v3.1c0,0,0,0.2,0,0.5
	c0,2,1.6,3.8,3.3,3.8c1.8,0,3.3-1.8,3.3-3.8v-3.5h9.6h9.8v3.5c0,2,1.6,3.8,3.3,3.8c1.8,0,3.3-1.8,3.3-3.8c0-0.2,0-0.2,0-0.5v-3.1
	c1.3-0.2,2.2-1.6,2.2-3.1L288.3,19C289.1,18.6,290,17.5,290,16.1z M259.6,28.1C259.6,28.1,259.6,28.1,259.6,28.1
	C259.5,28.1,259.5,28.1,259.6,28.1C259.5,28.1,259.5,28.1,259.6,28.1c-1.6,0-2.9-1.3-2.9-2.9c0-1.6,1.3-2.8,2.8-2.9c0,0,0,0,0,0
	c0,0,0,0,0,0c0,0,0,0,0,0c1.6,0,2.9,1.3,2.9,2.9C262.4,26.8,261.1,28.1,259.6,28.1z M270,14.4c-10.7-0.2-12-1.1-12-1.1l0.9-6.8
	c0-1.3,1.1-2.4,2.2-2.4h8.9h8.9c1.1,0,2.2,1.1,2.5,2.4l0.7,6.8C282,13.3,280.7,14.1,270,14.4z M280.7,28c-0.1,0-0.2,0-0.3,0
	c0,0,0,0,0,0c0,0,0,0,0,0c-1.6,0-2.9-1.3-2.9-2.9c0-1.6,1.3-2.9,2.9-2.9c0,0,0,0,0,0c0,0,0,0,0,0c0.1,0,0.2,0,0.3,0
	c1.4,0.2,2.5,1.4,2.5,2.8C283.3,26.7,282.2,27.9,280.7,28z"/>
<g>
	<polyline class="st1" points="20,16.2 32.4,16.2 32.4,8.7 20,8.7 	"/>
	<line class="st1" x1="7.6" y1="8.7" x2="7.6" y2="16.2"/>
	<path class="st1" d="M13.1,26.4c0,0,0-0.1,0-0.1C13.1,26.3,13.1,26.3,13.1,26.4z"/>
	<path class="st0" d="M31.1,36.5H20h0H8.9c-0.9,0-1.8,0.7-1.8,1.3c0,0.7,0.7,1.3,1.8,1.3H20h0h11.1c0.9,0,1.8-0.7,1.8-1.3
		C32.9,36.9,32,36.5,31.1,36.5z"/>
	<path class="st0" d="M36.7,34.2c2-0.2,3.3-1.6,3.3-3.1L38.2,6.7c-0.2-2-2.2-3.6-4.7-3.6H26V2.2C26,0.9,24.7,0,23.1,0H20h0h-2.9
		c-1.6,0-2.9,1.1-2.9,2.2v0.7H6.7C4,3.1,2,4.7,1.8,6.7L0,31.1c-0.2,1.6,1.3,2.9,3.3,3.1L0.5,38c-0.5,0.7-0.2,1.6,0.7,1.8
		C1.4,40,1.6,40,2,40c0.7,0,1.1-0.2,1.6-0.7l3.8-5.1H20h0h12.7l3.8,5.1c0.2,0.4,0.9,0.7,1.6,0.7c0.2,0,0.7,0,0.9-0.2
		c0.9-0.4,1.1-1.1,0.7-1.8L36.7,34.2z M13.1,26.3c0,0,0,0.1,0,0.1c-0.3,1.7-1.8,3-3.5,3c-2,0-3.6-1.6-3.6-3.6c0-2,1.6-3.6,3.6-3.6
		c2,0,3.6,1.6,3.6,3.6C13.2,25.9,13.1,26.1,13.1,26.3z M7.6,16.2V8.7h24.9v7.6H7.6z M30.4,29.4c-2,0-3.6-1.6-3.6-3.6
		c0-2,1.6-3.6,3.6-3.6c2,0,3.6,1.6,3.6,3.6C34,27.8,32.4,29.4,30.4,29.4z"/>
</g>
</svg>
