<?xml version="1.0" encoding="utf-8"?>
<!-- Generator: Adobe Illustrator 24.0.3, SVG Export Plug-In . SVG Version: 6.00 Build 0)  -->
<svg version="1.1" id="레이어_1" xmlns="http://www.w3.org/2000/svg" xmlns:xlink="http://www.w3.org/1999/xlink" x="0px"
	 y="0px" viewBox="0 0 40 40" style="enable-background:new 0 0 40 40;" xml:space="preserve">
<style type="text/css">
	.st0{fill:#FFFFFF;}
	.st1{fill:none;}
</style>
<g>
	<polyline class="st1" points="20,16.2 32.4,16.2 32.4,8.7 20,8.7 	"/>
	<path class="st1" d="M13.1,26.4c0,0,0-0.1,0-0.1C13.1,26.3,13.1,26.3,13.1,26.4z"/>
	<path class="st0" d="M31.1,36.5H20h0H8.9c-0.9,0-1.8,0.7-1.8,1.3c0,0.7,0.7,1.3,1.8,1.3H20h0h11.1c0.9,0,1.8-0.7,1.8-1.3
		C32.9,36.9,32,36.5,31.1,36.5z"/>
	<path class="st0" d="M36.7,34.2c2-0.2,3.3-1.6,3.3-3.1L38.2,6.7c-0.2-2-2.2-3.6-4.7-3.6H26V2.2C26,0.9,24.7,0,23.1,0H20h0h-2.9
		c-1.6,0-2.9,1.1-2.9,2.2v0.7H6.7C4,3.1,2,4.7,1.8,6.7L0,31.1c-0.2,1.6,1.3,2.9,3.3,3.1L0.5,38c-0.5,0.7-0.2,1.6,0.7,1.8
		C1.4,40,1.6,40,2,40c0.7,0,1.1-0.2,1.6-0.7l3.8-5.1H20h0h12.7l3.8,5.1c0.2,0.4,0.9,0.7,1.6,0.7c0.2,0,0.7,0,0.9-0.2
		c0.9-0.4,1.1-1.1,0.7-1.8L36.7,34.2z M13.1,26.3c0,0,0,0.1,0,0.1c-0.3,1.7-1.8,3-3.5,3c-2,0-3.6-1.6-3.6-3.6c0-2,1.6-3.6,3.6-3.6
		c2,0,3.6,1.6,3.6,3.6C13.2,25.9,13.1,26.1,13.1,26.3z M7.6,16.2V8.7h24.9v7.6H7.6z M30.4,29.4c-2,0-3.6-1.6-3.6-3.6
		c0-2,1.6-3.6,3.6-3.6c2,0,3.6,1.6,3.6,3.6C34,27.8,32.4,29.4,30.4,29.4z"/>
</g>
</svg>
