<?xml version="1.0" encoding="utf-8"?>
<!-- Generator: Adobe Illustrator 24.0.3, SVG Export Plug-In . SVG Version: 6.00 Build 0)  -->
<svg version="1.1" id="Layer_1" xmlns="http://www.w3.org/2000/svg" xmlns:xlink="http://www.w3.org/1999/xlink" x="0px" y="0px"
	 viewBox="0 0 100 100" enable-background="new 0 0 100 100" xml:space="preserve">
<path fill="#FE3474" d="M50,0C22.388,0,0,22.387,0,50s22.388,50,50,50s50-22.387,50-50S77.612,0,50,0z M56.828,28.483h5.709V28.03
	h-5.709v-7.873h9.574v3.71h-5.71v0.453h5.71v7.873h-9.574V28.483z M45.191,28.483H50.9V28.03h-5.709v-7.873h9.573v3.71h-5.709v0.453
	h5.709v7.873h-9.573V28.483z M33.598,20h9.574v4.025h-5.621v4.142h5.621v4.025h-9.574V20z M66.453,75.316L50,80l-16.394-4.742
	l-1.113-12.53h8.023l0.585,6.323L50,71.452l8.841-2.46l0.995-10.245H32.143l-0.703-8.08h28.982l0.878-8.14H30.678l-0.702-7.963
	h40.049L66.453,75.316z"/>
</svg>
