<?xml version="1.0" encoding="utf-8"?>
<!-- Generator: Adobe Illustrator 24.0.3, SVG Export Plug-In . SVG Version: 6.00 Build 0)  -->
<svg version="1.1" id="Layer_1" xmlns="http://www.w3.org/2000/svg" xmlns:xlink="http://www.w3.org/1999/xlink" x="0px" y="0px"
	 viewBox="0 0 100 100" enable-background="new 0 0 100 100" xml:space="preserve">
<path fill="#FE3474" d="M50,0C22.388,0,0,22.387,0,50s22.388,50,50,50s50-22.387,50-50S77.612,0,50,0z M50.606,20h4.146h0.041
	l2.684,4.446L60.159,20h0.043h4.145v12.246h-4.145v-5.816l-2.725,4.095l-2.725-4.095v5.816h-4.146V20z M37.509,20h11.289v4.043
	h-3.549v8.203h-4.145v-8.203h-3.596V20z M27.896,32.246h-4.146V20h4.146v4.043h3.705V20h4.144v12.246h-4.144v-4.102h-3.705V32.246z
	 M69.382,42.428H38.747l0.705,8.231h29.342l-2.381,24.813L49.999,80l-16.426-4.646L32.397,62.83h8.174l0.469,6.351l8.959,2.411
	l8.975-2.528l0.883-10.29H32.044l-2.189-24.284h40.291L69.382,42.428z M76.251,32.188l-9.945,0.059V20h4.146v8.145h5.799V32.188z"/>
</svg>
