<?xml version="1.0" encoding="utf-8"?>
<!-- Generator: Adobe Illustrator 24.0.3, SVG Export Plug-In . SVG Version: 6.00 Build 0)  -->
<svg version="1.1" id="Layer_1" xmlns="http://www.w3.org/2000/svg" xmlns:xlink="http://www.w3.org/1999/xlink" x="0px" y="0px"
	 viewBox="0 0 100 100" enable-background="new 0 0 100 100" xml:space="preserve">
<g>
	<path fill="#FE3474" d="M56.562,66.668c-1.079-0.031-1.755,0.376-2.306,1.749h3.724C58.058,67.62,57.882,66.707,56.562,66.668z"/>
	<path fill="#FE3474" d="M50,0C22.387,0,0,22.386,0,50s22.387,50,50,50c27.615,0,50-22.386,50-50S77.615,0,50,0z M54.042,18
		c0,0-2.889,5.971,2.954,10.556c5.843,4.585,11.707,1.351,12.524-0.248c0,0-1.848,4.904-8.316,4.798
		c-6.47-0.106-8.992-6.505-9.135-7.145C51.927,25.322,50.505,22.301,54.042,18z M45.409,20.148c0,0-4.641,9.592,4.745,16.955
		c9.385,7.365,18.805,2.17,20.117-0.398c0,0-2.968,7.879-13.358,7.706C46.522,44.24,42.469,33.964,42.241,32.937
		C42.013,31.909,39.728,27.057,45.409,20.148z M35.206,23.592c0,0-6.396,13.22,6.539,23.37c12.936,10.151,25.919,2.991,27.73-0.551
		c0,0-4.091,10.858-18.413,10.623C36.74,56.798,31.153,42.635,30.839,41.218C30.524,39.802,27.376,33.113,35.206,23.592z
		 M26.529,75.907C26.023,77.818,24.157,78,24.157,78h-2.565l0.622-2.333h0.816c0.893,0,1.166-1.088,1.166-1.088l1.555-7.076h2.722
		C28.473,67.503,27.034,73.995,26.529,75.907z M28.707,66.843h-2.8c0.076-0.156,0.544-2.334,0.544-2.334h2.8L28.707,66.843z
		 M40.758,71.663l-0.58,2.513c0.436,0.005-0.003,0.014-0.003,0.014l0.003-0.014c-0.434-0.006-1.737-0.006-5.214,0.014
		c-6.958,0.039-5.402-5.599-5.402-5.599s0.777-6.958,6.92-6.53c6.142,0.428,4.238,6.03,4.238,6.03l-1.284,3.572H40.758z
		 M49.31,74.189c0,0-0.445-0.014-4.489-0.014c-4.043,0-2.936-3.603-2.936-3.603l1.146-6.064h2.547c0,0-0.837,4.064-1.108,5.793
		c-0.271,1.731,0.7,1.691,0.7,1.691h2.08l1.633-7.484h2.371L49.31,74.189z M60.525,67.698l-0.427,2.487h-6.331
		c-0.166,1.592,1.025,1.671,1.025,1.671h4.917l-0.564,2.333c0,0-2.507-0.02-4.547,0c-2.043,0.02-4.2-1.088-3.345-4.432
		c0.856-3.343,2.08-5.229,6.045-5.249C61.266,64.489,60.525,67.698,60.525,67.698z M63.229,74.189H60.58l2.182-9.681h5.501
		c0,0,1.963-0.153,2.273,2.392h-5.792L63.229,74.189z M71.839,71.916l-0.447,2.273h-2.856l0.562-2.391l-1.341-4.179l2.936-0.058
		l0.408,1.671l4.042-6.046h3.266L71.839,71.916z"/>
	<path fill="#FE3474" d="M35.859,64.509c-3.109-0.192-3.615,4.433-3.615,4.433s-0.817,2.761,2.604,2.8h1.982l1.205-4.238
		C38.036,67.503,38.97,64.705,35.859,64.509z"/>
</g>
</svg>
