<?xml version="1.0" encoding="utf-8"?>
<!-- Generator: Adobe Illustrator 24.0.3, SVG Export Plug-In . SVG Version: 6.00 Build 0)  -->
<svg version="1.1" id="Layer_1" xmlns="http://www.w3.org/2000/svg" xmlns:xlink="http://www.w3.org/1999/xlink" x="0px" y="0px"
	 viewBox="0 0 100 100" enable-background="new 0 0 100 100" xml:space="preserve">
<path fill="#FE3474" d="M50,0C22.386,0,0,22.386,0,50s22.386,50,50,50c27.614,0,50-22.386,50-50S77.614,0,50,0z M31.68,71.255
	c0,0-7.918,0.135-11.68-7.883l6.96-4.054c0,0,2.509,5.302,6.271,4.41c3.764-0.89,3.724-2.427,3.804-5.26
	c0.082-2.832-0.014-29.241-0.014-29.241h8.633v29.619C45.653,58.847,46.247,72.117,31.68,71.255z M79.926,59.926
	c-0.77,6.798-4.249,11.168-14.688,11.369c-10.439,0.203-14.971-8.698-14.971-8.698l6.918-4.048c0,0,2.549,5.262,8.659,5.221
	c6.11-0.041,5.625-4.491,5.625-4.491s0.931-3.197-8.093-6.232c-9.023-3.034-12.503-10.56-9.469-17.844
	c3.035-7.283,12.787-6.474,12.787-6.474s7.202,0,10.803,6.838l-6.636,4.209c0,0-2.468-4.774-6.798-3.479
	c-4.33,1.294-2.531,5.784-1.335,6.757c1.295,1.052,2.832,1.901,7.729,3.723C75.353,48.596,80.694,53.128,79.926,59.926z"/>
</svg>
