<?xml version="1.0" encoding="utf-8"?>
<!-- Generator: Adobe Illustrator 24.0.3, SVG Export Plug-In . SVG Version: 6.00 Build 0)  -->
<svg version="1.1" id="Layer_1" xmlns="http://www.w3.org/2000/svg" xmlns:xlink="http://www.w3.org/1999/xlink" x="0px" y="0px"
	 viewBox="0 0 100 100" enable-background="new 0 0 100 100" xml:space="preserve">
<g>
	<path fill="#FE3474" d="M73.467,29.788H22.34v28.735h39.797V48.465c0-0.404,0.326-0.73,0.729-0.73h10.601V29.788z"/>
	<path fill="#FE3474" d="M50,0C22.388,0,0,22.387,0,50s22.388,50,50,50s50-22.387,50-50S77.612,0,50,0z M80,71.752
		c0,0.404-0.326,0.73-0.729,0.73H62.866c-0.403,0-0.729-0.326-0.729-0.73v-5.607h-8.158c0.063,0.855,0.188,2.412,0.271,2.832
		c0.118,0.586-0.116,0.703,0.823,1.564c0.939,0.861,1.683,1.41,1.683,1.41s0.744,0.531-0.392,0.531c-1.135,0-8.46,0-8.46,0
		s-7.325,0-8.46,0c-1.136,0-0.392-0.531-0.392-0.531s0.743-0.549,1.683-1.41c0.94-0.861,0.705-0.979,0.822-1.564
		c0.085-0.42,0.208-1.977,0.271-2.832h-20.4c-0.789,0-1.429-0.641-1.429-1.43V28.946c0-0.789,0.64-1.429,1.429-1.429h52.949
		c0.789,0,1.429,0.64,1.429,1.429v18.788h3.464c0.403,0,0.729,0.326,0.729,0.73V71.752z"/>
	<polygon fill="#FE3474" points="73.467,49.451 63.062,49.451 63.062,58.523 63.062,66.145 63.062,70.803 79.075,70.803 
		79.075,49.451 75.807,49.451 	"/>
</g>
</svg>
