<?xml version="1.0" encoding="utf-8"?>
<!-- Generator: Adobe Illustrator 24.0.3, SVG Export Plug-In . SVG Version: 6.00 Build 0)  -->
<svg version="1.1" id="Layer_1" xmlns="http://www.w3.org/2000/svg" xmlns:xlink="http://www.w3.org/1999/xlink" x="0px" y="0px"
	 viewBox="0 0 100 100" enable-background="new 0 0 100 100" xml:space="preserve">
<g>
	<rect x="43.648" y="32.206" fill="#FE3474" width="3.125" height="15.416"/>
	<path fill="#FE3474" d="M58.359,62.479c0,1.607-0.814,2.412-2.45,2.412c-1.634,0-2.451-0.805-2.451-2.412v-9.177h-2.796v9.116
		c0,1.688,0.435,2.927,1.308,3.719c0.871,0.789,2.184,1.185,3.939,1.185c1.757,0,3.071-0.396,3.941-1.185
		c0.871-0.792,1.308-2.03,1.308-3.719v-9.116h-2.799V62.479z"/>
	<path fill="#FE3474" d="M37.299,42.477c0,1.797-0.915,2.697-2.744,2.697c-1.828,0-2.741-0.9-2.741-2.697V32.206h-3.131v10.202
		c0,1.889,0.487,3.276,1.463,4.16c0.976,0.883,2.445,1.326,4.409,1.326c1.965,0,3.435-0.443,4.41-1.326
		c0.975-0.884,1.463-2.271,1.463-4.16V32.206h-3.129V42.477z"/>
	<polygon fill="#FE3474" points="70.983,53.303 68.371,58.367 65.817,53.303 62.718,53.303 66.689,60.476 62.718,67.077 
		65.615,67.077 68.23,62.317 70.781,67.077 73.882,67.077 69.91,60.331 73.882,53.303 	"/>
	<path fill="#FE3474" d="M50,0C22.386,0,0,22.386,0,50s22.386,50,50,50c27.614,0,50-22.386,50-50S77.614,0,50,0z M61.91,78.04
		c-9.99,0-18.091-8.101-18.091-18.09c0-0.969,0.098-1.913,0.244-2.841c-1.872,0.656-3.877,1.031-5.973,1.031
		C28.101,58.141,20,50.04,20,40.05c0-9.989,8.101-18.09,18.091-18.09s18.091,8.101,18.091,18.09c0,0.969-0.098,1.913-0.245,2.841
		c1.873-0.656,3.877-1.031,5.974-1.031C71.899,41.859,80,49.96,80,59.95C80,69.939,71.899,78.04,61.91,78.04z"/>
</g>
</svg>
