<?xml version="1.0" encoding="utf-8"?>
<!-- Generator: Adobe Illustrator 24.0.3, SVG Export Plug-In . SVG Version: 6.00 Build 0)  -->
<svg version="1.1" id="Layer_1" xmlns="http://www.w3.org/2000/svg" xmlns:xlink="http://www.w3.org/1999/xlink" x="0px" y="0px"
	 viewBox="0 0 100 100" enable-background="new 0 0 100 100" xml:space="preserve">
<g>
	<path fill="#FE3474" d="M77.749,37.4c-0.305-0.101-0.617-0.058-0.935-0.061c0,0.339,0,0.658,0,1.024
		c0.311-0.023,0.609-0.027,0.901-0.074c0.237-0.037,0.341-0.19,0.349-0.419C78.072,37.636,77.969,37.472,77.749,37.4z"/>
	<path fill="#FE3474" d="M77.333,36.204c-1.455-0.018-2.35,1.233-2.352,2.317c-0.002,1.265,1.058,2.343,2.314,2.345
		c1.294,0.001,2.344-1.033,2.351-2.316C79.652,37.244,78.633,36.22,77.333,36.204z M78.636,40.002c-0.215,0-0.406,0.006-0.596-0.005
		c-0.034-0.002-0.074-0.065-0.096-0.108c-0.172-0.352-0.342-0.707-0.507-1.063c-0.04-0.087-0.086-0.13-0.188-0.123
		c-0.141,0.01-0.281,0.003-0.438,0.003c0,0.437,0,0.858,0,1.289c-0.193,0-0.369,0-0.56,0c0-1.002,0-2.006,0-3.03
		c0.09,0,0.183-0.002,0.275,0c0.439,0.01,0.88,0.019,1.319,0.035c0.087,0.003,0.175,0.034,0.259,0.062
		c0.368,0.125,0.546,0.367,0.547,0.736c0.001,0.372-0.188,0.646-0.531,0.773c-0.048,0.019-0.096,0.034-0.155,0.056
		C78.188,39.082,78.404,39.527,78.636,40.002z"/>
	<path fill="#FE3474" d="M50,0C22.386,0,0,22.386,0,50s22.386,50,50,50c27.614,0,50-22.386,50-50S77.614,0,50,0z M60.769,42.068
		c0.382-1.38,0.926-2.688,1.792-3.842c0.377-0.503,0.814-0.947,1.327-1.314c1.291-0.928,2.63-0.963,4.009-0.212
		c0.982,0.535,1.702,1.337,2.288,2.271c0.176,0.279,0.348,0.562,0.53,0.858c0.688-1.373,1.369-2.735,2.051-4.097
		c0.011,0.001,0.021,0.001,0.031,0.002c0.045,0.264,0.091,0.527,0.134,0.791c0.145,0.875,0.29,1.75,0.429,2.626
		c0.014,0.091,0.005,0.203-0.036,0.283c-0.652,1.263-1.312,2.521-1.971,3.781c-0.021,0.041-0.046,0.08-0.071,0.122
		c-0.175-0.29-0.337-0.577-0.517-0.854c-0.595-0.917-1.336-1.685-2.312-2.204c-1.28-0.683-2.511-0.52-3.661,0.288
		c-1.187,0.834-1.976,1.993-2.484,3.336c-0.513,1.354-0.888,2.748-0.992,4.197c-0.096,1.312-0.11,2.624,0.141,3.925
		c0.005,0.025,0.005,0.052,0.007,0.077c-0.016,0.005-0.03,0.009-0.046,0.014c-0.144-0.37-0.3-0.735-0.428-1.11
		c-0.589-1.718-0.817-3.487-0.741-5.301C60.3,44.475,60.438,43.258,60.769,42.068z M58.47,55.962
		c-0.067,1.188-0.287,2.342-0.74,3.442c-0.632,1.536-1.554,2.856-2.945,3.805c-0.891,0.605-1.882,0.932-2.954,1.023
		c-1.209,0.104-2.376-0.044-3.483-0.563c-1.109-0.521-1.989-1.317-2.718-2.291c-0.634-0.849-1.086-1.792-1.427-2.791
		c-0.009-0.024-0.011-0.051-0.02-0.095c0.942-0.391,1.883-0.78,2.838-1.177c0.057,0.13,0.105,0.243,0.156,0.357
		c0.41,0.918,0.943,1.75,1.752,2.368c0.834,0.64,1.78,0.887,2.815,0.662c0.713-0.154,1.223-0.627,1.643-1.199
		c0.656-0.895,1.019-1.907,1.181-2.999c0.11-0.752,0.122-1.506,0.058-2.262c-0.067-0.793-0.228-1.566-0.578-2.289
		c-0.618-1.271-1.646-2.003-3.016-2.292c-0.847-0.178-1.704-0.119-2.559-0.132c-0.067-0.001-0.136-0.001-0.204-0.004
		c-0.016,0-0.029-0.009-0.067-0.02c0-0.533-0.002-1.064,0.003-1.594c0-0.053,0.033-0.108,0.061-0.157
		c1.57-2.717,3.142-5.434,4.713-8.149c0.041-0.072,0.081-0.145,0.136-0.243c-0.077-0.004-0.131-0.01-0.186-0.01
		c-1.864,0-3.729,0.001-5.594-0.004c-0.129,0-0.189,0.05-0.26,0.149c-0.331,0.474-0.426,1.034-0.584,1.568
		c-1.829,6.156-3.651,12.315-5.476,18.472c-0.448,1.513-0.896,3.023-1.342,4.536c-0.036,0.122-0.074,0.191-0.227,0.193
		c-0.158,0.002-0.189-0.077-0.226-0.195c-1.503-5.04-3.009-10.08-4.514-15.12c-0.219-0.732-0.439-1.465-0.66-2.197
		c-0.005-0.019-0.014-0.038-0.039-0.102c-0.031,0.085-0.053,0.132-0.067,0.182c-1.07,3.583-2.142,7.167-3.212,10.75
		c-0.646,2.164-1.291,4.327-1.935,6.491c-0.036,0.122-0.077,0.192-0.229,0.19c-0.145-0.002-0.185-0.062-0.22-0.182
		c-2.269-7.671-4.541-15.342-6.813-23.012c-0.496-1.678-0.993-3.355-1.489-5.033c-0.015-0.05-0.027-0.101-0.044-0.165
		c0.062-0.003,0.113-0.008,0.164-0.008c1.103,0,2.206,0.002,3.309-0.003c0.131-0.001,0.189,0.035,0.228,0.166
		c1.656,5.649,3.318,11.298,4.98,16.946c0.014,0.048,0.034,0.094,0.067,0.185c0.04-0.118,0.068-0.193,0.091-0.269
		c1.104-3.738,2.208-7.477,3.307-11.216c0.033-0.112,0.028-0.251-0.005-0.363c-0.518-1.76-1.043-3.517-1.566-5.273
		c-0.015-0.05-0.026-0.1-0.043-0.165c0.064-0.003,0.114-0.008,0.165-0.008c1.103,0,2.206,0.003,3.31-0.004
		c0.136,0,0.185,0.046,0.223,0.172c1.657,5.649,3.319,11.298,4.98,16.946c0.014,0.047,0.035,0.092,0.085,0.139
		c0.056-0.182,0.112-0.363,0.166-0.546c1.595-5.424,3.189-10.847,4.784-16.27c0.041-0.14,0.05-0.334,0.146-0.401
		c0.104-0.073,0.291-0.033,0.442-0.033c4.354-0.002,8.709-0.001,13.064-0.001c0.076,0,0.154,0,0.25,0c0,0.26,0,0.499,0,0.739
		c-0.002,0.32,0.058,0.657-0.022,0.957c-0.08,0.298-0.3,0.561-0.46,0.837c-1.535,2.646-3.071,5.292-4.607,7.938
		c-0.031,0.054-0.06,0.108-0.101,0.178c0.053,0.023,0.092,0.046,0.135,0.06c2.379,0.795,3.923,2.428,4.772,4.756
		C58.41,52.83,58.56,54.38,58.47,55.962z M73.542,59.115c-0.773,1.521-1.82,2.816-3.184,3.851c-2.048,1.554-4.777,1.574-6.894,0.044
		c-1.121-0.81-1.972-1.863-2.696-3.027c-0.784-1.262-1.328-2.628-1.756-4.044c-0.007-0.023-0.008-0.05,0.008-0.083
		c0.026,0.042,0.053,0.085,0.078,0.127c0.44,0.722,0.842,1.47,1.329,2.157c0.767,1.082,1.72,1.986,2.898,2.616
		c1.69,0.904,3.418,0.973,5.179,0.184c0.853-0.381,1.568-0.941,2.246-1.57c0.909-0.846,1.572-1.867,2.182-2.933
		c0.033-0.058,0.067-0.115,0.121-0.205c0.074,0.386,0.141,0.734,0.208,1.083c0.102,0.536,0.206,1.071,0.305,1.608
		C73.577,58.984,73.569,59.061,73.542,59.115z M77.308,41.223c-1.457-0.002-2.675-1.225-2.674-2.686
		c0-1.483,1.201-2.688,2.679-2.686c1.497,0.002,2.689,1.196,2.688,2.692C79.998,40.019,78.785,41.225,77.308,41.223z"/>
</g>
</svg>
