<?xml version="1.0" encoding="utf-8"?>
<!-- Generator: Adobe Illustrator 22.1.0, SVG Export Plug-In . SVG Version: 6.00 Build 0)  -->
<svg version="1.1" id="Layer_1" xmlns="http://www.w3.org/2000/svg" xmlns:xlink="http://www.w3.org/1999/xlink" x="0px" y="0px"
	 viewBox="0 0 48.823 114.166" enable-background="new 0 0 48.823 114.166" xml:space="preserve">
<g>
	<rect x="-1404.19" y="-485.962" fill="#FFFFFF" width="100" height="100"/>
	<g>
		<g>
			<path fill="#000113" d="M-1337.228-395.962h-33.925c-12.703,0-23.038-10.335-23.038-23.038v-33.925
				c0-12.703,10.334-23.038,23.038-23.038h33.925c12.703,0,23.038,10.335,23.038,23.038V-419
				C-1314.189-406.297-1324.524-395.962-1337.228-395.962z M-1371.152-468.649c-8.67,0-15.724,7.054-15.724,15.724V-419
				c0,8.67,7.054,15.724,15.724,15.724h33.925c8.67,0,15.724-7.054,15.724-15.724v-33.925c0-8.67-7.054-15.724-15.724-15.724
				H-1371.152z"/>
		</g>
		<g>
			<path fill="#000113" d="M-1354.327-415.032c-11.502,0-20.86-9.358-20.86-20.86c0-11.503,9.358-20.861,20.86-20.861
				c11.503,0,20.861,9.358,20.861,20.861C-1333.466-424.39-1342.824-415.032-1354.327-415.032z M-1354.327-449.439
				c-7.47,0-13.547,6.077-13.547,13.547c0,7.47,6.077,13.547,13.547,13.547s13.548-6.077,13.548-13.547
				C-1340.779-443.362-1346.857-449.439-1354.327-449.439z"/>
		</g>
		<path fill="#000113" d="M-1328.184-457.322c0,2.726-2.21,4.936-4.935,4.936c-2.727,0-4.937-2.21-4.937-4.936
			c0-2.726,2.21-4.936,4.937-4.936C-1330.394-462.257-1328.184-460.047-1328.184-457.322z"/>
	</g>
</g>
<g>
	<rect x="-1285.785" y="-485.962" fill="#FFFFFF" width="100" height="100"/>
	<path fill="#000113" d="M-1232.048-385.962v-36.515h-11.918v-14.2h11.918v-12.932c0,0,0.467-14.531,14.795-16.047
		c0,0,7.448-0.689,14.746,0v12.951h-9.098c0,0-5.855,0.001-5.855,5.856c0,5.855,0,9.988,0,9.988h14.122l-2.342,14.191h-11.849
		v36.708H-1232.048z"/>
</g>
<g>
	<rect x="-1167.379" y="-485.962" fill="#FFFFFF" width="100" height="100"/>
	<g>
		<path fill="#000113" d="M-1077.724-422.875c-0.3,6.583-3.288,13.474-14.048,14.155c-10.76,0.682-42.443,0.598-51.111,0
			c-8.667-0.598-13.45-5.296-14.048-14.155s-0.598-18.21,0-26.387c0.598-8.177,4.882-13.044,14.048-13.857
			c9.167-0.813,44.137-0.697,51.708,0c7.572,0.697,12.852,5.296,13.451,13.857C-1077.126-440.701-1077.425-429.458-1077.724-422.875
			z"/>
		<polygon fill="#FFFFFF" points="-1124.95,-448.173 -1124.95,-423.665 -1105.023,-435.919 		"/>
	</g>
</g>
<g>
	<rect x="-1048.975" y="-485.962" fill="#FFFFFF" width="100" height="100"/>
	<path fill="#000113" d="M-958.975-461.199c-5.846,2.749-8.794,2.299-8.794,2.299c5.996-3.948,6.546-8.795,6.546-8.795
		c-4.997,3.148-10.586,3.94-10.586,3.94v0.003c-2.987-3.155-7.213-5.126-11.9-5.126c-9.052,0-16.39,7.338-16.39,16.39
		c0,1.23,0.14,2.428,0.397,3.581c-21.858-0.853-33.314-17.173-33.314-17.173c-7.063,13.992,4.797,22.12,4.797,22.12
		c-3.997-0.133-6.929-1.866-6.929-1.866c-0.4,13.326,12.637,16.124,12.637,16.124c-2.421,0.933-7.174,0.267-7.174,0.267
		c3.73,11.193,14.924,11.46,14.924,11.46c-8.261,8.794-24.212,6.872-24.212,6.872c8.873,6.082,19.903,9.097,31.425,7.732
		c24.646-2.918,42.424-24.8,40.481-49.326C-961.778-455.979-958.975-461.199-958.975-461.199z"/>
</g>
<g>
	<rect x="-1202.507" y="-205.962" fill="#FFFFFF" width="100" height="100"/>
	<g>
		<g>
			<path fill="#000113" d="M-1135.544-115.962h-33.925c-12.703,0-23.038-10.336-23.038-23.038v-33.925
				c0-12.703,10.334-23.037,23.038-23.037h33.925c12.703,0,23.038,10.334,23.038,23.037V-139
				C-1112.506-126.298-1122.841-115.962-1135.544-115.962z M-1169.469-188.649c-8.67,0-15.724,7.055-15.724,15.725V-139
				c0,8.671,7.054,15.724,15.724,15.724h33.925c8.67,0,15.724-7.053,15.724-15.724v-33.925c0-8.67-7.054-15.725-15.724-15.725
				H-1169.469z"/>
		</g>
		<g>
			<path fill="#000113" d="M-1152.644-135.032c-11.502,0-20.86-9.357-20.86-20.859c0-11.504,9.358-20.861,20.86-20.861
				c11.503,0,20.861,9.357,20.861,20.861C-1131.783-144.39-1141.141-135.032-1152.644-135.032z M-1152.644-169.439
				c-7.47,0-13.547,6.077-13.547,13.548c0,7.469,6.077,13.547,13.547,13.547s13.548-6.078,13.548-13.547
				C-1139.096-163.362-1145.174-169.439-1152.644-169.439z"/>
		</g>
		<path fill="#000113" d="M-1126.5-177.321c0,2.726-2.21,4.936-4.935,4.936c-2.727,0-4.937-2.21-4.937-4.936
			c0-2.727,2.21-4.936,4.937-4.936C-1128.71-182.257-1126.5-180.048-1126.5-177.321z"/>
	</g>
</g>
<g>
	<rect x="-1084.102" y="-205.962" fill="#FFFFFF" width="100" height="100"/>
	<path fill="#000113" d="M-1030.365-105.962v-36.516h-11.918v-14.199h11.918v-12.933c0,0,0.467-14.531,14.795-16.047
		c0,0,7.449-0.688,14.746,0v12.95h-9.098c0,0-5.855,0.001-5.855,5.856c0,5.855,0,9.988,0,9.988h14.123l-2.342,14.19h-11.85v36.709
		H-1030.365z"/>
</g>
<g>
	<rect x="-965.974" y="-205.962" fill="#FFFFFF" width="100" height="100"/>
	<path fill="#000113" d="M-875.974-181.199c-5.846,2.749-8.795,2.299-8.795,2.299c5.996-3.948,6.547-8.795,6.547-8.795
		c-4.998,3.147-10.586,3.94-10.586,3.94v0.004c-2.988-3.156-7.213-5.127-11.9-5.127c-9.053,0-16.391,7.338-16.391,16.391
		c0,1.23,0.141,2.428,0.397,3.58c-21.857-0.852-33.314-17.172-33.314-17.172c-7.063,13.991,4.797,22.119,4.797,22.119
		c-3.996-0.133-6.928-1.865-6.928-1.865c-0.4,13.326,12.637,16.123,12.637,16.123c-2.422,0.934-7.174,0.268-7.174,0.268
		c3.73,11.193,14.924,11.459,14.924,11.459c-8.262,8.795-24.213,6.873-24.213,6.873c8.873,6.081,19.904,9.096,31.426,7.732
		c24.644-2.919,42.424-24.801,40.48-49.326C-878.778-175.979-875.974-181.199-875.974-181.199z"/>
</g>
<g>
	<circle fill="#FFFFFF" cx="-1354.19" cy="-289.962" r="60"/>
	<path fill="#000113" d="M-1337.228-249.962h-33.925c-12.703,0-23.038-10.335-23.038-23.038v-33.925
		c0-12.703,10.334-23.038,23.038-23.038h33.925c12.703,0,23.038,10.335,23.038,23.038V-273
		C-1314.189-260.297-1324.524-249.962-1337.228-249.962z M-1371.152-322.649c-8.67,0-15.724,7.054-15.724,15.724V-273
		c0,8.67,7.054,15.724,15.724,15.724h33.925c8.67,0,15.724-7.054,15.724-15.724v-33.925c0-8.67-7.054-15.724-15.724-15.724
		H-1371.152z"/>
	<path fill="#000113" d="M-1354.327-269.032c-11.502,0-20.86-9.358-20.86-20.86c0-11.503,9.358-20.861,20.86-20.861
		c11.503,0,20.861,9.358,20.861,20.861C-1333.466-278.39-1342.824-269.032-1354.327-269.032z M-1354.327-303.439
		c-7.47,0-13.547,6.077-13.547,13.547c0,7.47,6.077,13.547,13.547,13.547s13.548-6.077,13.548-13.547
		C-1340.779-297.362-1346.857-303.439-1354.327-303.439z"/>
	<path fill="#000113" d="M-1328.184-311.322c0,2.726-2.21,4.936-4.935,4.936c-2.727,0-4.937-2.21-4.937-4.936
		c0-2.726,2.21-4.936,4.937-4.936C-1330.394-316.257-1328.184-314.047-1328.184-311.322z"/>
</g>
<g>
	<circle fill="#FFFFFF" cx="-1225.785" cy="-289.962" r="60"/>
	<path fill="#000113" d="M-1222.048-229.962v-46.515h-11.918v-14.2h11.918v-12.932c0,0,0.467-14.531,14.795-16.047
		c0,0,7.448-0.689,14.746,0v12.951h-9.098c0,0-5.855,0.001-5.855,5.856c0,5.855,0,9.988,0,9.988h14.122l-2.342,14.191h-11.849
		v46.708H-1222.048z"/>
</g>
<g>
	<circle fill="#FFFFFF" cx="-1097.379" cy="-289.962" r="60"/>
	<path fill="#000113" d="M-1057.724-276.875c-0.3,6.583-3.288,13.474-14.048,14.155c-10.76,0.682-42.443,0.598-51.111,0
		c-8.667-0.598-13.45-5.296-14.048-14.155s-0.598-18.21,0-26.387c0.598-8.177,4.882-13.044,14.048-13.857
		c9.167-0.813,44.137-0.697,51.708,0c7.572,0.697,12.852,5.296,13.451,13.857C-1057.126-294.701-1057.425-283.458-1057.724-276.875z
		"/>
	<polygon fill="#FFFFFF" points="-1104.95,-302.173 -1104.95,-277.665 -1085.023,-289.919 	"/>
</g>
<g>
	<path fill="#FFFFFF" d="M-1094.986,100.048c-33,0-60,27-60,60s27,60,60,60s60-27,60-60S-1061.986,100.048-1094.986,100.048z
		 M-1055.331,173.136c-0.3,6.583-3.288,13.473-14.048,14.154c-10.76,0.682-42.443,0.598-51.111,0
		c-8.667-0.598-13.45-5.295-14.048-14.154c-0.598-8.859-0.598-18.21,0-26.387c0.598-8.178,4.882-13.044,14.048-13.857
		c9.167-0.813,44.137-0.697,51.708,0c7.572,0.697,12.852,5.297,13.451,13.857C-1054.733,155.31-1055.032,166.552-1055.331,173.136z"
		/>
	<polygon fill="#FFFFFF" points="-1102.557,172.346 -1082.63,160.091 -1102.557,147.837 	"/>
</g>
<g>
	<circle fill="#FFFFFF" cx="-968.975" cy="-289.962" r="60"/>
	<path fill="#000113" d="M-928.975-315.199c-5.846,2.749-8.794,2.299-8.794,2.299c5.996-3.948,6.546-8.795,6.546-8.795
		c-4.997,3.148-10.586,3.94-10.586,3.94v0.003c-2.987-3.155-7.213-5.126-11.9-5.126c-9.052,0-16.39,7.338-16.39,16.39
		c0,1.23,0.14,2.428,0.397,3.581c-21.858-0.853-33.314-17.173-33.314-17.173c-7.063,13.992,4.797,22.12,4.797,22.12
		c-3.997-0.133-6.929-1.866-6.929-1.866c-0.4,13.326,12.637,16.124,12.637,16.124c-2.421,0.933-7.174,0.267-7.174,0.267
		c3.73,11.193,14.924,11.46,14.924,11.46c-8.261,8.794-24.212,6.872-24.212,6.872c8.873,6.082,19.903,9.097,31.425,7.732
		c24.646-2.918,42.424-24.8,40.481-49.326C-931.778-309.979-928.975-315.199-928.975-315.199z"/>
</g>
<g>
	<path fill="#FFFFFF" d="M-1337.228,127.361h-33.925c-8.67,0-15.724,7.054-15.724,15.724v33.926c0,8.67,7.054,15.724,15.724,15.724
		h33.925c8.67,0,15.724-7.054,15.724-15.724v-33.926C-1321.504,134.415-1328.558,127.361-1337.228,127.361z M-1354.327,180.979
		c-11.502,0-20.86-9.358-20.86-20.86c0-11.503,9.358-20.861,20.86-20.861c11.503,0,20.861,9.358,20.861,20.861
		C-1333.466,171.62-1342.824,180.979-1354.327,180.979z M-1333.118,143.624c-2.727,0-4.937-2.209-4.937-4.936
		c0-2.726,2.21-4.936,4.937-4.936c2.725,0,4.935,2.21,4.935,4.936C-1328.184,141.415-1330.394,143.624-1333.118,143.624z"/>
	<path fill="#FFFFFF" d="M-1354.327,146.571c-7.47,0-13.547,6.076-13.547,13.547c0,7.47,6.077,13.547,13.547,13.547
		s13.548-6.077,13.548-13.547C-1340.779,152.648-1346.857,146.571-1354.327,146.571z"/>
	<path fill="#FFFFFF" d="M-1354.19,100.048c-33,0-60,27-60,60s27,60,60,60s60-27,60-60S-1321.19,100.048-1354.19,100.048z
		 M-1314.189,177.011c0,12.702-10.335,23.037-23.038,23.037h-33.925c-12.703,0-23.038-10.335-23.038-23.037v-33.926
		c0-12.703,10.334-23.037,23.038-23.037h33.925c12.703,0,23.038,10.334,23.038,23.037V177.011z"/>
</g>
<g>
	<path fill="#FFFFFF" d="M-1165.785,160.048c0-33-27-60-60-60s-60,27-60,60s27,60,60,60c1.256,0,2.499-0.052,3.736-0.129v-46.386
		h-11.918v-14.2h11.918v-12.932c0,0,0.467-14.531,14.795-16.047c0,0,7.448-0.689,14.746,0v12.95h-9.098c0,0-5.855,0.001-5.855,5.856
		c0,5.855,0,9.988,0,9.988h14.122l-2.342,14.19h-11.849v43.841C-1183.385,209.409-1165.785,186.689-1165.785,160.048z"/>
</g>
<path fill="#FFFFFF" d="M-968.975,100.048c-33,0-60,27-60,60s27,60,60,60s60-27,60-60S-935.975,100.048-968.975,100.048z
	 M-937.068,143.314c1.943,24.526-15.835,46.408-40.481,49.326c-11.521,1.364-22.552-1.65-31.425-7.732
	c0,0,15.951,1.922,24.212-6.872c0,0-11.193-0.267-14.924-11.46c0,0,4.753,0.666,7.174-0.267c0,0-13.037-2.798-12.637-16.124
	c0,0,2.932,1.732,6.929,1.866c0,0-11.859-8.128-4.797-22.12c0,0,11.456,16.32,33.314,17.173c-0.257-1.153-0.397-2.351-0.397-3.581
	c0-9.052,7.338-16.391,16.39-16.391c4.688,0,8.913,1.972,11.9,5.127v-0.004c0,0,5.589-0.792,10.586-3.939
	c0,0-0.55,4.847-6.546,8.795c0,0,2.948,0.449,8.794-2.299C-928.975,134.812-931.778,140.03-937.068,143.314z"/>
<g>
	<path fill="#000113" d="M-228.391-329.032c-33,0-60,27-60,60s27,59.999,60,59.999s60-26.999,60-59.999
		S-195.391-329.032-228.391-329.032z M-188.735-255.944c-0.3,6.583-3.288,13.473-14.049,14.154c-10.76,0.682-42.442,0.598-51.11,0
		c-8.667-0.598-13.45-5.295-14.048-14.154c-0.598-8.859-0.598-18.21,0-26.387c0.598-8.178,4.882-13.044,14.048-13.857
		c9.167-0.813,44.137-0.697,51.708,0c7.572,0.697,12.853,5.297,13.451,13.857C-188.138-273.77-188.437-262.528-188.735-255.944z"/>
	<polygon fill="#000113" points="-235.961,-256.734 -216.034,-268.989 -235.961,-281.243 	"/>
</g>
<g>
	<path fill="#000113" d="M-491.428-301.718h-33.925c-8.671,0-15.724,7.054-15.724,15.724v33.926c0,8.67,7.053,15.724,15.724,15.724
		h33.925c8.67,0,15.724-7.054,15.724-15.724v-33.926C-475.704-294.665-482.758-301.718-491.428-301.718z M-508.527-248.101
		c-11.502,0-20.86-9.358-20.86-20.86c0-11.503,9.358-20.861,20.86-20.861c11.503,0,20.861,9.358,20.861,20.861
		C-487.666-257.46-497.024-248.101-508.527-248.101z M-487.318-285.456c-2.727,0-4.937-2.209-4.937-4.935
		c0-2.726,2.21-4.936,4.937-4.936c2.725,0,4.935,2.21,4.935,4.936C-482.384-287.665-484.594-285.456-487.318-285.456z"/>
	<path fill="#000113" d="M-508.527-282.508c-7.47,0-13.547,6.076-13.547,13.547c0,7.47,6.077,13.547,13.547,13.547
		s13.548-6.077,13.548-13.547C-494.979-276.432-501.058-282.508-508.527-282.508z"/>
	<path fill="#000113" d="M-508.391-329.032c-33,0-60,27-60,60s27,59.999,60,59.999s60-26.999,60-59.999
		S-475.391-329.032-508.391-329.032z M-468.39-252.069c0,12.702-10.335,23.037-23.038,23.037h-33.925
		c-12.703,0-23.038-10.335-23.038-23.037v-33.926c0-12.703,10.335-23.037,23.038-23.037h33.925
		c12.703,0,23.038,10.334,23.038,23.037V-252.069z"/>
</g>
<g>
	<path fill="#000113" d="M-308.391-269.032c0-33-27-60-60-60s-60,27-60,60s27,59.999,60,59.999c1.256,0,2.498-0.051,3.736-0.129
		v-46.385h-11.918v-14.2h11.918v-12.932c0,0,0.467-14.531,14.795-16.047c0,0,7.448-0.689,14.746,0v12.95h-9.098
		c0,0-5.855,0.001-5.855,5.856c0,5.854,0,9.988,0,9.988h14.122l-2.342,14.19h-11.849v43.84
		C-325.991-219.671-308.391-242.391-308.391-269.032z"/>
</g>
<path fill="#000113" d="M-88.391-328.961c-33,0-60,27-60,60s27,59.999,60,59.999s60-26.999,60-59.999
	S-55.391-328.961-88.391-328.961z M-56.484-285.695c1.943,24.526-15.835,46.408-40.48,49.326
	c-11.521,1.364-22.552-1.65-31.425-7.732c0,0,15.951,1.922,24.212-6.872c0,0-11.193-0.267-14.924-11.46c0,0,4.753,0.666,7.174-0.267
	c0,0-13.037-2.798-12.637-16.124c0,0,2.932,1.732,6.929,1.866c0,0-11.859-8.128-4.797-22.12c0,0,11.456,16.32,33.315,17.173
	c-0.257-1.153-0.396-2.351-0.396-3.581c0-9.052,7.338-16.391,16.39-16.391c4.688,0,8.913,1.972,11.9,5.127v-0.004
	c0,0,5.589-0.792,10.586-3.939c0,0-0.55,4.847-6.546,8.795c0,0,2.948,0.449,8.794-2.299
	C-48.391-294.197-51.194-288.978-56.484-285.695z"/>
<g>
	<circle fill="#FFFFFF" cx="-506.318" cy="-459.667" r="60"/>
	<path fill="#000113" d="M-466.318-484.904c-5.846,2.748-8.794,2.299-8.794,2.299c5.996-3.948,6.546-8.795,6.546-8.795
		c-4.997,3.148-10.586,3.94-10.586,3.94v0.003c-2.987-3.155-7.213-5.126-11.9-5.126c-9.052,0-16.39,7.338-16.39,16.39
		c0,1.23,0.14,2.428,0.396,3.581c-21.858-0.853-33.314-17.173-33.314-17.173c-7.063,13.992,4.797,22.12,4.797,22.12
		c-3.997-0.133-6.929-1.866-6.929-1.866c-0.4,13.326,12.637,16.124,12.637,16.124c-2.421,0.933-7.174,0.267-7.174,0.267
		c3.73,11.193,14.924,11.46,14.924,11.46c-8.261,8.794-24.212,6.872-24.212,6.872c8.873,6.081,19.903,9.097,31.425,7.732
		c24.646-2.918,42.424-24.8,40.48-49.326C-469.122-479.684-466.318-484.904-466.318-484.904z"/>
</g>
<g>
	<polygon fill="#FFFFFF" points="-1342.461,-88.413 -1331.662,-144.259 -1342.461,-200.104 -1307.31,-144.259 	"/>
</g>
<g>
	<polygon fill="#FFFFFF" points="-1366.192,-88.413 -1376.992,-144.259 -1366.192,-200.104 -1401.343,-144.259 	"/>
</g>
<polygon fill="#FFFFFF" points="-1308.129,55.269 -1384.253,55.269 -1320.378,-4.731 -1244.254,-4.731 "/>
<g>
	<polygon fill="#000113" points="-506.545,5.73 -495.745,-50.116 -506.545,-105.962 -471.394,-50.116 	"/>
</g>
<g>
	<polygon fill="#000113" points="-530.276,5.73 -541.075,-50.116 -530.276,-105.962 -565.427,-50.116 	"/>
</g>
<polygon fill="#000113" points="-254.861,-20.116 -330.985,-20.116 -267.11,-80.116 -190.985,-80.116 "/>
<g>
	<path fill="#000113" d="M-1133.581-622.875c-0.3,6.583-3.288,13.474-14.048,14.155c-10.76,0.682-42.443,0.598-51.111,0
		c-8.667-0.598-13.45-5.296-14.048-14.155c-0.598-8.859-0.598-18.209,0-26.387s4.882-13.043,14.048-13.856
		c9.167-0.813,44.137-0.697,51.708,0c7.572,0.697,12.852,5.296,13.451,13.856C-1132.983-640.701-1133.282-629.458-1133.581-622.875z
		"/>
</g>
<g>
	<polygon fill="#FFFFFF" points="-1072.52,-648.173 -1072.52,-623.665 -1052.594,-635.919 	"/>
</g>
<polygon fill="#000113" points="-350.985,-75.219 -401.189,-25.014 -451.394,-75.219 "/>
<polygon fill="#6609B7" points="-591.613,162.86 -641.817,213.065 -692.021,162.86 "/>
<polygon fill="#FFD700" points="-100.462,145.758 -108.462,153.758 -116.462,145.758 "/>
<polygon fill="#FFD700" points="-100.462,145.758 -108.462,137.758 -116.462,145.758 "/>
<circle fill="none" stroke="#FFFFFF" stroke-width="7" stroke-miterlimit="10" cx="-815.021" cy="-653.667" r="80"/>
<circle fill="none" stroke="#FFFFFF" stroke-width="7" stroke-miterlimit="10" cx="-629.792" cy="-653.667" r="80"/>
<circle fill="none" stroke="#FFFFFF" stroke-width="7" stroke-miterlimit="10" cx="-446.318" cy="-653.667" r="80"/>
<path fill="none" stroke="#FFFFFF" stroke-width="7" stroke-miterlimit="10" d="M-767.398-633.734c0,9.23-6.6,16.713-14.741,16.713
	h-65.772c-8.142,0-14.741-7.483-14.741-16.713v-29.572c0-9.231,6.6-16.713,14.741-16.713h65.772c8.142,0,14.741,7.482,14.741,16.713
	V-633.734z"/>
<path fill="none" stroke="#FFFFFF" stroke-width="7" stroke-miterlimit="10" d="M-798.739-648.52
	c0,8.995-7.291,16.286-16.286,16.286c-8.995,0-16.286-7.292-16.286-16.286c0-8.995,7.291-16.287,16.286-16.287
	C-806.03-664.807-798.739-657.515-798.739-648.52z"/>
<path fill="none" stroke="#FFFFFF" stroke-width="7" stroke-miterlimit="10" d="M-802.377-682.513c0,1.377-1.343,2.494-3,2.494
	h-19.297c-1.657,0-3-1.117-3-2.494v-8.727c0-1.377,1.343-2.494,3-2.494h19.297c1.657,0,3,1.117,3,2.494V-682.513z"/>
<path fill="#FFFFFF" d="M-843.525-681.519c0,0.829-0.691,1.5-1.542,1.5h-9.916c-0.852,0-1.542-0.671-1.542-1.5v-5.25
	c0-0.829,0.69-1.5,1.542-1.5h9.916c0.852,0,1.542,0.671,1.542,1.5V-681.519z"/>
<path fill="#FFFFFF" d="M-778.026-664.807c0,3.313-2.685,6-5.999,6c-3.315,0-5.999-2.687-5.999-6c0-3.313,2.685-6,5.999-6
	C-780.711-670.806-778.026-668.12-778.026-664.807z"/>
<path fill="none" stroke="#FFFFFF" stroke-width="7" stroke-miterlimit="10" d="M-606.95-614.172h-49.683
	c-8.03,0-14.541-6.509-14.541-14.541h49.683C-621.491-620.682-614.979-614.172-606.95-614.172c8.03,0,14.541-6.509,14.541-14.541
	v-64.449h-64.224v64.449"/>
<path fill="none" stroke="#FFFFFF" stroke-width="7" stroke-miterlimit="10" d="M-663.239-608.823"/>
<line fill="none" stroke="#FFFFFF" stroke-width="7" stroke-linecap="round" stroke-miterlimit="10" x1="-645.326" y1="-679.594" x2="-603.49" y2="-679.594"/>
<line fill="none" stroke="#FFFFFF" stroke-width="7" stroke-linecap="round" stroke-miterlimit="10" x1="-645.326" y1="-666.554" x2="-603.49" y2="-666.554"/>
<line fill="none" stroke="#FFFFFF" stroke-width="7" stroke-linecap="round" stroke-miterlimit="10" x1="-645.326" y1="-653.512" x2="-603.49" y2="-653.512"/>
<line fill="none" stroke="#FFFFFF" stroke-width="7" stroke-linecap="round" stroke-miterlimit="10" x1="-645.326" y1="-640.472" x2="-603.49" y2="-640.472"/>
<polygon fill="none" stroke="#FFFFFF" stroke-width="7" stroke-linejoin="round" stroke-miterlimit="10" points="-408.923,-653.513 
	-465.859,-620.639 -465.859,-686.385 "/>
<circle fill="none" stroke="#FFFFFF" stroke-width="7" stroke-miterlimit="10" cx="-265.586" cy="-653.667" r="80"/>
<g>
	<path fill="#FFFFFF" d="M-815.021-928.191c-46.042,0-83.5,37.458-83.5,83.5s37.458,83.5,83.5,83.5s83.5-37.458,83.5-83.5
		S-768.979-928.191-815.021-928.191z M-815.021-768.191c-42.183,0-76.5-34.318-76.5-76.5c0-42.182,34.317-76.5,76.5-76.5
		s76.5,34.318,76.5,76.5C-738.521-802.509-772.839-768.191-815.021-768.191z"/>
	<path fill="#FFFFFF" d="M-782.14-874.544h-16.737v-7.721c0-3.305-2.916-5.994-6.5-5.994h-19.297c-3.584,0-6.5,2.689-6.5,5.994
		v7.721h-12.351v-3.25c0-0.829-0.691-1.5-1.542-1.5h-9.916c-0.852,0-1.542,0.671-1.542,1.5v5.25c0,0.13,0.022,0.254,0.055,0.375
		c-5.754,3.404-9.682,10.119-9.682,17.838v29.572c0,11.146,8.183,20.213,18.241,20.213h65.772c10.059,0,18.241-9.068,18.241-20.213
		v-29.572C-763.898-865.477-772.081-874.544-782.14-874.544z M-824.174-874.545v-6.713l18.297,0.001v6.713L-824.174-874.545z
		 M-770.898-824.759c0,7.286-5.043,13.213-11.241,13.213h-65.772c-6.198,0-11.241-5.928-11.241-13.213v-29.572
		c0-7.286,5.043-13.213,11.241-13.213h23.237h19.297h23.237c6.198,0,11.241,5.927,11.241,13.213V-824.759z"/>
	<path fill="#FFFFFF" d="M-815.025-859.331c-10.91,0-19.786,8.876-19.786,19.787c0,10.91,8.876,19.786,19.786,19.786
		c10.91,0,19.786-8.876,19.786-19.786C-795.239-850.455-804.115-859.331-815.025-859.331z M-815.025-826.758
		c-7.051,0-12.786-5.736-12.786-12.786c0-7.051,5.735-12.787,12.786-12.787c7.051,0,12.786,5.736,12.786,12.787
		C-802.239-832.494-807.975-826.758-815.025-826.758z"/>
	<path fill="#FFFFFF" d="M-784.025-861.831c-3.315,0-5.999,2.686-5.999,6c0,3.313,2.685,5.999,5.999,5.999
		c3.314,0,5.999-2.686,5.999-5.999C-778.026-859.144-780.711-861.831-784.025-861.831z"/>
</g>
<g>
	<path fill="#FFFFFF" d="M-629.792-928.191c-46.042,0-83.5,37.458-83.5,83.5s37.458,83.5,83.5,83.5s83.5-37.458,83.5-83.5
		S-583.75-928.191-629.792-928.191z M-629.792-768.191c-42.183,0-76.5-34.318-76.5-76.5c0-42.182,34.317-76.5,76.5-76.5
		c42.183,0,76.5,34.318,76.5,76.5C-553.292-802.509-587.609-768.191-629.792-768.191z"/>
	<path fill="#FFFFFF" d="M-660.133-823.237h-14.541v3.5c0,9.948,8.093,18.041,18.041,18.041h49.683
		c9.948,0,18.041-8.093,18.041-18.041v-67.949h-71.224V-823.237z M-656.633-808.697c-4.865,0-9.006-3.163-10.473-7.541h42.455
		c0.553,2.798,1.754,5.367,3.441,7.541H-656.633z M-653.133-880.686h57.224v60.949c0,6.088-4.953,11.041-11.041,11.041
		s-11.041-4.953-11.041-11.041v-3.5h-35.142V-880.686z"/>
	<path fill="#FFFFFF" d="M-645.326-867.118h41.836c1.933,0,3.5-1.567,3.5-3.5s-1.567-3.5-3.5-3.5h-41.836
		c-1.933,0-3.5,1.567-3.5,3.5S-647.259-867.118-645.326-867.118z"/>
	<path fill="#FFFFFF" d="M-645.326-854.078h41.836c1.933,0,3.5-1.567,3.5-3.5c0-1.933-1.567-3.5-3.5-3.5h-41.836
		c-1.933,0-3.5,1.567-3.5,3.5C-648.826-855.645-647.259-854.078-645.326-854.078z"/>
	<path fill="#FFFFFF" d="M-645.326-841.037h41.836c1.933,0,3.5-1.567,3.5-3.5s-1.567-3.5-3.5-3.5h-41.836
		c-1.933,0-3.5,1.567-3.5,3.5S-647.259-841.037-645.326-841.037z"/>
	<path fill="#FFFFFF" d="M-599.99-831.496c0-1.933-1.567-3.5-3.5-3.5h-41.836c-1.933,0-3.5,1.567-3.5,3.5s1.567,3.5,3.5,3.5h41.836
		C-601.558-827.996-599.99-829.563-599.99-831.496z"/>
</g>
<g>
	<path fill="#FFFFFF" d="M-446.318-928.191c-46.042,0-83.5,37.458-83.5,83.5s37.458,83.5,83.5,83.5s83.5-37.458,83.5-83.5
		S-400.276-928.191-446.318-928.191z M-446.318-768.191c-42.183,0-76.5-34.318-76.5-76.5c0-42.182,34.317-76.5,76.5-76.5
		s76.5,34.318,76.5,76.5C-369.818-802.509-404.136-768.191-446.318-768.191z"/>
	<path fill="#FFFFFF" d="M-407.173-847.568l-56.936-32.872c-1.082-0.625-2.418-0.625-3.5,0c-1.083,0.625-1.75,1.781-1.75,3.031
		v65.746c0,1.25,0.667,2.406,1.75,3.031c0.541,0.313,1.145,0.469,1.75,0.469c0.604,0,1.209-0.156,1.75-0.469l56.936-32.874
		c1.083-0.626,1.75-1.781,1.75-3.031C-405.423-845.788-406.09-846.943-407.173-847.568z M-462.359-817.726v-53.621l46.436,26.81
		L-462.359-817.726z"/>
</g>
<polygon fill="none" stroke="#FFFFFF" stroke-width="6" stroke-linejoin="round" stroke-miterlimit="10" points="-226.635,-623.112 
	-298.917,-623.112 -310.159,-672.907 -215.39,-672.907 "/>
<g>
	
		<line fill="none" stroke="#FFFFFF" stroke-width="6" stroke-linecap="round" stroke-linejoin="round" stroke-miterlimit="10" x1="-290.082" y1="-657.647" x2="-282.451" y2="-657.647"/>
	
		<line fill="none" stroke="#FFFFFF" stroke-width="6" stroke-linecap="round" stroke-linejoin="round" stroke-miterlimit="10" x1="-266.791" y1="-657.647" x2="-259.162" y2="-657.647"/>
	
		<line fill="none" stroke="#FFFFFF" stroke-width="6" stroke-linecap="round" stroke-linejoin="round" stroke-miterlimit="10" x1="-243.5" y1="-657.647" x2="-235.87" y2="-657.647"/>
</g>
<g>
	
		<line fill="none" stroke="#FFFFFF" stroke-width="6" stroke-linecap="round" stroke-linejoin="round" stroke-miterlimit="10" x1="-290.082" y1="-648.01" x2="-282.451" y2="-648.01"/>
	
		<line fill="none" stroke="#FFFFFF" stroke-width="6" stroke-linecap="round" stroke-linejoin="round" stroke-miterlimit="10" x1="-266.791" y1="-648.01" x2="-259.162" y2="-648.01"/>
	
		<line fill="none" stroke="#FFFFFF" stroke-width="6" stroke-linecap="round" stroke-linejoin="round" stroke-miterlimit="10" x1="-243.5" y1="-648.01" x2="-235.87" y2="-648.01"/>
</g>
<g>
	
		<line fill="none" stroke="#FFFFFF" stroke-width="6" stroke-linecap="round" stroke-linejoin="round" stroke-miterlimit="10" x1="-290.082" y1="-638.372" x2="-282.451" y2="-638.372"/>
	
		<line fill="none" stroke="#FFFFFF" stroke-width="6" stroke-linecap="round" stroke-linejoin="round" stroke-miterlimit="10" x1="-266.791" y1="-638.372" x2="-259.162" y2="-638.372"/>
	
		<line fill="none" stroke="#FFFFFF" stroke-width="6" stroke-linecap="round" stroke-linejoin="round" stroke-miterlimit="10" x1="-243.5" y1="-638.372" x2="-235.87" y2="-638.372"/>
</g>
<polyline fill="none" stroke="#FFFFFF" stroke-width="6" stroke-linecap="round" stroke-linejoin="round" stroke-miterlimit="10" points="
	-282.451,-672.907 -315.782,-691.379 -300.723,-691.379 -267.192,-672.907 "/>
<path fill="none" stroke="#FFFFFF" stroke-width="6" stroke-linecap="round" stroke-linejoin="round" stroke-miterlimit="10" d="
	M-273.24-614.278c0,4.768-3.864,8.633-8.633,8.633c-4.769,0-8.635-3.865-8.635-8.633c0-4.769,3.866-8.634,8.635-8.634
	C-277.104-622.912-273.24-619.046-273.24-614.278z"/>
<path fill="none" stroke="#FFFFFF" stroke-width="6" stroke-linecap="round" stroke-linejoin="round" stroke-miterlimit="10" d="
	M-234.643-614.278c0,4.768-3.864,8.633-8.633,8.633c-4.77,0-8.634-3.865-8.634-8.633c0-4.769,3.864-8.634,8.634-8.634
	C-238.507-622.912-234.643-619.046-234.643-614.278z"/>
<g>
	<path fill="#FFFFFF" d="M-265.586-928.037c-46.042,0-83.5,37.458-83.5,83.5c0,46.042,37.458,83.5,83.5,83.5s83.5-37.458,83.5-83.5
		C-182.086-890.579-219.544-928.037-265.586-928.037z M-265.586-768.037c-42.183,0-76.5-34.318-76.5-76.5
		c0-42.182,34.317-76.5,76.5-76.5s76.5,34.318,76.5,76.5C-189.086-802.354-223.403-768.037-265.586-768.037z"/>
	<path fill="#FFFFFF" d="M-215.39-866.776h-51.032l-32.854-18.1c-0.443-0.245-0.941-0.372-1.447-0.372h-15.06
		c-1.367,0-2.563,0.925-2.904,2.249c-0.343,1.324,0.254,2.712,1.45,3.375l23.184,12.848h-16.106c-0.912,0-1.774,0.415-2.344,1.127
		c-0.568,0.712-0.783,1.644-0.583,2.534l11.242,49.794c0.31,1.368,1.524,2.339,2.927,2.339h6.994
		c-1.001,1.718-1.585,3.707-1.585,5.834c0,6.415,5.22,11.633,11.635,11.633c6.414,0,11.633-5.219,11.633-11.633
		c0-2.127-0.584-4.117-1.585-5.834h18.501c-1.002,1.718-1.585,3.707-1.585,5.834c0,6.415,5.219,11.633,11.634,11.633
		c6.414,0,11.633-5.219,11.633-11.633c0-2.127-0.584-4.117-1.585-5.834h6.593c1.402,0,2.617-0.971,2.927-2.339l11.245-49.794
		c0.2-0.889-0.014-1.822-0.583-2.534C-213.615-866.362-214.478-866.776-215.39-866.776z M-281.873-799.514
		c-3.107,0-5.635-2.527-5.635-5.633s2.527-5.634,5.635-5.634c3.105,0,5.633,2.527,5.633,5.634S-278.768-799.514-281.873-799.514z
		 M-243.275-799.514c-3.107,0-5.634-2.527-5.634-5.633s2.527-5.634,5.634-5.634c3.105,0,5.633,2.527,5.633,5.634
		S-240.17-799.514-243.275-799.514z M-304.18-879.248h2.685l22.64,12.472h-2.821L-304.18-879.248z M-229.033-816.982h-67.485
		l-9.888-43.794h39.207c0,0,0.003,0,0.004,0c0,0,0.002,0,0.004,0h48.049L-229.033-816.982z"/>
	<path fill="#FFFFFF" d="M-282.451-851.517h-7.631c-1.657,0-3,1.343-3,3s1.343,3,3,3h7.631c1.657,0,3-1.343,3-3
		S-280.794-851.517-282.451-851.517z"/>
	<path fill="#FFFFFF" d="M-269.791-848.517c0,1.657,1.343,3,3,3h7.629c1.657,0,3-1.343,3-3s-1.343-3-3-3h-7.629
		C-268.448-851.517-269.791-850.174-269.791-848.517z"/>
	<path fill="#FFFFFF" d="M-243.5-845.517h7.63c1.657,0,3-1.343,3-3s-1.343-3-3-3h-7.63c-1.657,0-3,1.343-3,3
		S-245.157-845.517-243.5-845.517z"/>
	<path fill="#FFFFFF" d="M-282.451-841.879h-7.631c-1.657,0-3,1.343-3,3c0,1.657,1.343,3,3,3h7.631c1.657,0,3-1.343,3-3
		C-279.451-840.536-280.794-841.879-282.451-841.879z"/>
	<path fill="#FFFFFF" d="M-259.162-841.879h-7.629c-1.657,0-3,1.343-3,3c0,1.657,1.343,3,3,3h7.629c1.657,0,3-1.343,3-3
		C-256.162-840.536-257.505-841.879-259.162-841.879z"/>
	<path fill="#FFFFFF" d="M-243.5-835.879h7.63c1.657,0,3-1.343,3-3c0-1.657-1.343-3-3-3h-7.63c-1.657,0-3,1.343-3,3
		C-246.5-837.223-245.157-835.879-243.5-835.879z"/>
	<path fill="#FFFFFF" d="M-282.451-832.241h-7.631c-1.657,0-3,1.343-3,3c0,1.657,1.343,3,3,3h7.631c1.657,0,3-1.343,3-3
		C-279.451-830.898-280.794-832.241-282.451-832.241z"/>
	<path fill="#FFFFFF" d="M-259.162-832.241h-7.629c-1.657,0-3,1.343-3,3c0,1.657,1.343,3,3,3h7.629c1.657,0,3-1.343,3-3
		C-256.162-830.898-257.505-832.241-259.162-832.241z"/>
	<path fill="#FFFFFF" d="M-243.5-826.241h7.63c1.657,0,3-1.343,3-3c0-1.657-1.343-3-3-3h-7.63c-1.657,0-3,1.343-3,3
		C-246.5-827.584-245.157-826.241-243.5-826.241z"/>
</g>
<g>
	<g>
		<path fill="#000113" d="M51.609-329.039c-33.084,0-60,26.916-60,60s26.916,60,60,60c33.084,0,60-26.916,60-60
			S84.693-329.039,51.609-329.039z M51.609-214.069c-30.31,0-54.97-24.659-54.97-54.97c0-30.31,24.659-54.97,54.97-54.97
			c30.311,0,54.97,24.659,54.97,54.97C106.579-238.728,81.92-214.069,51.609-214.069z"/>
		<path fill="#000113" d="M75.237-290.49H63.21v-5.548c0-2.374-2.095-4.307-4.671-4.307H44.674c-2.575,0-4.671,1.933-4.671,4.307
			v5.548h-8.875v-2.335c0-0.595-0.496-1.078-1.108-1.078h-7.125c-0.612,0-1.108,0.483-1.108,1.078v3.772
			c0,0.094,0.017,0.183,0.039,0.27c-4.134,2.446-6.956,7.272-6.956,12.817v21.25c0,8.009,5.879,14.523,13.107,14.523h47.261
			c7.228,0,13.107-6.515,13.107-14.523v-21.25C88.345-283.975,82.465-290.49,75.237-290.49z M45.033-290.49v-4.825l13.147,0.002
			v4.823H45.033z M83.314-254.716c0,5.234-3.624,9.494-8.077,9.494H27.977c-4.454,0-8.078-4.26-8.078-9.494v-21.25
			c0-5.234,3.624-9.494,8.078-9.494h16.697h13.865h16.698c4.453,0,8.077,4.26,8.077,9.494V-254.716z"/>
		<path fill="#000113" d="M51.606-279.559c-7.84,0-14.218,6.379-14.218,14.219c0,7.839,6.378,14.217,14.218,14.217
			s14.218-6.378,14.218-14.217C65.824-273.18,59.446-279.559,51.606-279.559z M51.606-256.153c-5.066,0-9.188-4.121-9.188-9.187
			c0-5.067,4.121-9.188,9.188-9.188s9.188,4.121,9.188,9.188C60.794-260.274,56.673-256.153,51.606-256.153z"/>
		<path fill="#000113" d="M73.882-281.354c-2.382,0-4.311,1.931-4.311,4.31c0,2.381,1.929,4.312,4.311,4.312
			c2.382,0,4.31-1.931,4.31-4.312C78.192-279.424,76.264-281.354,73.882-281.354z"/>
	</g>
	<g>
		<path fill="#000113" d="M191.609-329.039c-33.084,0-60,26.916-60,60s26.916,60,60,60c33.084,0,60-26.916,60-60
			S224.693-329.039,191.609-329.039z M191.609-214.069c-30.311,0-54.97-24.659-54.97-54.97c0-30.31,24.659-54.97,54.97-54.97
			c30.311,0,54.97,24.659,54.97,54.97C246.579-238.728,221.92-214.069,191.609-214.069z"/>
		<path fill="#000113" d="M169.808-253.623h-10.449v2.515c0,7.148,5.815,12.964,12.964,12.964h35.7
			c7.148,0,12.964-5.816,12.964-12.964v-48.825h-51.179V-253.623z M172.322-243.175c-3.496,0-6.471-2.273-7.525-5.418h30.507
			c0.397,2.011,1.261,3.856,2.473,5.418H172.322z M174.838-294.903h41.118v43.795c0,4.375-3.559,7.934-7.934,7.934
			c-4.374,0-7.934-3.559-7.934-7.934v-2.515h-25.251V-294.903z"/>
		<path fill="#000113" d="M180.447-285.154h30.062c1.389,0,2.515-1.125,2.515-2.515c0-1.39-1.126-2.515-2.515-2.515h-30.062
			c-1.389,0-2.515,1.125-2.515,2.515C177.933-286.279,179.059-285.154,180.447-285.154z"/>
		<path fill="#000113" d="M180.447-275.784h30.062c1.389,0,2.515-1.126,2.515-2.515c0-1.389-1.126-2.515-2.515-2.515h-30.062
			c-1.389,0-2.515,1.126-2.515,2.515C177.933-276.91,179.059-275.784,180.447-275.784z"/>
		<path fill="#000113" d="M180.447-266.412h30.062c1.389,0,2.515-1.127,2.515-2.516c0-1.39-1.126-2.515-2.515-2.515h-30.062
			c-1.389,0-2.515,1.125-2.515,2.515C177.933-267.539,179.059-266.412,180.447-266.412z"/>
		<path fill="#000113" d="M213.023-259.558c0-1.389-1.126-2.515-2.515-2.515h-30.062c-1.389,0-2.515,1.126-2.515,2.515
			c0,1.389,1.126,2.516,2.515,2.516h30.062C211.897-257.042,213.023-258.169,213.023-259.558z"/>
	</g>
	<g>
		<path fill="#000113" d="M331.609-329.039c-33.084,0-60,26.916-60,60s26.916,60,60,60c33.084,0,60-26.916,60-60
			S364.693-329.039,331.609-329.039z M331.609-214.069c-30.311,0-54.97-24.659-54.97-54.97c0-30.31,24.659-54.97,54.97-54.97
			c30.311,0,54.97,24.659,54.97,54.97C386.579-238.728,361.92-214.069,331.609-214.069z"/>
		<path fill="#000113" d="M359.738-271.107l-40.913-23.62c-0.777-0.449-1.737-0.449-2.515,0c-0.778,0.448-1.258,1.279-1.258,2.178
			v47.243c0,0.898,0.479,1.728,1.258,2.178c0.389,0.225,0.823,0.337,1.258,0.337c0.434,0,0.868-0.112,1.257-0.337l40.913-23.622
			c0.777-0.45,1.257-1.279,1.257-2.178C360.995-269.827,360.516-270.656,359.738-271.107z M320.083-249.662v-38.53l33.367,19.265
			L320.083-249.662z"/>
	</g>
	<g>
		<path fill="#000113" d="M471.609-328.884c-33.084,0-60,26.915-60,60c0,33.083,26.916,60,60,60c33.084,0,60-26.917,60-60
			C531.609-301.969,504.693-328.884,471.609-328.884z M471.609-213.914c-30.311,0-54.97-24.659-54.97-54.97
			c0-30.311,24.659-54.97,54.97-54.97c30.311,0,54.97,24.659,54.97,54.97C526.579-238.573,501.92-213.914,471.609-213.914z"/>
		<path fill="#000113" d="M507.679-284.865h-36.67l-23.607-13.005c-0.318-0.176-0.677-0.269-1.04-0.269H435.54
			c-0.982,0-1.841,0.665-2.087,1.617c-0.246,0.951,0.183,1.947,1.042,2.425l16.659,9.231h-11.573c-0.655,0-1.275,0.298-1.685,0.811
			c-0.408,0.511-0.563,1.182-0.419,1.82l8.078,35.78c0.223,0.983,1.096,1.682,2.104,1.682h5.025
			c-0.72,1.233-1.139,2.664-1.139,4.191c0,4.609,3.751,8.359,8.36,8.359c4.608,0,8.358-3.75,8.358-8.359
			c0-1.527-0.419-2.958-1.139-4.191h13.294c-0.72,1.233-1.139,2.664-1.139,4.191c0,4.609,3.75,8.359,8.359,8.359
			c4.609,0,8.359-3.75,8.359-8.359c0-1.527-0.42-2.958-1.139-4.191h4.737c1.007,0,1.88-0.698,2.103-1.682l8.08-35.78
			c0.145-0.639-0.01-1.31-0.419-1.82C508.953-284.567,508.334-284.865,507.679-284.865z M459.906-236.533
			c-2.233,0-4.049-1.815-4.049-4.048c0-2.231,1.815-4.048,4.049-4.048c2.231,0,4.047,1.816,4.047,4.048
			C463.953-238.349,462.138-236.533,459.906-236.533z M487.641-236.533c-2.232,0-4.048-1.815-4.048-4.048
			c0-2.231,1.815-4.048,4.048-4.048c2.231,0,4.048,1.816,4.048,4.048C491.688-238.349,489.872-236.533,487.641-236.533z
			 M443.877-293.827h1.93l16.269,8.962h-2.027L443.877-293.827z M497.875-249.084h-48.492l-7.105-31.47h28.173h0.003
			c0,0,0.001,0,0.003,0h34.525L497.875-249.084z"/>
		<path fill="#000113" d="M459.49-273.899h-5.482c-1.191,0-2.156,0.965-2.156,2.155c0,1.19,0.965,2.156,2.156,2.156h5.482
			c1.191,0,2.156-0.966,2.156-2.156C461.646-272.935,460.682-273.899,459.49-273.899z"/>
		<path fill="#000113" d="M468.588-271.744c0,1.19,0.965,2.156,2.155,2.156h5.482c1.19,0,2.155-0.966,2.155-2.156
			c0-1.191-0.965-2.155-2.155-2.155h-5.482C469.553-273.899,468.588-272.935,468.588-271.744z"/>
		<path fill="#000113" d="M487.48-269.588h5.482c1.19,0,2.155-0.966,2.155-2.156c0-1.191-0.965-2.155-2.155-2.155h-5.482
			c-1.191,0-2.155,0.965-2.155,2.155C485.324-270.554,486.289-269.588,487.48-269.588z"/>
		<path fill="#000113" d="M459.49-266.976h-5.482c-1.191,0-2.156,0.966-2.156,2.156c0,1.19,0.965,2.155,2.156,2.155h5.482
			c1.191,0,2.156-0.965,2.156-2.155C461.646-266.01,460.682-266.976,459.49-266.976z"/>
		<path fill="#000113" d="M476.226-266.976h-5.482c-1.19,0-2.155,0.966-2.155,2.156c0,1.19,0.965,2.155,2.155,2.155h5.482
			c1.19,0,2.155-0.965,2.155-2.155C478.381-266.01,477.416-266.976,476.226-266.976z"/>
		<path fill="#000113" d="M487.48-262.664h5.482c1.19,0,2.155-0.965,2.155-2.155c0-1.19-0.965-2.156-2.155-2.156h-5.482
			c-1.191,0-2.155,0.966-2.155,2.156C485.324-263.629,486.289-262.664,487.48-262.664z"/>
		<path fill="#000113" d="M459.49-260.049h-5.482c-1.191,0-2.156,0.965-2.156,2.155c0,1.19,0.965,2.156,2.156,2.156h5.482
			c1.191,0,2.156-0.966,2.156-2.156C461.646-259.084,460.682-260.049,459.49-260.049z"/>
		<path fill="#000113" d="M476.226-260.049h-5.482c-1.19,0-2.155,0.965-2.155,2.155c0,1.19,0.965,2.156,2.155,2.156h5.482
			c1.19,0,2.155-0.966,2.155-2.156C478.381-259.084,477.416-260.049,476.226-260.049z"/>
		<path fill="#000113" d="M487.48-255.737h5.482c1.19,0,2.155-0.966,2.155-2.156c0-1.19-0.965-2.155-2.155-2.155h-5.482
			c-1.191,0-2.155,0.965-2.155,2.155C485.324-256.703,486.289-255.737,487.48-255.737z"/>
	</g>
</g>
<g>
	<path d="M-346.77-174.974c-8.066-8.07-21.193-8.07-29.262,0c-8.066,8.068-8.07,21.193,0,29.266
		c7.299,7.301,18.734,7.969,26.824,2.057l11.02,11.021c1.246,1.244,3.26,1.244,4.5,0c1.242-1.242,1.242-3.256,0-4.496
		l-11.021-11.021C-338.795-156.237-339.467-167.671-346.77-174.974z M-351.268-150.208c-5.586,5.584-14.68,5.588-20.266,0
		c-5.588-5.586-5.588-14.678,0-20.266c5.586-5.592,14.68-5.592,20.266,0C-345.68-164.886-345.68-155.794-351.268-150.208z"/>
</g>
<path d="M-530.844-156.36l18.35-18.35c1.445-1.445,1.445-3.786,0-5.231c-1.445-1.445-3.786-1.445-5.231,0l-18.351,18.35
	l-18.351-18.35c-1.445-1.445-3.786-1.445-5.231,0c-1.445,1.445-1.445,3.786,0,5.231l18.352,18.35l-18.347,18.347
	c-1.445,1.445-1.445,3.786,0,5.231c0.722,0.723,1.67,1.084,2.615,1.084c0.947,0,1.893-0.361,2.616-1.084l18.346-18.347
	l18.351,18.347c0.723,0.723,1.668,1.084,2.615,1.084c0.946,0,1.894-0.361,2.616-1.084c1.445-1.445,1.445-3.786,0-5.231
	L-530.844-156.36z"/>
<path fill="#FFD700" d="M-424.689,107.908v-25.95c0-2.044-1.655-3.699-3.699-3.699c-2.044,0-3.699,1.655-3.699,3.699l-0.001,25.951
	h-25.951c-2.044,0-3.699,1.655-3.699,3.699c0,2.044,1.655,3.699,3.699,3.699l25.952-0.001v25.946c0,2.044,1.655,3.699,3.699,3.699
	c1.022,0,1.947-0.415,2.615-1.083c0.67-0.67,1.084-1.595,1.084-2.616l-0.001-25.945l25.949-0.003c1.022,0,1.945-0.413,2.615-1.083
	c0.669-0.669,1.084-1.595,1.084-2.616c0-2.044-1.655-3.699-3.699-3.699L-424.689,107.908z"/>
<g>
	<path d="M-467.995-168.884h42.497c1.887,0,3.415-1.528,3.415-3.415c0-1.886-1.528-3.414-3.415-3.414h-42.497
		c-1.885,0-3.415,1.528-3.415,3.414C-471.41-170.412-469.88-168.884-467.995-168.884z"/>
	<path d="M-425.498-159.778h-42.497c-1.885,0-3.415,1.532-3.415,3.416c0,1.885,1.53,3.415,3.415,3.415h42.497
		c1.887,0,3.415-1.53,3.415-3.415C-422.083-158.246-423.611-159.778-425.498-159.778z"/>
	<path d="M-425.498-143.841h-42.497c-1.885,0-3.415,1.529-3.415,3.415c0,1.885,1.53,3.415,3.415,3.415h42.497
		c1.887,0,3.415-1.53,3.415-3.415C-422.083-142.311-423.611-143.841-425.498-143.841z"/>
</g>
<g>
	<path fill="#000113" d="M-264.902-141.171c-0.672,0-1.313-0.268-1.787-0.742l-25.326-25.324c-0.988-0.988-0.988-2.59,0-3.574
		c0.988-0.988,2.588-0.988,3.574,0l23.539,23.537l23.537-23.537c0.988-0.988,2.588-0.988,3.576,0c0.986,0.986,0.986,2.586,0,3.574
		l-25.324,25.324C-263.588-141.438-264.23-141.171-264.902-141.171z"/>
</g>
<g>
	<path d="M-173.857-155.575c7.121,0,12.894-5.772,12.894-12.893c0-7.121-5.773-12.895-12.894-12.895
		c-7.121,0-12.894,5.773-12.894,12.895C-186.751-161.348-180.979-155.575-173.857-155.575z"/>
	<path d="M-173.857-154.554c-12.808,0-23.191,10.383-23.191,23.191h46.383C-150.666-144.171-161.05-154.554-173.857-154.554z"/>
</g>
<path d="M-64.471-174.24c-5.07-5.071-13.291-5.071-18.361,0l-2.834,2.833l-2.834-2.833c-5.072-5.071-13.293-5.071-18.363,0
	c-5.07,5.071-5.07,13.292,0,18.362l2.834,2.834l18.363,18.363l18.363-18.363l2.832-2.834
	C-59.398-160.948-59.398-169.17-64.471-174.24z"/>
<g>
	<path d="M19.721-167.173h-37.684v-8.48l22.465-3.018c0.74-0.1,1.258-0.78,1.16-1.52c-0.1-0.74-0.781-1.258-1.52-1.16l-23.637,3.177
		c-0.672,0.091-1.172,0.663-1.172,1.339v9.662v0.338v24.324h33.021L19.721-167.173z"/>
	<path d="M-14.924-142.173c-2.984,0-5.404,2.42-5.404,5.405c0,2.985,2.42,5.405,5.404,5.405c2.986,0,5.406-2.42,5.406-5.405
		C-9.518-139.753-11.937-142.173-14.924-142.173z"/>
	<path d="M7.779-142.173c-2.984,0-5.404,2.42-5.404,5.405c0,2.985,2.42,5.405,5.404,5.405c2.986,0,5.406-2.42,5.406-5.405
		C13.186-139.753,10.766-142.173,7.779-142.173z"/>
</g>
<g>
	<polygon fill="#FFFFFF" points="4.75,114.166 0,110.5 41.243,57.083 0,3.666 4.75,0 48.823,57.083 	"/>
</g>
</svg>
