<?xml version="1.0" encoding="utf-8"?>
<!-- Generator: Adobe Illustrator 16.0.0, SVG Export Plug-In . SVG Version: 6.00 Build 0)  -->
<!DOCTYPE svg PUBLIC "-//W3C//DTD SVG 1.1//EN" "http://www.w3.org/Graphics/SVG/1.1/DTD/svg11.dtd">
<svg version="1.1" id="Layer_1" xmlns="http://www.w3.org/2000/svg" xmlns:xlink="http://www.w3.org/1999/xlink" x="0px" y="0px"
	 width="247.79px" height="133.083px" viewBox="0 0 247.79 133.083" enable-background="new 0 0 247.79 133.083"
	 xml:space="preserve">
<path fill="#000113" d="M223.585,0c0,0-37.915,0.916-55.109,17.902c-17.276,17.066-4.802,36.848,36.081,32.954
	c0,0-35.929-3.909-18.887-28.69C198.049,4.166,223.585,0,223.585,0z"/>
<path fill="#6609B7" d="M206.716,46.041c4.013,0.799,8.928,2.753,11.777,5.568c2.517,2.487,3.925,5.804,4.095,9.331
	c0.859,17.797-43.553,47.232-99.039,72.143c0,0,72.365-27.787,106.833-50.332c19.875-13,18.188-23.907,16.402-28.224
	c-3.985-9.632-17.886-11.392-28.3-11.644c-7.725-0.187-12.031,0.292-14.769,0.449c-3.261,0.188-8.667,0.875-8.667,0.875
	S197.07,44.125,206.716,46.041z"/>
<polygon fill="#000113" points="204.758,50.816 186.215,50.816 171.652,59.574 166.119,50.816 151.855,50.816 161.314,65.792 
	133.314,82.631 151.855,82.631 166.42,73.873 171.951,82.631 186.215,82.631 176.756,67.656 "/>
<path fill="#000113" d="M137.648,50.816l-11.766,19.67c-1.174,1.961-3.691,3.215-6.459,3.215h-4.016l13.689-22.885H116.26
	l-16.654,27.84c-1.106,1.851,0.618,3.975,3.229,3.975h15.782l-14.686,24.56h12.838l33.717-56.374H137.648z"/>
<path fill="#000113" d="M99.717,73.701"/>
<path fill="#000113" d="M104.877,50.896l5.432-9.01H97.471l-5.43,9.01h-0.029h-8.557l-5.343,8.93h8.558l-11.237,18.91
	c-1.107,1.852,0.619,3.975,3.23,3.975h11.252c2.768,0,5.285-1.253,6.459-3.215l3.418-5.715h-8.558l0.048-0.08h-0.001l7.264-12.267
	c0.588-0.981,1.847-1.608,3.23-1.608h1.755c2.767,0,5.285-1.252,6.458-3.215l3.42-5.715H104.877z"/>
<path fill="#000113" d="M82.276,49.209l4.38-7.322H39.131c-2.769,0-5.285,1.253-6.459,3.215L22.113,62.75
	c-1.054,1.762-2.888,3.565-9.14,3.959c-0.122,0.008,12.245,0.015,12.37,0.015h33.617l-3.211,5.37
	c-0.588,0.98-1.847,1.607-3.229,1.607H17.83c-1.384,0-2.642,0.627-3.229,1.607c0,0-2.043,5.841-14.602,7.322h57.746
	c2.768,0,5.286-1.254,6.459-3.215l12.936-21.623H37.916l3.213-5.369c0.586-0.98,1.844-1.607,3.229-1.607h34.689
	C80.43,50.816,81.689,50.19,82.276,49.209"/>
</svg>
