<?xml version="1.0" encoding="utf-8"?>
<!-- Generator: Adobe Illustrator 16.0.0, SVG Export Plug-In . SVG Version: 6.00 Build 0)  -->
<!DOCTYPE svg PUBLIC "-//W3C//DTD SVG 1.1//EN" "http://www.w3.org/Graphics/SVG/1.1/DTD/svg11.dtd">
<svg version="1.1" id="Layer_1" xmlns="http://www.w3.org/2000/svg" xmlns:xlink="http://www.w3.org/1999/xlink" x="0px" y="0px"
	 width="247.79px" height="133.083px" viewBox="0 0 247.79 133.083" enable-background="new 0 0 247.79 133.083"
	 xml:space="preserve">
<path fill="#FFFFFF" d="M223.584,0c0,0-37.914,0.916-55.108,17.902c-17.276,17.066-4.802,36.848,36.081,32.954
	c0,0-35.93-3.909-18.887-28.69C198.049,4.166,223.584,0,223.584,0z"/>
<path fill="#FFFFFF" d="M206.715,46.041c4.014,0.799,8.929,2.753,11.777,5.568c2.518,2.487,3.926,5.804,4.096,9.331
	c0.858,17.797-43.553,47.232-99.04,72.143c0,0,72.366-27.787,106.833-50.332c19.875-13,18.188-23.906,16.402-28.224
	c-3.984-9.632-17.886-11.392-28.3-11.644c-7.726-0.187-12.03,0.292-14.769,0.449c-3.262,0.188-8.668,0.875-8.668,0.875
	S197.07,44.125,206.715,46.041z"/>
<polygon fill="#FFFFFF" points="204.758,50.816 186.215,50.816 171.652,59.574 166.12,50.816 151.855,50.816 161.314,65.792 
	133.314,82.631 151.855,82.631 166.42,73.874 171.952,82.631 186.215,82.631 176.756,67.656 "/>
<path fill="#FFFFFF" d="M137.648,50.816l-11.767,19.67c-1.174,1.961-3.69,3.216-6.458,3.216h-4.016l13.689-22.886H116.26
	l-16.654,27.84c-1.106,1.851,0.618,3.976,3.229,3.976h15.782l-14.686,24.56h12.838l33.717-56.374L137.648,50.816L137.648,50.816z"/>
<path fill="#FFFFFF" d="M99.717,73.702"/>
<path fill="#FFFFFF" d="M104.877,50.896l5.432-9.01H97.471l-5.43,9.01h-0.029h-8.557l-5.343,8.93h8.558l-11.237,18.91
	c-1.107,1.853,0.619,3.976,3.23,3.976h11.252c2.768,0,5.285-1.254,6.459-3.215l3.418-5.716h-8.558l0.048-0.079h-0.001l7.264-12.268
	c0.588-0.981,1.847-1.608,3.23-1.608h1.755c2.767,0,5.285-1.252,6.458-3.215l3.42-5.715H104.877z"/>
<path fill="#FFFFFF" d="M82.276,49.209l4.38-7.322H39.131c-2.769,0-5.285,1.253-6.459,3.215L22.113,62.75
	c-1.054,1.762-2.888,3.565-9.14,3.959c-0.122,0.008,12.245,0.015,12.37,0.015H58.96l-3.211,5.37
	c-0.588,0.979-1.847,1.607-3.229,1.607H17.83c-1.384,0-2.642,0.627-3.229,1.606c0,0-2.043,5.841-14.602,7.321h57.746
	c2.768,0,5.286-1.254,6.459-3.215L77.14,57.792H37.916l3.213-5.369c0.586-0.98,1.844-1.607,3.229-1.607h34.689
	C80.43,50.816,81.689,50.19,82.276,49.209"/>
</svg>
