<?xml version="1.0" encoding="utf-8"?>
<!-- Generator: Adobe Illustrator 16.0.0, SVG Export Plug-In . SVG Version: 6.00 Build 0)  -->
<!DOCTYPE svg PUBLIC "-//W3C//DTD SVG 1.1//EN" "http://www.w3.org/Graphics/SVG/1.1/DTD/svg11.dtd">
<svg version="1.1" id="Layer_1" xmlns="http://www.w3.org/2000/svg" xmlns:xlink="http://www.w3.org/1999/xlink" x="0px" y="0px"
	 width="19.999px" height="20px" viewBox="0.001 285.961 19.999 20" enable-background="new 0.001 285.961 19.999 20"
	 xml:space="preserve">
<path fill="#000113" d="M19.516,303.092L15.69,299.2c2.068-3.339,1.678-7.8-1.181-10.709c-1.66-1.687-3.835-2.53-6.01-2.53
	c-2.175,0-4.35,0.844-6.009,2.53c-3.319,3.376-3.319,8.849,0,12.225c1.66,1.688,3.834,2.531,6.009,2.531
	c1.727,0,3.449-0.54,4.918-1.604l3.763,3.826c0.323,0.328,0.746,0.492,1.168,0.492s0.847-0.164,1.168-0.492
	C20.161,304.813,20.161,303.748,19.516,303.092z M8.499,299.886c-1.387,0-2.692-0.55-3.672-1.548c-2.024-2.059-2.024-5.409,0-7.469
	c0.981-0.998,2.286-1.547,3.672-1.547c1.387,0,2.691,0.549,3.672,1.547c2.025,2.06,2.025,5.41,0,7.469
	C11.19,299.336,9.886,299.886,8.499,299.886z"/>
</svg>
