<?xml version="1.0" encoding="utf-8"?>
<!-- Generator: Adobe Illustrator 16.0.0, SVG Export Plug-In . SVG Version: 6.00 Build 0)  -->
<!DOCTYPE svg PUBLIC "-//W3C//DTD SVG 1.1//EN" "http://www.w3.org/Graphics/SVG/1.1/DTD/svg11.dtd">
<svg version="1.1" id="Layer_1" xmlns="http://www.w3.org/2000/svg" xmlns:xlink="http://www.w3.org/1999/xlink" x="0px" y="0px"
	 width="40px" height="20px" viewBox="0 285.961 40 20" enable-background="new 0 285.961 40 20" xml:space="preserve">
<path fill="#FFFFFF" d="M19.516,303.092L15.69,299.2c2.068-3.339,1.678-7.8-1.181-10.709c-1.66-1.687-3.835-2.53-6.01-2.53
	c-2.175,0-4.35,0.844-6.009,2.53c-3.319,3.376-3.319,8.849,0,12.225c1.66,1.688,3.834,2.531,6.009,2.531
	c1.727,0,3.449-0.54,4.918-1.604l3.763,3.826c0.323,0.328,0.746,0.492,1.168,0.492s0.847-0.164,1.168-0.492
	C20.161,304.813,20.161,303.748,19.516,303.092z M8.499,299.886c-1.387,0-2.692-0.55-3.672-1.548c-2.024-2.059-2.024-5.409,0-7.469
	c0.981-0.998,2.286-1.547,3.672-1.547c1.387,0,2.691,0.549,3.672,1.547c2.025,2.06,2.025,5.41,0,7.469
	C11.19,299.336,9.886,299.886,8.499,299.886z"/>
<path fill="#FFD700" d="M39.516,303.092l-3.827-3.892c2.068-3.339,1.679-7.8-1.181-10.709c-1.66-1.687-3.834-2.53-6.009-2.53
	s-4.35,0.844-6.009,2.53c-3.319,3.376-3.319,8.849,0,12.225c1.659,1.688,3.834,2.531,6.009,2.531c1.727,0,3.449-0.54,4.917-1.604
	l3.763,3.826c0.323,0.328,0.746,0.492,1.169,0.492c0.422,0,0.845-0.164,1.168-0.492C40.161,304.813,40.161,303.748,39.516,303.092z
	 M28.499,299.886c-1.387,0-2.692-0.55-3.672-1.548c-2.025-2.059-2.025-5.409,0-7.469c0.98-0.998,2.285-1.547,3.672-1.547
	s2.692,0.549,3.672,1.547c2.025,2.06,2.025,5.41,0,7.469C31.19,299.336,29.886,299.886,28.499,299.886z"/>
</svg>
