<?xml version="1.0" encoding="utf-8"?>
<!-- Generator: Adobe Illustrator 22.1.0, SVG Export Plug-In . SVG Version: 6.00 Build 0)  -->
<svg version="1.1" id="Layer_1" xmlns="http://www.w3.org/2000/svg" xmlns:xlink="http://www.w3.org/1999/xlink" x="0px" y="0px"
	 viewBox="0 0 167 167" enable-background="new 0 0 167 167" xml:space="preserve">
<g>
	<path fill="#FFFFFF" d="M83.5,0C37.458,0,0,37.458,0,83.5S37.458,167,83.5,167S167,129.542,167,83.5S129.542,0,83.5,0z M83.5,160
		C41.317,160,7,125.682,7,83.5S41.317,7,83.5,7S160,41.318,160,83.5S125.683,160,83.5,160z"/>
	<path fill="#FFFFFF" d="M53.159,104.954H38.618v3.5c0,9.948,8.093,18.04,18.041,18.04h49.683c9.948,0,18.041-8.093,18.041-18.04
		V40.505H53.159V104.954z M56.659,119.495c-4.865,0-9.006-3.163-10.473-7.54h42.455c0.553,2.798,1.754,5.367,3.441,7.54H56.659z
		 M60.159,47.505h57.224v60.949c0,6.088-4.953,11.04-11.041,11.04c-6.088,0-11.041-4.953-11.041-11.04v-3.5H60.159V47.505z"/>
	<path fill="#FFFFFF" d="M67.966,61.073h41.836c1.933,0,3.5-1.567,3.5-3.5c0-1.933-1.567-3.5-3.5-3.5H67.966
		c-1.933,0-3.5,1.567-3.5,3.5C64.466,59.506,66.033,61.073,67.966,61.073z"/>
	<path fill="#FFFFFF" d="M67.966,74.113h41.836c1.933,0,3.5-1.567,3.5-3.5c0-1.933-1.567-3.5-3.5-3.5H67.966
		c-1.933,0-3.5,1.567-3.5,3.5C64.466,72.546,66.033,74.113,67.966,74.113z"/>
	<path fill="#FFFFFF" d="M67.966,87.155h41.836c1.933,0,3.5-1.567,3.5-3.5s-1.567-3.5-3.5-3.5H67.966c-1.933,0-3.5,1.567-3.5,3.5
		S66.033,87.155,67.966,87.155z"/>
	<path fill="#FFFFFF" d="M113.302,96.695c0-1.933-1.567-3.5-3.5-3.5H67.966c-1.933,0-3.5,1.567-3.5,3.5s1.567,3.5,3.5,3.5h41.836
		C111.734,100.195,113.302,98.628,113.302,96.695z"/>
</g>
</svg>
