<?xml version="1.0" encoding="utf-8"?>
<!-- Generator: Adobe Illustrator 22.1.0, SVG Export Plug-In . SVG Version: 6.00 Build 0)  -->
<svg version="1.1" id="Layer_1" xmlns="http://www.w3.org/2000/svg" xmlns:xlink="http://www.w3.org/1999/xlink" x="0px" y="0px"
	 viewBox="0 0 167 167" enable-background="new 0 0 167 167" xml:space="preserve">
<g>
	<path fill="#FFFFFF" d="M83.5,0.972C37.458,0.972,0,38.43,0,84.472s37.458,83.5,83.5,83.5s83.5-37.458,83.5-83.5
		S129.542,0.972,83.5,0.972z M83.5,160.972c-42.183,0-76.5-34.318-76.5-76.5c0-42.182,34.317-76.5,76.5-76.5S160,42.29,160,84.472
		C160,126.655,125.683,160.972,83.5,160.972z"/>
	<path fill="#FFFFFF" d="M133.696,62.233H82.664l-32.854-18.1c-0.443-0.245-0.941-0.372-1.447-0.372h-15.06
		c-1.367,0-2.563,0.925-2.904,2.249c-0.343,1.324,0.254,2.712,1.45,3.375l23.184,12.848H38.927c-0.912,0-1.774,0.415-2.344,1.127
		C36.015,64.072,35.8,65.004,36,65.893l11.242,49.794c0.31,1.368,1.524,2.339,2.927,2.339h6.994
		c-1.001,1.718-1.585,3.707-1.585,5.834c0,6.415,5.22,11.633,11.635,11.633c6.414,0,11.633-5.219,11.633-11.633
		c0-2.127-0.584-4.117-1.585-5.834h18.501c-1.002,1.718-1.585,3.707-1.585,5.834c0,6.415,5.219,11.633,11.634,11.633
		c6.414,0,11.633-5.219,11.633-11.633c0-2.127-0.584-4.117-1.585-5.834h6.593c1.402,0,2.617-0.971,2.927-2.339l11.245-49.794
		c0.2-0.889-0.014-1.822-0.583-2.534C135.471,62.647,134.608,62.233,133.696,62.233z M67.213,129.495
		c-3.107,0-5.635-2.527-5.635-5.633c0-3.106,2.527-5.634,5.635-5.634c3.105,0,5.633,2.527,5.633,5.634
		C72.846,126.968,70.318,129.495,67.213,129.495z M105.811,129.495c-3.106,0-5.634-2.527-5.634-5.633
		c0-3.106,2.527-5.634,5.634-5.634c3.105,0,5.633,2.527,5.633,5.634C111.443,126.968,108.916,129.495,105.811,129.495z
		 M44.906,49.761h2.686l22.64,12.472H67.41L44.906,49.761z M120.053,112.027H52.567L42.68,68.233h39.207c0,0,0.003,0,0.004,0
		c0,0,0.002,0,0.004,0h48.049L120.053,112.027z"/>
	<path fill="#FFFFFF" d="M66.635,77.492h-7.631c-1.657,0-3,1.343-3,3s1.343,3,3,3h7.631c1.657,0,3-1.343,3-3
		S68.292,77.492,66.635,77.492z"/>
	<path fill="#FFFFFF" d="M79.295,80.492c0,1.657,1.343,3,3,3h7.629c1.657,0,3-1.343,3-3s-1.343-3-3-3h-7.629
		C80.638,77.492,79.295,78.835,79.295,80.492z"/>
	<path fill="#FFFFFF" d="M105.586,83.492h7.63c1.657,0,3-1.343,3-3s-1.343-3-3-3h-7.63c-1.657,0-3,1.343-3,3
		S103.929,83.492,105.586,83.492z"/>
	<path fill="#FFFFFF" d="M66.635,87.13h-7.631c-1.657,0-3,1.343-3,3s1.343,3,3,3h7.631c1.657,0,3-1.343,3-3
		S68.292,87.13,66.635,87.13z"/>
	<path fill="#FFFFFF" d="M89.924,87.13h-7.629c-1.657,0-3,1.343-3,3s1.343,3,3,3h7.629c1.657,0,3-1.343,3-3
		S91.581,87.13,89.924,87.13z"/>
	<path fill="#FFFFFF" d="M105.586,93.13h7.63c1.657,0,3-1.343,3-3s-1.343-3-3-3h-7.63c-1.657,0-3,1.343-3,3
		S103.929,93.13,105.586,93.13z"/>
	<path fill="#FFFFFF" d="M66.635,96.768h-7.631c-1.657,0-3,1.343-3,3c0,1.657,1.343,3,3,3h7.631c1.657,0,3-1.343,3-3
		C69.635,98.111,68.292,96.768,66.635,96.768z"/>
	<path fill="#FFFFFF" d="M89.924,96.768h-7.629c-1.657,0-3,1.343-3,3c0,1.657,1.343,3,3,3h7.629c1.657,0,3-1.343,3-3
		C92.924,98.111,91.581,96.768,89.924,96.768z"/>
	<path fill="#FFFFFF" d="M105.586,102.768h7.63c1.657,0,3-1.343,3-3c0-1.657-1.343-3-3-3h-7.63c-1.657,0-3,1.343-3,3
		C102.586,101.424,103.929,102.768,105.586,102.768z"/>
</g>
</svg>
