<?xml version="1.0" encoding="utf-8"?>
<!-- Generator: Adobe Illustrator 22.1.0, SVG Export Plug-In . SVG Version: 6.00 Build 0)  -->
<svg version="1.1" id="Layer_1" xmlns="http://www.w3.org/2000/svg" xmlns:xlink="http://www.w3.org/1999/xlink" x="0px" y="0px"
	 viewBox="0 0 167 167.155" enable-background="new 0 0 167 167.155" xml:space="preserve">
<g>
	<path fill="#FFFFFF" d="M83.5,0C37.458,0,0,37.458,0,83.5S37.458,167,83.5,167S167,129.542,167,83.5S129.542,0,83.5,0z M83.5,160
		C41.317,160,7,125.682,7,83.5S41.317,7,83.5,7S160,41.318,160,83.5S125.683,160,83.5,160z"/>
	<path fill="#FFFFFF" d="M116.382,53.647H99.645v-7.721c0-3.305-2.916-5.994-6.5-5.994H73.848c-3.584,0-6.5,2.689-6.5,5.994v7.721
		H54.996v-3.25c0-0.829-0.691-1.5-1.542-1.5h-9.916c-0.852,0-1.542,0.671-1.542,1.5v5.25c0,0.13,0.022,0.254,0.055,0.375
		c-5.754,3.404-9.682,10.119-9.682,17.838v29.572c0,11.146,8.183,20.213,18.241,20.213h65.771c10.059,0,18.241-9.068,18.241-20.213
		V73.86C134.623,62.715,126.44,53.647,116.382,53.647z M74.348,53.646v-6.713l18.297,0.001v6.713L74.348,53.646z M127.623,103.433
		c0,7.286-5.043,13.213-11.241,13.213H50.61c-6.198,0-11.241-5.928-11.241-13.213V73.86c0-7.286,5.043-13.213,11.241-13.213h23.237
		h19.297h23.237c6.198,0,11.241,5.927,11.241,13.213V103.433z"/>
	<path fill="#FFFFFF" d="M83.496,68.86c-10.91,0-19.786,8.877-19.786,19.787c0,10.91,8.876,19.786,19.786,19.786
		c10.91,0,19.786-8.876,19.786-19.786C103.282,77.737,94.406,68.86,83.496,68.86z M83.496,101.433
		c-7.051,0-12.786-5.736-12.786-12.786c0-7.051,5.735-12.787,12.786-12.787c7.051,0,12.786,5.736,12.786,12.787
		C96.282,95.697,90.547,101.433,83.496,101.433z"/>
	<path fill="#FFFFFF" d="M114.496,66.361c-3.315,0-5.999,2.686-5.999,5.999s2.685,5.999,5.999,5.999
		c3.314,0,5.999-2.686,5.999-5.999S117.81,66.361,114.496,66.361z"/>
</g>
</svg>
