<?xml version="1.0" encoding="utf-8"?>
<!-- Generator: Adobe Illustrator 22.1.0, SVG Export Plug-In . SVG Version: 6.00 Build 0)  -->
<svg version="1.1" id="Layer_1" xmlns="http://www.w3.org/2000/svg" xmlns:xlink="http://www.w3.org/1999/xlink" x="0px" y="0px"
	 viewBox="0 0 167 167" enable-background="new 0 0 167 167" xml:space="preserve">
<g>
	<path fill="#FFFFFF" d="M83.5,0.972C37.458,0.972,0,38.43,0,84.472s37.458,83.5,83.5,83.5s83.5-37.458,83.5-83.5
		S129.542,0.972,83.5,0.972z M83.5,160.972c-42.183,0-76.5-34.318-76.5-76.5s34.317-76.5,76.5-76.5S160,42.29,160,84.472
		S125.683,160.972,83.5,160.972z"/>
	<path fill="#FFFFFF" d="M122.646,81.595L65.709,48.723c-1.082-0.625-2.418-0.625-3.5,0c-1.083,0.625-1.75,1.781-1.75,3.031V117.5
		c0,1.251,0.667,2.406,1.75,3.031c0.541,0.313,1.145,0.469,1.75,0.469c0.604,0,1.209-0.156,1.75-0.469l56.937-32.874
		c1.083-0.626,1.75-1.781,1.75-3.031C124.396,83.376,123.729,82.221,122.646,81.595z M67.459,111.438V57.817l46.437,26.81
		L67.459,111.438z"/>
</g>
</svg>
