<?xml version="1.0" encoding="utf-8"?>
<!-- Generator: Adobe Illustrator 16.0.0, SVG Export Plug-In . SVG Version: 6.00 Build 0)  -->
<!DOCTYPE svg PUBLIC "-//W3C//DTD SVG 1.1//EN" "http://www.w3.org/Graphics/SVG/1.1/DTD/svg11.dtd">
<svg version="1.1" id="Layer_1" xmlns="http://www.w3.org/2000/svg" xmlns:xlink="http://www.w3.org/1999/xlink" x="0px" y="0px"
	 width="17.694px" height="16px" viewBox="0 0 17.694 16" enable-background="new 0 0 17.694 16" xml:space="preserve">
<g>
	<path fill="#60615A" d="M0.549,12.381h0.011c0.936-0.019,1.418-0.583,1.77-0.996c0.337-0.395,0.533-0.602,0.956-0.609
		c0.415-0.011,0.626,0.19,0.979,0.571c0.369,0.398,0.881,0.95,1.809,0.925c0.936-0.019,1.417-0.584,1.77-0.995
		c0.338-0.396,0.533-0.603,0.956-0.61c0.416-0.013,0.626,0.189,0.979,0.571c0.368,0.397,0.882,0.938,1.808,0.925
		c0.937-0.02,1.419-0.583,1.771-0.996c0.338-0.396,0.533-0.602,0.957-0.61c0.42-0.015,0.627,0.19,0.98,0.572
		c0.367,0.397,0.867,0.942,1.809,0.924c0.303-0.006,0.545-0.257,0.539-0.561s-0.256-0.539-0.561-0.538
		c-0.426,0.006-0.627-0.19-0.98-0.572c-0.367-0.397-0.869-0.94-1.809-0.924c-0.432,0.009-0.764,0.135-1.033,0.307V2.101
		c0-0.552,0.449-1.002,1-1.002c0.305,0,0.551-0.246,0.551-0.549c0-0.304-0.246-0.55-0.551-0.55c-1.158,0-2.1,0.942-2.1,2.101v1.798
		H8.347V2.101c0-0.552,0.449-1.002,1.001-1.002c0.304,0,0.55-0.246,0.55-0.549C9.898,0.246,9.652,0,9.348,0
		C8.19,0,7.248,0.942,7.248,2.101v8.191c-0.087,0.093-0.167,0.185-0.24,0.27c-0.338,0.396-0.534,0.603-0.956,0.61
		c-0.429,0.018-0.626-0.19-0.979-0.571c-0.368-0.398-0.879-0.937-1.808-0.925c-0.936,0.019-1.418,0.584-1.77,0.996
		c-0.337,0.395-0.533,0.602-0.956,0.609C0.235,11.288-0.006,11.539,0,11.842C0.006,12.143,0.251,12.381,0.549,12.381 M11.565,11.063
		c-0.425,0.01-0.626-0.19-0.979-0.571c-0.369-0.398-0.879-0.933-1.81-0.925C8.621,9.569,8.48,9.593,8.347,9.623V8.295h3.813v2.54
		C11.991,10.979,11.819,11.058,11.565,11.063 M12.16,7.196H8.347V4.999h3.813V7.196z"/>
	<path fill="#60615A" d="M17.133,14.571c-0.42,0.012-0.627-0.189-0.98-0.571c-0.367-0.397-0.867-0.933-1.809-0.924
		c-0.936,0.019-1.418,0.583-1.771,0.995c-0.337,0.396-0.533,0.602-0.956,0.61c-0.427,0.016-0.627-0.19-0.979-0.571
		c-0.368-0.398-0.878-0.939-1.809-0.925c-0.936,0.019-1.418,0.583-1.77,0.995c-0.338,0.396-0.534,0.603-0.957,0.61
		c-0.43,0.01-0.626-0.19-0.979-0.571c-0.368-0.398-0.878-0.944-1.808-0.925c-0.936,0.019-1.418,0.584-1.77,0.996
		C1.208,14.686,1.013,14.893,0.59,14.9c-0.304,0.007-0.545,0.258-0.539,0.561C0.058,15.761,0.302,16,0.601,16h0.011
		c0.936-0.019,1.417-0.583,1.769-0.996c0.337-0.395,0.533-0.602,0.956-0.61c0.419-0.01,0.626,0.19,0.979,0.572
		c0.368,0.397,0.881,0.942,1.808,0.925c0.936-0.019,1.418-0.584,1.771-0.996c0.337-0.395,0.533-0.602,0.956-0.609
		c0.414-0.013,0.627,0.189,0.979,0.571c0.367,0.398,0.883,0.946,1.808,0.925c0.937-0.02,1.418-0.584,1.772-0.996
		c0.336-0.396,0.533-0.602,0.955-0.61c0.418-0.009,0.627,0.19,0.98,0.572c0.369,0.397,0.869,0.936,1.809,0.924
		c0.305-0.006,0.545-0.257,0.539-0.561S17.438,14.579,17.133,14.571"/>
</g>
</svg>
