<?xml version="1.0" encoding="utf-8"?>
<!-- Generator: Adobe Illustrator 16.0.0, SVG Export Plug-In . SVG Version: 6.00 Build 0)  -->
<!DOCTYPE svg PUBLIC "-//W3C//DTD SVG 1.1//EN" "http://www.w3.org/Graphics/SVG/1.1/DTD/svg11.dtd">
<svg version="1.1" id="Layer_1" xmlns="http://www.w3.org/2000/svg" xmlns:xlink="http://www.w3.org/1999/xlink" x="0px" y="0px"
	 width="11.393px" height="16px" viewBox="0 0 11.393 16" enable-background="new 0 0 11.393 16" xml:space="preserve">
<g>
	<path fill="#E62851" d="M5.012,0C4.719,0,4.483,0.241,4.483,0.538v2.53c0,0.771-0.497,1.426-1.183,1.653V0.538
		C3.3,0.241,3.063,0,2.771,0S2.241,0.241,2.241,0.538V4.72C1.556,4.493,1.059,3.838,1.059,3.067v-2.53C1.059,0.241,0.822,0,0.53,0
		C0.237,0,0,0.241,0,0.538v2.53c0,1.368,0.966,2.51,2.241,2.762v3.611c-0.722,0.229-1.245,0.914-1.245,1.722v3.035
		C0.996,15.191,1.792,16,2.771,16c0.979,0,1.774-0.809,1.774-1.803v-3.035c0-0.807-0.524-1.491-1.245-1.721V5.829
		c1.275-0.252,2.241-1.394,2.241-2.762v-2.53C5.542,0.241,5.304,0,5.012,0 M3.486,14.197c0,0.4-0.32,0.728-0.715,0.728
		S2.055,14.6,2.055,14.197v-3.035c0-0.4,0.321-0.729,0.716-0.729c0.396,0,0.715,0.327,0.715,0.729V14.197z"/>
	<path fill="#E62851" d="M10.864,0H9.645C8.583,0,7.72,0.864,7.72,1.925V5.36c0,1.062,0.863,1.925,1.925,1.925h0.689v1.432H9.826
		c-1.024,0-1.856,0.833-1.856,1.856v3.569C7.969,15.167,8.801,16,9.826,16h1.037c0.292,0,0.529-0.236,0.529-0.529V0.529
		C11.393,0.237,11.156,0,10.864,0 M10.334,14.941H9.826c-0.44,0-0.799-0.358-0.799-0.799v-3.57c0-0.439,0.357-0.799,0.799-0.799
		h0.509L10.334,14.941L10.334,14.941z M10.334,6.226H9.645c-0.478,0-0.866-0.389-0.866-0.866V1.925c0-0.477,0.39-0.866,0.866-0.866
		h0.689V6.226z"/>
</g>
</svg>
