<?xml version="1.0" encoding="utf-8"?>
<!-- Generator: Adobe Illustrator 16.0.0, SVG Export Plug-In . SVG Version: 6.00 Build 0)  -->
<!DOCTYPE svg PUBLIC "-//W3C//DTD SVG 1.1//EN" "http://www.w3.org/Graphics/SVG/1.1/DTD/svg11.dtd">
<svg version="1.1" id="Layer_1" xmlns="http://www.w3.org/2000/svg" xmlns:xlink="http://www.w3.org/1999/xlink" x="0px" y="0px"
	 width="20px" height="20px" viewBox="0 0 20 20" enable-background="new 0 0 20 20" xml:space="preserve">
<path fill="#60615A" d="M158.576,239.053h-51.672c-3.191,0-5.79,2.598-5.79,5.79v51.672c0,3.192,2.599,5.79,5.79,5.79h51.672
	c3.191,0,5.79-2.598,5.79-5.79v-51.672C164.366,241.65,161.768,239.053,158.576,239.053 M160.114,296.515
	c0,0.849-0.69,1.538-1.538,1.538h-51.672c-0.848,0-1.538-0.689-1.538-1.538v-51.672c0-0.849,0.69-1.538,1.538-1.538h51.672
	c0.848,0,1.538,0.689,1.538,1.538V296.515z"/>
<path fill="#60615A" d="M149.49,256.053h-9.124v-5.161c0-1.727-1.405-3.132-3.132-3.132h-8.988c-1.727,0-3.132,1.405-3.132,3.132
	v5.161h-9.124c-3.24,0-5.876,2.637-5.876,5.876v24.5c0,3.24,2.636,5.876,5.876,5.876h33.5c3.24,0,5.876-2.636,5.876-5.876v-24.5
	C155.366,258.689,152.73,256.053,149.49,256.053 M141.114,288.053h-15.748v-27.748h15.748V288.053z M129.366,252.012h6.748v4.041
	h-6.748V252.012z M114.366,286.429v-24.5c0-0.896,0.728-1.624,1.624-1.624h5.124v27.748h-5.124
	C115.094,288.053,114.366,287.324,114.366,286.429 M151.114,286.429c0,0.896-0.729,1.624-1.624,1.624h-4.124v-27.748h4.124
	c0.895,0,1.624,0.729,1.624,1.624V286.429z"/>
<g>
	<path fill="#E62851" d="M10,0C4.486,0,0,4.486,0,10c0,5.514,4.486,10,10,10s10-4.486,10-10C20,4.486,15.515,0,10,0z M10,18.372
		c-4.617,0-8.373-3.756-8.373-8.372c0-4.617,3.755-8.373,8.373-8.373c4.617,0,8.373,3.756,8.373,8.373
		C18.373,14.616,14.617,18.372,10,18.372z"/>
	<circle fill="#E62851" cx="6.603" cy="8.614" r="0.999"/>
	<circle fill="#E62851" cx="13.398" cy="8.614" r="0.999"/>
	<path fill="#E62851" d="M10,11.871c-1,0-1.934,0.539-2.437,1.407c-0.157,0.271-0.064,0.616,0.206,0.773
		c0.271,0.157,0.617,0.065,0.774-0.206c0.301-0.52,0.859-0.843,1.457-0.843s1.156,0.323,1.457,0.843
		c0.105,0.182,0.295,0.283,0.491,0.283c0.096,0,0.194-0.025,0.283-0.077c0.271-0.157,0.363-0.503,0.206-0.773
		C11.935,12.41,11,11.871,10,11.871z"/>
</g>
</svg>
