<?xml version="1.0" encoding="utf-8"?>
<!-- Generator: Adobe Illustrator 16.0.0, SVG Export Plug-In . SVG Version: 6.00 Build 0)  -->
<!DOCTYPE svg PUBLIC "-//W3C//DTD SVG 1.1//EN" "http://www.w3.org/Graphics/SVG/1.1/DTD/svg11.dtd">
<svg version="1.1" id="Layer_1" xmlns="http://www.w3.org/2000/svg" xmlns:xlink="http://www.w3.org/1999/xlink" x="0px" y="0px"
	 width="16px" height="16px" viewBox="0 0 16 16" enable-background="new 0 0 16 16" xml:space="preserve">
<path fill="#60615A" d="M158.576,239.053h-51.672c-3.191,0-5.79,2.598-5.79,5.79v51.672c0,3.192,2.599,5.79,5.79,5.79h51.672
	c3.191,0,5.79-2.598,5.79-5.79v-51.672C164.366,241.65,161.768,239.053,158.576,239.053 M160.114,296.515
	c0,0.849-0.69,1.538-1.538,1.538h-51.672c-0.848,0-1.538-0.689-1.538-1.538v-51.672c0-0.849,0.69-1.538,1.538-1.538h51.672
	c0.848,0,1.538,0.689,1.538,1.538V296.515z"/>
<path fill="#60615A" d="M149.49,256.053h-9.124v-5.161c0-1.727-1.405-3.132-3.132-3.132h-8.988c-1.727,0-3.132,1.405-3.132,3.132
	v5.161h-9.124c-3.24,0-5.876,2.637-5.876,5.876v24.5c0,3.24,2.636,5.876,5.876,5.876h33.5c3.24,0,5.876-2.636,5.876-5.876v-24.5
	C155.366,258.689,152.73,256.053,149.49,256.053 M141.114,288.053h-15.748v-27.748h15.748V288.053z M129.366,252.012h6.748v4.041
	h-6.748V252.012z M114.366,286.429v-24.5c0-0.896,0.728-1.624,1.624-1.624h5.124v27.748h-5.124
	C115.094,288.053,114.366,287.324,114.366,286.429 M151.114,286.429c0,0.896-0.729,1.624-1.624,1.624h-4.124v-27.748h4.124
	c0.895,0,1.624,0.729,1.624,1.624V286.429z"/>
<path fill="#60615A" d="M8,0C3.589,0,0,3.589,0,8s3.589,8,8,8s8-3.589,8-8S12.411,0,8,0 M8,14.698c-3.693,0-6.698-3.005-6.698-6.698
	S4.307,1.302,8,1.302S14.698,4.307,14.698,8S11.693,14.698,8,14.698"/>
<path fill="#60615A" d="M8,5.818c-0.359,0-0.651,0.292-0.651,0.651v5.512c0,0.36,0.292,0.651,0.651,0.651s0.651-0.291,0.651-0.651
	V6.469C8.651,6.109,8.359,5.818,8,5.818"/>
<path fill="#60615A" d="M8,4.632c0.338,0,0.612-0.274,0.612-0.612c0-0.338-0.274-0.613-0.612-0.613S7.388,3.681,7.388,4.02
	C7.388,4.357,7.662,4.632,8,4.632"/>
</svg>
