<?xml version="1.0" encoding="utf-8"?>
<!-- Generator: Adobe Illustrator 16.0.0, SVG Export Plug-In . SVG Version: 6.00 Build 0)  -->
<!DOCTYPE svg PUBLIC "-//W3C//DTD SVG 1.1//EN" "http://www.w3.org/Graphics/SVG/1.1/DTD/svg11.dtd">
<svg version="1.1" id="Layer_1" xmlns="http://www.w3.org/2000/svg" xmlns:xlink="http://www.w3.org/1999/xlink" x="0px" y="0px"
	 width="16.875px" height="16px" viewBox="0 0 16.875 16" enable-background="new 0 0 16.875 16" xml:space="preserve">
<path fill="#60615A" d="M158.576,239.053h-51.672c-3.191,0-5.79,2.598-5.79,5.79v51.672c0,3.192,2.599,5.79,5.79,5.79h51.672
	c3.191,0,5.79-2.598,5.79-5.79v-51.672C164.366,241.65,161.768,239.053,158.576,239.053 M160.114,296.515
	c0,0.849-0.69,1.538-1.538,1.538h-51.672c-0.848,0-1.538-0.689-1.538-1.538v-51.672c0-0.849,0.69-1.538,1.538-1.538h51.672
	c0.848,0,1.538,0.689,1.538,1.538V296.515z"/>
<path fill="#60615A" d="M149.49,256.053h-9.124v-5.161c0-1.727-1.405-3.132-3.132-3.132h-8.988c-1.727,0-3.132,1.405-3.132,3.132
	v5.161h-9.124c-3.24,0-5.876,2.637-5.876,5.876v24.5c0,3.24,2.636,5.876,5.876,5.876h33.5c3.24,0,5.876-2.636,5.876-5.876v-24.5
	C155.366,258.689,152.73,256.053,149.49,256.053 M141.114,288.053h-15.748v-27.748h15.748V288.053z M129.366,252.012h6.748v4.041
	h-6.748V252.012z M114.366,286.429v-24.5c0-0.896,0.728-1.624,1.624-1.624h5.124v27.748h-5.124
	C115.094,288.053,114.366,287.324,114.366,286.429 M151.114,286.429c0,0.896-0.729,1.624-1.624,1.624h-4.124v-27.748h4.124
	c0.895,0,1.624,0.729,1.624,1.624V286.429z"/>
<path fill="#60615A" d="M16.537,7.521L9.422,0.408c-0.543-0.543-1.427-0.543-1.97,0L0.338,7.522C0.007,7.854-0.091,8.347,0.088,8.78
	c0.179,0.433,0.598,0.712,1.066,0.712h1.012v4.752C2.167,15.213,2.954,16,3.922,16h9.03c0.969,0,1.756-0.787,1.756-1.756V9.492
	h1.012c0.469,0,0.887-0.279,1.066-0.712C16.965,8.347,16.867,7.854,16.537,7.521 M14.133,8.339c-0.318,0-0.578,0.258-0.578,0.577
	v5.328c0,0.333-0.27,0.604-0.602,0.604h-9.03c-0.333,0-0.603-0.271-0.603-0.604V8.916c0-0.319-0.258-0.577-0.576-0.577L1.154,8.337
	l7.114-7.114c0.047-0.047,0.108-0.07,0.17-0.07s0.123,0.023,0.17,0.07l7.113,7.116H14.133z"/>
<path fill="#60615A" d="M6.132,9.591c-0.38-0.38-0.566-0.76-0.552-1.127c0.021-0.567,0.502-0.992,0.518-1.006
	c0.242-0.204,0.274-0.566,0.071-0.81C5.965,6.403,5.602,6.371,5.357,6.574c-0.09,0.075-0.88,0.764-0.928,1.83
	c-0.031,0.684,0.248,1.337,0.829,1.941c0.02,0.021,0.039,0.042,0.054,0.066c0.16,0.244,0.512,0.994-0.466,1.831
	c-0.216,0.185-0.306,0.501-0.166,0.748c0.11,0.196,0.306,0.298,0.504,0.298c0.13,0,0.261-0.044,0.369-0.134
	c1.636-1.363,1.117-2.904,0.618-3.521C6.159,9.619,6.146,9.605,6.132,9.591"/>
<path fill="#60615A" d="M7.411,8.404C7.38,9.088,7.659,9.741,8.24,10.346c0.02,0.021,0.039,0.042,0.054,0.066
	c0.16,0.244,0.512,0.994-0.466,1.831c-0.216,0.185-0.306,0.501-0.166,0.748c0.11,0.196,0.306,0.298,0.504,0.298
	c0.13,0,0.261-0.044,0.369-0.134c1.636-1.363,1.117-2.903,0.618-3.521C9.142,9.618,9.129,9.605,9.115,9.591
	c-0.38-0.38-0.566-0.76-0.552-1.127c0.021-0.567,0.502-0.992,0.518-1.006c0.242-0.204,0.274-0.566,0.071-0.81
	C8.948,6.403,8.584,6.371,8.339,6.574C8.25,6.649,7.46,7.338,7.411,8.404"/>
<path fill="#60615A" d="M11.277,10.412c0.16,0.244,0.512,0.994-0.466,1.831c-0.216,0.185-0.306,0.501-0.167,0.748
	c0.11,0.196,0.307,0.298,0.505,0.298c0.13,0,0.261-0.044,0.369-0.134c1.636-1.363,1.117-2.904,0.618-3.521
	c-0.012-0.015-0.025-0.028-0.039-0.043c-0.38-0.38-0.566-0.76-0.552-1.127c0.021-0.567,0.502-0.992,0.518-1.006
	c0.242-0.204,0.274-0.566,0.071-0.81c-0.204-0.245-0.567-0.277-0.812-0.074c-0.09,0.075-0.88,0.764-0.928,1.83
	c-0.031,0.684,0.248,1.337,0.829,1.941C11.243,10.366,11.262,10.388,11.277,10.412"/>
</svg>
