<?xml version="1.0" encoding="utf-8"?>
<!-- Generator: Adobe Illustrator 16.0.0, SVG Export Plug-In . SVG Version: 6.00 Build 0)  -->
<!DOCTYPE svg PUBLIC "-//W3C//DTD SVG 1.1//EN" "http://www.w3.org/Graphics/SVG/1.1/DTD/svg11.dtd">
<svg version="1.1" id="Layer_1" xmlns="http://www.w3.org/2000/svg" xmlns:xlink="http://www.w3.org/1999/xlink" x="0px" y="0px"
	 width="18.369px" height="16px" viewBox="0 0 18.369 16" enable-background="new 0 0 18.369 16" xml:space="preserve">
<path fill="#60615A" d="M158.576,239.053h-51.672c-3.191,0-5.79,2.598-5.79,5.79v51.672c0,3.192,2.599,5.79,5.79,5.79h51.672
	c3.191,0,5.79-2.598,5.79-5.79v-51.672C164.366,241.65,161.768,239.053,158.576,239.053 M160.114,296.515
	c0,0.849-0.69,1.538-1.538,1.538h-51.672c-0.848,0-1.538-0.689-1.538-1.538v-51.672c0-0.849,0.69-1.538,1.538-1.538h51.672
	c0.848,0,1.538,0.689,1.538,1.538V296.515z"/>
<path fill="#60615A" d="M149.49,256.053h-9.124v-5.161c0-1.727-1.405-3.132-3.132-3.132h-8.988c-1.727,0-3.132,1.405-3.132,3.132
	v5.161h-9.124c-3.24,0-5.876,2.637-5.876,5.876v24.5c0,3.24,2.636,5.876,5.876,5.876h33.5c3.24,0,5.876-2.636,5.876-5.876v-24.5
	C155.366,258.689,152.73,256.053,149.49,256.053 M141.114,288.053h-15.748v-27.748h15.748V288.053z M129.366,252.012h6.748v4.041
	h-6.748V252.012z M114.366,286.429v-24.5c0-0.896,0.728-1.624,1.624-1.624h5.124v27.748h-5.124
	C115.094,288.053,114.366,287.324,114.366,286.429 M151.114,286.429c0,0.896-0.729,1.624-1.624,1.624h-4.124v-27.748h4.124
	c0.895,0,1.624,0.729,1.624,1.624V286.429z"/>
<g>
	<path fill="#60615A" d="M16.365,1.621H14.38V0.333C14.38,0.149,14.23,0,14.047,0h-0.748c-0.184,0-0.333,0.149-0.333,0.333v1.288
		H5.403V0.333C5.403,0.149,5.254,0,5.071,0H4.322C4.139,0,3.99,0.149,3.99,0.333v1.288H2.003C0.897,1.621,0,2.518,0,3.625v11.669
		C0,15.684,0.316,16,0.707,16h16.955c0.391,0,0.707-0.316,0.707-0.706V3.625C18.369,2.518,17.472,1.621,16.365,1.621 M16.955,14.587
		H1.414V6.026h15.542V14.587z M16.955,4.613H1.414V3.625c0-0.326,0.264-0.59,0.59-0.59H3.99v0.623c0,0.183,0.149,0.333,0.332,0.333
		h0.749c0.184,0,0.333-0.149,0.333-0.333V3.035h7.563v0.623c0,0.183,0.149,0.333,0.333,0.333h0.748c0.184,0,0.333-0.149,0.333-0.333
		V3.035h1.985c0.326,0,0.59,0.264,0.59,0.59V4.613z"/>
	<path fill="#60615A" d="M8.354,9.019h1.662c0.184,0,0.333-0.148,0.333-0.332V7.938c0-0.184-0.149-0.332-0.333-0.332H8.354
		c-0.184,0-0.333,0.148-0.333,0.332v0.749C8.021,8.87,8.17,9.019,8.354,9.019"/>
	<path fill="#60615A" d="M13.008,9.019h1.662c0.184,0,0.333-0.148,0.333-0.332V7.938c0-0.184-0.149-0.332-0.333-0.332h-1.662
		c-0.184,0-0.333,0.148-0.333,0.332v0.749C12.675,8.87,12.824,9.019,13.008,9.019"/>
	<path fill="#60615A" d="M13.008,12.344h1.662c0.184,0,0.333-0.149,0.333-0.333v-0.748c0-0.185-0.149-0.333-0.333-0.333h-1.662
		c-0.184,0-0.333,0.148-0.333,0.333v0.748C12.675,12.194,12.824,12.344,13.008,12.344"/>
	<path fill="#60615A" d="M8.354,12.344h1.662c0.184,0,0.333-0.149,0.333-0.333v-0.748c0-0.185-0.149-0.333-0.333-0.333H8.354
		c-0.184,0-0.333,0.148-0.333,0.333v0.748C8.021,12.194,8.17,12.344,8.354,12.344"/>
	<path fill="#60615A" d="M3.699,12.344h1.663c0.184,0,0.333-0.149,0.333-0.333v-0.748c0-0.185-0.149-0.333-0.333-0.333H3.699
		c-0.183,0-0.332,0.148-0.332,0.333v0.748C3.367,12.194,3.516,12.344,3.699,12.344"/>
</g>
</svg>
