<?xml version="1.0" encoding="utf-8"?>
<!-- Generator: Adobe Illustrator 16.0.0, SVG Export Plug-In . SVG Version: 6.00 Build 0)  -->
<!DOCTYPE svg PUBLIC "-//W3C//DTD SVG 1.1//EN" "http://www.w3.org/Graphics/SVG/1.1/DTD/svg11.dtd">
<svg version="1.1" id="Layer_1" xmlns="http://www.w3.org/2000/svg" xmlns:xlink="http://www.w3.org/1999/xlink" x="0px" y="0px"
	 width="14.9px" height="16px" viewBox="0 0 14.9 16" enable-background="new 0 0 14.9 16" xml:space="preserve">
<path fill="#60615A" d="M158.576,239.053h-51.672c-3.191,0-5.79,2.598-5.79,5.79v51.672c0,3.192,2.599,5.79,5.79,5.79h51.672
	c3.191,0,5.79-2.598,5.79-5.79v-51.672C164.366,241.65,161.768,239.053,158.576,239.053 M160.114,296.515
	c0,0.849-0.69,1.538-1.538,1.538h-51.672c-0.848,0-1.538-0.689-1.538-1.538v-51.672c0-0.849,0.69-1.538,1.538-1.538h51.672
	c0.848,0,1.538,0.689,1.538,1.538V296.515z"/>
<path fill="#60615A" d="M149.49,256.053h-9.124v-5.161c0-1.727-1.405-3.132-3.132-3.132h-8.988c-1.727,0-3.132,1.405-3.132,3.132
	v5.161h-9.124c-3.24,0-5.876,2.637-5.876,5.876v24.5c0,3.24,2.636,5.876,5.876,5.876h33.5c3.24,0,5.876-2.636,5.876-5.876v-24.5
	C155.366,258.689,152.73,256.053,149.49,256.053 M141.114,288.053h-15.748v-27.748h15.748V288.053z M129.366,252.012h6.748v4.041
	h-6.748V252.012z M114.366,286.429v-24.5c0-0.896,0.728-1.624,1.624-1.624h5.124v27.748h-5.124
	C115.094,288.053,114.366,287.324,114.366,286.429 M151.114,286.429c0,0.896-0.729,1.624-1.624,1.624h-4.124v-27.748h4.124
	c0.895,0,1.624,0.729,1.624,1.624V286.429z"/>
<path fill="#60615A" d="M13.293,0H1.609C0.722,0,0,0.722,0,1.609v11.683c0,0.888,0.722,1.609,1.609,1.609h0.268v0.515
	C1.877,15.738,2.138,16,2.461,16s0.584-0.262,0.584-0.584v-0.515h8.811v0.515c0,0.322,0.262,0.584,0.584,0.584
	c0.323,0,0.583-0.262,0.583-0.584v-0.515h0.27c0.887,0,1.607-0.722,1.607-1.609V1.609C14.9,0.722,14.18,0,13.293,0 M1.609,1.168
	h11.684c0.242,0,0.441,0.198,0.441,0.441v6.906H1.168V1.609C1.168,1.366,1.366,1.168,1.609,1.168 M13.293,13.733H1.609
	c-0.243,0-0.441-0.198-0.441-0.441V9.683h12.566v3.609C13.734,13.535,13.535,13.733,13.293,13.733"/>
<path fill="#60615A" d="M4.155,3.365h6.592c0.323,0,0.584-0.262,0.584-0.584s-0.261-0.584-0.584-0.584H4.155
	c-0.323,0-0.584,0.262-0.584,0.584S3.832,3.365,4.155,3.365"/>
<path fill="#60615A" d="M12.395,11.021c-0.455,0-0.824,0.369-0.824,0.824s0.369,0.823,0.824,0.823s0.824-0.368,0.824-0.823
	S12.85,11.021,12.395,11.021"/>
<path fill="#60615A" d="M2.507,11.021c-0.455,0-0.824,0.369-0.824,0.824s0.369,0.823,0.824,0.823s0.824-0.368,0.824-0.823
	S2.962,11.021,2.507,11.021"/>
</svg>
