<?xml version="1.0" encoding="utf-8"?>
<!-- Generator: Adobe Illustrator 16.0.0, SVG Export Plug-In . SVG Version: 6.00 Build 0)  -->
<!DOCTYPE svg PUBLIC "-//W3C//DTD SVG 1.1//EN" "http://www.w3.org/Graphics/SVG/1.1/DTD/svg11.dtd">
<svg version="1.1" id="Layer_1" xmlns="http://www.w3.org/2000/svg" xmlns:xlink="http://www.w3.org/1999/xlink" x="0px" y="0px"
	 width="20.925px" height="16px" viewBox="0 0 20.925 16" enable-background="new 0 0 20.925 16" xml:space="preserve">
<path fill="#60615A" d="M158.576,239.053h-51.672c-3.191,0-5.79,2.598-5.79,5.79v51.672c0,3.192,2.599,5.79,5.79,5.79h51.672
	c3.191,0,5.79-2.598,5.79-5.79v-51.672C164.366,241.65,161.768,239.053,158.576,239.053 M160.114,296.515
	c0,0.849-0.69,1.538-1.538,1.538h-51.672c-0.848,0-1.538-0.689-1.538-1.538v-51.672c0-0.849,0.69-1.538,1.538-1.538h51.672
	c0.848,0,1.538,0.689,1.538,1.538V296.515z"/>
<path fill="#60615A" d="M149.49,256.053h-9.124v-5.161c0-1.727-1.405-3.132-3.132-3.132h-8.988c-1.727,0-3.132,1.405-3.132,3.132
	v5.161h-9.124c-3.24,0-5.876,2.637-5.876,5.876v24.5c0,3.24,2.636,5.876,5.876,5.876h33.5c3.24,0,5.876-2.636,5.876-5.876v-24.5
	C155.366,258.689,152.73,256.053,149.49,256.053 M141.114,288.053h-15.748v-27.748h15.748V288.053z M129.366,252.012h6.748v4.041
	h-6.748V252.012z M114.366,286.429v-24.5c0-0.896,0.728-1.624,1.624-1.624h5.124v27.748h-5.124
	C115.094,288.053,114.366,287.324,114.366,286.429 M151.114,286.429c0,0.896-0.729,1.624-1.624,1.624h-4.124v-27.748h4.124
	c0.895,0,1.624,0.729,1.624,1.624V286.429z"/>
<path fill="#60615A" d="M19.102,10.225H2.583c-1.005,0-1.823,0.819-1.823,1.824v2.129C0.759,15.183,1.577,16,2.583,16h16.519
	c1.006,0,1.823-0.817,1.823-1.822v-2.129C20.925,11.044,20.107,10.225,19.102,10.225 M2.37,14.178v-2.129
	c0-0.118,0.096-0.214,0.213-0.214h11.431v2.556H2.583C2.465,14.391,2.37,14.295,2.37,14.178 M19.315,14.178
	c0,0.117-0.097,0.213-0.214,0.213h-3.478v-2.556h3.478c0.117,0,0.214,0.096,0.214,0.214V14.178z"/>
<path fill="#60615A" d="M1.374,9.706c0.157,0.157,0.363,0.236,0.569,0.236s0.413-0.079,0.569-0.236c0.314-0.314,0.314-0.824,0-1.139
	C2.443,8.498,0.825,6.85,2.134,5.541C4.042,3.632,3,1.272,2.183,0.291C1.898-0.051,1.391-0.097,1.049,0.187
	C0.707,0.472,0.662,0.98,0.946,1.321c0.058,0.07,1.407,1.723,0.049,3.081C-0.953,6.35,0.391,8.724,1.374,9.706"/>
<path fill="#60615A" d="M5.161,9.706C5.318,9.863,5.524,9.942,5.73,9.942c0.206,0,0.412-0.079,0.569-0.236
	c0.314-0.314,0.314-0.824,0-1.139C6.229,8.498,4.611,6.85,5.92,5.541C7.83,3.632,6.788,1.272,5.97,0.291
	C5.685-0.051,5.177-0.097,4.836,0.187C4.494,0.472,4.448,0.98,4.733,1.321c0.058,0.07,1.407,1.723,0.049,3.081
	C2.834,6.35,4.178,8.724,5.161,9.706"/>
</svg>
