<?xml version="1.0" encoding="utf-8"?>
<!-- Generator: Adobe Illustrator 16.0.0, SVG Export Plug-In . SVG Version: 6.00 Build 0)  -->
<!DOCTYPE svg PUBLIC "-//W3C//DTD SVG 1.1//EN" "http://www.w3.org/Graphics/SVG/1.1/DTD/svg11.dtd">
<svg version="1.1" id="Layer_1" xmlns="http://www.w3.org/2000/svg" xmlns:xlink="http://www.w3.org/1999/xlink" x="0px" y="0px"
	 width="16px" height="16px" viewBox="0 0 16 16" enable-background="new 0 0 16 16" xml:space="preserve">
<path fill="#60615A" d="M8,0C3.589,0,0,3.589,0,8s3.589,8,8,8s8-3.589,8-8S12.411,0,8,0 M8,14.941c-3.828,0-6.941-3.114-6.941-6.941
	c0-3.828,3.114-6.941,6.941-6.941S14.941,4.172,14.941,8C14.941,11.827,11.828,14.941,8,14.941 M5.965,8.404
	C6.055,8.55,6.1,8.729,6.1,8.943c0,0.194-0.054,0.376-0.162,0.545c-0.108,0.17-0.26,0.296-0.458,0.378S5.038,9.99,4.744,9.99
	c-0.428,0-0.756-0.099-0.986-0.297C3.528,9.495,3.391,9.207,3.346,8.828l0.666-0.065c0.04,0.224,0.121,0.388,0.244,0.492
	C4.378,9.36,4.543,9.412,4.751,9.412c0.22,0,0.386-0.046,0.498-0.14C5.36,9.18,5.416,9.07,5.416,8.945
	c0-0.08-0.023-0.147-0.07-0.204S5.217,8.637,5.1,8.595C5.02,8.566,4.837,8.518,4.552,8.446C4.186,8.355,3.929,8.244,3.781,8.112
	C3.573,7.926,3.469,7.698,3.469,7.431c0-0.173,0.049-0.334,0.147-0.484c0.098-0.15,0.238-0.265,0.422-0.343
	c0.184-0.079,0.406-0.118,0.667-0.118c0.425,0,0.745,0.093,0.96,0.279S5.992,7.2,6.003,7.511l-0.684,0.03
	C5.29,7.367,5.227,7.242,5.131,7.165C5.035,7.09,4.89,7.051,4.698,7.051c-0.199,0-0.354,0.041-0.466,0.123
	c-0.073,0.052-0.109,0.122-0.109,0.21c0,0.08,0.034,0.148,0.102,0.205C4.311,7.662,4.52,7.737,4.853,7.816
	C5.185,7.895,5.431,7.976,5.591,8.06C5.75,8.144,5.875,8.259,5.965,8.404 M8.969,6.594C8.843,6.561,8.572,6.543,8.156,6.543H7.059
	V9.93h0.684V8.652h0.445c0.31,0,0.546-0.016,0.71-0.049c0.12-0.026,0.238-0.079,0.354-0.16C9.369,8.362,9.464,8.251,9.54,8.109
	s0.113-0.316,0.113-0.524c0-0.27-0.065-0.489-0.196-0.66C9.326,6.756,9.163,6.645,8.969,6.594 M8.871,7.857
	C8.819,7.934,8.748,7.988,8.657,8.024C8.566,8.06,8.386,8.077,8.117,8.077H7.743V7.116h0.33c0.247,0,0.411,0.008,0.492,0.022
	c0.111,0.021,0.202,0.07,0.275,0.15s0.108,0.182,0.108,0.306C8.948,7.694,8.923,7.782,8.871,7.857 M11.944,6.543h-0.723L9.902,9.93
	h0.726l0.279-0.77h1.354l0.296,0.77h0.744L11.944,6.543z M11.118,8.59l0.457-1.257l0.467,1.257H11.118z"/>
</svg>
