<?xml version="1.0" encoding="utf-8"?>
<!-- Generator: Adobe Illustrator 16.0.0, SVG Export Plug-In . SVG Version: 6.00 Build 0)  -->
<!DOCTYPE svg PUBLIC "-//W3C//DTD SVG 1.1//EN" "http://www.w3.org/Graphics/SVG/1.1/DTD/svg11.dtd">
<svg version="1.1" id="Layer_1" xmlns="http://www.w3.org/2000/svg" xmlns:xlink="http://www.w3.org/1999/xlink" x="0px" y="0px"
	 width="15.682px" height="16px" viewBox="0 0 15.682 16" enable-background="new 0 0 15.682 16" xml:space="preserve">
<path fill="#60615A" d="M158.576,239.053h-51.672c-3.191,0-5.79,2.598-5.79,5.79v51.672c0,3.192,2.599,5.79,5.79,5.79h51.672
	c3.191,0,5.79-2.598,5.79-5.79v-51.672C164.366,241.65,161.768,239.053,158.576,239.053 M160.114,296.515
	c0,0.849-0.69,1.538-1.538,1.538h-51.672c-0.848,0-1.538-0.689-1.538-1.538v-51.672c0-0.849,0.69-1.538,1.538-1.538h51.672
	c0.848,0,1.538,0.689,1.538,1.538V296.515z"/>
<path fill="#60615A" d="M149.49,256.053h-9.124v-5.161c0-1.727-1.405-3.132-3.132-3.132h-8.988c-1.727,0-3.132,1.405-3.132,3.132
	v5.161h-9.124c-3.24,0-5.876,2.637-5.876,5.876v24.5c0,3.24,2.636,5.876,5.876,5.876h33.5c3.24,0,5.876-2.636,5.876-5.876v-24.5
	C155.366,258.689,152.73,256.053,149.49,256.053 M141.114,288.053h-15.748v-27.748h15.748V288.053z M129.366,252.012h6.748v4.041
	h-6.748V252.012z M114.366,286.429v-24.5c0-0.896,0.728-1.624,1.624-1.624h5.124v27.748h-5.124
	C115.094,288.053,114.366,287.324,114.366,286.429 M151.114,286.429c0,0.896-0.729,1.624-1.624,1.624h-4.124v-27.748h4.124
	c0.895,0,1.624,0.729,1.624,1.624V286.429z"/>
<path fill="#60615A" d="M1.8,7.443h3.201c0.951,0,1.724-0.773,1.724-1.724V2.518c0-0.95-0.773-1.724-1.724-1.724H1.8
	c-0.951,0-1.724,0.773-1.724,1.724v3.202C0.077,6.669,0.85,7.443,1.8,7.443 M1.196,2.518c0-0.333,0.271-0.604,0.604-0.604h3.201
	c0.333,0,0.604,0.271,0.604,0.604v3.202c0,0.333-0.271,0.604-0.604,0.604H1.8c-0.333,0-0.604-0.271-0.604-0.604V2.518z"/>
<path fill="#60615A" d="M5.133,9.352H1.932c-0.951,0-1.724,0.773-1.724,1.725v3.199C0.208,15.227,0.981,16,1.932,16h3.201
	c0.95,0,1.724-0.773,1.724-1.725v-3.199C6.857,10.125,6.083,9.352,5.133,9.352 M5.737,14.275c0,0.334-0.271,0.605-0.604,0.605H1.932
	c-0.333,0-0.604-0.271-0.604-0.605v-3.199c0-0.334,0.271-0.605,0.604-0.605h3.201c0.333,0,0.604,0.271,0.604,0.605V14.275z"/>
<path fill="#60615A" d="M13.295,9.352h-3.201c-0.951,0-1.724,0.773-1.724,1.725v3.199c0,0.951,0.773,1.725,1.724,1.725h3.201
	c0.951,0,1.725-0.773,1.725-1.725v-3.199C15.02,10.125,14.246,9.352,13.295,9.352 M13.9,14.275c0,0.334-0.271,0.605-0.605,0.605
	h-3.201c-0.333,0-0.604-0.271-0.604-0.605v-3.199c0-0.334,0.271-0.605,0.604-0.605h3.201c0.334,0,0.605,0.271,0.605,0.605V14.275z"
	/>
<path fill="#60615A" d="M15.178,2.768l-2.263-2.264c-0.673-0.672-1.766-0.672-2.438,0L8.212,2.768c-0.672,0.672-0.672,1.766,0,2.438
	l2.264,2.264c0.336,0.336,0.777,0.504,1.219,0.504s0.883-0.168,1.22-0.504l2.263-2.264C15.85,4.534,15.85,3.439,15.178,2.768
	 M14.385,4.414l-2.262,2.263c-0.229,0.229-0.626,0.229-0.855,0L9.004,4.414C8.89,4.3,8.827,4.148,8.827,3.987
	c0-0.162,0.063-0.313,0.177-0.428l2.263-2.263c0.114-0.114,0.266-0.177,0.427-0.177s0.313,0.063,0.428,0.177l2.262,2.263
	c0.115,0.114,0.178,0.266,0.178,0.428C14.563,4.148,14.5,4.3,14.385,4.414"/>
</svg>
