<?xml version="1.0" encoding="utf-8"?>
<!-- Generator: Adobe Illustrator 16.0.0, SVG Export Plug-In . SVG Version: 6.00 Build 0)  -->
<!DOCTYPE svg PUBLIC "-//W3C//DTD SVG 1.1//EN" "http://www.w3.org/Graphics/SVG/1.1/DTD/svg11.dtd">
<svg version="1.1" id="Layer_1" xmlns="http://www.w3.org/2000/svg" xmlns:xlink="http://www.w3.org/1999/xlink" x="0px" y="0px"
	 width="16px" height="16px" viewBox="0 0 16 16" enable-background="new 0 0 16 16" xml:space="preserve">
<path fill="#60615A" d="M158.576,239.053h-51.672c-3.191,0-5.79,2.598-5.79,5.79v51.672c0,3.192,2.599,5.79,5.79,5.79h51.672
	c3.191,0,5.79-2.598,5.79-5.79v-51.672C164.366,241.65,161.768,239.053,158.576,239.053 M160.114,296.515
	c0,0.849-0.69,1.538-1.538,1.538h-51.672c-0.848,0-1.538-0.689-1.538-1.538v-51.672c0-0.849,0.69-1.538,1.538-1.538h51.672
	c0.848,0,1.538,0.689,1.538,1.538V296.515z"/>
<path fill="#60615A" d="M149.49,256.053h-9.124v-5.161c0-1.727-1.405-3.132-3.132-3.132h-8.988c-1.727,0-3.132,1.405-3.132,3.132
	v5.161h-9.124c-3.24,0-5.876,2.637-5.876,5.876v24.5c0,3.24,2.636,5.876,5.876,5.876h33.5c3.24,0,5.876-2.636,5.876-5.876v-24.5
	C155.366,258.689,152.73,256.053,149.49,256.053 M141.114,288.053h-15.748v-27.748h15.748V288.053z M129.366,252.012h6.748v4.041
	h-6.748V252.012z M114.366,286.429v-24.5c0-0.896,0.728-1.624,1.624-1.624h5.124v27.748h-5.124
	C115.094,288.053,114.366,287.324,114.366,286.429 M151.114,286.429c0,0.896-0.729,1.624-1.624,1.624h-4.124v-27.748h4.124
	c0.895,0,1.624,0.729,1.624,1.624V286.429z"/>
<path fill="#60615A" d="M13.803,0H2.196C0.985,0,0,0.986,0,2.197v11.606C0,15.015,0.985,16,2.196,16h11.606
	C15.015,16,16,15.015,16,13.803V2.197C16,0.986,15.015,0,13.803,0 M14.529,2.197v4.326c-0.167-0.355-0.394-0.691-0.687-0.985
	l-3.381-3.38c-0.294-0.294-0.628-0.521-0.985-0.687h4.326C14.204,1.471,14.529,1.796,14.529,2.197 M6.578,12.802l-3.38-3.38
	c-0.784-0.784-0.784-2.06,0-2.844l3.38-3.38C6.97,2.806,7.485,2.609,8,2.609c0.515,0,1.03,0.196,1.421,0.588l3.38,3.38
	c0.784,0.784,0.784,2.06,0,2.844l-3.38,3.38C8.638,13.586,7.362,13.586,6.578,12.802 M2.196,1.471h4.326
	C6.166,1.637,5.832,1.864,5.538,2.158l-3.38,3.38c-0.294,0.293-0.52,0.629-0.687,0.985V2.197C1.471,1.796,1.796,1.471,2.196,1.471
	 M1.471,13.803V9.477c0.167,0.356,0.393,0.692,0.687,0.985l3.38,3.381c0.294,0.293,0.629,0.52,0.985,0.687H2.196
	C1.796,14.529,1.471,14.204,1.471,13.803 M13.803,14.529H9.477c0.356-0.167,0.691-0.394,0.985-0.687l3.381-3.381
	c0.293-0.293,0.52-0.629,0.687-0.985v4.326C14.529,14.204,14.204,14.529,13.803,14.529"/>
</svg>
