<?xml version="1.0" encoding="utf-8"?>
<!-- Generator: Adobe Illustrator 16.0.0, SVG Export Plug-In . SVG Version: 6.00 Build 0)  -->
<!DOCTYPE svg PUBLIC "-//W3C//DTD SVG 1.1//EN" "http://www.w3.org/Graphics/SVG/1.1/DTD/svg11.dtd">
<svg version="1.1" id="Layer_1" xmlns="http://www.w3.org/2000/svg" xmlns:xlink="http://www.w3.org/1999/xlink" x="0px" y="0px"
	 width="89.669px" height="91.835px" viewBox="0 0 89.669 91.835" enable-background="new 0 0 89.669 91.835" xml:space="preserve">
<path fill="#60615A" d="M66.096,0H23.573C10.574,0,0,10.575,0,23.573v68.262h5.669V23.573c0-9.873,8.031-17.904,17.904-17.904
	h42.522c9.873,0,17.903,8.031,17.903,17.904v68.262h5.67V23.573C89.669,10.575,79.094,0,66.096,0"/>
<path fill="#60615A" d="M60.459,14.835h-1.625v-1.082c0-1.611-1.307-2.918-2.918-2.918H33.753c-1.612,0-2.919,1.307-2.919,2.918
	v1.082H29.21c-8.492,0-15.376,6.884-15.376,15.375v45.14c0,2.477,2.008,4.485,4.485,4.485h53.031c2.476,0,4.483-2.009,4.483-4.485
	V30.21C75.834,21.719,68.951,14.835,60.459,14.835 M26.834,70.835c-3.866,0-7-3.135-7-7c0-3.866,3.134-7,7-7s7,3.134,7,7
	C33.834,67.7,30.701,70.835,26.834,70.835 M62.834,70.835c-3.865,0-7-3.135-7-7c0-3.866,3.135-7,7-7c3.867,0,7,3.134,7,7
	C69.834,67.7,66.701,70.835,62.834,70.835 M70.334,42.164c0,4.788-3.881,8.671-8.67,8.671h-33.66c-4.788,0-8.67-3.883-8.67-8.671
	V31.505c0-4.789,3.882-8.67,8.67-8.67h33.66c4.789,0,8.67,3.881,8.67,8.67V42.164z"/>
<path fill="#60615A" d="M66.161,83.296c-0.358-0.298-0.812-0.461-1.28-0.461H44.834H24.787c-0.467,0-0.919,0.163-1.279,0.461
	L18.202,87.7c-0.462,0.383-0.191,1.135,0.409,1.135h26.223h26.223c0.602,0,0.873-0.752,0.41-1.135L66.161,83.296z"/>
</svg>
