<?xml version="1.0" encoding="utf-8"?>
<!-- Generator: Adobe Illustrator 16.0.0, SVG Export Plug-In . SVG Version: 6.00 Build 0)  -->
<!DOCTYPE svg PUBLIC "-//W3C//DTD SVG 1.1//EN" "http://www.w3.org/Graphics/SVG/1.1/DTD/svg11.dtd">
<svg version="1.1" id="Layer_1" xmlns="http://www.w3.org/2000/svg" xmlns:xlink="http://www.w3.org/1999/xlink" x="0px" y="0px"
	 width="15.759px" height="16px" viewBox="0 0 15.759 16" enable-background="new 0 0 15.759 16" xml:space="preserve">
<path fill="#60615A" d="M158.576,239.053h-51.672c-3.191,0-5.79,2.598-5.79,5.79v51.672c0,3.192,2.599,5.79,5.79,5.79h51.672
	c3.191,0,5.79-2.598,5.79-5.79v-51.672C164.366,241.65,161.768,239.053,158.576,239.053 M160.114,296.515
	c0,0.849-0.69,1.538-1.538,1.538h-51.672c-0.848,0-1.538-0.689-1.538-1.538v-51.672c0-0.849,0.69-1.538,1.538-1.538h51.672
	c0.848,0,1.538,0.689,1.538,1.538V296.515z"/>
<path fill="#60615A" d="M149.49,256.053h-9.124v-5.161c0-1.727-1.405-3.132-3.132-3.132h-8.988c-1.727,0-3.132,1.405-3.132,3.132
	v5.161h-9.124c-3.24,0-5.876,2.637-5.876,5.876v24.5c0,3.24,2.636,5.876,5.876,5.876h33.5c3.24,0,5.876-2.636,5.876-5.876v-24.5
	C155.366,258.689,152.73,256.053,149.49,256.053 M141.114,288.053h-15.748v-27.748h15.748V288.053z M129.366,252.012h6.748v4.041
	h-6.748V252.012z M114.366,286.429v-24.5c0-0.896,0.728-1.624,1.624-1.624h5.124v27.748h-5.124
	C115.094,288.053,114.366,287.324,114.366,286.429 M151.114,286.429c0,0.896-0.729,1.624-1.624,1.624h-4.124v-27.748h4.124
	c0.895,0,1.624,0.729,1.624,1.624V286.429z"/>
<path fill="#60615A" d="M15.123,7.042c-0.5-0.584-1.229-0.919-1.998-0.919H8.642c0.076-0.954,0.15-2.608-0.08-3.991
	C8.374,1.009,7.81,0.467,7.37,0.211C6.949-0.034,6.445-0.068,5.99,0.12c-0.462,0.189-0.817,0.59-0.949,1.071L3.429,7.103H1.45
	C0.65,7.103,0,7.753,0,8.552v5.999C0,15.35,0.65,16,1.45,16h11.313c1.109,0,2.037-0.795,2.205-1.891l0.762-4.951
	C15.846,8.397,15.625,7.625,15.123,7.042 M1.388,14.551V8.552c0-0.033,0.027-0.062,0.062-0.062h1.815v6.121H1.45
	C1.416,14.611,1.388,14.584,1.388,14.551 M14.355,8.947l-0.762,4.952c-0.063,0.414-0.412,0.713-0.832,0.713H4.653V7.853
	c0.015-0.036,0.03-0.071,0.04-0.109L6.38,1.556c0.027-0.098,0.104-0.139,0.136-0.152c0.056-0.023,0.108-0.021,0.156,0.007
	c0.266,0.155,0.441,0.475,0.521,0.95c0.305,1.833-0.001,4.346-0.004,4.371L7.091,7.511h6.034c0.363,0,0.709,0.159,0.945,0.435
	C14.307,8.222,14.412,8.586,14.355,8.947"/>
</svg>
