<?xml version="1.0" encoding="utf-8"?>
<!-- Generator: Adobe Illustrator 16.0.0, SVG Export Plug-In . SVG Version: 6.00 Build 0)  -->
<!DOCTYPE svg PUBLIC "-//W3C//DTD SVG 1.1//EN" "http://www.w3.org/Graphics/SVG/1.1/DTD/svg11.dtd">
<svg version="1.1" id="Layer_1" xmlns="http://www.w3.org/2000/svg" xmlns:xlink="http://www.w3.org/1999/xlink" x="0px" y="0px"
	 width="23.421px" height="16px" viewBox="0 0 23.421 16" enable-background="new 0 0 23.421 16" xml:space="preserve">
<g>
	<path fill="#60615A" d="M11.711,11.069c-1.202,0-2.335,0.466-3.191,1.313c-0.145,0.144-0.224,0.34-0.218,0.544
		c0.006,0.203,0.096,0.396,0.249,0.53l2.674,2.36C11.363,15.938,11.537,16,11.711,16s0.348-0.062,0.486-0.184l2.675-2.36
		c0.152-0.135,0.242-0.327,0.248-0.53c0.006-0.204-0.073-0.4-0.218-0.544C14.046,11.535,12.913,11.069,11.711,11.069 M11.711,14.284
		l-1.521-1.342c0.917-0.524,2.123-0.524,3.041,0L11.711,14.284z"/>
	<path fill="#60615A" d="M23.229,5.084C20.273,1.853,16.075,0,11.711,0S3.149,1.853,0.193,5.084c-0.274,0.3-0.253,0.765,0.046,1.039
		c0.3,0.274,0.765,0.253,1.039-0.046c2.678-2.928,6.479-4.606,10.432-4.606c3.952,0,7.755,1.679,10.432,4.606
		c0.146,0.159,0.345,0.239,0.544,0.239c0.177,0,0.354-0.064,0.496-0.193C23.481,5.849,23.502,5.384,23.229,5.084"/>
	<path fill="#60615A" d="M11.711,6.227c-2.578,0-5.071,1.083-6.842,2.971c-0.278,0.297-0.263,0.762,0.034,1.04
		c0.296,0.277,0.762,0.263,1.04-0.033c1.516-1.616,3.564-2.507,5.769-2.507s4.254,0.891,5.77,2.507
		c0.145,0.154,0.341,0.231,0.536,0.231c0.181,0,0.361-0.065,0.503-0.198c0.297-0.278,0.312-0.743,0.034-1.04
		C16.782,7.31,14.288,6.227,11.711,6.227"/>
</g>
</svg>
