<?xml version="1.0" encoding="utf-8"?>
<!-- Generator: Adobe Illustrator 16.0.0, SVG Export Plug-In . SVG Version: 6.00 Build 0)  -->
<!DOCTYPE svg PUBLIC "-//W3C//DTD SVG 1.1//EN" "http://www.w3.org/Graphics/SVG/1.1/DTD/svg11.dtd">
<svg version="1.1" id="Layer_1" xmlns="http://www.w3.org/2000/svg" xmlns:xlink="http://www.w3.org/1999/xlink" x="0px" y="0px"
	 width="16px" height="16px" viewBox="0 0 16 16" enable-background="new 0 0 16 16" xml:space="preserve">
<path fill="#60615A" d="M8,9.858c-0.825,0-1.603,0.32-2.19,0.901c-0.1,0.098-0.154,0.233-0.15,0.373
	c0.004,0.14,0.065,0.272,0.17,0.364l1.836,1.62C7.761,13.201,7.881,13.243,8,13.243s0.239-0.042,0.334-0.126l1.836-1.62
	c0.104-0.092,0.166-0.225,0.17-0.364c0.005-0.14-0.05-0.275-0.149-0.373C9.603,10.179,8.825,9.858,8,9.858 M8,12.065l-1.043-0.921
	c0.629-0.36,1.458-0.36,2.087,0L8,12.065z"/>
<path fill="#60615A" d="M15.906,5.75C13.877,3.532,10.996,2.26,8,2.26c-2.996,0-5.877,1.272-7.906,3.49
	C-0.094,5.957-0.08,6.275,0.125,6.464c0.206,0.188,0.525,0.174,0.713-0.032C2.677,4.422,5.287,3.27,8,3.27s5.323,1.152,7.161,3.162
	c0.1,0.109,0.236,0.164,0.373,0.164c0.121,0,0.243-0.044,0.34-0.132C16.08,6.275,16.094,5.957,15.906,5.75"/>
<path fill="#60615A" d="M8,6.535c-1.77,0-3.481,0.743-4.697,2.04C3.112,8.777,3.123,9.097,3.326,9.287
	c0.203,0.19,0.523,0.181,0.714-0.022C5.08,8.155,6.487,7.544,8,7.544c1.514,0,2.92,0.611,3.96,1.72
	c0.1,0.105,0.234,0.159,0.368,0.159c0.124,0,0.248-0.045,0.346-0.137c0.203-0.19,0.214-0.51,0.023-0.713
	C11.481,7.278,9.77,6.535,8,6.535"/>
</svg>
