<?xml version="1.0" encoding="utf-8"?>
<!-- Generator: Adobe Illustrator 16.0.0, SVG Export Plug-In . SVG Version: 6.00 Build 0)  -->
<!DOCTYPE svg PUBLIC "-//W3C//DTD SVG 1.1//EN" "http://www.w3.org/Graphics/SVG/1.1/DTD/svg11.dtd">
<svg version="1.1" id="Layer_1" xmlns="http://www.w3.org/2000/svg" xmlns:xlink="http://www.w3.org/1999/xlink" x="0px" y="0px"
	 width="16px" height="16px" viewBox="0 0 16 16" enable-background="new 0 0 16 16" xml:space="preserve">
<path fill="#E62851" d="M15.267,1.287h-4.864H7.971H5.539H0.675C0.302,1.287,0,1.566,0,1.911v7.617v0.019v3.806
	c0,0.346,0.302,0.624,0.674,0.624h3.04c0.237,0,0.457-0.115,0.579-0.302c0.057-0.089,0.085-0.187,0.092-0.285h3.586h3.584
	c0.007,0.099,0.036,0.196,0.093,0.285c0.122,0.187,0.341,0.302,0.578,0.302h3.04c0.373,0,0.675-0.278,0.675-0.624V9.546V9.527V1.911
	C15.941,1.566,15.64,1.287,15.267,1.287 M7.297,12.143H3.781l-1.377-2.39c3.079-1.249,3.868-4.842,3.836-7.219h1.056V12.143z
	 M1.349,2.534h3.535C4.883,3.175,4.824,4.268,4.5,5.37C3.953,7.228,2.896,8.371,1.349,8.781V2.534z M1.349,12.728v-2.151
	l1.242,2.151H1.349z M8.645,2.534h1.056c-0.031,2.377,0.758,5.97,3.838,7.219l-1.378,2.39H8.645V2.534z M14.593,12.728h-1.242
	l1.242-2.151V12.728z M14.593,8.781c-1.546-0.41-2.605-1.554-3.15-3.411c-0.324-1.103-0.384-2.195-0.385-2.836h3.535V8.781z"/>
</svg>
