<?xml version="1.0" encoding="utf-8"?>
<!-- Generator: Adobe Illustrator 16.0.0, SVG Export Plug-In . SVG Version: 6.00 Build 0)  -->
<!DOCTYPE svg PUBLIC "-//W3C//DTD SVG 1.1//EN" "http://www.w3.org/Graphics/SVG/1.1/DTD/svg11.dtd">
<svg version="1.1" id="Layer_1" xmlns="http://www.w3.org/2000/svg" xmlns:xlink="http://www.w3.org/1999/xlink" x="0px" y="0px"
	 width="122.113px" height="122.113px" viewBox="0 0 122.113 122.113" enable-background="new 0 0 122.113 122.113"
	 xml:space="preserve">
<g>
	<polygon points="71.631,39.641 91.048,59.057 27.409,59.057 27.409,63.057 91.048,63.057 71.631,82.473 74.459,85.301 
		98.704,61.057 74.459,36.813 	"/>
	<path d="M61.057,0C27.39,0,0,27.39,0,61.057s27.39,61.057,61.057,61.057s61.057-27.39,61.057-61.057S94.724,0,61.057,0z
		 M61.057,118.113C29.596,118.113,4,92.518,4,61.057S29.596,4,61.057,4s57.057,25.596,57.057,57.057S92.518,118.113,61.057,118.113z
		"/>
</g>
</svg>
