<?xml version="1.0" encoding="utf-8"?>
<!-- Generator: Adobe Illustrator 16.0.0, SVG Export Plug-In . SVG Version: 6.00 Build 0)  -->
<!DOCTYPE svg PUBLIC "-//W3C//DTD SVG 1.1//EN" "http://www.w3.org/Graphics/SVG/1.1/DTD/svg11.dtd">
<svg version="1.1" id="Layer_1" xmlns="http://www.w3.org/2000/svg" xmlns:xlink="http://www.w3.org/1999/xlink" x="0px" y="0px"
	 width="25.949px" height="26.056px" viewBox="0 0 25.949 26.056" enable-background="new 0 0 25.949 26.056" xml:space="preserve">
<g>
	<path fill="#FFFFFF" d="M25.949,25.349l-7.644-7.644c1.738-1.883,2.81-4.389,2.81-7.147C21.115,4.736,16.379,0,10.558,0
		S0,4.736,0,10.558s4.736,10.558,10.558,10.558c2.704,0,5.166-1.031,7.035-2.708l7.649,7.649L25.949,25.349z M1,10.558
		C1,5.288,5.288,1,10.558,1s9.558,4.288,9.558,9.558s-4.288,9.558-9.558,9.558S1,15.828,1,10.558z"/>
	<polygon fill="#FFFFFF" points="10.923,5.068 9.923,5.068 9.923,10.103 4.888,10.103 4.888,11.103 9.923,11.103 9.923,16.138 
		10.923,16.138 10.923,11.103 15.958,11.103 15.958,10.103 10.923,10.103 	"/>
</g>
</svg>
