<?xml version="1.0" encoding="utf-8"?>
<!-- Generator: Adobe Illustrator 16.0.0, SVG Export Plug-In . SVG Version: 6.00 Build 0)  -->
<!DOCTYPE svg PUBLIC "-//W3C//DTD SVG 1.1//EN" "http://www.w3.org/Graphics/SVG/1.1/DTD/svg11.dtd">
<svg version="1.1" id="Layer_1" xmlns="http://www.w3.org/2000/svg" xmlns:xlink="http://www.w3.org/1999/xlink" x="0px" y="0px"
	 width="26.708px" height="26.708px" viewBox="0 0 26.708 26.708" enable-background="new 0 0 26.708 26.708" xml:space="preserve">
<path fill="#FFFFFF" d="M26.708,25.293l-7.3-7.299c1.588-1.904,2.546-4.351,2.546-7.018C21.954,4.924,17.03,0,10.978,0
	S0,4.924,0,10.977s4.925,10.977,10.978,10.977c2.667,0,5.113-0.958,7.017-2.545l7.3,7.299L26.708,25.293z M10.978,19.953
	C6.027,19.953,2,15.926,2,10.977S6.027,2,10.978,2c4.949,0,8.977,4.027,8.977,8.977S15.927,19.953,10.978,19.953z"/>
</svg>
