<?xml version="1.0" encoding="utf-8"?>
<!-- Generator: Adobe Illustrator 21.1.0, SVG Export Plug-In . SVG Version: 6.00 Build 0)  -->
<svg version="1.1" id="Layer_1" xmlns="http://www.w3.org/2000/svg" xmlns:xlink="http://www.w3.org/1999/xlink" x="0px" y="0px"
	 viewBox="0 0 60.76 50" enable-background="new 0 0 60.76 50" xml:space="preserve">
<g>
	<path fill="#FFFFFF" d="M-23.852,0h-21.203c-7.939,0-14.399,6.459-14.399,14.398v21.203c0,7.939,6.459,14.398,14.399,14.398h21.203
		c7.939,0,14.399-6.459,14.399-14.398V14.398C-9.453,6.459-15.912,0-23.852,0z M-14.025,35.602c0,5.419-4.409,9.827-9.827,9.827
		h-21.203c-5.419,0-9.827-4.409-9.827-9.827V14.398c0-5.419,4.408-9.827,9.827-9.827h21.203c5.419,0,9.827,4.409,9.827,9.827V35.602
		z"/>
	<circle fill="#FFFFFF" cx="-21.284" cy="11.65" r="3.085"/>
	<path fill="#FFFFFF" d="M-34.539,12.005c-7.189,0-13.038,5.849-13.038,13.038c0,7.189,5.849,13.038,13.038,13.038
		c7.189,0,13.038-5.849,13.038-13.038C-21.501,17.854-27.35,12.005-34.539,12.005z M-34.539,33.511
		c-4.669,0-8.467-3.798-8.467-8.467c0-4.669,3.798-8.467,8.467-8.467s8.467,3.798,8.467,8.467
		C-26.072,29.712-29.87,33.511-34.539,33.511z"/>
</g>
<rect x="-78.5" y="-849.421" fill="#000113" width="841.89" height="595.28"/>
<g>
	<rect x="-42.372" y="-815.716" fill="#FFFFFF" width="100" height="100"/>
	<g>
		<g>
			<path fill="#000113" d="M24.591-725.716H-9.334c-12.703,0-23.038-10.335-23.038-23.038v-33.925
				c0-12.703,10.335-23.038,23.038-23.038h33.925c12.703,0,23.038,10.334,23.038,23.038v33.925
				C47.629-736.051,37.294-725.716,24.591-725.716z M-9.334-798.403c-8.67,0-15.724,7.054-15.724,15.724v33.925
				c0,8.67,7.054,15.724,15.724,15.724h33.925c8.67,0,15.724-7.054,15.724-15.724v-33.925c0-8.67-7.054-15.724-15.724-15.724H-9.334
				z"/>
		</g>
		<g>
			<path fill="#000113" d="M7.491-744.786c-11.502,0-20.86-9.358-20.86-20.86c0-11.503,9.358-20.861,20.86-20.861
				c11.503,0,20.861,9.358,20.861,20.861C28.352-754.143,18.994-744.786,7.491-744.786z M7.491-779.193
				c-7.47,0-13.547,6.077-13.547,13.547c0,7.47,6.077,13.547,13.547,13.547s13.548-6.077,13.548-13.547
				C21.039-773.116,14.961-779.193,7.491-779.193z"/>
		</g>
		<circle fill="#000113" cx="28.7" cy="-787.076" r="4.936"/>
	</g>
</g>
<g>
	<rect x="76.034" y="-815.716" fill="#FFFFFF" width="100" height="100"/>
	<path fill="#000113" d="M129.77-715.716v-36.515h-11.918v-14.2h11.918v-12.932c0,0,0.467-14.531,14.795-16.047
		c0,0,7.448-0.689,14.746,0v12.951h-9.098c0,0-5.855,0-5.855,5.856c0,5.855,0,9.988,0,9.988h14.122l-2.342,14.191H144.29v36.708
		H129.77z"/>
</g>
<g>
	<rect x="194.439" y="-815.716" fill="#FFFFFF" width="100" height="100"/>
	<g>
		<path fill="#000113" d="M284.094-752.629c-0.3,6.583-3.288,13.474-14.048,14.155c-10.76,0.682-42.443,0.598-51.111,0
			c-8.667-0.598-13.45-5.296-14.048-14.155c-0.598-8.859-0.598-18.21,0-26.387c0.598-8.177,4.882-13.044,14.048-13.857
			c9.167-0.813,44.137-0.697,51.708,0c7.572,0.697,12.852,5.296,13.451,13.857C284.692-770.455,284.393-759.212,284.094-752.629z"/>
		<polygon fill="#FFFFFF" points="236.869,-777.927 236.869,-753.418 256.795,-765.673 		"/>
	</g>
</g>
<g>
	<rect x="312.844" y="-815.716" fill="#FFFFFF" width="100" height="100"/>
	<path fill="#000113" d="M402.844-790.953c-5.846,2.748-8.794,2.299-8.794,2.299c5.996-3.948,6.546-8.795,6.546-8.795
		c-4.997,3.148-10.586,3.94-10.586,3.94v0.003c-2.987-3.155-7.213-5.126-11.9-5.126c-9.052,0-16.39,7.338-16.39,16.39
		c0,1.23,0.14,2.428,0.396,3.581c-21.858-0.853-33.314-17.173-33.314-17.173c-7.062,13.992,4.797,22.12,4.797,22.12
		c-3.997-0.133-6.929-1.866-6.929-1.866c-0.4,13.326,12.637,16.123,12.637,16.123c-2.421,0.933-7.174,0.267-7.174,0.267
		c3.73,11.193,14.924,11.46,14.924,11.46c-8.261,8.794-24.212,6.872-24.212,6.872c8.873,6.081,19.903,9.097,31.425,7.732
		c24.646-2.919,42.424-24.8,40.48-49.326C400.04-785.733,402.844-790.953,402.844-790.953z"/>
</g>
<g>
	<rect x="159.311" y="-535.716" fill="#FFFFFF" width="100" height="100"/>
	<g>
		<g>
			<path fill="#000113" d="M226.274-445.716h-33.925c-12.703,0-23.038-10.336-23.038-23.038v-33.925
				c0-12.703,10.335-23.037,23.038-23.037h33.925c12.703,0,23.038,10.334,23.038,23.037v33.925
				C249.312-456.052,238.977-445.716,226.274-445.716z M192.349-518.403c-8.67,0-15.724,7.055-15.724,15.725v33.925
				c0,8.671,7.054,15.724,15.724,15.724h33.925c8.67,0,15.724-7.053,15.724-15.724v-33.925c0-8.67-7.054-15.725-15.724-15.725
				H192.349z"/>
		</g>
		<g>
			<path fill="#000113" d="M209.174-464.786c-11.502,0-20.86-9.357-20.86-20.859c0-11.504,9.358-20.861,20.86-20.861
				c11.503,0,20.861,9.357,20.861,20.861C230.036-474.143,220.677-464.786,209.174-464.786z M209.174-499.193
				c-7.47,0-13.547,6.077-13.547,13.548c0,7.469,6.077,13.547,13.547,13.547c7.47,0,13.548-6.078,13.548-13.547
				C222.722-493.116,216.644-499.193,209.174-499.193z"/>
		</g>
		<circle fill="#000113" cx="230.383" cy="-507.075" r="4.936"/>
	</g>
</g>
<g>
	<rect x="277.717" y="-535.716" fill="#FFFFFF" width="100" height="100"/>
	<path fill="#000113" d="M331.453-435.716v-36.516h-11.918v-14.199h11.918v-12.933c0,0,0.467-14.531,14.795-16.047
		c0,0,7.449-0.688,14.746,0v12.95h-9.098c0,0-5.855,0.001-5.855,5.857c0,5.854,0,9.988,0,9.988h14.123l-2.342,14.19h-11.85v36.709
		H331.453z"/>
</g>
<g>
	<rect x="395.845" y="-535.716" fill="#FFFFFF" width="100" height="100"/>
	<path fill="#000113" d="M485.845-510.953c-5.846,2.749-8.795,2.299-8.795,2.299c5.996-3.948,6.547-8.795,6.547-8.795
		c-4.998,3.147-10.586,3.94-10.586,3.94v0.004c-2.988-3.156-7.213-5.127-11.9-5.127c-9.053,0-16.391,7.338-16.391,16.391
		c0,1.23,0.141,2.428,0.396,3.58c-21.857-0.852-33.314-17.172-33.314-17.172c-7.062,13.991,4.797,22.119,4.797,22.119
		c-3.996-0.133-6.928-1.865-6.928-1.865c-0.4,13.326,12.637,16.123,12.637,16.123c-2.422,0.934-7.174,0.268-7.174,0.268
		c3.73,11.193,14.924,11.459,14.924,11.459c-8.262,8.795-24.213,6.873-24.213,6.873c8.873,6.081,19.904,9.096,31.426,7.732
		c24.645-2.919,42.424-24.801,40.481-49.326C483.04-505.733,485.845-510.953,485.845-510.953z"/>
</g>
<g>
	<path fill="#FFFFFF" d="M67.628-619.716c0,33-27,60-60,60s-60-27-60-60s27-60,60-60S67.628-652.716,67.628-619.716z"/>
	<path fill="#000113" d="M24.591-579.716H-9.334c-12.703,0-23.038-10.335-23.038-23.038v-33.925
		c0-12.703,10.335-23.038,23.038-23.038h33.925c12.703,0,23.038,10.334,23.038,23.038v33.925
		C47.629-590.051,37.294-579.716,24.591-579.716z M-9.334-652.403c-8.67,0-15.724,7.054-15.724,15.724v33.925
		c0,8.67,7.054,15.724,15.724,15.724h33.925c8.67,0,15.724-7.054,15.724-15.724v-33.925c0-8.67-7.054-15.724-15.724-15.724H-9.334z"
		/>
	<path fill="#000113" d="M7.491-598.786c-11.502,0-20.86-9.358-20.86-20.86c0-11.503,9.358-20.861,20.86-20.861
		c11.503,0,20.861,9.358,20.861,20.861C28.352-608.143,18.994-598.786,7.491-598.786z M7.491-633.193
		c-7.47,0-13.547,6.077-13.547,13.547c0,7.47,6.077,13.547,13.547,13.547s13.548-6.077,13.548-13.547
		C21.039-627.116,14.961-633.193,7.491-633.193z"/>
	<circle fill="#000113" cx="28.7" cy="-641.076" r="4.936"/>
</g>
<g>
	<path fill="#FFFFFF" d="M196.034-619.716c0,33-27,60-60,60s-60-27-60-60s27-60,60-60S196.034-652.716,196.034-619.716z"/>
	<path fill="#000113" d="M139.77-559.716v-46.515h-11.918v-14.2h11.918v-12.932c0,0,0.467-14.531,14.795-16.047
		c0,0,7.448-0.689,14.746,0v12.951h-9.098c0,0-5.855,0-5.855,5.856c0,5.855,0,9.988,0,9.988h14.122l-2.342,14.191H154.29v46.708
		H139.77z"/>
</g>
<g>
	<path fill="#FFFFFF" d="M324.439-619.716c0,33-27,60-60,60s-60-27-60-60s27-60,60-60S324.439-652.716,324.439-619.716z"/>
	<path fill="#000113" d="M304.094-606.629c-0.3,6.583-3.288,13.474-14.048,14.155c-10.76,0.682-42.443,0.598-51.111,0
		c-8.667-0.598-13.45-5.296-14.048-14.155c-0.598-8.859-0.598-18.21,0-26.387c0.598-8.177,4.882-13.044,14.048-13.857
		c9.167-0.813,44.137-0.697,51.708,0c7.572,0.697,12.852,5.296,13.451,13.857C304.692-624.455,304.393-613.212,304.094-606.629z"/>
	<polygon fill="#FFFFFF" points="256.869,-631.927 256.869,-607.418 276.795,-619.673 	"/>
</g>
<g>
	<path fill="#FFFFFF" d="M266.832-229.706c-33,0-60,27-60,60s27,60,60,60s60-27,60-60S299.832-229.706,266.832-229.706z
		 M306.487-156.618c-0.3,6.583-3.288,13.473-14.048,14.154c-10.76,0.682-42.443,0.598-51.111,0
		c-8.667-0.598-13.45-5.295-14.048-14.154c-0.598-8.859-0.598-18.21,0-26.387c0.598-8.178,4.882-13.044,14.048-13.857
		c9.167-0.812,44.137-0.697,51.708,0c7.572,0.697,12.852,5.297,13.451,13.857C307.085-174.444,306.786-163.202,306.487-156.618z"/>
	<polygon fill="#FFFFFF" points="259.262,-157.408 279.188,-169.663 259.262,-181.917 	"/>
</g>
<g>
	<path fill="#FFFFFF" d="M452.844-619.716c0,33-27,60-60,60s-60-27-60-60s27-60,60-60S452.844-652.716,452.844-619.716z"/>
	<path fill="#000113" d="M432.844-644.953c-5.846,2.748-8.794,2.299-8.794,2.299c5.996-3.948,6.546-8.795,6.546-8.795
		c-4.997,3.148-10.586,3.94-10.586,3.94v0.003c-2.987-3.155-7.213-5.126-11.9-5.126c-9.052,0-16.39,7.338-16.39,16.39
		c0,1.23,0.14,2.428,0.396,3.581c-21.858-0.853-33.314-17.173-33.314-17.173c-7.062,13.992,4.797,22.12,4.797,22.12
		c-3.997-0.133-6.929-1.866-6.929-1.866c-0.4,13.326,12.637,16.123,12.637,16.123c-2.421,0.933-7.174,0.267-7.174,0.267
		c3.73,11.193,14.924,11.46,14.924,11.46c-8.261,8.794-24.212,6.872-24.212,6.872c8.873,6.081,19.903,9.097,31.425,7.732
		c24.646-2.919,42.424-24.8,40.48-49.326C430.04-639.733,432.844-644.953,432.844-644.953z"/>
</g>
<g>
	<path fill="#FFFFFF" d="M24.591-202.393H-9.334c-8.67,0-15.724,7.054-15.724,15.724v33.926c0,8.67,7.054,15.724,15.724,15.724
		h33.925c8.67,0,15.724-7.054,15.724-15.724v-33.926C40.314-195.339,33.261-202.393,24.591-202.393z M7.491-148.775
		c-11.502,0-20.86-9.358-20.86-20.86c0-11.503,9.358-20.861,20.86-20.861c11.503,0,20.861,9.358,20.861,20.861
		C28.352-158.134,18.994-148.775,7.491-148.775z M28.7-186.13c-2.727,0-4.937-2.209-4.937-4.936c0-2.726,2.21-4.936,4.937-4.936
		c2.725,0,4.935,2.21,4.935,4.936C33.635-188.339,31.425-186.13,28.7-186.13z"/>
	<path fill="#FFFFFF" d="M7.491-183.182c-7.47,0-13.547,6.076-13.547,13.547c0,7.47,6.077,13.547,13.547,13.547
		s13.548-6.077,13.548-13.547C21.039-177.106,14.961-183.182,7.491-183.182z"/>
	<path fill="#FFFFFF" d="M7.628-229.706c-33,0-60,27-60,60s27,60,60,60s60-27,60-60S40.628-229.706,7.628-229.706z M47.629-152.743
		c0,12.702-10.335,23.037-23.038,23.037H-9.334c-12.703,0-23.038-10.335-23.038-23.037v-33.926
		c0-12.703,10.335-23.037,23.038-23.037h33.925c12.703,0,23.038,10.334,23.038,23.037V-152.743z"/>
</g>
<g>
	<path fill="#FFFFFF" d="M196.034-169.706c0-33-27-60-60-60s-60,27-60,60s27,60,60,60c1.256,0,2.499-0.052,3.736-0.129v-46.386
		h-11.918v-14.2h11.918v-12.932c0,0,0.467-14.531,14.795-16.047c0,0,7.448-0.689,14.746,0v12.95h-9.098c0,0-5.855,0.001-5.855,5.856
		c0,5.854,0,9.988,0,9.988h14.122l-2.342,14.19H154.29v43.841C178.434-120.345,196.034-143.065,196.034-169.706z"/>
</g>
<path fill="#FFFFFF" d="M392.844-229.706c-33,0-60,27-60,60s27,60,60,60s60-27,60-60S425.844-229.706,392.844-229.706z
	 M424.75-186.44c1.943,24.526-15.835,46.408-40.48,49.326c-11.522,1.364-22.552-1.65-31.425-7.732c0,0,15.951,1.922,24.212-6.872
	c0,0-11.193-0.267-14.924-11.46c0,0,4.753,0.666,7.174-0.267c0,0-13.037-2.798-12.637-16.124c0,0,2.932,1.732,6.929,1.866
	c0,0-11.859-8.128-4.797-22.12c0,0,11.456,16.32,33.314,17.173c-0.257-1.153-0.396-2.351-0.396-3.581
	c0-9.052,7.338-16.391,16.39-16.391c4.688,0,8.913,1.972,11.9,5.127v-0.004c0,0,5.589-0.792,10.586-3.939
	c0,0-0.55,4.847-6.546,8.795c0,0,2.948,0.449,8.794-2.299C432.844-194.942,430.04-189.723,424.75-186.44z"/>
<g>
	<path fill="#000113" d="M1133.428-658.786c-33,0-60,27-60,60s27,60,60,60s60-27,60-60S1166.428-658.786,1133.428-658.786z
		 M1173.083-585.698c-0.3,6.583-3.288,13.473-14.049,14.154c-10.76,0.682-42.442,0.598-51.11,0
		c-8.667-0.598-13.45-5.295-14.048-14.154c-0.598-8.859-0.598-18.21,0-26.387c0.598-8.178,4.882-13.044,14.048-13.857
		c9.167-0.812,44.137-0.697,51.708,0c7.572,0.697,12.853,5.297,13.451,13.857C1173.681-603.524,1173.382-592.282,1173.083-585.698z"
		/>
	<polygon fill="#000113" points="1125.857,-586.488 1145.784,-598.743 1125.857,-610.997 	"/>
</g>
<g>
	<path fill="#000113" d="M1053.428-598.786c0-33-27-60-60-60c-33,0-60,27-60,60s27,60,60,60c1.256,0,2.498-0.051,3.736-0.129V-585.3
		h-11.918v-14.2h11.918v-12.932c0,0,0.467-14.531,14.795-16.047c0,0,7.448-0.69,14.746,0v12.95h-9.098c0,0-5.855,0.001-5.855,5.856
		c0,5.854,0,9.988,0,9.988h14.122l-2.342,14.19h-11.849v43.84C1035.827-549.425,1053.428-572.145,1053.428-598.786z"/>
</g>
<path fill="#000113" d="M1273.428-658.715c-33,0-60,27-60,60s27,59.999,60,59.999s60-26.999,60-59.999
	S1306.428-658.715,1273.428-658.715z M1305.334-615.449c1.943,24.526-15.835,46.408-40.48,49.326
	c-11.521,1.364-22.552-1.65-31.425-7.732c0,0,15.951,1.922,24.212-6.872c0,0-11.193-0.267-14.924-11.46c0,0,4.753,0.666,7.174-0.267
	c0,0-13.037-2.798-12.637-16.124c0,0,2.932,1.732,6.929,1.866c0,0-11.859-8.128-4.797-22.12c0,0,11.456,16.32,33.314,17.173
	c-0.257-1.153-0.396-2.351-0.396-3.581c0-9.052,7.338-16.391,16.39-16.391c4.688,0,8.913,1.972,11.9,5.127v-0.004
	c0,0,5.589-0.792,10.586-3.94c0,0-0.55,4.847-6.546,8.795c0,0,2.948,0.449,8.794-2.299
	C1313.428-623.951,1310.624-618.732,1305.334-615.449z"/>
<g>
	<path fill="#FFFFFF" d="M915.5-789.421c0,33-27,60-60,60s-60-27-60-60s27-60,60-60S915.5-822.421,915.5-789.421z"/>
	<path fill="#000113" d="M895.5-814.658c-5.846,2.748-8.794,2.299-8.794,2.299c5.996-3.948,6.546-8.795,6.546-8.795
		c-4.997,3.148-10.586,3.94-10.586,3.94v0.003c-2.987-3.155-7.213-5.126-11.9-5.126c-9.052,0-16.39,7.338-16.39,16.39
		c0,1.231,0.14,2.428,0.396,3.581c-21.858-0.853-33.314-17.173-33.314-17.173c-7.062,13.992,4.797,22.12,4.797,22.12
		c-3.997-0.133-6.929-1.866-6.929-1.866c-0.4,13.326,12.637,16.124,12.637,16.124c-2.421,0.933-7.174,0.267-7.174,0.267
		c3.73,11.193,14.924,11.46,14.924,11.46c-8.261,8.794-24.212,6.872-24.212,6.872c8.873,6.081,19.903,9.097,31.425,7.732
		c24.646-2.919,42.424-24.8,40.48-49.326C892.696-809.438,895.5-814.658,895.5-814.658z"/>
</g>
<g>
	<polygon fill="#FFFFFF" points="19.357,-418.167 30.157,-474.013 19.357,-529.858 54.508,-474.013 	"/>
</g>
<g>
	<polygon fill="#FFFFFF" points="-4.374,-418.167 -15.173,-474.013 -4.374,-529.858 -39.525,-474.013 	"/>
</g>
<polygon fill="#FFFFFF" points="53.689,-274.485 -22.435,-274.485 41.44,-334.485 117.564,-334.485 "/>
<g>
	<polygon fill="#000113" points="855.273,-324.024 866.073,-379.87 855.273,-435.716 890.425,-379.87 	"/>
</g>
<g>
	<polygon fill="#000113" points="831.542,-324.024 820.743,-379.87 831.542,-435.716 796.392,-379.87 	"/>
</g>
<polygon fill="#000113" points="1106.957,-349.87 1030.833,-349.87 1094.708,-409.87 1170.833,-409.87 "/>
<g>
	<path fill="#000113" d="M228.237-952.629c-0.3,6.583-3.288,13.474-14.048,14.155c-10.76,0.682-42.443,0.598-51.111,0
		c-8.667-0.598-13.45-5.296-14.048-14.155c-0.598-8.859-0.598-18.21,0-26.387c0.598-8.177,4.882-13.044,14.048-13.857
		c9.167-0.813,44.137-0.697,51.708,0c7.572,0.697,12.852,5.296,13.451,13.857C228.835-970.455,228.536-959.212,228.237-952.629z"/>
</g>
<g>
	<polygon fill="#FFFFFF" points="289.298,-977.927 289.298,-953.418 309.225,-965.673 	"/>
</g>
<polygon fill="#000113" points="1010.833,-404.973 960.629,-354.767 910.425,-404.973 "/>
<polygon fill="#6609B7" points="770.205,-166.893 720.001,-116.688 669.797,-166.893 "/>
<polygon fill="#FFD700" points="1261.356,-183.996 1253.356,-175.996 1245.356,-183.996 "/>
<polygon fill="#FFD700" points="1261.356,-183.996 1253.356,-191.996 1245.356,-183.996 "/>
<circle fill="none" stroke="#FFFFFF" stroke-width="7" stroke-miterlimit="10" cx="546.797" cy="-983.421" r="80"/>
<circle fill="none" stroke="#FFFFFF" stroke-width="7" stroke-miterlimit="10" cx="732.026" cy="-983.421" r="80"/>
<circle fill="none" stroke="#FFFFFF" stroke-width="7" stroke-miterlimit="10" cx="915.5" cy="-983.421" r="80"/>
<path fill="none" stroke="#FFFFFF" stroke-width="7" stroke-miterlimit="10" d="M594.42-963.488c0,9.231-6.6,16.713-14.741,16.713
	h-65.772c-8.142,0-14.741-7.483-14.741-16.713v-29.572c0-9.23,6.6-16.713,14.741-16.713h65.772c8.142,0,14.741,7.482,14.741,16.713
	V-963.488z"/>
<circle fill="none" stroke="#FFFFFF" stroke-width="7" stroke-miterlimit="10" cx="546.793" cy="-978.274" r="16.286"/>
<path fill="none" stroke="#FFFFFF" stroke-width="7" stroke-miterlimit="10" d="M559.441-1012.267c0,1.377-1.343,2.494-3,2.494
	h-19.297c-1.657,0-3-1.117-3-2.494v-8.727c0-1.377,1.343-2.494,3-2.494h19.297c1.657,0,3,1.117,3,2.494V-1012.267z"/>
<path fill="#FFFFFF" d="M518.293-1011.273c0,0.829-0.691,1.5-1.542,1.5h-9.916c-0.852,0-1.542-0.671-1.542-1.5v-5.25
	c0-0.829,0.69-1.5,1.542-1.5h9.916c0.852,0,1.542,0.671,1.542,1.5V-1011.273z"/>
<circle fill="#FFFFFF" cx="577.793" cy="-994.56" r="5.999"/>
<path fill="none" stroke="#FFFFFF" stroke-width="7" stroke-miterlimit="10" d="M754.868-943.926h-49.683
	c-8.03,0-14.541-6.509-14.541-14.54h49.683C740.327-950.435,746.839-943.926,754.868-943.926c8.03,0,14.541-6.509,14.541-14.54
	v-64.449h-64.224v64.449"/>
<path fill="none" stroke="#FFFFFF" stroke-width="7" stroke-miterlimit="10" d="M698.579-938.577"/>
<line fill="none" stroke="#FFFFFF" stroke-width="7" stroke-linecap="round" stroke-miterlimit="10" x1="716.492" y1="-1009.348" x2="758.328" y2="-1009.348"/>
<line fill="none" stroke="#FFFFFF" stroke-width="7" stroke-linecap="round" stroke-miterlimit="10" x1="716.492" y1="-996.307" x2="758.328" y2="-996.307"/>
<line fill="none" stroke="#FFFFFF" stroke-width="7" stroke-linecap="round" stroke-miterlimit="10" x1="716.492" y1="-983.266" x2="758.328" y2="-983.266"/>
<line fill="none" stroke="#FFFFFF" stroke-width="7" stroke-linecap="round" stroke-miterlimit="10" x1="716.492" y1="-970.226" x2="758.328" y2="-970.226"/>
<polygon fill="none" stroke="#FFFFFF" stroke-width="7" stroke-linejoin="round" stroke-miterlimit="10" points="952.896,-983.266 
	895.959,-950.393 895.959,-1016.139 "/>
<circle fill="none" stroke="#FFFFFF" stroke-width="7" stroke-miterlimit="10" cx="1096.232" cy="-983.421" r="80"/>
<g>
	<path fill="#FFFFFF" d="M546.797-1257.945c-46.042,0-83.5,37.458-83.5,83.5s37.458,83.5,83.5,83.5s83.5-37.458,83.5-83.5
		S592.839-1257.945,546.797-1257.945z M546.797-1097.945c-42.183,0-76.5-34.318-76.5-76.5s34.317-76.5,76.5-76.5
		s76.5,34.318,76.5,76.5S588.979-1097.945,546.797-1097.945z"/>
	<path fill="#FFFFFF" d="M579.679-1204.298h-16.737v-7.721c0-3.305-2.916-5.994-6.5-5.994h-19.297c-3.584,0-6.5,2.689-6.5,5.994
		v7.721h-12.351v-3.25c0-0.828-0.691-1.5-1.542-1.5h-9.916c-0.852,0-1.542,0.672-1.542,1.5v5.25c0,0.13,0.022,0.255,0.055,0.375
		c-5.754,3.404-9.682,10.119-9.682,17.838v29.572c0,11.146,8.183,20.213,18.241,20.213h65.772c10.059,0,18.241-9.068,18.241-20.213
		v-29.572C597.92-1195.23,589.737-1204.298,579.679-1204.298z M537.644-1204.299v-6.713l18.297,0.001v6.713L537.644-1204.299z
		 M590.92-1154.513c0,7.286-5.043,13.213-11.241,13.213h-65.772c-6.198,0-11.241-5.928-11.241-13.213v-29.572
		c0-7.286,5.043-13.213,11.241-13.213h23.237h19.297h23.237c6.198,0,11.241,5.927,11.241,13.213V-1154.513z"/>
	<path fill="#FFFFFF" d="M546.793-1189.085c-10.91,0-19.786,8.876-19.786,19.787s8.876,19.786,19.786,19.786
		c10.91,0,19.786-8.876,19.786-19.786S557.703-1189.085,546.793-1189.085z M546.793-1156.512c-7.051,0-12.786-5.736-12.786-12.786
		c0-7.051,5.735-12.787,12.786-12.787c7.051,0,12.786,5.736,12.786,12.787C559.579-1162.248,553.844-1156.512,546.793-1156.512z"/>
	<circle fill="#FFFFFF" cx="577.793" cy="-1185.585" r="5.999"/>
</g>
<g>
	<path fill="#FFFFFF" d="M732.026-1257.945c-46.042,0-83.5,37.458-83.5,83.5s37.458,83.5,83.5,83.5s83.5-37.458,83.5-83.5
		S778.068-1257.945,732.026-1257.945z M732.026-1097.945c-42.183,0-76.5-34.318-76.5-76.5s34.317-76.5,76.5-76.5
		c42.183,0,76.5,34.318,76.5,76.5S774.209-1097.945,732.026-1097.945z"/>
	<path fill="#FFFFFF" d="M701.685-1152.991h-14.541v3.5c0,9.948,8.093,18.041,18.041,18.041h49.683
		c9.948,0,18.041-8.093,18.041-18.041v-67.949h-71.224V-1152.991z M705.185-1138.451c-4.865,0-9.006-3.163-10.473-7.541h42.455
		c0.553,2.798,1.754,5.367,3.441,7.541H705.185z M708.685-1210.44h57.224v60.949c0,6.088-4.953,11.041-11.041,11.041
		s-11.041-4.953-11.041-11.041v-3.5h-35.142V-1210.44z"/>
	<path fill="#FFFFFF" d="M716.492-1196.872h41.836c1.933,0,3.5-1.567,3.5-3.5s-1.567-3.5-3.5-3.5h-41.836
		c-1.933,0-3.5,1.567-3.5,3.5S714.56-1196.872,716.492-1196.872z"/>
	<path fill="#FFFFFF" d="M716.492-1183.832h41.836c1.933,0,3.5-1.567,3.5-3.5s-1.567-3.5-3.5-3.5h-41.836
		c-1.933,0-3.5,1.567-3.5,3.5S714.56-1183.832,716.492-1183.832z"/>
	<path fill="#FFFFFF" d="M716.492-1170.79h41.836c1.933,0,3.5-1.567,3.5-3.5s-1.567-3.5-3.5-3.5h-41.836c-1.933,0-3.5,1.567-3.5,3.5
		S714.56-1170.79,716.492-1170.79z"/>
	<path fill="#FFFFFF" d="M761.828-1161.25c0-1.933-1.567-3.5-3.5-3.5h-41.836c-1.933,0-3.5,1.567-3.5,3.5s1.567,3.5,3.5,3.5h41.836
		C760.261-1157.75,761.828-1159.317,761.828-1161.25z"/>
</g>
<g>
	<path fill="#FFFFFF" d="M915.5-1257.945c-46.042,0-83.5,37.458-83.5,83.5s37.458,83.5,83.5,83.5s83.5-37.458,83.5-83.5
		S961.542-1257.945,915.5-1257.945z M915.5-1097.945c-42.183,0-76.5-34.318-76.5-76.5s34.317-76.5,76.5-76.5s76.5,34.318,76.5,76.5
		S957.683-1097.945,915.5-1097.945z"/>
	<path fill="#FFFFFF" d="M954.646-1177.322l-56.937-32.872c-1.082-0.625-2.418-0.625-3.5,0c-1.083,0.625-1.75,1.781-1.75,3.031
		v65.746c0,1.25,0.667,2.406,1.75,3.031c0.541,0.312,1.146,0.469,1.75,0.469s1.209-0.156,1.75-0.469l56.937-32.874
		c1.083-0.625,1.75-1.781,1.75-3.031S955.729-1176.697,954.646-1177.322z M899.459-1147.48v-53.621l46.437,26.81L899.459-1147.48z"
		/>
</g>
<polygon fill="none" stroke="#FFFFFF" stroke-width="6" stroke-linejoin="round" stroke-miterlimit="10" points="1135.184,-952.866 
	1062.901,-952.866 1051.659,-1002.661 1146.429,-1002.661 "/>
<g>
	
		<line fill="none" stroke="#FFFFFF" stroke-width="6" stroke-linecap="round" stroke-linejoin="round" stroke-miterlimit="10" x1="1071.736" y1="-987.401" x2="1079.367" y2="-987.401"/>
	
		<line fill="none" stroke="#FFFFFF" stroke-width="6" stroke-linecap="round" stroke-linejoin="round" stroke-miterlimit="10" x1="1095.027" y1="-987.401" x2="1102.656" y2="-987.401"/>
	
		<line fill="none" stroke="#FFFFFF" stroke-width="6" stroke-linecap="round" stroke-linejoin="round" stroke-miterlimit="10" x1="1118.318" y1="-987.401" x2="1125.948" y2="-987.401"/>
</g>
<g>
	
		<line fill="none" stroke="#FFFFFF" stroke-width="6" stroke-linecap="round" stroke-linejoin="round" stroke-miterlimit="10" x1="1071.736" y1="-977.764" x2="1079.367" y2="-977.764"/>
	
		<line fill="none" stroke="#FFFFFF" stroke-width="6" stroke-linecap="round" stroke-linejoin="round" stroke-miterlimit="10" x1="1095.027" y1="-977.764" x2="1102.656" y2="-977.764"/>
	
		<line fill="none" stroke="#FFFFFF" stroke-width="6" stroke-linecap="round" stroke-linejoin="round" stroke-miterlimit="10" x1="1118.318" y1="-977.764" x2="1125.948" y2="-977.764"/>
</g>
<g>
	
		<line fill="none" stroke="#FFFFFF" stroke-width="6" stroke-linecap="round" stroke-linejoin="round" stroke-miterlimit="10" x1="1071.736" y1="-968.125" x2="1079.367" y2="-968.125"/>
	
		<line fill="none" stroke="#FFFFFF" stroke-width="6" stroke-linecap="round" stroke-linejoin="round" stroke-miterlimit="10" x1="1095.027" y1="-968.125" x2="1102.656" y2="-968.125"/>
	
		<line fill="none" stroke="#FFFFFF" stroke-width="6" stroke-linecap="round" stroke-linejoin="round" stroke-miterlimit="10" x1="1118.318" y1="-968.125" x2="1125.948" y2="-968.125"/>
</g>
<polyline fill="none" stroke="#FFFFFF" stroke-width="6" stroke-linecap="round" stroke-linejoin="round" stroke-miterlimit="10" points="
	1079.367,-1002.661 1046.036,-1021.133 1061.096,-1021.133 1094.626,-1002.661 "/>
<circle fill="none" stroke="#FFFFFF" stroke-width="6" stroke-linecap="round" stroke-linejoin="round" stroke-miterlimit="10" cx="1079.945" cy="-944.032" r="8.634"/>
<circle fill="none" stroke="#FFFFFF" stroke-width="6" stroke-linecap="round" stroke-linejoin="round" stroke-miterlimit="10" cx="1118.543" cy="-944.032" r="8.633"/>
<g>
	<path fill="#FFFFFF" d="M1096.232-1257.79c-46.042,0-83.5,37.458-83.5,83.5s37.458,83.5,83.5,83.5s83.5-37.458,83.5-83.5
		S1142.274-1257.79,1096.232-1257.79z M1096.232-1097.79c-42.183,0-76.5-34.318-76.5-76.5s34.317-76.5,76.5-76.5
		s76.5,34.318,76.5,76.5S1138.415-1097.79,1096.232-1097.79z"/>
	<path fill="#FFFFFF" d="M1146.429-1196.53h-51.032l-32.854-18.1c-0.443-0.245-0.941-0.373-1.447-0.373h-15.06
		c-1.367,0-2.562,0.925-2.904,2.249c-0.343,1.324,0.254,2.712,1.45,3.375l23.184,12.848h-16.106c-0.912,0-1.774,0.415-2.344,1.127
		c-0.568,0.712-0.783,1.645-0.583,2.534l11.242,49.794c0.31,1.368,1.524,2.339,2.927,2.339h6.994
		c-1.001,1.718-1.585,3.707-1.585,5.834c0,6.415,5.22,11.633,11.635,11.633c6.414,0,11.633-5.219,11.633-11.633
		c0-2.127-0.584-4.117-1.585-5.834h18.501c-1.002,1.718-1.585,3.707-1.585,5.834c0,6.415,5.219,11.633,11.634,11.633
		c6.414,0,11.633-5.219,11.633-11.633c0-2.127-0.584-4.117-1.585-5.834h6.593c1.402,0,2.617-0.971,2.927-2.339l11.245-49.794
		c0.2-0.889-0.014-1.822-0.583-2.534C1148.203-1196.116,1147.341-1196.53,1146.429-1196.53z M1079.945-1129.268
		c-3.107,0-5.635-2.527-5.635-5.633s2.527-5.634,5.635-5.634c3.105,0,5.633,2.527,5.633,5.634S1083.051-1129.268,1079.945-1129.268z
		 M1118.543-1129.268c-3.106,0-5.634-2.527-5.634-5.633s2.527-5.634,5.634-5.634c3.105,0,5.633,2.527,5.633,5.634
		S1121.648-1129.268,1118.543-1129.268z M1057.639-1209.002h2.686l22.64,12.472h-2.821L1057.639-1209.002z M1132.785-1146.736
		H1065.3l-9.888-43.794h39.207c0,0,0.003,0,0.004,0c0,0,0.002,0,0.004,0h48.049L1132.785-1146.736z"/>
	<path fill="#FFFFFF" d="M1079.367-1181.271h-7.631c-1.657,0-3,1.343-3,3s1.343,3,3,3h7.631c1.657,0,3-1.343,3-3
		S1081.024-1181.271,1079.367-1181.271z"/>
	<path fill="#FFFFFF" d="M1092.027-1178.271c0,1.657,1.343,3,3,3h7.629c1.657,0,3-1.343,3-3s-1.343-3-3-3h-7.629
		C1093.37-1181.271,1092.027-1179.928,1092.027-1178.271z"/>
	<path fill="#FFFFFF" d="M1118.318-1175.271h7.63c1.657,0,3-1.343,3-3s-1.343-3-3-3h-7.63c-1.657,0-3,1.343-3,3
		S1116.661-1175.271,1118.318-1175.271z"/>
	<path fill="#FFFFFF" d="M1079.367-1171.633h-7.631c-1.657,0-3,1.343-3,3s1.343,3,3,3h7.631c1.657,0,3-1.343,3-3
		S1081.024-1171.633,1079.367-1171.633z"/>
	<path fill="#FFFFFF" d="M1102.656-1171.633h-7.629c-1.657,0-3,1.343-3,3s1.343,3,3,3h7.629c1.657,0,3-1.343,3-3
		S1104.313-1171.633,1102.656-1171.633z"/>
	<path fill="#FFFFFF" d="M1118.318-1165.633h7.63c1.657,0,3-1.343,3-3s-1.343-3-3-3h-7.63c-1.657,0-3,1.343-3,3
		S1116.661-1165.633,1118.318-1165.633z"/>
	<path fill="#FFFFFF" d="M1079.367-1161.995h-7.631c-1.657,0-3,1.343-3,3c0,1.657,1.343,3,3,3h7.631c1.657,0,3-1.343,3-3
		C1082.367-1160.652,1081.024-1161.995,1079.367-1161.995z"/>
	<path fill="#FFFFFF" d="M1102.656-1161.995h-7.629c-1.657,0-3,1.343-3,3c0,1.657,1.343,3,3,3h7.629c1.657,0,3-1.343,3-3
		C1105.656-1160.652,1104.313-1161.995,1102.656-1161.995z"/>
	<path fill="#FFFFFF" d="M1118.318-1155.995h7.63c1.657,0,3-1.343,3-3c0-1.657-1.343-3-3-3h-7.63c-1.657,0-3,1.343-3,3
		C1115.318-1157.338,1116.661-1155.995,1118.318-1155.995z"/>
</g>
<g>
	<g>
		<path fill="#000113" d="M1413.428-658.793c-33.084,0-60,26.916-60,60s26.916,60,60,60s60-26.916,60-60
			S1446.512-658.793,1413.428-658.793z M1413.428-543.823c-30.311,0-54.97-24.659-54.97-54.97c0-30.31,24.659-54.97,54.97-54.97
			s54.97,24.659,54.97,54.97C1468.397-568.482,1443.738-543.823,1413.428-543.823z"/>
		<path fill="#000113" d="M1437.056-620.244h-12.027v-5.548c0-2.374-2.095-4.307-4.671-4.307h-13.865
			c-2.575,0-4.671,1.933-4.671,4.307v5.548h-8.875v-2.335c0-0.595-0.496-1.078-1.108-1.078h-7.125c-0.612,0-1.108,0.483-1.108,1.078
			v3.772c0,0.094,0.017,0.183,0.039,0.27c-4.134,2.446-6.956,7.271-6.956,12.817v21.25c0,8.009,5.879,14.523,13.107,14.523h47.261
			c7.228,0,13.107-6.515,13.107-14.523v-21.25C1450.163-613.728,1444.283-620.244,1437.056-620.244z M1406.852-620.244v-4.825
			l13.147,0.002v4.823H1406.852z M1445.133-584.47c0,5.234-3.624,9.494-8.077,9.494h-47.261c-4.454,0-8.078-4.26-8.078-9.494v-21.25
			c0-5.234,3.624-9.494,8.078-9.494h16.697h13.865h16.698c4.453,0,8.077,4.26,8.077,9.494V-584.47z"/>
		<path fill="#000113" d="M1413.425-609.312c-7.84,0-14.218,6.379-14.218,14.219c0,7.839,6.378,14.217,14.218,14.217
			s14.218-6.378,14.218-14.217C1427.643-602.933,1421.265-609.312,1413.425-609.312z M1413.425-585.907
			c-5.066,0-9.188-4.121-9.188-9.187c0-5.067,4.121-9.188,9.188-9.188s9.188,4.121,9.188,9.188
			C1422.612-590.028,1418.491-585.907,1413.425-585.907z"/>
		<circle fill="#000113" cx="1435.7" cy="-606.798" r="4.311"/>
	</g>
	<g>
		<path fill="#000113" d="M1553.428-658.793c-33.084,0-60,26.916-60,60s26.916,60,60,60s60-26.916,60-60
			S1586.512-658.793,1553.428-658.793z M1553.428-543.823c-30.311,0-54.97-24.659-54.97-54.97c0-30.31,24.659-54.97,54.97-54.97
			s54.97,24.659,54.97,54.97C1608.397-568.482,1583.738-543.823,1553.428-543.823z"/>
		<path fill="#000113" d="M1531.626-583.377h-10.449v2.515c0,7.148,5.815,12.964,12.964,12.964h35.7
			c7.148,0,12.964-5.815,12.964-12.964v-48.825h-51.179V-583.377z M1534.141-572.929c-3.496,0-6.471-2.273-7.525-5.418h30.507
			c0.397,2.011,1.261,3.857,2.473,5.418H1534.141z M1536.656-624.657h41.118v43.795c0,4.375-3.559,7.934-7.934,7.934
			c-4.374,0-7.934-3.559-7.934-7.934v-2.515h-25.251V-624.657z"/>
		<path fill="#000113" d="M1542.266-614.908h30.062c1.389,0,2.515-1.125,2.515-2.515c0-1.39-1.126-2.515-2.515-2.515h-30.062
			c-1.389,0-2.515,1.125-2.515,2.515C1539.751-616.033,1540.877-614.908,1542.266-614.908z"/>
		<path fill="#000113" d="M1542.266-605.538h30.062c1.389,0,2.515-1.126,2.515-2.515c0-1.389-1.126-2.515-2.515-2.515h-30.062
			c-1.389,0-2.515,1.126-2.515,2.515C1539.751-606.664,1540.877-605.538,1542.266-605.538z"/>
		<path fill="#000113" d="M1542.266-596.166h30.062c1.389,0,2.515-1.127,2.515-2.516c0-1.39-1.126-2.515-2.515-2.515h-30.062
			c-1.389,0-2.515,1.125-2.515,2.515C1539.751-597.293,1540.877-596.166,1542.266-596.166z"/>
		<path fill="#000113" d="M1574.842-589.311c0-1.389-1.126-2.515-2.515-2.515h-30.062c-1.389,0-2.515,1.126-2.515,2.515
			c0,1.389,1.126,2.516,2.515,2.516h30.062C1573.716-586.796,1574.842-587.923,1574.842-589.311z"/>
	</g>
	<g>
		<path fill="#000113" d="M1693.428-658.793c-33.084,0-60,26.916-60,60s26.916,60,60,60s60-26.916,60-60
			S1726.512-658.793,1693.428-658.793z M1693.428-543.823c-30.311,0-54.97-24.659-54.97-54.97c0-30.31,24.659-54.97,54.97-54.97
			s54.97,24.659,54.97,54.97C1748.397-568.482,1723.738-543.823,1693.428-543.823z"/>
		<path fill="#000113" d="M1721.557-600.86l-40.913-23.62c-0.777-0.449-1.737-0.449-2.515,0c-0.778,0.448-1.258,1.279-1.258,2.178
			v47.243c0,0.898,0.479,1.728,1.258,2.178c0.389,0.225,0.823,0.337,1.258,0.337c0.434,0,0.868-0.112,1.257-0.337l40.913-23.622
			c0.777-0.45,1.257-1.279,1.257-2.178C1722.813-599.581,1722.334-600.41,1721.557-600.86z M1681.901-579.416v-38.53l33.367,19.265
			L1681.901-579.416z"/>
	</g>
	<g>
		<path fill="#000113" d="M1833.428-658.638c-33.084,0-60,26.915-60,60c0,33.083,26.916,60,60,60s60-26.917,60-60
			C1893.428-631.723,1866.512-658.638,1833.428-658.638z M1833.428-543.668c-30.311,0-54.97-24.659-54.97-54.97
			s24.659-54.97,54.97-54.97s54.97,24.659,54.97,54.97S1863.738-543.668,1833.428-543.668z"/>
		<path fill="#000113" d="M1869.497-614.619h-36.67l-23.607-13.005c-0.318-0.176-0.677-0.269-1.04-0.269h-10.821
			c-0.982,0-1.841,0.665-2.087,1.617c-0.246,0.951,0.183,1.947,1.042,2.425l16.659,9.232h-11.573c-0.655,0-1.275,0.298-1.685,0.811
			c-0.408,0.511-0.562,1.182-0.419,1.82l8.078,35.78c0.223,0.983,1.096,1.682,2.104,1.682h5.025
			c-0.72,1.233-1.139,2.664-1.139,4.191c0,4.609,3.751,8.359,8.36,8.359c4.608,0,8.358-3.75,8.358-8.359
			c0-1.527-0.419-2.958-1.139-4.191h13.294c-0.72,1.233-1.139,2.664-1.139,4.191c0,4.609,3.75,8.359,8.359,8.359
			s8.359-3.75,8.359-8.359c0-1.527-0.42-2.958-1.139-4.191h4.737c1.007,0,1.88-0.698,2.103-1.682l8.08-35.78
			c0.145-0.639-0.01-1.31-0.419-1.82C1870.771-614.321,1870.152-614.619,1869.497-614.619z M1821.725-566.287
			c-2.233,0-4.049-1.815-4.049-4.048c0-2.231,1.815-4.048,4.049-4.048c2.231,0,4.047,1.816,4.047,4.048
			C1825.771-568.102,1823.956-566.287,1821.725-566.287z M1849.459-566.287c-2.232,0-4.048-1.815-4.048-4.048
			c0-2.231,1.815-4.048,4.048-4.048c2.231,0,4.048,1.816,4.048,4.048C1853.507-568.102,1851.69-566.287,1849.459-566.287z
			 M1805.695-623.581h1.93l16.269,8.962h-2.027L1805.695-623.581z M1859.693-578.838h-48.492l-7.105-31.47h28.173h0.003
			c0,0,0.001,0,0.003,0h34.525L1859.693-578.838z"/>
		<path fill="#000113" d="M1821.309-603.653h-5.482c-1.191,0-2.156,0.965-2.156,2.155c0,1.19,0.965,2.156,2.156,2.156h5.482
			c1.191,0,2.156-0.966,2.156-2.156C1823.465-602.688,1822.5-603.653,1821.309-603.653z"/>
		<path fill="#000113" d="M1830.406-601.498c0,1.19,0.965,2.156,2.155,2.156h5.482c1.19,0,2.155-0.966,2.155-2.156
			c0-1.19-0.965-2.155-2.155-2.155h-5.482C1831.371-603.653,1830.406-602.688,1830.406-601.498z"/>
		<path fill="#000113" d="M1849.298-599.342h5.482c1.19,0,2.155-0.966,2.155-2.156c0-1.19-0.965-2.155-2.155-2.155h-5.482
			c-1.19,0-2.155,0.965-2.155,2.155C1847.143-600.307,1848.107-599.342,1849.298-599.342z"/>
		<path fill="#000113" d="M1821.309-596.729h-5.482c-1.191,0-2.156,0.966-2.156,2.156c0,1.19,0.965,2.155,2.156,2.155h5.482
			c1.191,0,2.156-0.965,2.156-2.155C1823.465-595.764,1822.5-596.729,1821.309-596.729z"/>
		<path fill="#000113" d="M1838.044-596.729h-5.482c-1.19,0-2.155,0.966-2.155,2.156c0,1.19,0.965,2.155,2.155,2.155h5.482
			c1.19,0,2.155-0.965,2.155-2.155C1840.199-595.764,1839.234-596.729,1838.044-596.729z"/>
		<path fill="#000113" d="M1849.298-592.418h5.482c1.19,0,2.155-0.965,2.155-2.155c0-1.19-0.965-2.156-2.155-2.156h-5.482
			c-1.19,0-2.155,0.966-2.155,2.156C1847.143-593.383,1848.107-592.418,1849.298-592.418z"/>
		<path fill="#000113" d="M1821.309-589.803h-5.482c-1.191,0-2.156,0.965-2.156,2.155c0,1.19,0.965,2.156,2.156,2.156h5.482
			c1.191,0,2.156-0.966,2.156-2.156C1823.465-588.838,1822.5-589.803,1821.309-589.803z"/>
		<path fill="#000113" d="M1838.044-589.803h-5.482c-1.19,0-2.155,0.965-2.155,2.155c0,1.19,0.965,2.156,2.155,2.156h5.482
			c1.19,0,2.155-0.966,2.155-2.156C1840.199-588.838,1839.234-589.803,1838.044-589.803z"/>
		<path fill="#000113" d="M1849.298-585.491h5.482c1.19,0,2.155-0.966,2.155-2.156c0-1.19-0.965-2.155-2.155-2.155h-5.482
			c-1.19,0-2.155,0.965-2.155,2.155C1847.143-586.457,1848.107-585.491,1849.298-585.491z"/>
	</g>
</g>
<g>
	<path d="M1015.049-504.727c-8.066-8.07-21.193-8.07-29.262,0c-8.066,8.068-8.07,21.193,0,29.266
		c7.299,7.301,18.734,7.969,26.824,2.057l11.02,11.022c1.246,1.244,3.26,1.244,4.5,0c1.242-1.242,1.242-3.256,0-4.496
		l-11.021-11.022C1023.023-485.991,1022.352-497.425,1015.049-504.727z M1010.551-479.962c-5.586,5.584-14.68,5.588-20.266,0
		c-5.588-5.586-5.588-14.678,0-20.266c5.586-5.592,14.68-5.592,20.266,0C1016.139-494.639,1016.139-485.548,1010.551-479.962z"/>
</g>
<path d="M830.975-486.114l18.35-18.35c1.445-1.445,1.445-3.786,0-5.231c-1.445-1.445-3.786-1.445-5.231,0l-18.351,18.35
	l-18.351-18.35c-1.445-1.445-3.786-1.445-5.231,0c-1.445,1.445-1.445,3.786,0,5.231l18.352,18.35l-18.347,18.347
	c-1.445,1.445-1.445,3.786,0,5.231c0.722,0.723,1.67,1.084,2.615,1.084c0.947,0,1.893-0.361,2.616-1.084l18.346-18.347
	l18.351,18.347c0.723,0.723,1.668,1.084,2.615,1.084c0.946,0,1.894-0.361,2.616-1.084c1.445-1.445,1.445-3.786,0-5.231
	L830.975-486.114z"/>
<path fill="#FFD700" d="M937.129-221.846v-25.95c0-2.044-1.655-3.699-3.699-3.699c-2.044,0-3.699,1.655-3.699,3.699l-0.001,25.951
	h-25.951c-2.044,0-3.699,1.655-3.699,3.699c0,2.044,1.655,3.699,3.699,3.699l25.952-0.001v25.946c0,2.044,1.655,3.699,3.699,3.699
	c1.021,0,1.947-0.415,2.615-1.083c0.67-0.67,1.084-1.595,1.084-2.616l-0.001-25.945l25.949-0.003c1.021,0,1.945-0.413,2.615-1.083
	c0.669-0.669,1.084-1.595,1.084-2.616c0-2.044-1.655-3.699-3.699-3.699L937.129-221.846z"/>
<g>
	<path d="M893.823-498.638h42.497c1.887,0,3.415-1.528,3.415-3.415c0-1.886-1.528-3.414-3.415-3.414h-42.497
		c-1.885,0-3.415,1.528-3.415,3.414C890.408-500.166,891.938-498.638,893.823-498.638z"/>
	<path d="M936.32-489.532h-42.497c-1.885,0-3.415,1.532-3.415,3.416c0,1.885,1.53,3.415,3.415,3.415h42.497
		c1.887,0,3.415-1.53,3.415-3.415C939.735-488,938.207-489.532,936.32-489.532z"/>
	<path d="M936.32-473.595h-42.497c-1.885,0-3.415,1.529-3.415,3.415c0,1.885,1.53,3.415,3.415,3.415h42.497
		c1.887,0,3.415-1.53,3.415-3.415C939.735-472.065,938.207-473.595,936.32-473.595z"/>
</g>
<g>
	<path fill="#000113" d="M1096.916-470.925c-0.672,0-1.312-0.268-1.787-0.742l-25.326-25.324c-0.988-0.988-0.988-2.59,0-3.574
		c0.988-0.988,2.588-0.988,3.574,0l23.539,23.537l23.537-23.537c0.988-0.988,2.588-0.988,3.576,0c0.986,0.986,0.986,2.586,0,3.574
		l-25.324,25.324C1098.23-471.192,1097.588-470.925,1096.916-470.925z"/>
</g>
<g>
	<circle cx="1187.961" cy="-498.222" r="12.894"/>
	<path d="M1187.961-484.307c-12.808,0-23.191,10.383-23.191,23.191h46.383C1211.152-473.925,1200.769-484.307,1187.961-484.307z"/>
</g>
<path d="M1297.348-503.994c-5.07-5.071-13.291-5.071-18.361,0l-2.834,2.833l-2.834-2.833c-5.072-5.071-13.293-5.071-18.363,0
	c-5.07,5.071-5.07,13.292,0,18.362l2.834,2.834l18.363,18.363l18.363-18.363l2.832-2.834
	C1302.42-490.702,1302.42-498.924,1297.348-503.994z"/>
<g>
	<path d="M1381.539-496.927h-37.684v-8.48l22.465-3.018c0.74-0.1,1.258-0.78,1.16-1.52c-0.1-0.74-0.781-1.258-1.52-1.16
		l-23.637,3.177c-0.672,0.091-1.172,0.663-1.172,1.339v9.662v0.338v24.324h33.021L1381.539-496.927z"/>
	<circle cx="1346.895" cy="-466.521" r="5.405"/>
	<circle cx="1369.598" cy="-466.521" r="5.405"/>
</g>
<path fill="#FFFFFF" d="M33.752,25.578h7l1.384-8.384h-8.344c0,0,0-2.442,0-5.901c0-3.459,3.46-3.46,3.46-3.46h5.375V0.181
	c-4.312-0.407-8.712,0-8.712,0c-8.465,0.896-8.741,9.481-8.741,9.481v7.64h-7.041v8.39h7.041V50h8.578V25.578z"/>
<path fill="#FFFFFF" d="M-7.805-103.909c-6.828-0.629-38.363-0.733-46.629,0c-8.266,0.734-12.129,5.122-12.668,12.496
	c-0.539,7.374-0.539,15.806,0,23.795c0.539,7.989,4.852,12.225,12.668,12.764c7.817,0.539,36.388,0.615,46.09,0
	C1.36-55.468,4.055-61.681,4.325-67.618c0.269-5.937,0.539-16.075,0-23.795C3.785-99.133-0.976-103.28-7.805-103.909z
	 M-38.262-68.33v-22.102l17.97,11.05L-38.262-68.33z"/>
<path fill="#FFFFFF" d="M121.709,7.579c4.554-2.999,4.972-6.68,4.972-6.68c-3.795,2.391-8.04,2.992-8.04,2.992v0.003
	C116.372,1.497,113.163,0,109.603,0c-6.875,0-12.448,5.574-12.448,12.449c0,0.934,0.106,1.844,0.301,2.72
	C80.854,14.521,72.153,2.126,72.153,2.126c-5.364,10.627,3.643,16.8,3.643,16.8c-3.036-0.102-5.262-1.417-5.262-1.417
	c-0.304,10.121,9.598,12.246,9.598,12.246c-1.839,0.708-5.449,0.203-5.449,0.203c2.833,8.502,11.335,8.704,11.335,8.704
	c-6.274,6.679-18.389,5.219-18.389,5.219c6.739,4.619,15.117,6.909,23.868,5.873c18.719-2.216,32.221-18.836,30.745-37.464
	c4.018-2.494,6.147-6.457,6.147-6.457C123.949,7.92,121.709,7.579,121.709,7.579z"/>
</svg>
