<?xml version="1.0" encoding="utf-8"?>
<!-- Generator: Adobe Illustrator 21.1.0, SVG Export Plug-In . SVG Version: 6.00 Build 0)  -->
<svg version="1.1" id="Layer_1" xmlns="http://www.w3.org/2000/svg" xmlns:xlink="http://www.w3.org/1999/xlink" x="0px" y="0px"
	 viewBox="0 0 120.274 56.16" enable-background="new 0 0 120.274 56.16" xml:space="preserve">
<g>
	<path fill="#FFFFFF" d="M-46.577,78.406H-67.78c-7.939,0-14.399,6.459-14.399,14.398v21.203c0,7.939,6.459,14.398,14.399,14.398
		h21.203c7.939,0,14.399-6.459,14.399-14.398V92.804C-32.179,84.865-38.638,78.406-46.577,78.406z M-36.75,114.008
		c0,5.419-4.409,9.827-9.827,9.827H-67.78c-5.419,0-9.827-4.409-9.827-9.827V92.804c0-5.419,4.408-9.827,9.827-9.827h21.203
		c5.419,0,9.827,4.409,9.827,9.827V114.008z"/>
	<circle fill="#FFFFFF" cx="-44.009" cy="90.056" r="3.085"/>
	<path fill="#FFFFFF" d="M-57.265,90.412c-7.189,0-13.037,5.849-13.037,13.038c0,7.189,5.849,13.038,13.037,13.038
		c7.189,0,13.038-5.849,13.038-13.038C-44.226,96.261-50.075,90.412-57.265,90.412z M-57.265,111.917
		c-4.668,0-8.467-3.798-8.467-8.467c0-4.669,3.798-8.467,8.467-8.467s8.467,3.798,8.467,8.467
		C-48.797,108.119-52.596,111.917-57.265,111.917z"/>
</g>
<rect x="-101.226" y="-771.015" fill="#000113" width="841.89" height="595.28"/>
<g>
	<rect x="-65.097" y="-737.31" fill="#FFFFFF" width="100" height="100"/>
	<g>
		<g>
			<path fill="#000113" d="M1.865-647.31H-32.06c-12.703,0-23.038-10.335-23.038-23.038v-33.925
				c0-12.703,10.334-23.038,23.038-23.038H1.865c12.703,0,23.038,10.334,23.038,23.038v33.925
				C24.903-657.645,14.568-647.31,1.865-647.31z M-32.06-719.997c-8.67,0-15.724,7.054-15.724,15.724v33.925
				c0,8.67,7.054,15.724,15.724,15.724H1.865c8.67,0,15.724-7.054,15.724-15.724v-33.925c0-8.67-7.054-15.724-15.724-15.724H-32.06z
				"/>
		</g>
		<g>
			<path fill="#000113" d="M-15.234-666.379c-11.502,0-20.86-9.358-20.86-20.86c0-11.503,9.358-20.861,20.86-20.861
				c11.503,0,20.861,9.358,20.861,20.861C5.627-675.737-3.732-666.379-15.234-666.379z M-15.234-700.787
				c-7.47,0-13.547,6.077-13.547,13.547c0,7.47,6.077,13.547,13.547,13.547s13.548-6.077,13.548-13.547
				C-1.687-694.71-7.765-700.787-15.234-700.787z"/>
		</g>
		<circle fill="#000113" cx="5.974" cy="-708.669" r="4.936"/>
	</g>
</g>
<g>
	<rect x="53.308" y="-737.31" fill="#FFFFFF" width="100" height="100"/>
	<path fill="#000113" d="M107.044-637.31v-36.515H95.126v-14.2h11.918v-12.932c0,0,0.467-14.531,14.795-16.047
		c0,0,7.448-0.689,14.746,0v12.951h-9.098c0,0-5.855,0-5.855,5.856c0,5.855,0,9.988,0,9.988h14.122l-2.342,14.191h-11.849v36.708
		H107.044z"/>
</g>
<g>
	<rect x="171.713" y="-737.31" fill="#FFFFFF" width="100" height="100"/>
	<g>
		<path fill="#000113" d="M261.369-674.223c-0.3,6.583-3.288,13.474-14.048,14.155c-10.76,0.682-42.443,0.598-51.111,0
			c-8.668-0.598-13.45-5.296-14.048-14.155c-0.598-8.859-0.598-18.21,0-26.387c0.598-8.177,4.882-13.044,14.048-13.857
			c9.166-0.813,44.137-0.697,51.708,0c7.572,0.697,12.852,5.296,13.451,13.857C261.966-692.049,261.667-680.806,261.369-674.223z"/>
		<polygon fill="#FFFFFF" points="214.143,-699.521 214.143,-675.012 234.069,-687.267 		"/>
	</g>
</g>
<g>
	<rect x="290.118" y="-737.31" fill="#FFFFFF" width="100" height="100"/>
	<path fill="#000113" d="M380.118-712.547c-5.846,2.748-8.794,2.299-8.794,2.299c5.996-3.948,6.546-8.795,6.546-8.795
		c-4.997,3.148-10.586,3.94-10.586,3.94v0.003c-2.987-3.155-7.213-5.126-11.9-5.126c-9.052,0-16.39,7.338-16.39,16.39
		c0,1.23,0.14,2.428,0.396,3.581c-21.858-0.853-33.314-17.173-33.314-17.173c-7.062,13.992,4.797,22.12,4.797,22.12
		c-3.997-0.133-6.929-1.866-6.929-1.866c-0.4,13.326,12.637,16.123,12.637,16.123c-2.421,0.933-7.174,0.267-7.174,0.267
		c3.73,11.193,14.924,11.46,14.924,11.46c-8.261,8.794-24.212,6.872-24.212,6.872c8.873,6.081,19.903,9.097,31.425,7.732
		c24.646-2.919,42.424-24.8,40.48-49.326C377.314-707.327,380.118-712.547,380.118-712.547z"/>
</g>
<g>
	<rect x="136.586" y="-457.31" fill="#FFFFFF" width="100" height="100"/>
	<g>
		<g>
			<path fill="#000113" d="M203.548-367.31h-33.925c-12.703,0-23.038-10.336-23.038-23.038v-33.925
				c0-12.703,10.335-23.037,23.038-23.037h33.925c12.703,0,23.038,10.334,23.038,23.037v33.925
				C226.586-377.646,216.251-367.31,203.548-367.31z M169.623-439.997c-8.67,0-15.724,7.055-15.724,15.725v33.925
				c0,8.671,7.054,15.724,15.724,15.724h33.925c8.67,0,15.724-7.053,15.724-15.724v-33.925c0-8.67-7.054-15.725-15.724-15.725
				H169.623z"/>
		</g>
		<g>
			<path fill="#000113" d="M186.449-386.38c-11.502,0-20.86-9.357-20.86-20.859c0-11.504,9.358-20.861,20.86-20.861
				c11.503,0,20.861,9.357,20.861,20.861C207.31-395.737,197.952-386.38,186.449-386.38z M186.449-420.787
				c-7.47,0-13.547,6.077-13.547,13.548c0,7.469,6.077,13.547,13.547,13.547c7.47,0,13.548-6.078,13.548-13.547
				C199.997-414.71,193.918-420.787,186.449-420.787z"/>
		</g>
		<circle fill="#000113" cx="207.657" cy="-428.669" r="4.936"/>
	</g>
</g>
<g>
	<rect x="254.991" y="-457.31" fill="#FFFFFF" width="100" height="100"/>
	<path fill="#000113" d="M308.727-357.31v-36.516H296.81v-14.199h11.918v-12.933c0,0,0.467-14.531,14.795-16.047
		c0,0,7.449-0.688,14.746,0v12.95h-9.098c0,0-5.855,0.001-5.855,5.857c0,5.854,0,9.988,0,9.988h14.123l-2.342,14.19h-11.85v36.709
		H308.727z"/>
</g>
<g>
	<rect x="373.119" y="-457.31" fill="#FFFFFF" width="100" height="100"/>
	<path fill="#000113" d="M463.119-432.547c-5.846,2.749-8.795,2.299-8.795,2.299c5.996-3.948,6.547-8.795,6.547-8.795
		c-4.998,3.147-10.586,3.94-10.586,3.94v0.004c-2.988-3.156-7.213-5.127-11.9-5.127c-9.053,0-16.391,7.338-16.391,16.391
		c0,1.231,0.141,2.428,0.396,3.58c-21.857-0.852-33.314-17.172-33.314-17.172c-7.062,13.991,4.797,22.119,4.797,22.119
		c-3.996-0.133-6.928-1.865-6.928-1.865c-0.4,13.326,12.637,16.123,12.637,16.123c-2.422,0.934-7.174,0.268-7.174,0.268
		c3.73,11.193,14.924,11.459,14.924,11.459c-8.262,8.795-24.213,6.873-24.213,6.873c8.873,6.081,19.904,9.096,31.426,7.732
		c24.645-2.919,42.424-24.801,40.48-49.326C460.314-427.327,463.119-432.547,463.119-432.547z"/>
</g>
<g>
	<path fill="#FFFFFF" d="M44.903-541.31c0,33-27,60-60,60s-60-27-60-60s27-60,60-60S44.903-574.31,44.903-541.31z"/>
	<path fill="#000113" d="M1.865-501.31H-32.06c-12.703,0-23.038-10.335-23.038-23.038v-33.925c0-12.703,10.334-23.038,23.038-23.038
		H1.865c12.703,0,23.038,10.334,23.038,23.038v33.925C24.903-511.645,14.568-501.31,1.865-501.31z M-32.06-573.997
		c-8.67,0-15.724,7.054-15.724,15.724v33.925c0,8.67,7.054,15.724,15.724,15.724H1.865c8.67,0,15.724-7.054,15.724-15.724v-33.925
		c0-8.67-7.054-15.724-15.724-15.724H-32.06z"/>
	<path fill="#000113" d="M-15.234-520.379c-11.502,0-20.86-9.358-20.86-20.86c0-11.503,9.358-20.861,20.86-20.861
		c11.503,0,20.861,9.358,20.861,20.861C5.627-529.737-3.732-520.379-15.234-520.379z M-15.234-554.787
		c-7.47,0-13.547,6.077-13.547,13.547c0,7.47,6.077,13.547,13.547,13.547s13.548-6.077,13.548-13.547
		C-1.687-548.71-7.765-554.787-15.234-554.787z"/>
	<circle fill="#000113" cx="5.974" cy="-562.669" r="4.936"/>
</g>
<g>
	<path fill="#FFFFFF" d="M173.308-541.31c0,33-27,60-60,60s-60-27-60-60s27-60,60-60S173.308-574.31,173.308-541.31z"/>
	<path fill="#000113" d="M117.044-481.31v-46.515h-11.918v-14.2h11.918v-12.932c0,0,0.467-14.531,14.795-16.047
		c0,0,7.448-0.689,14.746,0v12.951h-9.098c0,0-5.855,0-5.855,5.856c0,5.855,0,9.988,0,9.988h14.122l-2.342,14.191h-11.849v46.708
		H117.044z"/>
</g>
<g>
	<path fill="#FFFFFF" d="M301.713-541.31c0,33-27,60-60,60s-60-27-60-60s27-60,60-60S301.713-574.31,301.713-541.31z"/>
	<path fill="#000113" d="M281.369-528.223c-0.3,6.583-3.288,13.474-14.048,14.155c-10.76,0.682-42.443,0.598-51.111,0
		c-8.668-0.598-13.45-5.296-14.048-14.155c-0.598-8.859-0.598-18.21,0-26.387c0.598-8.177,4.882-13.044,14.048-13.857
		c9.166-0.813,44.137-0.697,51.708,0c7.572,0.697,12.852,5.296,13.451,13.857C281.966-546.049,281.667-534.806,281.369-528.223z"/>
	<polygon fill="#FFFFFF" points="234.143,-553.521 234.143,-529.012 254.069,-541.267 	"/>
</g>
<g>
	<path fill="#FFFFFF" d="M244.106-151.3c-33,0-60,27-60,60s27,60,60,60s60-27,60-60S277.106-151.3,244.106-151.3z M283.762-78.212
		c-0.3,6.583-3.288,13.473-14.048,14.154c-10.76,0.682-42.443,0.598-51.111,0c-8.667-0.598-13.45-5.295-14.048-14.154
		c-0.598-8.859-0.598-18.21,0-26.387c0.598-8.178,4.882-13.044,14.048-13.857c9.167-0.812,44.137-0.697,51.708,0
		c7.572,0.697,12.852,5.297,13.451,13.857C284.359-96.038,284.06-84.796,283.762-78.212z"/>
	<polygon fill="#FFFFFF" points="236.536,-79.002 256.462,-91.257 236.536,-103.511 	"/>
</g>
<g>
	<path fill="#FFFFFF" d="M430.118-541.31c0,33-27,60-60,60s-60-27-60-60s27-60,60-60S430.118-574.31,430.118-541.31z"/>
	<path fill="#000113" d="M410.118-566.547c-5.846,2.748-8.794,2.299-8.794,2.299c5.996-3.948,6.546-8.795,6.546-8.795
		c-4.997,3.148-10.586,3.94-10.586,3.94v0.003c-2.987-3.155-7.213-5.126-11.9-5.126c-9.052,0-16.39,7.338-16.39,16.39
		c0,1.23,0.14,2.428,0.396,3.581c-21.858-0.853-33.314-17.173-33.314-17.173c-7.062,13.992,4.797,22.12,4.797,22.12
		c-3.997-0.133-6.929-1.866-6.929-1.866c-0.4,13.326,12.637,16.123,12.637,16.123c-2.421,0.933-7.174,0.267-7.174,0.267
		c3.73,11.193,14.924,11.46,14.924,11.46c-8.261,8.794-24.212,6.872-24.212,6.872c8.873,6.082,19.903,9.097,31.425,7.732
		c24.646-2.919,42.424-24.8,40.48-49.326C407.314-561.327,410.118-566.547,410.118-566.547z"/>
</g>
<g>
	<path fill="#FFFFFF" d="M1.865-123.986H-32.06c-8.67,0-15.724,7.054-15.724,15.724v33.926c0,8.67,7.054,15.724,15.724,15.724H1.865
		c8.67,0,15.724-7.054,15.724-15.724v-33.926C17.589-116.933,10.535-123.986,1.865-123.986z M-15.234-70.369
		c-11.502,0-20.86-9.358-20.86-20.86c0-11.503,9.358-20.861,20.86-20.861c11.503,0,20.861,9.358,20.861,20.861
		C5.627-79.728-3.732-70.369-15.234-70.369z M5.975-107.724c-2.727,0-4.936-2.209-4.936-4.936c0-2.726,2.21-4.936,4.936-4.936
		c2.725,0,4.935,2.21,4.935,4.936C10.909-109.933,8.699-107.724,5.975-107.724z"/>
	<path fill="#FFFFFF" d="M-15.234-104.776c-7.47,0-13.547,6.076-13.547,13.547c0,7.47,6.077,13.547,13.547,13.547
		S-1.687-83.76-1.687-91.229C-1.687-98.7-7.765-104.776-15.234-104.776z"/>
	<path fill="#FFFFFF" d="M-15.097-151.3c-33,0-60,27-60,60s27,60,60,60s60-27,60-60S17.903-151.3-15.097-151.3z M24.903-74.337
		c0,12.702-10.335,23.037-23.038,23.037H-32.06c-12.703,0-23.038-10.335-23.038-23.037v-33.926
		c0-12.703,10.334-23.037,23.038-23.037H1.865c12.703,0,23.038,10.334,23.038,23.037V-74.337z"/>
</g>
<g>
	<path fill="#FFFFFF" d="M173.308-91.3c0-33-27-60-60-60s-60,27-60,60s27,60,60,60c1.256,0,2.499-0.052,3.736-0.129v-46.386h-11.918
		v-14.2h11.918v-12.932c0,0,0.467-14.531,14.795-16.047c0,0,7.448-0.689,14.746,0v12.95h-9.098c0,0-5.855,0.001-5.855,5.856
		c0,5.854,0,9.988,0,9.988h14.122l-2.342,14.19h-11.849v43.841C155.708-41.938,173.308-64.659,173.308-91.3z"/>
</g>
<path fill="#FFFFFF" d="M370.118-151.3c-33,0-60,27-60,60s27,60,60,60s60-27,60-60S403.118-151.3,370.118-151.3z M402.024-108.034
	c1.943,24.526-15.835,46.408-40.48,49.326c-11.521,1.364-22.552-1.65-31.425-7.732c0,0,15.951,1.922,24.212-6.872
	c0,0-11.193-0.267-14.924-11.46c0,0,4.753,0.666,7.174-0.267c0,0-13.037-2.798-12.637-16.124c0,0,2.932,1.732,6.929,1.866
	c0,0-11.859-8.128-4.797-22.12c0,0,11.456,16.32,33.314,17.173c-0.257-1.153-0.396-2.351-0.396-3.581
	c0-9.052,7.338-16.391,16.39-16.391c4.688,0,8.913,1.972,11.9,5.127v-0.004c0,0,5.589-0.792,10.586-3.94c0,0-0.55,4.847-6.546,8.795
	c0,0,2.948,0.449,8.794-2.299C410.118-116.536,407.314-111.317,402.024-108.034z"/>
<g>
	<path fill="#000113" d="M1110.702-580.379c-33,0-60,27-60,60s27,60,60,60s60-26.999,60-60S1143.702-580.379,1110.702-580.379z
		 M1150.357-507.292c-0.3,6.583-3.288,13.473-14.049,14.154c-10.76,0.682-42.442,0.598-51.11,0
		c-8.667-0.598-13.45-5.295-14.048-14.154c-0.598-8.859-0.598-18.21,0-26.387c0.598-8.178,4.882-13.044,14.048-13.857
		c9.167-0.812,44.137-0.697,51.708,0c7.572,0.697,12.853,5.297,13.451,13.857C1150.955-525.118,1150.656-513.875,1150.357-507.292z"
		/>
	<polygon fill="#000113" points="1103.132,-508.082 1123.059,-520.336 1103.132,-532.59 	"/>
</g>
<g>
	<path fill="#000113" d="M1030.702-520.379c0-33-27-60-60-60s-60,27-60,60s27,60,60,60c1.256,0,2.498-0.051,3.736-0.129v-46.385
		h-11.918v-14.2h11.918v-12.932c0,0,0.467-14.531,14.795-16.047c0,0,7.448-0.69,14.746,0v12.95h-9.098c0,0-5.855,0.001-5.855,5.856
		c0,5.854,0,9.988,0,9.988h14.122l-2.342,14.19h-11.849v43.84C1013.102-471.019,1030.702-493.739,1030.702-520.379z"/>
</g>
<path fill="#000113" d="M1250.702-580.309c-33,0-60,27-60,60s27,59.999,60,59.999s60-26.999,60-59.999
	S1283.702-580.309,1250.702-580.309z M1282.608-537.043c1.943,24.526-15.835,46.408-40.48,49.326
	c-11.521,1.364-22.552-1.65-31.425-7.733c0,0,15.951,1.922,24.212-6.872c0,0-11.193-0.267-14.924-11.46c0,0,4.753,0.666,7.174-0.267
	c0,0-13.037-2.798-12.637-16.124c0,0,2.932,1.732,6.929,1.866c0,0-11.859-8.128-4.797-22.12c0,0,11.456,16.32,33.315,17.173
	c-0.257-1.153-0.396-2.351-0.396-3.581c0-9.052,7.338-16.391,16.39-16.391c4.688,0,8.913,1.972,11.9,5.127v-0.004
	c0,0,5.589-0.792,10.586-3.94c0,0-0.55,4.847-6.546,8.795c0,0,2.948,0.449,8.794-2.299
	C1290.702-545.545,1287.898-540.326,1282.608-537.043z"/>
<g>
	<path fill="#FFFFFF" d="M892.774-711.015c0,33-27,60-60,60s-60-27-60-60s27-60,60-60S892.774-744.015,892.774-711.015z"/>
	<path fill="#000113" d="M872.774-736.251c-5.846,2.748-8.794,2.299-8.794,2.299c5.996-3.948,6.546-8.795,6.546-8.795
		c-4.997,3.148-10.586,3.94-10.586,3.94v0.003c-2.987-3.155-7.213-5.126-11.9-5.126c-9.052,0-16.39,7.338-16.39,16.39
		c0,1.231,0.14,2.428,0.396,3.581c-21.858-0.853-33.315-17.173-33.315-17.173c-7.062,13.992,4.797,22.12,4.797,22.12
		c-3.997-0.133-6.929-1.866-6.929-1.866c-0.4,13.326,12.637,16.124,12.637,16.124c-2.421,0.933-7.174,0.267-7.174,0.267
		c3.73,11.193,14.924,11.46,14.924,11.46c-8.261,8.794-24.212,6.872-24.212,6.872c8.873,6.081,19.903,9.097,31.425,7.732
		c24.645-2.919,42.424-24.8,40.48-49.326C869.971-731.032,872.774-736.251,872.774-736.251z"/>
</g>
<g>
	<polygon fill="#FFFFFF" points="-3.369,-339.761 7.431,-395.606 -3.369,-451.452 31.783,-395.606 	"/>
</g>
<g>
	<polygon fill="#FFFFFF" points="-27.1,-339.761 -37.899,-395.606 -27.1,-451.452 -62.251,-395.606 	"/>
</g>
<polygon fill="#FFFFFF" points="30.963,-196.079 -45.161,-196.079 18.715,-256.079 94.839,-256.079 "/>
<g>
	<polygon fill="#000113" points="832.548,-245.618 843.348,-301.464 832.548,-357.31 867.699,-301.464 	"/>
</g>
<g>
	<polygon fill="#000113" points="808.816,-245.618 798.018,-301.464 808.816,-357.31 773.666,-301.464 	"/>
</g>
<polygon fill="#000113" points="1084.231,-271.464 1008.107,-271.464 1071.982,-331.464 1148.107,-331.464 "/>
<g>
	<path fill="#000113" d="M205.512-874.223c-0.3,6.583-3.288,13.474-14.048,14.155c-10.76,0.682-42.443,0.598-51.111,0
		c-8.667-0.598-13.45-5.296-14.048-14.155c-0.598-8.859-0.598-18.21,0-26.387c0.598-8.177,4.882-13.044,14.048-13.857
		c9.167-0.813,44.137-0.697,51.709,0c7.572,0.697,12.852,5.296,13.451,13.857C206.109-892.049,205.81-880.806,205.512-874.223z"/>
</g>
<g>
	<polygon fill="#FFFFFF" points="266.573,-899.521 266.573,-875.012 286.499,-887.267 	"/>
</g>
<polygon fill="#000113" points="988.107,-326.566 937.903,-276.361 887.699,-326.566 "/>
<polygon fill="#6609B7" points="747.479,-88.487 697.275,-38.282 647.071,-88.487 "/>
<polygon fill="#FFD700" points="1238.631,-105.59 1230.631,-97.59 1222.631,-105.59 "/>
<polygon fill="#FFD700" points="1238.631,-105.59 1230.631,-113.59 1222.631,-105.59 "/>
<circle fill="none" stroke="#FFFFFF" stroke-width="7" stroke-miterlimit="10" cx="524.071" cy="-905.015" r="80"/>
<circle fill="none" stroke="#FFFFFF" stroke-width="7" stroke-miterlimit="10" cx="709.301" cy="-905.015" r="80"/>
<circle fill="none" stroke="#FFFFFF" stroke-width="7" stroke-miterlimit="10" cx="892.774" cy="-905.015" r="80"/>
<path fill="none" stroke="#FFFFFF" stroke-width="7" stroke-miterlimit="10" d="M571.694-885.082c0,9.231-6.6,16.713-14.741,16.713
	h-65.771c-8.142,0-14.741-7.483-14.741-16.713v-29.572c0-9.23,6.6-16.713,14.741-16.713h65.771c8.142,0,14.741,7.482,14.741,16.713
	V-885.082z"/>
<circle fill="none" stroke="#FFFFFF" stroke-width="7" stroke-miterlimit="10" cx="524.067" cy="-899.868" r="16.286"/>
<path fill="none" stroke="#FFFFFF" stroke-width="7" stroke-miterlimit="10" d="M536.716-933.861c0,1.377-1.343,2.494-3,2.494
	h-19.297c-1.657,0-3-1.117-3-2.494v-8.727c0-1.377,1.343-2.494,3-2.494h19.297c1.657,0,3,1.117,3,2.494V-933.861z"/>
<path fill="#FFFFFF" d="M495.567-932.867c0,0.829-0.691,1.5-1.542,1.5h-9.916c-0.852,0-1.542-0.671-1.542-1.5v-5.25
	c0-0.829,0.69-1.5,1.542-1.5h9.916c0.851,0,1.542,0.671,1.542,1.5V-932.867z"/>
<circle fill="#FFFFFF" cx="555.067" cy="-916.154" r="5.999"/>
<path fill="none" stroke="#FFFFFF" stroke-width="7" stroke-miterlimit="10" d="M732.143-865.52H682.46
	c-8.03,0-14.541-6.509-14.541-14.54h49.683C717.601-872.029,724.113-865.52,732.143-865.52c8.03,0,14.541-6.509,14.541-14.54
	v-64.449H682.46v64.449"/>
<path fill="none" stroke="#FFFFFF" stroke-width="7" stroke-miterlimit="10" d="M675.853-860.17"/>
<line fill="none" stroke="#FFFFFF" stroke-width="7" stroke-linecap="round" stroke-miterlimit="10" x1="693.767" y1="-930.941" x2="735.602" y2="-930.941"/>
<line fill="none" stroke="#FFFFFF" stroke-width="7" stroke-linecap="round" stroke-miterlimit="10" x1="693.767" y1="-917.901" x2="735.602" y2="-917.901"/>
<line fill="none" stroke="#FFFFFF" stroke-width="7" stroke-linecap="round" stroke-miterlimit="10" x1="693.767" y1="-904.86" x2="735.602" y2="-904.86"/>
<line fill="none" stroke="#FFFFFF" stroke-width="7" stroke-linecap="round" stroke-miterlimit="10" x1="693.767" y1="-891.819" x2="735.602" y2="-891.819"/>
<polygon fill="none" stroke="#FFFFFF" stroke-width="7" stroke-linejoin="round" stroke-miterlimit="10" points="930.17,-904.86 
	873.233,-871.987 873.233,-937.732 "/>
<circle fill="none" stroke="#FFFFFF" stroke-width="7" stroke-miterlimit="10" cx="1073.507" cy="-905.015" r="80"/>
<g>
	<path fill="#FFFFFF" d="M524.071-1179.539c-46.042,0-83.5,37.458-83.5,83.5c0,46.042,37.458,83.5,83.5,83.5s83.5-37.458,83.5-83.5
		C607.571-1142.081,570.113-1179.539,524.071-1179.539z M524.071-1019.539c-42.183,0-76.5-34.318-76.5-76.5
		c0-42.182,34.317-76.5,76.5-76.5c42.183,0,76.5,34.318,76.5,76.5C600.571-1053.857,566.254-1019.539,524.071-1019.539z"/>
	<path fill="#FFFFFF" d="M556.953-1125.892h-16.737v-7.721c0-3.305-2.916-5.994-6.5-5.994h-19.297c-3.584,0-6.5,2.689-6.5,5.994
		v7.721h-12.352v-3.25c0-0.829-0.691-1.5-1.542-1.5h-9.916c-0.852,0-1.542,0.671-1.542,1.5v5.25c0,0.13,0.022,0.254,0.055,0.375
		c-5.754,3.404-9.682,10.119-9.682,17.838v29.572c0,11.146,8.183,20.213,18.241,20.213h65.771c10.059,0,18.241-9.068,18.241-20.213
		v-29.572C575.194-1116.824,567.012-1125.892,556.953-1125.892z M514.919-1125.892v-6.714l18.297,0.001v6.713L514.919-1125.892z
		 M568.194-1076.106c0,7.286-5.043,13.213-11.241,13.213h-65.771c-6.198,0-11.241-5.928-11.241-13.213v-29.572
		c0-7.286,5.043-13.213,11.241-13.213h23.237h19.297h23.237c6.198,0,11.241,5.927,11.241,13.213V-1076.106z"/>
	<path fill="#FFFFFF" d="M524.067-1110.679c-10.91,0-19.786,8.876-19.786,19.787c0,10.91,8.876,19.786,19.786,19.786
		c10.91,0,19.786-8.876,19.786-19.786C543.853-1101.802,534.977-1110.679,524.067-1110.679z M524.067-1078.106
		c-7.051,0-12.786-5.736-12.786-12.786c0-7.051,5.735-12.787,12.786-12.787s12.786,5.736,12.786,12.787
		C536.853-1083.842,531.118-1078.106,524.067-1078.106z"/>
	<circle fill="#FFFFFF" cx="555.067" cy="-1107.179" r="5.999"/>
</g>
<g>
	<path fill="#FFFFFF" d="M709.301-1179.539c-46.042,0-83.5,37.458-83.5,83.5c0,46.042,37.458,83.5,83.5,83.5s83.5-37.458,83.5-83.5
		C792.801-1142.081,755.343-1179.539,709.301-1179.539z M709.301-1019.539c-42.183,0-76.5-34.318-76.5-76.5
		c0-42.182,34.317-76.5,76.5-76.5s76.5,34.318,76.5,76.5C785.801-1053.857,751.483-1019.539,709.301-1019.539z"/>
	<path fill="#FFFFFF" d="M678.96-1074.585h-14.541v3.5c0,9.948,8.093,18.041,18.041,18.041h49.683
		c9.948,0,18.041-8.093,18.041-18.041v-67.949H678.96V-1074.585z M682.46-1060.044c-4.865,0-9.006-3.163-10.473-7.541h42.455
		c0.553,2.798,1.754,5.367,3.441,7.541H682.46z M685.96-1132.034h57.224v60.949c0,6.088-4.953,11.041-11.041,11.041
		s-11.041-4.953-11.041-11.041v-3.5H685.96V-1132.034z"/>
	<path fill="#FFFFFF" d="M693.767-1118.466h41.836c1.933,0,3.5-1.567,3.5-3.5s-1.567-3.5-3.5-3.5h-41.836
		c-1.933,0-3.5,1.567-3.5,3.5S691.834-1118.466,693.767-1118.466z"/>
	<path fill="#FFFFFF" d="M693.767-1105.426h41.836c1.933,0,3.5-1.567,3.5-3.5c0-1.933-1.567-3.5-3.5-3.5h-41.836
		c-1.933,0-3.5,1.567-3.5,3.5C690.267-1106.993,691.834-1105.426,693.767-1105.426z"/>
	<path fill="#FFFFFF" d="M693.767-1092.384h41.836c1.933,0,3.5-1.567,3.5-3.5s-1.567-3.5-3.5-3.5h-41.836
		c-1.933,0-3.5,1.567-3.5,3.5S691.834-1092.384,693.767-1092.384z"/>
	<path fill="#FFFFFF" d="M739.102-1082.844c0-1.933-1.567-3.5-3.5-3.5h-41.836c-1.933,0-3.5,1.567-3.5,3.5s1.567,3.5,3.5,3.5h41.836
		C737.535-1079.344,739.102-1080.911,739.102-1082.844z"/>
</g>
<g>
	<path fill="#FFFFFF" d="M892.774-1179.539c-46.042,0-83.5,37.458-83.5,83.5c0,46.042,37.458,83.5,83.5,83.5
		c46.042,0,83.5-37.458,83.5-83.5C976.274-1142.081,938.816-1179.539,892.774-1179.539z M892.774-1019.539
		c-42.183,0-76.5-34.318-76.5-76.5c0-42.182,34.317-76.5,76.5-76.5c42.183,0,76.5,34.318,76.5,76.5
		C969.274-1053.857,934.957-1019.539,892.774-1019.539z"/>
	<path fill="#FFFFFF" d="M931.92-1098.916l-56.936-32.872c-1.082-0.625-2.418-0.625-3.5,0c-1.083,0.625-1.75,1.781-1.75,3.031
		v65.746c0,1.25,0.667,2.406,1.75,3.031c0.541,0.312,1.145,0.469,1.75,0.469c0.604,0,1.209-0.156,1.75-0.469l56.936-32.874
		c1.083-0.625,1.75-1.781,1.75-3.031C933.67-1097.135,933.003-1098.291,931.92-1098.916z M876.733-1069.074v-53.621l46.436,26.81
		L876.733-1069.074z"/>
</g>
<polygon fill="none" stroke="#FFFFFF" stroke-width="6" stroke-linejoin="round" stroke-miterlimit="10" points="1112.458,-874.46 
	1040.176,-874.46 1028.934,-924.254 1123.703,-924.254 "/>
<g>
	
		<line fill="none" stroke="#FFFFFF" stroke-width="6" stroke-linecap="round" stroke-linejoin="round" stroke-miterlimit="10" x1="1049.011" y1="-908.995" x2="1056.642" y2="-908.995"/>
	
		<line fill="none" stroke="#FFFFFF" stroke-width="6" stroke-linecap="round" stroke-linejoin="round" stroke-miterlimit="10" x1="1072.302" y1="-908.995" x2="1079.931" y2="-908.995"/>
	
		<line fill="none" stroke="#FFFFFF" stroke-width="6" stroke-linecap="round" stroke-linejoin="round" stroke-miterlimit="10" x1="1095.593" y1="-908.995" x2="1103.223" y2="-908.995"/>
</g>
<g>
	
		<line fill="none" stroke="#FFFFFF" stroke-width="6" stroke-linecap="round" stroke-linejoin="round" stroke-miterlimit="10" x1="1049.011" y1="-899.357" x2="1056.642" y2="-899.357"/>
	
		<line fill="none" stroke="#FFFFFF" stroke-width="6" stroke-linecap="round" stroke-linejoin="round" stroke-miterlimit="10" x1="1072.302" y1="-899.357" x2="1079.931" y2="-899.357"/>
	
		<line fill="none" stroke="#FFFFFF" stroke-width="6" stroke-linecap="round" stroke-linejoin="round" stroke-miterlimit="10" x1="1095.593" y1="-899.357" x2="1103.223" y2="-899.357"/>
</g>
<g>
	
		<line fill="none" stroke="#FFFFFF" stroke-width="6" stroke-linecap="round" stroke-linejoin="round" stroke-miterlimit="10" x1="1049.011" y1="-889.719" x2="1056.642" y2="-889.719"/>
	
		<line fill="none" stroke="#FFFFFF" stroke-width="6" stroke-linecap="round" stroke-linejoin="round" stroke-miterlimit="10" x1="1072.302" y1="-889.719" x2="1079.931" y2="-889.719"/>
	
		<line fill="none" stroke="#FFFFFF" stroke-width="6" stroke-linecap="round" stroke-linejoin="round" stroke-miterlimit="10" x1="1095.593" y1="-889.719" x2="1103.223" y2="-889.719"/>
</g>
<polyline fill="none" stroke="#FFFFFF" stroke-width="6" stroke-linecap="round" stroke-linejoin="round" stroke-miterlimit="10" points="
	1056.642,-924.254 1023.31,-942.727 1038.37,-942.727 1071.9,-924.254 "/>
<circle fill="none" stroke="#FFFFFF" stroke-width="6" stroke-linecap="round" stroke-linejoin="round" stroke-miterlimit="10" cx="1057.219" cy="-865.626" r="8.634"/>
<circle fill="none" stroke="#FFFFFF" stroke-width="6" stroke-linecap="round" stroke-linejoin="round" stroke-miterlimit="10" cx="1095.817" cy="-865.626" r="8.633"/>
<g>
	<path fill="#FFFFFF" d="M1073.507-1179.384c-46.042,0-83.5,37.458-83.5,83.5s37.458,83.5,83.5,83.5s83.5-37.458,83.5-83.5
		S1119.549-1179.384,1073.507-1179.384z M1073.507-1019.384c-42.183,0-76.5-34.318-76.5-76.5c0-42.182,34.317-76.5,76.5-76.5
		c42.182,0,76.5,34.318,76.5,76.5C1150.007-1053.702,1115.689-1019.384,1073.507-1019.384z"/>
	<path fill="#FFFFFF" d="M1123.703-1118.124h-51.032l-32.854-18.1c-0.443-0.245-0.941-0.372-1.447-0.372h-15.06
		c-1.367,0-2.562,0.925-2.904,2.249c-0.343,1.324,0.254,2.712,1.45,3.375l23.184,12.848h-16.106c-0.912,0-1.774,0.415-2.344,1.127
		c-0.568,0.712-0.783,1.644-0.583,2.534l11.242,49.794c0.31,1.368,1.524,2.339,2.927,2.339h6.994
		c-1.001,1.718-1.585,3.707-1.585,5.834c0,6.415,5.22,11.633,11.635,11.633c6.414,0,11.633-5.219,11.633-11.633
		c0-2.127-0.584-4.117-1.585-5.834h18.501c-1.002,1.718-1.585,3.707-1.585,5.834c0,6.415,5.219,11.633,11.634,11.633
		c6.414,0,11.633-5.219,11.633-11.633c0-2.127-0.584-4.117-1.585-5.834h6.593c1.402,0,2.617-0.971,2.927-2.339l11.245-49.794
		c0.2-0.889-0.014-1.822-0.583-2.534C1125.478-1117.709,1124.615-1118.124,1123.703-1118.124z M1057.22-1050.862
		c-3.107,0-5.635-2.527-5.635-5.633s2.527-5.634,5.635-5.634c3.105,0,5.633,2.527,5.633,5.634S1060.325-1050.862,1057.22-1050.862z
		 M1095.817-1050.862c-3.106,0-5.634-2.527-5.634-5.633s2.527-5.634,5.634-5.634c3.105,0,5.633,2.527,5.633,5.634
		S1098.923-1050.862,1095.817-1050.862z M1034.913-1130.596h2.686l22.64,12.472h-2.821L1034.913-1130.596z M1110.06-1068.329
		h-67.485l-9.888-43.795h39.207c0,0,0.003,0,0.004,0c0,0,0.002,0,0.004,0h48.049L1110.06-1068.329z"/>
	<path fill="#FFFFFF" d="M1056.642-1102.865h-7.631c-1.657,0-3,1.343-3,3c0,1.657,1.343,3,3,3h7.631c1.657,0,3-1.343,3-3
		C1059.642-1101.521,1058.299-1102.865,1056.642-1102.865z"/>
	<path fill="#FFFFFF" d="M1069.302-1099.865c0,1.657,1.343,3,3,3h7.629c1.657,0,3-1.343,3-3c0-1.657-1.343-3-3-3h-7.629
		C1070.645-1102.865,1069.302-1101.521,1069.302-1099.865z"/>
	<path fill="#FFFFFF" d="M1095.593-1096.865h7.63c1.657,0,3-1.343,3-3c0-1.657-1.343-3-3-3h-7.63c-1.657,0-3,1.343-3,3
		C1092.593-1098.208,1093.936-1096.865,1095.593-1096.865z"/>
	<path fill="#FFFFFF" d="M1056.642-1093.227h-7.631c-1.657,0-3,1.343-3,3c0,1.657,1.343,3,3,3h7.631c1.657,0,3-1.343,3-3
		C1059.642-1091.884,1058.299-1093.227,1056.642-1093.227z"/>
	<path fill="#FFFFFF" d="M1079.931-1093.227h-7.629c-1.657,0-3,1.343-3,3c0,1.657,1.343,3,3,3h7.629c1.657,0,3-1.343,3-3
		C1082.931-1091.884,1081.588-1093.227,1079.931-1093.227z"/>
	<path fill="#FFFFFF" d="M1095.593-1087.227h7.63c1.657,0,3-1.343,3-3c0-1.657-1.343-3-3-3h-7.63c-1.657,0-3,1.343-3,3
		C1092.593-1088.57,1093.936-1087.227,1095.593-1087.227z"/>
	<path fill="#FFFFFF" d="M1056.642-1083.589h-7.631c-1.657,0-3,1.343-3,3s1.343,3,3,3h7.631c1.657,0,3-1.343,3-3
		S1058.299-1083.589,1056.642-1083.589z"/>
	<path fill="#FFFFFF" d="M1079.931-1083.589h-7.629c-1.657,0-3,1.343-3,3s1.343,3,3,3h7.629c1.657,0,3-1.343,3-3
		S1081.588-1083.589,1079.931-1083.589z"/>
	<path fill="#FFFFFF" d="M1095.593-1077.589h7.63c1.657,0,3-1.343,3-3s-1.343-3-3-3h-7.63c-1.657,0-3,1.343-3,3
		S1093.936-1077.589,1095.593-1077.589z"/>
</g>
<g>
	<g>
		<path fill="#000113" d="M1390.702-580.387c-33.084,0-60,26.916-60,60s26.916,60,60,60s60-26.916,60-60
			S1423.786-580.387,1390.702-580.387z M1390.702-465.417c-30.311,0-54.97-24.659-54.97-54.97c0-30.31,24.659-54.97,54.97-54.97
			s54.97,24.659,54.97,54.97C1445.672-490.076,1421.013-465.417,1390.702-465.417z"/>
		<path fill="#000113" d="M1414.33-541.838h-12.027v-5.548c0-2.374-2.095-4.307-4.671-4.307h-13.865
			c-2.575,0-4.671,1.933-4.671,4.307v5.548h-8.875v-2.335c0-0.595-0.496-1.078-1.108-1.078h-7.125c-0.612,0-1.108,0.483-1.108,1.078
			v3.772c0,0.094,0.017,0.183,0.039,0.27c-4.134,2.446-6.956,7.271-6.956,12.817v21.25c0,8.009,5.879,14.523,13.107,14.523h47.261
			c7.228,0,13.107-6.515,13.107-14.523v-21.25C1427.438-535.322,1421.558-541.838,1414.33-541.838z M1384.126-541.838v-4.825
			l13.147,0.002v4.823H1384.126z M1422.407-506.063c0,5.234-3.624,9.494-8.077,9.494h-47.261c-4.454,0-8.078-4.26-8.078-9.494
			v-21.25c0-5.234,3.624-9.494,8.078-9.494h16.697h13.865h16.698c4.453,0,8.077,4.26,8.077,9.494V-506.063z"/>
		<path fill="#000113" d="M1390.699-530.906c-7.84,0-14.218,6.379-14.218,14.219c0,7.839,6.378,14.217,14.218,14.217
			c7.84,0,14.218-6.378,14.218-14.217C1404.917-524.527,1398.539-530.906,1390.699-530.906z M1390.699-507.501
			c-5.066,0-9.188-4.121-9.188-9.187c0-5.067,4.121-9.188,9.188-9.188s9.188,4.121,9.188,9.188
			C1399.887-511.622,1395.766-507.501,1390.699-507.501z"/>
		<circle fill="#000113" cx="1412.975" cy="-528.391" r="4.311"/>
	</g>
	<g>
		<path fill="#000113" d="M1530.702-580.387c-33.084,0-60,26.916-60,60s26.916,60,60,60s60-26.916,60-60
			S1563.786-580.387,1530.702-580.387z M1530.702-465.417c-30.311,0-54.97-24.659-54.97-54.97c0-30.31,24.659-54.97,54.97-54.97
			s54.97,24.659,54.97,54.97C1585.672-490.076,1561.013-465.417,1530.702-465.417z"/>
		<path fill="#000113" d="M1508.9-504.971h-10.449v2.515c0,7.148,5.815,12.964,12.964,12.964h35.7
			c7.148,0,12.964-5.815,12.964-12.964v-48.825H1508.9V-504.971z M1511.415-494.522c-3.496,0-6.471-2.273-7.525-5.418h30.507
			c0.397,2.011,1.261,3.857,2.473,5.418H1511.415z M1513.931-546.251h41.118v43.795c0,4.375-3.559,7.934-7.934,7.934
			c-4.374,0-7.934-3.559-7.934-7.934v-2.515h-25.251V-546.251z"/>
		<path fill="#000113" d="M1519.54-536.502h30.061c1.389,0,2.515-1.125,2.515-2.515c0-1.39-1.126-2.515-2.515-2.515h-30.061
			c-1.389,0-2.515,1.125-2.515,2.515C1517.025-537.627,1518.151-536.502,1519.54-536.502z"/>
		<path fill="#000113" d="M1519.54-527.132h30.061c1.389,0,2.515-1.126,2.515-2.515c0-1.389-1.126-2.515-2.515-2.515h-30.061
			c-1.389,0-2.515,1.126-2.515,2.515C1517.025-528.258,1518.151-527.132,1519.54-527.132z"/>
		<path fill="#000113" d="M1519.54-517.76h30.061c1.389,0,2.515-1.127,2.515-2.516c0-1.39-1.126-2.515-2.515-2.515h-30.061
			c-1.389,0-2.515,1.125-2.515,2.515C1517.025-518.887,1518.151-517.76,1519.54-517.76z"/>
		<path fill="#000113" d="M1552.116-510.905c0-1.389-1.126-2.515-2.515-2.515h-30.061c-1.389,0-2.515,1.126-2.515,2.515
			c0,1.389,1.126,2.516,2.515,2.516h30.061C1550.99-508.39,1552.116-509.517,1552.116-510.905z"/>
	</g>
	<g>
		<path fill="#000113" d="M1670.702-580.387c-33.084,0-60,26.916-60,60s26.916,60,60,60s60-26.916,60-60
			S1703.786-580.387,1670.702-580.387z M1670.702-465.417c-30.311,0-54.97-24.659-54.97-54.97c0-30.31,24.659-54.97,54.97-54.97
			s54.97,24.659,54.97,54.97C1725.672-490.076,1701.013-465.417,1670.702-465.417z"/>
		<path fill="#000113" d="M1698.831-522.454l-40.913-23.62c-0.777-0.449-1.737-0.449-2.515,0c-0.778,0.448-1.258,1.279-1.258,2.178
			v47.243c0,0.897,0.479,1.728,1.258,2.178c0.389,0.225,0.823,0.337,1.258,0.337c0.434,0,0.868-0.112,1.257-0.337l40.913-23.622
			c0.777-0.45,1.257-1.279,1.257-2.178C1700.088-521.175,1699.608-522.004,1698.831-522.454z M1659.176-501.01v-38.53l33.367,19.265
			L1659.176-501.01z"/>
	</g>
	<g>
		<path fill="#000113" d="M1810.702-580.231c-33.084,0-60,26.915-60,60c0,33.083,26.916,60,60,60s60-26.917,60-60
			C1870.702-553.316,1843.786-580.231,1810.702-580.231z M1810.702-465.262c-30.311,0-54.97-24.659-54.97-54.97
			c0-30.31,24.659-54.97,54.97-54.97s54.97,24.659,54.97,54.97C1865.672-489.921,1841.013-465.262,1810.702-465.262z"/>
		<path fill="#000113" d="M1846.771-536.213h-36.67l-23.607-13.005c-0.318-0.176-0.677-0.269-1.04-0.269h-10.821
			c-0.982,0-1.841,0.665-2.087,1.617c-0.246,0.951,0.183,1.947,1.042,2.425l16.659,9.232h-11.573c-0.655,0-1.275,0.298-1.685,0.81
			c-0.408,0.511-0.562,1.182-0.419,1.82l8.078,35.78c0.223,0.983,1.096,1.682,2.103,1.682h5.026
			c-0.72,1.233-1.139,2.664-1.139,4.191c0,4.609,3.751,8.359,8.36,8.359c4.608,0,8.358-3.75,8.358-8.359
			c0-1.527-0.419-2.958-1.139-4.191h13.294c-0.72,1.233-1.139,2.664-1.139,4.191c0,4.609,3.75,8.359,8.359,8.359
			s8.359-3.75,8.359-8.359c0-1.527-0.42-2.958-1.139-4.191h4.737c1.007,0,1.88-0.698,2.103-1.682l8.08-35.78
			c0.144-0.639-0.01-1.31-0.419-1.82C1848.046-535.915,1847.427-536.213,1846.771-536.213z M1798.999-487.881
			c-2.233,0-4.049-1.815-4.049-4.048c0-2.231,1.815-4.048,4.049-4.048c2.231,0,4.047,1.816,4.047,4.048
			C1803.046-489.696,1801.23-487.881,1798.999-487.881z M1826.733-487.881c-2.232,0-4.048-1.815-4.048-4.048
			c0-2.231,1.815-4.048,4.048-4.048c2.231,0,4.048,1.816,4.048,4.048C1830.781-489.696,1828.965-487.881,1826.733-487.881z
			 M1782.97-545.175h1.93l16.269,8.962h-2.027L1782.97-545.175z M1836.968-500.432h-48.492l-7.105-31.47h28.173h0.003
			c0,0,0.001,0,0.003,0h34.525L1836.968-500.432z"/>
		<path fill="#000113" d="M1798.583-525.247h-5.482c-1.191,0-2.156,0.965-2.156,2.155c0,1.19,0.965,2.156,2.156,2.156h5.482
			c1.191,0,2.156-0.966,2.156-2.156C1800.739-524.282,1799.774-525.247,1798.583-525.247z"/>
		<path fill="#000113" d="M1807.681-523.092c0,1.19,0.965,2.156,2.155,2.156h5.482c1.191,0,2.155-0.966,2.155-2.156
			c0-1.19-0.965-2.155-2.155-2.155h-5.482C1808.646-525.247,1807.681-524.282,1807.681-523.092z"/>
		<path fill="#000113" d="M1826.572-520.935h5.482c1.19,0,2.155-0.966,2.155-2.156c0-1.19-0.965-2.155-2.155-2.155h-5.482
			c-1.19,0-2.155,0.965-2.155,2.155C1824.417-521.901,1825.382-520.935,1826.572-520.935z"/>
		<path fill="#000113" d="M1798.583-518.323h-5.482c-1.191,0-2.156,0.966-2.156,2.156c0,1.19,0.965,2.155,2.156,2.155h5.482
			c1.191,0,2.156-0.965,2.156-2.155C1800.739-517.357,1799.774-518.323,1798.583-518.323z"/>
		<path fill="#000113" d="M1815.318-518.323h-5.482c-1.19,0-2.155,0.966-2.155,2.156c0,1.19,0.965,2.155,2.155,2.155h5.482
			c1.191,0,2.155-0.965,2.155-2.155C1817.474-517.357,1816.509-518.323,1815.318-518.323z"/>
		<path fill="#000113" d="M1826.572-514.012h5.482c1.19,0,2.155-0.965,2.155-2.155c0-1.19-0.965-2.156-2.155-2.156h-5.482
			c-1.19,0-2.155,0.966-2.155,2.156C1824.417-514.977,1825.382-514.012,1826.572-514.012z"/>
		<path fill="#000113" d="M1798.583-511.396h-5.482c-1.191,0-2.156,0.965-2.156,2.155c0,1.19,0.965,2.156,2.156,2.156h5.482
			c1.191,0,2.156-0.966,2.156-2.156C1800.739-510.432,1799.774-511.396,1798.583-511.396z"/>
		<path fill="#000113" d="M1815.318-511.396h-5.482c-1.19,0-2.155,0.965-2.155,2.155c0,1.19,0.965,2.156,2.155,2.156h5.482
			c1.191,0,2.155-0.966,2.155-2.156C1817.474-510.432,1816.509-511.396,1815.318-511.396z"/>
		<path fill="#000113" d="M1826.572-507.085h5.482c1.19,0,2.155-0.966,2.155-2.156c0-1.19-0.965-2.155-2.155-2.155h-5.482
			c-1.19,0-2.155,0.965-2.155,2.155C1824.417-508.051,1825.382-507.085,1826.572-507.085z"/>
	</g>
</g>
<g>
	<path d="M992.323-426.321c-8.066-8.07-21.193-8.07-29.262,0c-8.066,8.068-8.07,21.193,0,29.266
		c7.299,7.301,18.734,7.969,26.824,2.057l11.02,11.022c1.246,1.244,3.26,1.244,4.5,0c1.242-1.242,1.242-3.256,0-4.496
		l-11.021-11.022C1000.298-407.585,999.626-419.019,992.323-426.321z M987.825-401.556c-5.586,5.584-14.68,5.588-20.266,0
		c-5.588-5.586-5.588-14.678,0-20.266c5.586-5.592,14.68-5.592,20.266,0C993.413-416.233,993.413-407.142,987.825-401.556z"/>
</g>
<path d="M808.249-407.708l18.35-18.35c1.445-1.445,1.445-3.786,0-5.231c-1.445-1.445-3.786-1.445-5.231,0l-18.351,18.35
	l-18.351-18.35c-1.445-1.445-3.786-1.445-5.231,0c-1.445,1.445-1.445,3.786,0,5.231l18.352,18.35l-18.347,18.347
	c-1.445,1.445-1.445,3.786,0,5.232c0.722,0.723,1.67,1.084,2.615,1.084c0.947,0,1.893-0.361,2.616-1.084l18.346-18.347
	l18.351,18.347c0.723,0.723,1.668,1.084,2.615,1.084c0.946,0,1.894-0.361,2.616-1.084c1.445-1.445,1.445-3.786,0-5.232
	L808.249-407.708z"/>
<path fill="#FFD700" d="M914.403-143.439v-25.95c0-2.044-1.655-3.699-3.699-3.699c-2.044,0-3.699,1.655-3.699,3.699l-0.001,25.951
	h-25.951c-2.044,0-3.699,1.655-3.699,3.699c0,2.044,1.655,3.699,3.699,3.699l25.952-0.001v25.946c0,2.044,1.655,3.699,3.699,3.699
	c1.021,0,1.947-0.415,2.615-1.083c0.67-0.67,1.084-1.595,1.084-2.616l-0.001-25.945l25.949-0.003c1.021,0,1.945-0.413,2.615-1.083
	c0.669-0.669,1.084-1.595,1.084-2.616c0-2.044-1.655-3.699-3.699-3.699L914.403-143.439z"/>
<g>
	<path d="M871.098-420.231h42.497c1.887,0,3.415-1.528,3.415-3.415c0-1.886-1.528-3.414-3.415-3.414h-42.497
		c-1.885,0-3.415,1.528-3.415,3.414C867.683-421.76,869.213-420.231,871.098-420.231z"/>
	<path d="M913.595-411.126h-42.497c-1.885,0-3.415,1.532-3.415,3.416c0,1.885,1.53,3.415,3.415,3.415h42.497
		c1.887,0,3.415-1.53,3.415-3.415C917.01-409.594,915.481-411.126,913.595-411.126z"/>
	<path d="M913.595-395.188h-42.497c-1.885,0-3.415,1.529-3.415,3.415c0,1.885,1.53,3.415,3.415,3.415h42.497
		c1.887,0,3.415-1.53,3.415-3.415C917.01-393.659,915.481-395.188,913.595-395.188z"/>
</g>
<g>
	<path fill="#000113" d="M1074.19-392.519c-0.672,0-1.312-0.268-1.787-0.742l-25.326-25.324c-0.988-0.988-0.988-2.59,0-3.574
		c0.988-0.988,2.588-0.988,3.574,0l23.539,23.537l23.537-23.537c0.988-0.988,2.588-0.988,3.576,0c0.986,0.986,0.986,2.586,0,3.574
		l-25.324,25.324C1075.505-392.786,1074.862-392.519,1074.19-392.519z"/>
</g>
<g>
	<circle cx="1165.235" cy="-419.816" r="12.894"/>
	<path d="M1165.235-405.901c-12.807,0-23.191,10.383-23.191,23.191h46.383C1188.427-395.519,1178.043-405.901,1165.235-405.901z"/>
</g>
<path d="M1274.622-425.588c-5.07-5.071-13.291-5.071-18.361,0l-2.834,2.833l-2.834-2.833c-5.072-5.071-13.293-5.071-18.363,0
	c-5.07,5.071-5.07,13.292,0,18.362l2.834,2.834l18.363,18.363l18.363-18.363l2.832-2.834
	C1279.694-412.296,1279.694-420.518,1274.622-425.588z"/>
<g>
	<path d="M1358.813-418.521h-37.684v-8.48l22.465-3.018c0.74-0.1,1.258-0.78,1.16-1.52c-0.1-0.74-0.781-1.258-1.52-1.16
		l-23.637,3.177c-0.672,0.091-1.172,0.663-1.172,1.339v9.662v0.338v24.324h33.022L1358.813-418.521z"/>
	<circle cx="1324.169" cy="-388.115" r="5.405"/>
	<circle cx="1346.873" cy="-388.115" r="5.405"/>
</g>
<path fill="#FFFFFF" d="M11.027,103.984h7l1.384-8.384h-8.344c0,0,0-2.442,0-5.901c0-3.459,3.459-3.46,3.459-3.46h5.375v-7.651
	c-4.312-0.407-8.712,0-8.712,0c-8.465,0.896-8.741,9.481-8.741,9.481v7.64h-7.041v8.39h7.041v24.308h8.578V103.984z"/>
<path fill="#FFFFFF" d="M-30.531-25.503c-6.828-0.629-38.363-0.733-46.629,0c-8.266,0.734-12.129,5.122-12.668,12.496
	c-0.539,7.374-0.539,15.806,0,23.795c0.539,7.989,4.852,12.225,12.668,12.764c7.817,0.539,36.388,0.615,46.09,0
	c9.704-0.615,12.399-6.828,12.669-12.764c0.269-5.937,0.539-16.075,0-23.795C-18.94-20.726-23.702-24.874-30.531-25.503z
	 M-60.988,10.076v-22.102l17.97,11.05L-60.988,10.076z"/>
<path fill="#FFFFFF" d="M98.984,85.985c4.554-2.999,4.972-6.68,4.972-6.68c-3.795,2.391-8.04,2.992-8.04,2.992V82.3
	c-2.269-2.396-5.478-3.894-9.038-3.894c-6.875,0-12.448,5.574-12.448,12.449c0,0.934,0.106,1.844,0.301,2.72
	c-16.602-0.647-25.303-13.043-25.303-13.043c-5.364,10.627,3.643,16.8,3.643,16.8c-3.036-0.102-5.262-1.417-5.262-1.417
	c-0.304,10.121,9.598,12.246,9.598,12.246c-1.839,0.708-5.449,0.202-5.449,0.202c2.833,8.502,11.335,8.704,11.335,8.704
	c-6.274,6.679-18.389,5.219-18.389,5.219c6.739,4.619,15.117,6.909,23.868,5.873c18.719-2.216,32.221-18.836,30.745-37.464
	c4.018-2.494,6.147-6.457,6.147-6.457C101.223,86.326,98.984,85.985,98.984,85.985z"/>
<g>
	<g>
		<g>
			<g>
				<path fill="#FFFFFF" d="M2.844,29.649L1.283,29.69c-0.332,0.014-0.884,0.042-1.133-0.041c-0.111-0.028-0.179-0.194-0.138-0.415
					l0.097-0.469c0.732,0.152,2.404,0.207,2.735,0.207c0.884,0.013,1.921,0,2.901-0.028V27.7c0-0.359,0-0.497-0.29-0.58
					c-0.138-0.042-0.277-0.138-0.249-0.359l0.028-0.262l0.87,0.082c0.456,0.055,0.483,0.346,0.483,0.525v1.823
					c0.787-0.013,1.478-0.041,1.934-0.055c0.552-0.014,1.837-0.11,2.031-0.124c0.58-0.055,0.939-0.083,1.091,0.055l0.456,0.415
					c0.138,0.124,0.138,0.221,0.097,0.303c-0.042,0.111-0.138,0.235-0.263,0.207l-0.87-0.138c-0.691-0.083-2.072-0.069-2.804-0.055
					L2.844,29.649z M2.72,22.119c0-0.401-0.014-0.497-0.304-0.594c-0.207-0.097-0.359-0.208-0.359-0.484v-0.317l1.05,0.069
					l0.166,0.041h0.166c0.552,0,4.517-0.11,4.711-0.138c0.677-0.097,0.774-0.124,0.94-0.014l0.276,0.152
					c0.304,0.166,0.29,0.235,0.207,0.401c-0.11,0.262-0.235,0.276-0.525,0.276H3.563c0.014,0.125,0.014,0.249,0.014,0.373v3.026
					c0,0.29,0,0.442,0.332,0.442l2.694-0.028c0.815-0.014,1.63-0.097,1.934-0.152c0.221-0.042,0.318-0.042,0.497,0.028l0.429,0.179
					c0.304,0.124,0.359,0.18,0.29,0.415c-0.069,0.235-0.194,0.262-0.414,0.262c-0.511-0.028-1.064-0.055-1.865-0.042l-3.744,0.055
					c-0.401,0-1.009-0.083-1.009-0.815V22.119z"/>
			</g>
		</g>
		<g>
			<g>
				<path fill="#FFFFFF" d="M16.007,23.971l2.017,1.962c0.262,0.249,0.428,0.332,0.718,0.525c0.263,0.166,0.373,0.263,0.47,0.622
					l0.125,0.442c0.055,0.235,0.014,0.332-0.125,0.401c-0.152,0.097-0.276,0.083-0.414-0.097l-3.067-3.33
					c-0.981,1.754-2.293,2.984-2.915,3.439c-0.11,0.083-0.235,0.11-0.304,0.125c-0.138,0-0.29-0.069-0.332-0.262
					c-0.041-0.124,0.028-0.249,0.097-0.277c1.091-0.773,3.343-3.454,3.647-6.01c0.014-0.11,0-0.207-0.221-0.359l-0.262-0.193
					c-0.179-0.125,0.014-0.525,0.18-0.484c0.359,0.125,0.76,0.235,1.022,0.387c0.207,0.097,0.249,0.249,0.166,0.704
					C16.656,22.438,16.366,23.239,16.007,23.971z M22.473,30.091c0,0.524-0.442,1.202-0.567,1.367
					c-0.083,0.111-0.29,0.069-0.29-0.041v-7.309l-2.749,0.124c-0.207,0.014-0.332-0.042-0.414-0.179l-0.29-0.442
					c-0.083-0.125,0.041-0.29,0.249-0.235l0.318,0.069c0.138,0.028,0.401,0.028,0.484,0.028l2.404-0.097v-3.703
					c0-0.359-0.179-0.553-0.442-0.76c-0.18-0.151,0.027-0.552,0.262-0.442l0.608,0.277c0.414,0.193,0.428,0.304,0.428,0.635V30.091z
					"/>
			</g>
		</g>
		<g>
			<g>
				<path fill="#FFFFFF" d="M28.63,27.591c-0.207,0-0.456,0.014-0.663,0.028c-0.166,0.013-0.525,0.013-0.719-0.069
					c-0.124-0.056-0.207-0.165-0.179-0.304l0.097-0.539c1.091,0.165,2.017,0.152,3.081,0.138h0.083v-0.87
					c0-0.484-0.138-0.663-0.373-0.857l-2.529,0.041l-1.561,0.042c-0.332,0.013-0.884,0.041-1.133-0.042
					c-0.111-0.028-0.18-0.193-0.138-0.414l0.097-0.47c0.732,0.152,2.404,0.208,2.735,0.208c2.321,0.042,4.228-0.055,5.679-0.083
					c0.553-0.013,1.837-0.097,2.031-0.11c0.58-0.055,0.939-0.083,1.091,0.056l0.456,0.414c0.138,0.124,0.138,0.221,0.097,0.303
					c-0.042,0.111-0.138,0.235-0.263,0.208l-0.87-0.139c-0.691-0.096-2.072-0.083-2.804-0.069l-1.962,0.042
					c0.29,0.179,0.304,0.428,0.304,0.718v0.47c0,0.165-0.083,0.359-0.194,0.539l2.542-0.055c0.138,0,0.304,0.014,0.373,0.097
					c0.055,0.055,0.111,0.139,0.111,0.359v1.81c0,0.318-0.179,0.483-0.622,0.483l-4.988,0.056c0.014,0.138,0.014,0.29,0.014,0.484
					v0.373c0,0.29,0,0.456,0.331,0.456h2.763c0.815,0,1.464-0.125,1.782-0.207c0.207-0.055,0.29-0.055,0.47,0.013l0.483,0.194
					c0.276,0.097,0.318,0.152,0.262,0.414c-0.055,0.304-0.124,0.318-0.387,0.318h-5.415c-0.414,0-1.147-0.083-1.147-0.815v-0.609
					c0-0.387,0.028-0.594-0.262-0.718C27.125,29.4,27,29.234,27,29.041v-0.276l0.815,0.069c0.042,0.014,0.083,0.014,0.124,0.014
					l4.932-0.083c0.207,0,0.29-0.097,0.29-0.346v-0.621c0-0.263-0.014-0.263-0.276-0.263l-2.57,0.028L28.63,27.591z M30.91,21.609
					l1.92,0.662c0.332,0.139,0.539,0.139,0.87,0.207c0.304,0.042,0.47,0.069,0.705,0.359l0.276,0.332
					c0.166,0.193,0.138,0.303,0.055,0.428c-0.124,0.152-0.235,0.166-0.428,0.083l-3.855-1.644c-1.202,1.009-2.818,1.52-3.564,1.727
					c-0.138,0.042-0.263,0.069-0.332,0.055c-0.138-0.028-0.262-0.083-0.262-0.277c0-0.138,0.083-0.248,0.152-0.262
					c0.994-0.262,3.122-1.174,3.896-2.196c0.083-0.111,0.111-0.194-0.041-0.304l-0.636-0.442l-1.741,0.124
					c-0.414,0.028-0.732-0.028-0.815-0.097c-0.111-0.069-0.152-0.138-0.125-0.304l0.069-0.553c0.649,0.111,1.285,0.153,1.893,0.166
					c0.456,0.014,0.843,0,1.257-0.013v-0.442c0-0.373-0.055-0.47-0.29-0.677c-0.11-0.097,0.028-0.414,0.18-0.373l0.525,0.166
					c0.428,0.124,0.428,0.304,0.428,0.635v0.65c1.091-0.042,1.478-0.097,1.755-0.124c0.622-0.055,0.774-0.083,0.939,0.028
					l0.318,0.207c0.29,0.194,0.346,0.262,0.221,0.498c-0.097,0.193-0.18,0.262-0.401,0.221c-0.124-0.028-0.442-0.11-0.732-0.138
					c-0.829-0.056-1.478-0.07-2.363-0.028h-0.097l0.456,0.193c0.207,0.097,0.414,0.304,0.152,0.663
					C31.173,21.304,31.048,21.457,30.91,21.609z"/>
			</g>
		</g>
		<g>
			<g>
				<path fill="#FFFFFF" d="M41.641,21.829l0.027-0.262l0.87,0.083c0.456,0.042,0.484,0.346,0.484,0.525v3.054
					c0.552-0.125,1.091-0.263,1.589-0.457c0.069-0.028,0.249,0.055,0.345,0.111c0.18,0.097,0.29,0.359,0.083,0.428
					c-1.547,0.595-3.04,0.829-4.421,0.995c-0.553,0.069-1.782,0.151-2.418,0.138c-0.166,0-0.428,0-0.677-0.111
					c-0.097-0.041-0.125-0.166-0.083-0.359l0.069-0.414c0.414,0.083,1.05,0.111,1.699,0.111v-2.556c0-0.359,0-0.498-0.29-0.58
					c-0.138-0.042-0.276-0.139-0.249-0.359l0.027-0.262l0.87,0.083c0.456,0.041,0.483,0.346,0.483,0.525v3.108l0.498-0.041
					c0.497-0.042,1.05-0.111,1.63-0.207v-2.611c0-0.359,0-0.498-0.29-0.58C41.752,22.147,41.613,22.05,41.641,21.829z
					 M38.781,21.194c-0.428,0.028-0.718-0.014-0.884-0.11c-0.11-0.055-0.124-0.152-0.097-0.29l0.097-0.525
					c0.649,0.111,1.285,0.166,1.893,0.166c0.483,0,0.663-0.014,1.271-0.055c0.718-0.042,1.561-0.083,1.755-0.111
					c0.622-0.083,0.704-0.083,0.898,0.042l0.345,0.22c0.235,0.152,0.249,0.235,0.125,0.457c-0.111,0.193-0.166,0.249-0.332,0.207
					c-0.166-0.042-0.456-0.097-0.746-0.125c-0.829-0.069-1.299-0.028-2.183,0C40.066,21.097,39.638,21.139,38.781,21.194z
					 M41.42,31.307c-0.415,0-1.022-0.055-1.022-0.801v-1.451c0-0.387-0.014-0.58-0.29-0.705c-0.221-0.082-0.318-0.138-0.318-0.345
					v-0.359l0.857,0.097c0.622,0.083,0.608,0.47,0.608,0.967v1.437c0,0.29,0,0.428,0.331,0.428h2.183c1.133,0,1.893-0.11,2.21-0.194
					c0.207-0.055,0.318-0.082,0.498,0l0.539,0.221c0.276,0.111,0.331,0.152,0.276,0.414c-0.069,0.276-0.138,0.29-0.401,0.29H41.42z
					 M46.808,23.956l0.566-0.028c0.277-0.013,0.414-0.027,0.829-0.151c0.359-0.11,0.47-0.193,0.746-0.028l0.497,0.29
					c0.138,0.083,0.166,0.221,0.055,0.359l-0.069,0.098c-0.097,0.138-0.262,0.179-0.442,0.138c-0.125-0.028-0.373-0.028-0.456-0.028
					h-1.727v2.611c0,0.525-0.456,1.202-0.567,1.367c-0.083,0.111-0.29,0.07-0.29-0.041v-8.87c0-0.359-0.18-0.553-0.442-0.76
					c-0.194-0.151,0.027-0.552,0.262-0.442l0.594,0.277c0.428,0.193,0.442,0.304,0.442,0.635V23.956z"/>
			</g>
		</g>
	</g>
	<g>
		<g>
			<g>
				<path fill="#FFFFFF" d="M67.37,7.932c4.465,0,7.464,3,7.464,7.22c0,4.186-3.069,7.186-7.464,7.186c-4.361,0-7.5-2.825-7.5-7.186
					C59.87,10.932,62.8,7.932,67.37,7.932z M62.102,15.152c0,3.035,1.988,5.337,5.268,5.337c3.279,0,5.232-2.198,5.232-5.337
					c0-3.035-1.779-5.371-5.232-5.371C64.09,9.781,62.102,12.117,62.102,15.152z M84.043,29.385c0,1.326-1.116,3.034-1.395,3.453
					c-0.209,0.28-0.732,0.174-0.732-0.104V3.083c0-0.907-0.489-1.395-1.151-1.919c-0.454-0.383,0.07-1.395,0.662-1.117l1.535,0.698
					c1.047,0.488,1.081,0.767,1.081,1.604V29.385z"/>
			</g>
		</g>
		<g>
			<g>
				<path fill="#FFFFFF" d="M96.598,18.745l-3.942,0.14c-0.837,0.035-2.233,0.104-2.86-0.105c-0.279-0.07-0.454-0.489-0.349-1.046
					l0.244-1.187c1.849,0.384,6.069,0.489,6.907,0.489c5.86,0.034,10.674-0.21,14.336-0.315c1.395-0.035,4.64-0.279,5.128-0.313
					c1.465-0.175,2.372-0.245,2.756,0.104l1.151,1.046c0.349,0.314,0.349,0.558,0.244,0.767c-0.105,0.28-0.349,0.594-0.663,0.524
					l-2.198-0.349c-1.744-0.21-5.232-0.14-7.081-0.104L96.598,18.745z M113.481,31.164c0,0.802-0.174,1.43-1.256,1.43l-12.767,0.105
					c0,0.557-0.035,0.837-0.314,1.151c-0.209,0.244-0.837,0.313-1.29,0.174c-0.175-0.036-0.419-0.209-0.454-0.558l-0.07-1.082
					l-0.628-7.953l-0.628-1.221c-0.209-0.454,0.105-0.663,0.523-0.942c0.523-0.313,0.837-0.313,1.046-0.104l0.872,1.011
					l13.744-0.175c0.349,0,0.802,0.035,0.977,0.21c0.14,0.105,0.244,0.384,0.244,0.872V31.164z M104.83,1.339
					c3.872,0,7.011,2.407,7.011,6.069c0,3.768-2.965,6.035-7.011,6.035c-4.186,0-7.046-2.267-7.046-6.035
					C97.784,3.746,100.645,1.339,104.83,1.339z M111.318,25.547c0-0.593-0.035-0.662-0.698-0.662l-10.918,0.139
					c-0.733,0-0.733,0.14-0.698,0.803l0.349,4.988l11.232-0.139c0.698,0,0.732-0.244,0.732-0.872V25.547z M100.017,7.408
					c0,2.338,1.535,4.186,4.814,4.186c3.419,0,4.779-1.848,4.779-4.186c0-2.302-1.5-4.22-4.779-4.22
					C101.482,3.188,100.017,5.107,100.017,7.408z"/>
			</g>
		</g>
	</g>
</g>
<g>
	<g>
		<path fill="#FFFFFF" d="M0,55.869c0-0.001,0.149-0.19,0.457-0.51c0.313-0.313,0.761-0.798,1.398-1.33
			c0.628-0.545,1.407-1.198,2.366-1.854c0.945-0.681,2.056-1.393,3.322-2.084c1.265-0.69,2.665-1.416,4.221-2.012
			c0.77-0.322,1.579-0.608,2.405-0.914c0.831-0.29,1.697-0.536,2.586-0.761c0.885-0.241,1.796-0.449,2.724-0.642
			c0.923-0.222,1.878-0.343,2.837-0.486c1.924-0.24,3.899-0.375,5.874-0.364l1.481,0.026l1.475,0.091
			c0.983,0.036,1.952,0.192,2.915,0.309c1.925,0.244,3.78,0.708,5.552,1.171c1.774,0.461,3.436,1.075,4.969,1.722
			c1.559,0.581,2.933,1.356,4.201,2.023c1.247,0.716,2.376,1.378,3.308,2.074c0.951,0.66,1.759,1.253,2.383,1.802
			c0.639,0.523,1.108,0.978,1.439,1.267c0.321,0.302,0.492,0.464,0.492,0.464l-0.187,0.3c0,0-0.81-0.43-2.227-1.183
			c-0.697-0.396-1.597-0.782-2.605-1.263c-1-0.501-2.19-0.935-3.453-1.481c-0.637-0.261-1.321-0.484-2.018-0.742
			c-0.35-0.124-0.705-0.251-1.067-0.379c-0.368-0.112-0.74-0.225-1.119-0.339c-1.505-0.48-3.126-0.885-4.812-1.248
			c-1.689-0.352-3.452-0.642-5.255-0.829c-0.903-0.087-1.811-0.19-2.729-0.217l-1.377-0.068l-1.381-0.006
			c-1.842-0.032-3.683,0.083-5.489,0.236c-1.801,0.202-3.573,0.433-5.262,0.793c-1.694,0.331-3.31,0.749-4.825,1.2
			c-1.518,0.444-2.921,0.955-4.208,1.444c-1.275,0.517-2.441,1.001-3.45,1.481c-1.011,0.475-1.878,0.918-2.577,1.306
			c-1.407,0.769-2.151,1.285-2.151,1.285L0,55.869z"/>
	</g>
</g>
<g>
	<g>
		<path fill="#FFFFFF" d="M63.87,55.869c0-0.001,0.149-0.19,0.457-0.51c0.313-0.313,0.761-0.798,1.397-1.33
			c0.628-0.545,1.407-1.198,2.366-1.854c0.946-0.681,2.056-1.393,3.322-2.084c1.265-0.69,2.665-1.416,4.222-2.012
			c0.77-0.322,1.578-0.608,2.405-0.914c0.831-0.29,1.697-0.536,2.586-0.761c0.886-0.241,1.796-0.449,2.725-0.642
			c0.923-0.222,1.878-0.343,2.837-0.486c1.925-0.24,3.899-0.375,5.874-0.364l1.481,0.026l1.475,0.091
			c0.983,0.036,1.952,0.192,2.915,0.309c1.925,0.244,3.779,0.708,5.552,1.171c1.774,0.461,3.436,1.075,4.968,1.722
			c1.559,0.581,2.933,1.356,4.201,2.023c1.247,0.716,2.376,1.378,3.308,2.074c0.951,0.66,1.759,1.253,2.383,1.802
			c0.64,0.523,1.108,0.978,1.439,1.267c0.321,0.302,0.492,0.464,0.492,0.464l-0.187,0.3c0,0-0.809-0.43-2.227-1.183
			c-0.698-0.396-1.597-0.782-2.605-1.263c-1-0.501-2.19-0.935-3.453-1.481c-0.637-0.261-1.321-0.484-2.018-0.742
			c-0.35-0.124-0.706-0.251-1.067-0.379c-0.368-0.112-0.741-0.225-1.119-0.339c-1.505-0.48-3.126-0.885-4.812-1.248
			c-1.689-0.352-3.452-0.642-5.255-0.829c-0.903-0.087-1.81-0.19-2.728-0.217l-1.377-0.068l-1.381-0.006
			c-1.842-0.032-3.683,0.083-5.49,0.236c-1.801,0.202-3.573,0.433-5.262,0.793c-1.694,0.331-3.311,0.749-4.825,1.2
			c-1.518,0.444-2.921,0.955-4.208,1.444c-1.275,0.517-2.441,1.001-3.45,1.481c-1.011,0.475-1.878,0.918-2.578,1.306
			c-1.407,0.769-2.151,1.285-2.151,1.285L63.87,55.869z"/>
	</g>
</g>
<polygon fill="#FFFFFF" points="60.736,38.046 1.197,38.046 1.197,39.046 60.736,39.046 120.274,39.046 120.274,38.046 "/>
</svg>
