<?xml version="1.0" encoding="utf-8"?>
<!-- Generator: Adobe Illustrator 21.1.0, SVG Export Plug-In . SVG Version: 6.00 Build 0)  -->
<svg version="1.1" id="Layer_1" xmlns="http://www.w3.org/2000/svg" xmlns:xlink="http://www.w3.org/1999/xlink" x="0px" y="0px"
	 viewBox="0 0 60.76 50" enable-background="new 0 0 60.76 50" xml:space="preserve">
<g>
	<path fill="#FFFFFF" d="M-91.655-0.044h-21.203c-7.939,0-14.399,6.459-14.399,14.398v21.204c0,7.939,6.459,14.398,14.399,14.398
		h21.203c7.939,0,14.399-6.459,14.399-14.398V14.355C-77.256,6.415-83.715-0.044-91.655-0.044z M-81.827,35.558
		c0,5.419-4.409,9.827-9.827,9.827h-21.203c-5.419,0-9.827-4.409-9.827-9.827V14.355c0-5.419,4.408-9.827,9.827-9.827h21.203
		c5.419,0,9.827,4.409,9.827,9.827V35.558z"/>
	<circle fill="#FFFFFF" cx="-89.087" cy="11.607" r="3.085"/>
	<path fill="#FFFFFF" d="M-102.342,11.962c-7.189,0-13.037,5.849-13.037,13.038c0,7.189,5.849,13.038,13.037,13.038
		c7.189,0,13.038-5.849,13.038-13.038C-89.303,17.811-95.152,11.962-102.342,11.962z M-102.342,33.467
		c-4.668,0-8.467-3.798-8.467-8.467c0-4.669,3.798-8.467,8.467-8.467c4.669,0,8.467,3.798,8.467,8.467
		C-93.874,29.669-97.673,33.467-102.342,33.467z"/>
</g>
<rect x="-146.128" y="-849.421" fill="#000113" width="841.89" height="595.28"/>
<g>
	<rect x="-110" y="-815.716" fill="#FFFFFF" width="100" height="100"/>
	<g>
		<g>
			<path fill="#000113" d="M-43.038-725.716h-33.925c-12.703,0-23.038-10.335-23.038-23.038v-33.925
				c0-12.703,10.335-23.038,23.038-23.038h33.925c12.703,0,23.038,10.334,23.038,23.038v33.925
				C-20-736.051-30.334-725.716-43.038-725.716z M-76.962-798.403c-8.67,0-15.724,7.054-15.724,15.724v33.925
				c0,8.67,7.054,15.724,15.724,15.724h33.925c8.67,0,15.724-7.054,15.724-15.724v-33.925c0-8.67-7.054-15.724-15.724-15.724
				H-76.962z"/>
		</g>
		<g>
			<path fill="#000113" d="M-60.137-744.786c-11.502,0-20.86-9.358-20.86-20.86c0-11.503,9.358-20.861,20.86-20.861
				c11.503,0,20.861,9.358,20.861,20.861C-39.276-754.143-48.634-744.786-60.137-744.786z M-60.137-779.193
				c-7.47,0-13.547,6.077-13.547,13.547c0,7.47,6.077,13.547,13.547,13.547s13.548-6.077,13.548-13.547
				C-46.589-773.116-52.667-779.193-60.137-779.193z"/>
		</g>
		<circle fill="#000113" cx="-38.929" cy="-787.076" r="4.936"/>
	</g>
</g>
<g>
	<rect x="8.405" y="-815.716" fill="#FFFFFF" width="100" height="100"/>
	<path fill="#000113" d="M62.142-715.716v-36.515H50.224v-14.2h11.918v-12.932c0,0,0.467-14.531,14.795-16.047
		c0,0,7.448-0.689,14.746,0v12.951h-9.098c0,0-5.855,0-5.855,5.856c0,5.855,0,9.988,0,9.988h14.122l-2.342,14.191H76.662v36.708
		H62.142z"/>
</g>
<g>
	<rect x="126.811" y="-815.716" fill="#FFFFFF" width="100" height="100"/>
	<g>
		<path fill="#000113" d="M216.466-752.629c-0.3,6.583-3.288,13.474-14.048,14.155c-10.76,0.682-42.443,0.598-51.111,0
			c-8.668-0.598-13.45-5.296-14.048-14.155c-0.598-8.859-0.598-18.21,0-26.387c0.598-8.177,4.882-13.044,14.048-13.857
			c9.166-0.813,44.137-0.697,51.708,0c7.572,0.697,12.852,5.296,13.451,13.857C217.063-770.455,216.765-759.212,216.466-752.629z"/>
		<polygon fill="#FFFFFF" points="169.24,-777.927 169.24,-753.418 189.166,-765.673 		"/>
	</g>
</g>
<g>
	<rect x="245.215" y="-815.716" fill="#FFFFFF" width="100" height="100"/>
	<path fill="#000113" d="M335.215-790.953c-5.846,2.748-8.794,2.299-8.794,2.299c5.996-3.948,6.546-8.795,6.546-8.795
		c-4.997,3.148-10.586,3.94-10.586,3.94v0.003c-2.987-3.155-7.213-5.126-11.9-5.126c-9.052,0-16.39,7.338-16.39,16.39
		c0,1.23,0.14,2.428,0.397,3.581c-21.858-0.853-33.314-17.173-33.314-17.173c-7.062,13.992,4.797,22.12,4.797,22.12
		c-3.997-0.133-6.929-1.866-6.929-1.866c-0.4,13.326,12.637,16.123,12.637,16.123c-2.421,0.933-7.174,0.267-7.174,0.267
		c3.73,11.193,14.924,11.46,14.924,11.46c-8.261,8.794-24.212,6.872-24.212,6.872c8.873,6.081,19.903,9.097,31.425,7.732
		c24.646-2.919,42.424-24.8,40.481-49.326C332.412-785.733,335.215-790.953,335.215-790.953z"/>
</g>
<g>
	<rect x="91.683" y="-535.716" fill="#FFFFFF" width="100" height="100"/>
	<g>
		<g>
			<path fill="#000113" d="M158.645-445.716h-33.925c-12.703,0-23.038-10.336-23.038-23.038v-33.925
				c0-12.703,10.335-23.037,23.038-23.037h33.925c12.703,0,23.038,10.334,23.038,23.037v33.925
				C181.684-456.052,171.349-445.716,158.645-445.716z M124.721-518.403c-8.67,0-15.724,7.055-15.724,15.725v33.925
				c0,8.671,7.054,15.724,15.724,15.724h33.925c8.67,0,15.724-7.053,15.724-15.724v-33.925c0-8.67-7.054-15.725-15.724-15.725
				H124.721z"/>
		</g>
		<g>
			<path fill="#000113" d="M141.546-464.786c-11.502,0-20.86-9.357-20.86-20.859c0-11.504,9.358-20.861,20.86-20.861
				c11.503,0,20.861,9.357,20.861,20.861C162.407-474.143,153.049-464.786,141.546-464.786z M141.546-499.193
				c-7.47,0-13.547,6.077-13.547,13.548c0,7.469,6.077,13.547,13.547,13.547c7.47,0,13.548-6.078,13.548-13.547
				C155.094-493.116,149.016-499.193,141.546-499.193z"/>
		</g>
		<circle fill="#000113" cx="162.754" cy="-507.075" r="4.936"/>
	</g>
</g>
<g>
	<rect x="210.088" y="-535.716" fill="#FFFFFF" width="100" height="100"/>
	<path fill="#000113" d="M263.825-435.716v-36.516h-11.918v-14.199h11.918v-12.933c0,0,0.467-14.531,14.795-16.047
		c0,0,7.449-0.688,14.746,0v12.95h-9.098c0,0-5.855,0.001-5.855,5.857c0,5.854,0,9.988,0,9.988h14.123l-2.342,14.19h-11.85v36.709
		H263.825z"/>
</g>
<g>
	<rect x="328.216" y="-535.716" fill="#FFFFFF" width="100" height="100"/>
	<path fill="#000113" d="M418.216-510.953c-5.846,2.749-8.795,2.299-8.795,2.299c5.996-3.948,6.547-8.795,6.547-8.795
		c-4.998,3.147-10.586,3.94-10.586,3.94v0.004c-2.988-3.156-7.213-5.127-11.9-5.127c-9.053,0-16.391,7.338-16.391,16.391
		c0,1.23,0.141,2.428,0.397,3.58c-21.857-0.852-33.314-17.172-33.314-17.172c-7.062,13.991,4.797,22.119,4.797,22.119
		c-3.996-0.133-6.928-1.865-6.928-1.865c-0.4,13.326,12.637,16.123,12.637,16.123c-2.422,0.934-7.174,0.268-7.174,0.268
		c3.73,11.193,14.924,11.459,14.924,11.459c-8.262,8.795-24.213,6.873-24.213,6.873c8.873,6.081,19.904,9.096,31.426,7.732
		c24.645-2.919,42.424-24.801,40.48-49.326C415.412-505.733,418.216-510.953,418.216-510.953z"/>
</g>
<g>
	<path fill="#FFFFFF" d="M0-619.716c0,33-27,60-60,60s-60-27-60-60s27-60,60-60S0-652.716,0-619.716z"/>
	<path fill="#000113" d="M-43.038-579.716h-33.925c-12.703,0-23.038-10.335-23.038-23.038v-33.925
		c0-12.703,10.335-23.038,23.038-23.038h33.925c12.703,0,23.038,10.334,23.038,23.038v33.925
		C-20-590.051-30.334-579.716-43.038-579.716z M-76.962-652.403c-8.67,0-15.724,7.054-15.724,15.724v33.925
		c0,8.67,7.054,15.724,15.724,15.724h33.925c8.67,0,15.724-7.054,15.724-15.724v-33.925c0-8.67-7.054-15.724-15.724-15.724H-76.962z
		"/>
	<path fill="#000113" d="M-60.137-598.786c-11.502,0-20.86-9.358-20.86-20.86c0-11.503,9.358-20.861,20.86-20.861
		c11.503,0,20.861,9.358,20.861,20.861C-39.276-608.143-48.634-598.786-60.137-598.786z M-60.137-633.193
		c-7.47,0-13.547,6.077-13.547,13.547c0,7.47,6.077,13.547,13.547,13.547s13.548-6.077,13.548-13.547
		C-46.589-627.116-52.667-633.193-60.137-633.193z"/>
	<circle fill="#000113" cx="-38.929" cy="-641.076" r="4.936"/>
</g>
<g>
	<path fill="#FFFFFF" d="M128.405-619.716c0,33-27,60-60,60s-60-27-60-60s27-60,60-60S128.405-652.716,128.405-619.716z"/>
	<path fill="#000113" d="M72.142-559.716v-46.515H60.224v-14.2h11.918v-12.932c0,0,0.467-14.531,14.795-16.047
		c0,0,7.448-0.689,14.746,0v12.951h-9.098c0,0-5.855,0-5.855,5.856c0,5.855,0,9.988,0,9.988h14.122l-2.342,14.191H86.662v46.708
		H72.142z"/>
</g>
<g>
	<path fill="#FFFFFF" d="M256.811-619.716c0,33-27,60-60,60s-60-27-60-60s27-60,60-60S256.811-652.716,256.811-619.716z"/>
	<path fill="#000113" d="M236.466-606.629c-0.3,6.583-3.288,13.474-14.048,14.155c-10.76,0.682-42.443,0.598-51.111,0
		c-8.668-0.598-13.45-5.296-14.048-14.155c-0.598-8.859-0.598-18.21,0-26.387c0.598-8.177,4.882-13.044,14.048-13.857
		c9.166-0.813,44.137-0.697,51.708,0c7.572,0.697,12.852,5.296,13.451,13.857C237.063-624.455,236.765-613.212,236.466-606.629z"/>
	<polygon fill="#FFFFFF" points="189.24,-631.927 189.24,-607.418 209.166,-619.673 	"/>
</g>
<g>
	<path fill="#FFFFFF" d="M199.204-229.706c-33,0-60,27-60,60s27,60,60,60s60-27,60-60S232.204-229.706,199.204-229.706z
		 M238.859-156.618c-0.3,6.583-3.288,13.473-14.048,14.154c-10.76,0.682-42.443,0.598-51.111,0
		c-8.667-0.598-13.45-5.295-14.048-14.154c-0.598-8.859-0.598-18.21,0-26.387c0.598-8.178,4.882-13.044,14.048-13.857
		c9.167-0.812,44.137-0.697,51.708,0c7.572,0.697,12.852,5.297,13.451,13.857C239.457-174.444,239.158-163.202,238.859-156.618z"/>
	<polygon fill="#FFFFFF" points="191.633,-157.408 211.56,-169.663 191.633,-181.917 	"/>
</g>
<g>
	<path fill="#FFFFFF" d="M385.215-619.716c0,33-27,60-60,60s-60-27-60-60s27-60,60-60S385.215-652.716,385.215-619.716z"/>
	<path fill="#000113" d="M365.215-644.953c-5.846,2.748-8.794,2.299-8.794,2.299c5.996-3.948,6.546-8.795,6.546-8.795
		c-4.997,3.148-10.586,3.94-10.586,3.94v0.003c-2.987-3.155-7.213-5.126-11.9-5.126c-9.052,0-16.39,7.338-16.39,16.39
		c0,1.23,0.14,2.428,0.397,3.581c-21.858-0.853-33.314-17.173-33.314-17.173c-7.062,13.992,4.797,22.12,4.797,22.12
		c-3.997-0.133-6.929-1.866-6.929-1.866c-0.4,13.326,12.637,16.123,12.637,16.123c-2.421,0.933-7.174,0.267-7.174,0.267
		c3.73,11.193,14.924,11.46,14.924,11.46c-8.261,8.794-24.212,6.872-24.212,6.872c8.873,6.081,19.903,9.097,31.425,7.732
		c24.646-2.919,42.424-24.8,40.481-49.326C362.412-639.733,365.215-644.953,365.215-644.953z"/>
</g>
<g>
	<path fill="#FFFFFF" d="M-43.038-202.393h-33.925c-8.67,0-15.724,7.054-15.724,15.724v33.926c0,8.67,7.054,15.724,15.724,15.724
		h33.925c8.67,0,15.724-7.054,15.724-15.724v-33.926C-27.314-195.339-34.368-202.393-43.038-202.393z M-60.137-148.775
		c-11.502,0-20.86-9.358-20.86-20.86c0-11.503,9.358-20.861,20.86-20.861c11.503,0,20.861,9.358,20.861,20.861
		C-39.276-158.134-48.634-148.775-60.137-148.775z M-38.928-186.13c-2.727,0-4.937-2.209-4.937-4.936
		c0-2.726,2.21-4.936,4.937-4.936c2.725,0,4.935,2.21,4.935,4.936C-33.994-188.339-36.204-186.13-38.928-186.13z"/>
	<path fill="#FFFFFF" d="M-60.137-183.182c-7.47,0-13.547,6.076-13.547,13.547c0,7.47,6.077,13.547,13.547,13.547
		s13.548-6.077,13.548-13.547C-46.589-177.106-52.667-183.182-60.137-183.182z"/>
	<path fill="#FFFFFF" d="M-60-229.706c-33,0-60,27-60,60s27,60,60,60s60-27,60-60S-27-229.706-60-229.706z M-20-152.743
		c0,12.702-10.335,23.037-23.038,23.037h-33.925c-12.703,0-23.038-10.335-23.038-23.037v-33.926
		c0-12.703,10.335-23.037,23.038-23.037h33.925c12.703,0,23.038,10.334,23.038,23.037V-152.743z"/>
</g>
<g>
	<path fill="#FFFFFF" d="M128.405-169.706c0-33-27-60-60-60s-60,27-60,60s27,60,60,60c1.256,0,2.499-0.052,3.736-0.129v-46.386
		H60.224v-14.2h11.918v-12.932c0,0,0.467-14.531,14.795-16.047c0,0,7.448-0.689,14.746,0v12.95h-9.098c0,0-5.855,0.001-5.855,5.856
		c0,5.854,0,9.988,0,9.988h14.122l-2.342,14.19H86.662v43.841C110.805-120.345,128.405-143.065,128.405-169.706z"/>
</g>
<path fill="#FFFFFF" d="M325.215-229.706c-33,0-60,27-60,60s27,60,60,60s60-27,60-60S358.215-229.706,325.215-229.706z
	 M357.122-186.44c1.943,24.526-15.835,46.408-40.481,49.326c-11.521,1.364-22.552-1.65-31.425-7.732c0,0,15.951,1.922,24.212-6.872
	c0,0-11.193-0.267-14.924-11.46c0,0,4.753,0.666,7.174-0.267c0,0-13.037-2.798-12.637-16.124c0,0,2.932,1.732,6.929,1.866
	c0,0-11.859-8.128-4.797-22.12c0,0,11.456,16.32,33.314,17.173c-0.257-1.153-0.397-2.351-0.397-3.581
	c0-9.052,7.338-16.391,16.39-16.391c4.688,0,8.913,1.972,11.9,5.127v-0.004c0,0,5.589-0.792,10.586-3.939
	c0,0-0.55,4.847-6.546,8.795c0,0,2.948,0.449,8.794-2.299C365.215-194.942,362.412-189.723,357.122-186.44z"/>
<g>
	<path fill="#000113" d="M1065.799-658.786c-33,0-60,27-60,60s27,60,60,60s60-27,60-60S1098.799-658.786,1065.799-658.786z
		 M1105.455-585.698c-0.3,6.583-3.288,13.473-14.049,14.154c-10.76,0.682-42.442,0.598-51.11,0
		c-8.667-0.598-13.45-5.295-14.048-14.154c-0.598-8.859-0.598-18.21,0-26.387c0.598-8.178,4.882-13.044,14.048-13.857
		c9.167-0.812,44.137-0.697,51.708,0c7.572,0.697,12.853,5.297,13.451,13.857C1106.052-603.524,1105.753-592.282,1105.455-585.698z"
		/>
	<polygon fill="#000113" points="1058.229,-586.488 1078.156,-598.743 1058.229,-610.997 	"/>
</g>
<g>
	<path fill="#000113" d="M985.799-598.786c0-33-27-60-60-60s-60,27-60,60s27,60,60,60c1.256,0,2.498-0.051,3.736-0.129V-585.3
		h-11.918v-14.2h11.918v-12.932c0,0,0.467-14.531,14.795-16.047c0,0,7.448-0.69,14.746,0v12.95h-9.098c0,0-5.855,0.001-5.855,5.856
		c0,5.854,0,9.988,0,9.988h14.122l-2.342,14.19h-11.849v43.84C968.199-549.425,985.799-572.145,985.799-598.786z"/>
</g>
<path fill="#000113" d="M1205.799-658.715c-33,0-60,27-60,60s27,59.999,60,59.999s60-26.999,60-59.999
	S1238.799-658.715,1205.799-658.715z M1237.706-615.449c1.943,24.526-15.835,46.408-40.48,49.326
	c-11.521,1.364-22.552-1.65-31.425-7.732c0,0,15.951,1.922,24.212-6.872c0,0-11.193-0.267-14.924-11.46c0,0,4.753,0.666,7.174-0.267
	c0,0-13.037-2.798-12.637-16.124c0,0,2.932,1.732,6.929,1.866c0,0-11.859-8.128-4.797-22.12c0,0,11.456,16.32,33.314,17.173
	c-0.257-1.153-0.396-2.351-0.396-3.581c0-9.052,7.338-16.391,16.39-16.391c4.688,0,8.913,1.972,11.9,5.127v-0.004
	c0,0,5.589-0.792,10.586-3.94c0,0-0.55,4.847-6.546,8.795c0,0,2.948,0.449,8.794-2.299
	C1245.799-623.951,1242.996-618.732,1237.706-615.449z"/>
<g>
	<path fill="#FFFFFF" d="M847.872-789.421c0,33-27,60-60,60s-60-27-60-60s27-60,60-60S847.872-822.421,847.872-789.421z"/>
	<path fill="#000113" d="M827.872-814.658c-5.846,2.748-8.794,2.299-8.794,2.299c5.996-3.948,6.546-8.795,6.546-8.795
		c-4.997,3.148-10.586,3.94-10.586,3.94v0.003c-2.987-3.155-7.213-5.126-11.9-5.126c-9.052,0-16.39,7.338-16.39,16.39
		c0,1.231,0.14,2.428,0.396,3.581c-21.858-0.853-33.315-17.173-33.315-17.173c-7.062,13.992,4.797,22.12,4.797,22.12
		c-3.997-0.133-6.929-1.866-6.929-1.866c-0.4,13.326,12.637,16.124,12.637,16.124c-2.421,0.933-7.174,0.267-7.174,0.267
		c3.73,11.193,14.924,11.46,14.924,11.46c-8.261,8.794-24.212,6.872-24.212,6.872c8.873,6.081,19.903,9.097,31.425,7.732
		c24.646-2.919,42.424-24.8,40.481-49.326C825.068-809.438,827.872-814.658,827.872-814.658z"/>
</g>
<g>
	<polygon fill="#FFFFFF" points="-48.271,-418.167 -37.472,-474.013 -48.271,-529.858 -13.12,-474.013 	"/>
</g>
<g>
	<polygon fill="#FFFFFF" points="-72.002,-418.167 -82.802,-474.013 -72.002,-529.858 -107.153,-474.013 	"/>
</g>
<polygon fill="#FFFFFF" points="-13.939,-274.485 -90.063,-274.485 -26.188,-334.485 49.936,-334.485 "/>
<g>
	<polygon fill="#000113" points="787.645,-324.024 798.445,-379.87 787.645,-435.716 822.796,-379.87 	"/>
</g>
<g>
	<polygon fill="#000113" points="763.914,-324.024 753.115,-379.87 763.914,-435.716 728.763,-379.87 	"/>
</g>
<polygon fill="#000113" points="1039.329,-349.87 963.205,-349.87 1027.08,-409.87 1103.205,-409.87 "/>
<g>
	<path fill="#000113" d="M160.609-952.629c-0.3,6.583-3.288,13.474-14.048,14.155c-10.76,0.682-42.443,0.598-51.111,0
		c-8.668-0.598-13.45-5.296-14.048-14.155c-0.598-8.859-0.598-18.21,0-26.387c0.598-8.177,4.882-13.044,14.048-13.857
		c9.166-0.813,44.137-0.697,51.709,0c7.572,0.697,12.852,5.296,13.451,13.857C161.207-970.455,160.908-959.212,160.609-952.629z"/>
</g>
<g>
	<polygon fill="#FFFFFF" points="221.67,-977.927 221.67,-953.418 241.596,-965.673 	"/>
</g>
<polygon fill="#000113" points="943.205,-404.973 893,-354.767 842.796,-404.973 "/>
<polygon fill="#6609B7" points="702.577,-166.893 652.373,-116.688 602.168,-166.893 "/>
<polygon fill="#FFD700" points="1193.728,-183.996 1185.728,-175.996 1177.728,-183.996 "/>
<polygon fill="#FFD700" points="1193.728,-183.996 1185.728,-191.996 1177.728,-183.996 "/>
<circle fill="none" stroke="#FFFFFF" stroke-width="7" stroke-miterlimit="10" cx="479.168" cy="-983.421" r="80"/>
<circle fill="none" stroke="#FFFFFF" stroke-width="7" stroke-miterlimit="10" cx="664.398" cy="-983.421" r="80"/>
<circle fill="none" stroke="#FFFFFF" stroke-width="7" stroke-miterlimit="10" cx="847.872" cy="-983.421" r="80"/>
<path fill="none" stroke="#FFFFFF" stroke-width="7" stroke-miterlimit="10" d="M526.792-963.488c0,9.231-6.6,16.713-14.741,16.713
	h-65.772c-8.142,0-14.741-7.483-14.741-16.713v-29.572c0-9.23,6.6-16.713,14.741-16.713h65.772c8.142,0,14.741,7.482,14.741,16.713
	V-963.488z"/>
<circle fill="none" stroke="#FFFFFF" stroke-width="7" stroke-miterlimit="10" cx="479.165" cy="-978.274" r="16.286"/>
<path fill="none" stroke="#FFFFFF" stroke-width="7" stroke-miterlimit="10" d="M491.813-1012.267c0,1.377-1.343,2.494-3,2.494
	h-19.297c-1.657,0-3-1.117-3-2.494v-8.727c0-1.377,1.343-2.494,3-2.494h19.297c1.657,0,3,1.117,3,2.494V-1012.267z"/>
<path fill="#FFFFFF" d="M450.665-1011.273c0,0.829-0.691,1.5-1.542,1.5h-9.916c-0.852,0-1.542-0.671-1.542-1.5v-5.25
	c0-0.829,0.69-1.5,1.542-1.5h9.916c0.852,0,1.542,0.671,1.542,1.5V-1011.273z"/>
<circle fill="#FFFFFF" cx="510.165" cy="-994.56" r="5.999"/>
<path fill="none" stroke="#FFFFFF" stroke-width="7" stroke-miterlimit="10" d="M687.24-943.926h-49.683
	c-8.03,0-14.541-6.509-14.541-14.54h49.683C672.699-950.435,679.211-943.926,687.24-943.926c8.03,0,14.541-6.509,14.541-14.54
	v-64.449h-64.224v64.449"/>
<path fill="none" stroke="#FFFFFF" stroke-width="7" stroke-miterlimit="10" d="M630.951-938.577"/>
<line fill="none" stroke="#FFFFFF" stroke-width="7" stroke-linecap="round" stroke-miterlimit="10" x1="648.864" y1="-1009.348" x2="690.7" y2="-1009.348"/>
<line fill="none" stroke="#FFFFFF" stroke-width="7" stroke-linecap="round" stroke-miterlimit="10" x1="648.864" y1="-996.307" x2="690.7" y2="-996.307"/>
<line fill="none" stroke="#FFFFFF" stroke-width="7" stroke-linecap="round" stroke-miterlimit="10" x1="648.864" y1="-983.266" x2="690.7" y2="-983.266"/>
<line fill="none" stroke="#FFFFFF" stroke-width="7" stroke-linecap="round" stroke-miterlimit="10" x1="648.864" y1="-970.226" x2="690.7" y2="-970.226"/>
<polygon fill="none" stroke="#FFFFFF" stroke-width="7" stroke-linejoin="round" stroke-miterlimit="10" points="885.267,-983.266 
	828.331,-950.393 828.331,-1016.139 "/>
<circle fill="none" stroke="#FFFFFF" stroke-width="7" stroke-miterlimit="10" cx="1028.604" cy="-983.421" r="80"/>
<g>
	<path fill="#FFFFFF" d="M479.168-1257.945c-46.042,0-83.5,37.458-83.5,83.5s37.458,83.5,83.5,83.5s83.5-37.458,83.5-83.5
		S525.211-1257.945,479.168-1257.945z M479.168-1097.945c-42.183,0-76.5-34.318-76.5-76.5s34.317-76.5,76.5-76.5
		s76.5,34.318,76.5,76.5S521.351-1097.945,479.168-1097.945z"/>
	<path fill="#FFFFFF" d="M512.05-1204.298h-16.737v-7.721c0-3.305-2.916-5.994-6.5-5.994h-19.297c-3.584,0-6.5,2.689-6.5,5.994
		v7.721h-12.351v-3.25c0-0.828-0.691-1.5-1.542-1.5h-9.916c-0.852,0-1.542,0.672-1.542,1.5v5.25c0,0.13,0.022,0.255,0.055,0.375
		c-5.754,3.404-9.682,10.119-9.682,17.838v29.572c0,11.146,8.183,20.213,18.241,20.213h65.772c10.059,0,18.241-9.068,18.241-20.213
		v-29.572C530.292-1195.23,522.109-1204.298,512.05-1204.298z M470.016-1204.299v-6.713l18.297,0.001v6.713L470.016-1204.299z
		 M523.292-1154.513c0,7.286-5.043,13.213-11.241,13.213h-65.772c-6.198,0-11.241-5.928-11.241-13.213v-29.572
		c0-7.286,5.043-13.213,11.241-13.213h23.237h19.297h23.237c6.198,0,11.241,5.927,11.241,13.213V-1154.513z"/>
	<path fill="#FFFFFF" d="M479.165-1189.085c-10.91,0-19.786,8.876-19.786,19.787s8.876,19.786,19.786,19.786
		c10.91,0,19.786-8.876,19.786-19.786S490.075-1189.085,479.165-1189.085z M479.165-1156.512c-7.051,0-12.786-5.736-12.786-12.786
		c0-7.051,5.735-12.787,12.786-12.787c7.051,0,12.786,5.736,12.786,12.787C491.951-1162.248,486.215-1156.512,479.165-1156.512z"/>
	<circle fill="#FFFFFF" cx="510.165" cy="-1185.585" r="5.999"/>
</g>
<g>
	<path fill="#FFFFFF" d="M664.398-1257.945c-46.042,0-83.5,37.458-83.5,83.5s37.458,83.5,83.5,83.5c46.042,0,83.5-37.458,83.5-83.5
		S710.44-1257.945,664.398-1257.945z M664.398-1097.945c-42.183,0-76.5-34.318-76.5-76.5s34.317-76.5,76.5-76.5
		s76.5,34.318,76.5,76.5S706.581-1097.945,664.398-1097.945z"/>
	<path fill="#FFFFFF" d="M634.057-1152.991h-14.541v3.5c0,9.948,8.093,18.041,18.041,18.041h49.683
		c9.948,0,18.041-8.093,18.041-18.041v-67.949h-71.224V-1152.991z M637.557-1138.451c-4.865,0-9.006-3.163-10.473-7.541h42.455
		c0.553,2.798,1.754,5.367,3.441,7.541H637.557z M641.057-1210.44h57.224v60.949c0,6.088-4.953,11.041-11.041,11.041
		c-6.088,0-11.041-4.953-11.041-11.041v-3.5h-35.142V-1210.44z"/>
	<path fill="#FFFFFF" d="M648.864-1196.872H690.7c1.933,0,3.5-1.567,3.5-3.5s-1.567-3.5-3.5-3.5h-41.836c-1.933,0-3.5,1.567-3.5,3.5
		S646.931-1196.872,648.864-1196.872z"/>
	<path fill="#FFFFFF" d="M648.864-1183.832H690.7c1.933,0,3.5-1.567,3.5-3.5s-1.567-3.5-3.5-3.5h-41.836c-1.933,0-3.5,1.567-3.5,3.5
		S646.931-1183.832,648.864-1183.832z"/>
	<path fill="#FFFFFF" d="M648.864-1170.79H690.7c1.933,0,3.5-1.567,3.5-3.5s-1.567-3.5-3.5-3.5h-41.836c-1.933,0-3.5,1.567-3.5,3.5
		S646.931-1170.79,648.864-1170.79z"/>
	<path fill="#FFFFFF" d="M694.2-1161.25c0-1.933-1.567-3.5-3.5-3.5h-41.836c-1.933,0-3.5,1.567-3.5,3.5s1.567,3.5,3.5,3.5H690.7
		C692.632-1157.75,694.2-1159.317,694.2-1161.25z"/>
</g>
<g>
	<path fill="#FFFFFF" d="M847.872-1257.945c-46.042,0-83.5,37.458-83.5,83.5s37.458,83.5,83.5,83.5s83.5-37.458,83.5-83.5
		S893.914-1257.945,847.872-1257.945z M847.872-1097.945c-42.183,0-76.5-34.318-76.5-76.5s34.317-76.5,76.5-76.5
		s76.5,34.318,76.5,76.5S890.054-1097.945,847.872-1097.945z"/>
	<path fill="#FFFFFF" d="M887.017-1177.322l-56.936-32.872c-1.082-0.625-2.418-0.625-3.5,0c-1.083,0.625-1.75,1.781-1.75,3.031
		v65.746c0,1.25,0.667,2.406,1.75,3.031c0.541,0.312,1.145,0.469,1.75,0.469c0.604,0,1.209-0.156,1.75-0.469l56.936-32.874
		c1.083-0.625,1.75-1.781,1.75-3.031S888.1-1176.697,887.017-1177.322z M831.831-1147.48v-53.621l46.436,26.81L831.831-1147.48z"/>
</g>
<polygon fill="none" stroke="#FFFFFF" stroke-width="6" stroke-linejoin="round" stroke-miterlimit="10" points="1067.555,-952.866 
	995.273,-952.866 984.031,-1002.661 1078.8,-1002.661 "/>
<g>
	
		<line fill="none" stroke="#FFFFFF" stroke-width="6" stroke-linecap="round" stroke-linejoin="round" stroke-miterlimit="10" x1="1004.108" y1="-987.401" x2="1011.739" y2="-987.401"/>
	
		<line fill="none" stroke="#FFFFFF" stroke-width="6" stroke-linecap="round" stroke-linejoin="round" stroke-miterlimit="10" x1="1027.399" y1="-987.401" x2="1035.028" y2="-987.401"/>
	
		<line fill="none" stroke="#FFFFFF" stroke-width="6" stroke-linecap="round" stroke-linejoin="round" stroke-miterlimit="10" x1="1050.69" y1="-987.401" x2="1058.32" y2="-987.401"/>
</g>
<g>
	
		<line fill="none" stroke="#FFFFFF" stroke-width="6" stroke-linecap="round" stroke-linejoin="round" stroke-miterlimit="10" x1="1004.108" y1="-977.764" x2="1011.739" y2="-977.764"/>
	
		<line fill="none" stroke="#FFFFFF" stroke-width="6" stroke-linecap="round" stroke-linejoin="round" stroke-miterlimit="10" x1="1027.399" y1="-977.764" x2="1035.028" y2="-977.764"/>
	
		<line fill="none" stroke="#FFFFFF" stroke-width="6" stroke-linecap="round" stroke-linejoin="round" stroke-miterlimit="10" x1="1050.69" y1="-977.764" x2="1058.32" y2="-977.764"/>
</g>
<g>
	
		<line fill="none" stroke="#FFFFFF" stroke-width="6" stroke-linecap="round" stroke-linejoin="round" stroke-miterlimit="10" x1="1004.108" y1="-968.125" x2="1011.739" y2="-968.125"/>
	
		<line fill="none" stroke="#FFFFFF" stroke-width="6" stroke-linecap="round" stroke-linejoin="round" stroke-miterlimit="10" x1="1027.399" y1="-968.125" x2="1035.028" y2="-968.125"/>
	
		<line fill="none" stroke="#FFFFFF" stroke-width="6" stroke-linecap="round" stroke-linejoin="round" stroke-miterlimit="10" x1="1050.69" y1="-968.125" x2="1058.32" y2="-968.125"/>
</g>
<polyline fill="none" stroke="#FFFFFF" stroke-width="6" stroke-linecap="round" stroke-linejoin="round" stroke-miterlimit="10" points="
	1011.739,-1002.661 978.408,-1021.133 993.467,-1021.133 1026.998,-1002.661 "/>
<circle fill="none" stroke="#FFFFFF" stroke-width="6" stroke-linecap="round" stroke-linejoin="round" stroke-miterlimit="10" cx="1012.316" cy="-944.032" r="8.634"/>
<circle fill="none" stroke="#FFFFFF" stroke-width="6" stroke-linecap="round" stroke-linejoin="round" stroke-miterlimit="10" cx="1050.914" cy="-944.032" r="8.633"/>
<g>
	<path fill="#FFFFFF" d="M1028.604-1257.79c-46.042,0-83.5,37.458-83.5,83.5s37.458,83.5,83.5,83.5s83.5-37.458,83.5-83.5
		S1074.646-1257.79,1028.604-1257.79z M1028.604-1097.79c-42.183,0-76.5-34.318-76.5-76.5s34.317-76.5,76.5-76.5
		s76.5,34.318,76.5,76.5S1070.787-1097.79,1028.604-1097.79z"/>
	<path fill="#FFFFFF" d="M1078.8-1196.53h-51.032l-32.853-18.1c-0.443-0.245-0.941-0.373-1.447-0.373h-15.06
		c-1.367,0-2.562,0.925-2.904,2.249c-0.343,1.324,0.254,2.712,1.45,3.375l23.184,12.848h-16.106c-0.912,0-1.774,0.415-2.344,1.127
		c-0.568,0.712-0.783,1.645-0.583,2.534l11.242,49.794c0.31,1.368,1.524,2.339,2.927,2.339h6.994
		c-1.001,1.718-1.585,3.707-1.585,5.834c0,6.415,5.22,11.633,11.635,11.633c6.414,0,11.633-5.219,11.633-11.633
		c0-2.127-0.584-4.117-1.585-5.834h18.501c-1.002,1.718-1.585,3.707-1.585,5.834c0,6.415,5.219,11.633,11.634,11.633
		c6.414,0,11.633-5.219,11.633-11.633c0-2.127-0.584-4.117-1.585-5.834h6.593c1.402,0,2.617-0.971,2.927-2.339l11.245-49.794
		c0.2-0.889-0.014-1.822-0.583-2.534C1080.575-1196.116,1079.712-1196.53,1078.8-1196.53z M1012.317-1129.268
		c-3.107,0-5.635-2.527-5.635-5.633s2.527-5.634,5.635-5.634c3.106,0,5.633,2.527,5.633,5.634S1015.422-1129.268,1012.317-1129.268z
		 M1050.915-1129.268c-3.106,0-5.634-2.527-5.634-5.633s2.527-5.634,5.634-5.634c3.105,0,5.633,2.527,5.633,5.634
		S1054.02-1129.268,1050.915-1129.268z M990.01-1209.002h2.685l22.64,12.472h-2.821L990.01-1209.002z M1065.157-1146.736h-67.485
		l-9.888-43.794h39.207c0,0,0.003,0,0.004,0c0,0,0.002,0,0.004,0h48.049L1065.157-1146.736z"/>
	<path fill="#FFFFFF" d="M1011.739-1181.271h-7.631c-1.657,0-3,1.343-3,3s1.343,3,3,3h7.631c1.657,0,3-1.343,3-3
		S1013.396-1181.271,1011.739-1181.271z"/>
	<path fill="#FFFFFF" d="M1024.399-1178.271c0,1.657,1.343,3,3,3h7.629c1.657,0,3-1.343,3-3s-1.343-3-3-3h-7.629
		C1025.742-1181.271,1024.399-1179.928,1024.399-1178.271z"/>
	<path fill="#FFFFFF" d="M1050.69-1175.271h7.63c1.657,0,3-1.343,3-3s-1.343-3-3-3h-7.63c-1.657,0-3,1.343-3,3
		S1049.033-1175.271,1050.69-1175.271z"/>
	<path fill="#FFFFFF" d="M1011.739-1171.633h-7.631c-1.657,0-3,1.343-3,3s1.343,3,3,3h7.631c1.657,0,3-1.343,3-3
		S1013.396-1171.633,1011.739-1171.633z"/>
	<path fill="#FFFFFF" d="M1035.028-1171.633h-7.629c-1.657,0-3,1.343-3,3s1.343,3,3,3h7.629c1.657,0,3-1.343,3-3
		S1036.685-1171.633,1035.028-1171.633z"/>
	<path fill="#FFFFFF" d="M1050.69-1165.633h7.63c1.657,0,3-1.343,3-3s-1.343-3-3-3h-7.63c-1.657,0-3,1.343-3,3
		S1049.033-1165.633,1050.69-1165.633z"/>
	<path fill="#FFFFFF" d="M1011.739-1161.995h-7.631c-1.657,0-3,1.343-3,3c0,1.657,1.343,3,3,3h7.631c1.657,0,3-1.343,3-3
		C1014.739-1160.652,1013.396-1161.995,1011.739-1161.995z"/>
	<path fill="#FFFFFF" d="M1035.028-1161.995h-7.629c-1.657,0-3,1.343-3,3c0,1.657,1.343,3,3,3h7.629c1.657,0,3-1.343,3-3
		C1038.028-1160.652,1036.685-1161.995,1035.028-1161.995z"/>
	<path fill="#FFFFFF" d="M1050.69-1155.995h7.63c1.657,0,3-1.343,3-3c0-1.657-1.343-3-3-3h-7.63c-1.657,0-3,1.343-3,3
		C1047.69-1157.338,1049.033-1155.995,1050.69-1155.995z"/>
</g>
<g>
	<g>
		<path fill="#000113" d="M1345.799-658.793c-33.084,0-60,26.916-60,60s26.916,60,60,60c33.084,0,60-26.916,60-60
			S1378.883-658.793,1345.799-658.793z M1345.799-543.823c-30.311,0-54.97-24.659-54.97-54.97c0-30.31,24.659-54.97,54.97-54.97
			s54.97,24.659,54.97,54.97C1400.769-568.482,1376.11-543.823,1345.799-543.823z"/>
		<path fill="#000113" d="M1369.427-620.244H1357.4v-5.548c0-2.374-2.095-4.307-4.671-4.307h-13.865
			c-2.575,0-4.671,1.933-4.671,4.307v5.548h-8.875v-2.335c0-0.595-0.496-1.078-1.108-1.078h-7.125c-0.612,0-1.108,0.483-1.108,1.078
			v3.772c0,0.094,0.017,0.183,0.039,0.27c-4.134,2.446-6.956,7.271-6.956,12.817v21.25c0,8.009,5.879,14.523,13.107,14.523h47.261
			c7.228,0,13.107-6.515,13.107-14.523v-21.25C1382.535-613.728,1376.655-620.244,1369.427-620.244z M1339.223-620.244v-4.825
			l13.147,0.002v4.823H1339.223z M1377.504-584.47c0,5.234-3.624,9.494-8.077,9.494h-47.261c-4.454,0-8.078-4.26-8.078-9.494v-21.25
			c0-5.234,3.624-9.494,8.078-9.494h16.697h13.865h16.698c4.453,0,8.077,4.26,8.077,9.494V-584.47z"/>
		<path fill="#000113" d="M1345.796-609.312c-7.84,0-14.218,6.379-14.218,14.219c0,7.839,6.378,14.217,14.218,14.217
			s14.218-6.378,14.218-14.217C1360.014-602.933,1353.636-609.312,1345.796-609.312z M1345.796-585.907
			c-5.066,0-9.188-4.121-9.188-9.187c0-5.067,4.121-9.188,9.188-9.188s9.188,4.121,9.188,9.188
			C1354.984-590.028,1350.863-585.907,1345.796-585.907z"/>
		<circle fill="#000113" cx="1368.072" cy="-606.798" r="4.311"/>
	</g>
	<g>
		<path fill="#000113" d="M1485.799-658.793c-33.084,0-60,26.916-60,60s26.916,60,60,60c33.084,0,60-26.916,60-60
			S1518.883-658.793,1485.799-658.793z M1485.799-543.823c-30.311,0-54.97-24.659-54.97-54.97c0-30.31,24.659-54.97,54.97-54.97
			s54.97,24.659,54.97,54.97C1540.769-568.482,1516.11-543.823,1485.799-543.823z"/>
		<path fill="#000113" d="M1463.998-583.377h-10.449v2.515c0,7.148,5.815,12.964,12.964,12.964h35.7
			c7.149,0,12.964-5.815,12.964-12.964v-48.825h-51.179V-583.377z M1466.512-572.929c-3.496,0-6.471-2.273-7.525-5.418h30.507
			c0.397,2.011,1.261,3.857,2.473,5.418H1466.512z M1469.028-624.657h41.118v43.795c0,4.375-3.559,7.934-7.934,7.934
			c-4.374,0-7.934-3.559-7.934-7.934v-2.515h-25.251V-624.657z"/>
		<path fill="#000113" d="M1474.637-614.908h30.062c1.389,0,2.515-1.125,2.515-2.515c0-1.39-1.126-2.515-2.515-2.515h-30.062
			c-1.389,0-2.515,1.125-2.515,2.515C1472.123-616.033,1473.249-614.908,1474.637-614.908z"/>
		<path fill="#000113" d="M1474.637-605.538h30.062c1.389,0,2.515-1.126,2.515-2.515c0-1.389-1.126-2.515-2.515-2.515h-30.062
			c-1.389,0-2.515,1.126-2.515,2.515C1472.123-606.664,1473.249-605.538,1474.637-605.538z"/>
		<path fill="#000113" d="M1474.637-596.166h30.062c1.389,0,2.515-1.127,2.515-2.516c0-1.39-1.126-2.515-2.515-2.515h-30.062
			c-1.389,0-2.515,1.125-2.515,2.515C1472.123-597.293,1473.249-596.166,1474.637-596.166z"/>
		<path fill="#000113" d="M1507.213-589.311c0-1.389-1.126-2.515-2.515-2.515h-30.062c-1.389,0-2.515,1.126-2.515,2.515
			c0,1.389,1.126,2.516,2.515,2.516h30.062C1506.087-586.796,1507.213-587.923,1507.213-589.311z"/>
	</g>
	<g>
		<path fill="#000113" d="M1625.799-658.793c-33.084,0-60,26.916-60,60s26.916,60,60,60c33.084,0,60-26.916,60-60
			S1658.883-658.793,1625.799-658.793z M1625.799-543.823c-30.311,0-54.97-24.659-54.97-54.97c0-30.31,24.659-54.97,54.97-54.97
			s54.97,24.659,54.97,54.97C1680.769-568.482,1656.11-543.823,1625.799-543.823z"/>
		<path fill="#000113" d="M1653.928-600.86l-40.913-23.62c-0.777-0.449-1.737-0.449-2.515,0c-0.778,0.448-1.258,1.279-1.258,2.178
			v47.243c0,0.898,0.479,1.728,1.258,2.178c0.389,0.225,0.823,0.337,1.258,0.337c0.434,0,0.868-0.112,1.257-0.337l40.913-23.622
			c0.777-0.45,1.257-1.279,1.257-2.178C1655.185-599.581,1654.706-600.41,1653.928-600.86z M1614.273-579.416v-38.53l33.367,19.265
			L1614.273-579.416z"/>
	</g>
	<g>
		<path fill="#000113" d="M1765.799-658.638c-33.084,0-60,26.915-60,60c0,33.083,26.916,60,60,60c33.084,0,60-26.917,60-60
			C1825.799-631.723,1798.883-658.638,1765.799-658.638z M1765.799-543.668c-30.311,0-54.97-24.659-54.97-54.97
			s24.659-54.97,54.97-54.97s54.97,24.659,54.97,54.97S1796.11-543.668,1765.799-543.668z"/>
		<path fill="#000113" d="M1801.869-614.619h-36.67l-23.607-13.005c-0.318-0.176-0.677-0.269-1.04-0.269h-10.821
			c-0.982,0-1.841,0.665-2.087,1.617c-0.246,0.951,0.183,1.947,1.042,2.425l16.659,9.232h-11.573c-0.655,0-1.275,0.298-1.685,0.811
			c-0.408,0.511-0.562,1.182-0.419,1.82l8.078,35.78c0.223,0.983,1.096,1.682,2.104,1.682h5.025
			c-0.72,1.233-1.139,2.664-1.139,4.191c0,4.609,3.751,8.359,8.36,8.359c4.608,0,8.358-3.75,8.358-8.359
			c0-1.527-0.419-2.958-1.139-4.191h13.294c-0.72,1.233-1.139,2.664-1.139,4.191c0,4.609,3.75,8.359,8.359,8.359
			c4.609,0,8.359-3.75,8.359-8.359c0-1.527-0.42-2.958-1.139-4.191h4.737c1.007,0,1.88-0.698,2.103-1.682l8.08-35.78
			c0.145-0.639-0.01-1.31-0.419-1.82C1803.143-614.321,1802.524-614.619,1801.869-614.619z M1754.096-566.287
			c-2.233,0-4.049-1.815-4.049-4.048c0-2.231,1.815-4.048,4.049-4.048c2.232,0,4.047,1.816,4.047,4.048
			C1758.143-568.102,1756.328-566.287,1754.096-566.287z M1781.831-566.287c-2.232,0-4.048-1.815-4.048-4.048
			c0-2.231,1.815-4.048,4.048-4.048c2.231,0,4.048,1.816,4.048,4.048C1785.878-568.102,1784.062-566.287,1781.831-566.287z
			 M1738.067-623.581h1.93l16.269,8.962h-2.027L1738.067-623.581z M1792.065-578.838h-48.492l-7.105-31.47h28.173h0.003
			c0,0,0.001,0,0.003,0h34.525L1792.065-578.838z"/>
		<path fill="#000113" d="M1753.68-603.653h-5.482c-1.191,0-2.156,0.965-2.156,2.155c0,1.19,0.965,2.156,2.156,2.156h5.482
			c1.191,0,2.156-0.966,2.156-2.156C1755.836-602.688,1754.872-603.653,1753.68-603.653z"/>
		<path fill="#000113" d="M1762.778-601.498c0,1.19,0.965,2.156,2.155,2.156h5.482c1.19,0,2.155-0.966,2.155-2.156
			c0-1.19-0.965-2.155-2.155-2.155h-5.482C1763.743-603.653,1762.778-602.688,1762.778-601.498z"/>
		<path fill="#000113" d="M1781.67-599.342h5.482c1.19,0,2.155-0.966,2.155-2.156c0-1.19-0.965-2.155-2.155-2.155h-5.482
			c-1.191,0-2.155,0.965-2.155,2.155C1779.514-600.307,1780.479-599.342,1781.67-599.342z"/>
		<path fill="#000113" d="M1753.68-596.729h-5.482c-1.191,0-2.156,0.966-2.156,2.156c0,1.19,0.965,2.155,2.156,2.155h5.482
			c1.191,0,2.156-0.965,2.156-2.155C1755.836-595.764,1754.872-596.729,1753.68-596.729z"/>
		<path fill="#000113" d="M1770.416-596.729h-5.482c-1.19,0-2.155,0.966-2.155,2.156c0,1.19,0.965,2.155,2.155,2.155h5.482
			c1.19,0,2.155-0.965,2.155-2.155C1772.571-595.764,1771.606-596.729,1770.416-596.729z"/>
		<path fill="#000113" d="M1781.67-592.418h5.482c1.19,0,2.155-0.965,2.155-2.155c0-1.19-0.965-2.156-2.155-2.156h-5.482
			c-1.191,0-2.155,0.966-2.155,2.156C1779.514-593.383,1780.479-592.418,1781.67-592.418z"/>
		<path fill="#000113" d="M1753.68-589.803h-5.482c-1.191,0-2.156,0.965-2.156,2.155c0,1.19,0.965,2.156,2.156,2.156h5.482
			c1.191,0,2.156-0.966,2.156-2.156C1755.836-588.838,1754.872-589.803,1753.68-589.803z"/>
		<path fill="#000113" d="M1770.416-589.803h-5.482c-1.19,0-2.155,0.965-2.155,2.155c0,1.19,0.965,2.156,2.155,2.156h5.482
			c1.19,0,2.155-0.966,2.155-2.156C1772.571-588.838,1771.606-589.803,1770.416-589.803z"/>
		<path fill="#000113" d="M1781.67-585.491h5.482c1.19,0,2.155-0.966,2.155-2.156c0-1.19-0.965-2.155-2.155-2.155h-5.482
			c-1.191,0-2.155,0.965-2.155,2.155C1779.514-586.457,1780.479-585.491,1781.67-585.491z"/>
	</g>
</g>
<g>
	<path d="M947.42-504.727c-8.066-8.07-21.193-8.07-29.262,0c-8.066,8.068-8.07,21.193,0,29.266
		c7.299,7.301,18.734,7.969,26.824,2.057l11.02,11.022c1.246,1.244,3.26,1.244,4.5,0c1.242-1.242,1.242-3.256,0-4.496
		l-11.021-11.022C955.395-485.991,954.723-497.425,947.42-504.727z M942.922-479.962c-5.586,5.584-14.68,5.588-20.266,0
		c-5.588-5.586-5.588-14.678,0-20.266c5.586-5.592,14.68-5.592,20.266,0C948.51-494.639,948.51-485.548,942.922-479.962z"/>
</g>
<path d="M763.346-486.114l18.35-18.35c1.445-1.445,1.445-3.786,0-5.231c-1.445-1.445-3.786-1.445-5.231,0l-18.351,18.35
	l-18.351-18.35c-1.445-1.445-3.786-1.445-5.231,0c-1.445,1.445-1.445,3.786,0,5.231l18.352,18.35l-18.347,18.347
	c-1.445,1.445-1.445,3.786,0,5.231c0.722,0.723,1.67,1.084,2.615,1.084c0.947,0,1.894-0.361,2.616-1.084l18.346-18.347
	l18.351,18.347c0.723,0.723,1.668,1.084,2.615,1.084c0.946,0,1.894-0.361,2.616-1.084c1.445-1.445,1.445-3.786,0-5.231
	L763.346-486.114z"/>
<path fill="#FFD700" d="M869.5-221.846v-25.95c0-2.044-1.655-3.699-3.699-3.699c-2.044,0-3.699,1.655-3.699,3.699l-0.001,25.951
	H836.15c-2.044,0-3.699,1.655-3.699,3.699c0,2.044,1.655,3.699,3.699,3.699l25.952-0.001v25.946c0,2.044,1.655,3.699,3.699,3.699
	c1.021,0,1.947-0.415,2.615-1.083c0.67-0.67,1.084-1.595,1.084-2.616l-0.001-25.945l25.949-0.003c1.021,0,1.945-0.413,2.615-1.083
	c0.669-0.669,1.084-1.595,1.084-2.616c0-2.044-1.655-3.699-3.699-3.699L869.5-221.846z"/>
<g>
	<path d="M826.195-498.638h42.497c1.887,0,3.415-1.528,3.415-3.415c0-1.886-1.528-3.414-3.415-3.414h-42.497
		c-1.885,0-3.415,1.528-3.415,3.414C822.78-500.166,824.31-498.638,826.195-498.638z"/>
	<path d="M868.692-489.532h-42.497c-1.885,0-3.415,1.532-3.415,3.416c0,1.885,1.53,3.415,3.415,3.415h42.497
		c1.887,0,3.415-1.53,3.415-3.415C872.107-488,870.579-489.532,868.692-489.532z"/>
	<path d="M868.692-473.595h-42.497c-1.885,0-3.415,1.529-3.415,3.415c0,1.885,1.53,3.415,3.415,3.415h42.497
		c1.887,0,3.415-1.53,3.415-3.415C872.107-472.065,870.579-473.595,868.692-473.595z"/>
</g>
<g>
	<path fill="#000113" d="M1029.288-470.925c-0.672,0-1.312-0.268-1.787-0.742l-25.326-25.324c-0.988-0.988-0.988-2.59,0-3.574
		c0.988-0.988,2.588-0.988,3.574,0l23.539,23.537l23.537-23.537c0.988-0.988,2.588-0.988,3.576,0c0.986,0.986,0.986,2.586,0,3.574
		l-25.324,25.324C1030.602-471.192,1029.959-470.925,1029.288-470.925z"/>
</g>
<g>
	<circle cx="1120.333" cy="-498.222" r="12.894"/>
	<path d="M1120.333-484.307c-12.808,0-23.191,10.383-23.191,23.191h46.383C1143.524-473.925,1133.14-484.307,1120.333-484.307z"/>
</g>
<path d="M1229.719-503.994c-5.07-5.071-13.291-5.071-18.361,0l-2.834,2.833l-2.834-2.833c-5.072-5.071-13.293-5.071-18.363,0
	c-5.07,5.071-5.07,13.292,0,18.362l2.834,2.834l18.363,18.363l18.363-18.363l2.832-2.834
	C1234.792-490.702,1234.792-498.924,1229.719-503.994z"/>
<g>
	<path d="M1313.911-496.927h-37.684v-8.48l22.465-3.018c0.74-0.1,1.258-0.78,1.16-1.52c-0.099-0.74-0.781-1.258-1.52-1.16
		l-23.637,3.177c-0.672,0.091-1.172,0.663-1.172,1.339v9.662v0.338v24.324h33.021L1313.911-496.927z"/>
	<circle cx="1279.267" cy="-466.521" r="5.405"/>
	<circle cx="1301.97" cy="-466.521" r="5.405"/>
</g>
<path fill="#FFFFFF" d="M-36.156,25.534h7l1.384-8.384h-8.344c0,0,0-2.442,0-5.901c0-3.459,3.459-3.46,3.459-3.46h5.375V0.137
	c-4.312-0.407-8.712,0-8.712,0c-8.465,0.895-8.741,9.481-8.741,9.481v7.64h-7.042v8.39h7.042v24.308h8.578V25.534z"/>
<path fill="#FFFFFF" d="M-75.433-103.909c-6.828-0.629-38.363-0.733-46.629,0c-8.266,0.734-12.129,5.122-12.668,12.496
	c-0.539,7.374-0.539,15.806,0,23.795c0.539,7.989,4.852,12.225,12.668,12.764c7.817,0.539,36.387,0.615,46.09,0
	c9.704-0.615,12.399-6.828,12.669-12.764c0.269-5.937,0.539-16.075,0-23.795C-63.843-99.133-68.605-103.28-75.433-103.909z
	 M-105.891-68.33v-22.102l17.97,11.05L-105.891-68.33z"/>
<path fill="#FFFFFF" d="M54.081,7.579c4.554-2.999,4.972-6.68,4.972-6.68c-3.795,2.391-8.04,2.992-8.04,2.992v0.003
	C48.744,1.497,45.534,0,41.974,0c-6.875,0-12.448,5.574-12.448,12.449c0,0.934,0.106,1.844,0.301,2.72
	C13.225,14.521,4.524,2.126,4.524,2.126c-5.364,10.627,3.643,16.8,3.643,16.8c-3.036-0.102-5.262-1.417-5.262-1.417
	c-0.304,10.121,9.598,12.246,9.598,12.246c-1.839,0.708-5.449,0.203-5.449,0.203c2.833,8.502,11.335,8.704,11.335,8.704
	C12.115,45.341,0,43.881,0,43.881c6.739,4.619,15.117,6.909,23.868,5.873c18.719-2.216,32.221-18.836,30.745-37.464
	c4.018-2.494,6.147-6.457,6.147-6.457C56.32,7.92,54.081,7.579,54.081,7.579z"/>
</svg>
