<?xml version="1.0" encoding="utf-8"?>
<!-- Generator: Adobe Illustrator 16.0.0, SVG Export Plug-In . SVG Version: 6.00 Build 0)  -->
<!DOCTYPE svg PUBLIC "-//W3C//DTD SVG 1.1//EN" "http://www.w3.org/Graphics/SVG/1.1/DTD/svg11.dtd">
<svg version="1.1" id="Layer_1" xmlns="http://www.w3.org/2000/svg" xmlns:xlink="http://www.w3.org/1999/xlink" x="0px" y="0px"
	 width="420.597px" height="70px" viewBox="0 0 420.597 70" enable-background="new 0 0 420.597 70" xml:space="preserve">
<g>
	<path fill="#FFFFFF" d="M6.6,0c16.2,0.067,30.7,0.1,43.5,0.1c5.4,0,10.715,0,15.95,0c5.233,0,9.883,0,13.95,0
		c4.065,0,7.35,0,9.85,0S93.6,0.067,93.6,0c-0.4,1.067-0.75,2.067-1.05,3c-0.3,0.935-0.65,2-1.05,3.2c-0.4,1.2-0.8,2.434-1.2,3.7
		c-0.934,2.935-2,6.3-3.2,10.1H58.2c-0.867,2.8-1.65,5.367-2.35,7.7c-0.7,2.334-1.517,5-2.45,8c-0.934,3-1.867,6.067-2.8,9.2
		C48.4,52.234,45.866,60.6,43,70H14l14.9-50H0L6.6,0z"/>
	<path fill="#FFFFFF" d="M100.599,0.1l88.5-0.1l-5.3,17.5h-56.5l-9.8,32.6c-0.134,0.534-0.017,1.184,0.35,1.95
		c0.365,0.768,0.815,1.15,1.35,1.15c0.333,0,1.4,0,3.2,0s4.05-0.016,6.75-0.05c2.7-0.033,5.716-0.065,9.05-0.1
		c3.333-0.033,6.7-0.05,10.101-0.05c3.399,0,6.699-0.016,9.899-0.05c3.2-0.033,6.016-0.05,8.45-0.05c2.433,0,4.35,0.017,5.75,0.05
		c1.4,0.034,2,0.084,1.8,0.15l-5,16.9h-73.9c-0.8,0-1.667-0.133-2.6-0.4c-0.934-0.266-1.85-0.633-2.75-1.1
		c-0.9-0.466-1.717-1-2.45-1.6c-0.734-0.6-1.334-1.233-1.8-1.9c-0.934-1.466-1.767-3.1-2.5-4.9c-0.734-1.8-0.833-3.533-0.3-5.2
		L100.599,0.1z M132.099,26.1h44.899l-5.8,15.6h-44.7L132.099,26.1z"/>
	<path fill="#FFFFFF" d="M172.098,70l61.7-70h25.2c1.2,0,2.4,0.384,3.6,1.15c1.2,0.767,2.166,1.617,2.9,2.55
		c0.666,0.867,1.283,1.767,1.85,2.7c0.566,0.935,1.051,1.867,1.45,2.8c0.065,0.267,0.333,1.334,0.8,3.2
		c0.466,1.867,1.033,4.234,1.7,7.1c0.666,2.867,1.4,6.117,2.2,9.75c0.8,3.634,1.633,7.317,2.5,11.05c2,8.8,4.232,18.7,6.7,29.7
		h-34.3l-3.601-12.9l-28.6-0.4c2.665-3.133,5.1-5.966,7.3-8.5c0.865-1.066,1.75-2.1,2.65-3.1c0.899-1,1.699-1.9,2.399-2.7
		c0.7-0.8,1.483-1.7,2.351-2.7h9.899l-3.6-14.6L197.598,70H172.098z"/>
	<path fill="#FFFFFF" d="M282.697,70l18.9-59.7l8.8,36.8l-6.2,22.9H282.697z M333.397,0c0.8,0,1.601,0.185,2.4,0.55
		c0.8,0.367,1.516,0.85,2.149,1.45c0.633,0.6,1.184,1.284,1.65,2.05c0.466,0.768,0.8,1.518,1,2.25l7.6,32.2L383.498,0h37.1l-21.6,70
		h-32.301l6.601-22.9l-20.7,22.9h-31.3l-16.2-70H333.397z"/>
</g>
</svg>
