<?xml version="1.0" encoding="utf-8"?>
<!-- Generator: Adobe Illustrator 24.0.3, SVG Export Plug-In . SVG Version: 6.00 Build 0)  -->
<svg version="1.1" id="Layer_1" xmlns="http://www.w3.org/2000/svg" xmlns:xlink="http://www.w3.org/1999/xlink" x="0px" y="0px"
	 viewBox="0 0 100.1 100" style="enable-background:new 0 0 100.1 100;" xml:space="preserve">
<style type="text/css">
	.st0{fill:#02B4CD;}
	.st1{fill:none;stroke:#02B4CD;stroke-width:9;stroke-miterlimit:10;}
	.st2{fill:none;stroke:#02B4CD;stroke-width:9;stroke-linecap:round;stroke-miterlimit:10;}
	.st3{fill:#D70C41;}
	.st4{fill:#23A4C1;}
</style>
<g>
</g>
<g>
	<g>
		<path class="st0" d="M47.5,100c-12.7,0-24.6-4.9-33.6-13.9C4.9,77.1,0,65.2,0,52.5s4.9-24.6,13.9-33.6C22.9,9.9,34.8,5,47.5,5
			c0.5,0,1,0.4,1,1s-0.4,1-1,1C22.4,6.9,2,27.4,2,52.5S22.4,98,47.5,98s45.5-20.4,45.5-45.5c0-4.1-0.6-8.2-1.6-12.2
			c-0.1-0.5,0.2-1.1,0.7-1.2c0.5-0.1,1.1,0.2,1.2,0.7c1.1,4.1,1.7,8.4,1.7,12.7c0,12.7-4.9,24.6-13.9,33.6
			C72.1,95.1,60.2,100,47.5,100z"/>
	</g>
	<g>
		<path class="st0" d="M56,22.9c-0.3,0.5-0.6,0.7-1.1,0.8c-0.4,0.1-0.8,0.1-1.2-0.1c-0.4-0.2-0.7-0.4-0.9-0.8
			c-0.2-0.4-0.4-0.8-0.3-1.3c0-0.3,0.1-0.7,0.2-1c0.1-0.4,0.3-0.7,0.5-1.1c0.2-0.3,0.4-0.7,0.7-1c0.2-0.3,0.5-0.6,0.8-0.8
			c0.5-0.4,1-0.7,1.6-1c0.6-0.3,1.2-0.5,1.9-0.6c0.7-0.1,1.3-0.2,2-0.2c0.7,0,1.3,0.1,1.9,0.3c1.6,0.5,2.8,1.3,3.7,2.3
			c0.9,1.1,1.3,2.5,1.3,4.2c0,0.8-0.1,1.5-0.2,2.2c-0.1,0.6-0.4,1.3-0.8,1.9c-0.4,0.6-0.9,1.2-1.5,1.8c-0.6,0.6-1.4,1.3-2.2,2
			c-0.3,0.3-0.6,0.5-0.9,0.8c-0.3,0.3-0.6,0.5-1,0.8c-0.1,0.1-0.3,0.2-0.6,0.4c-0.3,0.2-0.5,0.3-0.7,0.5c-0.2,0.2-0.3,0.3-0.4,0.4
			c0,0.1,0.1,0.2,0.5,0.2c0.4,0,0.8,0,1,0c0.3,0,0.6,0,1,0c0.5,0,1,0,1.5,0c0.5,0,1,0,1.5,0c0.2,0,0.4,0,0.7,0c0.2,0,0.5,0,0.7,0
			c0.2,0,0.5,0,0.7,0.1c0.2,0,0.4,0.1,0.6,0.3c0.2,0.1,0.3,0.3,0.4,0.6c0.1,0.2,0.1,0.5,0.1,0.8c0,0.3,0,0.5-0.1,0.8
			c-0.1,0.2-0.2,0.4-0.3,0.6c-0.3,0.3-0.6,0.4-1,0.4c-0.4,0-0.7,0-1.1,0H54.4c-0.2,0-0.4,0-0.6,0c-0.2,0-0.4,0-0.6-0.1
			c-0.4-0.1-0.5-0.3-0.5-0.6c0-0.3,0-0.6,0-0.9c0-0.5,0.1-1,0.4-1.4c0.2-0.4,0.5-0.8,0.9-1.2c0.4-0.4,0.8-0.7,1.2-1
			c0.4-0.3,0.8-0.6,1.2-0.9c0.5-0.5,1.1-0.9,1.7-1.4c0.6-0.5,1.2-0.9,1.7-1.4c0.7-0.6,1.3-1.1,1.8-1.6c0.5-0.5,0.9-0.9,1.2-1.3
			c0.3-0.4,0.5-0.8,0.7-1.2c0.1-0.4,0.2-0.8,0.2-1.3c0-1-0.3-1.8-0.9-2.3c-0.6-0.5-1.4-0.8-2.3-0.8c-0.7,0-1.3,0.1-1.9,0.4
			c-0.6,0.3-1.1,0.7-1.5,1.3c-0.1,0.2-0.2,0.4-0.3,0.7C56.2,22.5,56.1,22.7,56,22.9z"/>
		<path class="st0" d="M82.3,16.7c0.1,0.2,0.2,0.5,0.3,0.8c0.1,0.7,0.1,1.4,0.1,2.1c0,0.7,0,1.4,0,2.1c0,0.8,0,1.6,0,2.4
			c0,0.8,0,1.6,0,2.4v2.5h1.3c0.2,0,0.4,0,0.7,0.1c0.2,0,0.5,0.1,0.7,0.3c0.2,0.1,0.4,0.3,0.5,0.4c0.1,0.2,0.2,0.4,0.2,0.7
			c0,0.6-0.2,1.1-0.6,1.3c-0.4,0.2-0.9,0.4-1.4,0.4c0,0-0.1,0-0.3,0c-0.1,0-0.3,0-0.4,0c-0.2,0-0.3,0-0.4,0c-0.1,0-0.2,0-0.2-0.1v2
			c0,0.2,0,0.5,0,0.7c0,0.3,0,0.5-0.1,0.8c0,0.3-0.1,0.5-0.2,0.8c-0.1,0.2-0.3,0.4-0.5,0.6c-0.1,0.1-0.2,0.1-0.4,0.1
			c-0.1,0-0.3,0.1-0.5,0.1c-0.2,0-0.4,0-0.5,0c-0.2,0-0.3,0-0.4-0.1c-0.4-0.1-0.6-0.4-0.7-0.8c-0.1-0.4-0.2-0.7-0.2-1.1
			c0-0.1,0-0.3,0-0.6c0-0.3,0-0.7,0-1c0-0.4,0-0.7,0-1c0-0.3,0-0.4-0.1-0.4h-5.2c-0.6,0-1.2,0-1.8,0c-0.6,0-1.2-0.2-1.6-0.5
			c-0.4-0.3-0.6-0.5-0.6-0.9c-0.1-0.3,0-0.7,0.1-1c0.1-0.3,0.3-0.6,0.5-1c0.2-0.3,0.4-0.6,0.6-0.9c0.8-1,1.5-2,2.2-3.1
			c0.7-1.1,1.4-2.1,2.1-3.1c0.4-0.5,0.8-1,1.2-1.5c0.4-0.5,0.8-1,1.2-1.5c0.3-0.4,0.6-0.8,0.9-1.3c0.3-0.4,0.7-0.8,1.2-1
			c0.5-0.2,0.9-0.3,1.4-0.3C81.8,16.2,82.1,16.3,82.3,16.7z M79.4,22l-4.9,7h4.9V22z"/>
		<path class="st0" d="M100.1,31.6c0,0.4,0,0.8,0,1.2c0,0.4,0,0.8,0,1.2c0,0.5,0,1-0.1,1.5c0,0.4-0.1,0.8-0.2,1.1
			c-0.1,0.3-0.3,0.5-0.5,0.7c-0.2,0.1-0.6,0.2-1,0.1c-0.5-0.1-0.8-0.3-1-0.7c-0.2-0.4-0.3-0.8-0.4-1.3c-0.1-0.5-0.1-1-0.1-1.5
			c0-0.5,0-0.9,0-1.2c0-0.4,0-0.9,0-1.5c0-0.6-0.1-1.1-0.2-1.6c-0.1-0.5-0.3-0.9-0.5-1.3c-0.3-0.4-0.6-0.5-1.2-0.6
			c-0.7,0-1.2,0-1.5,0.1c-0.3,0.1-0.6,0.3-0.8,0.6c-0.2,0.3-0.3,0.6-0.3,1c0,0.4-0.1,0.8-0.1,1.2l0,1.2v2.2c0,0.4,0,0.7,0,1.1
			c0,0.4-0.1,0.7-0.2,1.1c-0.1,0.3-0.3,0.6-0.5,0.8c-0.2,0.2-0.6,0.3-1.1,0.3c-0.6,0-1-0.2-1.3-0.6c-0.3-0.4-0.4-0.9-0.4-1.4V18.3
			c0-0.1,0-0.2,0-0.3c0-0.1,0-0.2,0-0.3c0-0.1,0.1-0.2,0.1-0.3c0-0.1,0-0.2,0.1-0.3c0.1-0.2,0.2-0.3,0.3-0.4
			c0.1-0.1,0.2-0.2,0.3-0.2c0.1-0.1,0.2-0.1,0.3-0.1c0.1,0,0.2,0,0.3,0c0.1,0,0.2,0,0.4,0c0.3,0,0.6,0.1,0.9,0.3
			c0.1,0.1,0.2,0.2,0.3,0.3c0.1,0.1,0.2,0.2,0.2,0.4c0.2,0.4,0.2,0.7,0.2,1.1c0,0.1,0,0.2,0,0.4c0,0.2,0,0.4,0,0.6
			c0,0.2,0,0.4,0,0.6c0,0.2,0,0.3,0,0.4v0.1c0,0.6,0,1.3,0,1.9c0,0.7,0,1.3,0,2v0.5c0.8-0.3,1.7-0.4,2.6-0.4c0.9,0,1.7,0.2,2.4,0.5
			c0.7,0.4,1.3,0.8,1.7,1.3c0.4,0.5,0.7,1,0.8,1.6c0.2,0.6,0.3,1.2,0.3,1.8C100.1,30.2,100.1,30.9,100.1,31.6z"/>
	</g>
	<g>
		<path class="st0" d="M44.3,6.1l-1.8-3.9h2l2.6,2.4l11.5-0.4c0.8,0,1.6,0.1,2.3,0.3c0.3,0.1,0.5,0.2,0.7,0.3
			c0.7,0.4,3.1,2.6-2.2,2.6h-3.5l-5.7,6.4H48l4.2-6.4l-6.4-0.4L44.3,6.1z"/>
	</g>
	<g>
		<polygon class="st0" points="51,3.7 48.8,0 50.6,0 54.1,3.7 		"/>
	</g>
	<g>
		<g>
			<path class="st0" d="M56.9,6.5c-0.5,0.7-0.5,1.7-0.2,2.5c0.1,0.3,0.2,0.7,0.4,1c0.1,0.2,0.1,0.4,0.2,0.5c0,0.1,0,0.2,0.1,0.3
				c0,0.1,0,0.1,0,0c0,0.1,0,0.1,0,0.2c0,0.1-0.1,0.3,0,0.1c0,0,0,0.1,0,0.2c0.1-0.2,0,0-0.1,0.1c0.1-0.1-0.1,0-0.1,0
				c-0.5,0.3-1.1,0.5-1.6,0.7c-0.6,0.3-1.2,0.5-1.8,0.8c-0.5,0.2-1.1,0.5-1.7,0.6c-0.2,0-0.4,0-0.5,0c-0.2,0-0.3-0.1-0.4-0.1
				c-0.4-0.2-0.7-0.5-1.1-0.8c-0.7-0.7-1.4-1.3-2.3-1.7c-2.1-0.9-4.5-0.3-6.2,1.1c-2,1.6-2.9,4.1-3.6,6.4c-0.2,0.6,0.3,1.3,1,1.3
				c2.2-0.1,4.4-0.7,6.4-1.5c-0.5-0.1-0.9-0.2-1.4-0.4c0.7,1.1,0.1,2.6-0.7,3.5c-0.5,0.5-1.1,1-1.6,1.5c-0.3,0.2-0.6,0.5-1,0.7
				c-0.2,0.1-0.3,0.1-0.5,0c-0.6-0.3-1-0.9-1.6-1.2c-0.7-0.4-1.6-0.5-2.3-0.1c-0.4,0.2-0.8,0.6-0.8,1.1c0,0,0.1,0.3,0.1,0.4
				c0,0,0-0.1,0-0.1c0,0-0.1,0.1-0.1,0.1c-0.4,0.3-1.4,0.1-2,0.2c-2.8,0.3-4.6,2.6-6.7,4c-0.5,0.3-1,0.6-1.6,0.8
				c-0.6,0.2-1.2,0.3-1.8,0.4c-1.3,0.2-2.7,0.7-3.3,1.9c-0.7,1.6,0.1,3.2,1.5,4c1.6,0.9,3.3,0.5,4.9-0.1c1.3-0.6,2.7-1.5,4.3-1.4
				c1.5,0.1,2,1.7,2.9,2.6c1.1,1.1,3.2,1.7,4.3,0.2c0.7-1,0.2-2.2-0.3-3.2c0,0-0.1-0.2,0,0c0,0,0-0.1-0.1-0.1c0-0.1-0.1-0.2-0.1-0.3
				c0-0.1,0-0.2-0.1-0.3c0-0.1,0-0.2,0,0.1c0-0.1,0-0.2,0,0.1c0-0.1,0,0-0.1,0.1c-0.1,0.1-0.1,0.1-0.2,0.2c-0.2,0.1-0.5,0-0.7,0
				c0,0-0.2-0.1-0.1,0c0,0-0.1-0.2,0,0c0,0.1,0.1,0.1,0.1,0.2c0.1,0.1,0.1,0.2,0.2,0.4c0.3,0.6,0.7,1.2,1,1.8c0.4,0.7,0.7,1.4,1.2,2
				c0.9,1.2,2.3,2.5,4,1.9c0.6-0.2,1.1-0.6,1.7-1c0.1,0,0.1-0.1,0.2-0.1c0,0,0.2-0.1,0.1-0.1c-0.1,0,0.1,0,0.1,0
				c0.1-0.1-0.1,0.1,0,0c0,0,0.1,0,0.1,0c0.1,0-0.3-0.1,0,0c0.1,0,0.2,0.1,0.4,0.1c0.6,0.2,1,0.4,1.5,0.7c0.6,0.3,1.3,0.6,1.9,0.9
				c0.6,0.3,1.3,0.5,1.9,0.9c0.5,0.3,0.9,0.6,1,1.1c0,0,0,0.1,0,0.3c0,0.2,0,0.1,0,0.3c-0.1,0.3-0.1,0.4-0.3,0.7
				c-0.3,0.4-0.7,0.8-1.2,1c-1.5,0.6-3.2,0.2-4.8-0.1c-0.9-0.2-1.9-0.3-2.8-0.4c-0.9,0-1.8,0.1-2.6,0.4c-0.8,0.2-1.5,0.5-2.3,0.6
				c-0.2,0-0.3,0-0.5,0c-0.2,0-0.2,0-0.3,0c-0.3-0.1-0.5-0.1-0.7-0.3c-0.2-0.1-0.1-0.1-0.2-0.2c0,0-0.3-0.3-0.2-0.2
				c0,0-0.2-0.3-0.1-0.2c-0.1-0.2-0.1-0.1-0.1-0.3c0-0.3,0.2-0.6,0.2-1c0.1-0.5,0.1-1-0.1-1.4c-0.3-0.7-0.9-1.1-1.5-1.5
				c-0.3-0.2-0.6-0.4-0.8-0.6c-0.3-0.3-0.6-0.6-1-0.9c-0.8-0.5-1.7-0.5-2.6-0.3c-0.9,0.2-1.7,0.3-2.6,0.4c-1.7,0.1-3.5-0.1-5.2,0.4
				c-1.7,0.5-3,1.5-4.3,2.7c-1.2,1.1-2.2,2.3-3.1,3.5c-1.8,2.5-3.1,5.3-3.7,8.3c-0.6,3.2-0.6,6.8,1.5,9.4c1.9,2.5,5.1,3.8,7.8,5.2
				c1.7,0.9,3.3,1.8,5,2.6c0.8,0.4,1.6,0.8,2.3,1.3c0.7,0.4,1.1,1,1.6,1.6c1.8,2.8,3,6.1,3.7,9.4c0.4,1.6,0.4,3.3,0.7,4.9
				c0.3,1.6,1.1,3,2.5,3.9c1.4,0.8,3,1.5,4.5,2c1.5,0.6,3.1,1,4.7,1.1c1.6,0.1,3.2-0.1,4.6-0.8c1.4-0.7,2.5-1.9,3.4-3.2
				c0.9-1.3,1.5-2.7,2.1-4c0.4-0.8,0.7-1.6,0.9-2.4c0.2-0.9,0.3-1.8,0.4-2.7c0.2-1.4,0.8-2.6,1.7-3.6c1-1.1,2.1-2,3.1-3
				c2-1.9,3.9-5,2.9-7.9c-0.5-1.5-1.8-2.5-3.2-3.1c-0.6-0.3-1.3-0.5-1.9-0.7c-0.3-0.1-0.5-0.2-0.8-0.4c-0.1-0.1-0.2-0.1-0.3-0.2
				c0,0-0.1-0.1-0.1-0.1c0.2,0.1,0,0-0.1-0.1c-1.5-1.3-2.6-3.3-3.2-5.1c-0.2-0.5-0.3-1-0.5-1.5c-0.1-0.2-0.1-0.4-0.1-0.6
				c0-0.1,0-0.2-0.1-0.3c0,0,0-0.1,0-0.1c0,0.1,0,0.1,0,0c0-0.2,0-0.4,0-0.6c0-0.1,0-0.2,0-0.2c0-0.1,0-0.3,0-0.1c0,0.2,0,0,0-0.1
				c0,0,0.1-0.1,0.1-0.2c0,0-0.1,0.2,0,0.1c0.1-0.1-0.2,0.2,0,0c0.1-0.1-0.2,0.2-0.1,0.1c-0.2,0.1-0.5,0.1-0.6,0.1
				c0.1,0-0.2-0.2-0.1,0c0.1,0,0.1,0.1,0.2,0.1c-0.2-0.1-0.1-0.1,0,0c0.1,0.1,0.1,0.1,0.2,0.2c0.2,0.2,0.3,0.3,0.5,0.5
				c0.8,0.8,1.5,1.7,2.2,2.6c0.8,1,1.5,1.9,2.3,2.9c1,1.1,2.1,2.5,3.7,2.4c0.9,0,1.7-0.4,2.5-0.8c0.7-0.3,1.3-0.7,1.9-1
				c1.2-0.8,2.4-1.7,3.4-2.8c1-1.1,1.8-2.3,2.3-3.7c0.4-1.1,0.6-2.4,0.2-3.5c-0.4-1.3-1.9-1.1-2.9-0.8c-0.5,0.2-1,0.4-1.5,0.5
				c-0.2,0.1-0.4,0.1-0.6,0.2c0,0-0.1,0-0.1,0c0,0,0.2-0.1,0.1,0c0,0-0.1,0-0.1,0c-0.1,0,0.1,0.1,0.1,0c0,0-0.2-0.1-0.3-0.1
				c-0.1,0,0.2,0.1,0,0c0,0-0.1,0-0.1-0.1c-0.1,0-0.2-0.1-0.3-0.2c0,0-0.1-0.1-0.1-0.1c-0.1-0.1,0.1,0.1,0,0
				c-0.2-0.2-0.4-0.3-0.6-0.5c-0.1-0.1-0.2-0.2-0.3-0.3c0,0-0.3-0.3-0.2-0.2c-0.3-0.4-0.6-0.9-0.9-1.4c-0.1-0.1-0.1-0.2-0.2-0.3
				c0.1,0.2,0-0.1-0.1-0.2c-0.1-0.2-0.1-0.4-0.2-0.7c0.1,0.4,0-0.5,0-0.1c0-0.1,0.1-0.3,0,0c0.1-0.2-0.1,0.1,0,0c0,0-0.2,0.1,0,0.1
				c0,0-0.2,0.1,0,0c0.1,0,0.1,0,0.2,0c0,0,0.2,0,0,0c-0.2,0,0,0,0.1,0c0.4,0,0.8,0,1.2,0c0.2,0,0.5,0,0.7,0.1c0.1,0,0.2,0,0.4,0
				c0.1,0,0.1,0,0.2,0c0.3,0-0.2,0,0.1,0c2.3,0.3,4.7,0.8,7,1c0.5,0,1,0,1.5,0c0.7,0,1.3,0.1,1.7,0.7c0.5,0.6,0.9,1.3,1.3,2
				c0.5,0.8,0.9,1.6,1.3,2.4c0.4,0.8,0.8,1.6,1.1,2.4c0.3,0.7,0.6,1.3,1,1.9c0.8,1.2,2.2,2.3,3.7,1.7c1.6-0.6,2.3-2.4,2.6-4
				c0.3-1.6,0.3-3.3,0.3-4.9c0-0.7,0-1.4,0.1-2.1c0,0,0.1-0.5,0.1-0.5c0,0-0.2,0.1-0.2,0.1c0,0,0.5,0.3,0.6,0.4
				c1.3,1,2.5,2.2,3.6,3.5c0.3,0.4,1,0.4,1.4,0c0.4-0.4,0.3-1,0-1.4c-1-1.3-2.2-2.4-3.5-3.5c-0.7-0.5-1.4-1.1-2.3-1
				c-0.9,0.1-1.4,0.9-1.6,1.7c-0.3,1.6-0.2,3.1-0.3,4.7c0,1.4-0.1,2.8-0.8,4.1c-0.1,0.3-0.3,0.6-0.5,0.8c0,0-0.2,0.1-0.2,0.1
				c0.1,0-0.1,0-0.1,0c-0.1,0,0.1,0-0.1,0c-0.2,0-0.1,0,0,0c-0.1,0-0.1,0-0.2-0.1c0.1,0-0.2-0.1-0.2-0.1c-0.1-0.1-0.1-0.1-0.2-0.2
				c-0.1-0.1-0.2-0.2-0.3-0.3c-0.9-1.1-1.4-2.6-2-3.9c-0.8-1.5-1.6-3-2.5-4.5c-0.4-0.7-0.9-1.3-1.6-1.7c-0.7-0.4-1.6-0.5-2.4-0.4
				c-2.2,0-4-0.4-6.2-0.7c-1.1-0.2-2.2-0.4-3.3-0.5c-0.7-0.1-1.6-0.1-2.3,0.1c-2.2,0.8-0.9,3.7,0,5c0.6,0.9,1.3,1.8,2.3,2.4
				c0.9,0.6,1.8,0.6,2.8,0.3c0.5-0.1,1-0.3,1.4-0.5c0.2-0.1,0.5-0.1,0.7-0.2c0.1,0,0.2,0,0.3-0.1c0.1,0-0.2,0,0,0c0,0,0.1,0,0.2,0
				c0.1,0,0,0-0.1,0c0,0,0.1,0,0.1,0C71,51,71,51,70.9,50.9c0,0-0.2-0.2-0.1-0.1c0,0-0.1-0.2,0-0.1c0,0,0,0.1,0,0c0-0.1,0,0.1,0,0.1
				c0,0.1,0,0.2,0,0.3c0,0.3,0,0.6,0,0.8c0,0.1-0.1,0.4,0,0.1c0,0.1-0.1,0.3-0.1,0.4C70,55,68,57,65.8,58.3c-0.6,0.4-1.2,0.7-1.8,1
				c-0.6,0.3-1.3,0.7-1.9,0.7c-0.6,0-1.1-0.6-1.4-1c-0.4-0.4-0.7-0.8-1-1.2c-1.5-1.8-2.8-3.6-4.4-5.3c-0.5-0.5-1.1-1.1-1.8-1.1
				c-0.8,0-1.3,0.8-1.5,1.6c-0.3,1.8,0.4,3.8,1.1,5.4c0.8,2,2,4,3.7,5.3c1,0.8,2.2,1.1,3.4,1.6c1.1,0.5,2,1.1,2.2,2.3
				c0.1,0.4,0,1.1-0.1,1.6c-0.2,0.6-0.4,1.2-0.8,1.8c-0.7,1.1-1.7,2-2.6,2.9c-1,1-2.1,1.9-2.9,3c-1,1.3-1.4,2.7-1.6,4.3
				c-0.1,0.8-0.2,1.6-0.4,2.3c-0.2,0.8-0.6,1.5-0.9,2.2c-0.6,1.3-1.2,2.6-2.1,3.7c-0.7,1-1.8,1.9-3,2.3c-1.3,0.4-2.7,0.4-4,0.2
				c-1.5-0.3-2.9-0.8-4.2-1.4c-0.7-0.3-1.4-0.6-2.1-1c-0.6-0.3-1.3-0.6-1.7-1.2c-0.9-1-0.8-2.5-1-3.8c-0.2-1.7-0.5-3.3-1-4.9
				c-0.5-1.6-1-3.2-1.7-4.8c-0.7-1.5-1.4-3.1-2.5-4.4c-1.1-1.3-2.7-2-4.1-2.7c-1.6-0.8-3.2-1.7-4.8-2.5c-1.4-0.7-2.9-1.5-4.2-2.3
				c-1.1-0.7-2.2-1.4-3-2.5c-0.9-1.2-1.2-2.6-1.3-4.1c-0.1-1.4,0.1-2.8,0.4-4.2c0.6-2.8,1.9-5.4,3.7-7.6c0.9-1.1,1.9-2.2,3-3.2
				c1.2-1,2.4-1.7,4-1.9c1.6-0.2,3.2,0,4.9-0.2c0.5,0,0.9-0.1,1.4-0.2c0.3-0.1,0.7-0.2,1.1-0.2c0.3,0,0.4,0.2,0.6,0.4
				c0.3,0.3,0.6,0.6,1,0.9c0.3,0.2,0.6,0.4,0.8,0.6c0.1,0.1,0.3,0.2,0.4,0.2c-0.1-0.1,0,0,0,0c0.2,0.2,0,0,0.1,0.1
				c0.1,0.1,0-0.1,0,0.1c0,0.1,0-0.1,0,0.1c0,0.2,0,0.3-0.1,0.4c-0.1,0.4-0.2,0.8-0.2,1.2c0,1.5,1.2,2.5,2.6,2.9
				c1.5,0.5,3.1-0.1,4.5-0.5c0.8-0.2,1.6-0.3,2.4-0.3c0.8,0.1,1.6,0.2,2.4,0.4c1.6,0.3,3.4,0.6,5,0.1c1.4-0.4,2.6-1.5,3.1-2.9
				c0.5-1.3,0.1-2.9-1-3.8c-0.6-0.5-1.3-0.8-2-1.1c-0.2-0.1-0.5-0.2-0.7-0.3c-0.3-0.2-0.6-0.3-1-0.5c-1.1-0.5-2.2-1.2-3.3-1.4
				c-0.7-0.1-1.2,0-1.8,0.4c-0.2,0.1-0.5,0.3-0.7,0.4c-0.2,0.1-0.5,0.3-0.7,0.4c-0.1,0-0.1,0-0.2,0.1c0.1,0,0.1,0,0,0
				c0.2,0-0.1,0-0.1,0c-0.2-0.1-0.5-0.3-0.7-0.5c-0.5-0.4-0.8-1-1.2-1.5c-0.4-0.7-0.8-1.4-1.2-2.1c-0.3-0.4-0.4-0.9-0.6-1.3
				c-0.4-0.6-1.2-1-1.9-0.6c-0.5,0.3-0.8,0.8-0.8,1.4c0,0.5,0.3,1,0.5,1.5c0,0.1,0,0.1,0.1,0.2c0.1,0.1-0.1-0.1,0,0
				c0,0.1,0.1,0.2,0.1,0.3c0.1,0.2,0.1,0.4,0.2,0.7c0-0.2,0,0,0,0.1c0,0.1,0,0,0,0c0,0,0-0.1,0-0.1c0,0,0-0.1,0,0
				c-0.1,0.1,0.1-0.2,0,0c0,0.1,0,0,0.1,0c0,0-0.1,0.1-0.1,0.1c-0.2,0.1-0.3,0-0.5-0.1c-0.3-0.1-0.5-0.3-0.7-0.6
				c-0.5-0.5-0.8-1.1-1.3-1.7c-0.5-0.6-1.2-1-2-1.2c-1.6-0.4-3.2,0.2-4.7,0.8c-1.2,0.6-2.8,1.5-4.1,1c-0.4-0.2-0.9-0.5-1.1-1
				c0-0.1-0.1-0.3-0.1-0.4c0-0.2,0.1-0.3,0.3-0.5c0,0,0.1-0.1,0,0c0.1,0,0.1-0.1,0.2-0.1c0.1-0.1,0.2-0.1,0.3-0.2c0,0,0.1,0,0.3-0.1
				c0.2,0,0.3-0.1,0.5-0.1c0.6-0.1,1.2-0.2,1.8-0.3c2.5-0.5,4.3-2.6,6.3-3.9c1-0.7,1.9-1,3-1c0.8,0,1.7-0.1,2.4-0.7
				c0.6-0.5,1-1.4,0.7-2.2c-0.1,0.3-0.2,0.6-0.3,1c0.1-0.1,0.1-0.1,0-0.1c0.1-0.1,0.1-0.1,0,0c-0.2,0,0.3,0,0.1,0
				c0.3,0,0.4,0.1,0.6,0.3c0.1,0.1,0.4,0.3,0.6,0.5c0.3,0.2,0.5,0.4,0.8,0.6c0.8,0.4,1.6,0.4,2.4,0.1c0.6-0.3,1.2-0.8,1.7-1.2
				c1.1-0.9,2.1-1.9,2.7-3.2c0.5-1.3,0.5-2.8-0.2-4c-0.3-0.5-0.9-0.6-1.4-0.4c-1.7,0.7-3.6,1.1-5.4,1.3c0.3,0.4,0.6,0.8,1,1.3
				c0.5-2,1.3-4,2.9-5.4c0.7-0.6,1.6-1,2.4-1.1c0.9-0.1,1.7,0,2.4,0.5c0.7,0.5,1.4,1.3,2.1,1.8c0.9,0.6,1.9,0.9,3,0.6
				c0.6-0.1,1.1-0.4,1.7-0.7c0.7-0.3,1.3-0.6,2-0.8c1-0.4,2.2-0.7,2.7-1.8c0.4-0.9,0.2-1.9-0.1-2.8c-0.1-0.4-0.3-0.8-0.4-1.2
				c0,0,0-0.3,0-0.1c0-0.1,0-0.2,0-0.3c0,0.2,0,0,0-0.1c-0.1,0.2,0.1-0.1,0.1-0.1c0.3-0.4,0.1-1.1-0.4-1.4
				C57.7,5.9,57.2,6.1,56.9,6.5L56.9,6.5z"/>
		</g>
	</g>
	<g>
		<g>
			<path class="st0" d="M62.1,80.6c-1.7,0.7-2.9,2.1-3.4,3.9c-0.5,1.7-0.6,4.2,1.3,5c0.9,0.4,1.9,0.3,2.7-0.2c0.8-0.5,1.4-1.2,2-1.8
				c0.6-0.7,1.2-1.4,1.6-2.2c0.2-0.4,0.4-0.9,0.5-1.4c0.1-0.5,0.2-1,0.2-1.4c0-1.4-1.4-2-2.6-2.1c-0.5-0.1-1,0-1.5,0
				C62.7,80.4,62.4,80.5,62.1,80.6c-0.5,0.2-0.9,0.7-0.7,1.2c0.1,0.5,0.7,0.9,1.2,0.7c0.1,0,0.1-0.1,0.2-0.1c0,0,0.1,0,0.1,0
				c0.1,0,0.1-0.1-0.1,0c0.1-0.1,0.4,0,0.5,0c0.2,0,0.4,0,0.6,0c0.2,0,0.4,0,0.6,0c0,0-0.2,0,0,0c0.1,0,0.2,0,0.3,0.1
				c0.1,0,0.2,0.1,0.2,0.1c0.2,0-0.2-0.1,0,0c0,0,0,0,0.1,0c0.1,0.1,0.1,0.1,0,0c0.1,0.1,0.1,0.1,0,0c0,0,0,0,0,0.1
				c0-0.1,0-0.2-0.1,0c0,0.3,0-0.2,0,0.1c0,0.2,0,0.3-0.1,0.5c-0.1,0.3-0.1,0.7-0.3,1c-0.1,0.3,0.1-0.1-0.1,0.1
				c0,0.1-0.1,0.2-0.1,0.3c-0.1,0.1-0.2,0.3-0.3,0.4c0,0.1-0.1,0.1-0.1,0.2c0,0-0.1,0.2-0.1,0.1c-0.1,0.2-0.2,0.3-0.4,0.5
				c-0.5,0.5-1,1.1-1.5,1.5c-0.1,0.1-0.1,0.1-0.2,0.2c-0.2,0.2,0.2-0.1-0.1,0.1c-0.1,0.1-0.3,0.2-0.4,0.2c-0.2,0.1,0.1,0,0,0
				c-0.1,0-0.1,0-0.2,0.1c-0.3,0.1,0.2,0-0.1,0c0,0-0.2,0-0.2,0c0,0,0.1,0,0.1,0c0,0-0.1,0-0.1,0c-0.1,0-0.3-0.1,0,0
				c-0.1,0-0.4-0.2-0.2-0.1c0,0-0.1-0.1-0.1-0.1c0,0-0.1-0.2,0,0c0-0.1-0.1-0.1-0.1-0.2c0.1,0.2,0,0,0-0.1c0,0-0.1-0.3,0-0.1
				c0-0.1,0-0.2,0-0.2c0-0.2,0-0.4,0-0.5c0-0.2,0-0.3,0-0.5c0-0.3,0,0.2,0-0.1c0-0.1,0-0.2,0.1-0.3c0-0.2,0.1-0.4,0.1-0.6
				c0-0.1,0.1-0.2,0.1-0.3c0,0,0.2-0.4,0.1-0.2c0.1-0.3,0.3-0.6,0.5-0.9c-0.1,0.2,0,0,0,0c0.1-0.1,0.1-0.1,0.2-0.2
				c0.1-0.1,0.2-0.2,0.4-0.3c0.2-0.2-0.2,0.1,0.1,0c0.1,0,0.1-0.1,0.2-0.1c0.1,0,0.1-0.1,0.2-0.1c0,0,0.1-0.1,0.2-0.1
				c-0.1,0-0.1,0,0,0c0.5-0.2,0.9-0.7,0.7-1.2C63.2,80.8,62.6,80.4,62.1,80.6z"/>
		</g>
	</g>
</g>
</svg>
