<?xml version="1.0" encoding="utf-8"?>
<!-- Generator: Adobe Illustrator 24.0.3, SVG Export Plug-In . SVG Version: 6.00 Build 0)  -->
<svg version="1.1" id="Layer_1" xmlns="http://www.w3.org/2000/svg" xmlns:xlink="http://www.w3.org/1999/xlink" x="0px" y="0px"
	 viewBox="0 0 101.2 100" style="enable-background:new 0 0 101.2 100;" xml:space="preserve">
<style type="text/css">
	.st0{fill:#02B4CD;}
	.st1{fill:none;stroke:#02B4CD;stroke-width:9;stroke-miterlimit:10;}
	.st2{fill:none;stroke:#02B4CD;stroke-width:9;stroke-linecap:round;stroke-miterlimit:10;}
	.st3{opacity:0.4;}
	.st4{fill:#D70C41;}
	.st5{fill:#23A4C1;}
</style>
<g class="st3">
	<g>
		<g>
			<g>
				<path class="st0" d="M84.7,25.9c0.5-0.6,1.1-1.1,1.7-1.6c0.1-0.1,0.3-0.2,0.4-0.4c0.2-0.2-0.2,0.1,0.1-0.1
					c0.1-0.1,0.1-0.1,0.2-0.2c0.3-0.2,0.6-0.4,0.9-0.6c0.2-0.1,0.3-0.2,0.5-0.3c0.1,0,0.2-0.1,0.2-0.1c0.3-0.1-0.2,0.1,0.1,0
					c0.2-0.1,0.3-0.1,0.5-0.2c0.1,0,0.2,0,0.2-0.1c0.1,0,0.1,0,0,0c0.1,0,0.1,0,0.2,0c0.1,0,0.2,0,0.2,0c0.2,0-0.2-0.1,0.1,0
					c0,0,0.3,0.1,0.1,0c0,0,0.1,0.1,0.1,0.1c0.2,0.1-0.1-0.1,0.1,0c0,0,0.2,0.2,0.1,0c0,0.1,0.1,0.1,0.1,0.2c0,0,0,0.1,0.1,0.1
					c0-0.1-0.1-0.1,0,0c0,0.2,0.1,0.3,0.1,0.5c0,0.1,0,0.2,0,0.2c0,0.3,0-0.2,0,0.1c0,0.4,0.1,0.8,0.1,1.2c0,0.3,0,0.7-0.1,1
					c0,0,0,0.3,0,0.1c0,0.1,0,0.2,0,0.3c0,0.2-0.1,0.4-0.1,0.6c-0.1,0.4-0.2,0.7-0.3,1.1c-0.1,0.2-0.1,0.4-0.2,0.5c0.1-0.2,0,0,0,0
					c-0.1,0.1-0.1,0.2-0.2,0.3c-0.3,0.7-0.7,1.3-1.2,1.9c-0.1,0.1-0.1,0.1-0.2,0.2c-0.1,0.1-0.1,0.1,0,0c0,0-0.1,0.1-0.1,0.1
					c-0.1,0.1-0.2,0.3-0.3,0.4c-0.3,0.3-0.6,0.7-0.9,1c-0.3,0.3-0.6,0.6-1,0.9c-0.1,0.1-0.1,0.1-0.2,0.2c-0.1,0.1-0.1,0.1,0,0
					c0,0-0.1,0.1-0.1,0.1c-0.2,0.1-0.3,0.2-0.5,0.4c-0.4,0.3-0.7,0.9-0.4,1.4c0.3,0.4,0.9,0.7,1.4,0.4c1.5-1,2.7-2.3,3.8-3.7
					c1-1.4,1.9-2.8,2.3-4.5c0.2-0.9,0.3-1.8,0.4-2.7c0-0.8,0-1.8-0.3-2.6c-0.3-0.9-0.9-1.7-1.9-2c-0.9-0.2-1.9,0-2.7,0.4
					c-1.8,0.8-3.2,2.1-4.6,3.5c-0.4,0.4-0.4,1,0,1.4C83.7,26.3,84.3,26.3,84.7,25.9L84.7,25.9z"/>
			</g>
		</g>
		<g>
			<path class="st0" d="M60.2,76.8c-0.6,0-1.2-0.2-1.7-0.6c-0.7-0.5-1.1-1.2-1.2-2L47,16.1c-0.1-0.8,0-1.6,0.5-2.3
				c0.5-0.7,1.2-1.1,2-1.2l29.3-5.1c1.6-0.3,3.2,0.8,3.5,2.5l4.4,25.3l-2,0.3l-4.4-25.3c-0.1-0.6-0.6-1-1.2-0.9l-29.3,5.1
				c-0.3,0-0.5,0.2-0.7,0.4c-0.2,0.2-0.2,0.5-0.2,0.8L59.2,74c0,0.3,0.2,0.5,0.4,0.7c0.2,0.2,0.5,0.2,0.8,0.2l29.3-5.1
				c0.6-0.1,1-0.6,0.9-1.2l-0.4-2.4l2-0.3l0.4,2.4c0.3,1.6-0.8,3.2-2.5,3.5l-29.3,5.1C60.6,76.8,60.4,76.8,60.2,76.8z"/>
		</g>
		<g>
			<rect x="88.7" y="56.2" transform="matrix(0.985 -0.1727 0.1727 0.985 -8.6313 16.3538)" class="st0" width="2" height="3.1"/>
		</g>
		<g>
			<rect x="86.6" y="44.5" transform="matrix(0.985 -0.1727 0.1727 0.985 -6.6276 15.8204)" class="st0" width="2" height="2.9"/>
		</g>
		<g>
			<path class="st0" d="M62.5,71.7c-0.6,0-1.2-0.2-1.7-0.6c-0.7-0.5-1.1-1.2-1.2-2L50.7,19c-0.3-1.6,0.8-3.2,2.5-3.5l23.1-4
				c0.8-0.1,1.6,0,2.3,0.5c0.7,0.5,1.1,1.2,1.2,2l4.1,23.3l-2,0.3l-4.1-23.3c0-0.3-0.2-0.5-0.4-0.7c-0.2-0.2-0.5-0.2-0.8-0.2
				l-23.1,4c-0.6,0.1-1,0.6-0.9,1.2l8.8,50.2c0,0.3,0.2,0.5,0.4,0.7c0.2,0.2,0.5,0.2,0.8,0.2l23.1-4c0.4-0.1,0.7-0.4,0.8-0.8
				l1.9,0.4c-0.3,1.2-1.2,2.1-2.4,2.3l-23.1,4C62.9,71.7,62.7,71.7,62.5,71.7z"/>
		</g>
		<g>
			<rect x="85.7" y="56.8" transform="matrix(0.985 -0.1727 0.1727 0.985 -8.9129 15.8639)" class="st0" width="2" height="4.7"/>
		</g>
		<g>
			<rect x="83.7" y="45.1" transform="matrix(0.985 -0.1727 0.1727 0.985 -6.9617 15.3446)" class="st0" width="2" height="5.1"/>
		</g>
		<g>
			<g>
				<path class="st0" d="M83.6,35.4c-2.3,1.6-4.1,4.3-3.6,7.2c0.2,1.5,1.2,2.6,2.6,3.2c1.2,0.5,2.6,0.4,3.8,0.2
					c2.7-0.6,4.8-2.6,5.8-5.2c0.5-1.4,0.6-2.8,0.4-4.3c-0.1-0.7-0.3-1.4-0.7-2c-0.4-0.6-1-1.1-1.8-1.3
					C87.8,32.4,85.5,34.1,83.6,35.4c-0.4,0.3-0.7,0.9-0.4,1.4c0.3,0.4,0.9,0.7,1.4,0.4c0.4-0.3,0.8-0.6,1.3-0.9
					c0.4-0.3,0.9-0.6,1.4-0.8c0.1,0,0.1-0.1,0.2-0.1c0,0,0.2-0.1,0,0c0.2-0.1,0.3-0.1,0.5-0.2c0.1,0,0.3-0.1,0.4-0.1
					c0.1,0,0.3,0,0,0c0.1,0,0.2,0,0.2,0c0.1,0,0.2,0,0.4,0c0.1,0,0.1,0,0.2,0c-0.2,0-0.1,0,0,0c0.1,0,0.3,0.1,0.4,0.1
					c0,0,0.1,0,0.1,0.1c-0.2-0.1,0,0,0,0c0.1,0,0.1,0.1,0.2,0.1c0.1,0,0.2,0.1,0,0c0.1,0.1,0.2,0.2,0.2,0.2c0.1,0.1-0.1-0.2,0,0
					c0,0.1,0.1,0.1,0.1,0.2c0.1,0.2,0-0.1,0,0.1c0,0.1,0.1,0.2,0.1,0.3c0.1,0.3,0.1,0.5,0.2,0.8c0,0.2,0,0,0,0c0,0.1,0,0.2,0,0.3
					c0,0.1,0,0.3,0,0.4c0,0.3,0,0.5,0,0.8c0,0.1,0,0.2,0,0.3c0,0,0-0.2,0,0c0,0.2-0.1,0.3-0.1,0.5c-0.1,0.3-0.1,0.6-0.2,0.8
					c0,0.1,0,0.1-0.1,0.2c0,0-0.1,0.3-0.1,0.1c0.1-0.1-0.1,0.1-0.1,0.1c0,0.1-0.1,0.2-0.1,0.2c-0.1,0.2-0.3,0.5-0.4,0.7
					c-0.1,0.1-0.2,0.2-0.2,0.3c0,0,0.1-0.1,0,0c-0.1,0.1-0.1,0.1-0.2,0.2c-0.2,0.2-0.4,0.4-0.6,0.6c-0.1,0.1-0.2,0.2-0.3,0.2
					c0,0-0.2,0.2-0.1,0.1c0.1-0.1-0.1,0.1-0.2,0.1c-0.2,0.1-0.4,0.3-0.6,0.4c-0.1,0.1-0.2,0.1-0.3,0.2c-0.1,0-0.1,0.1-0.2,0.1
					c0,0-0.3,0.1-0.1,0c-0.5,0.2-1,0.4-1.6,0.4c-0.1,0-0.3,0,0,0c-0.1,0-0.1,0-0.2,0c-0.1,0-0.3,0-0.4,0c-0.1,0-0.2,0-0.3,0
					c-0.1,0-0.2,0-0.2,0c-0.1,0-0.3,0-0.1,0c-0.2,0-0.5-0.1-0.7-0.2c-0.1,0-0.1,0-0.2-0.1c-0.1,0,0.2,0.1,0,0
					c-0.1-0.1-0.2-0.1-0.3-0.2c-0.1,0-0.1-0.1-0.2-0.1c-0.1-0.1,0.2,0.2,0,0c-0.1-0.1-0.2-0.2-0.3-0.2c0,0-0.1-0.2,0,0
					c0,0-0.1-0.1-0.1-0.1c-0.1-0.1-0.2-0.3-0.2-0.4c-0.1-0.1,0.1,0.2,0,0c0-0.1-0.1-0.2-0.1-0.2c0-0.1,0-0.1,0-0.2
					c0,0-0.1-0.3,0-0.2c0,0.2,0-0.1,0-0.1c0-0.1,0-0.2,0-0.3c0-0.1,0-0.3,0-0.4c0,0,0-0.3,0-0.1c0-0.1,0-0.2,0-0.3
					c0-0.1,0.1-0.3,0.1-0.4c0.1-0.2,0.1-0.4,0.2-0.6c0,0,0.1-0.2,0,0c0-0.1,0.1-0.2,0.1-0.2c0.1-0.3,0.3-0.6,0.5-0.8
					c0.1-0.1,0.2-0.2,0.3-0.4c-0.1,0.2,0-0.1,0.1-0.1c0.1-0.1,0.1-0.1,0.2-0.2c0.2-0.2,0.4-0.5,0.7-0.7c0.1-0.1,0.2-0.2,0.3-0.3
					c0.2-0.2-0.1,0.1,0,0c0.1-0.1,0.2-0.1,0.2-0.2c0.4-0.3,0.7-0.9,0.4-1.4C84.7,35.3,84.1,35.1,83.6,35.4z"/>
			</g>
		</g>
		<g>
			<g>
				<path class="st0" d="M89.9,60c0.5,0,1-0.5,1-1c0-0.5-0.4-1-1-1c-0.5,0-1,0.5-1,1C88.9,59.6,89.4,60,89.9,60L89.9,60z"/>
			</g>
		</g>
		<g>
			<g>
				<path class="st0" d="M93.5,52.8c-0.3,0.2,0.1-0.1-0.1,0.1c-0.1,0.1-0.2,0.1-0.2,0.2c-0.2,0.1-0.3,0.2-0.5,0.4
					c-0.3,0.2-0.6,0.5-1,0.7c-0.7,0.4-1.4,0.8-2.1,1.1c0.2-0.1-0.1,0-0.1,0c-0.1,0-0.2,0.1-0.3,0.1c-0.1,0-0.2,0.1-0.4,0.1
					c-0.2,0.1-0.5,0.1-0.7,0.2c-0.3,0.1-0.5,0.1-0.8,0.2c0,0-0.1,0-0.1,0c0,0,0,0-0.1,0c-0.1,0-0.1,0,0.1,0c0,0-0.4,0-0.5,0
					c-0.2,0-0.5,0-0.7,0c-0.1,0-0.3,0-0.4,0c-0.2,0,0.2,0,0,0c-0.1,0-0.2,0-0.2,0c-0.1,0-0.2-0.1-0.3-0.1c0,0-0.1,0-0.1,0
					c-0.2-0.1,0.2,0.1,0,0c-0.1-0.1-0.2-0.1-0.3-0.2c-0.1-0.1-0.1-0.1,0,0c0-0.1-0.1-0.1-0.2-0.2c0,0-0.1-0.1-0.1-0.1
					c-0.1-0.1,0,0,0,0.1c0-0.1-0.1-0.2-0.2-0.3c-0.1-0.2,0,0,0,0c0,0-0.1-0.2-0.1-0.2c0-0.1-0.1-0.2-0.1-0.3c0,0.2,0-0.2,0-0.2
					c0-0.2,0-0.1,0,0c0-0.1,0-0.2,0.1-0.3c0-0.2,0.1-0.4,0.2-0.6c0-0.1,0.1-0.2,0.1-0.2c0,0,0.1-0.3,0-0.1c0.1-0.2,0.2-0.3,0.2-0.5
					c0.3-0.6,0.7-1.1,1-1.7c0.2-0.2-0.1,0.2,0-0.1c0.1-0.1,0.1-0.1,0.2-0.2c0.1-0.1,0.2-0.3,0.3-0.4c0.2-0.2,0.5-0.5,0.7-0.7
					c1-1,2-1.8,3.1-2.7c0.2-0.2,0.5-0.4,0.7-0.6c0.1-0.1,0.3-0.2,0.4-0.4c-0.2,0.1,0.1-0.1,0.1-0.1c0.1-0.1,0.2-0.1,0.3-0.2
					c0.2-0.1,0.3-0.2,0.5-0.3c0.1,0,0.1-0.1,0.2-0.1c0,0,0.2-0.1,0.1,0c0.2-0.1,0.3-0.1,0.5-0.2c0.1,0,0.2,0,0.3-0.1
					c-0.2,0,0.2,0,0.2,0c0.1,0,0.2,0,0.3,0c0.3,0-0.1,0,0.1,0c0.1,0,0.1,0,0.2,0.1c0,0,0.3,0.1,0.1,0c0.1,0,0.2,0.1,0.2,0.1
					c0,0,0.2,0.2,0.1,0c0.2,0.1,0.3,0.3,0.4,0.4c0.2,0.2-0.1-0.1,0,0c0,0.1,0.1,0.1,0.1,0.2c0.1,0.1,0.2,0.3,0.3,0.4
					c0.2,0.4,0.3,0.7,0.4,0.9c0.3,0.8,0.6,1.7,0.7,2.5c0,0.1,0,0.2,0,0.3c0,0.1,0,0.1,0,0.2c0-0.1,0-0.1,0,0c0,0.2,0,0.5,0.1,0.7
					c0,0.4,0,0.9,0,1.3c0,0.2,0,0.5,0,0.7c0,0,0,0.3,0,0.1c0,0.1,0,0.2-0.1,0.3c0,0.1,0,0.2-0.1,0.3c0,0-0.1,0.4-0.1,0.2
					c-0.1,0.2-0.2,0.3-0.3,0.5c0.1-0.2,0,0-0.1,0.1c-0.1,0.1-0.1,0.1-0.2,0.2c-0.1,0.1-0.1,0.1-0.2,0.2c0,0-0.3,0.2-0.1,0.1
					c-0.3,0.2-0.7,0.4-1,0.6c-0.5,0.2-0.6,0.9-0.4,1.4c0.3,0.5,0.9,0.6,1.4,0.4c0.7-0.4,1.4-0.8,1.9-1.4c0.7-0.8,0.9-1.6,1.1-2.6
					c0.2-1.8,0-3.7-0.5-5.4c-0.3-0.9-0.6-1.7-1-2.5c-0.4-0.8-0.9-1.5-1.7-1.9c-0.9-0.5-1.9-0.5-2.8-0.3c-0.9,0.2-1.7,0.8-2.5,1.3
					c-1.2,0.9-2.4,1.9-3.5,3c-1.1,1-2.2,2.1-3,3.4c-0.4,0.7-0.8,1.5-1,2.2c-0.3,1-0.4,1.9,0.1,2.9c0.6,1.2,1.9,1.8,3.2,1.9
					c1.2,0.1,2.4-0.1,3.5-0.5c1.6-0.5,3.1-1.3,4.4-2.3c0.4-0.3,0.8-0.6,1.1-0.9c0.4-0.3,0.4-1.1,0-1.4
					C94.4,52.4,93.9,52.4,93.5,52.8L93.5,52.8z"/>
			</g>
		</g>
		<g>
			<g>
				<path class="st0" d="M72.5,74.7c0.2,0.1,0.3,0.2,0.5,0.3c0,0,0.1,0.1,0.1,0.1c0,0-0.2-0.1-0.1,0c0.1,0.1,0.1,0.1,0.2,0.2
					c0.1,0.1,0.2,0.3,0.4,0.4c0,0-0.1-0.2,0,0c0,0,0.1,0.1,0.1,0.1c0.1,0.1,0.1,0.2,0.2,0.2c0.1,0.2,0.2,0.4,0.3,0.5
					c0,0,0.1,0.3,0.1,0.3c0,0-0.1-0.2,0,0c0,0,0,0.1,0.1,0.1c0.2,0.4,0.3,0.8,0.4,1.3c0.2,0.5,0.7,0.9,1.2,0.7
					c0.5-0.2,0.9-0.7,0.7-1.2c-0.6-1.8-1.3-3.8-3.1-4.6c-0.5-0.2-1.1-0.1-1.4,0.4C71.9,73.8,72,74.4,72.5,74.7L72.5,74.7z"/>
			</g>
		</g>
		<g>
			<g>
				<g>
					<path class="st0" d="M55.1,59.4c-0.1,0.1-0.3,0.1-0.4,0.2c-0.1,0-0.1,0.1-0.2,0.1c-0.2,0.1,0.2-0.1-0.1,0
						c-0.1,0.1-0.3,0.1-0.4,0.1c-0.1,0-0.2,0.1-0.2,0.1c-0.1,0-0.2,0,0,0c0.2,0,0.3,0.1,0.5,0.1c0.1,0.1,0.1,0.1,0.2,0.2
						c0,0.1,0,0.1,0,0.1c0-0.1,0-0.1-0.1-0.2c-0.1-0.1-0.1-0.3-0.2-0.4c-0.1-0.3-0.3-0.7-0.4-1c-0.3-0.5-0.5-1-0.8-1.6
						c-0.6-1.1-1.4-2-2.2-3c-0.3-0.4-1.1-0.4-1.4,0c-0.4,0.4-0.4,1,0,1.4c0.1,0.2,0.3,0.3,0.4,0.5c0.1,0.1,0.1,0.1,0.2,0.2
						c0,0,0.2,0.3,0.1,0.1c0.2,0.3,0.5,0.6,0.7,0.9c0.4,0.7,0.8,1.3,1.2,2.1c0.1,0.2,0.2,0.3,0.2,0.5c0,0.1,0.1,0.2,0.1,0.3
						c0,0,0.1,0.3,0,0.1c0.2,0.5,0.3,1.1,0.8,1.4c0.5,0.3,1,0.1,1.5-0.1c0.5-0.2,0.9-0.4,1.4-0.6c0.5-0.2,0.6-0.9,0.4-1.4
						C56.2,59.3,55.6,59.1,55.1,59.4L55.1,59.4z"/>
				</g>
			</g>
			<g>
				<g>
					<path class="st0" d="M50.2,55.8c0.5-0.8,1.1-1.6,1.6-2.4c0.5-0.7,1-1.4,1.4-2.2c0.5-0.8,0.7-1.7,0.8-2.6
						c0.1-0.9,0.1-1.8,0.1-2.7c-0.1-1.5-0.4-3.2-1.1-4.5c-0.4-0.6-0.9-1.3-1.5-1.6c-1-0.5-2.1-0.4-2.9,0.3c-0.6,0.5-0.9,1.3-1.2,2
						c0,0-0.1,0.3,0,0.1c0,0.1-0.1,0.2-0.1,0.3c-0.1,0.2-0.2,0.3-0.2,0.5c-0.2,0.4-0.4,0.7-0.6,1.1c-0.4,0.7-0.9,1.3-1.3,2
						c-0.1,0.1-0.1,0.2-0.2,0.2c-0.2,0.2,0.1-0.1-0.1,0.1c-0.1,0.1-0.2,0.3-0.4,0.4c-0.3,0.3-0.5,0.6-0.8,1c-0.5,0.6-1,1.2-1.6,1.8
						c-0.5,0.6-1.1,1.2-1.5,2c-0.8,1.4-1,2.9-1,4.4c0,1.5,0.3,3,0.6,4.4c0.2,0.7,0.3,1.5,0.5,2.2c0.2,0.9,0.2,1.6,0.3,2.6
						c0.2,1.9,0.3,3.8,0.7,5.6c0.4,1.8,1,3.5,1.7,5.1c0.6,1.4,1.4,2.8,2.1,4.1c0.9,1.5,1.7,3.1,2.6,4.6c0.7,1.2,1.4,2.5,2.1,3.7
						c0.4,0.7,0.8,1.5,1,2.1c0.7,1.7,0.8,3.3,0.8,5.1c0,0.9-0.1,1.7-0.1,2.6c0,0.5,0.5,1,1,1c0.6,0,1-0.4,1-1
						c0.1-1.8,0.2-3.5-0.1-5.3c-0.1-0.9-0.3-1.8-0.6-2.6c-0.3-0.8-0.7-1.7-1.1-2.5c-0.4-0.9-0.9-1.7-1.4-2.5c-1.4-2.5-2.8-5-4.2-7.6
						c-0.3-0.5-0.5-0.9-0.7-1.4c-0.4-0.8-0.6-1.4-0.9-2.2c-0.6-1.6-1.1-3.2-1.3-4.9c-0.3-1.6-0.4-3.5-0.6-5.2
						c-0.2-1.6-0.6-3.1-0.9-4.7c-0.1-0.3-0.1-0.7-0.2-1c0-0.1,0-0.2,0-0.3c0,0,0-0.3,0-0.1c0-0.2,0-0.3-0.1-0.5
						c-0.1-0.7-0.1-1.5-0.1-2.2c0-0.1,0-0.3,0-0.4c0,0,0-0.3,0-0.1c0-0.1,0-0.2,0-0.3c0.1-0.4,0.2-0.7,0.3-1.1
						c0-0.1,0.1-0.2,0.1-0.2c0,0,0.1-0.3,0-0.1c0.1-0.1,0.1-0.3,0.2-0.4c0.1-0.2,0.2-0.3,0.3-0.4c0-0.1,0.1-0.1,0.1-0.2
						c0,0,0.2-0.3,0.1-0.2c2-2.4,4.2-4.7,5.7-7.5c0.2-0.3,0.3-0.6,0.5-0.9c0.1-0.2,0.2-0.5,0.3-0.7c0-0.1,0.1-0.2,0.1-0.3
						c0,0,0.2-0.4,0.1-0.2c0.1-0.2,0.1-0.3,0.2-0.5c0-0.1,0.1-0.1,0.1-0.2c-0.1,0.2,0,0,0.1-0.1c0,0,0.1-0.1,0.1-0.1
						c-0.2,0.1,0,0,0.1,0c0.2-0.1-0.2,0.1,0.1,0c0.1,0,0.1,0,0,0c0.1,0,0.1,0,0.2,0c0.3,0-0.1-0.1,0.1,0c0.3,0.1-0.1-0.1,0.1,0
						c0.1,0,0.1,0.1,0.2,0.1c0.2,0.1-0.1-0.1,0,0c0.1,0.1,0.2,0.2,0.3,0.3c0,0,0.1,0.1,0,0c0.1,0.1,0.1,0.2,0.2,0.3
						c0.1,0.1,0.2,0.3,0.2,0.4c0,0.1,0.1,0.1,0.1,0.2c0.1,0.2-0.1-0.2,0,0.1c0.1,0.3,0.2,0.6,0.3,0.9c0.2,0.8,0.3,1.3,0.3,2.1
						c0,0.9,0,1.8-0.1,2.6c0,0,0,0.4,0,0.1c0,0.1,0,0.2-0.1,0.3c0,0.2-0.1,0.3-0.1,0.5c0,0.1-0.1,0.1-0.1,0.2c0.1-0.2,0,0.1-0.1,0.1
						c-0.1,0.2-0.2,0.4-0.3,0.6c-0.4,0.7-0.9,1.4-1.4,2.1c-0.5,0.8-1.1,1.5-1.6,2.3c-0.3,0.4-0.1,1.1,0.4,1.4
						C49.3,56.4,49.9,56.2,50.2,55.8L50.2,55.8z"/>
				</g>
			</g>
		</g>
		<g>
			<g>
				<path class="st0" d="M52.6,7.3c1,0.5,2,1,2.9,1.6c0.4,0.3,1.1,0.1,1.4-0.4c0.3-0.5,0.1-1-0.4-1.4c-0.9-0.6-1.9-1.1-2.9-1.6
					c-0.2-0.1-0.5-0.2-0.8-0.1c-0.2,0.1-0.5,0.2-0.6,0.5c-0.1,0.2-0.2,0.5-0.1,0.8C52.2,6.9,52.3,7.2,52.6,7.3L52.6,7.3z"/>
			</g>
		</g>
		<g>
			<g>
				<path class="st0" d="M59.4,1.5c0.4,0.5,0.7,1.1,0.9,1.7c0-0.1-0.1-0.2-0.1-0.2c0.1,0.3,0.3,0.6,0.4,1c0.1,0.2,0.2,0.5,0.5,0.6
					c0.2,0.1,0.5,0.2,0.8,0.1c0.5-0.2,0.9-0.7,0.7-1.2c-0.3-1-0.8-2-1.4-2.9C61,0.3,60.8,0.1,60.6,0C60.3,0,60,0,59.8,0.1
					C59.4,0.4,59.1,1,59.4,1.5L59.4,1.5z"/>
			</g>
		</g>
		<g>
			<g>
				<path class="st0" d="M68.8,3c0,0.1-0.1,0.2-0.1,0.3C68.7,3.2,68.8,3.1,68.8,3c-0.2,0.4-0.4,0.7-0.6,1c0.1-0.1,0.1-0.1,0.2-0.2
					c-0.2,0.3-0.5,0.6-0.8,0.8c0.1-0.1,0.1-0.1,0.2-0.2c-0.1,0.1-0.2,0.2-0.3,0.2C67.2,4.9,67,5.1,67,5.3c-0.1,0.2,0,0.6,0.1,0.8
					c0.1,0.2,0.3,0.4,0.6,0.5c0.3,0.1,0.5,0,0.8-0.1c1.1-0.7,1.9-1.7,2.3-2.9c0.1-0.2,0-0.6-0.1-0.8c-0.1-0.2-0.4-0.4-0.6-0.5
					c-0.3-0.1-0.5,0-0.8,0.1C69,2.5,68.9,2.7,68.8,3L68.8,3z"/>
			</g>
		</g>
		<g>
			<g>
				<path class="st0" d="M94.7,64.4c-0.3,0.1-0.6,0.1-0.9,0.2c-0.2,0-0.3,0.1-0.5,0.1c-0.1,0-0.1,0-0.2,0c-0.1,0-0.1,0,0,0
					c-0.1,0-0.1,0-0.2,0c-0.6,0.1-1.3,0.1-1.9,0.1c-0.5,0-1,0.1-1.5,0.1c-0.1,0-0.2,0-0.4,0c-0.1,0-0.2,0,0,0c-0.1,0-0.1,0-0.2,0
					c-0.1,0-0.2,0-0.3-0.1c0,0-0.2-0.1-0.1,0c0.1,0.1-0.1-0.1-0.1-0.1c0,0-0.2-0.1-0.1,0c0.1,0.1-0.1-0.1-0.1-0.1
					c-0.1-0.1-0.2-0.2-0.2-0.3c0.1,0.1,0,0,0,0c0,0-0.1-0.1-0.1-0.2c0-0.1-0.1-0.1-0.1-0.2c0,0-0.1-0.3,0-0.1c0-0.1-0.1-0.2-0.1-0.4
					c0-0.1,0-0.1-0.1-0.2c0,0-0.1-0.3,0-0.2c0,0.1,0-0.2,0-0.2c0-0.1,0-0.1,0-0.2c0-0.1,0-0.1,0-0.2c0,0.2,0-0.1,0-0.1
					c0-0.1,0-0.1,0.1-0.2c-0.1,0.2,0,0,0,0c0.1-0.1,0.1-0.2,0.2-0.3c0,0-0.1,0.1,0,0c0,0,0.1-0.1,0.1-0.1c0.1-0.1,0.2-0.2,0.3-0.3
					c0.1,0,0.1-0.1,0.2-0.1c0,0,0.2-0.1,0,0c0.1-0.1,0.2-0.1,0.3-0.2c0.3-0.2,0.6-0.4,0.9-0.7c0.5-0.4,0.9-0.8,1.4-1.2
					c0.2-0.2,0.4-0.3,0.6-0.5c0,0,0.1-0.1,0,0c0,0,0.1-0.1,0.1-0.1c0.1-0.1,0.2-0.2,0.3-0.2c0.4-0.3,0.9-0.5,1.3-0.8
					c0.1-0.1-0.2,0.1,0,0c0.1,0,0.1,0,0.2-0.1c0.1,0,0.2-0.1,0.3-0.1c0.3-0.1,0.5-0.1,0.8-0.2c-0.2,0,0.1,0,0.2,0c0.1,0,0.3,0,0.4,0
					c0.1,0,0.3,0,0.4,0c0.2,0,0,0,0,0c0.1,0,0.2,0,0.2,0c0.2,0,0.5,0.1,0.7,0.2c0,0,0.2,0.1,0,0c0,0,0.1,0,0.1,0.1
					c0.1,0.1,0.2,0.1,0.3,0.2c0.1,0.1,0.2,0.1,0.3,0.2c0,0,0.1,0.1,0,0c0,0,0.1,0.1,0.1,0.1c0.2,0.2,0.4,0.3,0.5,0.5
					c0,0.1,0.1,0.1,0.1,0.2c0,0-0.1-0.2,0,0c0.1,0.1,0.1,0.2,0.2,0.3c0.1,0.1,0.1,0.2,0.2,0.3c0,0,0,0.1,0.1,0.1c0,0,0.1,0.3,0,0.1
					c0.1,0.3,0.2,0.5,0.2,0.8c0,0.1,0,0.2,0.1,0.4c0,0.2,0,0.1,0,0c0,0.1,0,0.2,0,0.3c0,0.3,0,0.6,0,0.8c0,0.1,0,0.1,0,0.2
					c0,0,0,0.3,0,0.1c0-0.1,0,0.1,0,0.1c0,0.1,0,0.2-0.1,0.3c-0.1,0.3-0.1,0.5-0.2,0.8c0,0.1-0.1,0.3-0.2,0.4c0,0,0.1-0.2,0,0
					c0,0.1-0.1,0.2-0.1,0.3c-0.2,0.5-0.5,1-0.9,1.5c-0.2,0.2-0.3,0.5-0.5,0.7c0,0.1-0.1,0.1-0.1,0.2c0.1-0.1,0,0,0,0
					c-0.1,0.1-0.2,0.3-0.3,0.4c-0.4,0.5-0.8,1-1.1,1.4c-0.8,1-1.6,2.1-2.3,3.2c-0.7,1-1.3,2-1.8,3.1c-0.3,0.6-0.5,1.2-0.6,1.8
					c-0.2,0.7-0.2,1.4-0.3,2.1c-0.1,0.6-0.1,1.3-0.2,1.9c0,0.1,0,0.3,0,0.4c0,0.2,0,0.1,0,0c0,0.1,0,0.2,0,0.2
					c0,0.3-0.1,0.6-0.1,0.9c-0.2,1.1-0.5,2.3-0.9,3.4c-0.1,0.3-0.2,0.5-0.3,0.8c-0.1,0.1-0.1,0.3-0.2,0.4c0,0.1,0,0.1-0.1,0.2
					c0,0-0.1,0.3,0,0.1c-0.2,0.5-0.5,1-0.7,1.6c-0.5,1.1-1.2,2.1-1.8,3c-0.2,0.2-0.3,0.4-0.5,0.7c-0.1,0.1-0.2,0.2-0.3,0.3
					c-0.1,0.2,0,0.1,0,0c-0.1,0.1-0.1,0.2-0.2,0.2c-0.4,0.5-0.7,0.9-1.1,1.4c-0.8,1-1.6,2-2.3,3c-0.3,0.5-0.6,1-0.9,1.5
					c-0.3,0.5-0.1,1.1,0.4,1.4c0.5,0.2,1.1,0.1,1.4-0.4c0.3-0.5,0.7-1.1,1-1.6c0.2-0.3,0.4-0.5,0.5-0.7c0.1-0.1,0.2-0.2,0.3-0.3
					c0-0.1,0.1-0.1,0.1-0.2c0.1-0.2-0.1,0.1,0.1-0.1c0.8-1,1.6-2,2.4-3.1c1.6-2,2.8-4.2,3.8-6.6c0.9-2.4,1.5-4.8,1.6-7.4
					c0-0.3,0-0.6,0.1-0.9c0-0.2,0-0.3,0-0.5c0-0.1,0-0.1,0-0.2c0-0.1,0-0.1,0-0.2c0,0.1,0,0.1,0,0c0.1-0.6,0.3-1.3,0.5-1.9
					c0-0.1,0-0.1,0.1-0.2c-0.1,0.1,0,0,0,0c0.1-0.1,0.1-0.3,0.2-0.4c0.1-0.3,0.3-0.6,0.5-0.9c0.3-0.5,0.7-1.1,1-1.6
					c0.4-0.6,0.8-1.2,1.2-1.7c0.2-0.3,0.4-0.5,0.6-0.8c0.2-0.3,0.3-0.5,0.5-0.7c0.8-1,1.7-2,2.4-3.1c1.4-2.1,2.1-4.9,1.1-7.4
					c-0.9-2.3-3.1-3.8-5.6-3.7c-1.2,0.1-2.4,0.5-3.4,1.1c-1,0.6-1.9,1.4-2.8,2.2c-0.2,0.2-0.5,0.4-0.7,0.6c-0.1,0-0.1,0.1-0.2,0.1
					c0.1-0.1,0,0,0,0c-0.2,0.1-0.3,0.2-0.5,0.3c-0.5,0.4-1,0.8-1.4,1.4c-0.8,1.3-0.6,2.9,0.2,4.1c0.3,0.5,0.8,1.1,1.4,1.3
					c0.6,0.3,1.2,0.4,1.8,0.4c0.5,0,1.1,0,1.6-0.1c0.7,0,1.3-0.1,2-0.2c0.7-0.1,1.4-0.2,2.1-0.4c0.5-0.1,0.9-0.7,0.7-1.2
					C95.8,64.6,95.3,64.3,94.7,64.4L94.7,64.4z"/>
			</g>
		</g>
		<g>
			<g>
				<path class="st4" d="M73.9,25c0,0.1,0,0.3,0,0.4c0,0.1-0.1,0.2-0.2,0.3c-0.1,0.1-0.3,0.2-0.5,0.3c-0.2,0-0.4,0-0.5,0
					c-0.2,0-0.3-0.1-0.5-0.3c-0.1-0.1-0.2-0.3-0.2-0.5c0-0.1,0-0.2,0-0.3c0-0.1,0-0.2,0.1-0.3l0,0c-0.1,0-0.1,0-0.2,0
					c-0.1,0-0.1-0.1-0.1-0.2c0-0.1,0-0.1,0.1-0.2c0-0.1,0.1-0.1,0.2-0.1l0.5-0.1l0-0.2c0-0.1,0-0.1,0.1-0.2c0-0.1,0.1-0.1,0.2-0.1
					c0.1,0,0.1,0,0.2,0c0.1,0,0.1,0.1,0.1,0.1l0,0.2l0.6-0.1c0.1,0,0.1,0,0.2,0c0.1,0,0.1,0.1,0.1,0.2c0,0.1,0,0.1-0.1,0.2
					c0,0.1-0.1,0.1-0.2,0.1l0,0c0.1,0.1,0.1,0.1,0.2,0.2C73.8,24.8,73.9,24.9,73.9,25 M72.5,27.1c0-0.2,0-0.3,0.1-0.4
					c0.1-0.1,0.2-0.2,0.3-0.3c0.1-0.1,0.3-0.1,0.5-0.2c0.2-0.1,0.4-0.1,0.7-0.1c0.2,0,0.5-0.1,0.7-0.1c0.2,0,0.4,0,0.6,0
					c0.2,0,0.3,0.1,0.4,0.2c0.1,0.1,0.2,0.2,0.2,0.4c0,0.2,0,0.3-0.1,0.4c-0.1,0.1-0.2,0.2-0.3,0.3c-0.1,0.1-0.3,0.1-0.5,0.2
					c-0.2,0-0.4,0.1-0.7,0.1c-0.2,0-0.5,0.1-0.7,0.1c-0.2,0-0.4,0-0.6,0c-0.2,0-0.3-0.1-0.4-0.2C72.6,27.4,72.5,27.3,72.5,27.1
					 M73,25.5c0.1,0,0.2-0.1,0.2-0.1c0.1-0.1,0.1-0.2,0.1-0.3c0-0.1-0.1-0.2-0.2-0.3c-0.1-0.1-0.2-0.1-0.3-0.1
					c-0.1,0-0.2,0.1-0.3,0.1c-0.1,0.1-0.1,0.2-0.1,0.3c0,0.1,0,0.1,0.1,0.2c0,0,0.1,0.1,0.1,0.1c0,0,0.1,0,0.2,0
					C72.9,25.5,73,25.5,73,25.5 M75.2,26.7c0-0.1,0-0.1-0.1-0.1c-0.1,0-0.1,0-0.2,0c-0.1,0-0.2,0-0.3,0c-0.1,0-0.2,0-0.4,0
					c-0.1,0-0.2,0-0.4,0.1c-0.1,0-0.2,0-0.3,0.1c-0.1,0-0.2,0.1-0.2,0.1c-0.1,0-0.1,0.1-0.1,0.1c0,0.1,0,0.1,0.1,0.1
					c0.1,0,0.1,0,0.2,0c0.1,0,0.2,0,0.3,0c0.1,0,0.2,0,0.4,0l0.4-0.1c0.1,0,0.2,0,0.3-0.1c0.1,0,0.2-0.1,0.2-0.1
					C75.2,26.9,75.2,26.8,75.2,26.7 M75.6,25.5C75.6,25.5,75.6,25.5,75.6,25.5c0,0.1,0,0.1,0,0.1c0,0,0,0.1,0,0.1c0,0,0,0.1-0.1,0.1
					c0,0-0.1,0-0.1,0.1c-0.1,0-0.1,0-0.2,0c0,0-0.1-0.1-0.1-0.1c-0.1-0.1-0.1-0.2-0.1-0.3c0-0.1,0-0.2,0-0.3l0-0.1c0,0-0.1,0-0.1,0
					c0,0-0.1,0-0.1,0l0,0l0.1,0.5c0,0,0,0.1,0,0.1c0,0,0,0.1,0,0.1c0,0,0,0.1-0.1,0.1c0,0,0,0-0.1,0c0,0,0,0-0.1,0c0,0-0.1,0-0.1,0
					c0,0-0.1,0-0.1-0.1c0,0,0-0.1-0.1-0.1c0,0,0-0.1,0-0.1L74,24c0,0,0-0.1,0-0.1c0-0.1,0-0.1,0-0.2c0-0.1,0.1-0.1,0.2-0.2
					c0.1,0,0.1,0,0.1,0c0,0,0.1,0,0.1,0.1c0,0,0,0,0.1,0.1c0,0,0,0,0,0.1c0,0,0,0.1,0,0.1c0,0,0,0.1,0,0.1c0,0,0,0,0,0.1l0.1,0.4
					c0,0,0,0,0.1,0c0,0,0.1,0,0.1,0L74.8,24l0-0.1c0,0,0-0.1,0-0.1c0,0,0-0.1,0-0.1c0-0.1,0-0.1,0.1-0.2c0-0.1,0.1-0.1,0.2-0.1
					c0.1,0,0.2,0,0.2,0.1c0,0,0,0.1,0.1,0.1c0,0.1,0,0.1,0,0.1L75.6,25.5L75.6,25.5z"/>
			</g>
			<g>
				<path class="st5" d="M67,29.6l-9.8,1.5c-0.2,0-0.3-0.1-0.4-0.2c0-0.1,0.1-0.3,0.3-0.3l9.8-1.5c0.2,0,0.3,0.1,0.4,0.2
					C67.3,29.4,67.2,29.6,67,29.6"/>
			</g>
			<g>
				<path class="st5" d="M63.8,28.3c0.1,0.2,0.2,0.3,0.3,0.4c0,0,0.1,0,0.1,0.1c0,0,0.1,0,0.1,0c0.1,0,0.2,0,0.3,0c0,0,0,0,0.1,0
					c0,0,0,0,0.1,0c0,0,0,0,0.1,0l0.1,0c0,0,0,0,0,0l0,0l0.1,0c0,0,0,0,0,0l0,0l0.1,0c0,0,0,0,0,0c0,0,0.1,0,0.1,0
					c0,0,0.1,0,0.1-0.1c0,0,0.1,0,0.1-0.1c0,0,0.1-0.1,0.1-0.1c0.1,0,0.1-0.1,0.1-0.1c0-0.1,0.1-0.1,0.1-0.2c0-0.1,0.1-0.2,0.1-0.4
					c0,0,0,0,0-0.1c0,0,0-0.1,0-0.1c0,0,0,0,0-0.1c0,0,0,0,0-0.1c0,0,0-0.1,0-0.1c0,0,0-0.1,0-0.1c0,0,0-0.1,0-0.1c0,0,0-0.1,0-0.1
					c0,0,0-0.1-0.1-0.1c0,0,0-0.1-0.1-0.1c0-0.1-0.1-0.1-0.2-0.2c0,0-0.1,0-0.1-0.1c0,0-0.1,0-0.1,0c-0.1,0-0.1,0-0.2-0.1
					c0,0-0.1,0-0.1,0c0,0-0.1,0-0.1,0c0,0,0,0,0,0c0,0,0,0,0,0c0,0,0,0,0,0c0,0,0,0,0,0c0,0-0.1,0-0.1,0c0,0-0.1,0-0.1,0
					c-0.1,0-0.1,0-0.2,0c-0.1,0-0.2,0-0.2,0.1c-0.1,0-0.1,0.1-0.2,0.1c-0.1,0-0.1,0.1-0.2,0.1c-0.1,0-0.1,0.1-0.1,0.2
					c0,0.1-0.1,0.1-0.1,0.2c0,0.1-0.1,0.1-0.1,0.2c0,0.1,0,0.2,0,0.2c0,0.1,0,0.2,0,0.2c0,0.1,0,0.2,0.1,0.2
					C63.7,28.2,63.8,28.3,63.8,28.3 M64.3,27.7c0-0.1,0-0.1,0-0.1c0,0,0-0.1,0-0.1c0,0,0-0.1,0.1-0.1c0,0,0.1-0.1,0.1-0.1
					c0,0,0.1,0,0.1-0.1c0,0,0.1,0,0.1,0c0.1,0,0.2,0,0.3,0c0,0,0,0,0.1,0c0,0,0,0,0,0c0,0,0.1,0,0.1,0c0,0,0.1,0,0.1,0.1
					c0,0,0,0,0,0c0,0,0,0,0,0c0,0,0,0,0,0.1c0,0,0,0,0,0.1c0,0.1,0,0.1,0.1,0.2c0,0,0,0.1,0,0.2c0,0,0,0.1,0,0.1c0,0,0,0.1,0,0.1
					c0,0.1-0.1,0.1-0.1,0.2c0,0,0,0-0.1,0c0,0,0,0-0.1,0c0,0-0.1,0-0.1,0c0,0,0,0-0.1,0c0,0-0.1,0-0.1,0c0,0-0.1,0-0.1,0
					c-0.1,0-0.2-0.1-0.3-0.2c0,0-0.1-0.1-0.1-0.2C64.3,27.8,64.3,27.7,64.3,27.7"/>
			</g>
			<g>
				<path class="st5" d="M60.6,29c0,0.1,0,0.1,0,0.2c0,0.1,0,0.1,0,0.1c0,0,0,0.1,0,0.1c0,0,0,0.1,0,0.1c0,0.1,0.1,0.1,0.1,0.1
					c0.1,0,0.1,0,0.2,0.1c0.1,0,0.1,0,0.2,0c0.1,0,0.1,0,0.2,0c0.1,0,0.1,0,0.2,0c0.1,0,0.1,0,0.2,0l0.2,0l0.3,0l0.3,0l0.2,0l0.2,0
					c0,0,0.1,0,0.1,0c0,0,0.1,0,0.1,0l0.2,0c0.1,0,0.1,0,0.2,0c0.1,0,0.1,0,0.2-0.1c0,0,0.1-0.1,0.1-0.1c0-0.1,0.1-0.1,0.1-0.1
					c0,0,0-0.1-0.1-0.1c-0.1-0.1-0.1-0.1-0.2-0.1c-0.1,0-0.1,0-0.2,0c0,0-0.1,0-0.1,0c0,0-0.1,0-0.1,0l-1.5,0.2c0,0,0,0-0.1,0
					c0,0,0,0-0.1,0c0,0,0,0-0.1,0c0,0,0,0,0,0c0,0,0,0,0-0.1c0,0,0,0,0-0.1l-0.1-0.3c0,0,0-0.1,0-0.1c0,0,0-0.1,0-0.1
					c0,0,0-0.1-0.1-0.1c0,0-0.1-0.1-0.1-0.1c0,0,0,0-0.1,0c0,0,0,0-0.1,0c0,0-0.1,0-0.1,0c0,0,0,0-0.1,0.1c0,0,0,0.1-0.1,0.1
					c0,0,0,0.1,0,0.1c0,0,0,0.1,0,0.1c0,0,0,0.1,0,0.1C60.6,28.9,60.6,28.9,60.6,29"/>
			</g>
			<g>
				<path class="st5" d="M67.2,27l0-0.3c0,0,0-0.1,0-0.1l0-0.1c0,0,0-0.1,0-0.1c0,0,0-0.1-0.1-0.1c0,0-0.1-0.1-0.1-0.1
					c0,0-0.1,0-0.1,0c0,0-0.1,0-0.1,0l-0.1,0c0,0,0,0-0.1,0c0,0-0.1,0-0.1,0.1c0,0.1-0.1,0.1-0.1,0.2c0,0.1,0,0.1,0,0.1
					c0,0,0,0.1,0,0.1l0.5,3l0,0.1c0,0,0,0,0,0c0,0,0,0,0,0c0,0,0,0,0,0.1s0,0,0,0.1c0,0.1,0.1,0.1,0.1,0.1c0,0,0.1,0,0.1,0
					c0,0,0.1,0,0.1,0c0,0,0.1,0,0.1-0.1c0,0,0,0,0.1,0c0,0,0,0,0,0c0,0,0,0,0,0c0,0,0,0,0,0c0,0,0-0.1,0-0.1c0,0,0-0.1,0-0.1l0-0.1
					c0,0,0-0.1,0-0.1c0-0.1,0-0.1,0-0.2l-0.1-0.6c0-0.1,0-0.1,0-0.2l0-0.2l-0.1-0.8l0-0.2C67.3,27.2,67.2,27.1,67.2,27"/>
			</g>
			<g>
				<path class="st5" d="M64.2,31.6c0,0-0.1,0-0.1,0l-2.6,0.4l0-0.2l2.3-0.3c0,0,0.1,0,0.1,0c0,0,0.1,0,0.1-0.1c0,0,0.1-0.1,0.1-0.1
					c0,0,0-0.1,0-0.1L64,30.7c0-0.1-0.1-0.2-0.2-0.2c-0.1,0-0.2,0-0.4,0l-0.8,0.1l-0.6,0.1c-0.2,0-0.3,0-0.4,0.1c-0.1,0-0.2,0-0.3,0
					l-0.2,0l-0.2,0c-0.1,0-0.1,0-0.2,0c0,0,0,0-0.1,0c0,0,0,0-0.1,0c0,0,0,0-0.1,0c0,0,0,0,0,0.1c0,0.1,0,0.1,0.1,0.2c0,0,0,0,0.1,0
					c0,0,0.1,0,0.1,0c0,0,0.1,0,0.1,0l0.1,0l2.4-0.4l0,0.2l-1,0.1c-0.3,0-0.5,0.1-0.7,0.1c-0.2,0-0.3,0-0.4,0.1l-0.2,0
					c-0.1,0-0.1,0-0.2,0.1c-0.1,0-0.1,0.1-0.2,0.1c0,0,0,0.1,0,0.1c0,0.1,0,0.1,0,0.1l0.1,0.3c0,0.1,0.1,0.1,0.1,0.2
					c0.1,0,0.1,0.1,0.2,0c0.1,0,0.1,0,0.2,0c0.1,0,0.1,0,0.2,0L64,32c0,0,0.1,0,0.1,0c0,0,0.1,0,0.1,0c0.1-0.1,0.2-0.2,0.1-0.3
					C64.3,31.6,64.2,31.6,64.2,31.6"/>
			</g>
			<g>
				<path class="st5" d="M57.1,29.3c0.1,0.1,0.2,0.1,0.2,0.2c0.1,0,0.2,0.1,0.3,0.1c0.1,0,0.2,0,0.3,0c0.1,0,0.2,0,0.3,0l0.1,0.7
					l0.6-0.1l-0.1-0.7c0.2,0,0.3-0.1,0.5-0.1c0.1-0.1,0.3-0.1,0.4-0.2c0.1-0.1,0.2-0.2,0.2-0.4c0.1-0.1,0.1-0.3,0.1-0.5
					c0-0.2-0.1-0.3-0.1-0.5c-0.1-0.1-0.2-0.3-0.3-0.4c-0.1,0-0.1-0.1-0.2-0.1c-0.1,0-0.1-0.1-0.2-0.1c-0.1,0-0.3-0.1-0.4-0.1
					c-0.1,0-0.3,0-0.4,0c-0.2,0-0.3,0-0.5,0.1c-0.2,0-0.3,0.1-0.5,0.2c-0.2,0.1-0.4,0.3-0.5,0.5c-0.1,0.2-0.1,0.4-0.1,0.7
					c0,0.1,0,0.2,0.1,0.4C56.9,29.1,57,29.2,57.1,29.3 M57.5,28.5c0-0.1,0-0.2,0.1-0.3c0.1-0.1,0.2-0.1,0.3-0.2
					c0.1,0,0.3-0.1,0.4-0.1c0.1,0,0.3,0,0.4,0c0.2,0,0.3,0,0.4,0.1c0.1,0.1,0.2,0.2,0.2,0.4c0,0,0,0.1,0,0.1c0,0.1,0,0.1-0.1,0.2
					c0,0.1-0.1,0.1-0.1,0.1c0,0-0.1,0.1-0.2,0.1c-0.1,0-0.1,0.1-0.2,0.1c-0.1,0-0.2,0.1-0.4,0.1c-0.1,0-0.2,0-0.4,0
					c-0.1,0-0.2,0-0.3,0c-0.1,0-0.2-0.1-0.2-0.1c-0.1-0.1-0.1-0.1-0.1-0.2C57.5,28.6,57.5,28.5,57.5,28.5"/>
			</g>
			<g>
				<g>
					<path class="st5" d="M78.9,27.4c-0.2-0.1-0.4-0.1-0.5-0.1c0,0,0,0-0.1,0l-1.9,0.3c0,0-0.1,0-0.1,0l-0.5-0.3l-0.2,0c0,0,0,0,0,0
						c0,0.1,0.1,0.2,0.2,0.4l-8.2,1.2l0.1,0.5l9.5-1.4l-0.4,1c0,0,0,0.1,0.1,0.1l0.2,0c0,0,0.1,0,0.1,0l0.8-1.2c0,0,0.3,0,0.6-0.1
						c0.3,0,0.3-0.1,0.3-0.1C79,27.7,79.2,27.6,78.9,27.4z"/>
				</g>
				<g>
					<path class="st5" d="M77,27.4l0.6-0.1l-0.6-0.4c0,0-0.1,0-0.1,0l-0.2,0c0,0,0,0,0,0.1L77,27.4z"/>
				</g>
			</g>
			<g>
				<path class="st4" d="M68.6,24.4c0,0,0.1,0,0.1,0c0,0,0.1,0,0.1,0c0.1,0,0.3,0,0.4,0.1c0.1,0.1,0.2,0.2,0.2,0.3
					c0.1,0.1,0.1,0.2,0.2,0.3c0,0.1,0.1,0.2,0.1,0.4c0,0.1,0.1,0.3,0.1,0.4c0,0.2,0.1,0.3,0.1,0.5c0,0.2,0,0.3,0,0.5
					c0,0.2,0,0.3,0,0.5c0,0.2,0,0.3-0.1,0.5c-0.1,0.1-0.1,0.2-0.2,0.3c-0.1,0.1-0.2,0.1-0.3,0.2c-0.1,0-0.2,0.1-0.3,0.1
					c-0.1,0-0.2,0-0.3-0.1c-0.1,0-0.2-0.1-0.3-0.2c-0.1-0.1-0.1-0.2-0.2-0.3c-0.1-0.2-0.2-0.3-0.2-0.5c0-0.1-0.1-0.3-0.1-0.4
					c0-0.1,0-0.3-0.1-0.4c0-0.1,0-0.2,0-0.3c0-0.1,0-0.2,0-0.3c0-0.1,0-0.2,0-0.2c0-0.1,0-0.2,0-0.2c0-0.1,0-0.1,0-0.2
					c0-0.1,0-0.1,0-0.2c0-0.1,0-0.1,0.1-0.2c0-0.1,0.1-0.1,0.1-0.2c0.1-0.1,0.1-0.2,0.2-0.2c0.1-0.1,0.2-0.1,0.3-0.1
					C68.5,24.4,68.5,24.4,68.6,24.4C68.5,24.4,68.5,24.4,68.6,24.4z M69,27.6c0.1,0,0.1,0,0.2-0.1c0.1,0,0.1-0.1,0.1-0.2
					c0-0.1,0-0.1,0-0.2c0-0.2,0-0.3,0-0.5c0-0.2-0.1-0.3-0.1-0.5c0-0.1,0-0.1,0-0.2c0-0.1,0-0.1-0.1-0.2c0-0.1,0-0.1-0.1-0.2
					c0-0.1-0.1-0.1-0.1-0.2c0-0.1-0.1-0.1-0.1-0.1c-0.1,0-0.1,0-0.2,0c-0.1,0-0.1,0-0.1,0.1c0,0-0.1,0.1-0.1,0.2l0,0.1
					c0,0.1,0,0.1,0,0.2c0,0.1,0,0.1,0,0.2c0,0.1,0,0.1,0,0.2c0,0.1,0,0.1,0,0.2c0,0.1,0,0.1,0,0.2c0,0.1,0,0.1,0,0.2
					c0,0.1,0,0.2,0.1,0.3c0,0.1,0.1,0.2,0.1,0.3c0,0.1,0.1,0.2,0.2,0.2C68.9,27.6,68.9,27.6,69,27.6z M70.5,24.8c0,0,0-0.1,0-0.1
					c0-0.1,0-0.1,0-0.2c0-0.1,0-0.1,0-0.2c0,0,0-0.1,0.1-0.1c0-0.1,0.1-0.1,0.2-0.1l0,0c0.1,0,0.2,0,0.2,0c0.1,0,0.1,0.1,0.1,0.1
					c0,0.1,0.1,0.1,0.1,0.2c0,0.1,0,0.1,0,0.2l0.5,3c0,0,0,0,0,0c0,0,0,0.1,0,0.1s0,0.1,0,0.1c0,0,0,0.1-0.1,0.1
					c0,0-0.1,0.1-0.1,0.1c0,0-0.1,0-0.1,0c-0.1,0-0.1,0-0.2-0.1c-0.1,0-0.1-0.1-0.1-0.1c0,0,0-0.1-0.1-0.2c0,0,0-0.1,0-0.1
					c0-0.1,0-0.1,0-0.2c0-0.1,0-0.1,0-0.2c0-0.1,0-0.1,0-0.2l-0.3,0c-0.1,0-0.1,0-0.2,0c0,0-0.1,0-0.1-0.1c0,0,0,0,0-0.1
					c0,0,0,0,0-0.1c0,0,0,0,0-0.1c0,0,0,0,0-0.1c0,0,0-0.1,0-0.1c0,0,0-0.1,0-0.1c0,0,0.1-0.1,0.1-0.1c0.1,0,0.1,0,0.2,0
					c0.1,0,0.1,0,0.2,0c0,0,0-0.1,0-0.1c0,0,0-0.1,0-0.2c0-0.1,0-0.1,0-0.2c0-0.1,0-0.1,0-0.2l-0.3,0c-0.1,0-0.1,0-0.2,0
					c-0.1,0-0.1,0-0.1-0.1c0,0,0-0.1-0.1-0.1c0,0,0,0,0-0.1c0,0,0,0,0-0.1c0,0,0-0.1,0-0.1c0,0,0-0.1,0-0.1c0,0,0.1-0.1,0.1-0.1
					c0,0,0.1,0,0.2,0c0.1,0,0.1,0,0.2,0c0-0.1,0-0.2,0-0.3C70.5,24.9,70.5,24.8,70.5,24.8z"/>
			</g>
		</g>
	</g>
	<g>
		<g>
			<path class="st0" d="M41.4,36c-0.6-0.5-1.1-1-1.7-1.6c0.1,0.4,0.1,0.8,0.2,1.2c1.9-3.6,2.3-7.8,0.8-11.6
				c-1.3-3.3-3.6-5.9-6.5-7.9c-3.1-2.2-6.9-3.4-10.6-3.8c-3.9-0.4-8,0-11.7,1.4C8.6,15,5.5,17,3.3,19.8c-2.1,2.7-3.4,5.9-3.3,9.3
				c0.1,3.4,1.4,6.6,3.6,9.2c2.3,2.7,5.5,4.7,8.8,5.9c3.9,1.4,8.1,1.7,12.2,1.1c4-0.6,8-2.2,11.1-4.8c0.7-0.6,1.3-1.2,1.9-1.8
				c-0.4,0.1-0.8,0.1-1.2,0.2c1.2,0.7,2.7,0.9,4,0.9c1.3,0,2.7-0.2,4-0.3c0.5-0.1,0.9-0.3,1-0.9c0.1-0.4-0.2-1-0.7-1.1
				c-0.3-0.1-0.7-0.1-1-0.2c-0.1,0-0.3-0.1-0.4-0.2c-0.3-0.1,0.2,0.1-0.1,0C43.1,37,43,37,43,36.9c-0.3-0.1-0.6-0.3-0.9-0.5
				c-0.1-0.1-0.3-0.2-0.4-0.3C41.6,36.1,41.6,36.1,41.4,36C41.3,35.9,41.6,36.1,41.4,36c-0.4-0.3-1-0.4-1.4,0
				c-0.3,0.4-0.4,1.1,0,1.4c1.2,1,2.6,1.8,4.2,2c0.1-0.6,0.2-1.3,0.3-1.9c-1.3,0.1-2.5,0.3-3.8,0.3c-0.3,0-0.6,0-0.9,0
				c-0.2,0-0.3,0-0.5,0c-0.1,0-0.1,0-0.2,0c0.2,0,0,0-0.1,0c-0.3-0.1-0.6-0.1-0.9-0.2c-0.2,0-0.3-0.1-0.5-0.2c0.1,0,0,0,0,0
				c-0.1,0-0.2-0.1-0.2-0.1c-0.4-0.2-0.9-0.2-1.2,0.2c-0.6,0.6-1.2,1.3-1.9,1.8c-0.1,0.1-0.2,0.1-0.3,0.2c0,0-0.2,0.1-0.1,0
				c0.1-0.1,0,0-0.1,0c-0.2,0.1-0.4,0.3-0.6,0.4c-0.4,0.3-0.8,0.5-1.2,0.7c-0.8,0.5-1.6,0.9-2.5,1.3c-0.1,0.1,0.1-0.1,0,0
				c-0.1,0-0.1,0.1-0.2,0.1c-0.1,0-0.2,0.1-0.3,0.1c-0.2,0.1-0.5,0.2-0.7,0.3c-0.5,0.2-0.9,0.3-1.4,0.4c-1,0.3-2,0.5-3,0.6
				c-0.1,0-0.1,0-0.2,0c0,0,0.2,0,0,0c-0.1,0-0.2,0-0.4,0c-0.3,0-0.5,0.1-0.8,0.1c-0.5,0-1,0.1-1.6,0.1c-1,0-1.9,0-2.9-0.1
				c-0.1,0-0.2,0-0.3,0c-0.1,0-0.1,0-0.2,0c0,0-0.3,0-0.1,0c0.1,0,0,0-0.1,0c-0.1,0-0.1,0-0.2,0c-0.1,0-0.2,0-0.4-0.1
				c-0.5-0.1-0.9-0.2-1.4-0.3c-0.9-0.2-1.8-0.5-2.6-0.8c-0.2-0.1-0.4-0.1-0.6-0.2c-0.1,0-0.2-0.1-0.3-0.1c0,0-0.1,0-0.1-0.1
				c0,0-0.2-0.1-0.1,0c0.1,0.1,0,0-0.1,0c0,0-0.1,0-0.1-0.1c-0.1,0-0.2-0.1-0.3-0.1c-0.2-0.1-0.4-0.2-0.6-0.3
				C10,41,9.3,40.6,8.6,40.1c-0.3-0.2-0.7-0.5-1-0.7c0.2,0.1,0,0-0.1-0.1c-0.1-0.1-0.1-0.1-0.2-0.2c-0.2-0.1-0.3-0.3-0.5-0.4
				c-0.6-0.5-1.2-1.1-1.7-1.7c-0.1-0.1-0.2-0.3-0.4-0.4c0,0-0.1-0.1-0.1-0.1c0.1,0.2,0.1,0.1,0,0c-0.1-0.1-0.1-0.2-0.2-0.3
				c-0.2-0.3-0.4-0.6-0.6-1c-0.2-0.3-0.4-0.7-0.6-1c-0.1-0.2-0.2-0.3-0.2-0.5c0-0.1-0.1-0.2-0.1-0.2c-0.1-0.1,0.1,0.2,0,0.1
				c0-0.1,0-0.1-0.1-0.2c-0.3-0.7-0.5-1.4-0.7-2.2c0-0.2-0.1-0.4-0.1-0.5c0-0.1-0.1-0.3,0-0.3c0,0,0,0.3,0,0.1c0-0.1,0-0.1,0-0.2
				C2,29.9,2,29.5,2,29.1c0-0.4,0-0.8,0-1.2c0-0.2,0-0.4,0.1-0.6c0,0,0-0.1,0-0.1c0,0,0,0.3,0,0.1c0-0.1,0-0.2,0.1-0.3
				c0.1-0.7,0.3-1.5,0.6-2.2c0.1-0.2,0.1-0.3,0.2-0.5c0,0,0-0.1,0.1-0.1c-0.1,0.2,0,0.1,0,0.1C3,24.1,3,24,3.1,23.9
				c0.2-0.3,0.3-0.7,0.5-1c0.2-0.3,0.4-0.7,0.6-1c0.1-0.2,0.2-0.3,0.3-0.4c0.1-0.1,0.1-0.1,0.2-0.2c0.1-0.2-0.1,0.1,0,0
				c0,0,0.1-0.1,0.1-0.1c0.5-0.6,1-1.2,1.6-1.7c0.3-0.3,0.6-0.5,0.9-0.8c0.1-0.1,0.2-0.1,0.3-0.2c0,0,0.2-0.1,0,0c-0.1,0.1,0,0,0,0
				c0.2-0.1,0.4-0.3,0.5-0.4c0.7-0.5,1.4-0.9,2.2-1.3c0.4-0.2,0.8-0.4,1.2-0.6c0.1,0,0.2-0.1,0.3-0.1c0,0,0.1,0,0.1-0.1
				c0,0-0.2,0.1,0,0c0.2-0.1,0.4-0.2,0.6-0.2c0.9-0.3,1.7-0.6,2.6-0.8c0.4-0.1,0.9-0.2,1.3-0.3c0.2,0,0.4-0.1,0.6-0.1
				c0.1,0,0.2,0,0.3-0.1c0.1,0,0.1,0,0.2,0c0.3,0-0.2,0,0.1,0c1-0.1,1.9-0.2,2.9-0.2c1,0,1.9,0,2.9,0.1c0.1,0,0.2,0,0.3,0
				c0.1,0,0.1,0,0.2,0c0.2,0-0.2,0,0,0c0.2,0,0.5,0.1,0.7,0.1c0.5,0.1,0.9,0.2,1.4,0.3c0.9,0.2,1.8,0.5,2.6,0.8
				c0.2,0.1,0.4,0.2,0.6,0.2c0.1,0,0.2,0.1,0.3,0.1c0,0,0.1,0,0.1,0.1c0.2,0.1-0.1,0,0,0c0.4,0.2,0.8,0.4,1.2,0.5
				c0.8,0.4,1.5,0.8,2.2,1.3c0.2,0.1,0.3,0.2,0.5,0.3c0.1,0.1,0.2,0.1,0.2,0.2c0.1,0,0.3,0.3,0.1,0.1c0.3,0.3,0.6,0.5,0.9,0.8
				c0.6,0.5,1.2,1.1,1.7,1.7c0.1,0.1,0.2,0.3,0.3,0.4c0.1,0.1,0,0,0,0c0,0,0.1,0.1,0.1,0.1c0.1,0.1,0.1,0.2,0.2,0.3
				c0.2,0.3,0.4,0.6,0.6,1c0.2,0.3,0.4,0.7,0.6,1c0.1,0.2,0.2,0.3,0.2,0.5c0,0,0.1,0.3,0.1,0.2c-0.1-0.1,0,0,0,0
				c0,0.1,0,0.1,0.1,0.2c0.3,0.7,0.5,1.5,0.7,2.2c0,0.2,0.1,0.4,0.1,0.5c0,0.1,0,0.1,0,0.2c0,0.1,0,0,0-0.1c0,0,0,0.2,0,0.3
				c0,0.4,0.1,0.8,0.1,1.2c0,0.5,0,1.1-0.1,1.6c0,0,0,0.3,0,0.1c0,0.1,0,0.1,0,0.2c0,0.1,0,0.3-0.1,0.4c-0.1,0.3-0.1,0.6-0.2,0.8
				c-0.1,0.5-0.3,1-0.5,1.5c0,0-0.2,0.4-0.1,0.2c-0.1,0.1-0.1,0.2-0.2,0.4c-0.1,0.3-0.3,0.5-0.4,0.8C38,35,38,35.5,38.3,35.8
				c0.5,0.6,1.1,1.1,1.7,1.6c0.4,0.3,1,0.4,1.4,0C41.7,37,41.8,36.3,41.4,36z"/>
		</g>
	</g>
	<g>
		<g>
			<path class="st0" d="M37.6,52.7c0.2-0.4,0.4-0.9,0.6-1.3c0.2-0.5-0.2-1-0.6-1.2c-0.5-0.2-0.9,0-1.2,0.4c0.1-0.1,0,0,0,0
				c0,0-0.1,0.1-0.1,0.1c-0.1,0.1-0.2,0.2-0.3,0.3c-0.2,0.2-0.4,0.3-0.6,0.5c-0.1,0-0.1,0.1,0,0c0,0-0.1,0.1-0.1,0.1
				c-0.1,0.1-0.2,0.2-0.3,0.2c-0.2,0.1-0.4,0.3-0.7,0.4c-0.2,0.1-0.4,0.2-0.6,0.3c0,0-0.2,0.1-0.1,0.1c0.1,0-0.1,0-0.1,0
				c-0.1,0.1-0.3,0.1-0.4,0.1c-0.6,0.2-1.1,0.4-1.7,0.5c0.3,0.1,0.6,0.2,1,0.3c-2.3-2.1-5.3-3.5-8.3-4.1c-3.1-0.6-6.4-0.5-9.5,0.5
				c-2.6,0.8-5.2,2.2-7.1,4.2c-1.8,1.9-3,4.3-3.3,6.9c-0.3,2.5,0.4,5.1,1.8,7.2c1.5,2.2,3.7,4,6.1,5.1c2.7,1.3,5.8,1.9,8.8,1.8
				c3-0.1,5.9-0.8,8.5-2.3c2.3-1.3,4.3-3.1,5.6-5.4c1.4-2.5,1.8-5.6,0.9-8.4c-0.3-0.8-0.6-1.7-1.1-2.4c-0.1,0.4-0.1,0.8-0.2,1.2
				C36.1,56.5,36.9,54.5,37.6,52.7c0.2-0.5-0.2-1.1-0.7-1.2c-0.6-0.1-1,0.2-1.2,0.7c0,0.1-0.1,0.2-0.1,0.3c0,0.1,0,0.1-0.1,0.2
				c0-0.1,0-0.1,0,0c-0.1,0.2-0.2,0.4-0.3,0.6c-0.2,0.4-0.4,0.8-0.6,1.2c-0.2,0.4-0.5,0.8-0.7,1.1c0.1-0.2,0,0-0.1,0.1
				c-0.1,0.1-0.2,0.2-0.2,0.3c-0.2,0.2-0.3,0.3-0.5,0.5c-0.3,0.3-0.4,0.8-0.2,1.2c0.1,0.2,0.2,0.4,0.3,0.5c0.1,0.1,0.1,0.2,0.1,0.3
				c0,0,0,0.1,0.1,0.1c0,0,0.1,0.2,0,0.1c0.2,0.4,0.3,0.8,0.4,1.2c0.1,0.2,0.1,0.4,0.1,0.6c0,0.1,0,0.2,0.1,0.3c0,0,0,0.1,0,0.1
				c0,0.1,0,0.1,0,0c0,0.4,0.1,0.9,0.1,1.3c0,0.3,0,0.6-0.1,0.9c0,0,0,0.1,0,0.1c0,0.1,0-0.1,0-0.1c0,0,0,0.2,0,0.2
				c0,0.2-0.1,0.3-0.1,0.5c-0.1,0.3-0.1,0.6-0.2,0.9c-0.1,0.3-0.2,0.6-0.3,0.9c0,0,0.1-0.2,0-0.1c0,0,0,0.1,0,0.1
				c0,0.1-0.1,0.1-0.1,0.2c-0.1,0.1-0.1,0.3-0.2,0.4c-0.1,0.3-0.3,0.5-0.5,0.8c-0.2,0.2-0.3,0.5-0.5,0.8c0.1-0.1,0,0,0,0
				C32.1,68,32,68,32,68.1c-0.1,0.1-0.2,0.2-0.3,0.4c-0.4,0.5-0.9,0.9-1.4,1.3c-0.1,0-0.1,0.1-0.2,0.1c-0.2,0.2,0.1-0.1-0.1,0
				c-0.1,0.1-0.3,0.2-0.4,0.3c-0.3,0.2-0.6,0.4-0.9,0.6c-0.6,0.4-1.2,0.7-1.8,1c0,0-0.2,0.1-0.1,0.1c0.1-0.1-0.1,0.1-0.2,0.1
				c-0.2,0.1-0.3,0.1-0.5,0.2c-0.3,0.1-0.7,0.2-1,0.3c-0.7,0.2-1.4,0.4-2.2,0.5c-0.1,0-0.2,0-0.2,0c-0.1,0-0.3,0-0.1,0
				c-0.2,0-0.4,0-0.6,0.1c-0.4,0-0.8,0.1-1.2,0.1c-0.8,0-1.5,0-2.3-0.1c-0.2,0-0.4,0-0.6-0.1c-0.1,0-0.2,0-0.2,0c0.2,0-0.1,0-0.1,0
				c-0.4-0.1-0.7-0.1-1.1-0.2c-0.7-0.2-1.4-0.3-2.1-0.6c-0.2-0.1-0.3-0.1-0.5-0.2c-0.1,0-0.1-0.1-0.2-0.1c-0.1,0-0.3-0.1-0.1,0
				c-0.3-0.1-0.6-0.3-0.9-0.4c-0.6-0.3-1.2-0.7-1.8-1c-0.1-0.1-0.3-0.2-0.4-0.3c-0.1,0-0.1-0.1-0.2-0.1c0,0-0.1-0.1,0,0
				c0.1,0.1,0,0-0.1-0.1c-0.3-0.2-0.5-0.4-0.7-0.6c-0.5-0.4-0.9-0.9-1.3-1.4c0,0-0.1-0.1-0.1-0.1c0,0,0.1,0.2,0.1,0.1
				c0-0.1-0.1-0.1-0.1-0.2c-0.1-0.1-0.2-0.3-0.3-0.4c-0.2-0.3-0.3-0.5-0.5-0.8c-0.2-0.3-0.3-0.6-0.4-0.8c0,0,0-0.1,0-0.1
				c0,0,0.1,0.2,0,0.1c0-0.1-0.1-0.1-0.1-0.2c-0.1-0.1-0.1-0.3-0.2-0.4c-0.1-0.3-0.2-0.6-0.3-0.9c0-0.1-0.1-0.3-0.1-0.4
				c0-0.1,0-0.1,0-0.2c0,0,0-0.3,0-0.2c0,0.2,0-0.1,0-0.1C6,63.1,6,63,6,63c0-0.2,0-0.3,0-0.5c0-0.3,0-0.6,0-0.9c0-0.1,0-0.3,0-0.4
				c0,0,0-0.1,0-0.1c0-0.2,0,0.1,0,0.1c0,0,0-0.2,0-0.3c0-0.3,0.1-0.6,0.2-0.9c0.1-0.3,0.2-0.6,0.3-0.9c0.1-0.1,0.1-0.3,0.2-0.4
				c-0.1,0.1,0,0.1,0,0c0-0.1,0.1-0.2,0.1-0.2c0.3-0.6,0.6-1.1,0.9-1.6c0.1-0.1,0.2-0.3,0.3-0.4c-0.1,0.1,0,0,0,0
				c0.1-0.1,0.1-0.1,0.2-0.2c0.2-0.2,0.4-0.5,0.7-0.7c0.2-0.2,0.5-0.4,0.7-0.7c0.1-0.1,0.2-0.2,0.4-0.3c0.1-0.1,0.1-0.1,0.2-0.2
				c0,0,0.1,0,0.1-0.1c-0.2,0.1,0,0,0,0c0.5-0.4,1.1-0.8,1.7-1.1c0.3-0.2,0.6-0.3,0.9-0.5c0.1-0.1,0.3-0.1,0.5-0.2
				c0,0,0.3-0.1,0.2-0.1c-0.1,0,0,0,0,0c0.1,0,0.1,0,0.2-0.1c0.7-0.3,1.4-0.5,2.1-0.7c0.4-0.1,0.7-0.2,1.1-0.2
				c0.2,0,0.3-0.1,0.5-0.1c0.1,0,0.2,0,0.3,0c0,0,0.1,0,0.1,0c0.2,0-0.1,0,0,0c1.6-0.2,3.2-0.2,4.8,0c-0.2,0,0.1,0,0.1,0
				c0.1,0,0.2,0,0.3,0.1c0.2,0,0.4,0.1,0.6,0.1c0.4,0.1,0.8,0.2,1.2,0.3c0.4,0.1,0.8,0.2,1.1,0.4c0.2,0.1,0.4,0.1,0.5,0.2
				c0.1,0,0.2,0.1,0.3,0.1c0.1,0,0,0,0,0c0.1,0,0.1,0,0.2,0.1c0.7,0.3,1.4,0.7,2,1.1c0.3,0.2,0.6,0.4,0.9,0.6c0,0,0.3,0.2,0.1,0.1
				c0.1,0,0.1,0.1,0.2,0.1c0.1,0.1,0.3,0.2,0.4,0.4c0.3,0.2,0.5,0.5,0.9,0.5c0.3,0,0.6-0.1,0.9-0.2c0.4-0.1,0.9-0.3,1.3-0.4
				c0.8-0.3,1.7-0.7,2.4-1.2c0.8-0.5,1.4-1.1,2-1.9c-0.6-0.3-1.2-0.5-1.8-0.8c-0.2,0.4-0.4,0.9-0.6,1.3c-0.2,0.5,0.2,1.1,0.7,1.2
				C37,53.5,37.4,53.2,37.6,52.7z"/>
		</g>
	</g>
</g>
</svg>
