<?xml version="1.0" encoding="utf-8"?>
<!-- Generator: Adobe Illustrator 24.0.3, SVG Export Plug-In . SVG Version: 6.00 Build 0)  -->
<svg version="1.1" id="Layer_1" xmlns="http://www.w3.org/2000/svg" xmlns:xlink="http://www.w3.org/1999/xlink" x="0px" y="0px"
	 viewBox="0 0 238.6 200" style="enable-background:new 0 0 238.6 200;" xml:space="preserve">
<style type="text/css">
	.st0{fill:#02B4CD;}
	.st1{fill:none;stroke:#02B4CD;stroke-width:9;stroke-miterlimit:10;}
	.st2{fill:none;stroke:#02B4CD;stroke-width:9;stroke-linecap:round;stroke-miterlimit:10;}
	.st3{opacity:0.4;}
	.st4{fill:#D70C41;}
	.st5{fill:#23A4C1;}
	.st6{fill:#FFD800;}
	.st7{fill:#FFFFFF;}
	.st8{fill:none;stroke:#02B4CD;stroke-width:12;stroke-linecap:round;stroke-linejoin:round;stroke-miterlimit:10;}
	.st9{fill:none;stroke:#02B4CD;stroke-width:10;stroke-miterlimit:10;}
	.st10{fill:none;stroke:#02B4CD;stroke-width:10;stroke-linecap:round;stroke-linejoin:round;stroke-miterlimit:10;}
	.st11{fill:none;stroke:#FFFFFF;stroke-width:26;stroke-linecap:round;stroke-linejoin:round;stroke-miterlimit:10;}
	.st12{fill:none;stroke:#02B4CD;stroke-width:12;stroke-linecap:round;stroke-miterlimit:10;}
	.st13{fill:#02B4CD;stroke:#02B4CD;stroke-width:3;stroke-miterlimit:10;}
	.st14{fill:none;stroke:#FF1F1F;stroke-width:31;stroke-miterlimit:10;}
	.st15{fill:none;stroke:#FF1F1F;stroke-width:25;stroke-miterlimit:10;}
	.st16{fill:#FF1F1F;}
	.st17{fill:none;stroke:#FF1F1F;stroke-miterlimit:10;}
	.st18{opacity:0.4;fill:#FF1F1F;stroke:#FF1F1F;stroke-miterlimit:10;}
</style>
<g>
	<circle class="st7" cx="49.6" cy="88.2" r="8.9"/>
	<circle class="st7" cx="189.9" cy="88.4" r="8.9"/>
	<circle class="st7" cx="133.5" cy="88" r="8.9"/>
	<path class="st7" d="M199.4,0H39.2C17.5,0,0,17.5,0,39.2v86.4c0,21.6,17.5,39.2,39.2,39.2h54.4l21,32.7c2.1,3.3,7,3.3,9.1,0
		l21-32.7h54.8c21.6,0,39.2-17.5,39.2-39.2V39.2C238.6,17.5,221.1,0,199.4,0z M53.8,110.6c-5.2,0-9.9-2.4-13.3-6.4v5H25.8V48h14.7
		v23.8c3.4-3.9,8.1-6.4,13.3-6.4C64.4,65.5,73,75.6,73,88S64.4,110.6,53.8,110.6z M98.3,108.9h-13V68.2c0-3.8-2.8-6.8-6.2-6.8v-14
		c10.6,0,19.1,9.3,19.1,20.9V108.9z M133.5,110.6c-14,0-25.3-10.1-25.3-22.6s11.3-22.6,25.3-22.6s25.3,10.1,25.3,22.6
		S147.5,110.6,133.5,110.6z M212.5,111.6c0,11.1-12.1,20.2-27,20.2v-13.7c7.4,0,13.3-2.9,13.3-6.5v-7.9c-3.5,4.2-8.4,6.8-13.8,6.8
		c-10.7,0-19.3-10.1-19.3-22.6s8.6-22.6,19.3-22.6c5.4,0,10.3,2.6,13.8,6.8v-5.1h13.7V111.6z"/>
</g>
</svg>
