<?xml version="1.0" encoding="utf-8"?>
<!-- Generator: Adobe Illustrator 24.0.3, SVG Export Plug-In . SVG Version: 6.00 Build 0)  -->
<svg version="1.1" id="Layer_1" xmlns="http://www.w3.org/2000/svg" xmlns:xlink="http://www.w3.org/1999/xlink" x="0px" y="0px"
	 viewBox="0 0 284.7 200" style="enable-background:new 0 0 284.7 200;" xml:space="preserve">
<style type="text/css">
	.st0{fill:#02B4CD;}
	.st1{fill:none;stroke:#02B4CD;stroke-width:9;stroke-miterlimit:10;}
	.st2{fill:none;stroke:#02B4CD;stroke-width:9;stroke-linecap:round;stroke-miterlimit:10;}
	.st3{opacity:0.4;}
	.st4{fill:#D70C41;}
	.st5{fill:#23A4C1;}
	.st6{fill:#FFD800;}
	.st7{fill:#FFFFFF;}
	.st8{fill:none;stroke:#02B4CD;stroke-width:12;stroke-linecap:round;stroke-linejoin:round;stroke-miterlimit:10;}
	.st9{fill:none;stroke:#02B4CD;stroke-width:10;stroke-miterlimit:10;}
	.st10{fill:none;stroke:#02B4CD;stroke-width:10;stroke-linecap:round;stroke-linejoin:round;stroke-miterlimit:10;}
	.st11{fill:none;stroke:#FFFFFF;stroke-width:26;stroke-linecap:round;stroke-linejoin:round;stroke-miterlimit:10;}
	.st12{fill:none;stroke:#02B4CD;stroke-width:12;stroke-linecap:round;stroke-miterlimit:10;}
	.st13{fill:#02B4CD;stroke:#02B4CD;stroke-width:3;stroke-miterlimit:10;}
	.st14{fill:none;stroke:#FF1F1F;stroke-width:31;stroke-miterlimit:10;}
	.st15{fill:none;stroke:#FF1F1F;stroke-width:25;stroke-miterlimit:10;}
	.st16{fill:#FF1F1F;}
	.st17{fill:none;stroke:#FF1F1F;stroke-miterlimit:10;}
	.st18{opacity:0.4;fill:#FF1F1F;stroke:#FF1F1F;stroke-miterlimit:10;}
</style>
<path class="st7" d="M279.7,32.3c0,0-3.8-24-36.1-28.5S142.4,0,142.4,0s-69-0.6-101.2,3.8S5.1,32.3,5.1,32.3S0,53.8,0,100
	s5.1,67.7,5.1,67.7s3.8,24,36.1,28.5c32.3,4.4,101.2,3.8,101.2,3.8s69,0.6,101.2-3.8c32.3-4.4,36.1-28.5,36.1-28.5
	s5.1-21.5,5.1-67.7S279.7,32.3,279.7,32.3z M114.2,142.7V57.9l74,42.4L114.2,142.7z"/>
</svg>
