<?xml version="1.0" encoding="utf-8"?>
<!-- Generator: Adobe Illustrator 24.0.3, SVG Export Plug-In . SVG Version: 6.00 Build 0)  -->
<svg version="1.1" id="Layer_1" xmlns="http://www.w3.org/2000/svg" xmlns:xlink="http://www.w3.org/1999/xlink" x="0px" y="0px"
	 viewBox="0 0 200 200" style="enable-background:new 0 0 200 200;" xml:space="preserve">
<style type="text/css">
	.st0{fill:#02B4CD;}
	.st1{fill:none;stroke:#02B4CD;stroke-width:9;stroke-miterlimit:10;}
	.st2{fill:none;stroke:#02B4CD;stroke-width:9;stroke-linecap:round;stroke-miterlimit:10;}
	.st3{opacity:0.4;}
	.st4{fill:#D70C41;}
	.st5{fill:#23A4C1;}
	.st6{fill:#FFD800;}
	.st7{fill:#FFFFFF;}
	.st8{fill:none;stroke:#02B4CD;stroke-width:12;stroke-linecap:round;stroke-linejoin:round;stroke-miterlimit:10;}
	.st9{fill:none;stroke:#02B4CD;stroke-width:10;stroke-miterlimit:10;}
	.st10{fill:none;stroke:#02B4CD;stroke-width:10;stroke-linecap:round;stroke-linejoin:round;stroke-miterlimit:10;}
	.st11{fill:none;stroke:#FFFFFF;stroke-width:26;stroke-linecap:round;stroke-linejoin:round;stroke-miterlimit:10;}
	.st12{fill:none;stroke:#02B4CD;stroke-width:12;stroke-linecap:round;stroke-miterlimit:10;}
	.st13{fill:#02B4CD;stroke:#02B4CD;stroke-width:3;stroke-miterlimit:10;}
	.st14{fill:none;stroke:#FF1F1F;stroke-width:31;stroke-miterlimit:10;}
	.st15{fill:none;stroke:#FF1F1F;stroke-width:25;stroke-miterlimit:10;}
	.st16{fill:#FF1F1F;}
	.st17{fill:none;stroke:#FF1F1F;stroke-miterlimit:10;}
	.st18{opacity:0.4;fill:#FF1F1F;stroke:#FF1F1F;stroke-miterlimit:10;}
</style>
<g>
	<path class="st7" d="M144.1,0H55.9C25.1,0,0,25.1,0,55.9v88.3C0,174.9,25.1,200,55.9,200h88.3c30.8,0,55.9-25.1,55.9-55.9V55.9
		C200,25.1,174.9,0,144.1,0z M183.1,144.1c0,21.5-17.5,39-39,39H55.9c-21.5,0-39-17.5-39-39V55.9c0-21.5,17.5-39,39-39h88.3
		c21.5,0,39,17.5,39,39V144.1z"/>
	<path class="st7" d="M100.3,49.3c-27.8,0-50.4,22.6-50.4,50.4s22.6,50.4,50.4,50.4s50.4-22.6,50.4-50.4S128.1,49.3,100.3,49.3z
		 M100.3,136.5c-20.3,0-36.8-16.5-36.8-36.8S80,62.9,100.3,62.9s36.8,16.5,36.8,36.8S120.6,136.5,100.3,136.5z"/>
	<circle class="st7" cx="151.5" cy="48.5" r="14.7"/>
</g>
</svg>
