<svg id="Layer_1" data-name="Layer 1" xmlns="http://www.w3.org/2000/svg" viewBox="0 0 312.24 95.33"><defs><style>.cls-1{fill:#ffe500;}</style></defs><title>star3</title><polygon class="cls-1" points="65.61 31.38 50.12 0 34.63 31.38 0 36.41 25.06 60.84 19.14 95.33 50.12 79.05 81.09 95.33 75.18 60.84 100.24 36.41 65.61 31.38"/><polygon class="cls-1" points="171.6 31.38 156.12 0 140.63 31.38 106 36.41 131.06 60.84 125.14 95.33 156.12 79.05 187.09 95.33 181.18 60.84 206.24 36.41 171.6 31.38"/><polygon class="cls-1" points="312.24 36.41 277.61 31.38 262.12 0 246.63 31.38 212 36.41 237.06 60.84 231.14 95.33 262.12 79.05 293.09 95.33 287.18 60.84 312.24 36.41"/></svg>