<?xml version="1.0" encoding="utf-8"?>
<!-- Generator: Adobe Illustrator 24.0.3, SVG Export Plug-In . SVG Version: 6.00 Build 0)  -->
<svg version="1.1" id="Layer_1" xmlns="http://www.w3.org/2000/svg" xmlns:xlink="http://www.w3.org/1999/xlink" x="0px" y="0px"
	 viewBox="0 0 100 93.4" style="enable-background:new 0 0 100 93.4;" xml:space="preserve">
<style type="text/css">
	.st0{fill:#02B4CD;}
	.st1{fill:none;stroke:#02B4CD;stroke-width:9;stroke-miterlimit:10;}
	.st2{fill:none;stroke:#02B4CD;stroke-width:9;stroke-linecap:round;stroke-miterlimit:10;}
	.st3{opacity:0.4;}
	.st4{fill:#D70C41;}
	.st5{fill:#23A4C1;}
	.st6{fill:#FFD800;}
	.st7{fill:#FFFFFF;}
	.st8{fill:none;stroke:#02B4CD;stroke-width:12;stroke-linecap:round;stroke-linejoin:round;stroke-miterlimit:10;}
	.st9{fill:none;stroke:#02B4CD;stroke-width:10;stroke-miterlimit:10;}
	.st10{fill:none;stroke:#02B4CD;stroke-width:10;stroke-linecap:round;stroke-linejoin:round;stroke-miterlimit:10;}
</style>
<path class="st7" d="M92.7,31.8C87.2,13.4,70.1,0,50,0S12.8,13.4,7.3,31.8C3,34.1,0,38.7,0,44v15.4c0,7.6,6.2,13.8,13.8,13.8l0,0
	c7.6,0,13.8-6.2,13.8-13.8V44c0-6.6-4.6-12.1-10.8-13.5C22.2,17.6,35.1,8.5,50,8.5s27.8,9.1,33.2,22.1C77,31.9,72.4,37.4,72.4,44
	v15.4c0,5.4,3.2,10.1,7.7,12.4c-2.9,4.3-7.8,7.1-13.4,7.1c-0.6,0-1.2,0.1-1.7,0.4c-1.6-2.2-4.2-3.6-7.2-3.6c-4.9,0-8.9,4-8.9,8.9
	c0,4.9,4,8.9,8.9,8.9c3.9,0,7.2-2.5,8.4-6.1c0.2,0,0.3,0,0.5,0c10,0,18.6-5.9,22.5-14.5C95.4,71.5,100,66,100,59.4V44
	C100,38.7,97,34.1,92.7,31.8z"/>
</svg>
