<?xml version="1.0" encoding="utf-8"?>
<!-- Generator: Adobe Illustrator 24.0.3, SVG Export Plug-In . SVG Version: 6.00 Build 0)  -->
<svg version="1.1" id="Layer_1" xmlns="http://www.w3.org/2000/svg" xmlns:xlink="http://www.w3.org/1999/xlink" x="0px" y="0px"
	 viewBox="0 0 100 71.4" style="enable-background:new 0 0 100 71.4;" xml:space="preserve">
<style type="text/css">
	.st0{fill:#02B4CD;}
	.st1{fill:none;stroke:#02B4CD;stroke-width:9;stroke-miterlimit:10;}
	.st2{fill:none;stroke:#02B4CD;stroke-width:9;stroke-linecap:round;stroke-miterlimit:10;}
	.st3{opacity:0.4;}
	.st4{fill:#D70C41;}
	.st5{fill:#23A4C1;}
	.st6{fill:#FFD800;}
	.st7{fill:#FFFFFF;}
	.st8{fill:none;stroke:#02B4CD;stroke-width:12;stroke-linecap:round;stroke-linejoin:round;stroke-miterlimit:10;}
	.st9{fill:none;stroke:#02B4CD;stroke-width:10;stroke-miterlimit:10;}
	.st10{fill:none;stroke:#02B4CD;stroke-width:10;stroke-linecap:round;stroke-linejoin:round;stroke-miterlimit:10;}
</style>
<path class="st7" d="M98.4,1.7c-1.4-1.6-3.7-2.1-5.7-1.3H6.9C4.9-0.5,2.4,0.2,1,2.1c-1.1,1.5-1.3,3.3-0.6,4.9v59.4
	c0,2.8,2.3,5.1,5.1,5.1h89.5c2.8,0,5.1-2.3,5.1-5.1V5.4C100,4,99.4,2.6,98.4,1.7z M78.7,10.5L49.8,31.8L21,10.5H78.7z M10.5,61.3
	V15.4l36.3,26.8c0.9,0.7,2,1,3,1c1.1,0,2.1-0.3,3-1l37-27.3v46.4H10.5z"/>
</svg>
