<?xml version="1.0" encoding="utf-8"?>
<!-- Generator: Adobe Illustrator 16.0.0, SVG Export Plug-In . SVG Version: 6.00 Build 0)  -->
<!DOCTYPE svg PUBLIC "-//W3C//DTD SVG 1.1//EN" "http://www.w3.org/Graphics/SVG/1.1/DTD/svg11.dtd">
<svg version="1.1" id="Layer_1" xmlns="http://www.w3.org/2000/svg" xmlns:xlink="http://www.w3.org/1999/xlink" x="0px" y="0px"
	 width="883.865px" height="143.756px" viewBox="0 0 883.865 143.756" enable-background="new 0 0 883.865 143.756"
	 xml:space="preserve">
<g>
	<path fill="#FFFFFF" d="M61.518,86.004c0,0,0,0-0.139,0C49.381,88.793,36.827,89.631,34.316,98l-0.558,2.512
		c-0.139,3.627,2.232,6.555,5.72,7.113h7.393c4.045-0.559,7.812-4.045,8.509-8.09l0.837-4.186h27.899l-0.14,0.559L83,101.209
		l-1.116,6.416l-3.208,17.438l-0.698,3.766H37.664h-3.767h-5.301H27.76H0l4.464-24.412l0.558-3.348l0.977-4.742l0.279-1.814
		c0.14-0.139,0.14-0.139,0.14-0.139h-0.14c2.372-12.694,8.37-20.227,17.716-24.691h4.185c2.79-1.395,5.859-2.371,9.207-3.208
		c2.093-0.698,4.045-1.116,6.138-1.396l2.929-0.418c18.553-2.65,20.785-7.533,21.761-12.137l-0.418,2.093
		c0-0.279,0.14-0.419,0.14-0.558l0.279-1.396l0.14-1.255l2.232-12.137c0.837-4.604-2.092-8.23-6.556-8.23c-0.14,0-0.279,0-0.279,0
		h-0.558h-4.324h-0.558H58.17c-4.604,0-8.928,3.627-9.765,8.23l-2.372,13.392H18.134l2.79-15.065l1.953-10.462
		c5.859-9.765,17.019-16.74,28.457-16.74h1.674h0.698h6.556h2.372h4.324h5.58h4.185c14.926,0,24.831,12.137,22.18,27.202
		L96.95,47.782l-0.837,4.882l-0.558,3.209c-0.977,4.882-3.069,9.485-6.138,13.81h-4.185C79.513,77.634,70.864,83.911,61.518,86.004z
		 M86.767,37.041l0.139-0.698c0.837-5.301-0.139-9.625-2.79-12.693c-2.372-2.79-6.277-4.325-11.021-4.325H47.149
		c-11.997,0-14.368,12.834-15.624,19.669c-0.139,0.698-0.279,1.396-0.418,1.953l4.604,0.977c0.14-0.697,0.279-1.255,0.418-2.092
		c1.535-8.37,3.487-15.903,11.02-15.903h25.946c1.953,0,5.44,0.419,7.533,2.79c1.674,1.953,2.232,5.022,1.674,9.067l-0.14,0.558
		c-1.535,11.021-3.208,22.459-11.438,28.876c-5.58,4.324-17.158,7.114-26.365,9.207c-4.882,1.255-9.207,2.231-11.857,3.348
		c-7.951,3.208-13.67,7.951-15.902,20.924c-1.953,11.717-3.069,18.273-3.069,18.273l-0.558,2.791h54.125l3.627-15.764l-4.604-1.115
		l-2.79,12.135H18.553c0.419-2.928,1.395-8.229,2.651-15.482c1.813-10.881,6.138-14.648,13.112-17.578
		c2.232-0.837,6.417-1.813,11.16-2.929c9.625-2.372,21.622-5.162,28.039-10.184C83.279,61.313,85.092,48.479,86.767,37.041z"/>
	<path fill="#FFFFFF" d="M177.719,37.599l-5.859,32.084h-4.185l-5.859,31.945c-2.79,14.926-17.158,27.063-32.084,27.063h-19.39
		c-14.926,0-24.83-12.137-22.18-27.063l5.859-31.945h4.185l5.859-32.084c2.79-14.926,17.158-27.063,32.084-27.063h19.39
		C170.605,10.536,180.509,22.673,177.719,37.599z M162.514,25.741c-3.487-4.185-9.207-6.417-17.019-6.417h-2.511
		c-23.854,0-26.086,12.137-28.178,23.854l-4.464,23.993h-3.348l-5.162,27.899c-0.977,5.441-1.674,13.252,2.65,18.553
		c3.487,4.186,9.207,6.139,17.577,6.139h2.511c23.854,0,26.226-12.695,28.178-23.854l4.464-24.133h3.348l5.161-27.76
		C167.118,36.064,166.001,29.927,162.514,25.741z M158.887,28.671c2.65,3.069,3.348,8.091,2.232,14.508l-4.464,23.993h-3.348
		l-5.162,27.899c-1.953,11.16-3.626,19.947-23.575,19.947h-2.511c-6.835,0-11.578-1.395-13.95-4.324s-2.929-7.672-1.674-14.785
		l4.464-24.133h3.348l5.162-27.76c1.953-11.16,3.627-19.948,23.575-19.948h2.511C151.773,24.067,156.376,25.602,158.887,28.671z
		 M141.032,32.855c-4.464,0-8.788,3.627-9.625,8.23l-5.301,28.597h-4.185L116.76,98c-0.837,4.463,2.092,8.23,6.696,8.23
		c4.464,0,8.788-3.768,9.625-8.23l5.162-28.318h4.185l5.301-28.597C148.564,36.482,145.496,32.855,141.032,32.855z"/>
	<path fill="#FFFFFF" d="M204.923,101.766c-0.698,3.906,1.813,7.115,5.719,7.115l-3.627,19.809h-6.975h-27.899h-7.114l3.627-19.809
		c3.906,0,7.672-3.209,8.37-7.115l5.859-32.083h4.185l5.58-30.131h-7.114l1.674-9.347c5.301-4.882,9.207-11.159,10.462-18.273
		l0.279-1.396h27.899l-10.881,59.146h-4.185L204.923,101.766z M212.734,20.022l-4.604-0.837l-8.788,47.986h-4.185l-9.486,52.17
		l4.603,0.838l8.789-48.265h4.185L212.734,20.022z"/>
	<path fill="#FFFFFF" d="M310.242,27.137l-1.814,10.462l-2.789,15.065l-1.813,9.765l-0.558,3.209l-0.838,4.045h-4.045l-2.232,11.997
		l-0.279,1.255l-3.488,18.693c-2.65,15.064-17.019,27.201-32.084,27.201h-4.045h-5.58h-4.325h-2.511h-6.417h-0.837h-1.674
		c-11.438,0-19.948-6.975-22.319-16.738l1.953-10.463l0.977-5.719h27.899l-0.697,4.045c-0.837,4.604,2.092,8.23,6.696,8.23h0.139
		h0.558h4.324h0.558h0.14c4.603,0,8.928-3.627,9.765-8.23l2.65-14.369h-1.116h-0.697h-6.556h-2.372h-2.511h-7.394h-2.372
		c-10.88,0-19.111-6.556-21.761-15.902h4.185c-0.977-3.487-1.116-7.254-0.418-11.299l1.116-5.72l2.79-15.065
		c2.79-15.065,17.158-27.202,32.084-27.202h4.045h5.58h4.324h2.511h6.417h0.837h1.674C299.361,10.396,307.871,17.372,310.242,27.137
		z M293.502,23.091c-2.092-2.511-5.301-3.767-9.904-3.767h-22.319c-14.229,0-18.414,12.137-20.506,23.854l-2.929,16.042l2.231,0.418
		l-2.231-0.418c-0.977,4.742,0.139,9.067,2.929,12.415c2.65,3.208,6.696,5.021,11.16,5.021h28.736l-3.348,18.414
		c-2.511,13.393-8.23,19.947-17.437,19.947h-20.087c-4.045,0-6.556-0.697-7.951-2.23c-1.395-1.674-1.674-4.744-0.977-9.486
		l-4.604-0.697c-0.976,6.277-0.279,10.463,2.093,13.252c2.232,2.65,5.859,3.766,11.438,3.766h20.087
		c11.718,0,19.111-7.951,21.901-23.713l4.464-23.994h3.348l5.161-27.899C296.292,35.367,297.408,27.694,293.502,23.091z
		 M290.015,26.16c2.511,2.93,1.534,9.765,0.139,17.019l-4.464,23.993h-3.348l-0.837,4.743h-29.573c-3.069,0-5.859-1.116-7.672-3.349
		c-1.813-2.231-2.511-5.161-1.953-8.509l3.069-16.042c2.65-14.368,7.114-19.948,15.902-19.948h22.319
		C286.807,24.067,288.759,24.765,290.015,26.16z M273.555,31.042c-0.14,0-0.14,0-0.279,0h-0.558h-4.324h-0.418
		c-0.14,0-0.14,0-0.279,0c-4.464,0-8.789,3.627-9.625,8.23l-2.511,13.392l-0.698,4.046c-0.837,4.464,1.953,7.951,6.138,8.229h3.766
		h2.372c1.116,0,2.372,0,2.372,0c2.371,0,4.603-0.977,6.417-2.511l1.813-9.765l2.511-13.392
		C280.948,34.669,278.019,31.042,273.555,31.042z"/>
	<path fill="#FFFFFF" d="M434.954,27.137l-1.953,10.462l-2.79,15.065h-27.898l2.511-13.392c0.837-4.604-2.093-8.23-6.696-8.23
		c-0.278,0-0.418,0-0.697,0s-0.558,0-0.837,0c-4.464,0-8.788,3.627-9.625,8.23l-0.837,4.883l-0.279,1.395l-0.279,1.256
		c0,0.14,0,0.278,0,0.558l0.279-2.093c-0.697,4.604-0.279,9.486,17.298,12.137l2.79,0.418c1.952,0.14,3.905,0.698,5.579,1.256
		c7.254,2.093,12.555,5.301,15.205,10.462h-4.185c2.371,4.324,2.93,10.044,1.534,17.438c-0.14,0.697-0.278,1.395-0.278,2.092
		l-1.116,5.439l-0.419,2.65l-0.697,3.906c-2.79,15.346-17.576,27.76-32.781,27.76h-6.139h-3.905h-2.65h-1.953h-7.114h-0.837h-1.674
		c-11.718,0-20.506-7.113-22.878-17.018l1.953-10.742l3.348-18.552h28.598l-3.069,16.878c-0.837,4.186,1.674,7.672,5.58,8.23h6.695
		c4.046-0.559,7.812-4.045,8.649-8.23l0.278-2.232l0.559-2.65l0.418-2.65c1.813-9.345-11.159-10.322-22.599-13.112l-0.139-0.14
		c-5.72-1.395-10.463-4.604-13.811-9.067h4.186c-4.325-5.58-6.277-13.112-4.883-20.924l0.558-3.069l0.837-5.021l0.559-2.93
		c2.789-15.065,17.158-27.202,32.084-27.202h9.765h8.928h0.697h1.813C424.073,10.396,432.583,17.372,434.954,27.137z M419.052,26.16
		c-2.372-2.93-6.417-4.324-12.137-4.324h-17.716c-6.277,0-14.646,3.766-17.576,14.089c-2.511,9.207-4.324,21.482,1.534,28.038
		c5.302,5.72,12.276,6.976,19.809,8.37c1.116,0.279,2.232,0.419,3.348,0.697c8.649,1.813,12.276,6.836,11.021,14.927l-0.279,1.674
		c-1.255,8.508-1.813,11.717-2.79,15.344c-1.395,4.604-5.301,10.043-11.856,10.043h-23.296c-2.93,0-5.302-0.977-6.976-2.928
		c-1.952-2.094-2.789-5.441-2.371-8.928c0.977-6.977,1.535-11.301,1.535-11.439l-4.604-0.559c0,0-0.559,4.324-1.535,11.439
		c-0.558,4.742,0.697,9.346,3.488,12.555c2.65,2.93,6.137,4.463,10.462,4.463h23.296c9.206,0,14.507-7.254,16.32-13.391
		c1.116-3.768,1.535-7.115,2.93-15.902l0.279-1.535c1.674-10.601-3.627-17.995-14.647-20.366c-1.255-0.14-2.371-0.419-3.487-0.559
		c-6.975-1.395-12.973-2.511-17.158-7.114c-3.487-3.767-3.627-12.275-0.558-23.714c2.231-7.673,8.229-10.463,13.112-10.463h17.716
		c4.325,0,7.114,0.837,8.51,2.512c1.813,2.231,1.953,6.416,0.418,13.949l4.604,0.837C421.702,37.319,422.539,30.484,419.052,26.16z"
		/>
	<path fill="#FFFFFF" d="M444.442,30.345l3.627-19.809h7.114h6.836h5.858h15.205h1.674h2.93l4.464,41.57l0.279,2.79l3.487-18.832
		c0-3.487-1.256-6.138-3.209-6.138l3.627-19.391h4.325h0.139h27.62h7.114l-3.627,19.809c-3.905,0-7.672,3.209-8.369,7.114
		l-5.859,32.084h-4.185l-5.58,30.549c-0.977,5.021,0.279,9.207,2.79,9.207l-3.487,19.391h-4.604h-3.487h-24.133h-0.278h-4.325
		l-4.882-45.476l-3.627,19.949c0,3.486,1.256,6.137,3.208,6.137l-3.627,19.391h-4.185h-0.279h-27.62h-7.114l3.627-19.809
		c3.906,0,7.673-3.209,8.37-7.115l5.858-32.223h4.186l5.998-32.084C450.999,33.554,448.349,30.345,444.442,30.345z M451.696,67.172
		l-9.485,52.17l4.464,0.838l8.928-48.265h4.185l8.37-45.337h1.813l13.252,93.043h10.602l8.788-47.707h4.186l9.066-49.661
		l-4.464-0.837l-8.509,45.755h-4.045l-8.789,47.846h-2.79l-13.252-93.182h-9.765l-8.369,45.336H451.696z"/>
	<path fill="#FFFFFF" d="M570.968,69.543h-4.186l-2.65,14.089h-48.823l2.511-14.089h4.186l2.65-13.81h48.823L570.968,69.543z
		 M561.481,67.312h-33.061v4.742h33.061V67.312z"/>
	<path fill="#FFFFFF" d="M600.542,101.766c-0.697,3.906,1.813,7.115,5.72,7.115l-3.627,19.809h-6.975h-27.899h-7.114l3.627-19.809
		c3.906,0,7.672-3.209,8.37-7.115l5.858-32.083h4.185l5.58-30.131h-7.114l1.674-9.347c5.301-4.882,9.207-11.159,10.462-18.273
		l0.279-1.396h27.899l-10.881,59.146h-4.185L600.542,101.766z M608.354,20.022l-4.604-0.837l-8.788,47.986h-4.186l-9.485,52.17
		l4.604,0.838l8.788-48.265h4.185L608.354,20.022z"/>
	<path fill="#FFFFFF" d="M705.861,27.137l-1.813,10.462l-2.79,15.065l-1.813,9.765l-0.559,3.209l-0.837,4.045h-4.045l-2.232,11.997
		l-0.278,1.255l-3.487,18.693c-2.65,15.064-17.019,27.201-32.084,27.201h-4.046h-5.58h-4.324h-2.511h-6.417h-0.837h-1.674
		c-11.438,0-19.948-6.975-22.319-16.738l1.953-10.463l0.977-5.719h27.899l-0.698,4.045c-0.837,4.604,2.093,8.23,6.696,8.23h0.14
		h0.558h4.324h0.559h0.139c4.604,0,8.928-3.627,9.765-8.23l2.65-14.369h-1.115h-0.698h-6.556h-2.372h-2.511h-7.393h-2.372
		c-10.881,0-19.11-6.556-21.761-15.902h4.185c-0.977-3.487-1.116-7.254-0.419-11.299l1.116-5.72l2.79-15.065
		c2.79-15.065,17.158-27.202,32.084-27.202h4.046h5.579h4.324h2.512h6.416h0.838h1.674C694.98,10.396,703.489,17.372,705.861,27.137
		z M689.121,23.091c-2.092-2.511-5.301-3.767-9.904-3.767h-22.318c-14.229,0-18.414,12.137-20.507,23.854l-2.929,16.042l2.231,0.418
		l-2.231-0.418c-0.977,4.742,0.14,9.067,2.929,12.415c2.651,3.208,6.696,5.021,11.16,5.021h28.736l-3.348,18.414
		c-2.512,13.393-8.23,19.947-17.438,19.947h-20.087c-4.046,0-6.557-0.697-7.952-2.23c-1.395-1.674-1.674-4.744-0.976-9.486
		l-4.604-0.697c-0.977,6.277-0.279,10.463,2.092,13.252c2.232,2.65,5.859,3.766,11.439,3.766h20.087
		c11.718,0,19.111-7.951,21.901-23.713l4.464-23.994h3.348l5.161-27.899C691.911,35.367,693.027,27.694,689.121,23.091z
		 M685.634,26.16c2.511,2.93,1.535,9.765,0.14,17.019l-4.464,23.993h-3.348l-0.837,4.743h-29.573c-3.069,0-5.858-1.116-7.672-3.349
		c-1.813-2.231-2.512-5.161-1.953-8.509l3.068-16.042c2.65-14.368,7.114-19.948,15.903-19.948h22.318
		C682.426,24.067,684.379,24.765,685.634,26.16z M669.174,31.042c-0.14,0-0.14,0-0.279,0h-0.558h-4.324h-0.419
		c-0.14,0-0.14,0-0.279,0c-4.464,0-8.788,3.627-9.625,8.23l-2.511,13.392l-0.697,4.046c-0.837,4.464,1.952,7.951,6.138,8.229h3.767
		h2.371c1.116,0,2.371,0,2.371,0c2.372,0,4.604-0.977,6.417-2.511l1.813-9.765l2.511-13.392
		C676.566,34.669,673.638,31.042,669.174,31.042z"/>
	<path fill="#FFFFFF" d="M788.725,27.137l-1.952,10.462l-2.79,15.065h-27.899l2.511-13.392c0.837-4.604-2.092-8.23-6.695-8.23
		c-0.279,0-0.419,0-0.697,0c-0.279,0-0.559,0-0.838,0c-4.464,0-8.788,3.627-9.625,8.23l-0.837,4.883l-0.278,1.395l-0.279,1.256
		c0,0.14,0,0.278,0,0.558l0.279-2.093c-0.698,4.604-0.279,9.486,17.297,12.137l2.79,0.418c1.953,0.14,3.906,0.698,5.58,1.256
		c7.254,2.093,12.555,5.301,15.205,10.462h-4.186c2.372,4.324,2.93,10.044,1.535,17.438c-0.14,0.697-0.279,1.395-0.279,2.092
		l-1.116,5.439l-0.418,2.65l-0.697,3.906c-2.79,15.346-17.577,27.76-32.782,27.76h-6.138h-3.906h-2.65h-1.952h-7.114h-0.837h-1.675
		c-11.717,0-20.506-7.113-22.877-17.018l1.953-10.742l3.348-18.552H729.3l-3.069,16.878c-0.837,4.186,1.675,7.672,5.58,8.23h6.696
		c4.045-0.559,7.812-4.045,8.648-8.23l0.279-2.232l0.558-2.65l0.419-2.65c1.813-9.345-11.16-10.322-22.599-13.112l-0.14-0.14
		c-5.719-1.395-10.462-4.604-13.81-9.067h4.185c-4.324-5.58-6.277-13.112-4.883-20.924l0.559-3.069l0.837-5.021l0.558-2.93
		c2.79-15.065,17.158-27.202,32.084-27.202h9.765h8.928h0.698h1.813C777.845,10.396,786.354,17.372,788.725,27.137z M772.822,26.16
		c-2.371-2.93-6.416-4.324-12.136-4.324h-17.716c-6.277,0-14.647,3.766-17.577,14.089c-2.511,9.207-4.324,21.482,1.535,28.038
		c5.301,5.72,12.275,6.976,19.809,8.37c1.115,0.279,2.231,0.419,3.348,0.697c8.648,1.813,12.275,6.836,11.02,14.927l-0.278,1.674
		c-1.256,8.508-1.813,11.717-2.79,15.344c-1.396,4.604-5.301,10.043-11.857,10.043h-23.296c-2.929,0-5.301-0.977-6.975-2.928
		c-1.953-2.094-2.79-5.441-2.371-8.928c0.977-6.977,1.534-11.301,1.534-11.439l-4.604-0.559c0,0-0.558,4.324-1.534,11.439
		c-0.559,4.742,0.697,9.346,3.487,12.555c2.65,2.93,6.138,4.463,10.462,4.463h23.296c9.207,0,14.508-7.254,16.321-13.391
		c1.116-3.768,1.534-7.115,2.93-15.902l0.278-1.535c1.674-10.601-3.627-17.995-14.646-20.366c-1.256-0.14-2.372-0.419-3.487-0.559
		c-6.976-1.395-12.974-2.511-17.158-7.114c-3.487-3.767-3.627-12.275-0.559-23.714c2.232-7.673,8.23-10.463,13.113-10.463h17.716
		c4.324,0,7.114,0.837,8.509,2.512c1.813,2.231,1.953,6.416,0.419,13.949l4.604,0.837C775.473,37.319,776.31,30.484,772.822,26.16z"
		/>
	<path fill="#FFFFFF" d="M873.96,33.414l-26.645,36.129h0.14h-4.185l11.857,32.223c1.813,4.883,3.348,7.115,7.254,7.115
		l-3.627,19.809h-32.224l1.115-5.998c0,0,0.279-2.791-0.418-4.883l-6.557-17.717l-12.973,17.717
		c-1.674,2.092-2.232,4.883-2.232,4.883l-1.115,5.998h-32.363l3.627-19.809c3.905,0,6.277-2.232,9.904-7.115l23.714-32.223h4.185
		l-13.252-36.129c-1.115-1.813-2.79-3.209-5.161-3.209l3.627-19.809h31.805l-1.115,6.557c0,0-0.419,2.371,0.278,4.464l6.417,17.438
		l12.834-17.438c1.395-2.093,1.953-4.464,1.953-4.464l1.255-6.557h31.806l-3.627,19.809
		C877.865,30.205,875.773,31.601,873.96,33.414z M868.24,20.859l-3.767-2.79l-34.176,46.452l-16.461-45.755l-4.464,1.534
		l17.019,46.871h-4.185l1.952,5.58l-33.479,45.475l3.767,2.791l31.665-43.105l15.902,42.685l4.325-1.674l-17.438-47.009h4.185
		l-0.837-2.232L868.24,20.859z"/>
</g>
</svg>
