<?xml version="1.0" encoding="utf-8"?>
<!-- Generator: Adobe Illustrator 16.0.0, SVG Export Plug-In . SVG Version: 6.00 Build 0)  -->
<!DOCTYPE svg PUBLIC "-//W3C//DTD SVG 1.1//EN" "http://www.w3.org/Graphics/SVG/1.1/DTD/svg11.dtd">
<svg version="1.1" id="Layer_1" xmlns="http://www.w3.org/2000/svg" xmlns:xlink="http://www.w3.org/1999/xlink" x="0px" y="0px"
	 width="237.527px" height="188.663px" viewBox="0 0 237.527 188.663" enable-background="new 0 0 237.527 188.663"
	 xml:space="preserve">
<g>
	<path fill="#FFD700" d="M-586.396,186.006l83.611-144.819l-37.97,10.629l3.803-30.558L-473.47,0h44.29l-107.391,186.006H-586.396z"
		/>
</g>
<g>
	<path fill="#FFD700" d="M-107.766,58.459c-8.695,15.059-22.855,28.08-42.482,39.062c-6.006,3.367-12.378,6.734-19.116,10.097
		l-83.293,41.187h92.731l-21.479,37.201h-149.477l29.149-50.487l139.539-69.088l7.67-13.286c6.137-10.629,3.669-15.943-7.403-15.943
		h-77.506L-217.955,0h88.579C-110,0-98.361,4.21-94.45,12.622c3.903,8.416,0.492,21.922-10.248,40.522L-107.766,58.459z"/>
</g>
<g>
	<path fill="#FFD700" d="M99.351,188.663c-30.822,0-63.936-1.772-99.351-5.314l20.711-35.873
		c39.247,2.657,68.929,3.986,89.046,3.986c4.242,0,8.303-1.196,12.174-3.587c3.872-2.391,6.982-5.622,9.337-9.699l6.137-10.629
		c6.137-10.629,3.668-15.943-7.404-15.943H71.871l21.478-37.201h52.594c11.072,0,19.676-5.314,25.813-15.943l3.068-5.314
		c6.137-10.629,3.67-15.943-7.402-15.943H87.146L108.625,0h94.115c18.084,0,29.092,3.944,33.033,11.825
		c3.934,7.885,1.251,19.888-8.055,36.005c-6.137,10.629-13.662,19.265-22.57,25.908c-8.912,6.643-18.285,11.293-28.123,13.95
		c12.697,3.899,17.321,13.465,13.88,28.698c-1.329,5.493-4.085,11.87-8.277,19.132l-1.534,2.657
		c-10.024,17.363-21.636,30.118-34.824,38.264C133.073,184.59,117.433,188.663,99.351,188.663z"/>
</g>
</svg>
