<?xml version="1.0" encoding="utf-8"?>
<!-- Generator: Adobe Illustrator 16.0.0, SVG Export Plug-In . SVG Version: 6.00 Build 0)  -->
<!DOCTYPE svg PUBLIC "-//W3C//DTD SVG 1.1//EN" "http://www.w3.org/Graphics/SVG/1.1/DTD/svg11.dtd">
<svg version="1.1" id="Layer_1" xmlns="http://www.w3.org/2000/svg" xmlns:xlink="http://www.w3.org/1999/xlink" x="0px" y="0px"
	 width="410.998px" height="70px" viewBox="0 0 410.998 70" enable-background="new 0 0 410.998 70" xml:space="preserve">
<g>
	<path fill="#FFFFFF" d="M0,70L22.5,0h75.6c1.065,0,2.05,0.267,2.95,0.8c0.9,0.535,1.7,1.268,2.4,2.2
		c0.7,0.935,1.283,2.017,1.75,3.25c0.465,1.234,0.833,2.517,1.1,3.85c0.133,0.667,0.115,1.584-0.05,2.75
		c-0.167,1.167-0.417,2.45-0.75,3.85c-0.334,1.4-0.75,2.9-1.25,4.5c-0.5,1.6-0.984,3.2-1.45,4.8c-1.2,3.667-2.6,7.634-4.2,11.9
		L95,43.6c-0.534,0.8-1.284,1.467-2.25,2c-0.967,0.534-1.817,1.067-2.55,1.6c-0.535,0.334-1.185,0.534-1.95,0.6
		c-0.767,0.067-1.65,0.2-2.65,0.4c-0.2,0.067-0.2,0.417,0,1.05c0.2,0.634,0.533,1.467,1,2.5c0.466,1.034,1.05,2.2,1.75,3.5
		s1.416,2.617,2.15,3.95c1.733,3.2,3.8,6.8,6.2,10.8H64.5L53,47.9h-6.4l5-16.7l20.9-0.3l4.4-13.3H49.2L32.8,70H0z"/>
	<path fill="#FFFFFF" d="M98.799,70l61.699-70H185.7c1.199,0,2.4,0.384,3.6,1.15c1.199,0.767,2.166,1.617,2.9,2.55
		c0.666,0.867,1.283,1.767,1.85,2.7c0.566,0.935,1.051,1.867,1.449,2.8c0.066,0.267,0.334,1.334,0.801,3.2
		c0.465,1.867,1.033,4.234,1.699,7.1c0.666,2.867,1.4,6.117,2.201,9.75c0.799,3.634,1.633,7.317,2.5,11.05
		c2,8.8,4.232,18.7,6.699,29.7H175.1l-3.602-12.9l-28.6-0.4c2.666-3.133,5.1-5.966,7.301-8.5c0.865-1.066,1.75-2.1,2.65-3.1
		c0.898-1,1.699-1.9,2.398-2.7c0.701-0.8,1.484-1.7,2.352-2.7h9.898l-3.6-14.6l-39.6,44.9H98.799z"/>
	<path fill="#FFFFFF" d="M227.798,0h88.2l-5.3,17.5h-56.5l-9.801,32.6c-0.134,0.534-0.017,1.184,0.351,1.95
		c0.365,0.768,0.815,1.15,1.35,1.15c0.333,0,1.4,0,3.2,0s4.05-0.016,6.75-0.05c2.7-0.033,5.716-0.065,9.05-0.1
		c3.333-0.033,6.7-0.05,10.101-0.05c3.399,0,6.699-0.016,9.899-0.05c3.2-0.033,6.016-0.05,8.45-0.05c2.433,0,4.35,0.017,5.75,0.05
		c1.4,0.034,2,0.084,1.8,0.15l-5,16.9h-73.899c-0.801,0-1.668-0.133-2.601-0.4c-0.935-0.266-1.85-0.633-2.75-1.1
		c-0.899-0.466-1.717-1-2.45-1.6c-0.734-0.6-1.334-1.233-1.8-1.9c-0.935-1.466-1.767-3.1-2.5-4.9c-0.734-1.8-0.833-3.533-0.3-5.2
		L227.798,0z"/>
	<path fill="#FFFFFF" d="M322.498,0.1l88.5-0.1l-5.3,17.5h-56.5l-9.801,32.6c-0.134,0.534-0.017,1.184,0.351,1.95
		c0.365,0.768,0.815,1.15,1.35,1.15c0.333,0,1.4,0,3.2,0s4.05-0.016,6.75-0.05c2.7-0.033,5.716-0.065,9.05-0.1
		c3.333-0.033,6.7-0.05,10.101-0.05c3.399,0,6.699-0.016,9.899-0.05c3.2-0.033,6.016-0.05,8.45-0.05c2.433,0,4.35,0.017,5.75,0.05
		c1.4,0.034,2,0.084,1.8,0.15l-5,16.9h-73.899c-0.801,0-1.668-0.133-2.601-0.4c-0.935-0.266-1.85-0.633-2.75-1.1
		c-0.899-0.466-1.717-1-2.45-1.6c-0.734-0.6-1.334-1.233-1.8-1.9c-0.935-1.466-1.767-3.1-2.5-4.9c-0.734-1.8-0.833-3.533-0.3-5.2
		L322.498,0.1z M353.998,26.1h44.899l-5.8,15.6h-44.7L353.998,26.1z"/>
</g>
</svg>
