<?xml version="1.0" encoding="utf-8"?>
<!-- Generator: Adobe Illustrator 16.0.0, SVG Export Plug-In . SVG Version: 6.00 Build 0)  -->
<!DOCTYPE svg PUBLIC "-//W3C//DTD SVG 1.1//EN" "http://www.w3.org/Graphics/SVG/1.1/DTD/svg11.dtd">
<svg version="1.1" id="Layer_1" xmlns="http://www.w3.org/2000/svg" xmlns:xlink="http://www.w3.org/1999/xlink" x="0px" y="0px"
	 width="480.24px" height="119.163px" viewBox="0 0 480.24 119.163" enable-background="new 0 0 480.24 119.163"
	 xml:space="preserve">
<path fill="#FFD700" d="M73.054,0H0v119.163h73.054H480.24V0H73.054z M424.736,43.036h13.039v6.12h-13.039V43.036z M424.736,55.698
	h11.814v5.931h-11.814V55.698z M337.181,42.377l0.658,0.047c2.479,0.157,4.629,0.847,6.449,2.071
	c1.82,1.224,3.061,3.076,3.719,5.555c0.125,0.439,0.213,0.894,0.26,1.365s0.117,0.926,0.211,1.365l-7.344,0.565
	c-0.094-0.847-0.195-1.569-0.305-2.166c-0.111-0.596-0.299-1.083-0.566-1.459c-0.266-0.376-0.635-0.667-1.105-0.871
	c-0.471-0.204-1.129-0.353-1.977-0.447V42.377z M303.195,43.083v28.149l-7.107-11.862l-0.33-16.287H303.195z M141.974,43.083v28.149
	l-7.108-11.862l-0.33-16.287H141.974z M115.19,76.033V47.696l7.061,11.91l0.33,16.428H115.19z M134.96,76.033L115.284,43.13h6.967
	l19.771,32.903H134.96z M161.414,48.496v0.047c-1.444,0.157-2.605,0.573-3.483,1.247c-0.879,0.675-1.562,1.506-2.047,2.495
	c-0.487,0.988-0.809,2.095-0.965,3.318c-0.157,1.224-0.235,2.495-0.235,3.813c0,1.444,0.071,2.77,0.212,3.978
	c0.141,1.208,0.447,2.276,0.918,3.201c0.471,0.926,1.145,1.703,2.024,2.33c0.878,0.628,2.071,1.099,3.578,1.412l-0.047,6.26
	c-0.534,0-1.052-0.008-1.554-0.023s-1.004-0.07-1.506-0.164c-2.04-0.377-3.782-1.105-5.225-2.189
	c-1.444-1.082-2.621-2.393-3.531-3.93c-0.911-1.538-1.577-3.24-2-5.107c-0.424-1.867-0.635-3.79-0.635-5.767
	c0-2.354,0.298-4.566,0.894-6.637c0.596-2.071,1.49-3.875,2.683-5.413c1.192-1.538,2.699-2.761,4.519-3.672
	c1.82-0.91,3.954-1.396,6.402-1.459V48.496z M178.667,65.749c-0.55,2.056-1.381,3.892-2.495,5.507
	c-1.114,1.617-2.526,2.918-4.236,3.907c-1.711,0.988-3.743,1.481-6.096,1.481h-0.847v-6.26c1.475-0.282,2.651-0.721,3.53-1.318
	c0.878-0.596,1.554-1.341,2.024-2.236s0.784-1.922,0.941-3.083c0.157-1.161,0.235-2.463,0.235-3.907
	c0-1.381-0.055-2.714-0.165-4.001c-0.11-1.286-0.393-2.448-0.847-3.483c-0.455-1.035-1.13-1.89-2.024-2.565
	c-0.895-0.674-2.126-1.09-3.695-1.247v-6.308c5.021,0.44,8.692,2.158,11.015,5.155c2.322,2.997,3.483,7.006,3.483,12.027
	C179.49,61.583,179.215,63.693,178.667,65.749z M191.07,76.033l-9.273-32.95h7.391l8.661,32.95H191.07z M207.545,76.033
	l-4.801-21.794l-2.824,17.181l-3.295-12.615l2.542-15.722h7.061l8.049,32.95H207.545z M216.348,71.468l-3.154-13.181l3.107-15.204
	h7.296L216.348,71.468z M253.392,48.496v0.047c-1.443,0.157-2.604,0.573-3.482,1.247c-0.878,0.675-1.562,1.506-2.047,2.495
	c-0.487,0.988-0.809,2.095-0.965,3.318c-0.157,1.224-0.235,2.495-0.235,3.813c0,1.444,0.071,2.77,0.212,3.978
	c0.141,1.208,0.447,2.276,0.918,3.201c0.47,0.926,1.145,1.703,2.024,2.33c0.877,0.628,2.07,1.099,3.576,1.412l-0.047,6.26
	c-0.533,0-1.051-0.008-1.553-0.023s-1.004-0.07-1.506-0.164c-2.041-0.377-3.782-1.105-5.225-2.189
	c-1.444-1.082-2.621-2.393-3.531-3.93c-0.911-1.538-1.577-3.24-2-5.107c-0.424-1.867-0.635-3.79-0.635-5.767
	c0-2.354,0.298-4.566,0.894-6.637c0.596-2.071,1.49-3.875,2.683-5.413c1.192-1.538,2.699-2.761,4.519-3.672
	c1.819-0.91,3.954-1.396,6.401-1.459V48.496z M270.646,65.749c-0.551,2.056-1.383,3.892-2.496,5.507
	c-1.113,1.617-2.525,2.918-4.236,3.907c-1.711,0.988-3.742,1.481-6.096,1.481h-0.848v-6.26c1.475-0.282,2.652-0.721,3.531-1.318
	c0.877-0.596,1.553-1.341,2.023-2.236s0.785-1.922,0.941-3.083c0.156-1.161,0.236-2.463,0.236-3.907
	c0-1.381-0.057-2.714-0.166-4.001c-0.109-1.286-0.393-2.448-0.846-3.483c-0.457-1.035-1.131-1.89-2.025-2.565
	c-0.895-0.674-2.127-1.09-3.695-1.247v-6.308c5.021,0.44,8.693,2.158,11.016,5.155c2.322,2.997,3.482,7.006,3.482,12.027
	C271.468,61.583,271.195,63.693,270.646,65.749z M276.412,76.033V47.696l7.061,11.91l0.33,16.428H276.412z M296.181,76.033
	L276.505,43.13h6.967l19.771,32.903H296.181z M332.191,76.857c-0.471-0.016-0.957-0.055-1.459-0.117
	c-3.264-0.346-5.68-1.428-7.25-3.248c-1.568-1.82-2.4-4.441-2.494-7.861l7.391-0.377c0.25,1.036,0.471,1.883,0.658,2.542
	c0.189,0.659,0.439,1.193,0.754,1.601c0.313,0.408,0.76,0.706,1.342,0.895c0.58,0.188,1.389,0.329,2.424,0.423l0.047,6.213
	C333.132,76.896,332.662,76.873,332.191,76.857z M348.384,70.056c-0.408,1.005-0.957,1.906-1.648,2.706
	c-0.689,0.801-1.506,1.491-2.447,2.072c-0.941,0.58-1.93,1.012-2.965,1.294c-0.441,0.124-0.816,0.228-1.131,0.306
	s-0.619,0.141-0.918,0.188s-0.611,0.086-0.941,0.119c-0.328,0.029-0.713,0.063-1.152,0.094v-6.167
	c0.533-0.031,1.051-0.11,1.553-0.235c0.502-0.125,0.957-0.321,1.365-0.588c0.408-0.267,0.73-0.62,0.965-1.059
	c0.236-0.439,0.354-0.989,0.354-1.647c0-0.91-0.275-1.64-0.824-2.189c-0.549-0.549-1.279-0.996-2.189-1.342
	c-0.91-0.345-1.945-0.643-3.105-0.895c-1.162-0.25-2.348-0.525-3.555-0.824c-1.209-0.298-2.393-0.659-3.555-1.083
	c-1.16-0.424-2.195-0.988-3.105-1.695c-0.91-0.706-1.641-1.6-2.189-2.683c-0.549-1.083-0.824-2.439-0.824-4.072
	c0-1.819,0.283-3.366,0.848-4.636c0.564-1.271,1.35-2.299,2.354-3.083c1.004-0.784,2.197-1.357,3.578-1.718
	c1.381-0.36,2.871-0.541,4.471-0.541h0.283v5.931c-0.533,0-1.035,0.04-1.506,0.118c-0.471,0.079-0.895,0.235-1.271,0.471
	s-0.676,0.565-0.895,0.988c-0.219,0.424-0.33,0.965-0.33,1.624c0,0.847,0.283,1.515,0.848,2c0.566,0.487,1.303,0.887,2.213,1.201
	c0.91,0.314,1.945,0.573,3.107,0.776c1.16,0.205,2.346,0.456,3.553,0.753c1.209,0.298,2.393,0.675,3.555,1.13
	c1.16,0.455,2.197,1.083,3.107,1.883s1.639,1.812,2.188,3.036c0.549,1.224,0.824,2.746,0.824,4.566
	C348.996,67.984,348.791,69.051,348.384,70.056z M374.179,76.033l-2.164-7.061h-7.344l1.789-5.931l3.672-0.047
	c-0.629-2.102-1.295-4.189-2.002-6.261c-0.705-2.071-1.184-4.205-1.436-6.402c-0.156,0.785-0.313,1.562-0.471,2.33
	c-0.156,0.77-0.361,1.546-0.611,2.33l-6.166,21.041h-8.379l11.344-32.95h8.473l11.58,32.95H374.179z M394.515,76.033h-7.484V43.036
	h7.484V76.033z M410.095,76.033h-12.098v-6.166h12.098V76.033z M421.111,76.033h-7.344V43.036h7.344V76.033z M438.103,76.033
	h-13.367v-6.119h13.367V76.033z"/>
</svg>
