<?xml version="1.0" encoding="utf-8"?>
<!-- Generator: Adobe Illustrator 22.1.0, SVG Export Plug-In . SVG Version: 6.00 Build 0)  -->
<svg version="1.1" id="Layer_1" xmlns="http://www.w3.org/2000/svg" xmlns:xlink="http://www.w3.org/1999/xlink" x="0px" y="0px"
	 viewBox="0 0 253.125 118.462" enable-background="new 0 0 253.125 118.462" xml:space="preserve">
<rect x="-1338.824" y="-433.39" fill="#000113" width="841.89" height="595.28"/>
<g>
	<rect x="-1302.695" y="-399.685" fill="#FFFFFF" width="100" height="100"/>
	<g>
		<g>
			<path fill="#000113" d="M-1235.733-309.685h-33.925c-12.703,0-23.038-10.335-23.038-23.038v-33.925
				c0-12.703,10.334-23.038,23.038-23.038h33.925c12.703,0,23.038,10.335,23.038,23.038v33.925
				C-1212.695-320.02-1223.03-309.685-1235.733-309.685z M-1269.658-382.372c-8.67,0-15.724,7.054-15.724,15.724v33.925
				c0,8.67,7.054,15.724,15.724,15.724h33.925c8.67,0,15.724-7.054,15.724-15.724v-33.925c0-8.67-7.054-15.724-15.724-15.724
				H-1269.658z"/>
		</g>
		<g>
			<path fill="#000113" d="M-1252.833-328.754c-11.502,0-20.86-9.358-20.86-20.86c0-11.503,9.358-20.861,20.86-20.861
				c11.503,0,20.861,9.358,20.861,20.861C-1231.971-338.112-1241.33-328.754-1252.833-328.754z M-1252.833-363.162
				c-7.47,0-13.547,6.077-13.547,13.547c0,7.47,6.077,13.547,13.547,13.547s13.548-6.077,13.548-13.547
				C-1239.285-357.085-1245.363-363.162-1252.833-363.162z"/>
		</g>
		<path fill="#000113" d="M-1226.689-371.045c0,2.726-2.21,4.936-4.935,4.936c-2.727,0-4.936-2.21-4.936-4.936
			c0-2.726,2.21-4.935,4.936-4.935C-1228.899-375.98-1226.689-373.77-1226.689-371.045z"/>
	</g>
</g>
<g>
	<rect x="-1184.29" y="-399.685" fill="#FFFFFF" width="100" height="100"/>
	<path fill="#000113" d="M-1130.554-299.685V-336.2h-11.918v-14.2h11.918v-12.932c0,0,0.467-14.531,14.795-16.047
		c0,0,7.448-0.689,14.746,0v12.951h-9.098c0,0-5.856,0-5.856,5.856c0,5.855,0,9.988,0,9.988h14.122l-2.342,14.191h-11.849v36.708
		H-1130.554z"/>
</g>
<g>
	<rect x="-1065.885" y="-399.685" fill="#FFFFFF" width="100" height="100"/>
	<g>
		<path fill="#000113" d="M-976.23-336.598c-0.3,6.583-3.288,13.474-14.048,14.155c-10.76,0.682-42.443,0.598-51.111,0
			c-8.668-0.598-13.45-5.296-14.048-14.155c-0.598-8.859-0.598-18.21,0-26.387c0.598-8.177,4.882-13.043,14.048-13.856
			c9.167-0.813,44.137-0.697,51.708,0c7.572,0.697,12.852,5.296,13.451,13.856C-975.632-354.424-975.931-343.181-976.23-336.598z"/>
		<polygon fill="#FFFFFF" points="-1023.455,-361.896 -1023.455,-337.387 -1003.529,-349.642 		"/>
	</g>
</g>
<g>
	<rect x="-947.48" y="-399.685" fill="#FFFFFF" width="100" height="100"/>
	<path fill="#000113" d="M-857.48-374.922c-5.846,2.749-8.794,2.299-8.794,2.299c5.996-3.948,6.546-8.795,6.546-8.795
		c-4.997,3.148-10.586,3.94-10.586,3.94v0.003c-2.987-3.155-7.213-5.126-11.9-5.126c-9.052,0-16.39,7.338-16.39,16.39
		c0,1.23,0.14,2.428,0.396,3.581c-21.858-0.853-33.314-17.173-33.314-17.173c-7.063,13.992,4.797,22.12,4.797,22.12
		c-3.997-0.133-6.929-1.866-6.929-1.866c-0.4,13.326,12.637,16.124,12.637,16.124c-2.421,0.933-7.174,0.267-7.174,0.267
		c3.731,11.193,14.924,11.46,14.924,11.46c-8.261,8.794-24.212,6.872-24.212,6.872c8.873,6.081,19.903,9.097,31.425,7.732
		c24.646-2.918,42.424-24.8,40.481-49.326C-860.284-369.702-857.48-374.922-857.48-374.922z"/>
</g>
<g>
	<rect x="-1101.012" y="-119.685" fill="#FFFFFF" width="100" height="100"/>
	<g>
		<g>
			<path fill="#000113" d="M-1034.05-29.685h-33.925c-12.703,0-23.038-10.336-23.038-23.038v-33.925
				c0-12.703,10.334-23.037,23.038-23.037h33.925c12.703,0,23.038,10.334,23.038,23.037v33.925
				C-1011.012-40.021-1021.347-29.685-1034.05-29.685z M-1067.975-102.372c-8.67,0-15.724,7.055-15.724,15.725v33.925
				c0,8.671,7.054,15.724,15.724,15.724h33.925c8.67,0,15.724-7.053,15.724-15.724v-33.925c0-8.67-7.054-15.725-15.724-15.725
				H-1067.975z"/>
		</g>
		<g>
			<path fill="#000113" d="M-1051.15-48.755c-11.502,0-20.86-9.358-20.86-20.859c0-11.504,9.358-20.861,20.86-20.861
				c11.503,0,20.861,9.357,20.861,20.861C-1030.288-58.112-1039.647-48.755-1051.15-48.755z M-1051.15-83.162
				c-7.47,0-13.547,6.077-13.547,13.548c0,7.469,6.077,13.547,13.547,13.547s13.548-6.078,13.548-13.547
				C-1037.602-77.085-1043.68-83.162-1051.15-83.162z"/>
		</g>
		<path fill="#000113" d="M-1025.006-91.044c0,2.726-2.21,4.936-4.935,4.936c-2.727,0-4.937-2.21-4.937-4.936
			c0-2.727,2.21-4.936,4.937-4.936C-1027.216-95.98-1025.006-93.771-1025.006-91.044z"/>
	</g>
</g>
<g>
	<rect x="-982.607" y="-119.685" fill="#FFFFFF" width="100" height="100"/>
	<path fill="#000113" d="M-928.871-19.685V-56.2h-11.918V-70.4h11.918v-12.933c0,0,0.467-14.531,14.795-16.047
		c0,0,7.449-0.688,14.746,0v12.95h-9.098c0,0-5.856,0.001-5.856,5.856c0,5.854,0,9.988,0,9.988h14.123l-2.342,14.19h-11.85v36.709
		H-928.871z"/>
</g>
<g>
	<rect x="-864.479" y="-119.685" fill="#FFFFFF" width="100" height="100"/>
	<path fill="#000113" d="M-774.479-94.922c-5.846,2.749-8.795,2.299-8.795,2.299c5.996-3.948,6.547-8.795,6.547-8.795
		c-4.998,3.147-10.586,3.94-10.586,3.94v0.004c-2.988-3.156-7.213-5.127-11.9-5.127c-9.053,0-16.391,7.338-16.391,16.391
		c0,1.23,0.141,2.428,0.396,3.58c-21.857-0.852-33.314-17.172-33.314-17.172c-7.063,13.991,4.797,22.119,4.797,22.119
		c-3.996-0.133-6.928-1.865-6.928-1.865c-0.4,13.326,12.637,16.123,12.637,16.123c-2.422,0.934-7.174,0.268-7.174,0.268
		c3.73,11.193,14.924,11.459,14.924,11.459c-8.262,8.795-24.213,6.873-24.213,6.873c8.873,6.081,19.904,9.096,31.426,7.732
		c24.645-2.919,42.424-24.801,40.481-49.326C-777.284-89.702-774.479-94.922-774.479-94.922z"/>
</g>
<g>
	<circle fill="#FFFFFF" cx="-1252.695" cy="-203.685" r="60"/>
	<path fill="#000113" d="M-1235.733-163.685h-33.925c-12.703,0-23.038-10.335-23.038-23.038v-33.925
		c0-12.703,10.334-23.038,23.038-23.038h33.925c12.703,0,23.038,10.335,23.038,23.038v33.925
		C-1212.695-174.02-1223.03-163.685-1235.733-163.685z M-1269.658-236.372c-8.67,0-15.724,7.054-15.724,15.724v33.925
		c0,8.67,7.054,15.724,15.724,15.724h33.925c8.67,0,15.724-7.054,15.724-15.724v-33.925c0-8.67-7.054-15.724-15.724-15.724
		H-1269.658z"/>
	<path fill="#000113" d="M-1252.833-182.754c-11.502,0-20.86-9.358-20.86-20.86c0-11.503,9.358-20.861,20.86-20.861
		c11.503,0,20.861,9.358,20.861,20.861C-1231.971-192.112-1241.33-182.754-1252.833-182.754z M-1252.833-217.162
		c-7.47,0-13.547,6.077-13.547,13.547c0,7.47,6.077,13.547,13.547,13.547s13.548-6.077,13.548-13.547
		C-1239.285-211.085-1245.363-217.162-1252.833-217.162z"/>
	<path fill="#000113" d="M-1226.689-225.045c0,2.726-2.21,4.936-4.935,4.936c-2.727,0-4.936-2.21-4.936-4.936
		c0-2.726,2.21-4.936,4.936-4.936C-1228.899-229.98-1226.689-227.77-1226.689-225.045z"/>
</g>
<g>
	<circle fill="#FFFFFF" cx="-1124.29" cy="-203.685" r="60"/>
	<path fill="#000113" d="M-1120.554-143.685V-190.2h-11.918v-14.2h11.918v-12.932c0,0,0.467-14.531,14.795-16.047
		c0,0,7.448-0.689,14.746,0v12.951h-9.098c0,0-5.856,0-5.856,5.856c0,5.855,0,9.988,0,9.988h14.122l-2.342,14.191h-11.849v46.708
		H-1120.554z"/>
</g>
<g>
	<circle fill="#FFFFFF" cx="-995.885" cy="-203.685" r="60"/>
	<path fill="#000113" d="M-956.23-190.598c-0.3,6.583-3.288,13.474-14.048,14.155c-10.76,0.682-42.443,0.598-51.111,0
		c-8.668-0.598-13.45-5.296-14.048-14.155c-0.598-8.859-0.598-18.21,0-26.387c0.598-8.177,4.882-13.044,14.048-13.857
		c9.167-0.813,44.137-0.697,51.708,0c7.572,0.697,12.852,5.296,13.451,13.857C-955.632-208.424-955.931-197.181-956.23-190.598z"/>
	<polygon fill="#FFFFFF" points="-1003.455,-215.896 -1003.455,-191.387 -983.529,-203.642 	"/>
</g>
<g>
	<path fill="#FFFFFF" d="M-993.492,186.325c-33,0-60,27-60,60s27,60,60,60s60-27,60-60S-960.492,186.325-993.492,186.325z
		 M-953.837,259.413c-0.3,6.583-3.288,13.473-14.048,14.154c-10.76,0.682-42.443,0.598-51.111,0
		c-8.667-0.598-13.45-5.295-14.048-14.154c-0.598-8.859-0.598-18.21,0-26.387c0.598-8.178,4.882-13.044,14.048-13.857
		c9.167-0.813,44.137-0.697,51.708,0c7.572,0.697,12.852,5.297,13.451,13.857C-953.239,241.587-953.538,252.829-953.837,259.413z"/>
	<polygon fill="#FFFFFF" points="-1001.062,258.623 -981.136,246.368 -1001.062,234.114 	"/>
</g>
<g>
	<circle fill="#FFFFFF" cx="-867.48" cy="-203.685" r="60"/>
	<path fill="#000113" d="M-827.48-228.922c-5.846,2.749-8.794,2.299-8.794,2.299c5.996-3.948,6.546-8.795,6.546-8.795
		c-4.997,3.148-10.586,3.94-10.586,3.94v0.003c-2.987-3.155-7.213-5.126-11.9-5.126c-9.052,0-16.39,7.338-16.39,16.39
		c0,1.23,0.14,2.428,0.396,3.581c-21.858-0.853-33.314-17.173-33.314-17.173c-7.063,13.992,4.797,22.12,4.797,22.12
		c-3.997-0.133-6.929-1.866-6.929-1.866c-0.4,13.326,12.637,16.124,12.637,16.124c-2.421,0.933-7.174,0.267-7.174,0.267
		c3.731,11.193,14.924,11.46,14.924,11.46c-8.261,8.794-24.212,6.872-24.212,6.872c8.873,6.081,19.903,9.097,31.425,7.732
		c24.646-2.919,42.424-24.8,40.481-49.326C-830.284-223.702-827.48-228.922-827.48-228.922z"/>
</g>
<g>
	<path fill="#FFFFFF" d="M-1235.733,213.639h-33.925c-8.67,0-15.724,7.054-15.724,15.724v33.926c0,8.67,7.054,15.724,15.724,15.724
		h33.925c8.67,0,15.724-7.054,15.724-15.724v-33.926C-1220.009,220.692-1227.063,213.639-1235.733,213.639z M-1252.833,267.256
		c-11.502,0-20.86-9.358-20.86-20.86c0-11.503,9.358-20.861,20.86-20.861c11.503,0,20.861,9.358,20.861,20.861
		C-1231.971,257.897-1241.33,267.256-1252.833,267.256z M-1231.624,229.901c-2.727,0-4.936-2.209-4.936-4.936
		c0-2.726,2.21-4.936,4.936-4.936c2.725,0,4.935,2.21,4.935,4.936C-1226.689,227.692-1228.899,229.901-1231.624,229.901z"/>
	<path fill="#FFFFFF" d="M-1252.833,232.849c-7.47,0-13.547,6.076-13.547,13.547c0,7.47,6.077,13.547,13.547,13.547
		s13.548-6.077,13.548-13.547C-1239.285,238.925-1245.363,232.849-1252.833,232.849z"/>
	<path fill="#FFFFFF" d="M-1252.695,186.325c-33,0-60,27-60,60s27,60,60,60s60-27,60-60S-1219.695,186.325-1252.695,186.325z
		 M-1212.695,263.288c0,12.702-10.335,23.037-23.038,23.037h-33.925c-12.703,0-23.038-10.335-23.038-23.037v-33.926
		c0-12.703,10.334-23.037,23.038-23.037h33.925c12.703,0,23.038,10.334,23.038,23.037V263.288z"/>
</g>
<g>
	<path fill="#FFFFFF" d="M-1064.29,246.325c0-33-27-60-60-60s-60,27-60,60s27,60,60,60c1.256,0,2.499-0.052,3.736-0.129V259.81
		h-11.918v-14.2h11.918v-12.932c0,0,0.467-14.531,14.795-16.047c0,0,7.448-0.689,14.746,0v12.95h-9.098c0,0-5.856,0.001-5.856,5.856
		c0,5.854,0,9.988,0,9.988h14.122l-2.342,14.19h-11.849v43.841C-1081.89,295.686-1064.29,272.966-1064.29,246.325z"/>
</g>
<path fill="#FFFFFF" d="M-867.48,186.325c-33,0-60,27-60,60s27,60,60,60s60-27,60-60S-834.48,186.325-867.48,186.325z
	 M-835.574,229.591c1.943,24.526-15.835,46.408-40.481,49.326c-11.521,1.364-22.552-1.65-31.425-7.732
	c0,0,15.951,1.922,24.212-6.872c0,0-11.193-0.267-14.924-11.46c0,0,4.753,0.666,7.174-0.267c0,0-13.037-2.798-12.637-16.124
	c0,0,2.932,1.732,6.929,1.866c0,0-11.859-8.128-4.797-22.12c0,0,11.456,16.32,33.314,17.173c-0.257-1.153-0.396-2.351-0.396-3.581
	c0-9.052,7.338-16.391,16.39-16.391c4.688,0,8.913,1.972,11.9,5.127v-0.004c0,0,5.589-0.792,10.586-3.939
	c0,0-0.55,4.847-6.546,8.795c0,0,2.948,0.449,8.794-2.299C-827.48,221.089-830.284,226.308-835.574,229.591z"/>
<g>
	<path fill="#000113" d="M-126.896-242.754c-33,0-60,27-60,60s27,60,60,60s60-27,60-60S-93.896-242.754-126.896-242.754z
		 M-87.241-169.667c-0.3,6.583-3.288,13.473-14.049,14.154c-10.76,0.682-42.442,0.598-51.11,0
		c-8.667-0.598-13.45-5.295-14.048-14.154c-0.598-8.859-0.598-18.21,0-26.387c0.598-8.178,4.882-13.044,14.048-13.857
		c9.167-0.813,44.137-0.697,51.708,0c7.572,0.697,12.853,5.297,13.451,13.857C-86.643-187.493-86.942-176.251-87.241-169.667z"/>
	<polygon fill="#000113" points="-134.466,-170.457 -114.54,-182.712 -134.466,-194.965 	"/>
</g>
<g>
	<path fill="#000113" d="M-389.933-215.441h-33.925c-8.671,0-15.724,7.054-15.724,15.724v33.926c0,8.67,7.053,15.724,15.724,15.724
		h33.925c8.67,0,15.724-7.054,15.724-15.724v-33.926C-374.21-208.387-381.263-215.441-389.933-215.441z M-407.033-161.824
		c-11.502,0-20.86-9.358-20.86-20.86c0-11.503,9.358-20.861,20.86-20.861c11.503,0,20.861,9.358,20.861,20.861
		C-386.172-171.182-395.53-161.824-407.033-161.824z M-385.824-199.178c-2.727,0-4.937-2.209-4.937-4.936
		c0-2.726,2.21-4.936,4.937-4.936c2.725,0,4.935,2.21,4.935,4.936C-380.889-201.387-383.099-199.178-385.824-199.178z"/>
	<path fill="#000113" d="M-407.033-196.231c-7.47,0-13.547,6.076-13.547,13.547c0,7.47,6.077,13.547,13.547,13.547
		c7.47,0,13.548-6.077,13.548-13.547C-393.485-190.155-399.563-196.231-407.033-196.231z"/>
	<path fill="#000113" d="M-406.896-242.754c-33,0-60,27-60,60s27,60,60,60s60-27,60-60S-373.896-242.754-406.896-242.754z
		 M-366.895-165.792c0,12.702-10.335,23.037-23.038,23.037h-33.925c-12.703,0-23.038-10.335-23.038-23.037v-33.926
		c0-12.703,10.335-23.037,23.038-23.037h33.925c12.703,0,23.038,10.334,23.038,23.037V-165.792z"/>
</g>
<g>
	<path fill="#000113" d="M-206.896-182.754c0-33-27-60-60-60s-60,27-60,60s27,60,60,60c1.256,0,2.498-0.051,3.736-0.129v-46.385
		h-11.918v-14.2h11.918v-12.932c0,0,0.467-14.531,14.795-16.047c0,0,7.448-0.689,14.746,0v12.95h-9.098c0,0-5.855,0.001-5.855,5.856
		c0,5.854,0,9.988,0,9.988h14.122l-2.342,14.19h-11.849v43.84C-224.497-133.394-206.896-156.114-206.896-182.754z"/>
</g>
<path fill="#000113" d="M13.104-242.684c-33,0-60,27-60,60s27,59.999,60,59.999s60-26.999,60-59.999S46.104-242.684,13.104-242.684z
	 M45.01-199.418c1.943,24.526-15.835,46.408-40.48,49.326c-11.521,1.364-22.552-1.65-31.425-7.732c0,0,15.951,1.922,24.212-6.872
	c0,0-11.193-0.267-14.924-11.46c0,0,4.753,0.666,7.174-0.267c0,0-13.037-2.798-12.637-16.124c0,0,2.932,1.732,6.929,1.866
	c0,0-11.859-8.128-4.797-22.12c0,0,11.456,16.32,33.314,17.173c-0.257-1.153-0.397-2.351-0.397-3.581
	c0-9.052,7.338-16.391,16.39-16.391c4.688,0,8.913,1.972,11.9,5.127v-0.004c0,0,5.589-0.792,10.586-3.939
	c0,0-0.55,4.847-6.546,8.795c0,0,2.948,0.449,8.794-2.299C53.104-207.92,50.3-202.701,45.01-199.418z"/>
<g>
	<circle fill="#FFFFFF" cx="-404.824" cy="-373.39" r="60"/>
	<path fill="#000113" d="M-364.824-398.627c-5.846,2.749-8.794,2.299-8.794,2.299c5.996-3.948,6.546-8.795,6.546-8.795
		c-4.997,3.148-10.586,3.94-10.586,3.94v0.003c-2.987-3.155-7.213-5.126-11.9-5.126c-9.052,0-16.39,7.338-16.39,16.39
		c0,1.23,0.14,2.428,0.396,3.581c-21.858-0.853-33.314-17.173-33.314-17.173c-7.063,13.992,4.797,22.12,4.797,22.12
		c-3.997-0.133-6.929-1.866-6.929-1.866c-0.4,13.326,12.637,16.124,12.637,16.124c-2.421,0.933-7.174,0.267-7.174,0.267
		c3.73,11.193,14.924,11.46,14.924,11.46c-8.261,8.794-24.212,6.872-24.212,6.872c8.873,6.082,19.903,9.097,31.425,7.732
		c24.646-2.919,42.424-24.8,40.48-49.326C-367.628-393.407-364.824-398.627-364.824-398.627z"/>
</g>
<g>
	<polygon fill="#FFFFFF" points="-1240.967,-2.136 -1230.167,-57.982 -1240.967,-113.827 -1205.816,-57.982 	"/>
</g>
<g>
	<polygon fill="#FFFFFF" points="-1264.698,-2.136 -1275.497,-57.982 -1264.698,-113.827 -1299.849,-57.982 	"/>
</g>
<polygon fill="#FFFFFF" points="-1206.635,141.546 -1282.759,141.546 -1218.883,81.546 -1142.759,81.546 "/>
<g>
	<polygon fill="#000113" points="-405.05,92.007 -394.251,36.161 -405.05,-19.685 -369.899,36.161 	"/>
</g>
<g>
	<polygon fill="#000113" points="-428.782,92.007 -439.581,36.161 -428.782,-19.685 -463.932,36.161 	"/>
</g>
<polygon fill="#000113" points="-153.367,66.161 -229.491,66.161 -165.616,6.161 -89.491,6.161 "/>
<g>
	<path fill="#000113" d="M-1032.087-536.598c-0.3,6.583-3.288,13.474-14.048,14.155c-10.76,0.682-42.443,0.598-51.111,0
		c-8.667-0.598-13.45-5.296-14.048-14.155s-0.598-18.209,0-26.387c0.598-8.177,4.882-13.043,14.048-13.857
		c9.167-0.813,44.137-0.697,51.708,0c7.572,0.697,12.852,5.296,13.451,13.857C-1031.489-554.424-1031.788-543.181-1032.087-536.598z
		"/>
</g>
<g>
	<polygon fill="#FFFFFF" points="-971.026,-561.896 -971.026,-537.387 -951.099,-549.642 	"/>
</g>
<polygon fill="#000113" points="-249.491,11.058 -299.695,61.264 -349.899,11.058 "/>
<polygon fill="#6609B7" points="-490.119,249.138 -540.323,299.343 -590.527,249.138 "/>
<polygon fill="#FFD700" points="1.033,232.035 -6.967,240.035 -14.967,232.035 "/>
<polygon fill="#FFD700" points="1.033,232.035 -6.967,224.035 -14.967,232.035 "/>
<circle fill="none" stroke="#FFFFFF" stroke-width="7" stroke-miterlimit="10" cx="-713.527" cy="-567.39" r="80"/>
<circle fill="none" stroke="#FFFFFF" stroke-width="7" stroke-miterlimit="10" cx="-528.297" cy="-567.39" r="80"/>
<circle fill="none" stroke="#FFFFFF" stroke-width="7" stroke-miterlimit="10" cx="-344.824" cy="-567.39" r="80"/>
<path fill="none" stroke="#FFFFFF" stroke-width="7" stroke-miterlimit="10" d="M-665.904-547.457c0,9.23-6.6,16.713-14.741,16.713
	h-65.771c-8.142,0-14.741-7.483-14.741-16.713v-29.572c0-9.231,6.6-16.713,14.741-16.713h65.771c8.142,0,14.741,7.482,14.741,16.713
	V-547.457z"/>
<path fill="none" stroke="#FFFFFF" stroke-width="7" stroke-miterlimit="10" d="M-697.245-562.243
	c0,8.995-7.291,16.286-16.286,16.286s-16.286-7.292-16.286-16.286c0-8.995,7.291-16.287,16.286-16.287
	S-697.245-571.238-697.245-562.243z"/>
<path fill="none" stroke="#FFFFFF" stroke-width="7" stroke-miterlimit="10" d="M-700.882-596.236c0,1.377-1.343,2.494-3,2.494
	h-19.297c-1.657,0-3-1.117-3-2.494v-8.727c0-1.377,1.343-2.494,3-2.494h19.297c1.657,0,3,1.117,3,2.494V-596.236z"/>
<path fill="#FFFFFF" d="M-742.031-595.242c0,0.829-0.69,1.5-1.542,1.5h-9.916c-0.852,0-1.542-0.671-1.542-1.5v-5.25
	c0-0.829,0.69-1.5,1.542-1.5h9.916c0.852,0,1.542,0.671,1.542,1.5V-595.242z"/>
<path fill="#FFFFFF" d="M-676.532-578.529c0,3.313-2.685,5.999-5.999,5.999c-3.315,0-5.999-2.687-5.999-5.999
	c0-3.313,2.685-6,5.999-6C-679.216-584.529-676.532-581.842-676.532-578.529z"/>
<path fill="none" stroke="#FFFFFF" stroke-width="7" stroke-miterlimit="10" d="M-505.456-527.895h-49.683
	c-8.03,0-14.541-6.509-14.541-14.54h49.683C-519.997-534.404-513.485-527.895-505.456-527.895c8.03,0,14.541-6.509,14.541-14.54
	v-64.449h-64.224v64.449"/>
<path fill="none" stroke="#FFFFFF" stroke-width="7" stroke-miterlimit="10" d="M-561.745-522.546"/>
<line fill="none" stroke="#FFFFFF" stroke-width="7" stroke-linecap="round" stroke-miterlimit="10" x1="-543.832" y1="-593.317" x2="-501.996" y2="-593.317"/>
<line fill="none" stroke="#FFFFFF" stroke-width="7" stroke-linecap="round" stroke-miterlimit="10" x1="-543.832" y1="-580.276" x2="-501.996" y2="-580.276"/>
<line fill="none" stroke="#FFFFFF" stroke-width="7" stroke-linecap="round" stroke-miterlimit="10" x1="-543.832" y1="-567.235" x2="-501.996" y2="-567.235"/>
<line fill="none" stroke="#FFFFFF" stroke-width="7" stroke-linecap="round" stroke-miterlimit="10" x1="-543.832" y1="-554.194" x2="-501.996" y2="-554.194"/>
<polygon fill="none" stroke="#FFFFFF" stroke-width="7" stroke-linejoin="round" stroke-miterlimit="10" points="-307.428,-567.235 
	-364.365,-534.362 -364.365,-600.108 "/>
<circle fill="none" stroke="#FFFFFF" stroke-width="7" stroke-miterlimit="10" cx="-164.091" cy="-567.39" r="80"/>
<g>
	<path fill="#FFFFFF" d="M-713.527-841.914c-46.042,0-83.5,37.458-83.5,83.5s37.458,83.5,83.5,83.5s83.5-37.458,83.5-83.5
		S-667.485-841.914-713.527-841.914z M-713.527-681.914c-42.183,0-76.5-34.318-76.5-76.5c0-42.182,34.317-76.5,76.5-76.5
		c42.183,0,76.5,34.318,76.5,76.5C-637.027-716.232-671.344-681.914-713.527-681.914z"/>
	<path fill="#FFFFFF" d="M-680.645-788.267h-16.737v-7.721c0-3.305-2.916-5.994-6.5-5.994h-19.297c-3.584,0-6.5,2.689-6.5,5.994
		v7.721h-12.352v-3.25c0-0.829-0.69-1.5-1.542-1.5h-9.916c-0.852,0-1.542,0.671-1.542,1.5v5.25c0,0.13,0.022,0.254,0.055,0.375
		c-5.754,3.404-9.682,10.119-9.682,17.838v29.572c0,11.146,8.183,20.213,18.241,20.213h65.771c10.059,0,18.241-9.068,18.241-20.213
		v-29.572C-662.404-779.199-670.587-788.267-680.645-788.267z M-722.679-788.268v-6.713l18.297,0.001v6.713L-722.679-788.268z
		 M-669.404-738.482c0,7.286-5.043,13.213-11.241,13.213h-65.771c-6.198,0-11.241-5.928-11.241-13.213v-29.572
		c0-7.286,5.043-13.213,11.241-13.213h23.237h19.297h23.237c6.198,0,11.241,5.927,11.241,13.213V-738.482z"/>
	<path fill="#FFFFFF" d="M-713.531-773.054c-10.91,0-19.786,8.877-19.786,19.787c0,10.91,8.876,19.786,19.786,19.786
		c10.91,0,19.786-8.876,19.786-19.786C-693.745-764.177-702.621-773.054-713.531-773.054z M-713.531-740.481
		c-7.051,0-12.786-5.736-12.786-12.786c0-7.051,5.735-12.787,12.786-12.787s12.786,5.736,12.786,12.787
		C-700.745-746.217-706.48-740.481-713.531-740.481z"/>
	<path fill="#FFFFFF" d="M-682.531-775.553c-3.315,0-5.999,2.686-5.999,5.999c0,3.313,2.685,6,5.999,6c3.314,0,5.999-2.686,5.999-6
		C-676.532-772.867-679.216-775.553-682.531-775.553z"/>
</g>
<g>
	<path fill="#FFFFFF" d="M-528.297-841.914c-46.042,0-83.5,37.458-83.5,83.5s37.458,83.5,83.5,83.5s83.5-37.458,83.5-83.5
		S-482.255-841.914-528.297-841.914z M-528.297-681.914c-42.183,0-76.5-34.318-76.5-76.5c0-42.182,34.317-76.5,76.5-76.5
		s76.5,34.318,76.5,76.5C-451.797-716.232-486.115-681.914-528.297-681.914z"/>
	<path fill="#FFFFFF" d="M-558.638-736.96h-14.541v3.5c0,9.948,8.093,18.041,18.041,18.041h49.683
		c9.948,0,18.041-8.093,18.041-18.041v-67.949h-71.224V-736.96z M-555.138-722.42c-4.865,0-9.006-3.163-10.473-7.541h42.455
		c0.553,2.798,1.754,5.367,3.441,7.541H-555.138z M-551.638-794.409h57.224v60.949c0,6.088-4.953,11.041-11.041,11.041
		c-6.088,0-11.041-4.953-11.041-11.041v-3.5h-35.142V-794.409z"/>
	<path fill="#FFFFFF" d="M-543.832-780.841h41.836c1.933,0,3.5-1.567,3.5-3.5c0-1.933-1.567-3.5-3.5-3.5h-41.836
		c-1.933,0-3.5,1.567-3.5,3.5C-547.332-782.408-545.764-780.841-543.832-780.841z"/>
	<path fill="#FFFFFF" d="M-543.832-767.801h41.836c1.933,0,3.5-1.567,3.5-3.5c0-1.933-1.567-3.5-3.5-3.5h-41.836
		c-1.933,0-3.5,1.567-3.5,3.5C-547.332-769.368-545.764-767.801-543.832-767.801z"/>
	<path fill="#FFFFFF" d="M-543.832-754.759h41.836c1.933,0,3.5-1.567,3.5-3.5c0-1.933-1.567-3.5-3.5-3.5h-41.836
		c-1.933,0-3.5,1.567-3.5,3.5C-547.332-756.326-545.764-754.759-543.832-754.759z"/>
	<path fill="#FFFFFF" d="M-498.496-745.219c0-1.933-1.567-3.5-3.5-3.5h-41.836c-1.933,0-3.5,1.567-3.5,3.5s1.567,3.5,3.5,3.5h41.836
		C-500.063-741.719-498.496-743.286-498.496-745.219z"/>
</g>
<g>
	<path fill="#FFFFFF" d="M-344.824-841.914c-46.042,0-83.5,37.458-83.5,83.5s37.458,83.5,83.5,83.5s83.5-37.458,83.5-83.5
		S-298.782-841.914-344.824-841.914z M-344.824-681.914c-42.183,0-76.5-34.318-76.5-76.5c0-42.182,34.317-76.5,76.5-76.5
		s76.5,34.318,76.5,76.5C-268.324-716.232-302.641-681.914-344.824-681.914z"/>
	<path fill="#FFFFFF" d="M-305.678-761.291l-56.936-32.872c-1.082-0.625-2.418-0.625-3.5,0c-1.083,0.625-1.75,1.781-1.75,3.031
		v65.746c0,1.25,0.667,2.406,1.75,3.031c0.541,0.313,1.145,0.469,1.75,0.469c0.604,0,1.209-0.156,1.75-0.469l56.936-32.874
		c1.083-0.625,1.75-1.781,1.75-3.031S-304.595-760.666-305.678-761.291z M-360.865-731.449v-53.621l46.436,26.81L-360.865-731.449z"
		/>
</g>
<polygon fill="none" stroke="#FFFFFF" stroke-width="6" stroke-linejoin="round" stroke-miterlimit="10" points="-125.14,-536.835 
	-197.422,-536.835 -208.665,-586.629 -113.895,-586.629 "/>
<g>
	
		<line fill="none" stroke="#FFFFFF" stroke-width="6" stroke-linecap="round" stroke-linejoin="round" stroke-miterlimit="10" x1="-188.588" y1="-571.37" x2="-180.957" y2="-571.37"/>
	
		<line fill="none" stroke="#FFFFFF" stroke-width="6" stroke-linecap="round" stroke-linejoin="round" stroke-miterlimit="10" x1="-165.297" y1="-571.37" x2="-157.668" y2="-571.37"/>
	
		<line fill="none" stroke="#FFFFFF" stroke-width="6" stroke-linecap="round" stroke-linejoin="round" stroke-miterlimit="10" x1="-142.005" y1="-571.37" x2="-134.376" y2="-571.37"/>
</g>
<g>
	
		<line fill="none" stroke="#FFFFFF" stroke-width="6" stroke-linecap="round" stroke-linejoin="round" stroke-miterlimit="10" x1="-188.588" y1="-561.733" x2="-180.957" y2="-561.733"/>
	
		<line fill="none" stroke="#FFFFFF" stroke-width="6" stroke-linecap="round" stroke-linejoin="round" stroke-miterlimit="10" x1="-165.297" y1="-561.733" x2="-157.668" y2="-561.733"/>
	
		<line fill="none" stroke="#FFFFFF" stroke-width="6" stroke-linecap="round" stroke-linejoin="round" stroke-miterlimit="10" x1="-142.005" y1="-561.733" x2="-134.376" y2="-561.733"/>
</g>
<g>
	
		<line fill="none" stroke="#FFFFFF" stroke-width="6" stroke-linecap="round" stroke-linejoin="round" stroke-miterlimit="10" x1="-188.588" y1="-552.094" x2="-180.957" y2="-552.094"/>
	
		<line fill="none" stroke="#FFFFFF" stroke-width="6" stroke-linecap="round" stroke-linejoin="round" stroke-miterlimit="10" x1="-165.297" y1="-552.094" x2="-157.668" y2="-552.094"/>
	
		<line fill="none" stroke="#FFFFFF" stroke-width="6" stroke-linecap="round" stroke-linejoin="round" stroke-miterlimit="10" x1="-142.005" y1="-552.094" x2="-134.376" y2="-552.094"/>
</g>
<polyline fill="none" stroke="#FFFFFF" stroke-width="6" stroke-linecap="round" stroke-linejoin="round" stroke-miterlimit="10" points="
	-180.957,-586.629 -214.288,-605.102 -199.228,-605.102 -165.698,-586.629 "/>
<path fill="none" stroke="#FFFFFF" stroke-width="6" stroke-linecap="round" stroke-linejoin="round" stroke-miterlimit="10" d="
	M-171.746-528.001c0,4.768-3.864,8.633-8.633,8.633c-4.769,0-8.635-3.865-8.635-8.633c0-4.769,3.866-8.634,8.635-8.634
	C-175.61-536.634-171.746-532.769-171.746-528.001z"/>
<path fill="none" stroke="#FFFFFF" stroke-width="6" stroke-linecap="round" stroke-linejoin="round" stroke-miterlimit="10" d="
	M-133.148-528.001c0,4.768-3.864,8.633-8.633,8.633c-4.77,0-8.634-3.865-8.634-8.633c0-4.769,3.864-8.634,8.634-8.634
	C-137.012-536.634-133.148-532.769-133.148-528.001z"/>
<g>
	<path fill="#FFFFFF" d="M-164.091-841.759c-46.042,0-83.5,37.458-83.5,83.5c0,46.042,37.458,83.5,83.5,83.5s83.5-37.458,83.5-83.5
		C-80.591-804.301-118.049-841.759-164.091-841.759z M-164.091-681.759c-42.183,0-76.5-34.318-76.5-76.5
		c0-42.182,34.317-76.5,76.5-76.5s76.5,34.318,76.5,76.5C-87.591-716.077-121.909-681.759-164.091-681.759z"/>
	<path fill="#FFFFFF" d="M-113.895-780.499h-51.032l-32.854-18.1c-0.443-0.245-0.941-0.372-1.447-0.372h-15.06
		c-1.367,0-2.563,0.925-2.904,2.249c-0.343,1.324,0.254,2.712,1.45,3.375l23.184,12.848h-16.106c-0.912,0-1.774,0.415-2.344,1.127
		c-0.568,0.712-0.783,1.645-0.583,2.534l11.242,49.794c0.31,1.368,1.524,2.339,2.927,2.339h6.994
		c-1.001,1.718-1.585,3.707-1.585,5.834c0,6.415,5.22,11.633,11.635,11.633c6.414,0,11.633-5.219,11.633-11.633
		c0-2.127-0.584-4.117-1.585-5.834h18.501c-1.002,1.718-1.585,3.707-1.585,5.834c0,6.415,5.219,11.633,11.634,11.633
		c6.414,0,11.633-5.219,11.633-11.633c0-2.127-0.584-4.117-1.585-5.834h6.593c1.402,0,2.617-0.971,2.927-2.339l11.245-49.794
		c0.2-0.889-0.014-1.822-0.583-2.534C-112.121-780.085-112.983-780.499-113.895-780.499z M-180.379-713.237
		c-3.107,0-5.635-2.527-5.635-5.633c0-3.106,2.527-5.634,5.635-5.634c3.105,0,5.633,2.527,5.633,5.634
		C-174.746-715.764-177.273-713.237-180.379-713.237z M-141.781-713.237c-3.107,0-5.634-2.527-5.634-5.633
		c0-3.106,2.527-5.634,5.634-5.634c3.105,0,5.633,2.527,5.633,5.634C-136.148-715.764-138.675-713.237-141.781-713.237z
		 M-202.685-792.971H-200l22.64,12.472h-2.821L-202.685-792.971z M-127.539-730.705h-67.485l-9.888-43.794h39.207
		c0,0,0.003,0,0.004,0c0,0,0.002,0,0.004,0h48.049L-127.539-730.705z"/>
	<path fill="#FFFFFF" d="M-180.957-765.24h-7.631c-1.657,0-3,1.343-3,3s1.343,3,3,3h7.631c1.657,0,3-1.343,3-3
		S-179.299-765.24-180.957-765.24z"/>
	<path fill="#FFFFFF" d="M-168.297-762.24c0,1.657,1.343,3,3,3h7.629c1.657,0,3-1.343,3-3s-1.343-3-3-3h-7.629
		C-166.954-765.24-168.297-763.897-168.297-762.24z"/>
	<path fill="#FFFFFF" d="M-142.005-759.24h7.63c1.657,0,3-1.343,3-3s-1.343-3-3-3h-7.63c-1.657,0-3,1.343-3,3
		S-143.663-759.24-142.005-759.24z"/>
	<path fill="#FFFFFF" d="M-180.957-755.602h-7.631c-1.657,0-3,1.343-3,3s1.343,3,3,3h7.631c1.657,0,3-1.343,3-3
		S-179.299-755.602-180.957-755.602z"/>
	<path fill="#FFFFFF" d="M-157.668-755.602h-7.629c-1.657,0-3,1.343-3,3s1.343,3,3,3h7.629c1.657,0,3-1.343,3-3
		S-156.01-755.602-157.668-755.602z"/>
	<path fill="#FFFFFF" d="M-142.005-749.602h7.63c1.657,0,3-1.343,3-3s-1.343-3-3-3h-7.63c-1.657,0-3,1.343-3,3
		S-143.663-749.602-142.005-749.602z"/>
	<path fill="#FFFFFF" d="M-180.957-745.964h-7.631c-1.657,0-3,1.343-3,3c0,1.657,1.343,3,3,3h7.631c1.657,0,3-1.343,3-3
		C-177.957-744.621-179.299-745.964-180.957-745.964z"/>
	<path fill="#FFFFFF" d="M-157.668-745.964h-7.629c-1.657,0-3,1.343-3,3c0,1.657,1.343,3,3,3h7.629c1.657,0,3-1.343,3-3
		C-154.668-744.621-156.01-745.964-157.668-745.964z"/>
	<path fill="#FFFFFF" d="M-142.005-739.964h7.63c1.657,0,3-1.343,3-3c0-1.657-1.343-3-3-3h-7.63c-1.657,0-3,1.343-3,3
		C-145.005-741.307-143.663-739.964-142.005-739.964z"/>
</g>
<g>
	<g>
		<path fill="#000113" d="M153.104-242.762c-33.084,0-60,26.916-60,60s26.916,60,60,60c33.084,0,60-26.916,60-60
			S186.188-242.762,153.104-242.762z M153.104-127.792c-30.31,0-54.97-24.659-54.97-54.97c0-30.311,24.659-54.97,54.97-54.97
			c30.311,0,54.97,24.659,54.97,54.97C208.074-152.451,183.414-127.792,153.104-127.792z"/>
		<path fill="#000113" d="M176.732-204.213h-12.027v-5.548c0-2.374-2.095-4.307-4.671-4.307h-13.865
			c-2.575,0-4.671,1.933-4.671,4.307v5.548h-8.875v-2.335c0-0.595-0.496-1.078-1.108-1.078h-7.125c-0.612,0-1.108,0.483-1.108,1.078
			v3.773c0,0.094,0.017,0.183,0.039,0.27c-4.134,2.446-6.956,7.271-6.956,12.817v21.25c0,8.009,5.879,14.523,13.107,14.523h47.261
			c7.227,0,13.107-6.515,13.107-14.523v-21.25C189.839-197.697,183.959-204.213,176.732-204.213z M146.528-204.213v-4.825
			l13.147,0.002v4.823H146.528z M184.809-168.439c0,5.234-3.624,9.494-8.077,9.494h-47.261c-4.454,0-8.078-4.26-8.078-9.494v-21.25
			c0-5.234,3.624-9.494,8.078-9.494h16.697h13.865h16.698c4.453,0,8.077,4.26,8.077,9.494V-168.439z"/>
		<path fill="#000113" d="M153.101-193.281c-7.84,0-14.218,6.379-14.218,14.219c0,7.839,6.378,14.217,14.218,14.217
			s14.218-6.378,14.218-14.217C167.319-186.902,160.941-193.281,153.101-193.281z M153.101-169.876
			c-5.066,0-9.188-4.121-9.188-9.187c0-5.067,4.121-9.188,9.188-9.188c5.066,0,9.188,4.121,9.188,9.188
			C162.288-173.997,158.167-169.876,153.101-169.876z"/>
		<path fill="#000113" d="M175.376-195.077c-2.382,0-4.311,1.931-4.311,4.311c0,2.381,1.929,4.312,4.311,4.312
			s4.311-1.931,4.311-4.312C179.687-193.147,177.758-195.077,175.376-195.077z"/>
	</g>
	<g>
		<path fill="#000113" d="M293.104-242.762c-33.084,0-60,26.916-60,60s26.916,60,60,60c33.084,0,60-26.916,60-60
			S326.188-242.762,293.104-242.762z M293.104-127.792c-30.31,0-54.97-24.659-54.97-54.97c0-30.311,24.659-54.97,54.97-54.97
			c30.311,0,54.97,24.659,54.97,54.97C348.074-152.451,323.414-127.792,293.104-127.792z"/>
		<path fill="#000113" d="M271.302-167.346h-10.449v2.515c0,7.148,5.815,12.964,12.964,12.964h35.7
			c7.148,0,12.964-5.816,12.964-12.964v-48.825h-51.179V-167.346z M273.817-156.898c-3.496,0-6.471-2.273-7.525-5.418h30.507
			c0.397,2.011,1.261,3.857,2.473,5.418H273.817z M276.332-208.626h41.118v43.795c0,4.375-3.559,7.934-7.934,7.934
			c-4.374,0-7.934-3.559-7.934-7.934v-2.515h-25.251V-208.626z"/>
		<path fill="#000113" d="M281.942-198.877h30.062c1.389,0,2.515-1.125,2.515-2.515c0-1.39-1.126-2.515-2.515-2.515h-30.062
			c-1.389,0-2.515,1.125-2.515,2.515C279.427-200.002,280.553-198.877,281.942-198.877z"/>
		<path fill="#000113" d="M281.942-189.507h30.062c1.389,0,2.515-1.126,2.515-2.515c0-1.389-1.126-2.515-2.515-2.515h-30.062
			c-1.389,0-2.515,1.126-2.515,2.515C279.427-190.633,280.553-189.507,281.942-189.507z"/>
		<path fill="#000113" d="M281.942-180.135h30.062c1.389,0,2.515-1.127,2.515-2.516c0-1.39-1.126-2.515-2.515-2.515h-30.062
			c-1.389,0-2.515,1.125-2.515,2.515C279.427-181.262,280.553-180.135,281.942-180.135z"/>
		<path fill="#000113" d="M314.518-173.28c0-1.389-1.126-2.515-2.515-2.515h-30.062c-1.389,0-2.515,1.126-2.515,2.515
			c0,1.389,1.126,2.516,2.515,2.516h30.062C313.392-170.765,314.518-171.892,314.518-173.28z"/>
	</g>
	<g>
		<path fill="#000113" d="M433.104-242.762c-33.084,0-60,26.916-60,60s26.916,60,60,60c33.084,0,60-26.916,60-60
			S466.188-242.762,433.104-242.762z M433.104-127.792c-30.31,0-54.97-24.659-54.97-54.97c0-30.311,24.659-54.97,54.97-54.97
			c30.311,0,54.97,24.659,54.97,54.97C488.074-152.451,463.414-127.792,433.104-127.792z"/>
		<path fill="#000113" d="M461.233-184.829l-40.913-23.62c-0.777-0.449-1.737-0.449-2.515,0c-0.778,0.448-1.258,1.279-1.258,2.178
			v47.243c0,0.898,0.48,1.728,1.258,2.178c0.389,0.225,0.823,0.337,1.258,0.337c0.434,0,0.868-0.112,1.257-0.337l40.913-23.622
			c0.777-0.45,1.257-1.279,1.257-2.178C462.49-183.55,462.01-184.379,461.233-184.829z M421.578-163.385v-38.53l33.367,19.265
			L421.578-163.385z"/>
	</g>
	<g>
		<path fill="#000113" d="M573.104-242.607c-33.084,0-60,26.915-60,60c0,33.083,26.916,60,60,60c33.084,0,60-26.917,60-60
			C633.104-215.692,606.188-242.607,573.104-242.607z M573.104-127.637c-30.31,0-54.97-24.659-54.97-54.97
			c0-30.311,24.659-54.97,54.97-54.97c30.311,0,54.97,24.659,54.97,54.97C628.074-152.296,603.414-127.637,573.104-127.637z"/>
		<path fill="#000113" d="M609.173-198.588h-36.67l-23.607-13.005c-0.318-0.176-0.677-0.269-1.04-0.269h-10.821
			c-0.982,0-1.841,0.665-2.087,1.617c-0.246,0.951,0.183,1.947,1.042,2.425l16.659,9.232h-11.573c-0.655,0-1.275,0.298-1.685,0.811
			c-0.408,0.511-0.563,1.182-0.419,1.82l8.078,35.78c0.223,0.983,1.096,1.682,2.104,1.682h5.025
			c-0.72,1.233-1.139,2.664-1.139,4.191c0,4.609,3.751,8.359,8.36,8.359c4.608,0,8.358-3.75,8.358-8.359
			c0-1.527-0.419-2.958-1.139-4.191h13.294c-0.72,1.233-1.139,2.664-1.139,4.191c0,4.609,3.75,8.359,8.359,8.359
			c4.609,0,8.359-3.75,8.359-8.359c0-1.527-0.42-2.958-1.139-4.191h4.737c1.007,0,1.88-0.698,2.102-1.682l8.08-35.78
			c0.145-0.639-0.01-1.31-0.419-1.82C610.448-198.29,609.828-198.588,609.173-198.588z M561.401-150.256
			c-2.233,0-4.049-1.815-4.049-4.048c0-2.231,1.815-4.048,4.049-4.048c2.232,0,4.047,1.816,4.047,4.048
			C565.448-152.071,563.632-150.256,561.401-150.256z M589.135-150.256c-2.232,0-4.048-1.815-4.048-4.048
			c0-2.231,1.815-4.048,4.048-4.048c2.231,0,4.048,1.816,4.048,4.048C593.183-152.071,591.367-150.256,589.135-150.256z
			 M545.371-207.55h1.93l16.269,8.962h-2.027L545.371-207.55z M599.37-162.807h-48.492l-7.105-31.47h28.173h0.003
			c0,0,0.001,0,0.003,0h34.525L599.37-162.807z"/>
		<path fill="#000113" d="M560.985-187.622h-5.482c-1.191,0-2.156,0.965-2.156,2.155c0,1.19,0.965,2.156,2.156,2.156h5.482
			c1.191,0,2.156-0.966,2.156-2.156C563.141-186.657,562.176-187.622,560.985-187.622z"/>
		<path fill="#000113" d="M570.082-185.467c0,1.19,0.965,2.156,2.155,2.156h5.482c1.19,0,2.155-0.966,2.155-2.156
			c0-1.19-0.965-2.155-2.155-2.155h-5.482C571.047-187.622,570.082-186.657,570.082-185.467z"/>
		<path fill="#000113" d="M588.974-183.311h5.482c1.19,0,2.155-0.966,2.155-2.156c0-1.19-0.965-2.155-2.155-2.155h-5.482
			c-1.19,0-2.155,0.965-2.155,2.155C586.819-184.276,587.784-183.311,588.974-183.311z"/>
		<path fill="#000113" d="M560.985-180.698h-5.482c-1.191,0-2.156,0.966-2.156,2.156c0,1.19,0.965,2.155,2.156,2.155h5.482
			c1.191,0,2.156-0.965,2.156-2.155C563.141-179.733,562.176-180.698,560.985-180.698z"/>
		<path fill="#000113" d="M577.72-180.698h-5.482c-1.19,0-2.155,0.966-2.155,2.156c0,1.19,0.965,2.155,2.155,2.155h5.482
			c1.19,0,2.155-0.965,2.155-2.155C579.875-179.733,578.911-180.698,577.72-180.698z"/>
		<path fill="#000113" d="M588.974-176.387h5.482c1.19,0,2.155-0.965,2.155-2.155c0-1.191-0.965-2.156-2.155-2.156h-5.482
			c-1.19,0-2.155,0.966-2.155,2.156C586.819-177.352,587.784-176.387,588.974-176.387z"/>
		<path fill="#000113" d="M560.985-173.772h-5.482c-1.191,0-2.156,0.965-2.156,2.155c0,1.19,0.965,2.156,2.156,2.156h5.482
			c1.191,0,2.156-0.966,2.156-2.156C563.141-172.807,562.176-173.772,560.985-173.772z"/>
		<path fill="#000113" d="M577.72-173.772h-5.482c-1.19,0-2.155,0.965-2.155,2.155c0,1.19,0.965,2.156,2.155,2.156h5.482
			c1.19,0,2.155-0.966,2.155-2.156C579.875-172.807,578.911-173.772,577.72-173.772z"/>
		<path fill="#000113" d="M588.974-169.46h5.482c1.19,0,2.155-0.966,2.155-2.156c0-1.19-0.965-2.155-2.155-2.155h-5.482
			c-1.19,0-2.155,0.965-2.155,2.155C586.819-170.426,587.784-169.46,588.974-169.46z"/>
	</g>
</g>
<g>
	<path d="M-245.275-88.696c-8.066-8.07-21.193-8.07-29.262,0c-8.066,8.068-8.07,21.193,0,29.266
		c7.299,7.301,18.734,7.969,26.824,2.057l11.02,11.021c1.246,1.244,3.26,1.244,4.5,0c1.242-1.242,1.242-3.256,0-4.496
		l-11.021-11.021C-237.3-69.96-237.972-81.394-245.275-88.696z M-249.773-63.931c-5.586,5.584-14.68,5.588-20.266,0
		c-5.588-5.586-5.588-14.678,0-20.266c5.586-5.592,14.68-5.592,20.266,0C-244.185-78.608-244.185-69.517-249.773-63.931z"/>
</g>
<path d="M-429.349-70.083l18.35-18.35c1.445-1.445,1.445-3.786,0-5.231c-1.445-1.445-3.786-1.445-5.231,0l-18.351,18.35
	l-18.351-18.35c-1.445-1.445-3.786-1.445-5.231,0c-1.445,1.445-1.445,3.786,0,5.231l18.352,18.35l-18.347,18.347
	c-1.445,1.445-1.445,3.786,0,5.231c0.722,0.723,1.67,1.084,2.615,1.084c0.947,0,1.894-0.361,2.616-1.084l18.346-18.347
	l18.351,18.347c0.723,0.723,1.668,1.084,2.615,1.084c0.946,0,1.894-0.361,2.616-1.084c1.445-1.445,1.445-3.786,0-5.231
	L-429.349-70.083z"/>
<path fill="#FFD700" d="M-323.195,194.185v-25.95c0-2.044-1.655-3.699-3.699-3.699c-2.044,0-3.699,1.655-3.699,3.699l-0.001,25.951
	h-25.951c-2.044,0-3.699,1.655-3.699,3.699c0,2.044,1.655,3.699,3.699,3.699l25.952-0.001v25.946c0,2.044,1.655,3.699,3.699,3.699
	c1.021,0,1.947-0.415,2.615-1.083c0.67-0.67,1.084-1.595,1.084-2.616l-0.001-25.945l25.949-0.003c1.021,0,1.945-0.413,2.615-1.083
	c0.669-0.669,1.084-1.595,1.084-2.616c0-2.044-1.655-3.699-3.699-3.699L-323.195,194.185z"/>
<g>
	<path d="M-366.501-82.607h42.497c1.887,0,3.415-1.528,3.415-3.415c0-1.886-1.528-3.414-3.415-3.414h-42.497
		c-1.885,0-3.415,1.528-3.415,3.414C-369.916-84.135-368.385-82.607-366.501-82.607z"/>
	<path d="M-324.004-73.501h-42.497c-1.885,0-3.415,1.532-3.415,3.416c0,1.885,1.53,3.415,3.415,3.415h42.497
		c1.887,0,3.415-1.53,3.415-3.415C-320.588-71.969-322.117-73.501-324.004-73.501z"/>
	<path d="M-324.004-57.564h-42.497c-1.885,0-3.415,1.529-3.415,3.415c0,1.885,1.53,3.415,3.415,3.415h42.497
		c1.887,0,3.415-1.53,3.415-3.415C-320.588-56.034-322.117-57.564-324.004-57.564z"/>
</g>
<g>
	<path fill="#FFFFFF" d="M-339.041,325.936c-0.332,0-0.648-0.132-0.882-0.366l-12.504-12.503c-0.488-0.488-0.488-1.279,0-1.765
		c0.488-0.488,1.278-0.488,1.765,0l11.622,11.621l11.621-11.621c0.488-0.488,1.278-0.488,1.766,0c0.487,0.487,0.487,1.277,0,1.765
		l-12.503,12.503C-338.392,325.804-338.709,325.936-339.041,325.936z"/>
</g>
<g>
	<path fill="#FFD700" d="M189.839,61.096c16.872,0,30.548-13.676,30.548-30.546c0-16.872-13.676-30.55-30.548-30.55
		s-30.548,13.679-30.548,30.55C159.291,47.419,172.968,61.096,189.839,61.096z"/>
	<path fill="#FFD700" d="M189.839,63.516c-34.95,0-63.286,24.599-63.286,54.946h126.571
		C253.125,88.115,224.789,63.516,189.839,63.516z"/>
</g>
<g>
	<path fill="#FFFFFF" d="M63.286,61.096c16.872,0,30.548-13.676,30.548-30.546C93.834,13.679,80.157,0,63.286,0
		S32.738,13.679,32.738,30.55C32.738,47.419,46.414,61.096,63.286,61.096z"/>
	<path fill="#FFFFFF" d="M63.286,63.516C28.336,63.516,0,88.115,0,118.462h126.571C126.571,88.115,98.236,63.516,63.286,63.516z"/>
</g>
<path d="M37.024-87.963c-5.07-5.071-13.291-5.071-18.361,0l-2.834,2.833l-2.834-2.833c-5.072-5.071-13.293-5.071-18.363,0
	c-5.07,5.071-5.07,13.292,0,18.362l2.834,2.834l18.363,18.363l18.363-18.363l2.832-2.834C42.096-74.671,42.096-82.893,37.024-87.963
	z"/>
<g>
	<path d="M121.215-80.896H83.532v-8.48l22.465-3.018c0.74-0.1,1.258-0.78,1.16-1.52c-0.1-0.74-0.781-1.258-1.52-1.16L82-91.897
		c-0.672,0.091-1.172,0.663-1.172,1.339v9.662v0.338v24.324h33.021L121.215-80.896z"/>
	<path d="M86.571-55.896c-2.984,0-5.404,2.42-5.404,5.405c0,2.985,2.42,5.405,5.404,5.405c2.986,0,5.406-2.42,5.406-5.405
		C91.977-53.476,89.557-55.896,86.571-55.896z"/>
	<path d="M109.274-55.896c-2.984,0-5.404,2.42-5.404,5.405c0,2.985,2.42,5.405,5.404,5.405c2.986,0,5.406-2.42,5.406-5.405
		C114.68-53.476,112.26-55.896,109.274-55.896z"/>
</g>
<polygon fill="#FFD700" points="-673.324,467.61 -944.324,467.61 -885.324,385.61 -614.324,385.61 "/>
<polygon opacity="0.7" fill="#FFD700" points="-637.324,467.61 -661.824,467.61 -602.824,385.61 -578.324,385.61 "/>
<polygon opacity="0.4" fill="#FFD700" points="-611.824,467.61 -620.027,467.61 -561.027,385.61 -552.824,385.61 "/>
<polyline fill="none" stroke="#FFFFFF" stroke-width="15" stroke-linecap="round" stroke-linejoin="round" stroke-miterlimit="10" points="
	-220.981,295.492 -235.981,310.492 -250.981,295.492 "/>
<path fill="#FFFFFF" d="M175.771,173.657c-0.854-1.007-2.108-1.587-3.43-1.587H61.467l-1.714-8.482
	c-0.425-2.099-2.27-3.608-4.411-3.608H35.914c-2.485,0-4.5,2.015-4.5,4.5s2.015,4.5,4.5,4.5H51.66l15.843,78.392
	c0.425,2.099,2.27,3.608,4.411,3.608h9.285c-5.435,1.294-9.481,6.169-9.481,12c0,6.82,5.528,12.348,12.348,12.348
	s12.348-5.528,12.348-12.348c0-5.831-4.047-10.706-9.481-12h60.89c-5.435,1.294-9.481,6.169-9.481,12
	c0,6.82,5.528,12.348,12.348,12.348c6.82,0,12.348-5.528,12.348-12.348c0-5.831-4.047-10.706-9.481-12h7.564
	c2.485,0,4.5-2.015,4.5-4.5s-2.015-4.5-4.5-4.5H75.595l-2.223-11h90.779c2.204,0,4.084-1.597,4.44-3.771l8.19-49.909
	C176.996,175.995,176.627,174.663,175.771,173.657z M164.424,197.025h-24.572l0.776-15.955h26.414L164.424,197.025z
	 M101.414,197.025l-0.776-15.955h30.979l-0.776,15.955H101.414z M130.403,206.025l-0.776,15.954h-26.999l-0.776-15.954H130.403z
	 M91.627,181.07l0.776,15.955H66.51l-3.224-15.955H91.627z M68.329,206.025h24.512l0.776,15.954H71.553L68.329,206.025z
	 M138.638,221.979l0.776-15.954h23.533l-2.618,15.954H138.638z"/>
<path fill="#FFFFFF" d="M298.811,155.53c-9.688-2.537-23.495,1.523-30.576,8.604l-10.308,10.308l-8.542-8.542
	c-14.018-14.018-36.958-14.018-50.976,0l0,0c-14.018,14.018-14.018,36.958,0,50.976l8.542,8.542l45.58,45.58
	c2.98,2.98,7.813,2.98,10.793,0l45.58-45.58l8.542-8.542C336.126,198.196,329.915,163.676,298.811,155.53z"/>
</svg>
