<?xml version="1.0" encoding="utf-8"?>
<!-- Generator: Adobe Illustrator 16.0.0, SVG Export Plug-In . SVG Version: 6.00 Build 0)  -->
<!DOCTYPE svg PUBLIC "-//W3C//DTD SVG 1.1//EN" "http://www.w3.org/Graphics/SVG/1.1/DTD/svg11.dtd">
<svg version="1.1" id="Layer_1" xmlns="http://www.w3.org/2000/svg" xmlns:xlink="http://www.w3.org/1999/xlink" x="0px" y="0px"
	 width="637.429px" height="655.815px" viewBox="0 0 637.429 655.815" enable-background="new 0 0 637.429 655.815"
	 xml:space="preserve">
<text transform="matrix(1 0 0 1 -804.6084 -195.8169)" font-family="'PervitinaDex'" font-size="26.4562">UP TO</text>
<text transform="matrix(1 0 0 1 -1027.5029 47.9287)" font-family="'PervitinaDex'" font-size="53.6075">DISCOUNT</text>
<text transform="matrix(0.9945 0 -0.1045 0.9945 -1016.8428 -17.4219)"><tspan x="0" y="0" fill="#990000" font-family="'speedhunterline'" font-size="190.2169">60</tspan><tspan x="218.745" y="0" fill="#990000" font-family="'speedhunterline'" font-size="91.7239">%</tspan></text>
<rect x="-1291.749" y="1119.142" fill="#990000" width="643.063" height="112.359"/>
<polygon fill="#990000" points="-1290.749,1285.481 -1410.579,1285.481 -1382.479,1232.558 -1410.579,1175.322 -1290.749,1175.322 
	"/>
<polygon fill="#990000" points="-648.811,1285.481 -528.98,1285.481 -557.08,1232.558 -528.98,1175.322 -648.811,1175.322 "/>
<polygon points="-1290.749,1231.501 -1290.749,1285.481 -1234.479,1231.501 "/>
<polygon points="-648.811,1231.501 -648.811,1285.481 -705.08,1231.501 "/>
<text transform="matrix(1 0 0 1 -1273.3726 1198.9224)" fill="#FFFFFF" font-family="'Cairo-Black'" font-size="80">CLEARANCE SALE</text>
<g>
	<polygon fill="#990000" points="-469.065,1406.142 -1192.705,1406.142 -1192.705,1518.501 -469.065,1518.501 -503.654,1464.522 	
		"/>
</g>
<g>
	<path fill="#FFFFFF" d="M-1129.136,1486.002c-3.12-1.973-5.267-4.92-6.44-8.84c-1.174-3.92-1.76-9.16-1.76-15.721
		c0-7.68,0.68-13.547,2.04-17.6c1.36-4.053,3.48-6.854,6.36-8.4s6.88-2.32,12-2.32c5.226,0,10.933,0.801,17.12,2.4l-0.4,11.199
		c-5.014-0.691-9.068-1.039-12.16-1.039c-2.828,0-4.988,0.439-6.48,1.32c-1.494,0.879-2.52,2.268-3.08,4.16s-0.84,4.572-0.84,8.039
		c0,1.76,0.026,3.121,0.08,4.08c0.16,3.947,0.48,6.801,0.96,8.561s1.333,2.959,2.56,3.6c1.227,0.641,3.2,0.961,5.92,0.961
		c3.68,0,8.026-0.293,13.04-0.881l0.24,11.52c-5.76,1.281-11.014,1.92-15.76,1.92
		C-1121.55,1488.961-1126.016,1487.975-1129.136,1486.002z"/>
	<path fill="#FFFFFF" d="M-1060.457,1475.362v12.561h-31.28v-53.76h14.24v41.199H-1060.457z"/>
	<path fill="#FFFFFF" d="M-1040.137,1446.561v8.4h17.12v12.16h-17.12v8.4h21.92v12.4h-36.16v-53.76h36.16v12.398H-1040.137z"/>
	<path fill="#FFFFFF" d="M-983.258,1481.042h-15.68l-1.04,6.881h-14.4l10.32-53.76h25.92l10.32,53.76h-14.4L-983.258,1481.042z
		 M-989.338,1445.842h-3.52l-3.68,22.879h10.88L-989.338,1445.842z"/>
	<path fill="#FFFFFF" d="M-961.499,1434.163h21.52c6.72,0,11.772,1.572,15.16,4.719c3.386,3.148,5.08,7.787,5.08,13.92
		c0,6.135-2.188,11.281-6.56,15.441l5.84,19.68h-15.6l-3.92-16.24h-7.28v16.24h-14.24V1434.163z M-939.738,1459.522
		c1.706,0,3.026-0.652,3.96-1.961c0.933-1.305,1.4-2.893,1.4-4.76c0-1.813-0.52-3.359-1.56-4.639c-1.04-1.281-2.387-1.92-4.04-1.92
		h-7.28v13.279H-939.738z"/>
	<path fill="#FFFFFF" d="M-885.579,1481.042h-15.68l-1.041,6.881h-14.399l10.319-53.76h25.921l10.319,53.76h-14.399
		L-885.579,1481.042z M-891.659,1445.842h-3.52l-3.681,22.879h10.88L-891.659,1445.842z"/>
	<path fill="#FFFFFF" d="M-818.141,1434.163v53.76h-22.8l-8.641-41.041v41.041h-14.239v-53.76h23.359l7.92,39.76v-39.76H-818.141z"
		/>
	<path fill="#FFFFFF" d="M-801.54,1486.002c-3.12-1.973-5.268-4.92-6.44-8.84c-1.174-3.92-1.76-9.16-1.76-15.721
		c0-7.68,0.68-13.547,2.04-17.6c1.359-4.053,3.479-6.854,6.359-8.4c2.881-1.547,6.881-2.32,12-2.32c5.227,0,10.933,0.801,17.12,2.4
		l-0.399,11.199c-5.014-0.691-9.067-1.039-12.16-1.039c-2.827,0-4.987,0.439-6.48,1.32c-1.493,0.879-2.52,2.268-3.08,4.16
		c-0.56,1.893-0.84,4.572-0.84,8.039c0,1.76,0.026,3.121,0.08,4.08c0.16,3.947,0.48,6.801,0.96,8.561
		c0.48,1.76,1.333,2.959,2.561,3.6c1.226,0.641,3.2,0.961,5.92,0.961c3.68,0,8.026-0.293,13.04-0.881l0.24,11.52
		c-5.761,1.281-11.015,1.92-15.761,1.92C-793.954,1488.961-798.42,1487.975-801.54,1486.002z"/>
	<path fill="#FFFFFF" d="M-749.901,1446.561v8.4h17.12v12.16h-17.12v8.4h21.92v12.4h-36.159v-53.76h36.159v12.398H-749.901z"/>
	<path fill="#FFFFFF" d="M-701.503,1486.721l-2.88-0.639l1.439-10.881c7.04,0.961,12.48,1.439,16.32,1.439
		c4.16,0,6.24-1.439,6.24-4.318c0-1.014-0.468-1.813-1.4-2.4c-0.934-0.586-2.308-1.227-4.12-1.92
		c-1.174-0.428-2.027-0.773-2.56-1.041c-6.027-2.025-10.308-4.346-12.84-6.959c-2.534-2.613-3.8-5.893-3.8-9.84
		c0-5.602,1.706-9.84,5.119-12.721s8.053-4.32,13.921-4.32c2.399,0,4.68,0.16,6.84,0.48s6.12,1.014,11.88,2.08l-1.12,11.039
		c-6.934-0.799-12.268-1.199-16-1.199c-4.374,0-6.56,1.199-6.56,3.6c0,0.801,0.532,1.48,1.6,2.041
		c1.066,0.559,2.746,1.268,5.04,2.119c2.346,0.854,3.866,1.439,4.56,1.76c3.521,1.439,6.24,2.84,8.16,4.201
		c1.92,1.359,3.307,3,4.16,4.92c0.853,1.92,1.28,4.348,1.28,7.279c0,3.734-0.868,6.92-2.601,9.561c-1.733,2.639-4.08,4.639-7.04,6
		c-2.96,1.359-6.279,2.039-9.96,2.039C-690.41,1489.042-695.637,1488.268-701.503,1486.721z"/>
	<path fill="#FFFFFF" d="M-632.303,1481.042h-15.68l-1.04,6.881h-14.4l10.32-53.76h25.92l10.319,53.76h-14.399L-632.303,1481.042z
		 M-638.383,1445.842h-3.52l-3.681,22.879h10.88L-638.383,1445.842z"/>
	<path fill="#FFFFFF" d="M-579.265,1475.362v12.561h-31.279v-53.76h14.239v41.199H-579.265z"/>
	<path fill="#FFFFFF" d="M-558.944,1446.561v8.4h17.12v12.16h-17.12v8.4h21.92v12.4h-36.159v-53.76h36.159v12.398H-558.944z"/>
</g>
<g>
	<path fill="#FFD700" d="M-630.517,845.526c-221.772-65.028-457.698-64.939-679.431,0.267
		c-10.566-35.933-21.131-71.864-31.697-107.797c242.395-71.282,500.303-71.379,742.74-0.29
		C-609.442,773.646-619.979,809.585-630.517,845.526z"/>
	<path fill="#FFD700" d="M-1293.732,897.29c-39.477,11.57-78.484,25.301-116.847,41.191c2.245-20.024,4.939-40.102,8.084-60.214
		c-16.333-14.157-33.083-28.016-50.24-41.56c42.032-17.41,84.77-32.454,128.022-45.132
		C-1314.386,826.814-1304.059,862.051-1293.732,897.29z"/>
	<path d="M-1308.914,845.489c5.061,17.267,10.121,34.533,15.182,51.801c13.477-22.701,27.926-45.18,43.343-67.369
		C-1269.993,834.611-1289.507,839.8-1308.914,845.489z"/>
	<path fill="#FFD700" d="M-645.827,897.29c39.477,11.57,78.483,25.301,116.847,41.191c-2.245-20.024-4.938-40.102-8.084-60.214
		c16.333-14.157,33.083-28.016,50.24-41.56c-42.032-17.41-84.77-32.454-128.022-45.132
		C-625.173,826.814-635.501,862.051-645.827,897.29z"/>
	<path d="M-630.646,845.489c-5.06,17.267-10.12,34.533-15.181,51.801c-13.478-22.7-27.927-45.179-43.344-67.369
		C-669.566,834.611-650.052,839.8-630.646,845.489z"/>
	<g>
		<path fill="#000113" d="M-1287.992,803.831c-3.844-1.021-6.914-3.241-9.204-6.682c-2.291-3.439-4.308-8.319-6.038-14.648
			c-2.025-7.407-2.829-13.271-2.386-17.591c0.441-4.318,2.067-7.66,4.879-10.007c2.811-2.346,7.083-4.268,12.808-5.721
			c5.843-1.483,12.429-2.286,19.724-2.375c0.714,3.667,1.429,7.335,2.146,11.002c-5.723,0.651-10.302,1.422-13.728,2.276
			c-3.134,0.781-5.418,1.816-6.849,3.092c-1.434,1.273-2.22,2.911-2.363,4.903s0.223,4.665,1.093,8.021
			c0.442,1.703,0.812,3.014,1.111,3.927c1.166,3.776,2.229,6.448,3.189,8.018c0.96,1.569,2.182,2.492,3.667,2.773
			c1.485,0.281,3.696,0.047,6.637-0.688c3.979-0.996,8.61-2.438,13.912-4.304c0.976,3.715,1.951,7.43,2.925,11.146
			c-5.892,2.718-11.362,4.726-16.441,6.009C-1279.132,804.553-1284.146,804.851-1287.992,803.831z"/>
		<path fill="#000113" d="M-1216.182,776.183c0.825,4.104,1.649,8.209,2.474,12.314c-11.261,2.262-22.498,4.683-33.708,7.261
			c-4.017-17.464-8.035-34.928-12.052-52.392c5.325-1.225,10.655-2.415,15.991-3.572c2.909,13.422,5.817,26.844,8.727,40.265
			C-1228.567,778.72-1222.378,777.427-1216.182,776.183z"/>
		<path fill="#000113" d="M-1199.146,743.597c0.502,2.755,1.003,5.51,1.505,8.265c6.344-1.155,12.695-2.263,19.052-3.321
			c0.666,3.999,1.331,7.997,1.997,11.995c-6.296,1.049-12.586,2.145-18.869,3.289c0.501,2.755,1.003,5.51,1.505,8.265
			c7.991-1.455,15.993-2.833,24.005-4.132c0.662,4.081,1.323,8.161,1.984,12.241c-13.085,2.121-26.145,4.453-39.173,6.997
			c-3.435-17.588-6.869-35.175-10.304-52.763c13.594-2.654,27.22-5.088,40.874-7.302c0.661,4.08,1.322,8.159,1.984,12.239
			C-1182.783,740.699-1190.97,742.108-1199.146,743.597z"/>
		<path fill="#000113" d="M-1130.835,767.817c-5.726,0.746-11.447,1.533-17.165,2.359c-0.051,2.325-0.1,4.649-0.146,6.975
			c-5.221,0.76-10.438,1.553-15.651,2.379c0.929-18.291,2.021-36.591,3.279-54.896c9.801-1.463,19.616-2.812,29.441-4.048
			c6.148,17.288,12.136,34.614,17.962,51.977c-5.236,0.61-10.468,1.253-15.698,1.931
			C-1129.485,772.266-1130.159,770.042-1130.835,767.817z M-1142.234,733.825c-1.321,0.18-2.642,0.361-3.962,0.545
			c-0.33,7.745-0.635,15.489-0.915,23.232c4.007-0.57,8.017-1.121,12.028-1.653
			C-1137.443,748.569-1139.827,741.194-1142.234,733.825z"/>
		<path fill="#000113" d="M-1112.143,718.346c8.168-0.905,16.343-1.732,24.523-2.481c7.665-0.701,13.568,0.402,17.663,3.238
			c4.098,2.839,6.35,7.329,6.798,13.444c0.449,6.12-1.63,11.426-6.158,15.957c2.682,6.368,5.331,12.744,7.945,19.128
			c-5.689,0.422-11.376,0.883-17.061,1.384c-1.903-5.268-3.825-10.529-5.766-15.788c-2.687,0.246-5.373,0.501-8.059,0.764
			c0.529,5.388,1.057,10.775,1.585,16.163c-5.186,0.509-10.368,1.05-15.548,1.624
			C-1108.194,753.967-1110.168,736.157-1112.143,718.346z M-1085.038,741.094c1.907-0.175,3.324-0.955,4.256-2.351
			c0.931-1.391,1.318-3.019,1.158-4.878c-0.157-1.806-0.875-3.297-2.161-4.469c-1.285-1.173-2.865-1.674-4.733-1.502
			c-2.741,0.251-5.482,0.511-8.222,0.779c0.432,4.405,0.864,8.811,1.296,13.216C-1090.643,741.616-1087.841,741.35-1085.038,741.094
			z"/>
		<path fill="#000113" d="M-1023.477,758.519c-5.759,0.248-11.516,0.537-17.271,0.865c-0.251,2.312-0.5,4.623-0.747,6.936
			c-5.256,0.305-10.511,0.643-15.763,1.015c2.499-18.142,5.162-36.277,7.989-54.406c9.87-0.607,19.746-1.103,29.624-1.484
			c4.625,17.755,9.086,35.534,13.384,53.335c-5.261,0.155-10.521,0.344-15.78,0.565
			C-1022.517,763.069-1022.996,760.793-1023.477,758.519z M-1031.882,723.668c-1.329,0.064-2.658,0.131-3.986,0.199
			c-0.996,7.688-1.967,15.377-2.913,23.066c4.034-0.221,8.068-0.424,12.103-0.605
			C-1028.388,738.771-1030.123,731.218-1031.882,723.668z"/>
		<path fill="#000113" d="M-948.361,710.66c-0.297,17.917-0.594,35.835-0.892,53.752c-8.332-0.138-16.665-0.191-24.997-0.161
			c-3.208-13.669-6.519-27.326-9.936-40.969c0.154,13.68,0.308,27.359,0.462,41.039c-5.204,0.059-10.407,0.149-15.61,0.273
			c-0.428-17.914-0.855-35.829-1.283-53.744c8.906-0.213,17.813-0.333,26.721-0.361c3.063,13.243,6.032,26.498,8.908,39.763
			c0.051-13.254,0.102-26.507,0.152-39.76C-959.344,710.512-953.853,710.569-948.361,710.66z"/>
		<path fill="#000113" d="M-930.996,762.928c-3.363-2.078-5.647-5.085-6.844-9.038c-1.197-3.951-1.725-9.205-1.568-15.764
			c0.184-7.678,1.089-13.526,2.739-17.537c1.647-4.012,4.143-6.747,7.482-8.189s7.948-2.061,13.805-1.814
			c5.979,0.252,12.475,1.368,19.444,3.369c-0.364,3.719-0.729,7.437-1.091,11.155c-5.635-1.014-10.212-1.585-13.715-1.747
			c-3.203-0.147-5.67,0.189-7.396,1.002c-1.726,0.81-2.939,2.153-3.643,4.021c-0.703,1.868-1.116,4.534-1.244,7.998
			c-0.065,1.759-0.085,3.12-0.061,4.081c0.033,3.951,0.283,6.816,0.749,8.595c0.467,1.778,1.366,3.013,2.698,3.707
			c1.332,0.695,3.501,1.104,6.508,1.24c4.069,0.185,8.887,0.129,14.466-0.143c-0.13,3.839-0.261,7.678-0.392,11.517
			c-6.387,0.918-12.164,1.276-17.359,1.052C-922.78,766.158-927.632,765.007-930.996,762.928z"/>
		<path fill="#000113" d="M-871.323,726.672c-0.215,2.792-0.431,5.584-0.646,8.375c6.408,0.494,12.813,1.037,19.216,1.629
			c-0.373,4.037-0.746,8.072-1.119,12.109c-6.341-0.586-12.686-1.124-19.032-1.614c-0.216,2.792-0.431,5.584-0.646,8.376
			c8.073,0.623,16.142,1.324,24.204,2.104c-0.398,4.114-0.796,8.229-1.194,12.343c-13.168-1.273-26.353-2.335-39.547-3.186
			c1.153-17.883,2.306-35.766,3.459-53.648c13.768,0.888,27.524,1.995,41.265,3.324c-0.398,4.113-0.796,8.228-1.194,12.341
			C-854.808,728.027-863.063,727.309-871.323,726.672z"/>
		<path fill="#000113" d="M-821.496,771.939c-1.022-0.338-2.046-0.674-3.069-1.009c0.948-3.541,1.902-7.08,2.859-10.618
			c7.644,1.879,13.558,3.136,17.777,3.699c4.57,0.613,7.053-0.487,7.452-3.34c0.141-1.004-0.264-1.866-1.214-2.592
			c-0.951-0.723-2.381-1.566-4.294-2.523c-1.241-0.599-2.142-1.066-2.697-1.41c-6.41-2.889-10.885-5.771-13.396-8.707
			c-2.512-2.936-3.55-6.355-3.091-10.277c0.651-5.563,3.067-9.551,7.291-11.939c4.22-2.388,9.688-3.155,16.361-2.26
			c2.73,0.366,5.299,0.883,7.709,1.545c2.409,0.663,6.811,1.984,13.177,4.024c-0.974,3.574-1.944,7.149-2.911,10.726
			c-7.67-1.96-13.622-3.189-17.825-3.762c-4.926-0.667-7.544,0.21-7.852,2.588c-0.102,0.794,0.406,1.546,1.532,2.259
			c1.123,0.711,2.913,1.663,5.364,2.854c2.511,1.203,4.13,2.021,4.859,2.447c3.733,1.977,6.563,3.804,8.5,5.466
			c1.938,1.659,3.234,3.515,3.893,5.556c0.656,2.041,0.763,4.513,0.32,7.411c-0.563,3.692-1.996,6.694-4.281,9.021
			c-2.288,2.325-5.136,3.925-8.553,4.809c-3.415,0.884-7.117,1.051-11.12,0.513C-809.694,775.748-815.28,774.246-821.496,771.939z"
			/>
		<path fill="#000113" d="M-745.192,777.776c-5.69-1.044-11.387-2.047-17.087-3.01c-0.76,2.197-1.519,4.396-2.273,6.595
			c-5.208-0.875-10.419-1.717-15.635-2.524c6.481-17.13,13.123-34.217,19.924-51.26c9.784,1.607,19.555,3.328,29.309,5.162
			c0.571,18.342,0.978,36.671,1.221,54.985c-5.186-1.024-10.377-2.016-15.572-2.974
			C-745.267,782.426-745.229,780.101-745.192,777.776z M-745.653,741.924c-1.314-0.234-2.629-0.466-3.944-0.695
			c-2.686,7.273-5.348,14.553-7.985,21.838c3.993,0.684,7.984,1.387,11.973,2.109C-745.6,757.427-745.614,749.677-745.653,741.924z"
			/>
		<path fill="#000113" d="M-686.369,784.202c-0.949,4.078-1.897,8.156-2.846,12.234c-11.205-2.606-22.437-5.054-33.693-7.344
			c3.572-17.561,7.145-35.12,10.717-52.681c5.347,1.087,10.688,2.209,16.022,3.365c-2.907,13.421-5.815,26.843-8.724,40.265
			C-698.71,781.381-692.536,782.768-686.369,784.202z"/>
		<path fill="#000113" d="M-657.315,761.606c-0.684,2.715-1.367,5.431-2.051,8.146c6.273,1.579,12.539,3.208,18.795,4.885
			c-1.049,3.915-2.1,7.83-3.148,11.746c-6.195-1.661-12.401-3.274-18.616-4.839c-0.684,2.715-1.367,5.431-2.051,8.146
			c7.904,1.989,15.794,4.059,23.667,6.205c-1.087,3.988-2.175,7.977-3.262,11.964c-12.86-3.507-25.763-6.802-38.703-9.886
			c4.154-17.433,8.309-34.864,12.463-52.296c13.502,3.218,26.965,6.656,40.383,10.315c-1.088,3.987-2.175,7.975-3.262,11.962
			C-641.156,765.758-649.229,763.642-657.315,761.606z"/>
	</g>
</g>
<g>
	<g>
		<g>
			<path fill="#FFD700" d="M132.901,559.885c-34.819,0-61.229-21.901-65.717-54.498l-0.508-3.678l8.24-28.24l10.275-35.399
				l6.438-23.278l2.458-7.621l6.117-21.558h9.936l4.477-15.492l0.646-2.981l13.029-44.674
				c12.479-42.986,56.014-76.675,99.107-76.675h59.878c34.817,0,61.228,21.899,65.718,54.496l0.493,3.568l-7.935,28.48l-7.769,25.88
				h-46.53c14.328,9.177,24.225,23.889,27.122,42.048l3.212,20.131h-12.584c-0.509,4.421-1.407,8.953-2.691,13.578l-4.154,13.842
				l-10.266,35.373c-12.068,42.945-55.624,76.698-99.116,76.698H132.901z M141.811,467.854c-7.16,23.981-6.776,31.569-5.193,33.711
				l0.185,0.251l0.178,0.259c0.082,0.102,1.706,1.315,8.075,1.315h52.638c18.257,0,28.528-11.781,37.893-43.469l10.88-38.015
				c1.094-3.818,1.742-9.283-1.24-13.954c-2.571-3.139-6.276-4.666-11.313-4.666H168.11l-3.255,11.185h-7.821L141.811,467.854z
				 M238.663,347.778l5.773-18.515h-9.98c-2.396,0-6.944,3.053-8.024,6.814l-3.389,11.701H238.663z"/>
		</g>
		<g>
			<path fill="#FFD700" d="M146.196,527.315c-13.093,0-22.639-4.081-28.38-12.132c-9.667-13.172-5.522-31.902,0.897-54.99
				l20.203-69.646h7.788l3.148-11.185h82.918c12.627,0,23.961,5.375,31.101,14.748l0.363,0.497
				c6.727,9.509,8.565,22.188,5.048,34.784l-10.95,38.271c-8.55,29.523-22.289,59.652-59.5,59.652H146.196z M185.724,476.413
				c2.881,0,7.3-3.144,8.353-6.813l8.956-31.742l2.063-6.607H189.85c-0.259,0-0.567,0.036-0.917,0.115l-4.518,16.329l-8.403,28.719
				H185.724z"/>
		</g>
		<g>
			<path fill="#FFD700" d="M329.667,559.556c-22.085,0-40.873-8.757-52.9-24.658c-12.381-16.363-15.818-38.703-9.435-61.289
				l25.388-87.996h9.861l18.148-63.085c12.523-42.875,56.039-76.407,99.092-76.407h45.732c22.352,0,41.283,8.833,53.307,24.87
				c12.286,16.387,15.562,38.701,8.987,61.219l-25.371,88.185h-9.881l-18.11,62.768c-12.516,42.86-56.031,76.395-99.086,76.395
				H329.667z M333.704,496.48c3.576,4.805,12.26,7.24,25.813,7.24h5.924c43.42,0,48.538-18.271,55.624-43.56l20.189-69.614h7.911
				l15.406-52.937c3.568-12.724,3.445-22.725-0.396-28c-4.803-6.597-15.97-7.98-24.49-7.98h-5.92
				c-43.266,0-48.188,17.351-55.643,43.614l-20.154,69.229h-7.885l-15.448,53.253C329.628,485.312,331.345,493.077,333.704,496.48z"
				/>
		</g>
		<g>
			<path fill="#FFD700" d="M360.692,527.315c-22.654,0-37.715-5.749-46.045-17.574c-10.738-15.244-6.744-35.61-2.805-49.603
				l20.186-69.592h7.91l15.382-52.852c7.452-26.605,16.772-59.662,77.269-59.662h5.921c20.886,0,35.839,6.037,44.453,17.943
				c8.764,11.724,10.246,28.274,4.405,49.196l-20.174,69.3h-7.884l-15.446,53.252c-7.415,26.466-16.696,59.592-77.248,59.592
				H360.692z M370.495,469.827c1.661-1.273,3.164-3.039,3.716-4.924l12.792-44.509H384.7L370.495,469.827z M406.905,385.613
				l14.587-50.211c-1.659,1.243-3.153,3.005-3.716,4.959l-13.144,45.252H406.905z"/>
		</g>
		<g>
			<path fill="#FFD700" d="M494.897,488.17c-10.096,0-19.07-4.209-24.629-11.546c-5.296-6.991-6.899-16.1-4.397-24.99l8.663-29.655
				h4.734l1.332-4.59c4.315-15.324,20.348-26.979,37.254-26.979h11.739c10.039,0,18.964,4.181,24.486,11.471
				c5.298,6.993,6.894,16.13,4.38,25.065l-8.658,29.814h-4.617l-1.301,4.457c-4.311,15.297-20.343,26.953-37.248,26.953H494.897z"/>
		</g>
		<g>
			<polygon fill="#FFD700" points="431.738,559.556 507.442,457.512 512.22,457.512 562.28,390.25 637.429,390.25 561.24,492.293 
				556.481,492.293 506.266,559.556 			"/>
		</g>
		<g>
			<path fill="#FFD700" d="M534.665,559.556c-10.097,0-19.074-4.209-24.631-11.548c-5.295-6.993-6.895-16.104-4.391-24.995
				l8.652-29.806h4.782l1.282-4.391c4.412-15.504,20.42-27.18,37.283-27.18h11.738c10.138,0,19.129,4.272,24.667,11.726
				c5.261,7.076,6.768,16.219,4.146,25.105l-8.348,29.521h-4.854l-1.332,4.589c-4.314,15.322-20.349,26.979-37.258,26.979H534.665z"
				/>
		</g>
		<g>
			<path fill="#FFD700" d="M502.091,480.08c-8.902,0-16.766-3.723-21.572-10.212l-0.336-0.454l-0.307-0.475
				c-4.044-6.274-5.099-13.654-2.977-20.805l7.077-24.887h5.561l0.425-1.492c3.599-12.782,16.9-22.461,30.926-22.461h1.587
				c8.865,0,16.854,3.988,21.437,10.684c4.312,6.187,5.499,13.842,3.271,21.089l-7.08,24.266h-5.389l-0.643,2.281
				c-3.974,13.018-17.156,22.466-31.344,22.466H502.091z"/>
		</g>
		<g>
			<path fill="#FFD700" d="M542.053,551.149c-8.815,0-16.674-3.78-21.556-10.372l-0.188-0.258c-4.402-6.175-5.65-13.99-3.436-21.47
				l7.085-24.891h5.565l0.421-1.415c3.725-13.073,16.691-22.54,30.921-22.54h1.587c8.865,0,16.853,3.987,21.433,10.684
				c4.283,6.144,5.477,13.837,3.279,21.172l-7.102,24.342h-5.413l-0.575,2.04c-3.883,12.946-17.376,22.708-31.387,22.708H542.053z"
				/>
		</g>
		<path fill="#000113" d="M474.592,231.92h15.737c2.912,0,5.174-0.574,6.784-1.726c1.612-1.15,2.998-3.166,4.165-6.049l9.753-24.109
			c0.368-0.829,0.122-1.242-0.735-1.242h-7.223c-0.768,0-1.335,0.413-1.704,1.242l-9.201,22.729c-0.092,0.307-0.308,0.46-0.644,0.46
			h-11.043c-0.276,0-0.368-0.153-0.276-0.46l9.155-22.729c0.369-0.829,0.14-1.242-0.689-1.242h-7.269
			c-0.768,0-1.335,0.413-1.704,1.242l-9.753,24.109c-0.89,2.177-0.883,4.018,0.024,5.521
			C470.872,231.169,472.415,231.92,474.592,231.92z"/>
		<path fill="#000113" d="M504.729,231.92h7.224c0.859,0,1.441-0.397,1.749-1.196l9.109-22.82c0.122-0.277,0.337-0.415,0.644-0.415
			h10.03c0.306,0,0.399,0.138,0.277,0.415l-2.438,6.073c-0.125,0.275-0.34,0.415-0.646,0.415h-7.086
			c-0.521,0-0.882,0.068-1.08,0.205c-0.2,0.14-0.407,0.469-0.621,0.99l-2.348,5.89c-0.366,0.827-0.138,1.242,0.689,1.242h9.48
			c2.882,0,5.129-0.576,6.739-1.726c1.609-1.15,2.999-3.167,4.164-6.049l3.359-8.329c0.888-2.177,0.879-4.018-0.024-5.521
			c-0.905-1.503-2.445-2.253-4.622-2.253h-21.257c-0.798,0-1.352,0.399-1.657,1.196l-12.377,30.688
			C503.671,231.523,503.899,231.92,504.729,231.92z"/>
		<path fill="#000113" d="M556.948,207.49h28.895c0.828,0,1.396-0.399,1.701-1.197l2.531-6.256c0.369-0.829,0.121-1.242-0.736-1.242
			h-28.894c-0.768,0-1.335,0.413-1.701,1.242l-2.53,6.256C555.906,207.091,556.15,207.49,556.948,207.49z"/>
		<path fill="#000113" d="M565.138,231.92c0.767,0,1.335-0.415,1.704-1.242l8.098-20.015c0.306-0.796,0.061-1.196-0.737-1.196
			h-7.223c-0.827,0-1.396,0.399-1.704,1.196l-8.098,20.015c-0.366,0.827-0.122,1.242,0.737,1.242H565.138z"/>
		<path fill="#000113" d="M581.519,224.146c-0.891,2.177-0.883,4.018,0.021,5.521c0.906,1.503,2.445,2.254,4.625,2.254h5.566
			c0.767,0,1.336-0.415,1.703-1.242l2.529-6.258c0.307-0.796,0.062-1.196-0.736-1.196h-3.173c-0.276,0-0.37-0.153-0.276-0.46
			l5.979-14.814c0.093-0.308,0.308-0.46,0.646-0.46h10.902c0.277,0,0.371,0.153,0.277,0.46l-5.979,14.814
			c-0.094,0.307-0.31,0.46-0.646,0.46h-3.176c-0.797,0-1.349,0.399-1.654,1.196l-2.53,6.258c-0.37,0.827-0.14,1.242,0.689,1.242
			h5.476c2.882,0,5.135-0.574,6.763-1.726c1.625-1.15,3.021-3.166,4.188-6.049l7.129-17.576c0.891-2.177,0.883-4.018-0.021-5.521
			c-0.906-1.503-2.461-2.254-4.671-2.254h-15.596c-2.884,0-5.132,0.574-6.742,1.726c-1.61,1.15-2.997,3.167-4.165,6.049
			L581.519,224.146z"/>
		<path fill="#000113" d="M162.565,593.259c-1.834-3.046-4.957-4.569-9.369-4.569H111.71c-1.555,0-2.704,0.84-3.449,2.518
			l-25.08,62.091c-0.743,1.678-0.278,2.517,1.4,2.517h14.544c1.552,0,2.704-0.839,3.447-2.517l18.647-46.056
			c0.186-0.619,0.619-0.932,1.305-0.932h18.926c0.558,0,0.744,0.313,0.558,0.932l-12.211,30.02
			c-0.187,0.622-0.622,0.933-1.306,0.933h-13.053c-1.616,0-2.735,0.809-3.355,2.424l-5.129,12.68
			c-0.744,1.678-0.278,2.517,1.399,2.517h17.714c5.84,0,10.394-1.165,13.658-3.497c3.262-2.33,6.072-6.416,8.437-12.259
			l14.449-35.613C164.415,600.034,164.398,596.306,162.565,593.259z"/>
		<path fill="#000113" d="M196.64,588.69h-14.731c-1.553,0-2.704,0.84-3.448,2.518l-25.078,62.091
			c-0.746,1.678-0.281,2.517,1.397,2.517h14.731c1.552,0,2.703-0.839,3.447-2.517l25.081-62.091
			C198.782,589.53,198.317,588.69,196.64,588.69z"/>
		<path fill="#000113" d="M245.021,614.795h-26.474c-0.873,0-1.121-0.404-0.748-1.213l2.984-7.459
			c0.311-0.807,0.9-1.211,1.771-1.211h21.348c0.809,0,1.026,0.404,0.652,1.211l-0.839,2.238c-0.499,1.059-0.187,1.585,0.935,1.585
			h15.102c0.994,0,1.738-0.526,2.238-1.585l1.77-4.381c1.678-4.289,1.646-7.909-0.092-10.861c-1.742-2.952-4.756-4.43-9.045-4.43
			h-29.738c-5.533,0-9.928,1.165-13.192,3.497c-3.261,2.33-6.013,6.262-8.251,11.794l-4.286,10.44
			c-1.678,4.288-1.647,7.909,0.092,10.861c1.739,2.953,4.755,4.429,9.044,4.429h26.475c0.869,0,1.121,0.404,0.747,1.211
			l-2.981,7.459c-0.313,0.809-0.904,1.211-1.773,1.211h-22.28c-0.809,0-1.026-0.402-0.654-1.211l0.839-2.238
			c0.498-1.057,0.188-1.584-0.931-1.584H192.63c-0.996,0-1.741,0.527-2.237,1.584l-1.772,4.382
			c-1.739,4.288-1.725,7.911,0.047,10.862c1.771,2.952,4.802,4.428,9.09,4.428h30.672c5.469,0,9.836-1.165,13.098-3.497
			c3.264-2.33,6.042-6.26,8.346-11.793l4.286-10.441c1.678-4.288,1.647-7.907-0.092-10.86
			C252.324,616.271,249.312,614.795,245.021,614.795z"/>
		<path fill="#000113" d="M313.825,638.195h-31.324c-0.562,0-0.748-0.311-0.562-0.933l12.121-29.926
			c0.311-0.683,0.747-1.025,1.306-1.025h31.417c1.615,0,2.734-0.808,3.356-2.424l5.129-12.68c0.619-1.678,0.154-2.518-1.399-2.518
			h-37.384c-5.844,0-10.396,1.165-13.658,3.497c-3.266,2.33-6.078,6.418-8.438,12.259l-14.449,35.613
			c-1.804,4.414-1.787,8.144,0.048,11.188c1.83,3.047,4.955,4.568,9.367,4.568h37.386c1.552,0,2.703-0.839,3.449-2.517l5.127-12.68
			C315.938,639.003,315.44,638.195,313.825,638.195z"/>
		<path fill="#000113" d="M400.202,593.259c-1.834-3.046-4.988-4.569-9.463-4.569h-31.604c-5.844,0-10.396,1.165-13.657,3.497
			c-3.265,2.33-6.077,6.418-8.438,12.259l-14.451,35.613c-1.804,4.414-1.787,8.144,0.047,11.188
			c1.833,3.047,4.956,4.568,9.368,4.568h11.282c1.553,0,2.703-0.839,3.449-2.517l5.127-12.68c0.62-1.615,0.124-2.424-1.49-2.424
			h-6.434c-0.559,0-0.746-0.311-0.559-0.933l12.119-30.02c0.187-0.619,0.619-0.932,1.304-0.932h22.096
			c0.561,0,0.745,0.313,0.561,0.932l-12.121,30.02c-0.186,0.622-0.622,0.933-1.305,0.933h-6.433c-1.617,0-2.736,0.809-3.356,2.424
			l-5.127,12.68c-0.745,1.678-0.28,2.517,1.397,2.517h11.096c5.84,0,10.408-1.165,13.703-3.497c3.293-2.33,6.121-6.416,8.483-12.259
			l14.451-35.613C402.05,600.034,402.034,596.306,400.202,593.259z"/>
		<path fill="#000113" d="M477.812,588.69h-14.636c-1.556,0-2.704,0.84-3.451,2.518l-18.644,46.055
			c-0.188,0.622-0.624,0.933-1.307,0.933h-22.373c-0.561,0-0.748-0.311-0.561-0.933l18.553-46.055
			c0.745-1.678,0.279-2.518-1.398-2.518h-14.731c-1.554,0-2.703,0.84-3.449,2.518l-19.763,48.852
			c-1.804,4.414-1.789,8.144,0.045,11.188c1.833,3.047,4.956,4.568,9.37,4.568h31.884c5.904,0,10.488-1.165,13.752-3.497
			c3.263-2.33,6.073-6.416,8.438-12.259l19.764-48.852C480.049,589.53,479.551,588.69,477.812,588.69z"/>
		<path fill="#000113" d="M552.115,588.69h-14.638c-1.554,0-2.704,0.84-3.449,2.518l-12.119,29.926
			c-0.063,0.374-0.188,0.561-0.374,0.561c-0.124,0-0.185-0.124-0.185-0.373l-10.443-30.952c-0.372-1.118-1.211-1.679-2.517-1.679
			h-14.729c-1.555,0-2.704,0.84-3.449,2.518l-25.08,62.091c-0.745,1.678-0.278,2.517,1.4,2.517h14.729
			c1.553,0,2.704-0.839,3.45-2.517l12.119-30.02c0.187-0.374,0.311-0.56,0.373-0.56c0.124,0,0.218,0.124,0.28,0.372l10.348,31.046
			c0.374,1.119,1.213,1.678,2.518,1.678h14.638c1.615,0,2.796-0.839,3.541-2.517l25.079-62.091
			C554.353,589.53,553.854,588.69,552.115,588.69z"/>
		<path fill="#000113" d="M618.679,588.69h-58.547c-1.555,0-2.704,0.84-3.449,2.518l-5.128,12.68
			c-0.621,1.616-0.126,2.424,1.491,2.424h58.549c1.678,0,2.827-0.808,3.449-2.424l5.127-12.68
			C620.916,589.53,620.419,588.69,618.679,588.69z"/>
		<path fill="#000113" d="M588.008,610.32H573.37c-1.678,0-2.828,0.809-3.449,2.424l-16.408,40.555
			c-0.745,1.678-0.249,2.517,1.491,2.517h14.637c1.554,0,2.703-0.839,3.45-2.517l16.408-40.555
			C590.118,611.128,589.623,610.32,588.008,610.32z"/>
		<g>
			<path fill="#6609B7" d="M132.901,542.495h3.947h1.977h15.132h5.924h10.196h13.162h9.538c35.532,0,72.429-28.622,82.415-64.154
				l10.312-35.53l4.052-13.487c2.648-9.543,3.251-18.425,1.78-26.319h9.867c-3.569-22.373-21.356-37.834-47.348-37.834h-5.261
				h-17.438h-5.921h-5.924H204.18h-1.977H199.9l9.814-33.886c3.112-10.856,14.213-19.411,24.741-19.411c0.328,0,0.328,0,0.657,0
				h0.986h10.198h1.316c0.33,0,0.33,0,0.659,0c10.528,0,16.866,8.555,13.751,19.411l-2.975,9.541h65.798l4.049-13.489l6.871-24.675
				c-3.173-23.028-21.511-39.479-48.49-39.479h-3.947h-1.976h-15.132H260.3h-10.197H236.94h-9.541
				c-35.203,0-72.098,28.623-82.411,64.153l-12.858,44.084l-0.642,2.961l-8.271,28.623h-9.871l-2.612,9.211l-2.44,7.565l-6.37,23.03
				l-10.313,35.53l-7.199,24.675C87.583,526.046,105.925,542.495,132.901,542.495z M125.146,462.878l18.762-65.798h7.897
				l16.475-56.585c10.815-37.176,30.258-56.257,57.893-56.257h47.047c11.188,0,18.771,2.961,23.447,8.554
				c5.265,6.25,6.894,15.792,4.611,31.254l-11.117-0.658c1.902-11.843,1.019-19.082-2.185-23.029
				c-2.944-3.291-8.036-4.935-15.932-4.935h-47.047c-22.043,0-37.157,15.463-46.069,47.046l-12.46,43.426h67.443
				c10.857,0,19.621,4.277,25.405,11.843c5.422,7.896,6.98,18.095,3.865,28.952l-10.92,38.161
				c-8.169,27.635-21.012,55.929-54.57,55.929h-52.638c-10.856,0-18.148-2.632-22.427-8.884
				C114.852,501.372,119.057,483.276,125.146,462.878z"/>
		</g>
		<g>
			<path fill="#6609B7" d="M146.196,509.924h52.637c21.057,0,32.969-13.159,42.781-47.046l10.92-38.163
				c2.111-7.565,1.227-14.803-2.496-20.068c-3.759-4.934-10.029-7.895-17.267-7.895h-69.747l-3.148,11.185h-7.897l-16.51,56.915
				c-4.759,17.109-8.756,33.228-3.56,40.139C134.195,508.28,138.958,509.924,146.196,509.924z M158.483,474.393l9.24-31.583
				l6.369-23.03c4.658-3.617,10.162-5.921,15.757-5.921c0.329,0,2.962,0,5.594,0h5.921h8.553
				c10.132,0.659,15.846,8.883,12.766,19.41l-2.977,9.541l-8.913,31.583c-3.114,10.857-14.212,19.41-25.069,19.41h-0.329h-1.315
				H173.88h-1.316h-0.329C161.379,493.803,155.37,485.25,158.483,474.393z"/>
		</g>
		<g>
			<path fill="#6609B7" d="M305.803,403.003l-21.735,75.337c-9.951,35.203,10.398,63.824,45.6,63.824h45.732
				c35.203,0,72.098-28.621,82.376-63.824l21.738-75.337h9.87l21.77-75.668c10.278-35.202-10.07-63.824-45.6-63.824h-45.732
				c-35.203,0-72.098,28.622-82.379,63.824l-21.77,75.668H305.803z M337.021,397.081h7.897l16.474-56.585
				c7.844-27.635,16.114-56.257,72.373-56.257h5.92c18.424,0,31.361,5.264,38.549,15.134c7.188,9.87,8.298,24.345,3.036,43.098
				l-19.055,65.468h-7.897l-16.508,56.915c-7.374,26.32-16.11,56.259-72.369,56.259h-5.924c-19.737,0-32.743-4.606-39.931-14.475
				c-8.886-12.503-5.306-30.927-1.654-43.758L337.021,397.081z"/>
		</g>
		<g>
			<path fill="#6609B7" d="M360.692,509.924h5.924c47.047,0,53.171-20.727,60.545-47.046l19.086-65.798h7.896l16.475-56.585
				c4.225-15.134,3.824-26.977-1.664-34.215c-5.164-7.238-15.639-10.857-30.444-10.857h-5.921
				c-47.047,0-53.174,20.727-60.545,47.046l-19.056,65.468h-7.897l-16.507,56.915c-4.726,16.779-4.586,27.965,0.282,34.873
				C333.733,506.636,344.571,509.924,360.692,509.924z M352.411,469.788l19.191-66.784h9.87l19.589-67.443
				c3.118-10.857,14.215-19.41,24.741-19.41c10.529,0,16.868,8.553,13.753,19.41l-19.592,67.443h-9.867l-19.194,66.784
				c-3.081,10.527-14.216,19.41-24.741,19.41C355.306,489.198,349.33,480.315,352.411,469.788z"/>
		</g>
		<g>
			<path fill="#6609B7" d="M506.636,470.779c9.042,0,18.274-6.347,20.553-14.436l4.956-16.974h4.6l4.976-17.133
				c2.275-8.091-3.084-14.437-12.126-14.437h-11.739c-9.041,0-18.273,6.346-20.553,14.437l-4.973,17.133h-4.759l-4.959,16.974
				c-2.275,8.089,3.244,14.436,12.286,14.436H506.636z M492.265,461.102c-1.654-2.379-2.13-5.392-1.321-8.566l4.232-14.595h5.554
				l3.312-11.897c1.967-6.663,9.674-12.057,17.129-12.057h1.587c3.807,0,7.133,1.587,9.086,4.125c1.65,2.38,2.129,5.393,1.334,8.408
				l-4.178,14.118h-5.553l-3.522,12.373c-1.983,6.822-9.867,12.374-17.479,12.374h-0.635
				C497.683,465.385,494.201,463.799,492.265,461.102z"/>
		</g>
		<g>
			<path fill="#6609B7" d="M571.016,407.641l-50.06,67.262h-4.762l-49.9,67.262h31.253l50.216-67.262h4.759l50.22-67.262H571.016z
				 M537.328,477.601h-4.759l-39.71,53.302l-4.141-2.856l41.401-55.841h4.763l39.163-52.666l4.144,2.856L537.328,477.601z"/>
		</g>
		<g>
			<path fill="#6609B7" d="M557.644,479.028c-9.045,0-18.295,6.505-20.57,14.596l-4.959,16.975h-4.759l-4.973,17.131
				c-2.279,8.091,3.24,14.436,12.282,14.436h11.738c9.043,0,18.277-6.345,20.557-14.436l4.973-17.131h4.76l4.799-16.975
				c2.436-8.091-3.067-14.596-12.109-14.596H557.644z M571.821,489.023c1.654,2.379,2.129,5.394,1.317,8.566l-4.164,13.96h-5.55
				l-3.522,12.372c-1.987,6.822-9.864,12.374-17.479,12.374h-0.635c-4.124,0-7.622-1.427-9.562-4.123
				c-1.638-2.539-2.113-5.553-1.305-8.727l4.216-14.436h5.55l3.315-11.898c1.97-6.663,9.69-12.215,17.146-12.215h1.587
				C566.542,484.897,569.864,486.484,571.821,489.023z"/>
		</g>
		<g>
			<path fill="#6609B7" d="M502.727,462.688c6.505,0,13.016-4.601,14.711-10.152l4.072-14.595h5.55l3.472-11.897
				c0.71-2.221,0.31-4.441-0.935-6.187c-1.371-2.063-4.109-3.172-7.122-3.172h-1.587c-6.348,0-12.683,4.442-14.201,9.835
				l-4.021,14.118h-5.553l-3.52,12.373c-0.727,2.381-0.326,4.603,0.9,6.505c1.528,2.063,4.266,3.172,7.598,3.172H502.727z
				 M501.847,451.426l3.488-12.057h4.759l3.522-12.373c0.676-1.904,2.904-3.492,4.969-3.492c2.219,0,3.639,1.588,2.962,3.492
				l-3.519,12.373h-4.762l-3.485,12.057c-0.52,1.902-2.748,3.489-4.97,3.489C502.591,454.916,501.33,453.329,501.847,451.426z"/>
		</g>
		<g>
			<path fill="#6609B7" d="M560.866,487.594c-6.344,0-12.683,4.443-14.218,9.995l-4.164,13.96h-5.394l-3.523,12.372
				c-0.723,2.381-0.339,4.761,0.904,6.505c1.528,2.063,4.252,3.332,7.581,3.332h0.636c6.345,0,13.016-4.603,14.728-10.313
				l4.056-14.436h5.55l3.472-11.898c0.727-2.38,0.326-4.601-0.921-6.345c-1.368-2.063-4.106-3.173-7.119-3.173H560.866z
				 M561.479,498.382l-3.506,12.216h-4.759l-3.505,12.214c-0.676,1.904-2.904,3.49-4.97,3.49c-2.218,0-3.638-1.586-2.962-3.49
				l3.502-12.214h4.763l3.502-12.216c0.52-1.906,2.748-3.49,4.969-3.49C560.734,494.892,561.994,496.476,561.479,498.382z"/>
		</g>
	</g>
	<g>
		<g>
			<path d="M331.376,68.318c0,2.433-1.029,4.536-3.09,6.31c-0.63,0.543-1.316,1.088-2.061,1.631l-9.229,6.653h14.379v6.01h-23.179
				v-8.156l15.452-11.16v-2.146c0-1.717-0.858-2.576-2.574-2.576h-12.02v-6.009h13.735c3.006,0,5.187,0.68,6.548,2.039
				c1.358,1.36,2.037,3.542,2.037,6.546V68.318z"/>
			<path d="M359.708,80.766c0,3.005-0.682,5.188-2.04,6.546c-1.359,1.36-3.541,2.039-6.546,2.039h-8.156
				c-3.004,0-5.188-0.679-6.545-2.039c-1.361-1.359-2.04-3.541-2.04-6.546V67.03c0-3.004,0.679-5.186,2.04-6.546
				c1.357-1.359,3.541-2.039,6.545-2.039h8.156c3.005,0,5.187,0.68,6.546,2.039c1.358,1.36,2.04,3.542,2.04,6.546V80.766z
				 M351.98,67.03c0-1.717-0.858-2.575-2.575-2.575h-4.723c-1.717,0-2.575,0.858-2.575,2.575v13.736
				c0,1.718,0.858,2.576,2.575,2.576h4.723c1.717,0,2.575-0.858,2.575-2.576V67.03z"/>
			<path d="M368.507,88.922V65.528l-4.936,1.717l-2.147-4.937l7.942-3.434h6.867v30.047H368.507z"/>
			<path d="M406.281,81.196c0,2.804-0.658,4.865-1.975,6.181s-3.378,1.974-6.182,1.974h-9.873c-2.805,0-4.865-0.658-6.181-1.974
				c-1.317-1.316-1.975-3.377-1.975-6.181v-0.43c0-2.174,0.543-3.977,1.631-5.408c0.859-1.145,2.031-1.917,3.52-2.318
				c-1.287-0.429-2.326-1.18-3.111-2.253c-0.788-1.073-1.181-2.468-1.181-4.186v-0.429c0-2.604,0.658-4.543,1.974-5.817
				c1.316-1.272,3.377-1.91,6.182-1.91h8.156c2.804,0,4.865,0.637,6.182,1.91c1.314,1.274,1.975,3.213,1.975,5.817v0.429
				c0,1.717-0.395,3.113-1.181,4.186c-0.787,1.073-1.825,1.824-3.112,2.253c2.318,0.63,3.892,2.175,4.722,4.636
				c0.286,0.887,0.43,1.917,0.43,3.09V81.196z M390.397,76.903c-1.716,0-2.574,0.858-2.574,2.575v1.718
				c0,0.659,0.193,1.18,0.579,1.566s0.908,0.58,1.566,0.58h6.439c0.658,0,1.181-0.193,1.567-0.58
				c0.386-0.387,0.578-0.908,0.578-1.566v-1.718c0-1.717-0.857-2.575-2.575-2.575H390.397z M391.258,64.455
				c-1.718,0-2.576,0.858-2.576,2.575v1.288c0,1.717,0.858,2.575,2.576,2.575h3.862c1.717,0,2.576-0.858,2.576-2.575V67.03
				c0-1.717-0.859-2.575-2.576-2.575H391.258z"/>
			<path d="M438.475,88.922c-2.776,0.286-5.495,0.429-8.155,0.429c-1.947,0-3.507-0.586-4.68-1.76
				c-1.174-1.173-1.76-2.732-1.76-4.679V71.966h-2.575v-5.794h2.575l0.858-5.151h6.653v5.151h5.365v5.794h-5.365v9.873
				c0,0.429,0.143,0.787,0.43,1.073c0.285,0.287,0.645,0.43,1.072,0.43h5.581V88.922z"/>
			<path d="M462.082,88.493c-5.522,0.572-10.531,0.858-15.023,0.858c-1.947,0-3.506-0.586-4.679-1.76
				c-1.174-1.173-1.76-2.732-1.76-4.679V72.61c0-2.146,0.607-3.827,1.824-5.043c1.215-1.216,2.896-1.825,5.044-1.825h8.585
				c2.146,0,3.826,0.608,5.044,1.825c1.216,1.216,1.823,2.897,1.823,5.043v7.941h-14.809v1.717c0,0.429,0.143,0.787,0.43,1.073
				c0.285,0.286,0.644,0.429,1.072,0.429c2.834,0,6.982-0.215,12.448-0.644V88.493z M449.849,71.108
				c-1.145,0-1.717,0.573-1.717,1.717v2.361h7.297v-2.361c0-1.144-0.573-1.717-1.718-1.717H449.849z"/>
			<path d="M467.877,66.601c5.237-0.572,9.958-0.858,14.165-0.858c1.947,0,3.506,0.587,4.68,1.76c1.172,1.173,1.76,2.733,1.76,4.678
				v16.741h-6.653l-0.429-2.146c-1.346,0.887-2.727,1.538-4.143,1.953c-1.418,0.414-2.612,0.622-3.585,0.622h-1.501
				c-1.947,0-3.507-0.586-4.681-1.76c-1.173-1.173-1.759-2.732-1.759-4.679v-1.931c0-1.946,0.586-3.505,1.759-4.679
				c1.174-1.173,2.733-1.76,4.681-1.76h8.799v-1.717c0-0.429-0.144-0.786-0.431-1.073c-0.285-0.286-0.643-0.429-1.072-0.429
				c-1.86,0-3.913,0.086-6.159,0.257c-2.247,0.172-4.058,0.301-5.431,0.386V66.601z M475.818,83.342
				c1.517,0,3.233-0.286,5.151-0.858v-2.576h-6.225c-0.429,0-0.788,0.143-1.073,0.429c-0.286,0.286-0.429,0.644-0.429,1.073v0.43
				c0,0.429,0.143,0.787,0.429,1.073c0.285,0.287,0.645,0.43,1.073,0.43H475.818z"/>
			<path d="M507.583,65.742c2.316,0,4.105,0.858,5.365,2.576c1.315-0.887,2.738-1.538,4.271-1.953
				c1.53-0.415,2.896-0.623,4.099-0.623h0.429c1.946,0,3.506,0.587,4.68,1.76c1.172,1.173,1.76,2.733,1.76,4.678v16.741h-7.512
				V73.469c0-0.429-0.145-0.787-0.43-1.073c-0.287-0.286-0.644-0.43-1.073-0.43h-0.215c-1.287,0-2.933,0.286-4.937,0.858v16.097
				h-7.512V73.469c0-0.429-0.143-0.787-0.43-1.073c-0.286-0.286-0.644-0.43-1.072-0.43h-0.215c-1.287,0-2.934,0.286-4.937,0.858
				v16.097h-7.512v-22.75h6.653l0.43,2.146c1.344-0.887,2.726-1.538,4.142-1.953c1.417-0.415,2.61-0.623,3.585-0.623H507.583z"/>
			<path d="M556.087,79.908l3.863-13.736h8.155l-7.082,22.75h-7.941l-4.292-13.736l-4.293,13.736h-7.94l-7.083-22.75h8.156
				l3.861,13.736l3.864-13.736h6.868L556.087,79.908z"/>
			<path d="M590.427,88.493c-5.522,0.572-10.531,0.858-15.023,0.858c-1.947,0-3.506-0.586-4.679-1.76
				c-1.174-1.173-1.761-2.732-1.761-4.679V72.61c0-2.146,0.608-3.827,1.825-5.043c1.216-1.216,2.897-1.825,5.043-1.825h8.585
				c2.146,0,3.828,0.608,5.044,1.825s1.823,2.897,1.823,5.043v7.941h-14.808v1.717c0,0.429,0.143,0.787,0.429,1.073
				c0.285,0.286,0.645,0.429,1.073,0.429c2.833,0,6.982-0.215,12.448-0.644V88.493z M578.194,71.108
				c-1.146,0-1.718,0.573-1.718,1.717v2.361h7.297v-2.361c0-1.144-0.572-1.717-1.718-1.717H578.194z"/>
			<path d="M596.221,66.601c5.237-0.572,9.959-0.858,14.166-0.858c1.946,0,3.505,0.587,4.679,1.76s1.76,2.733,1.76,4.678v16.741
				h-6.652l-0.43-2.146c-1.346,0.887-2.726,1.538-4.143,1.953c-1.417,0.414-2.611,0.622-3.585,0.622h-1.501
				c-1.947,0-3.507-0.586-4.68-1.76c-1.174-1.173-1.76-2.732-1.76-4.679v-1.931c0-1.946,0.586-3.505,1.76-4.679
				c1.173-1.173,2.732-1.76,4.68-1.76h8.799v-1.717c0-0.429-0.144-0.786-0.43-1.073c-0.286-0.286-0.643-0.429-1.073-0.429
				c-1.86,0-3.913,0.086-6.159,0.257c-2.246,0.172-4.057,0.301-5.431,0.386V66.601z M604.162,83.342
				c1.517,0,3.233-0.286,5.151-0.858v-2.576h-6.225c-0.429,0-0.787,0.143-1.073,0.429s-0.429,0.644-0.429,1.073v0.43
				c0,0.429,0.143,0.787,0.429,1.073c0.286,0.287,0.645,0.43,1.073,0.43H604.162z"/>
			<path d="M633.78,72.396c-1.803,0-3.664,0.429-5.581,1.288v15.238h-7.511v-22.75h6.653l0.429,2.79
				c2.461-2.146,5.036-3.219,7.727-3.219h1.932v6.654H633.78z"/>
		</g>
		<g>
			<g>
				<path fill="#000113" d="M251.656,0c0,0-42.674,1.031-62.027,20.149c-19.444,19.209-5.403,41.475,40.611,37.091
					c0,0-40.44-4.4-21.258-32.292C222.916,4.689,251.656,0,251.656,0z"/>
			</g>
			<g>
				<path fill="#6609B7" d="M232.67,51.821c4.518,0.899,10.05,3.099,13.256,6.267c2.833,2.799,4.419,6.533,4.61,10.502
					c0.966,20.032-49.021,53.163-111.475,81.201c0,0,81.451-31.276,120.245-56.651c22.371-14.633,20.473-26.909,18.463-31.768
					c-4.485-10.841-20.133-12.822-31.854-13.106c-8.694-0.21-13.541,0.329-16.623,0.506c-3.671,0.211-9.756,0.985-9.756,0.985
					S221.813,49.665,232.67,51.821z"/>
			</g>
			<g>
				<polygon fill="#000113" points="230.468,57.196 209.597,57.196 193.204,67.053 186.978,57.196 170.922,57.196 181.567,74.052 
					150.053,93.006 170.922,93.006 187.316,83.148 193.542,93.006 209.597,93.006 198.949,76.15 				"/>
			</g>
			<g>
				<path fill="#000113" d="M154.931,57.196l-13.243,22.14c-1.322,2.207-4.154,3.619-7.27,3.619h-4.521l15.408-25.759h-14.447
					L112.113,88.53c-1.244,2.084,0.695,4.476,3.633,4.476h17.766l-16.53,27.642h14.449l37.95-63.452L154.931,57.196L154.931,57.196z
					"/>
			</g>
			<g>
				<path fill="#000113" d="M112.238,82.955"/>
			</g>
			<g>
				<path fill="#000113" d="M118.046,57.286l6.114-10.142h-14.45l-6.111,10.142h-0.033h-9.631L87.92,67.337h9.634L84.905,88.621
					c-1.245,2.086,0.696,4.476,3.635,4.476h12.664c3.116,0,5.949-1.412,7.271-3.619l3.847-6.434h-9.632l0.054-0.089h-0.001
					l8.177-13.808c0.662-1.104,2.079-1.81,3.636-1.81h1.976c3.114,0,5.947-1.41,7.269-3.619l3.851-6.432H118.046z"/>
			</g>
			<g>
				<path fill="#000113" d="M92.606,55.387l4.93-8.241h-53.49c-3.117,0-5.949,1.41-7.271,3.619L24.89,70.628
					c-1.186,1.984-3.25,4.013-10.287,4.456c-0.137,0.009,13.782,0.017,13.923,0.017h37.838l-3.614,6.044
					c-0.662,1.103-2.079,1.809-3.634,1.809H20.071c-1.56,0-2.976,0.706-3.637,1.808c0,0-2.299,6.575-16.435,8.241h64.996
					c3.116,0,5.95-1.411,7.271-3.619l14.56-24.338H42.678l3.616-6.043c0.66-1.103,2.075-1.809,3.635-1.809h39.045
					C90.529,57.196,91.946,56.491,92.606,55.387"/>
			</g>
		</g>
	</g>
</g>
</svg>
