<?xml version="1.0" encoding="utf-8"?>
<!-- Generator: Adobe Illustrator 16.0.0, SVG Export Plug-In . SVG Version: 6.00 Build 0)  -->
<!DOCTYPE svg PUBLIC "-//W3C//DTD SVG 1.1//EN" "http://www.w3.org/Graphics/SVG/1.1/DTD/svg11.dtd">
<svg version="1.1" id="Layer_1" xmlns="http://www.w3.org/2000/svg" xmlns:xlink="http://www.w3.org/1999/xlink" x="0px" y="0px"
	 width="723.639px" height="112.359px" viewBox="0 0 723.639 112.359" enable-background="new 0 0 723.639 112.359"
	 xml:space="preserve">
<g>
	<g>
		<path fill="#FFD700" d="M197.598-966.184c-20.021,0-35.208-12.594-37.789-31.337l-0.292-2.115l4.738-16.238l5.908-20.355
			l3.702-13.385l1.413-4.382l3.518-12.396h5.713l2.574-8.908l0.372-1.714l7.492-25.688c7.175-24.718,32.209-44.089,56.988-44.089
			h34.43c20.021,0,35.207,12.593,37.789,31.336l0.283,2.052l-4.563,16.376l-4.467,14.881h-26.756
			c8.239,5.277,13.93,13.737,15.596,24.178l1.847,11.576h-7.235c-0.293,2.542-0.81,5.148-1.548,7.808l-2.389,7.959l-5.903,20.34
			c-6.939,24.694-31.984,44.103-56.993,44.103H197.598z M202.721-1019.103c-4.117,13.79-3.897,18.153-2.987,19.384l0.107,0.145
			l0.102,0.148c0.047,0.059,0.981,0.757,4.643,0.757h30.269c10.498,0,16.403-6.774,21.789-24.995l6.255-21.859
			c0.63-2.195,1.002-5.338-0.712-8.024c-1.479-1.805-3.61-2.683-6.505-2.683h-37.836l-1.873,6.432h-4.498L202.721-1019.103z
			 M258.411-1088.148l3.321-10.646h-5.74c-1.378,0-3.994,1.755-4.614,3.918l-1.948,6.728H258.411z"/>
	</g>
	<g>
		<path fill="#FFD700" d="M205.241-984.912c-7.528,0-13.017-2.347-16.317-6.976c-5.56-7.574-3.177-18.345,0.515-31.621
			l11.617-40.048h4.479l1.811-6.431h47.679c7.261,0,13.779,3.091,17.884,8.48l0.209,0.286c3.866,5.468,4.924,12.758,2.902,20.001
			l-6.297,22.007c-4.916,16.977-12.817,34.301-34.213,34.301H205.241z M227.971-1014.182c1.656,0,4.197-1.808,4.803-3.918
			l5.15-18.252l1.186-3.799h-8.766c-0.148,0-0.326,0.021-0.528,0.066l-2.597,9.39l-4.832,16.514H227.971z"/>
	</g>
	<g>
		<path fill="#FFD700" d="M310.741-966.373c-12.699,0-23.503-5.035-30.419-14.179c-7.118-9.409-9.095-22.255-5.424-35.242
			l14.599-50.599h5.67l10.436-36.275c7.201-24.654,32.224-43.935,56.979-43.935h26.297c12.853,0,23.738,5.079,30.652,14.3
			c7.064,9.423,8.948,22.253,5.168,35.202l-14.589,50.708h-5.682l-10.414,36.092c-7.196,24.646-32.219,43.928-56.976,43.928H310.741
			z M313.062-1002.643c2.057,2.763,7.05,4.163,14.843,4.163h3.406c24.967,0,27.91-10.506,31.984-25.047l11.609-40.029h4.549
			l8.859-30.439c2.052-7.316,1.98-13.067-0.229-16.101c-2.762-3.793-9.183-4.589-14.082-4.589h-3.404
			c-24.878,0-27.709,9.977-31.995,25.079l-11.589,39.808h-4.534l-8.883,30.621C310.718-1009.064,311.706-1004.6,313.062-1002.643z"
			/>
	</g>
	<g>
		<path fill="#FFD700" d="M328.581-984.912c-13.026,0-21.687-3.306-26.477-10.105c-6.175-8.766-3.878-20.477-1.612-28.522
			l11.606-40.017h4.549l8.845-30.391c4.285-15.298,9.645-34.307,44.431-34.307h3.404c12.01,0,20.608,3.471,25.562,10.317
			c5.039,6.741,5.892,16.258,2.533,28.289l-11.601,39.849h-4.533l-8.882,30.621c-4.264,15.218-9.601,34.266-44.419,34.266H328.581z
			 M334.217-1017.969c0.955-0.732,1.819-1.748,2.137-2.831l7.355-25.593h-1.324L334.217-1017.969z M355.154-1066.393l8.388-28.872
			c-0.954,0.715-1.813,1.728-2.137,2.852l-7.558,26.021H355.154z"/>
	</g>
	<g>
		<path fill="#FFD700" d="M405.75-1007.421c-5.805,0-10.966-2.42-14.162-6.639c-3.045-4.02-3.967-9.258-2.528-14.37l4.981-17.052
			h2.723l0.766-2.639c2.481-8.812,11.7-15.514,21.422-15.514h6.75c5.772,0,10.904,2.404,14.08,6.596
			c3.046,4.021,3.964,9.275,2.519,14.413l-4.979,17.144h-2.655l-0.748,2.563c-2.479,8.796-11.697,15.498-21.418,15.498H405.75z"/>
	</g>
	<g>
		<polygon fill="#FFD700" points="369.433,-966.373 412.964,-1025.05 415.711,-1025.05 444.497,-1063.726 487.708,-1063.726 
			443.899,-1005.05 441.163,-1005.05 412.288,-966.373 		"/>
	</g>
	<g>
		<path fill="#FFD700" d="M428.618-966.373c-5.806,0-10.968-2.42-14.163-6.64c-3.045-4.021-3.965-9.26-2.524-14.373l4.975-17.139
			h2.75l0.737-2.524c2.537-8.915,11.742-15.629,21.438-15.629h6.75c5.829,0,10.999,2.457,14.184,6.742
			c3.025,4.069,3.892,9.326,2.384,14.437l-4.8,16.975h-2.791l-0.766,2.639c-2.481,8.811-11.701,15.513-21.424,15.513H428.618z"/>
	</g>
	<g>
		<path fill="#FFD700" d="M409.887-1012.073c-5.119,0-9.641-2.141-12.404-5.872l-0.193-0.261l-0.177-0.273
			c-2.325-3.608-2.932-7.852-1.711-11.963l4.069-14.311h3.197l0.244-0.858c2.069-7.35,9.718-12.916,17.783-12.916h0.912
			c5.098,0,9.691,2.293,12.326,6.144c2.479,3.557,3.162,7.959,1.881,12.126l-4.071,13.953h-3.099l-0.369,1.312
			c-2.285,7.485-9.865,12.918-18.023,12.918H409.887z"/>
	</g>
	<g>
		<path fill="#FFD700" d="M432.866-971.207c-5.069,0-9.588-2.174-12.395-5.964l-0.108-0.148c-2.531-3.551-3.249-8.045-1.976-12.346
			l4.074-14.313h3.2l0.242-0.813c2.142-7.518,9.598-12.961,17.78-12.961h0.912c5.098,0,9.69,2.293,12.324,6.144
			c2.463,3.532,3.149,7.956,1.886,12.174l-4.084,13.997h-3.112l-0.331,1.173c-2.232,7.444-9.991,13.058-18.048,13.058H432.866z"/>
	</g>
	<path fill="#000113" d="M394.075-1154.769h9.049c1.675,0,2.976-0.33,3.901-0.992c0.927-0.661,1.724-1.82,2.395-3.479l5.608-13.863
		c0.212-0.477,0.07-0.714-0.423-0.714h-4.153c-0.441,0-0.768,0.237-0.979,0.714l-5.291,13.069c-0.053,0.177-0.177,0.265-0.37,0.265
		h-6.35c-0.159,0-0.212-0.088-0.159-0.265l5.265-13.069c0.212-0.477,0.08-0.714-0.396-0.714h-4.18c-0.441,0-0.768,0.237-0.979,0.714
		l-5.608,13.863c-0.512,1.252-0.508,2.311,0.014,3.175C391.936-1155.2,392.823-1154.769,394.075-1154.769z"/>
	<path fill="#000113" d="M411.404-1154.769h4.153c0.494,0,0.829-0.229,1.006-0.688l5.238-13.122c0.07-0.159,0.193-0.238,0.37-0.238
		h5.768c0.176,0,0.229,0.079,0.159,0.238l-1.402,3.492c-0.071,0.158-0.195,0.238-0.371,0.238h-4.074c-0.3,0-0.507,0.039-0.621,0.118
		c-0.115,0.08-0.234,0.27-0.357,0.569l-1.35,3.387c-0.211,0.476-0.079,0.714,0.396,0.714h5.451c1.657,0,2.949-0.331,3.875-0.992
		s1.725-1.821,2.395-3.479l1.932-4.789c0.511-1.252,0.506-2.311-0.014-3.175c-0.521-0.864-1.406-1.296-2.658-1.296h-12.223
		c-0.459,0-0.777,0.229-0.953,0.688l-7.117,17.646C410.795-1154.997,410.927-1154.769,411.404-1154.769z"/>
	<path fill="#000113" d="M441.431-1168.816h16.614c0.477,0,0.803-0.229,0.979-0.688l1.455-3.598c0.213-0.477,0.07-0.714-0.423-0.714
		h-16.614c-0.441,0-0.768,0.237-0.979,0.714l-1.455,3.598C440.832-1169.046,440.972-1168.816,441.431-1168.816z"/>
	<path fill="#000113" d="M446.14-1154.769c0.44,0,0.768-0.238,0.979-0.714l4.656-11.509c0.176-0.458,0.035-0.688-0.424-0.688h-4.153
		c-0.476,0-0.803,0.229-0.979,0.688l-4.656,11.509c-0.211,0.476-0.07,0.714,0.424,0.714H446.14z"/>
	<path fill="#000113" d="M455.559-1159.239c-0.512,1.252-0.508,2.311,0.013,3.175s1.406,1.296,2.659,1.296h3.201
		c0.44,0,0.768-0.238,0.979-0.714l1.455-3.599c0.176-0.458,0.035-0.688-0.424-0.688h-1.824c-0.159,0-0.213-0.088-0.159-0.265
		l3.438-8.519c0.054-0.177,0.177-0.265,0.371-0.265h6.27c0.159,0,0.213,0.088,0.159,0.265l-3.438,8.519
		c-0.054,0.177-0.178,0.265-0.371,0.265h-1.826c-0.458,0-0.775,0.229-0.951,0.688l-1.455,3.599c-0.213,0.476-0.08,0.714,0.396,0.714
		h3.148c1.657,0,2.953-0.33,3.889-0.992c0.935-0.661,1.737-1.82,2.408-3.479l4.1-10.106c0.512-1.252,0.508-2.311-0.013-3.175
		s-1.415-1.296-2.686-1.296h-8.968c-1.658,0-2.951,0.33-3.877,0.992c-0.926,0.661-1.724,1.821-2.395,3.479L455.559-1159.239z"/>
	<path fill="#000113" d="M214.655-946.993c-1.055-1.751-2.851-2.627-5.388-2.627h-23.855c-0.894,0-1.555,0.482-1.983,1.447
		l-14.42,35.703c-0.429,0.965-0.161,1.447,0.804,1.447h8.363c0.893,0,1.555-0.482,1.983-1.447l10.722-26.482
		c0.107-0.356,0.356-0.536,0.75-0.536h10.882c0.321,0,0.429,0.18,0.321,0.536l-7.022,17.262c-0.107,0.357-0.357,0.536-0.75,0.536
		h-7.505c-0.93,0-1.573,0.465-1.93,1.394l-2.948,7.291c-0.429,0.965-0.161,1.447,0.804,1.447h10.186c3.358,0,5.977-0.67,7.854-2.011
		c1.876-1.34,3.493-3.689,4.851-7.049l8.31-20.479C215.718-943.098,215.708-945.241,214.655-946.993z"/>
	<path fill="#000113" d="M234.248-949.62h-8.47c-0.894,0-1.555,0.482-1.983,1.447l-14.42,35.703
		c-0.429,0.965-0.161,1.447,0.804,1.447h8.47c0.893,0,1.555-0.482,1.983-1.447l14.421-35.703
		C235.48-949.138,235.212-949.62,234.248-949.62z"/>
	<path fill="#000113" d="M262.068-934.609h-15.224c-0.501,0-0.644-0.232-0.429-0.697l1.715-4.289
		c0.178-0.464,0.518-0.696,1.019-0.696h12.276c0.465,0,0.59,0.232,0.375,0.696l-0.482,1.287c-0.287,0.608-0.107,0.911,0.537,0.911
		h8.684c0.572,0,1-0.303,1.287-0.911l1.018-2.52c0.965-2.466,0.947-4.548-0.053-6.245c-1.002-1.697-2.734-2.547-5.201-2.547h-17.1
		c-3.181,0-5.709,0.67-7.585,2.011c-1.876,1.34-3.458,3.601-4.744,6.781l-2.466,6.004c-0.965,2.466-0.947,4.548,0.054,6.245
		c1,1.698,2.734,2.547,5.2,2.547h15.224c0.5,0,0.645,0.232,0.43,0.696l-1.715,4.289c-0.18,0.465-0.52,0.696-1.02,0.696h-12.812
		c-0.465,0-0.59-0.231-0.375-0.696l0.482-1.287c0.286-0.607,0.107-0.911-0.536-0.911h-8.684c-0.572,0-1.001,0.304-1.287,0.911
		l-1.019,2.52c-1.001,2.466-0.992,4.549,0.027,6.246s2.761,2.546,5.227,2.546h17.637c3.145,0,5.657-0.67,7.532-2.011
		c1.877-1.34,3.475-3.6,4.799-6.781l2.465-6.004c0.965-2.466,0.947-4.547-0.053-6.245
		C266.268-933.761,264.535-934.609,262.068-934.609z"/>
	<path fill="#000113" d="M301.631-921.154H283.62c-0.323,0-0.43-0.179-0.323-0.536l6.969-17.208c0.179-0.393,0.43-0.59,0.751-0.59
		h18.065c0.929,0,1.572-0.464,1.93-1.394l2.949-7.291c0.356-0.965,0.089-1.447-0.805-1.447h-21.496c-3.36,0-5.978,0.67-7.854,2.011
		c-1.877,1.34-3.495,3.69-4.852,7.049l-8.31,20.479c-1.037,2.538-1.027,4.683,0.027,6.433c1.054,1.752,2.85,2.627,5.387,2.627
		h21.498c0.893,0,1.555-0.482,1.983-1.447l2.948-7.291C302.846-920.689,302.56-921.154,301.631-921.154z"/>
	<path fill="#000113" d="M351.299-946.993c-1.055-1.751-2.868-2.627-5.441-2.627h-18.173c-3.36,0-5.978,0.67-7.854,2.011
		c-1.877,1.34-3.494,3.69-4.852,7.049l-8.31,20.479c-1.037,2.538-1.027,4.683,0.027,6.433c1.054,1.752,2.85,2.627,5.387,2.627h6.487
		c0.893,0,1.555-0.482,1.983-1.447l2.948-7.291c0.356-0.929,0.071-1.394-0.857-1.394h-3.699c-0.321,0-0.429-0.179-0.321-0.536
		l6.969-17.262c0.107-0.356,0.356-0.536,0.75-0.536h12.705c0.322,0,0.429,0.18,0.322,0.536l-6.97,17.262
		c-0.106,0.357-0.357,0.536-0.75,0.536h-3.699c-0.93,0-1.573,0.465-1.93,1.394l-2.948,7.291c-0.429,0.965-0.161,1.447,0.804,1.447
		h6.38c3.358,0,5.985-0.67,7.88-2.011c1.894-1.34,3.52-3.689,4.878-7.049l8.31-20.479
		C352.362-943.098,352.353-945.241,351.299-946.993z"/>
	<path fill="#000113" d="M395.926-949.62h-8.416c-0.895,0-1.555,0.482-1.984,1.447l-10.721,26.482
		c-0.107,0.357-0.358,0.536-0.751,0.536h-12.865c-0.322,0-0.43-0.179-0.322-0.536l10.668-26.482
		c0.429-0.965,0.161-1.447-0.804-1.447h-8.471c-0.894,0-1.555,0.482-1.983,1.447l-11.364,28.091
		c-1.037,2.538-1.028,4.683,0.026,6.433c1.054,1.752,2.85,2.627,5.388,2.627h18.334c3.395,0,6.03-0.67,7.907-2.011
		c1.876-1.34,3.492-3.689,4.852-7.049l11.364-28.091C397.212-949.138,396.926-949.62,395.926-949.62z"/>
	<path fill="#000113" d="M438.652-949.62h-8.417c-0.894,0-1.555,0.482-1.983,1.447l-6.969,17.208
		c-0.036,0.215-0.107,0.322-0.215,0.322c-0.071,0-0.106-0.071-0.106-0.215l-6.005-17.798c-0.214-0.643-0.696-0.965-1.447-0.965
		h-8.47c-0.894,0-1.555,0.482-1.983,1.447l-14.421,35.703c-0.429,0.965-0.16,1.447,0.805,1.447h8.47
		c0.893,0,1.555-0.482,1.983-1.447l6.969-17.262c0.107-0.215,0.179-0.321,0.215-0.321c0.071,0,0.125,0.071,0.161,0.214l5.95,17.852
		c0.215,0.644,0.697,0.965,1.447,0.965h8.417c0.929,0,1.607-0.482,2.036-1.447l14.421-35.703
		C439.938-949.138,439.652-949.62,438.652-949.62z"/>
	<path fill="#000113" d="M476.927-949.62h-33.666c-0.894,0-1.555,0.482-1.983,1.447l-2.948,7.291
		c-0.357,0.93-0.072,1.394,0.857,1.394h33.666c0.965,0,1.626-0.464,1.983-1.394l2.948-7.291
		C478.213-949.138,477.927-949.62,476.927-949.62z"/>
	<path fill="#000113" d="M459.291-937.183h-8.417c-0.965,0-1.626,0.465-1.983,1.394l-9.435,23.319
		c-0.429,0.965-0.144,1.447,0.857,1.447h8.416c0.894,0,1.555-0.482,1.984-1.447l9.435-23.319
		C460.504-936.718,460.219-937.183,459.291-937.183z"/>
	<g>
		<path fill="#6609B7" d="M197.598-976.184h2.27h1.136h8.702h3.405h5.864h7.567h5.485c20.432,0,41.647-16.458,47.389-36.89
			l5.93-20.43l2.33-7.756c1.522-5.487,1.869-10.594,1.023-15.134h5.674c-2.053-12.865-12.28-21.755-27.225-21.755h-3.026h-10.026
			h-3.405h-3.405h-8.702h-1.136h-1.324l5.643-19.485c1.791-6.243,8.173-11.162,14.227-11.162c0.188,0,0.188,0,0.378,0h0.567h5.864
			h0.757c0.189,0,0.189,0,0.379,0c6.054,0,9.699,4.919,7.907,11.162l-1.711,5.486h37.835l2.328-7.756l3.951-14.188
			c-1.824-13.242-12.369-22.701-27.883-22.701h-2.27h-1.135h-8.702h-3.405h-5.864h-7.567h-5.486
			c-20.242,0-41.458,16.458-47.388,36.889l-7.394,25.349l-0.369,1.703l-4.757,16.458h-5.675l-1.503,5.296l-1.403,4.351
			l-3.663,13.243l-5.93,20.43l-4.14,14.188C171.539-985.642,182.085-976.184,197.598-976.184z M193.139-1021.964l10.788-37.835
			h4.541l9.473-32.538c6.22-21.376,17.399-32.349,33.29-32.349h27.053c6.432,0,10.793,1.703,13.482,4.918
			c3.027,3.594,3.964,9.081,2.651,17.972l-6.393-0.378c1.094-6.81,0.586-10.972-1.256-13.242c-1.693-1.892-4.621-2.838-9.161-2.838
			h-27.053c-12.675,0-21.366,8.892-26.491,27.052l-7.165,24.971h38.781c6.243,0,11.282,2.459,14.608,6.81
			c3.117,4.541,4.014,10.405,2.223,16.648l-6.279,21.943c-4.697,15.891-12.082,32.16-31.379,32.16h-30.269
			c-6.242,0-10.435-1.514-12.895-5.108C187.219-999.83,189.637-1010.235,193.139-1021.964z"/>
	</g>
	<g>
		<path fill="#6609B7" d="M205.241-994.912h30.269c12.107,0,18.956-7.566,24.599-27.052l6.279-21.944
			c1.214-4.351,0.705-8.512-1.436-11.54c-2.161-2.837-5.766-4.54-9.928-4.54h-40.105l-1.811,6.431h-4.541l-9.494,32.727
			c-2.736,9.838-5.034,19.106-2.047,23.08C198.341-995.857,201.079-994.912,205.241-994.912z M212.307-1015.343l5.314-18.161
			l3.662-13.243c2.679-2.08,5.844-3.405,9.061-3.405c0.188,0,1.702,0,3.216,0h3.405h4.918c5.825,0.379,9.111,5.107,7.34,11.161
			l-1.712,5.486l-5.125,18.161c-1.791,6.243-8.172,11.161-14.415,11.161h-0.189h-0.757h-5.864h-0.757h-0.189
			C213.972-1004.182,210.517-1009.1,212.307-1015.343z"/>
	</g>
	<g>
		<path fill="#6609B7" d="M297.018-1056.393l-12.498,43.32c-5.722,20.242,5.979,36.7,26.221,36.7h26.297
			c20.242,0,41.457-16.458,47.367-36.7l12.5-43.32h5.676l12.518-43.51c5.91-20.242-5.791-36.7-26.221-36.7h-26.297
			c-20.242,0-41.457,16.458-47.369,36.7l-12.518,43.51H297.018z M314.969-1059.799h4.541l9.473-32.538
			c4.51-15.891,9.266-32.349,41.615-32.349h3.404c10.594,0,18.033,3.027,22.166,8.702s4.771,13.999,1.746,24.782l-10.957,37.645
			h-4.541l-9.492,32.727c-4.24,15.135-9.264,32.35-41.613,32.35h-3.406c-11.35,0-18.828-2.648-22.961-8.323
			c-5.109-7.189-3.051-17.783-0.951-25.161L314.969-1059.799z"/>
	</g>
	<g>
		<path fill="#6609B7" d="M328.581-994.912h3.406c27.053,0,30.574-11.918,34.814-27.052l10.975-37.835h4.541l9.473-32.538
			c2.43-8.702,2.199-15.512-0.957-19.674c-2.969-4.162-8.992-6.243-17.506-6.243h-3.404c-27.053,0-30.576,11.918-34.814,27.052
			l-10.957,37.645h-4.541l-9.492,32.727c-2.717,9.648-2.637,16.08,0.162,20.053C313.079-996.803,319.311-994.912,328.581-994.912z
			 M323.819-1017.991l11.035-38.402h5.676l11.264-38.781c1.793-6.243,8.174-11.161,14.227-11.161c6.055,0,9.699,4.918,7.908,11.161
			l-11.266,38.781h-5.674l-11.037,38.402c-1.771,6.054-8.174,11.161-14.227,11.161
			C325.483-1006.83,322.047-1011.938,323.819-1017.991z"/>
	</g>
	<g>
		<path fill="#6609B7" d="M412.5-1017.421c5.199,0,10.508-3.649,11.818-8.301l2.85-9.76h2.645l2.861-9.852
			c1.309-4.652-1.773-8.301-6.973-8.301h-6.75c-5.199,0-10.508,3.649-11.818,8.301l-2.859,9.852h-2.736l-2.852,9.76
			c-1.309,4.651,1.865,8.301,7.064,8.301H412.5z M404.237-1022.985c-0.951-1.368-1.225-3.101-0.76-4.926l2.434-8.392h3.193
			l1.904-6.841c1.131-3.832,5.563-6.933,9.85-6.933h0.912c2.189,0,4.102,0.912,5.225,2.372c0.949,1.369,1.225,3.101,0.768,4.835
			l-2.402,8.118h-3.193l-2.025,7.115c-1.141,3.923-5.674,7.115-10.051,7.115h-0.365
			C407.352-1020.522,405.35-1021.435,404.237-1022.985z"/>
	</g>
	<g>
		<path fill="#6609B7" d="M449.52-1053.726l-28.785,38.676h-2.738l-28.693,38.677h17.971l28.875-38.677h2.736l28.877-38.676H449.52z
			 M430.149-1013.498h-2.736l-22.834,30.649l-2.381-1.643l23.807-32.109h2.738l22.52-30.284l2.383,1.643L430.149-1013.498z"/>
	</g>
	<g>
		<path fill="#6609B7" d="M441.831-1012.678c-5.201,0-10.52,3.74-11.828,8.393l-2.852,9.761h-2.736l-2.859,9.851
			c-1.311,4.652,1.863,8.301,7.063,8.301h6.75c5.199,0,10.51-3.648,11.82-8.301l2.859-9.851h2.736l2.76-9.761
			c1.4-4.652-1.764-8.393-6.963-8.393H441.831z M449.983-1006.931c0.951,1.368,1.225,3.102,0.758,4.926l-2.395,8.027h-3.191
			l-2.025,7.114c-1.143,3.923-5.672,7.115-10.051,7.115h-0.365c-2.371,0-4.383-0.82-5.498-2.371c-0.941-1.46-1.215-3.192-0.75-5.018
			l2.424-8.301h3.191l1.906-6.842c1.133-3.831,5.572-7.023,9.859-7.023h0.912C446.948-1009.303,448.858-1008.391,449.983-1006.931z"
			/>
	</g>
	<g>
		<path fill="#6609B7" d="M410.252-1022.073c3.74,0,7.484-2.646,8.459-5.838l2.342-8.392h3.191l1.996-6.841
			c0.408-1.277,0.178-2.554-0.537-3.558c-0.789-1.186-2.363-1.824-4.096-1.824h-0.912c-3.65,0-7.293,2.554-8.166,5.655l-2.313,8.118
			h-3.193l-2.023,7.115c-0.418,1.369-0.188,2.646,0.518,3.74c0.879,1.187,2.453,1.824,4.369,1.824H410.252z M409.747-1028.549
			l2.006-6.933h2.736l2.025-7.115c0.389-1.095,1.67-2.008,2.857-2.008c1.275,0,2.092,0.913,1.703,2.008l-2.023,7.115h-2.738
			l-2.004,6.933c-0.299,1.094-1.58,2.006-2.857,2.006S409.45-1027.455,409.747-1028.549z"/>
	</g>
	<g>
		<path fill="#6609B7" d="M443.684-1007.752c-3.648,0-7.293,2.555-8.176,5.747l-2.395,8.027h-3.102l-2.025,7.114
			c-0.416,1.369-0.195,2.737,0.52,3.74c0.879,1.187,2.445,1.916,4.359,1.916h0.365c3.648,0,7.484-2.646,8.469-5.93l2.332-8.301
			h3.191l1.996-6.842c0.418-1.368,0.188-2.646-0.529-3.648c-0.787-1.186-2.361-1.824-4.094-1.824H443.684z M444.036-1001.549
			l-2.016,7.024h-2.736l-2.016,7.023c-0.389,1.095-1.67,2.007-2.857,2.007c-1.275,0-2.092-0.912-1.703-2.007l2.014-7.023h2.738
			l2.014-7.024c0.299-1.096,1.58-2.007,2.857-2.007S444.333-1002.645,444.036-1001.549z"/>
	</g>
</g>
<text transform="matrix(1 0 0 1 388.0962 -1601.959)" font-family="'PervitinaDex'" font-size="26.4562">UP TO</text>
<text transform="matrix(1 0 0 1 165.2017 -1358.2134)" font-family="'PervitinaDex'" font-size="53.6075">DISCOUNT</text>
<text transform="matrix(0.9945 0 -0.1045 0.9945 175.8618 -1423.564)"><tspan x="0" y="0" fill="#990000" font-family="'speedhunterline'" font-size="190.2169">60</tspan><tspan x="218.745" y="0" fill="#990000" font-family="'speedhunterline'" font-size="91.7239">%</tspan></text>
<rect x="-99.044" y="-287" fill="#990000" width="643.063" height="112.359"/>
<polygon fill="#990000" points="-98.044,-120.661 -217.875,-120.661 -189.775,-173.584 -217.875,-230.82 -98.044,-230.82 "/>
<polygon fill="#990000" points="543.894,-120.661 663.724,-120.661 635.625,-173.584 663.724,-230.82 543.894,-230.82 "/>
<polygon points="-98.044,-174.641 -98.044,-120.661 -41.775,-174.641 "/>
<polygon points="543.894,-174.641 543.894,-120.661 487.625,-174.641 "/>
<text transform="matrix(1 0 0 1 -80.668 -207.2197)" fill="#FFFFFF" font-family="'Cairo-Black'" font-size="80">CLEARANCE SALE</text>
<g>
	<polygon fill="#990000" points="723.639,0 0,0 0,112.359 723.639,112.359 689.05,58.38 	"/>
</g>
<g>
	<path fill="#FFFFFF" d="M63.568,79.86c-3.12-1.973-5.267-4.92-6.44-8.84c-1.174-3.92-1.76-9.16-1.76-15.721
		c0-7.68,0.68-13.547,2.04-17.6c1.36-4.053,3.48-6.854,6.36-8.4s6.88-2.32,12-2.32c5.226,0,10.933,0.801,17.12,2.4l-0.4,11.199
		c-5.014-0.691-9.068-1.039-12.16-1.039c-2.828,0-4.988,0.439-6.48,1.32c-1.494,0.879-2.52,2.268-3.08,4.16s-0.84,4.572-0.84,8.039
		c0,1.76,0.026,3.121,0.08,4.08c0.16,3.947,0.48,6.801,0.96,8.561s1.333,2.959,2.56,3.6c1.227,0.641,3.2,0.961,5.92,0.961
		c3.68,0,8.026-0.293,13.04-0.881l0.24,11.52c-5.76,1.281-11.014,1.92-15.76,1.92C71.155,82.819,66.688,81.833,63.568,79.86z"/>
	<path fill="#FFFFFF" d="M132.248,69.22V81.78h-31.28v-53.76h14.24V69.22H132.248z"/>
	<path fill="#FFFFFF" d="M152.567,40.419v8.4h17.12v12.16h-17.12v8.4h21.92v12.4h-36.16v-53.76h36.16v12.398H152.567z"/>
	<path fill="#FFFFFF" d="M209.447,74.899h-15.68l-1.04,6.881h-14.4l10.32-53.76h25.92l10.32,53.76h-14.4L209.447,74.899z
		 M203.367,39.7h-3.52l-3.68,22.879h10.88L203.367,39.7z"/>
	<path fill="#FFFFFF" d="M231.206,28.021h21.52c6.72,0,11.772,1.572,15.16,4.719c3.386,3.148,5.08,7.787,5.08,13.92
		c0,6.135-2.188,11.281-6.56,15.441l5.84,19.68h-15.6l-3.92-16.24h-7.28v16.24h-14.24V28.021z M252.966,53.38
		c1.706,0,3.026-0.652,3.96-1.961c0.933-1.305,1.4-2.893,1.4-4.76c0-1.813-0.52-3.359-1.56-4.639c-1.04-1.281-2.387-1.92-4.04-1.92
		h-7.28V53.38H252.966z"/>
	<path fill="#FFFFFF" d="M307.125,74.899h-15.68l-1.041,6.881h-14.399l10.319-53.76h25.921l10.319,53.76h-14.399L307.125,74.899z
		 M301.045,39.7h-3.52l-3.681,22.879h10.88L301.045,39.7z"/>
	<path fill="#FFFFFF" d="M374.564,28.021v53.76h-22.8l-8.641-41.041V81.78h-14.239v-53.76h23.359l7.92,39.76v-39.76H374.564z"/>
	<path fill="#FFFFFF" d="M391.165,79.86c-3.12-1.973-5.268-4.92-6.44-8.84c-1.174-3.92-1.76-9.16-1.76-15.721
		c0-7.68,0.68-13.547,2.04-17.6c1.359-4.053,3.479-6.854,6.359-8.4c2.881-1.547,6.881-2.32,12-2.32c5.227,0,10.933,0.801,17.12,2.4
		l-0.399,11.199c-5.014-0.691-9.067-1.039-12.16-1.039c-2.827,0-4.987,0.439-6.48,1.32c-1.493,0.879-2.52,2.268-3.08,4.16
		c-0.56,1.893-0.84,4.572-0.84,8.039c0,1.76,0.026,3.121,0.08,4.08c0.16,3.947,0.48,6.801,0.96,8.561
		c0.48,1.76,1.333,2.959,2.561,3.6c1.226,0.641,3.2,0.961,5.92,0.961c3.68,0,8.026-0.293,13.04-0.881l0.24,11.52
		c-5.761,1.281-11.015,1.92-15.761,1.92C398.75,82.819,394.285,81.833,391.165,79.86z"/>
	<path fill="#FFFFFF" d="M442.803,40.419v8.4h17.12v12.16h-17.12v8.4h21.92v12.4h-36.159v-53.76h36.159v12.398H442.803z"/>
	<path fill="#FFFFFF" d="M491.202,80.579l-2.88-0.639l1.439-10.881c7.04,0.961,12.48,1.439,16.32,1.439
		c4.16,0,6.24-1.439,6.24-4.318c0-1.014-0.468-1.813-1.4-2.4c-0.934-0.586-2.308-1.227-4.12-1.92
		c-1.174-0.428-2.027-0.773-2.56-1.041c-6.027-2.025-10.308-4.346-12.84-6.959c-2.534-2.613-3.8-5.893-3.8-9.84
		c0-5.602,1.706-9.84,5.119-12.721s8.053-4.32,13.921-4.32c2.399,0,4.68,0.16,6.84,0.48s6.12,1.014,11.88,2.08l-1.12,11.039
		c-6.934-0.799-12.268-1.199-16-1.199c-4.374,0-6.56,1.199-6.56,3.6c0,0.801,0.532,1.48,1.6,2.041
		c1.066,0.559,2.746,1.268,5.04,2.119c2.346,0.854,3.866,1.439,4.56,1.76c3.521,1.439,6.24,2.84,8.16,4.201
		c1.92,1.359,3.307,3,4.16,4.92c0.853,1.92,1.28,4.348,1.28,7.279c0,3.734-0.868,6.92-2.601,9.561c-1.733,2.639-4.08,4.639-7.04,6
		c-2.96,1.359-6.279,2.039-9.96,2.039C502.294,82.899,497.068,82.126,491.202,80.579z"/>
	<path fill="#FFFFFF" d="M560.402,74.899h-15.68l-1.04,6.881h-14.4l10.32-53.76h25.92l10.319,53.76h-14.399L560.402,74.899z
		 M554.322,39.7h-3.52l-3.681,22.879h10.88L554.322,39.7z"/>
	<path fill="#FFFFFF" d="M613.44,69.22V81.78h-31.279v-53.76H596.4V69.22H613.44z"/>
	<path fill="#FFFFFF" d="M633.76,40.419v8.4h17.12v12.16h-17.12v8.4h21.92v12.4h-36.159v-53.76h36.159v12.398H633.76z"/>
</g>
<g>
	<path fill="#FFD700" d="M562.188-560.616c-221.772-65.028-457.698-64.939-679.431,0.267
		c-10.566-35.933-21.131-71.864-31.697-107.797c242.395-71.282,500.303-71.379,742.74-0.29
		C583.262-632.496,572.725-596.557,562.188-560.616z"/>
	<path fill="#FFD700" d="M-101.027-508.853c-39.477,11.57-78.484,25.301-116.847,41.191c2.245-20.024,4.939-40.102,8.084-60.214
		c-16.333-14.157-33.083-28.016-50.24-41.56c42.032-17.41,84.77-32.454,128.022-45.132
		C-121.682-579.328-111.354-544.091-101.027-508.853z"/>
	<path d="M-116.209-560.653c5.061,17.267,10.121,34.533,15.182,51.801c13.477-22.701,27.926-45.18,43.343-67.369
		C-77.289-571.531-96.803-566.342-116.209-560.653z"/>
	<path fill="#FFD700" d="M546.877-508.853c39.477,11.57,78.483,25.301,116.847,41.191c-2.245-20.024-4.938-40.102-8.084-60.214
		c16.333-14.157,33.083-28.016,50.24-41.56c-42.032-17.41-84.77-32.454-128.022-45.132
		C567.532-579.328,557.204-544.091,546.877-508.853z"/>
	<path d="M562.058-560.653c-5.06,17.267-10.12,34.533-15.181,51.801c-13.478-22.7-27.927-45.179-43.344-67.369
		C523.138-571.531,542.653-566.342,562.058-560.653z"/>
	<g>
		<path fill="#000113" d="M-95.288-602.312c-3.844-1.021-6.914-3.241-9.204-6.682c-2.291-3.439-4.308-8.319-6.038-14.648
			c-2.025-7.407-2.829-13.271-2.386-17.591c0.441-4.318,2.067-7.66,4.879-10.007c2.811-2.346,7.083-4.268,12.808-5.721
			c5.843-1.483,12.429-2.286,19.724-2.375c0.714,3.667,1.429,7.335,2.146,11.002c-5.723,0.651-10.302,1.422-13.728,2.276
			c-3.134,0.781-5.418,1.816-6.849,3.092c-1.434,1.273-2.22,2.911-2.363,4.903s0.223,4.665,1.093,8.021
			c0.442,1.703,0.812,3.014,1.111,3.927c1.166,3.776,2.229,6.448,3.189,8.018c0.96,1.569,2.182,2.492,3.667,2.773
			c1.485,0.281,3.696,0.047,6.637-0.688c3.979-0.996,8.61-2.438,13.912-4.304c0.976,3.715,1.951,7.43,2.925,11.146
			c-5.892,2.718-11.362,4.726-16.441,6.009C-86.427-601.589-91.442-601.291-95.288-602.312z"/>
		<path fill="#000113" d="M-23.477-629.959c0.825,4.104,1.649,8.209,2.474,12.314c-11.261,2.262-22.498,4.683-33.708,7.261
			c-4.017-17.464-8.035-34.928-12.052-52.392c5.325-1.225,10.655-2.415,15.991-3.572c2.909,13.422,5.817,26.844,8.727,40.265
			C-35.863-627.422-29.673-628.715-23.477-629.959z"/>
		<path fill="#000113" d="M-6.441-662.545c0.502,2.755,1.003,5.51,1.505,8.265c6.344-1.155,12.695-2.263,19.052-3.321
			c0.666,3.999,1.331,7.997,1.997,11.995c-6.296,1.049-12.586,2.145-18.869,3.289c0.501,2.755,1.003,5.51,1.505,8.265
			c7.991-1.455,15.993-2.833,24.005-4.132c0.662,4.081,1.323,8.161,1.984,12.241c-13.085,2.121-26.145,4.453-39.173,6.997
			c-3.435-17.588-6.869-35.175-10.304-52.763c13.594-2.654,27.22-5.088,40.874-7.302c0.661,4.08,1.322,8.159,1.984,12.239
			C9.922-665.443,1.735-664.034-6.441-662.545z"/>
		<path fill="#000113" d="M61.869-638.325c-5.726,0.746-11.447,1.533-17.165,2.359c-0.051,2.325-0.1,4.649-0.146,6.975
			c-5.221,0.76-10.438,1.553-15.651,2.379c0.929-18.291,2.021-36.591,3.279-54.896c9.801-1.463,19.616-2.812,29.441-4.048
			c6.148,17.288,12.136,34.614,17.962,51.977c-5.236,0.61-10.468,1.253-15.698,1.931C63.22-633.876,62.545-636.101,61.869-638.325z
			 M50.47-672.317c-1.321,0.18-2.642,0.361-3.962,0.545c-0.33,7.745-0.635,15.489-0.915,23.232c4.007-0.57,8.017-1.121,12.028-1.653
			C55.262-657.573,52.878-664.948,50.47-672.317z"/>
		<path fill="#000113" d="M80.562-687.796c8.168-0.905,16.343-1.732,24.523-2.481c7.665-0.701,13.568,0.402,17.663,3.238
			c4.098,2.839,6.35,7.329,6.798,13.444c0.449,6.12-1.63,11.426-6.158,15.957c2.682,6.368,5.331,12.744,7.945,19.128
			c-5.689,0.422-11.376,0.883-17.061,1.384c-1.903-5.268-3.825-10.529-5.766-15.788c-2.687,0.246-5.373,0.501-8.059,0.764
			c0.529,5.388,1.057,10.775,1.585,16.163c-5.186,0.509-10.368,1.05-15.548,1.624C84.51-652.175,82.536-669.985,80.562-687.796z
			 M107.667-665.048c1.907-0.175,3.324-0.955,4.256-2.351c0.931-1.391,1.318-3.019,1.158-4.878
			c-0.157-1.806-0.875-3.297-2.161-4.469c-1.285-1.173-2.865-1.674-4.733-1.502c-2.741,0.251-5.482,0.511-8.222,0.779
			c0.432,4.405,0.864,8.811,1.296,13.216C102.062-664.526,104.864-664.792,107.667-665.048z"/>
		<path fill="#000113" d="M169.228-647.623c-5.759,0.248-11.516,0.537-17.271,0.865c-0.251,2.312-0.5,4.623-0.747,6.936
			c-5.256,0.305-10.511,0.643-15.763,1.015c2.499-18.142,5.162-36.277,7.989-54.406c9.87-0.607,19.746-1.103,29.624-1.484
			c4.625,17.755,9.086,35.534,13.384,53.335c-5.261,0.155-10.521,0.344-15.78,0.565
			C170.188-643.073,169.709-645.349,169.228-647.623z M160.823-682.474c-1.329,0.064-2.658,0.131-3.986,0.199
			c-0.996,7.688-1.967,15.377-2.913,23.066c4.034-0.221,8.068-0.424,12.103-0.605C164.317-667.371,162.582-674.924,160.823-682.474z
			"/>
		<path fill="#000113" d="M244.343-695.482c-0.297,17.917-0.594,35.835-0.892,53.752c-8.332-0.138-16.665-0.191-24.997-0.161
			c-3.208-13.669-6.519-27.326-9.936-40.969c0.154,13.68,0.308,27.359,0.462,41.039c-5.204,0.059-10.407,0.149-15.61,0.273
			c-0.428-17.914-0.855-35.829-1.283-53.744c8.906-0.213,17.813-0.333,26.721-0.361c3.063,13.243,6.032,26.498,8.908,39.763
			c0.051-13.254,0.102-26.507,0.152-39.76C233.361-695.63,238.852-695.573,244.343-695.482z"/>
		<path fill="#000113" d="M261.709-643.214c-3.363-2.078-5.647-5.085-6.844-9.038c-1.197-3.951-1.725-9.205-1.568-15.764
			c0.184-7.678,1.089-13.526,2.739-17.537c1.647-4.012,4.143-6.747,7.482-8.189s7.948-2.061,13.805-1.814
			c5.979,0.252,12.475,1.368,19.444,3.369c-0.364,3.719-0.729,7.437-1.091,11.155c-5.635-1.014-10.212-1.585-13.715-1.747
			c-3.203-0.147-5.67,0.189-7.396,1.002c-1.726,0.81-2.939,2.153-3.643,4.021c-0.703,1.868-1.116,4.534-1.244,7.998
			c-0.065,1.759-0.085,3.12-0.061,4.081c0.033,3.951,0.283,6.816,0.749,8.595c0.467,1.778,1.366,3.013,2.698,3.707
			c1.332,0.695,3.501,1.104,6.508,1.24c4.069,0.185,8.887,0.129,14.466-0.143c-0.13,3.839-0.261,7.678-0.392,11.517
			c-6.387,0.918-12.164,1.276-17.359,1.052C269.924-639.984,265.073-641.135,261.709-643.214z"/>
		<path fill="#000113" d="M321.381-679.47c-0.215,2.792-0.431,5.584-0.646,8.375c6.408,0.494,12.813,1.037,19.216,1.629
			c-0.373,4.037-0.746,8.072-1.119,12.109c-6.341-0.586-12.686-1.124-19.032-1.614c-0.216,2.792-0.431,5.584-0.646,8.376
			c8.073,0.623,16.142,1.324,24.204,2.104c-0.398,4.114-0.796,8.229-1.194,12.343c-13.168-1.273-26.353-2.335-39.547-3.186
			c1.153-17.883,2.306-35.766,3.459-53.648c13.768,0.888,27.524,1.995,41.265,3.324c-0.398,4.113-0.796,8.228-1.194,12.341
			C337.897-678.115,329.642-678.833,321.381-679.47z"/>
		<path fill="#000113" d="M371.208-634.203c-1.022-0.338-2.046-0.674-3.069-1.009c0.948-3.541,1.902-7.08,2.859-10.618
			c7.644,1.879,13.558,3.136,17.777,3.699c4.57,0.613,7.053-0.487,7.452-3.34c0.141-1.004-0.264-1.866-1.214-2.592
			c-0.951-0.723-2.381-1.566-4.294-2.523c-1.241-0.599-2.142-1.066-2.697-1.41c-6.41-2.889-10.885-5.771-13.396-8.707
			c-2.512-2.936-3.55-6.355-3.091-10.277c0.651-5.563,3.067-9.551,7.291-11.939c4.22-2.388,9.688-3.155,16.361-2.26
			c2.73,0.366,5.299,0.883,7.709,1.545c2.409,0.663,6.811,1.984,13.177,4.024c-0.974,3.574-1.944,7.149-2.911,10.726
			c-7.67-1.96-13.622-3.189-17.825-3.762c-4.926-0.667-7.544,0.21-7.852,2.588c-0.102,0.794,0.406,1.546,1.532,2.259
			c1.123,0.711,2.913,1.663,5.364,2.854c2.511,1.203,4.13,2.021,4.859,2.447c3.733,1.977,6.563,3.804,8.5,5.466
			c1.938,1.659,3.234,3.515,3.893,5.556c0.656,2.041,0.763,4.513,0.32,7.411c-0.563,3.692-1.996,6.694-4.281,9.021
			c-2.288,2.325-5.136,3.925-8.553,4.809c-3.415,0.884-7.117,1.051-11.12,0.513C383.01-630.395,377.424-631.896,371.208-634.203z"/>
		<path fill="#000113" d="M447.512-628.366c-5.69-1.044-11.387-2.047-17.087-3.01c-0.76,2.197-1.519,4.396-2.273,6.595
			c-5.208-0.875-10.419-1.717-15.635-2.524c6.481-17.13,13.123-34.217,19.924-51.26c9.784,1.607,19.555,3.328,29.309,5.162
			c0.571,18.342,0.978,36.671,1.221,54.985c-5.186-1.024-10.377-2.016-15.572-2.974
			C447.438-623.716,447.476-626.041,447.512-628.366z M447.051-664.218c-1.314-0.234-2.629-0.466-3.944-0.695
			c-2.686,7.273-5.348,14.553-7.985,21.838c3.993,0.684,7.984,1.387,11.973,2.109C447.105-648.715,447.09-656.465,447.051-664.218z"
			/>
		<path fill="#000113" d="M506.335-621.94c-0.949,4.078-1.897,8.156-2.846,12.234c-11.205-2.606-22.437-5.054-33.693-7.344
			c3.572-17.561,7.145-35.12,10.717-52.681c5.347,1.087,10.688,2.209,16.022,3.365c-2.907,13.421-5.815,26.843-8.724,40.265
			C493.995-624.761,500.168-623.374,506.335-621.94z"/>
		<path fill="#000113" d="M535.389-644.536c-0.684,2.715-1.367,5.431-2.051,8.146c6.273,1.579,12.539,3.208,18.795,4.885
			c-1.049,3.915-2.1,7.83-3.148,11.746c-6.195-1.661-12.401-3.274-18.616-4.839c-0.684,2.715-1.367,5.431-2.051,8.146
			c7.904,1.989,15.794,4.059,23.667,6.205c-1.087,3.988-2.175,7.977-3.262,11.964c-12.86-3.507-25.763-6.802-38.703-9.886
			c4.154-17.433,8.309-34.864,12.463-52.296c13.502,3.218,26.965,6.656,40.383,10.315c-1.088,3.987-2.175,7.975-3.262,11.962
			C551.548-640.384,543.476-642.5,535.389-644.536z"/>
	</g>
</g>
</svg>
