<?xml version="1.0" encoding="utf-8"?>
<!-- Generator: Adobe Illustrator 16.0.0, SVG Export Plug-In . SVG Version: 6.00 Build 0)  -->
<!DOCTYPE svg PUBLIC "-//W3C//DTD SVG 1.1//EN" "http://www.w3.org/Graphics/SVG/1.1/DTD/svg11.dtd">
<svg version="1.1" id="Layer_1" xmlns="http://www.w3.org/2000/svg" xmlns:xlink="http://www.w3.org/1999/xlink" x="0px" y="0px"
	 width="1189.583px" height="279.168px" viewBox="0 0 1189.583 279.168" enable-background="new 0 0 1189.583 279.168"
	 xml:space="preserve">
<g>
	<g>
		<path fill="#FFD700" d="M-667.25,717.717c-20.021,0-35.208-12.594-37.789-31.337l-0.292-2.115l4.738-16.238l5.908-20.355
			l3.702-13.385l1.413-4.382l3.518-12.396h5.713l2.574-8.908l0.372-1.714l7.492-25.688c7.175-24.718,32.209-44.089,56.988-44.089
			h34.43c20.021,0,35.207,12.593,37.789,31.336l0.283,2.052l-4.563,16.376l-4.467,14.881h-26.756
			c8.239,5.277,13.93,13.737,15.596,24.178l1.847,11.576h-7.235c-0.293,2.542-0.81,5.148-1.548,7.808l-2.389,7.959l-5.903,20.34
			c-6.939,24.694-31.984,44.103-56.993,44.103H-667.25z M-662.127,664.798c-4.117,13.79-3.897,18.153-2.987,19.384l0.107,0.145
			l0.102,0.148c0.047,0.059,0.981,0.757,4.643,0.757h30.269c10.498,0,16.403-6.774,21.789-24.995l6.255-21.859
			c0.63-2.195,1.002-5.338-0.712-8.024c-1.479-1.805-3.61-2.683-6.505-2.683h-37.836l-1.873,6.432h-4.498L-662.127,664.798z
			 M-606.437,595.752l3.321-10.646h-5.74c-1.378,0-3.994,1.755-4.614,3.918l-1.948,6.728H-606.437z"/>
	</g>
	<g>
		<path fill="#FFD700" d="M-659.607,698.989c-7.528,0-13.017-2.347-16.317-6.976c-5.56-7.574-3.177-18.345,0.515-31.621
			l11.617-40.048h4.479l1.811-6.431h47.679c7.261,0,13.779,3.091,17.884,8.48l0.209,0.286c3.866,5.468,4.924,12.758,2.902,20.001
			l-6.297,22.007c-4.916,16.977-12.817,34.301-34.213,34.301H-659.607z M-636.877,669.719c1.656,0,4.197-1.808,4.803-3.918
			l5.15-18.252l1.186-3.799h-8.766c-0.148,0-0.326,0.021-0.528,0.066l-2.597,9.39l-4.832,16.514H-636.877z"/>
	</g>
	<g>
		<path fill="#FFD700" d="M-554.107,717.528c-12.699,0-23.503-5.035-30.419-14.179c-7.118-9.409-9.095-22.255-5.424-35.242
			l14.599-50.599h5.67l10.436-36.275c7.201-24.654,32.224-43.935,56.979-43.935h26.297c12.853,0,23.738,5.079,30.652,14.3
			c7.064,9.423,8.948,22.253,5.168,35.202l-14.589,50.708h-5.682l-10.414,36.092c-7.196,24.646-32.219,43.928-56.976,43.928
			H-554.107z M-551.786,681.258c2.057,2.763,7.05,4.163,14.843,4.163h3.406c24.967,0,27.91-10.506,31.984-25.047l11.609-40.029
			h4.549l8.859-30.439c2.052-7.316,1.98-13.067-0.229-16.101c-2.762-3.793-9.183-4.589-14.082-4.589h-3.404
			c-24.878,0-27.709,9.977-31.995,25.079l-11.589,39.808h-4.534l-8.883,30.621C-554.13,674.836-553.143,679.301-551.786,681.258z"/>
	</g>
	<g>
		<path fill="#FFD700" d="M-536.268,698.989c-13.026,0-21.687-3.306-26.477-10.105c-6.175-8.766-3.878-20.477-1.612-28.522
			l11.606-40.017h4.549l8.845-30.391c4.285-15.298,9.645-34.307,44.431-34.307h3.404c12.01,0,20.608,3.471,25.562,10.317
			c5.039,6.741,5.892,16.258,2.533,28.289l-11.601,39.849h-4.533l-8.882,30.621c-4.264,15.218-9.601,34.266-44.419,34.266H-536.268z
			 M-530.631,665.932c0.955-0.732,1.819-1.748,2.137-2.831l7.355-25.593h-1.324L-530.631,665.932z M-509.694,617.508l8.388-28.872
			c-0.954,0.715-1.813,1.728-2.137,2.852l-7.558,26.021H-509.694z"/>
	</g>
	<g>
		<path fill="#FFD700" d="M-459.098,676.48c-5.805,0-10.966-2.42-14.162-6.639c-3.045-4.02-3.967-9.258-2.528-14.37l4.981-17.052
			h2.723l0.766-2.639c2.481-8.812,11.7-15.514,21.422-15.514h6.75c5.772,0,10.904,2.404,14.08,6.596
			c3.046,4.021,3.964,9.275,2.519,14.413l-4.979,17.144h-2.655l-0.748,2.563c-2.479,8.796-11.697,15.498-21.418,15.498H-459.098z"/>
	</g>
	<g>
		<polygon fill="#FFD700" points="-495.415,717.528 -451.884,658.851 -449.137,658.851 -420.352,620.175 -377.14,620.175 
			-420.949,678.851 -423.686,678.851 -452.561,717.528 		"/>
	</g>
	<g>
		<path fill="#FFD700" d="M-436.23,717.528c-5.806,0-10.968-2.42-14.163-6.64c-3.045-4.021-3.965-9.26-2.524-14.373l4.975-17.139
			h2.75l0.737-2.524c2.537-8.915,11.742-15.629,21.438-15.629h6.75c5.829,0,10.999,2.457,14.184,6.742
			c3.025,4.069,3.892,9.326,2.384,14.437l-4.8,16.975h-2.791l-0.766,2.639c-2.481,8.811-11.701,15.513-21.424,15.513H-436.23z"/>
	</g>
	<g>
		<path fill="#FFD700" d="M-454.961,671.828c-5.119,0-9.641-2.141-12.404-5.872l-0.193-0.261l-0.177-0.273
			c-2.325-3.608-2.932-7.852-1.711-11.963l4.069-14.311h3.197l0.244-0.858c2.069-7.35,9.718-12.916,17.783-12.916h0.912
			c5.098,0,9.691,2.293,12.326,6.144c2.479,3.557,3.162,7.959,1.881,12.126l-4.071,13.953h-3.099l-0.369,1.312
			c-2.285,7.485-9.865,12.918-18.023,12.918H-454.961z"/>
	</g>
	<g>
		<path fill="#FFD700" d="M-431.982,712.694c-5.069,0-9.588-2.174-12.395-5.964l-0.108-0.148c-2.531-3.551-3.249-8.045-1.976-12.346
			l4.074-14.313h3.2l0.242-0.813c2.142-7.518,9.598-12.961,17.78-12.961h0.912c5.098,0,9.69,2.293,12.324,6.144
			c2.463,3.532,3.149,7.956,1.886,12.174l-4.084,13.997h-3.112l-0.331,1.173c-2.232,7.444-9.991,13.058-18.048,13.058H-431.982z"/>
	</g>
	<path fill="#000113" d="M-470.773,529.132h9.049c1.675,0,2.976-0.33,3.901-0.992c0.927-0.661,1.724-1.82,2.395-3.479l5.608-13.863
		c0.212-0.477,0.07-0.714-0.423-0.714h-4.153c-0.441,0-0.768,0.237-0.979,0.714l-5.291,13.069c-0.053,0.177-0.177,0.265-0.37,0.265
		h-6.35c-0.159,0-0.212-0.088-0.159-0.265l5.265-13.069c0.212-0.477,0.08-0.714-0.396-0.714h-4.18c-0.441,0-0.768,0.237-0.979,0.714
		l-5.608,13.863c-0.512,1.252-0.508,2.311,0.014,3.175C-472.912,528.701-472.025,529.132-470.773,529.132z"/>
	<path fill="#000113" d="M-453.444,529.132h4.153c0.494,0,0.829-0.229,1.006-0.688l5.238-13.122c0.07-0.159,0.193-0.238,0.37-0.238
		h5.768c0.176,0,0.229,0.079,0.159,0.238l-1.402,3.492c-0.071,0.158-0.195,0.238-0.371,0.238h-4.074c-0.3,0-0.507,0.039-0.621,0.118
		c-0.115,0.08-0.234,0.27-0.357,0.569l-1.35,3.387c-0.211,0.476-0.079,0.714,0.396,0.714h5.451c1.657,0,2.949-0.331,3.875-0.992
		s1.725-1.821,2.395-3.479l1.932-4.789c0.511-1.252,0.506-2.311-0.014-3.175c-0.521-0.864-1.406-1.296-2.658-1.296h-12.223
		c-0.459,0-0.777,0.229-0.953,0.688l-7.117,17.646C-454.053,528.904-453.921,529.132-453.444,529.132z"/>
	<path fill="#000113" d="M-423.417,515.084h16.614c0.477,0,0.803-0.229,0.979-0.688l1.455-3.598c0.213-0.477,0.07-0.714-0.423-0.714
		h-16.614c-0.441,0-0.768,0.237-0.979,0.714l-1.455,3.598C-424.017,514.855-423.876,515.084-423.417,515.084z"/>
	<path fill="#000113" d="M-418.708,529.132c0.44,0,0.768-0.238,0.979-0.714l4.656-11.509c0.176-0.458,0.035-0.688-0.424-0.688
		h-4.153c-0.476,0-0.803,0.229-0.979,0.688l-4.656,11.509c-0.211,0.476-0.07,0.714,0.424,0.714H-418.708z"/>
	<path fill="#000113" d="M-409.289,524.662c-0.512,1.252-0.508,2.311,0.013,3.175s1.406,1.296,2.659,1.296h3.201
		c0.44,0,0.768-0.238,0.979-0.714l1.455-3.599c0.176-0.458,0.035-0.688-0.424-0.688h-1.824c-0.159,0-0.213-0.088-0.159-0.265
		l3.438-8.519c0.054-0.177,0.177-0.265,0.371-0.265h6.27c0.159,0,0.213,0.088,0.159,0.265l-3.438,8.519
		c-0.054,0.177-0.178,0.265-0.371,0.265h-1.826c-0.458,0-0.775,0.229-0.951,0.688l-1.455,3.599c-0.213,0.476-0.08,0.714,0.396,0.714
		h3.148c1.657,0,2.953-0.33,3.889-0.992c0.935-0.661,1.737-1.82,2.408-3.479l4.1-10.106c0.512-1.252,0.508-2.311-0.013-3.175
		s-1.415-1.296-2.686-1.296h-8.968c-1.658,0-2.951,0.33-3.877,0.992c-0.926,0.661-1.724,1.821-2.395,3.479L-409.289,524.662z"/>
	<path fill="#000113" d="M-650.193,736.908c-1.055-1.751-2.851-2.627-5.388-2.627h-23.855c-0.894,0-1.555,0.482-1.983,1.447
		l-14.42,35.703c-0.429,0.965-0.161,1.447,0.804,1.447h8.363c0.893,0,1.555-0.482,1.983-1.447l10.722-26.482
		c0.107-0.356,0.356-0.536,0.75-0.536h10.882c0.321,0,0.429,0.18,0.321,0.536l-7.022,17.262c-0.107,0.357-0.357,0.536-0.75,0.536
		h-7.505c-0.93,0-1.573,0.465-1.93,1.394l-2.948,7.291c-0.429,0.965-0.161,1.447,0.804,1.447h10.186c3.358,0,5.977-0.67,7.854-2.011
		c1.876-1.34,3.493-3.689,4.851-7.049l8.31-20.479C-649.13,740.803-649.14,738.66-650.193,736.908z"/>
	<path fill="#000113" d="M-630.601,734.281h-8.47c-0.894,0-1.555,0.482-1.983,1.447l-14.42,35.703
		c-0.429,0.965-0.161,1.447,0.804,1.447h8.47c0.893,0,1.555-0.482,1.983-1.447l14.421-35.703
		C-629.368,734.763-629.636,734.281-630.601,734.281z"/>
	<path fill="#000113" d="M-602.78,749.292h-15.224c-0.501,0-0.644-0.232-0.429-0.697l1.715-4.289
		c0.178-0.464,0.518-0.696,1.019-0.696h12.276c0.465,0,0.59,0.232,0.375,0.696l-0.482,1.287c-0.287,0.608-0.107,0.911,0.537,0.911
		h8.684c0.572,0,1-0.303,1.287-0.911l1.018-2.52c0.965-2.466,0.947-4.548-0.053-6.245c-1.002-1.697-2.734-2.547-5.201-2.547h-17.1
		c-3.181,0-5.709,0.67-7.585,2.011c-1.876,1.34-3.458,3.601-4.744,6.781l-2.466,6.004c-0.965,2.466-0.947,4.548,0.054,6.245
		c1,1.698,2.734,2.547,5.2,2.547h15.224c0.5,0,0.645,0.232,0.43,0.696l-1.715,4.289c-0.18,0.465-0.52,0.696-1.02,0.696h-12.812
		c-0.465,0-0.59-0.231-0.375-0.696l0.482-1.287c0.286-0.607,0.107-0.911-0.536-0.911h-8.684c-0.572,0-1.001,0.304-1.287,0.911
		l-1.019,2.52c-1.001,2.466-0.992,4.549,0.027,6.246s2.761,2.546,5.227,2.546h17.637c3.145,0,5.657-0.67,7.532-2.011
		c1.877-1.34,3.475-3.6,4.799-6.781l2.465-6.004c0.965-2.466,0.947-4.547-0.053-6.245
		C-598.581,750.14-600.313,749.292-602.78,749.292z"/>
	<path fill="#000113" d="M-563.217,762.747h-18.012c-0.323,0-0.43-0.179-0.323-0.536l6.969-17.208c0.179-0.393,0.43-0.59,0.751-0.59
		h18.065c0.929,0,1.572-0.464,1.93-1.394l2.949-7.291c0.356-0.965,0.089-1.447-0.805-1.447h-21.496c-3.36,0-5.978,0.67-7.854,2.011
		c-1.877,1.34-3.495,3.69-4.852,7.049l-8.31,20.479c-1.037,2.538-1.027,4.683,0.027,6.433c1.054,1.752,2.85,2.627,5.387,2.627
		h21.498c0.893,0,1.555-0.482,1.983-1.447l2.948-7.291C-562.002,763.211-562.288,762.747-563.217,762.747z"/>
	<path fill="#000113" d="M-513.549,736.908c-1.055-1.751-2.868-2.627-5.441-2.627h-18.173c-3.36,0-5.978,0.67-7.854,2.011
		c-1.877,1.34-3.494,3.69-4.852,7.049l-8.31,20.479c-1.037,2.538-1.027,4.683,0.027,6.433c1.054,1.752,2.85,2.627,5.387,2.627h6.487
		c0.893,0,1.555-0.482,1.983-1.447l2.948-7.291c0.356-0.929,0.071-1.394-0.857-1.394h-3.699c-0.321,0-0.429-0.179-0.321-0.536
		l6.969-17.262c0.107-0.356,0.356-0.536,0.75-0.536h12.705c0.322,0,0.429,0.18,0.322,0.536l-6.97,17.262
		c-0.106,0.357-0.357,0.536-0.75,0.536h-3.699c-0.93,0-1.573,0.465-1.93,1.394l-2.948,7.291c-0.429,0.965-0.161,1.447,0.804,1.447
		h6.38c3.358,0,5.985-0.67,7.88-2.011c1.894-1.34,3.52-3.689,4.878-7.049l8.31-20.479
		C-512.486,740.803-512.495,738.66-513.549,736.908z"/>
	<path fill="#000113" d="M-468.922,734.281h-8.416c-0.895,0-1.555,0.482-1.984,1.447l-10.721,26.482
		c-0.107,0.357-0.358,0.536-0.751,0.536h-12.865c-0.322,0-0.43-0.179-0.322-0.536l10.668-26.482
		c0.429-0.965,0.161-1.447-0.804-1.447h-8.471c-0.894,0-1.555,0.482-1.983,1.447l-11.364,28.091
		c-1.037,2.538-1.028,4.683,0.026,6.433c1.054,1.752,2.85,2.627,5.388,2.627h18.334c3.395,0,6.03-0.67,7.907-2.011
		c1.876-1.34,3.492-3.689,4.852-7.049l11.364-28.091C-467.636,734.763-467.922,734.281-468.922,734.281z"/>
	<path fill="#000113" d="M-426.196,734.281h-8.417c-0.894,0-1.555,0.482-1.983,1.447l-6.969,17.208
		c-0.036,0.215-0.107,0.322-0.215,0.322c-0.071,0-0.106-0.071-0.106-0.215l-6.005-17.798c-0.214-0.643-0.696-0.965-1.447-0.965
		h-8.47c-0.894,0-1.555,0.482-1.983,1.447l-14.421,35.703c-0.429,0.965-0.16,1.447,0.805,1.447h8.47
		c0.893,0,1.555-0.482,1.983-1.447l6.969-17.262c0.107-0.215,0.179-0.321,0.215-0.321c0.071,0,0.125,0.071,0.161,0.214l5.95,17.852
		c0.215,0.644,0.697,0.965,1.447,0.965h8.417c0.929,0,1.607-0.482,2.036-1.447l14.421-35.703
		C-424.91,734.763-425.196,734.281-426.196,734.281z"/>
	<path fill="#000113" d="M-387.921,734.281h-33.666c-0.894,0-1.555,0.482-1.983,1.447l-2.948,7.291
		c-0.357,0.93-0.072,1.394,0.857,1.394h33.666c0.965,0,1.626-0.464,1.983-1.394l2.948-7.291
		C-386.635,734.763-386.921,734.281-387.921,734.281z"/>
	<path fill="#000113" d="M-405.558,746.718h-8.417c-0.965,0-1.626,0.465-1.983,1.394l-9.435,23.319
		c-0.429,0.965-0.144,1.447,0.857,1.447h8.416c0.894,0,1.555-0.482,1.984-1.447l9.435-23.319
		C-404.344,747.183-404.629,746.718-405.558,746.718z"/>
	<g>
		<path fill="#6609B7" d="M-667.25,707.717h2.27h1.136h8.702h3.405h5.864h7.567h5.485c20.432,0,41.647-16.458,47.389-36.89
			l5.93-20.43l2.33-7.756c1.522-5.487,1.869-10.594,1.023-15.134h5.674c-2.053-12.865-12.28-21.755-27.225-21.755h-3.026h-10.026
			h-3.405h-3.405h-8.702h-1.136h-1.324l5.643-19.485c1.791-6.243,8.173-11.162,14.227-11.162c0.188,0,0.188,0,0.378,0h0.567h5.864
			h0.757c0.189,0,0.189,0,0.379,0c6.054,0,9.699,4.919,7.907,11.162l-1.711,5.486h37.835l2.328-7.756l3.951-14.188
			c-1.824-13.242-12.369-22.701-27.883-22.701h-2.27h-1.135h-8.702h-3.405h-5.864h-7.567h-5.486
			c-20.242,0-41.458,16.458-47.388,36.889l-7.394,25.349l-0.369,1.703l-4.757,16.458h-5.675l-1.503,5.296l-1.403,4.351
			l-3.663,13.243l-5.93,20.43l-4.14,14.188C-693.309,698.259-682.763,707.717-667.25,707.717z M-671.709,661.937l10.788-37.835
			h4.541l9.473-32.538c6.22-21.376,17.399-32.349,33.29-32.349h27.053c6.432,0,10.793,1.703,13.482,4.918
			c3.027,3.594,3.964,9.081,2.651,17.972l-6.393-0.378c1.094-6.81,0.586-10.972-1.256-13.242c-1.693-1.892-4.621-2.838-9.161-2.838
			h-27.053c-12.675,0-21.366,8.892-26.491,27.052l-7.165,24.971h38.781c6.243,0,11.282,2.459,14.608,6.81
			c3.117,4.541,4.014,10.405,2.223,16.648l-6.279,21.943c-4.697,15.891-12.082,32.16-31.379,32.16h-30.269
			c-6.242,0-10.435-1.514-12.895-5.108C-677.629,684.071-675.211,673.666-671.709,661.937z"/>
	</g>
	<g>
		<path fill="#6609B7" d="M-659.607,688.989h30.269c12.107,0,18.956-7.566,24.599-27.052l6.279-21.944
			c1.214-4.351,0.705-8.512-1.436-11.54c-2.161-2.837-5.766-4.54-9.928-4.54h-40.105l-1.811,6.431h-4.541l-9.494,32.727
			c-2.736,9.838-5.034,19.106-2.047,23.08C-666.507,688.043-663.769,688.989-659.607,688.989z M-652.541,668.558l5.314-18.161
			l3.662-13.243c2.679-2.08,5.844-3.405,9.061-3.405c0.188,0,1.702,0,3.216,0h3.405h4.918c5.825,0.379,9.111,5.107,7.34,11.161
			l-1.712,5.486l-5.125,18.161c-1.791,6.243-8.172,11.161-14.415,11.161h-0.189h-0.757h-5.864h-0.757h-0.189
			C-650.876,679.719-654.332,674.801-652.541,668.558z"/>
	</g>
	<g>
		<path fill="#6609B7" d="M-567.83,627.508l-12.498,43.32c-5.722,20.242,5.979,36.7,26.221,36.7h26.297
			c20.242,0,41.457-16.458,47.367-36.7l12.5-43.32h5.676l12.518-43.51c5.91-20.242-5.791-36.7-26.221-36.7h-26.297
			c-20.242,0-41.457,16.458-47.369,36.7l-12.518,43.51H-567.83z M-549.879,624.102h4.541l9.473-32.538
			c4.51-15.891,9.266-32.349,41.615-32.349h3.404c10.594,0,18.033,3.027,22.166,8.702s4.771,13.999,1.746,24.782l-10.957,37.645
			h-4.541l-9.492,32.727c-4.24,15.135-9.264,32.35-41.613,32.35h-3.406c-11.35,0-18.828-2.648-22.961-8.323
			c-5.109-7.189-3.051-17.783-0.951-25.161L-549.879,624.102z"/>
	</g>
	<g>
		<path fill="#6609B7" d="M-536.268,688.989h3.406c27.053,0,30.574-11.918,34.814-27.052l10.975-37.835h4.541l9.473-32.538
			c2.43-8.702,2.199-15.512-0.957-19.674c-2.969-4.162-8.992-6.243-17.506-6.243h-3.404c-27.053,0-30.576,11.918-34.814,27.052
			l-10.957,37.645h-4.541l-9.492,32.727c-2.717,9.648-2.637,16.08,0.162,20.053C-551.77,687.098-545.537,688.989-536.268,688.989z
			 M-541.029,665.91l11.035-38.402h5.676l11.264-38.781c1.793-6.243,8.174-11.161,14.227-11.161c6.055,0,9.699,4.918,7.908,11.161
			l-11.266,38.781h-5.674l-11.037,38.402c-1.771,6.054-8.174,11.161-14.227,11.161C-539.365,677.071-542.801,671.963-541.029,665.91
			z"/>
	</g>
	<g>
		<path fill="#6609B7" d="M-452.348,666.48c5.199,0,10.508-3.649,11.818-8.301l2.85-9.76h2.645l2.861-9.852
			c1.309-4.652-1.773-8.301-6.973-8.301h-6.75c-5.199,0-10.508,3.649-11.818,8.301l-2.859,9.852h-2.736l-2.852,9.76
			c-1.309,4.651,1.865,8.301,7.064,8.301H-452.348z M-460.611,660.916c-0.951-1.368-1.225-3.101-0.76-4.926l2.434-8.392h3.193
			l1.904-6.841c1.131-3.832,5.563-6.933,9.85-6.933h0.912c2.189,0,4.102,0.912,5.225,2.372c0.949,1.369,1.225,3.101,0.768,4.835
			l-2.402,8.118h-3.193l-2.025,7.115c-1.141,3.923-5.674,7.115-10.051,7.115h-0.365
			C-457.496,663.378-459.498,662.466-460.611,660.916z"/>
	</g>
	<g>
		<path fill="#6609B7" d="M-415.328,630.175l-28.785,38.676h-2.738l-28.693,38.677h17.971l28.875-38.677h2.736l28.877-38.676
			H-415.328z M-434.699,670.403h-2.736l-22.834,30.649l-2.381-1.643l23.807-32.109h2.738l22.52-30.284l2.383,1.643L-434.699,670.403
			z"/>
	</g>
	<g>
		<path fill="#6609B7" d="M-423.018,671.223c-5.201,0-10.52,3.74-11.828,8.393l-2.852,9.761h-2.736l-2.859,9.851
			c-1.311,4.652,1.863,8.301,7.063,8.301h6.75c5.199,0,10.51-3.648,11.82-8.301l2.859-9.851h2.736l2.76-9.761
			c1.4-4.652-1.764-8.393-6.963-8.393H-423.018z M-414.865,676.97c0.951,1.368,1.225,3.102,0.758,4.926l-2.395,8.027h-3.191
			l-2.025,7.114c-1.143,3.923-5.672,7.115-10.051,7.115h-0.365c-2.371,0-4.383-0.82-5.498-2.371c-0.941-1.46-1.215-3.192-0.75-5.018
			l2.424-8.301h3.191l1.906-6.842c1.133-3.831,5.572-7.023,9.859-7.023h0.912C-417.9,674.598-415.99,675.51-414.865,676.97z"/>
	</g>
	<g>
		<path fill="#6609B7" d="M-454.596,661.828c3.74,0,7.484-2.646,8.459-5.838l2.342-8.392h3.191l1.996-6.841
			c0.408-1.277,0.178-2.554-0.537-3.558c-0.789-1.186-2.363-1.824-4.096-1.824h-0.912c-3.65,0-7.293,2.554-8.166,5.655l-2.313,8.118
			h-3.193l-2.023,7.115c-0.418,1.369-0.188,2.646,0.518,3.74c0.879,1.187,2.453,1.824,4.369,1.824H-454.596z M-455.102,655.352
			l2.006-6.933h2.736l2.025-7.115c0.389-1.095,1.67-2.008,2.857-2.008c1.275,0,2.092,0.913,1.703,2.008l-2.023,7.115h-2.738
			l-2.004,6.933c-0.299,1.094-1.58,2.006-2.857,2.006S-455.398,656.446-455.102,655.352z"/>
	</g>
	<g>
		<path fill="#6609B7" d="M-421.164,676.149c-3.648,0-7.293,2.555-8.176,5.747l-2.395,8.027h-3.102l-2.025,7.114
			c-0.416,1.369-0.195,2.737,0.52,3.74c0.879,1.187,2.445,1.916,4.359,1.916h0.365c3.648,0,7.484-2.646,8.469-5.93l2.332-8.301
			h3.191l1.996-6.842c0.418-1.368,0.188-2.646-0.529-3.648c-0.787-1.186-2.361-1.824-4.094-1.824H-421.164z M-420.813,682.352
			l-2.016,7.024h-2.736l-2.016,7.023c-0.389,1.095-1.67,2.007-2.857,2.007c-1.275,0-2.092-0.912-1.703-2.007l2.014-7.023h2.738
			l2.014-7.024c0.299-1.096,1.58-2.007,2.857-2.007S-420.516,681.256-420.813,682.352z"/>
	</g>
</g>
<text transform="matrix(1 0 0 1 -476.752 81.9419)" font-family="'PervitinaDex'" font-size="26.4562">UP TO</text>
<text transform="matrix(1 0 0 1 -699.6465 325.6875)" font-family="'PervitinaDex'" font-size="53.6075">DISCOUNT</text>
<text transform="matrix(0.9945 0 -0.1045 0.9945 -688.9863 260.3369)"><tspan x="0" y="0" fill="#990000" font-family="'speedhunterline'" font-size="190.2169">60</tspan><tspan x="218.745" y="0" fill="#990000" font-family="'speedhunterline'" font-size="91.7239">%</tspan></text>
<rect x="-963.893" y="1396.901" fill="#990000" width="643.063" height="112.359"/>
<polygon fill="#990000" points="-962.893,1563.24 -1082.723,1563.24 -1054.623,1510.317 -1082.723,1453.081 -962.893,1453.081 "/>
<polygon fill="#990000" points="-320.954,1563.24 -201.124,1563.24 -229.224,1510.317 -201.124,1453.081 -320.954,1453.081 "/>
<polygon points="-962.893,1509.26 -962.893,1563.24 -906.623,1509.26 "/>
<polygon points="-320.954,1509.26 -320.954,1563.24 -377.224,1509.26 "/>
<text transform="matrix(1 0 0 1 -945.5161 1476.6812)" fill="#FFFFFF" font-family="'Cairo-Black'" font-size="80">CLEARANCE SALE</text>
<g>
	<polygon fill="#990000" points="-141.209,1683.901 -864.848,1683.901 -864.848,1796.26 -141.209,1796.26 -175.798,1742.281 	"/>
</g>
<g>
	<path fill="#FFFFFF" d="M-801.28,1763.761c-3.12-1.973-5.267-4.92-6.44-8.84c-1.174-3.92-1.76-9.16-1.76-15.721
		c0-7.68,0.68-13.547,2.04-17.6c1.36-4.053,3.48-6.854,6.36-8.4s6.88-2.32,12-2.32c5.226,0,10.933,0.801,17.12,2.4l-0.4,11.199
		c-5.014-0.691-9.068-1.039-12.16-1.039c-2.828,0-4.988,0.439-6.48,1.32c-1.494,0.879-2.52,2.268-3.08,4.16s-0.84,4.572-0.84,8.039
		c0,1.76,0.026,3.121,0.08,4.08c0.16,3.947,0.48,6.801,0.96,8.561s1.333,2.959,2.56,3.6c1.227,0.641,3.2,0.961,5.92,0.961
		c3.68,0,8.026-0.293,13.04-0.881l0.24,11.52c-5.76,1.281-11.014,1.92-15.76,1.92C-793.693,1766.72-798.16,1765.734-801.28,1763.761
		z"/>
	<path fill="#FFFFFF" d="M-732.6,1753.121v12.561h-31.28v-53.76h14.24v41.199H-732.6z"/>
	<path fill="#FFFFFF" d="M-712.281,1724.32v8.4h17.12v12.16h-17.12v8.4h21.92v12.4h-36.16v-53.76h36.16v12.398H-712.281z"/>
	<path fill="#FFFFFF" d="M-655.401,1758.8h-15.68l-1.04,6.881h-14.4l10.32-53.76h25.92l10.32,53.76h-14.4L-655.401,1758.8z
		 M-661.481,1723.601h-3.52l-3.68,22.879h10.88L-661.481,1723.601z"/>
	<path fill="#FFFFFF" d="M-633.642,1711.921h21.52c6.72,0,11.772,1.572,15.16,4.719c3.386,3.148,5.08,7.787,5.08,13.92
		c0,6.135-2.188,11.281-6.56,15.441l5.84,19.68h-15.6l-3.92-16.24h-7.28v16.24h-14.24V1711.921z M-611.882,1737.281
		c1.706,0,3.026-0.652,3.96-1.961c0.933-1.305,1.4-2.893,1.4-4.76c0-1.813-0.52-3.359-1.56-4.639c-1.04-1.281-2.387-1.92-4.04-1.92
		h-7.28v13.279H-611.882z"/>
	<path fill="#FFFFFF" d="M-557.723,1758.8h-15.68l-1.041,6.881h-14.399l10.319-53.76h25.921l10.319,53.76h-14.399L-557.723,1758.8z
		 M-563.803,1723.601h-3.52l-3.681,22.879h10.88L-563.803,1723.601z"/>
	<path fill="#FFFFFF" d="M-490.284,1711.921v53.76h-22.8l-8.641-41.041v41.041h-14.239v-53.76h23.359l7.92,39.76v-39.76H-490.284z"
		/>
	<path fill="#FFFFFF" d="M-473.684,1763.761c-3.12-1.973-5.268-4.92-6.44-8.84c-1.174-3.92-1.76-9.16-1.76-15.721
		c0-7.68,0.68-13.547,2.04-17.6c1.359-4.053,3.479-6.854,6.359-8.4c2.881-1.547,6.881-2.32,12-2.32c5.227,0,10.933,0.801,17.12,2.4
		l-0.399,11.199c-5.014-0.691-9.067-1.039-12.16-1.039c-2.827,0-4.987,0.439-6.48,1.32c-1.493,0.879-2.52,2.268-3.08,4.16
		c-0.56,1.893-0.84,4.572-0.84,8.039c0,1.76,0.026,3.121,0.08,4.08c0.16,3.947,0.48,6.801,0.96,8.561
		c0.48,1.76,1.333,2.959,2.561,3.6c1.226,0.641,3.2,0.961,5.92,0.961c3.68,0,8.026-0.293,13.04-0.881l0.24,11.52
		c-5.761,1.281-11.015,1.92-15.761,1.92C-466.098,1766.72-470.563,1765.734-473.684,1763.761z"/>
	<path fill="#FFFFFF" d="M-422.045,1724.32v8.4h17.12v12.16h-17.12v8.4h21.92v12.4h-36.159v-53.76h36.159v12.398H-422.045z"/>
	<path fill="#FFFFFF" d="M-373.646,1764.48l-2.88-0.639l1.439-10.881c7.04,0.961,12.48,1.439,16.32,1.439
		c4.16,0,6.24-1.439,6.24-4.318c0-1.014-0.468-1.813-1.4-2.4c-0.934-0.586-2.308-1.227-4.12-1.92
		c-1.174-0.428-2.027-0.773-2.56-1.041c-6.027-2.025-10.308-4.346-12.84-6.959c-2.534-2.613-3.8-5.893-3.8-9.84
		c0-5.602,1.706-9.84,5.119-12.721s8.053-4.32,13.921-4.32c2.399,0,4.68,0.16,6.84,0.48s6.12,1.014,11.88,2.08l-1.12,11.039
		c-6.934-0.799-12.268-1.199-16-1.199c-4.374,0-6.56,1.199-6.56,3.6c0,0.801,0.532,1.48,1.6,2.041
		c1.066,0.559,2.746,1.268,5.04,2.119c2.346,0.854,3.866,1.439,4.56,1.76c3.521,1.439,6.24,2.84,8.16,4.201
		c1.92,1.359,3.307,3,4.16,4.92c0.853,1.92,1.28,4.348,1.28,7.279c0,3.734-0.868,6.92-2.601,9.561c-1.733,2.639-4.08,4.639-7.04,6
		c-2.96,1.359-6.279,2.039-9.96,2.039C-362.554,1766.8-367.78,1766.027-373.646,1764.48z"/>
	<path fill="#FFFFFF" d="M-304.446,1758.8h-15.68l-1.04,6.881h-14.4l10.32-53.76h25.92l10.319,53.76h-14.399L-304.446,1758.8z
		 M-310.526,1723.601h-3.52l-3.681,22.879h10.88L-310.526,1723.601z"/>
	<path fill="#FFFFFF" d="M-251.408,1753.121v12.561h-31.279v-53.76h14.239v41.199H-251.408z"/>
	<path fill="#FFFFFF" d="M-231.088,1724.32v8.4h17.12v12.16h-17.12v8.4h21.92v12.4h-36.159v-53.76h36.159v12.398H-231.088z"/>
</g>
<g>
	<path fill="#FFD700" d="M-302.66,1123.285c-221.772-65.028-457.698-64.939-679.431,0.267
		c-10.566-35.933-21.131-71.864-31.697-107.797c242.395-71.282,500.303-71.379,742.74-0.29
		C-281.586,1051.405-292.123,1087.344-302.66,1123.285z"/>
	<path fill="#FFD700" d="M-965.875,1175.048c-39.477,11.57-78.484,25.301-116.847,41.191c2.245-20.024,4.939-40.102,8.084-60.214
		c-16.333-14.157-33.083-28.016-50.24-41.56c42.032-17.41,84.77-32.454,128.022-45.132
		C-986.53,1104.573-976.203,1139.81-965.875,1175.048z"/>
	<path d="M-981.057,1123.248c5.061,17.267,10.121,34.533,15.182,51.801c13.477-22.701,27.926-45.18,43.343-67.369
		C-942.137,1112.37-961.651,1117.559-981.057,1123.248z"/>
	<path fill="#FFD700" d="M-317.971,1175.048c39.477,11.57,78.483,25.301,116.847,41.191c-2.245-20.024-4.938-40.102-8.084-60.214
		c16.333-14.157,33.083-28.016,50.24-41.56c-42.032-17.41-84.77-32.454-128.022-45.132
		C-297.316,1104.573-307.645,1139.81-317.971,1175.048z"/>
	<path d="M-302.79,1123.248c-5.06,17.267-10.12,34.533-15.181,51.801c-13.478-22.7-27.927-45.179-43.344-67.369
		C-341.71,1112.37-322.195,1117.559-302.79,1123.248z"/>
	<g>
		<path fill="#000113" d="M-960.136,1081.589c-3.844-1.021-6.914-3.241-9.204-6.682c-2.291-3.439-4.308-8.319-6.038-14.648
			c-2.025-7.407-2.829-13.271-2.386-17.591c0.441-4.318,2.067-7.66,4.879-10.007c2.811-2.346,7.083-4.268,12.808-5.721
			c5.843-1.483,12.429-2.286,19.724-2.375c0.714,3.667,1.429,7.335,2.146,11.002c-5.723,0.651-10.302,1.422-13.728,2.276
			c-3.134,0.781-5.418,1.816-6.849,3.092c-1.434,1.273-2.22,2.911-2.363,4.903s0.223,4.665,1.093,8.021
			c0.442,1.703,0.812,3.014,1.111,3.927c1.166,3.776,2.229,6.448,3.189,8.018c0.96,1.569,2.182,2.492,3.667,2.773
			c1.485,0.281,3.696,0.047,6.637-0.688c3.979-0.996,8.61-2.438,13.912-4.304c0.976,3.715,1.951,7.43,2.925,11.146
			c-5.892,2.718-11.362,4.726-16.441,6.009C-951.275,1082.312-956.29,1082.61-960.136,1081.589z"/>
		<path fill="#000113" d="M-888.325,1053.942c0.825,4.104,1.649,8.209,2.474,12.314c-11.261,2.262-22.498,4.683-33.708,7.261
			c-4.017-17.464-8.035-34.928-12.052-52.392c5.325-1.225,10.655-2.415,15.991-3.572c2.909,13.422,5.817,26.844,8.727,40.265
			C-900.711,1056.479-894.521,1055.186-888.325,1053.942z"/>
		<path fill="#000113" d="M-871.29,1021.356c0.502,2.755,1.003,5.51,1.505,8.265c6.344-1.155,12.695-2.263,19.052-3.321
			c0.666,3.999,1.331,7.997,1.997,11.995c-6.296,1.049-12.586,2.145-18.869,3.289c0.501,2.755,1.003,5.51,1.505,8.265
			c7.991-1.455,15.993-2.833,24.005-4.132c0.662,4.081,1.323,8.161,1.984,12.241c-13.085,2.121-26.145,4.453-39.173,6.997
			c-3.435-17.588-6.869-35.175-10.304-52.763c13.594-2.654,27.22-5.088,40.874-7.302c0.661,4.08,1.322,8.159,1.984,12.239
			C-854.926,1018.458-863.113,1019.867-871.29,1021.356z"/>
		<path fill="#000113" d="M-802.979,1045.576c-5.726,0.746-11.447,1.533-17.165,2.359c-0.051,2.325-0.1,4.649-0.146,6.975
			c-5.221,0.76-10.438,1.553-15.651,2.379c0.929-18.291,2.021-36.591,3.279-54.896c9.801-1.463,19.616-2.812,29.441-4.048
			c6.148,17.288,12.136,34.614,17.962,51.977c-5.236,0.61-10.468,1.253-15.698,1.931
			C-801.628,1050.025-802.303,1047.8-802.979,1045.576z M-814.378,1011.583c-1.321,0.18-2.642,0.361-3.962,0.545
			c-0.33,7.745-0.635,15.489-0.915,23.232c4.007-0.57,8.017-1.121,12.028-1.653C-809.586,1026.328-811.97,1018.953-814.378,1011.583
			z"/>
		<path fill="#000113" d="M-784.286,996.105c8.168-0.905,16.343-1.732,24.523-2.481c7.665-0.701,13.568,0.402,17.663,3.238
			c4.098,2.839,6.35,7.329,6.798,13.444c0.449,6.12-1.63,11.426-6.158,15.957c2.682,6.368,5.331,12.744,7.945,19.128
			c-5.689,0.422-11.376,0.883-17.061,1.384c-1.903-5.268-3.825-10.529-5.766-15.788c-2.687,0.246-5.373,0.501-8.059,0.764
			c0.529,5.388,1.057,10.775,1.585,16.163c-5.186,0.509-10.368,1.05-15.548,1.624
			C-780.338,1031.726-782.312,1013.916-784.286,996.105z M-757.182,1018.853c1.907-0.175,3.324-0.955,4.256-2.351
			c0.931-1.391,1.318-3.019,1.158-4.878c-0.157-1.806-0.875-3.297-2.161-4.469c-1.285-1.173-2.865-1.674-4.733-1.502
			c-2.741,0.251-5.482,0.511-8.222,0.779c0.432,4.405,0.864,8.811,1.296,13.216
			C-762.786,1019.375-759.984,1019.109-757.182,1018.853z"/>
		<path fill="#000113" d="M-695.62,1036.278c-5.759,0.248-11.516,0.537-17.271,0.865c-0.251,2.312-0.5,4.623-0.747,6.936
			c-5.256,0.305-10.511,0.643-15.763,1.015c2.499-18.142,5.162-36.277,7.989-54.406c9.87-0.607,19.746-1.103,29.624-1.484
			c4.625,17.755,9.086,35.534,13.384,53.335c-5.261,0.155-10.521,0.344-15.78,0.565
			C-694.661,1040.828-695.139,1038.552-695.62,1036.278z M-704.025,1001.427c-1.329,0.064-2.658,0.131-3.986,0.199
			c-0.996,7.688-1.967,15.377-2.913,23.066c4.034-0.221,8.068-0.424,12.103-0.605
			C-700.531,1016.53-702.266,1008.977-704.025,1001.427z"/>
		<path fill="#000113" d="M-620.505,988.418c-0.297,17.917-0.594,35.835-0.892,53.752c-8.332-0.138-16.665-0.191-24.997-0.161
			c-3.208-13.669-6.519-27.326-9.936-40.969c0.154,13.68,0.308,27.359,0.462,41.039c-5.204,0.059-10.407,0.149-15.61,0.273
			c-0.428-17.914-0.855-35.829-1.283-53.744c8.906-0.213,17.813-0.333,26.721-0.361c3.063,13.243,6.032,26.498,8.908,39.763
			c0.051-13.254,0.102-26.507,0.152-39.76C-631.487,988.271-625.996,988.328-620.505,988.418z"/>
		<path fill="#000113" d="M-603.139,1040.687c-3.363-2.078-5.647-5.085-6.844-9.038c-1.197-3.951-1.725-9.205-1.568-15.764
			c0.184-7.678,1.089-13.526,2.739-17.537c1.647-4.012,4.143-6.747,7.482-8.189s7.948-2.061,13.805-1.814
			c5.979,0.252,12.475,1.368,19.444,3.369c-0.364,3.719-0.729,7.437-1.091,11.155c-5.635-1.014-10.212-1.585-13.715-1.747
			c-3.203-0.147-5.67,0.189-7.396,1.002c-1.726,0.81-2.939,2.153-3.643,4.021c-0.703,1.868-1.116,4.534-1.244,7.998
			c-0.065,1.759-0.085,3.12-0.061,4.081c0.033,3.951,0.283,6.816,0.749,8.595c0.467,1.778,1.366,3.013,2.698,3.707
			c1.332,0.695,3.501,1.104,6.508,1.24c4.069,0.185,8.887,0.129,14.466-0.143c-0.13,3.839-0.261,7.678-0.392,11.517
			c-6.387,0.918-12.164,1.276-17.359,1.052C-594.924,1043.917-599.775,1042.766-603.139,1040.687z"/>
		<path fill="#000113" d="M-543.467,1004.431c-0.215,2.792-0.431,5.584-0.646,8.375c6.408,0.494,12.813,1.037,19.216,1.629
			c-0.373,4.037-0.746,8.072-1.119,12.109c-6.341-0.586-12.686-1.124-19.032-1.614c-0.216,2.792-0.431,5.584-0.646,8.376
			c8.073,0.623,16.142,1.324,24.204,2.104c-0.398,4.114-0.796,8.229-1.194,12.343c-13.168-1.273-26.353-2.335-39.547-3.186
			c1.153-17.883,2.306-35.766,3.459-53.648c13.768,0.888,27.524,1.995,41.265,3.324c-0.398,4.113-0.796,8.228-1.194,12.341
			C-526.951,1005.786-535.206,1005.068-543.467,1004.431z"/>
		<path fill="#000113" d="M-493.64,1049.698c-1.022-0.338-2.046-0.674-3.069-1.009c0.948-3.541,1.902-7.08,2.859-10.618
			c7.644,1.879,13.558,3.136,17.777,3.699c4.57,0.613,7.053-0.487,7.452-3.34c0.141-1.004-0.264-1.866-1.214-2.592
			c-0.951-0.723-2.381-1.566-4.294-2.523c-1.241-0.599-2.142-1.066-2.697-1.41c-6.41-2.889-10.885-5.771-13.396-8.707
			c-2.512-2.936-3.55-6.355-3.091-10.277c0.651-5.563,3.067-9.551,7.291-11.939c4.22-2.388,9.688-3.155,16.361-2.26
			c2.73,0.366,5.299,0.883,7.709,1.545c2.409,0.663,6.811,1.984,13.177,4.024c-0.974,3.574-1.944,7.149-2.911,10.726
			c-7.67-1.96-13.622-3.189-17.825-3.762c-4.926-0.667-7.544,0.21-7.852,2.588c-0.102,0.794,0.406,1.546,1.532,2.259
			c1.123,0.711,2.913,1.663,5.364,2.854c2.511,1.203,4.13,2.021,4.859,2.447c3.733,1.977,6.563,3.804,8.5,5.466
			c1.938,1.659,3.234,3.515,3.893,5.556c0.656,2.041,0.763,4.513,0.32,7.411c-0.563,3.692-1.996,6.694-4.281,9.021
			c-2.288,2.325-5.136,3.925-8.553,4.809c-3.415,0.884-7.117,1.051-11.12,0.513C-481.838,1053.506-487.424,1052.004-493.64,1049.698
			z"/>
		<path fill="#000113" d="M-417.336,1055.535c-5.69-1.044-11.387-2.047-17.087-3.01c-0.76,2.197-1.519,4.396-2.273,6.595
			c-5.208-0.875-10.419-1.717-15.635-2.524c6.481-17.13,13.123-34.217,19.924-51.26c9.784,1.607,19.555,3.328,29.309,5.162
			c0.571,18.342,0.978,36.671,1.221,54.985c-5.186-1.024-10.377-2.016-15.572-2.974
			C-417.41,1060.185-417.372,1057.86-417.336,1055.535z M-417.797,1019.683c-1.314-0.234-2.629-0.466-3.944-0.695
			c-2.686,7.273-5.348,14.553-7.985,21.838c3.993,0.684,7.984,1.387,11.973,2.109
			C-417.743,1035.186-417.758,1027.436-417.797,1019.683z"/>
		<path fill="#000113" d="M-358.513,1061.96c-0.949,4.078-1.897,8.156-2.846,12.234c-11.205-2.606-22.437-5.054-33.693-7.344
			c3.572-17.561,7.145-35.12,10.717-52.681c5.347,1.087,10.688,2.209,16.022,3.365c-2.907,13.421-5.815,26.843-8.724,40.265
			C-370.854,1059.14-364.68,1060.527-358.513,1061.96z"/>
		<path fill="#000113" d="M-329.459,1039.365c-0.684,2.715-1.367,5.431-2.051,8.146c6.273,1.579,12.539,3.208,18.795,4.885
			c-1.049,3.915-2.1,7.83-3.148,11.746c-6.195-1.661-12.401-3.274-18.616-4.839c-0.684,2.715-1.367,5.431-2.051,8.146
			c7.904,1.989,15.794,4.059,23.667,6.205c-1.087,3.988-2.175,7.977-3.262,11.964c-12.86-3.507-25.763-6.802-38.703-9.886
			c4.154-17.433,8.309-34.864,12.463-52.296c13.502,3.218,26.965,6.656,40.383,10.315c-1.088,3.987-2.175,7.975-3.262,11.962
			C-313.3,1043.517-321.372,1041.401-329.459,1039.365z"/>
	</g>
</g>
<g>
	<g>
		<path d="M617.591,127.325c0,4.534-1.92,8.454-5.76,11.76c-1.174,1.014-2.454,2.028-3.84,3.04l-17.2,12.4h26.8v11.2h-43.2v-15.2
			l28.801-20.8v-4c0-3.2-1.601-4.8-4.801-4.8h-22.399v-11.2h25.6c5.601,0,9.666,1.268,12.2,3.8c2.532,2.534,3.8,6.6,3.8,12.2
			V127.325z"/>
		<path d="M670.391,150.525c0,5.6-1.268,9.667-3.801,12.2c-2.533,2.534-6.6,3.8-12.199,3.8h-15.2c-5.601,0-9.668-1.266-12.2-3.8
			c-2.534-2.533-3.8-6.6-3.8-12.2v-25.6c0-5.6,1.266-9.667,3.8-12.2c2.532-2.533,6.6-3.8,12.2-3.8h15.2
			c5.6,0,9.666,1.267,12.199,3.8c2.533,2.534,3.801,6.6,3.801,12.2V150.525z M655.99,124.925c0-3.2-1.6-4.8-4.8-4.8h-8.8
			c-3.2,0-4.801,1.6-4.801,4.8v25.6c0,3.2,1.601,4.8,4.801,4.8h8.8c3.2,0,4.8-1.6,4.8-4.8V124.925z"/>
		<path d="M686.791,165.725v-43.6l-9.2,3.2l-4-9.2l14.8-6.4h12.8v56H686.791z"/>
		<path d="M757.19,151.325c0,5.228-1.228,9.067-3.681,11.52c-2.453,2.454-6.293,3.68-11.52,3.68h-18.4
			c-5.228,0-9.067-1.226-11.52-3.68c-2.454-2.453-3.68-6.292-3.68-11.52v-0.8c0-4.052,1.012-7.412,3.04-10.08
			c1.6-2.133,3.786-3.573,6.56-4.32c-2.4-0.8-4.334-2.2-5.8-4.2c-1.468-2-2.2-4.6-2.2-7.8v-0.8c0-4.853,1.227-8.466,3.68-10.84
			c2.453-2.372,6.293-3.56,11.521-3.56h15.2c5.226,0,9.065,1.188,11.52,3.56c2.452,2.374,3.68,5.988,3.68,10.84v0.8
			c0,3.2-0.733,5.8-2.199,7.8c-1.468,2-3.4,3.4-5.801,4.2c4.32,1.174,7.253,4.054,8.801,8.64c0.532,1.654,0.8,3.574,0.8,5.76
			V151.325z M727.59,143.325c-3.199,0-4.8,1.6-4.8,4.8v3.2c0,1.228,0.36,2.2,1.08,2.92s1.692,1.08,2.92,1.08h12
			c1.227,0,2.2-0.36,2.92-1.08c0.721-0.72,1.08-1.692,1.08-2.92v-3.2c0-3.2-1.6-4.8-4.8-4.8H727.59z M729.19,120.125
			c-3.2,0-4.8,1.6-4.8,4.8v2.4c0,3.2,1.6,4.8,4.8,4.8h7.2c3.199,0,4.8-1.6,4.8-4.8v-2.4c0-3.2-1.601-4.8-4.8-4.8H729.19z"/>
		<path d="M817.189,165.725c-5.174,0.533-10.239,0.8-15.199,0.8c-3.628,0-6.534-1.092-8.721-3.28
			c-2.188-2.186-3.279-5.092-3.279-8.72v-20.4h-4.801v-10.8h4.801l1.6-9.6h12.4v9.6h10v10.8h-10v18.4c0,0.8,0.266,1.468,0.8,2
			c0.532,0.534,1.2,0.8,2,0.8h10.399V165.725z"/>
		<path d="M861.188,164.925c-10.294,1.066-19.628,1.6-28,1.6c-3.628,0-6.534-1.092-8.72-3.28c-2.188-2.186-3.28-5.092-3.28-8.72
			v-19.2c0-4,1.132-7.133,3.399-9.4c2.267-2.267,5.4-3.4,9.4-3.4h16c4,0,7.133,1.134,9.4,3.4c2.266,2.267,3.399,5.4,3.399,9.4v14.8
			h-27.6v3.2c0,0.8,0.266,1.467,0.8,2c0.532,0.534,1.2,0.8,2,0.8c5.28,0,13.013-0.4,23.2-1.2V164.925z M838.389,132.525
			c-2.134,0-3.2,1.068-3.2,3.2v4.4h13.6v-4.4c0-2.132-1.067-3.2-3.2-3.2H838.389z"/>
		<path d="M871.988,124.125c9.76-1.066,18.56-1.6,26.4-1.6c3.626,0,6.532,1.094,8.72,3.28c2.187,2.188,3.28,5.094,3.28,8.72v31.2
			h-12.4l-0.8-4c-2.508,1.654-5.08,2.868-7.72,3.64c-2.641,0.772-4.868,1.16-6.681,1.16h-2.8c-3.628,0-6.534-1.092-8.72-3.28
			c-2.188-2.186-3.28-5.092-3.28-8.72v-3.6c0-3.626,1.093-6.533,3.28-8.72c2.186-2.186,5.092-3.28,8.72-3.28h16.4v-3.2
			c0-0.8-0.268-1.466-0.801-2c-0.533-0.533-1.199-0.8-2-0.8c-3.467,0-7.293,0.16-11.479,0.48c-4.188,0.32-7.561,0.56-10.12,0.72
			V124.125z M886.788,155.325c2.826,0,6.026-0.533,9.601-1.6v-4.8h-11.601c-0.8,0-1.468,0.267-2,0.8c-0.533,0.534-0.8,1.2-0.8,2v0.8
			c0,0.8,0.267,1.468,0.8,2c0.532,0.534,1.2,0.8,2,0.8H886.788z"/>
		<path d="M945.987,122.525c4.319,0,7.652,1.6,10,4.8c2.452-1.653,5.105-2.866,7.96-3.64c2.853-0.772,5.399-1.16,7.64-1.16h0.8
			c3.626,0,6.532,1.094,8.72,3.28c2.187,2.188,3.28,5.094,3.28,8.72v31.2h-14v-28.8c0-0.8-0.268-1.466-0.8-2
			c-0.534-0.533-1.2-0.8-2-0.8h-0.4c-2.399,0-5.467,0.534-9.199,1.6v30h-14v-28.8c0-0.8-0.268-1.466-0.801-2
			c-0.533-0.533-1.199-0.8-2-0.8h-0.399c-2.4,0-5.468,0.534-9.2,1.6v30h-14v-42.4h12.4l0.8,4c2.506-1.653,5.08-2.866,7.72-3.64
			c2.64-0.772,4.866-1.16,6.68-1.16H945.987z"/>
		<path d="M1036.386,148.925l7.2-25.6h15.2l-13.2,42.4h-14.8l-8-25.6l-8,25.6h-14.8l-13.2-42.4h15.2l7.199,25.6l7.2-25.6h12.8
			L1036.386,148.925z"/>
		<path d="M1100.386,164.925c-10.294,1.066-19.628,1.6-28,1.6c-3.628,0-6.534-1.092-8.72-3.28c-2.188-2.186-3.28-5.092-3.28-8.72
			v-19.2c0-4,1.132-7.133,3.399-9.4c2.267-2.267,5.4-3.4,9.4-3.4h16c4,0,7.133,1.134,9.4,3.4c2.266,2.267,3.399,5.4,3.399,9.4v14.8
			h-27.6v3.2c0,0.8,0.266,1.467,0.8,2c0.532,0.534,1.2,0.8,2,0.8c5.28,0,13.013-0.4,23.2-1.2V164.925z M1077.586,132.525
			c-2.134,0-3.2,1.068-3.2,3.2v4.4h13.6v-4.4c0-2.132-1.067-3.2-3.2-3.2H1077.586z"/>
		<path d="M1111.185,124.125c9.76-1.066,18.56-1.6,26.4-1.6c3.626,0,6.532,1.094,8.72,3.28c2.187,2.188,3.28,5.094,3.28,8.72v31.2
			h-12.4l-0.8-4c-2.508,1.654-5.08,2.868-7.72,3.64c-2.641,0.772-4.868,1.16-6.681,1.16h-2.8c-3.628,0-6.534-1.092-8.72-3.28
			c-2.188-2.186-3.28-5.092-3.28-8.72v-3.6c0-3.626,1.093-6.533,3.28-8.72c2.186-2.186,5.092-3.28,8.72-3.28h16.4v-3.2
			c0-0.8-0.268-1.466-0.801-2c-0.533-0.533-1.199-0.8-2-0.8c-3.467,0-7.293,0.16-11.479,0.48c-4.188,0.32-7.561,0.56-10.12,0.72
			V124.125z M1125.984,155.325c2.826,0,6.026-0.533,9.601-1.6v-4.8h-11.601c-0.8,0-1.468,0.267-2,0.8c-0.533,0.534-0.8,1.2-0.8,2
			v0.8c0,0.8,0.267,1.468,0.8,2c0.532,0.534,1.2,0.8,2,0.8H1125.984z"/>
		<path d="M1181.184,134.925c-3.36,0-6.828,0.8-10.4,2.4v28.4h-14v-42.4h12.4l0.8,5.2c4.586-4,9.386-6,14.399-6h3.601v12.4H1181.184
			z"/>
	</g>
	<g>
		<g>
			<path fill="#000113" d="M469.016,0c0,0-79.532,1.921-115.601,37.553c-36.24,35.8-10.072,77.296,75.688,69.128
				c0,0-75.37-8.2-39.619-60.183C415.451,8.739,469.016,0,469.016,0z"/>
		</g>
		<g>
			<path fill="#6609B7" d="M433.63,96.581c8.419,1.675,18.729,5.774,24.705,11.68c5.281,5.217,8.235,12.175,8.592,19.574
				c1.801,37.333-91.36,99.081-207.755,151.334c0,0,151.801-58.289,224.102-105.582c41.692-27.271,38.154-50.149,34.408-59.206
				c-8.358-20.205-37.52-23.896-59.365-24.426c-16.204-0.393-25.236,0.612-30.98,0.942c-6.842,0.394-18.182,1.835-18.182,1.835
				S413.396,92.561,433.63,96.581z"/>
		</g>
		<g>
			<polygon fill="#000113" points="429.524,106.597 390.627,106.597 360.077,124.968 348.472,106.597 318.549,106.597 
				338.391,138.012 279.655,173.337 318.549,173.337 349.104,154.965 360.706,173.337 390.627,173.337 370.785,141.921 			"/>
		</g>
		<g>
			<path fill="#000113" d="M288.747,106.597l-24.683,41.262c-2.463,4.113-7.742,6.746-13.549,6.746h-8.424l28.716-48.007h-26.926
				l-34.936,58.398c-2.319,3.884,1.297,8.342,6.772,8.342h33.108l-30.808,51.517h26.93l70.728-118.255h-26.93V106.597z"/>
		</g>
		<g>
			<path fill="#000113" d="M209.18,154.604"/>
		</g>
		<g>
			<path fill="#000113" d="M220.004,106.765l11.395-18.9h-26.931l-11.39,18.9h-0.062h-17.949l-11.21,18.733h17.954l-23.573,39.666
				c-2.32,3.888,1.299,8.342,6.775,8.342h23.603c5.808,0,11.087-2.63,13.55-6.744l7.17-11.991h-17.952l0.101-0.166h-0.002
				l15.239-25.733c1.233-2.058,3.874-3.373,6.774-3.373h3.682c5.805,0,11.086-2.627,13.547-6.745l7.176-11.988H220.004z"/>
		</g>
		<g>
			<path fill="#000113" d="M172.593,103.226l9.188-15.359H82.089c-5.81,0-11.087,2.628-13.55,6.744l-22.15,37.02
				c-2.21,3.697-6.058,7.478-19.172,8.305c-0.256,0.017,25.685,0.032,25.946,0.032h70.519l-6.735,11.265
				c-1.233,2.055-3.874,3.372-6.772,3.372H37.406c-2.905,0-5.544,1.315-6.775,3.369c0,0-4.285,12.254-30.631,15.36h121.134
				c5.808,0,11.089-2.63,13.549-6.744l27.137-45.358H79.54l6.739-11.263c1.229-2.056,3.868-3.371,6.773-3.371h72.768
				C168.721,106.597,171.361,105.284,172.593,103.226"/>
		</g>
	</g>
</g>
</svg>
