<?xml version="1.0" encoding="utf-8"?>
<!-- Generator: Adobe Illustrator 16.0.0, SVG Export Plug-In . SVG Version: 6.00 Build 0)  -->
<!DOCTYPE svg PUBLIC "-//W3C//DTD SVG 1.1//EN" "http://www.w3.org/Graphics/SVG/1.1/DTD/svg11.dtd">
<svg version="1.1" id="Layer_1" xmlns="http://www.w3.org/2000/svg" xmlns:xlink="http://www.w3.org/1999/xlink" x="0px" y="0px"
	 width="952.223px" height="338.086px" viewBox="0 0 952.223 338.086" enable-background="new 0 0 952.223 338.086"
	 xml:space="preserve">
<text transform="matrix(1 0 0 1 -776.3896 -1368.1455)" font-family="'PervitinaDex'" font-size="26.4562">UP TO</text>
<text transform="matrix(1 0 0 1 -999.2842 -1124.3999)" font-family="'PervitinaDex'" font-size="53.6075">DISCOUNT</text>
<text transform="matrix(0.9945 0 -0.1045 0.9945 -988.624 -1189.7505)"><tspan x="0" y="0" fill="#990000" font-family="'speedhunterline'" font-size="190.2169">60</tspan><tspan x="218.745" y="0" fill="#990000" font-family="'speedhunterline'" font-size="91.7239">%</tspan></text>
<rect x="-1263.53" y="-53.187" fill="#990000" width="643.063" height="112.359"/>
<polygon fill="#990000" points="-1262.53,113.152 -1382.36,113.152 -1354.261,60.229 -1382.36,2.993 -1262.53,2.993 "/>
<polygon fill="#990000" points="-620.592,113.152 -500.762,113.152 -528.861,60.229 -500.762,2.993 -620.592,2.993 "/>
<polygon points="-1262.53,59.173 -1262.53,113.152 -1206.261,59.173 "/>
<polygon points="-620.592,59.173 -620.592,113.152 -676.861,59.173 "/>
<text transform="matrix(1 0 0 1 -1245.1538 26.5938)" fill="#FFFFFF" font-family="'Cairo-Black'" font-size="80">CLEARANCE SALE</text>
<g>
	<polygon fill="#990000" points="-440.847,233.813 -1164.486,233.813 -1164.486,346.173 -440.847,346.173 -475.436,292.193 	"/>
</g>
<g>
	<path fill="#FFFFFF" d="M-1100.917,313.674c-3.12-1.973-5.267-4.92-6.44-8.84c-1.174-3.92-1.76-9.16-1.76-15.721
		c0-7.68,0.68-13.547,2.04-17.6c1.36-4.053,3.48-6.854,6.36-8.4s6.88-2.32,12-2.32c5.226,0,10.933,0.801,17.12,2.4l-0.4,11.199
		c-5.014-0.691-9.068-1.039-12.16-1.039c-2.828,0-4.988,0.439-6.48,1.32c-1.494,0.879-2.52,2.268-3.08,4.16s-0.84,4.572-0.84,8.039
		c0,1.76,0.026,3.121,0.08,4.08c0.16,3.947,0.48,6.801,0.96,8.561s1.333,2.959,2.56,3.6c1.227,0.641,3.2,0.961,5.92,0.961
		c3.68,0,8.026-0.293,13.04-0.881l0.24,11.52c-5.76,1.281-11.014,1.92-15.76,1.92
		C-1093.331,316.633-1097.797,315.646-1100.917,313.674z"/>
	<path fill="#FFFFFF" d="M-1032.238,303.033v12.561h-31.28v-53.76h14.24v41.199H-1032.238z"/>
	<path fill="#FFFFFF" d="M-1011.918,274.232v8.4h17.12v12.16h-17.12v8.4h21.92v12.4h-36.16v-53.76h36.16v12.398H-1011.918z"/>
	<path fill="#FFFFFF" d="M-955.039,308.713h-15.68l-1.04,6.881h-14.4l10.32-53.76h25.92l10.32,53.76h-14.4L-955.039,308.713z
		 M-961.119,273.514h-3.52l-3.68,22.879h10.88L-961.119,273.514z"/>
	<path fill="#FFFFFF" d="M-933.28,261.834h21.52c6.72,0,11.772,1.572,15.16,4.719c3.386,3.148,5.08,7.787,5.08,13.92
		c0,6.135-2.188,11.281-6.56,15.441l5.84,19.68h-15.6l-3.92-16.24h-7.28v16.24h-14.24V261.834z M-911.52,287.193
		c1.706,0,3.026-0.652,3.96-1.961c0.933-1.305,1.4-2.893,1.4-4.76c0-1.813-0.52-3.359-1.56-4.639c-1.04-1.281-2.387-1.92-4.04-1.92
		h-7.28v13.279H-911.52z"/>
	<path fill="#FFFFFF" d="M-857.36,308.713h-15.68l-1.041,6.881h-14.399l10.319-53.76h25.921l10.319,53.76h-14.399L-857.36,308.713z
		 M-863.44,273.514h-3.52l-3.681,22.879h10.88L-863.44,273.514z"/>
	<path fill="#FFFFFF" d="M-789.922,261.834v53.76h-22.8l-8.641-41.041v41.041h-14.239v-53.76h23.359l7.92,39.76v-39.76H-789.922z"/>
	<path fill="#FFFFFF" d="M-773.321,313.674c-3.12-1.973-5.268-4.92-6.44-8.84c-1.174-3.92-1.76-9.16-1.76-15.721
		c0-7.68,0.68-13.547,2.04-17.6c1.359-4.053,3.479-6.854,6.359-8.4c2.881-1.547,6.881-2.32,12-2.32c5.227,0,10.933,0.801,17.12,2.4
		l-0.399,11.199c-5.014-0.691-9.067-1.039-12.16-1.039c-2.827,0-4.987,0.439-6.48,1.32c-1.493,0.879-2.52,2.268-3.08,4.16
		c-0.56,1.893-0.84,4.572-0.84,8.039c0,1.76,0.026,3.121,0.08,4.08c0.16,3.947,0.48,6.801,0.96,8.561
		c0.48,1.76,1.333,2.959,2.561,3.6c1.226,0.641,3.2,0.961,5.92,0.961c3.68,0,8.026-0.293,13.04-0.881l0.24,11.52
		c-5.761,1.281-11.015,1.92-15.761,1.92C-765.735,316.633-770.201,315.646-773.321,313.674z"/>
	<path fill="#FFFFFF" d="M-721.683,274.232v8.4h17.12v12.16h-17.12v8.4h21.92v12.4h-36.159v-53.76h36.159v12.398H-721.683z"/>
	<path fill="#FFFFFF" d="M-673.284,314.393l-2.88-0.639l1.439-10.881c7.04,0.961,12.48,1.439,16.32,1.439
		c4.16,0,6.24-1.439,6.24-4.318c0-1.014-0.468-1.813-1.4-2.4c-0.934-0.586-2.308-1.227-4.12-1.92
		c-1.174-0.428-2.027-0.773-2.56-1.041c-6.027-2.025-10.308-4.346-12.84-6.959c-2.534-2.613-3.8-5.893-3.8-9.84
		c0-5.602,1.706-9.84,5.119-12.721s8.053-4.32,13.921-4.32c2.399,0,4.68,0.16,6.84,0.48s6.12,1.014,11.88,2.08l-1.12,11.039
		c-6.934-0.799-12.268-1.199-16-1.199c-4.374,0-6.56,1.199-6.56,3.6c0,0.801,0.532,1.48,1.6,2.041
		c1.066,0.559,2.746,1.268,5.04,2.119c2.346,0.854,3.866,1.439,4.56,1.76c3.521,1.439,6.24,2.84,8.16,4.201
		c1.92,1.359,3.307,3,4.16,4.92c0.853,1.92,1.28,4.348,1.28,7.279c0,3.734-0.868,6.92-2.601,9.561c-1.733,2.639-4.08,4.639-7.04,6
		c-2.96,1.359-6.279,2.039-9.96,2.039C-662.191,316.713-667.418,315.939-673.284,314.393z"/>
	<path fill="#FFFFFF" d="M-604.084,308.713h-15.68l-1.04,6.881h-14.4l10.32-53.76h25.92l10.319,53.76h-14.399L-604.084,308.713z
		 M-610.164,273.514h-3.52l-3.681,22.879h10.88L-610.164,273.514z"/>
	<path fill="#FFFFFF" d="M-551.046,303.033v12.561h-31.279v-53.76h14.239v41.199H-551.046z"/>
	<path fill="#FFFFFF" d="M-530.726,274.232v8.4h17.12v12.16h-17.12v8.4h21.92v12.4h-36.159v-53.76h36.159v12.398H-530.726z"/>
</g>
<g>
	<path fill="#FFD700" d="M-602.298-326.803c-221.772-65.028-457.698-64.939-679.431,0.267
		c-10.566-35.933-21.131-71.864-31.697-107.797c242.395-71.282,500.303-71.379,742.74-0.29
		C-581.224-398.683-591.761-362.743-602.298-326.803z"/>
	<path fill="#FFD700" d="M-1265.513-275.039c-39.477,11.57-78.484,25.301-116.847,41.191c2.245-20.024,4.939-40.102,8.084-60.214
		c-16.333-14.157-33.083-28.016-50.24-41.56c42.032-17.41,84.77-32.454,128.022-45.132
		C-1286.167-345.515-1275.84-310.277-1265.513-275.039z"/>
	<path d="M-1280.695-326.84c5.061,17.267,10.121,34.533,15.182,51.801c13.477-22.701,27.926-45.18,43.343-67.369
		C-1241.774-337.718-1261.289-332.528-1280.695-326.84z"/>
	<path fill="#FFD700" d="M-617.608-275.039c39.477,11.57,78.483,25.301,116.847,41.191c-2.245-20.024-4.938-40.102-8.084-60.214
		c16.333-14.157,33.083-28.016,50.24-41.56c-42.032-17.41-84.77-32.454-128.022-45.132
		C-596.954-345.515-607.282-310.277-617.608-275.039z"/>
	<path d="M-602.428-326.84c-5.06,17.267-10.12,34.533-15.181,51.801c-13.478-22.7-27.927-45.179-43.344-67.369
		C-641.348-337.718-621.833-332.528-602.428-326.84z"/>
	<g>
		<path fill="#000113" d="M-1259.773-368.498c-3.844-1.021-6.914-3.241-9.204-6.682c-2.291-3.439-4.308-8.319-6.038-14.648
			c-2.025-7.407-2.829-13.271-2.386-17.591c0.441-4.318,2.067-7.66,4.879-10.007c2.811-2.346,7.083-4.268,12.808-5.721
			c5.843-1.483,12.429-2.286,19.724-2.375c0.714,3.667,1.429,7.335,2.146,11.002c-5.723,0.651-10.302,1.422-13.728,2.276
			c-3.134,0.781-5.418,1.816-6.849,3.092c-1.434,1.273-2.22,2.911-2.363,4.903s0.223,4.665,1.093,8.021
			c0.442,1.703,0.812,3.014,1.111,3.927c1.166,3.776,2.229,6.448,3.189,8.018c0.96,1.569,2.182,2.492,3.667,2.773
			c1.485,0.281,3.696,0.047,6.637-0.688c3.979-0.996,8.61-2.438,13.912-4.304c0.976,3.715,1.951,7.43,2.925,11.146
			c-5.892,2.718-11.362,4.726-16.441,6.009C-1250.913-367.775-1255.928-367.478-1259.773-368.498z"/>
		<path fill="#000113" d="M-1187.963-396.146c0.825,4.104,1.649,8.209,2.474,12.314c-11.261,2.262-22.498,4.683-33.708,7.261
			c-4.017-17.464-8.035-34.928-12.052-52.392c5.325-1.225,10.655-2.415,15.991-3.572c2.909,13.422,5.817,26.844,8.727,40.265
			C-1200.349-393.608-1194.159-394.901-1187.963-396.146z"/>
		<path fill="#000113" d="M-1170.927-428.731c0.502,2.755,1.003,5.51,1.505,8.265c6.344-1.155,12.695-2.263,19.052-3.321
			c0.666,3.999,1.331,7.997,1.997,11.995c-6.296,1.049-12.586,2.145-18.869,3.289c0.501,2.755,1.003,5.51,1.505,8.265
			c7.991-1.455,15.993-2.833,24.005-4.132c0.662,4.081,1.323,8.161,1.984,12.241c-13.085,2.121-26.145,4.453-39.173,6.997
			c-3.435-17.588-6.869-35.175-10.304-52.763c13.594-2.654,27.22-5.088,40.874-7.302c0.661,4.08,1.322,8.159,1.984,12.239
			C-1154.564-431.63-1162.751-430.221-1170.927-428.731z"/>
		<path fill="#000113" d="M-1102.617-404.512c-5.726,0.746-11.447,1.533-17.165,2.359c-0.051,2.325-0.1,4.649-0.146,6.975
			c-5.221,0.76-10.438,1.553-15.651,2.379c0.929-18.291,2.021-36.591,3.279-54.896c9.801-1.463,19.616-2.812,29.441-4.048
			c6.148,17.288,12.136,34.614,17.962,51.977c-5.236,0.61-10.468,1.253-15.698,1.931
			C-1101.266-400.063-1101.94-402.287-1102.617-404.512z M-1114.016-438.504c-1.321,0.18-2.642,0.361-3.962,0.545
			c-0.33,7.745-0.635,15.489-0.915,23.232c4.007-0.57,8.017-1.121,12.028-1.653C-1109.224-423.76-1111.608-431.135-1114.016-438.504
			z"/>
		<path fill="#000113" d="M-1083.924-453.982c8.168-0.905,16.343-1.732,24.523-2.481c7.665-0.701,13.568,0.402,17.663,3.238
			c4.098,2.839,6.35,7.329,6.798,13.444c0.449,6.12-1.63,11.426-6.158,15.957c2.682,6.368,5.331,12.744,7.945,19.128
			c-5.689,0.422-11.376,0.883-17.061,1.384c-1.903-5.268-3.825-10.529-5.766-15.788c-2.687,0.246-5.373,0.501-8.059,0.764
			c0.529,5.388,1.057,10.775,1.585,16.163c-5.186,0.509-10.368,1.05-15.548,1.624
			C-1079.976-418.361-1081.95-436.172-1083.924-453.982z M-1056.819-431.234c1.907-0.175,3.324-0.955,4.256-2.351
			c0.931-1.391,1.318-3.019,1.158-4.878c-0.157-1.806-0.875-3.297-2.161-4.469c-1.285-1.173-2.865-1.674-4.733-1.502
			c-2.741,0.251-5.482,0.511-8.222,0.779c0.432,4.405,0.864,8.811,1.296,13.216
			C-1062.424-430.713-1059.622-430.979-1056.819-431.234z"/>
		<path fill="#000113" d="M-995.258-413.81c-5.759,0.248-11.516,0.537-17.271,0.865c-0.251,2.312-0.5,4.623-0.747,6.936
			c-5.256,0.305-10.511,0.643-15.763,1.015c2.499-18.142,5.162-36.277,7.989-54.406c9.87-0.607,19.746-1.103,29.624-1.484
			c4.625,17.755,9.086,35.534,13.384,53.335c-5.261,0.155-10.521,0.344-15.78,0.565C-994.298-409.26-994.777-411.535-995.258-413.81
			z M-1003.663-448.66c-1.329,0.064-2.658,0.131-3.986,0.199c-0.996,7.688-1.967,15.377-2.913,23.066
			c4.034-0.221,8.068-0.424,12.103-0.605C-1000.169-433.558-1001.904-441.11-1003.663-448.66z"/>
		<path fill="#000113" d="M-920.143-461.669c-0.297,17.917-0.594,35.835-0.892,53.752c-8.332-0.138-16.665-0.191-24.997-0.161
			c-3.208-13.669-6.519-27.326-9.936-40.969c0.154,13.68,0.308,27.359,0.462,41.039c-5.204,0.059-10.407,0.149-15.61,0.273
			c-0.428-17.914-0.855-35.829-1.283-53.744c8.906-0.213,17.813-0.333,26.721-0.361c3.063,13.243,6.032,26.498,8.908,39.763
			c0.051-13.254,0.102-26.507,0.152-39.76C-931.125-461.816-925.634-461.76-920.143-461.669z"/>
		<path fill="#000113" d="M-902.777-409.4c-3.363-2.078-5.647-5.085-6.844-9.038c-1.197-3.951-1.725-9.205-1.568-15.764
			c0.184-7.678,1.089-13.526,2.739-17.537c1.647-4.012,4.143-6.747,7.482-8.189s7.948-2.061,13.805-1.814
			c5.979,0.252,12.475,1.368,19.444,3.369c-0.364,3.719-0.729,7.437-1.091,11.155c-5.635-1.014-10.212-1.585-13.715-1.747
			c-3.203-0.147-5.67,0.189-7.396,1.002c-1.726,0.81-2.939,2.153-3.643,4.021c-0.703,1.868-1.116,4.534-1.244,7.998
			c-0.065,1.759-0.085,3.12-0.061,4.081c0.033,3.951,0.283,6.816,0.749,8.595c0.467,1.778,1.366,3.013,2.698,3.707
			c1.332,0.695,3.501,1.104,6.508,1.24c4.069,0.185,8.887,0.129,14.466-0.143c-0.13,3.839-0.261,7.678-0.392,11.517
			c-6.387,0.918-12.164,1.276-17.359,1.052C-894.562-406.171-899.413-407.321-902.777-409.4z"/>
		<path fill="#000113" d="M-843.104-445.656c-0.215,2.792-0.431,5.584-0.646,8.375c6.408,0.494,12.813,1.037,19.216,1.629
			c-0.373,4.037-0.746,8.072-1.119,12.109c-6.341-0.586-12.686-1.124-19.032-1.614c-0.216,2.792-0.431,5.584-0.646,8.376
			c8.073,0.623,16.142,1.324,24.204,2.104c-0.398,4.114-0.796,8.229-1.194,12.343c-13.168-1.273-26.353-2.335-39.547-3.186
			c1.153-17.883,2.306-35.766,3.459-53.648c13.768,0.888,27.524,1.995,41.265,3.324c-0.398,4.113-0.796,8.228-1.194,12.341
			C-826.589-444.302-834.844-445.02-843.104-445.656z"/>
		<path fill="#000113" d="M-793.277-400.39c-1.022-0.338-2.046-0.674-3.069-1.009c0.948-3.541,1.902-7.08,2.859-10.618
			c7.644,1.879,13.558,3.136,17.777,3.699c4.57,0.613,7.053-0.487,7.452-3.34c0.141-1.004-0.264-1.866-1.214-2.592
			c-0.951-0.723-2.381-1.566-4.294-2.523c-1.241-0.599-2.142-1.066-2.697-1.41c-6.41-2.889-10.885-5.771-13.396-8.707
			c-2.512-2.936-3.55-6.355-3.091-10.277c0.651-5.563,3.067-9.551,7.291-11.939c4.22-2.388,9.688-3.155,16.361-2.26
			c2.73,0.366,5.299,0.883,7.709,1.545c2.409,0.663,6.811,1.984,13.177,4.024c-0.974,3.574-1.944,7.149-2.911,10.726
			c-7.67-1.96-13.622-3.189-17.825-3.762c-4.926-0.667-7.544,0.21-7.852,2.588c-0.102,0.794,0.406,1.546,1.532,2.259
			c1.123,0.711,2.913,1.663,5.364,2.854c2.511,1.203,4.13,2.021,4.859,2.447c3.733,1.977,6.563,3.804,8.5,5.466
			c1.938,1.659,3.234,3.515,3.893,5.556c0.656,2.041,0.763,4.513,0.32,7.411c-0.563,3.692-1.996,6.694-4.281,9.021
			c-2.288,2.325-5.136,3.925-8.553,4.809c-3.415,0.884-7.117,1.051-11.12,0.513C-781.476-396.581-787.062-398.083-793.277-400.39z"
			/>
		<path fill="#000113" d="M-716.974-394.553c-5.69-1.044-11.387-2.047-17.087-3.01c-0.76,2.197-1.519,4.396-2.273,6.595
			c-5.208-0.875-10.419-1.717-15.635-2.524c6.481-17.13,13.123-34.217,19.924-51.26c9.784,1.607,19.555,3.328,29.309,5.162
			c0.571,18.342,0.978,36.671,1.221,54.985c-5.186-1.024-10.377-2.016-15.572-2.974
			C-717.048-389.902-717.01-392.228-716.974-394.553z M-717.435-430.404c-1.314-0.234-2.629-0.466-3.944-0.695
			c-2.686,7.273-5.348,14.553-7.985,21.838c3.993,0.684,7.984,1.387,11.973,2.109C-717.381-414.901-717.396-422.651-717.435-430.404
			z"/>
		<path fill="#000113" d="M-658.15-388.127c-0.949,4.078-1.897,8.156-2.846,12.234c-11.205-2.606-22.437-5.054-33.693-7.344
			c3.572-17.561,7.145-35.12,10.717-52.681c5.347,1.087,10.688,2.209,16.022,3.365c-2.907,13.421-5.815,26.843-8.724,40.265
			C-670.491-390.947-664.317-389.561-658.15-388.127z"/>
		<path fill="#000113" d="M-629.097-410.723c-0.684,2.715-1.367,5.431-2.051,8.146c6.273,1.579,12.539,3.208,18.795,4.885
			c-1.049,3.915-2.1,7.83-3.148,11.746c-6.195-1.661-12.401-3.274-18.616-4.839c-0.684,2.715-1.367,5.431-2.051,8.146
			c7.904,1.989,15.794,4.059,23.667,6.205c-1.087,3.988-2.175,7.977-3.262,11.964c-12.86-3.507-25.763-6.802-38.703-9.886
			c4.154-17.433,8.309-34.864,12.463-52.296c13.502,3.218,26.965,6.656,40.383,10.315c-1.088,3.987-2.175,7.975-3.262,11.962
			C-612.938-406.57-621.01-408.687-629.097-410.723z"/>
	</g>
</g>
<g>
	<path fill="#FFD700" d="M161.12-612.443c-34.819,0-61.229-21.901-65.717-54.498l-0.508-3.678l8.24-28.24l10.275-35.399
		l6.438-23.278l2.458-7.621l6.117-21.558h9.936l4.477-15.492l0.646-2.981l13.029-44.674c12.479-42.986,56.014-76.675,99.107-76.675
		h59.878c34.817,0,61.228,21.899,65.718,54.496l0.493,3.568l-7.935,28.48l-7.769,25.88h-46.53
		c14.328,9.177,24.225,23.889,27.122,42.048l3.212,20.131h-12.584c-0.509,4.421-1.407,8.953-2.691,13.578l-4.154,13.842
		l-10.266,35.373c-12.068,42.945-55.624,76.698-99.116,76.698H161.12z M170.029-704.475c-7.16,23.981-6.776,31.569-5.193,33.711
		l0.185,0.251l0.178,0.259c0.082,0.102,1.706,1.315,8.075,1.315h52.638c18.257,0,28.528-11.781,37.893-43.469l10.88-38.015
		c1.094-3.818,1.742-9.283-1.24-13.954c-2.571-3.139-6.276-4.666-11.313-4.666h-65.802l-3.255,11.185h-7.821L170.029-704.475z
		 M266.882-824.55l5.773-18.515h-9.98c-2.396,0-6.944,3.053-8.024,6.814l-3.389,11.701H266.882z"/>
</g>
<g>
	<path fill="#FFD700" d="M174.415-645.014c-13.093,0-22.639-4.081-28.38-12.132c-9.667-13.172-5.522-31.902,0.897-54.99
		l20.203-69.646h7.788l3.148-11.185h82.918c12.627,0,23.961,5.375,31.101,14.748l0.363,0.497c6.727,9.509,8.565,22.188,5.048,34.784
		l-10.95,38.271c-8.55,29.523-22.289,59.652-59.5,59.652H174.415z M213.942-695.916c2.881,0,7.3-3.144,8.353-6.813l8.956-31.742
		l2.063-6.607h-15.245c-0.259,0-0.567,0.036-0.917,0.115l-4.518,16.329l-8.403,28.719H213.942z"/>
</g>
<g>
	<path fill="#FFD700" d="M357.886-612.772c-22.085,0-40.873-8.757-52.9-24.658c-12.381-16.363-15.818-38.703-9.435-61.289
		l25.388-87.996h9.861l18.148-63.085c12.523-42.875,56.039-76.407,99.092-76.407h45.732c22.352,0,41.283,8.833,53.307,24.87
		c12.286,16.387,15.562,38.701,8.987,61.219l-25.371,88.185h-9.881l-18.11,62.768c-12.516,42.86-56.031,76.395-99.086,76.395
		H357.886z M361.923-675.849c3.576,4.805,12.26,7.24,25.813,7.24h5.924c43.42,0,48.538-18.271,55.624-43.56l20.189-69.614h7.911
		l15.406-52.937c3.568-12.724,3.445-22.725-0.396-28c-4.803-6.597-15.97-7.98-24.49-7.98h-5.92
		c-43.266,0-48.188,17.351-55.643,43.614l-20.154,69.229h-7.885l-15.448,53.253C357.847-687.017,359.563-679.252,361.923-675.849z"
		/>
</g>
<g>
	<path fill="#FFD700" d="M388.911-645.014c-22.654,0-37.715-5.749-46.045-17.574c-10.738-15.244-6.744-35.61-2.805-49.603
		l20.186-69.592h7.91l15.382-52.852c7.452-26.605,16.772-59.662,77.269-59.662h5.921c20.886,0,35.839,6.037,44.453,17.943
		c8.764,11.724,10.246,28.274,4.405,49.196l-20.174,69.3h-7.884l-15.446,53.252c-7.415,26.466-16.696,59.592-77.248,59.592H388.911z
		 M398.714-702.502c1.661-1.273,3.164-3.039,3.716-4.924l12.792-44.509h-2.303L398.714-702.502z M435.124-786.716l14.587-50.211
		c-1.659,1.243-3.153,3.005-3.716,4.959l-13.144,45.252H435.124z"/>
</g>
<g>
	<path fill="#FFD700" d="M523.116-684.158c-10.096,0-19.07-4.209-24.629-11.546c-5.296-6.991-6.899-16.1-4.397-24.99l8.663-29.655
		h4.734l1.332-4.59c4.315-15.324,20.348-26.979,37.254-26.979h11.739c10.039,0,18.964,4.181,24.486,11.471
		c5.298,6.993,6.894,16.13,4.38,25.065l-8.658,29.814h-4.617l-1.301,4.457c-4.311,15.297-20.343,26.953-37.248,26.953H523.116z"/>
</g>
<g>
	<polygon fill="#FFD700" points="459.957,-612.772 535.661,-714.816 540.438,-714.816 590.499,-782.078 665.647,-782.078 
		589.459,-680.035 584.7,-680.035 534.484,-612.772 	"/>
</g>
<g>
	<path fill="#FFD700" d="M562.884-612.772c-10.097,0-19.074-4.209-24.631-11.548c-5.295-6.993-6.895-16.104-4.391-24.995
		l8.652-29.806h4.782l1.282-4.391c4.412-15.504,20.42-27.18,37.283-27.18h11.738c10.138,0,19.129,4.272,24.667,11.726
		c5.261,7.076,6.768,16.219,4.146,25.105l-8.348,29.521h-4.854l-1.332,4.589c-4.314,15.322-20.349,26.979-37.258,26.979H562.884z"/>
</g>
<g>
	<path fill="#FFD700" d="M530.31-692.249c-8.902,0-16.766-3.723-21.572-10.212l-0.336-0.454l-0.307-0.475
		c-4.044-6.274-5.099-13.654-2.977-20.805l7.077-24.887h5.561l0.425-1.492c3.599-12.782,16.9-22.461,30.926-22.461h1.587
		c8.865,0,16.854,3.988,21.437,10.684c4.312,6.187,5.499,13.842,3.271,21.089l-7.08,24.266h-5.389l-0.643,2.281
		c-3.974,13.018-17.156,22.466-31.344,22.466H530.31z"/>
</g>
<g>
	<path fill="#FFD700" d="M570.271-621.18c-8.815,0-16.674-3.78-21.556-10.372l-0.188-0.258c-4.402-6.175-5.65-13.99-3.436-21.47
		l7.085-24.891h5.565l0.421-1.415c3.725-13.073,16.691-22.54,30.921-22.54h1.587c8.865,0,16.853,3.987,21.433,10.684
		c4.283,6.144,5.477,13.837,3.279,21.172l-7.102,24.342h-5.413l-0.575,2.04c-3.883,12.946-17.376,22.708-31.387,22.708H570.271z"/>
</g>
<path fill="#000113" d="M-14.359-877.733H1.378c2.912,0,5.174-0.574,6.784-1.726c1.612-1.15,2.998-3.166,4.165-6.049l9.753-24.109
	c0.368-0.829,0.122-1.242-0.735-1.242h-7.223c-0.768,0-1.335,0.413-1.704,1.242l-9.201,22.729c-0.092,0.307-0.308,0.46-0.644,0.46
	H-8.47c-0.276,0-0.368-0.153-0.276-0.46l9.155-22.729c0.369-0.829,0.14-1.242-0.689-1.242h-7.269c-0.768,0-1.335,0.413-1.704,1.242
	l-9.753,24.109c-0.89,2.177-0.883,4.018,0.024,5.521C-18.079-878.484-16.536-877.733-14.359-877.733z"/>
<path fill="#000113" d="M15.777-877.733h7.224c0.859,0,1.441-0.397,1.749-1.196l9.109-22.82c0.122-0.277,0.337-0.415,0.644-0.415
	h10.03c0.306,0,0.399,0.138,0.277,0.415l-2.438,6.073c-0.125,0.275-0.34,0.415-0.646,0.415h-7.086c-0.521,0-0.882,0.068-1.08,0.205
	c-0.2,0.14-0.407,0.469-0.621,0.99l-2.348,5.89c-0.366,0.827-0.138,1.242,0.689,1.242h9.48c2.882,0,5.129-0.576,6.739-1.726
	c1.609-1.15,2.999-3.167,4.164-6.049l3.359-8.329c0.888-2.177,0.879-4.018-0.024-5.521c-0.905-1.503-2.445-2.253-4.622-2.253H29.121
	c-0.798,0-1.352,0.399-1.657,1.196l-12.377,30.688C14.72-878.131,14.948-877.733,15.777-877.733z"/>
<path fill="#000113" d="M67.997-902.164h28.895c0.828,0,1.396-0.399,1.701-1.197l2.531-6.256c0.369-0.829,0.121-1.242-0.736-1.242
	H71.494c-0.768,0-1.335,0.413-1.701,1.242l-2.53,6.256C66.955-902.563,67.199-902.164,67.997-902.164z"/>
<path fill="#000113" d="M76.187-877.733c0.767,0,1.335-0.415,1.704-1.242l8.098-20.015c0.306-0.796,0.061-1.196-0.737-1.196h-7.223
	c-0.827,0-1.396,0.399-1.704,1.196l-8.098,20.015c-0.366,0.827-0.122,1.242,0.737,1.242H76.187z"/>
<path fill="#000113" d="M92.567-885.508c-0.891,2.177-0.883,4.018,0.021,5.521c0.906,1.503,2.445,2.254,4.625,2.254h5.566
	c0.767,0,1.336-0.415,1.703-1.242l2.529-6.258c0.307-0.796,0.062-1.196-0.736-1.196h-3.173c-0.276,0-0.37-0.153-0.276-0.46
	l5.979-14.814c0.093-0.308,0.308-0.46,0.646-0.46h10.902c0.277,0,0.371,0.153,0.277,0.46l-5.979,14.814
	c-0.094,0.307-0.31,0.46-0.646,0.46h-3.176c-0.797,0-1.349,0.399-1.654,1.196l-2.53,6.258c-0.37,0.827-0.14,1.242,0.689,1.242h5.476
	c2.882,0,5.135-0.574,6.763-1.726c1.625-1.15,3.021-3.166,4.188-6.049l7.129-17.576c0.891-2.177,0.883-4.018-0.021-5.521
	c-0.906-1.503-2.461-2.254-4.671-2.254h-15.596c-2.884,0-5.132,0.574-6.742,1.726c-1.61,1.15-2.997,3.167-4.165,6.049
	L92.567-885.508z"/>
<path fill="#000113" d="M190.784-579.069c-1.834-3.046-4.957-4.569-9.369-4.569h-41.486c-1.555,0-2.704,0.84-3.449,2.518
	l-25.08,62.091c-0.743,1.678-0.278,2.517,1.4,2.517h14.544c1.552,0,2.704-0.839,3.447-2.517l18.647-46.056
	c0.186-0.619,0.619-0.932,1.305-0.932h18.926c0.558,0,0.744,0.313,0.558,0.932l-12.211,30.02c-0.187,0.622-0.622,0.933-1.306,0.933
	h-13.053c-1.616,0-2.735,0.809-3.355,2.424l-5.129,12.68c-0.744,1.678-0.278,2.517,1.399,2.517h17.714
	c5.84,0,10.394-1.165,13.658-3.497c3.262-2.33,6.072-6.416,8.437-12.259l14.449-35.613
	C192.634-572.295,192.617-576.022,190.784-579.069z"/>
<path fill="#000113" d="M224.858-583.639h-14.731c-1.553,0-2.704,0.84-3.448,2.518l-25.078,62.091
	c-0.746,1.678-0.281,2.517,1.397,2.517h14.731c1.552,0,2.703-0.839,3.447-2.517l25.081-62.091
	C227.001-582.799,226.536-583.639,224.858-583.639z"/>
<path fill="#000113" d="M273.24-557.533h-26.474c-0.873,0-1.121-0.404-0.748-1.213l2.984-7.459c0.311-0.807,0.9-1.211,1.771-1.211
	h21.348c0.809,0,1.026,0.404,0.652,1.211l-0.839,2.238c-0.499,1.059-0.187,1.585,0.935,1.585h15.102
	c0.994,0,1.738-0.526,2.238-1.585l1.77-4.381c1.678-4.289,1.646-7.909-0.092-10.861c-1.742-2.952-4.756-4.43-9.045-4.43h-29.738
	c-5.533,0-9.928,1.165-13.192,3.497c-3.261,2.33-6.013,6.262-8.251,11.794l-4.286,10.44c-1.678,4.288-1.647,7.909,0.092,10.861
	c1.739,2.953,4.755,4.429,9.044,4.429h26.475c0.869,0,1.121,0.404,0.747,1.211l-2.981,7.459c-0.313,0.809-0.904,1.211-1.773,1.211
	h-22.28c-0.809,0-1.026-0.402-0.654-1.211l0.839-2.238c0.498-1.057,0.188-1.584-0.931-1.584h-15.103
	c-0.996,0-1.741,0.527-2.237,1.584l-1.772,4.382c-1.739,4.288-1.725,7.911,0.047,10.862c1.771,2.952,4.802,4.428,9.09,4.428h30.672
	c5.469,0,9.836-1.165,13.098-3.497c3.264-2.33,6.042-6.26,8.346-11.793l4.286-10.441c1.678-4.288,1.647-7.907-0.092-10.86
	C280.543-556.058,277.53-557.533,273.24-557.533z"/>
<path fill="#000113" d="M342.044-534.134H310.72c-0.562,0-0.748-0.311-0.562-0.933l12.121-29.926
	c0.311-0.683,0.747-1.025,1.306-1.025h31.417c1.615,0,2.734-0.808,3.356-2.424l5.129-12.68c0.619-1.678,0.154-2.518-1.399-2.518
	h-37.384c-5.844,0-10.396,1.165-13.658,3.497c-3.266,2.33-6.078,6.418-8.438,12.259l-14.449,35.613
	c-1.804,4.414-1.787,8.144,0.048,11.188c1.83,3.047,4.955,4.568,9.367,4.568h37.386c1.552,0,2.703-0.839,3.449-2.517l5.127-12.68
	C344.157-533.325,343.659-534.134,342.044-534.134z"/>
<path fill="#000113" d="M428.421-579.069c-1.834-3.046-4.988-4.569-9.463-4.569h-31.604c-5.844,0-10.396,1.165-13.657,3.497
	c-3.265,2.33-6.077,6.418-8.438,12.259l-14.451,35.613c-1.804,4.414-1.787,8.144,0.047,11.188c1.833,3.047,4.956,4.568,9.368,4.568
	h11.282c1.553,0,2.703-0.839,3.449-2.517l5.127-12.68c0.62-1.615,0.124-2.424-1.49-2.424h-6.434c-0.559,0-0.746-0.311-0.559-0.933
	l12.119-30.02c0.187-0.619,0.619-0.932,1.304-0.932h22.096c0.561,0,0.745,0.313,0.561,0.932l-12.121,30.02
	c-0.186,0.622-0.622,0.933-1.305,0.933h-6.433c-1.617,0-2.736,0.809-3.356,2.424l-5.127,12.68c-0.745,1.678-0.28,2.517,1.397,2.517
	h11.096c5.84,0,10.408-1.165,13.703-3.497c3.293-2.33,6.121-6.416,8.483-12.259l14.451-35.613
	C430.269-572.295,430.253-576.022,428.421-579.069z"/>
<path fill="#000113" d="M506.03-583.639h-14.636c-1.556,0-2.704,0.84-3.451,2.518L469.3-535.066
	c-0.188,0.622-0.624,0.933-1.307,0.933H445.62c-0.561,0-0.748-0.311-0.561-0.933l18.553-46.055c0.745-1.678,0.279-2.518-1.398-2.518
	h-14.731c-1.554,0-2.703,0.84-3.449,2.518l-19.763,48.852c-1.804,4.414-1.789,8.144,0.045,11.188
	c1.833,3.047,4.956,4.568,9.37,4.568h31.884c5.904,0,10.488-1.165,13.752-3.497c3.263-2.33,6.073-6.416,8.438-12.259l19.764-48.852
	C508.268-582.799,507.77-583.639,506.03-583.639z"/>
<path fill="#000113" d="M580.334-583.639h-14.638c-1.554,0-2.704,0.84-3.449,2.518l-12.119,29.926
	c-0.063,0.374-0.188,0.561-0.374,0.561c-0.124,0-0.185-0.124-0.185-0.373l-10.443-30.952c-0.372-1.118-1.211-1.679-2.517-1.679
	H521.88c-1.555,0-2.704,0.84-3.449,2.518l-25.08,62.091c-0.745,1.678-0.278,2.517,1.4,2.517h14.729c1.553,0,2.704-0.839,3.45-2.517
	l12.119-30.02c0.187-0.374,0.311-0.56,0.373-0.56c0.124,0,0.218,0.124,0.28,0.372l10.348,31.046
	c0.374,1.119,1.213,1.678,2.518,1.678h14.638c1.615,0,2.796-0.839,3.541-2.517l25.079-62.091
	C582.571-582.799,582.073-583.639,580.334-583.639z"/>
<path fill="#000113" d="M646.897-583.639h-58.547c-1.555,0-2.704,0.84-3.449,2.518l-5.128,12.68
	c-0.621,1.616-0.126,2.424,1.491,2.424h58.549c1.678,0,2.827-0.808,3.449-2.424l5.127-12.68
	C649.135-582.799,648.638-583.639,646.897-583.639z"/>
<path fill="#000113" d="M616.227-562.009h-14.638c-1.678,0-2.828,0.809-3.449,2.424l-16.408,40.555
	c-0.745,1.678-0.249,2.517,1.491,2.517h14.637c1.554,0,2.703-0.839,3.45-2.517l16.408-40.555
	C618.337-561.2,617.842-562.009,616.227-562.009z"/>
<g>
	<path fill="#6609B7" d="M161.12-629.834h3.947h1.977h15.132h5.924h10.196h13.162h9.538c35.532,0,72.429-28.622,82.415-64.154
		l10.312-35.53l4.052-13.487c2.648-9.543,3.251-18.425,1.78-26.319h9.867c-3.569-22.373-21.356-37.834-47.348-37.834h-5.261h-17.438
		h-5.921h-5.924h-15.132h-1.977h-2.303l9.814-33.886c3.112-10.856,14.213-19.411,24.741-19.411c0.328,0,0.328,0,0.657,0h0.986
		h10.198h1.316c0.33,0,0.33,0,0.659,0c10.528,0,16.866,8.555,13.751,19.411l-2.975,9.541h65.798l4.049-13.489l6.871-24.675
		c-3.173-23.028-21.511-39.479-48.49-39.479h-3.947h-1.976h-15.132h-5.923h-10.197h-13.162h-9.541
		c-35.203,0-72.098,28.623-82.411,64.153l-12.858,44.084l-0.642,2.961l-8.271,28.623h-9.871l-2.612,9.211l-2.44,7.565l-6.37,23.03
		l-10.313,35.53l-7.199,24.675C115.802-646.282,134.144-629.834,161.12-629.834z M153.365-709.45l18.762-65.798h7.897l16.475-56.585
		c10.815-37.176,30.258-56.257,57.893-56.257h47.047c11.188,0,18.771,2.961,23.447,8.554c5.265,6.25,6.894,15.792,4.611,31.254
		l-11.117-0.658c1.902-11.843,1.019-19.082-2.185-23.029c-2.944-3.291-8.036-4.935-15.932-4.935h-47.047
		c-22.043,0-37.157,15.463-46.069,47.046l-12.46,43.426h67.443c10.857,0,19.621,4.277,25.405,11.843
		c5.422,7.896,6.98,18.095,3.865,28.952l-10.92,38.161c-8.169,27.635-21.012,55.929-54.57,55.929h-52.638
		c-10.856,0-18.148-2.632-22.427-8.884C143.07-670.957,147.275-689.053,153.365-709.45z"/>
</g>
<g>
	<path fill="#6609B7" d="M174.415-662.404h52.637c21.057,0,32.969-13.159,42.781-47.046l10.92-38.163
		c2.111-7.565,1.227-14.803-2.496-20.068c-3.759-4.934-10.029-7.895-17.267-7.895h-69.747l-3.148,11.185h-7.897l-16.51,56.915
		c-4.759,17.109-8.756,33.228-3.56,40.139C162.414-664.049,167.177-662.404,174.415-662.404z M186.702-697.936l9.24-31.583
		l6.369-23.03c4.658-3.617,10.162-5.921,15.757-5.921c0.329,0,2.962,0,5.594,0h5.921h8.553c10.132,0.659,15.846,8.883,12.766,19.41
		l-2.977,9.541l-8.913,31.583c-3.114,10.857-14.212,19.41-25.069,19.41h-0.329h-1.315h-10.199h-1.316h-0.329
		C189.598-678.525,183.589-687.078,186.702-697.936z"/>
</g>
<g>
	<path fill="#6609B7" d="M334.021-769.325l-21.735,75.337c-9.951,35.203,10.398,63.824,45.6,63.824h45.732
		c35.203,0,72.098-28.621,82.376-63.824l21.738-75.337h9.87l21.77-75.668c10.278-35.202-10.07-63.824-45.6-63.824H448.04
		c-35.203,0-72.098,28.622-82.379,63.824l-21.77,75.668H334.021z M365.239-775.248h7.897l16.474-56.585
		c7.844-27.635,16.114-56.257,72.373-56.257h5.92c18.424,0,31.361,5.264,38.549,15.134c7.188,9.87,8.298,24.345,3.036,43.098
		l-19.055,65.468h-7.897l-16.508,56.915c-7.374,26.32-16.11,56.259-72.369,56.259h-5.924c-19.737,0-32.743-4.606-39.931-14.475
		c-8.886-12.503-5.306-30.927-1.654-43.758L365.239-775.248z"/>
</g>
<g>
	<path fill="#6609B7" d="M388.911-662.404h5.924c47.047,0,53.171-20.727,60.545-47.046l19.086-65.798h7.896l16.475-56.585
		c4.225-15.134,3.824-26.977-1.664-34.215c-5.164-7.238-15.639-10.857-30.444-10.857h-5.921c-47.047,0-53.174,20.727-60.545,47.046
		l-19.056,65.468h-7.897l-16.507,56.915c-4.726,16.779-4.586,27.965,0.282,34.873C361.952-665.692,372.79-662.404,388.911-662.404z
		 M380.63-702.541l19.191-66.784h9.87l19.589-67.443c3.118-10.857,14.215-19.41,24.741-19.41c10.529,0,16.868,8.553,13.753,19.41
		l-19.592,67.443h-9.867l-19.194,66.784c-3.081,10.527-14.216,19.41-24.741,19.41C383.524-683.131,377.549-692.014,380.63-702.541z"
		/>
</g>
<g>
	<path fill="#6609B7" d="M534.854-701.55c9.042,0,18.274-6.347,20.553-14.436l4.956-16.974h4.6l4.976-17.133
		c2.275-8.091-3.084-14.437-12.126-14.437h-11.739c-9.041,0-18.273,6.346-20.553,14.437l-4.973,17.133h-4.759l-4.959,16.974
		c-2.275,8.089,3.244,14.436,12.286,14.436H534.854z M520.483-711.227c-1.654-2.379-2.13-5.392-1.321-8.566l4.232-14.595h5.554
		l3.312-11.897c1.967-6.663,9.674-12.057,17.129-12.057h1.587c3.807,0,7.133,1.587,9.086,4.125c1.65,2.38,2.129,5.393,1.334,8.408
		l-4.178,14.118h-5.553l-3.522,12.373c-1.983,6.822-9.867,12.374-17.479,12.374h-0.635
		C525.901-706.943,522.42-708.529,520.483-711.227z"/>
</g>
<g>
	<path fill="#6609B7" d="M599.234-764.688l-50.06,67.262h-4.762l-49.9,67.262h31.253l50.216-67.262h4.759l50.22-67.262H599.234z
		 M565.547-694.728h-4.759l-39.71,53.302l-4.141-2.856l41.401-55.841h4.763l39.163-52.666l4.144,2.856L565.547-694.728z"/>
</g>
<g>
	<path fill="#6609B7" d="M585.862-693.301c-9.045,0-18.295,6.505-20.57,14.596l-4.959,16.975h-4.759l-4.973,17.131
		c-2.279,8.091,3.24,14.436,12.282,14.436h11.738c9.043,0,18.277-6.345,20.557-14.436l4.973-17.131h4.76l4.799-16.975
		c2.436-8.091-3.067-14.596-12.109-14.596H585.862z M600.04-683.306c1.654,2.379,2.129,5.394,1.317,8.566l-4.164,13.96h-5.55
		l-3.522,12.372c-1.987,6.822-9.864,12.374-17.479,12.374h-0.635c-4.124,0-7.622-1.427-9.562-4.123
		c-1.638-2.539-2.113-5.553-1.305-8.727l4.216-14.436h5.55l3.315-11.898c1.97-6.663,9.69-12.215,17.146-12.215h1.587
		C594.761-687.432,598.083-685.845,600.04-683.306z"/>
</g>
<g>
	<path fill="#6609B7" d="M530.945-709.641c6.505,0,13.016-4.601,14.711-10.152l4.072-14.595h5.55l3.472-11.897
		c0.71-2.221,0.31-4.441-0.935-6.187c-1.371-2.063-4.109-3.172-7.122-3.172h-1.587c-6.348,0-12.683,4.442-14.201,9.835
		l-4.021,14.118h-5.553l-3.52,12.373c-0.727,2.381-0.326,4.603,0.9,6.505c1.528,2.063,4.266,3.172,7.598,3.172H530.945z
		 M530.065-720.902l3.488-12.057h4.759l3.522-12.373c0.676-1.904,2.904-3.492,4.969-3.492c2.219,0,3.639,1.588,2.962,3.492
		l-3.519,12.373h-4.762L538-720.902c-0.52,1.902-2.748,3.489-4.97,3.489C530.81-717.413,529.549-719,530.065-720.902z"/>
</g>
<g>
	<path fill="#6609B7" d="M589.085-684.734c-6.344,0-12.683,4.443-14.218,9.995l-4.164,13.96h-5.394l-3.523,12.372
		c-0.723,2.381-0.339,4.761,0.904,6.505c1.528,2.063,4.252,3.332,7.581,3.332h0.636c6.345,0,13.016-4.603,14.728-10.313
		l4.056-14.436h5.55l3.472-11.898c0.727-2.38,0.326-4.601-0.921-6.345c-1.368-2.063-4.106-3.173-7.119-3.173H589.085z
		 M589.697-673.946l-3.506,12.216h-4.759l-3.505,12.214c-0.676,1.904-2.904,3.49-4.97,3.49c-2.218,0-3.638-1.586-2.962-3.49
		l3.502-12.214h4.763l3.502-12.216c0.52-1.906,2.748-3.49,4.969-3.49C588.953-677.437,590.213-675.853,589.697-673.946z"/>
</g>
<g>
	<path d="M-416.566-635.282c0,2.434-1.029,4.536-3.09,6.311c-0.63,0.543-1.316,1.088-2.061,1.631l-9.229,6.653h14.379v6.01h-23.179
		v-8.156l15.452-11.16v-2.146c0-1.718-0.858-2.576-2.574-2.576h-12.02v-6.01h13.735c3.006,0,5.187,0.681,6.548,2.039
		c1.358,1.359,2.037,3.541,2.037,6.547V-635.282z"/>
	<path d="M-388.234-622.834c0,3.005-0.682,5.188-2.04,6.546c-1.359,1.36-3.541,2.039-6.546,2.039h-8.156
		c-3.004,0-5.188-0.679-6.545-2.039c-1.361-1.358-2.04-3.541-2.04-6.546v-13.735c0-3.005,0.679-5.187,2.04-6.547
		c1.357-1.358,3.541-2.038,6.545-2.038h8.156c3.005,0,5.187,0.68,6.546,2.038c1.358,1.36,2.04,3.542,2.04,6.547V-622.834z
		 M-395.962-636.569c0-1.717-0.858-2.576-2.575-2.576h-4.723c-1.717,0-2.575,0.859-2.575,2.576v13.735
		c0,1.718,0.858,2.576,2.575,2.576h4.723c1.717,0,2.575-0.858,2.575-2.576V-636.569z"/>
	<path d="M-379.436-614.678v-23.394l-4.936,1.717l-2.147-4.938l7.942-3.434h6.867v30.048H-379.436z"/>
	<path d="M-341.661-622.403c0,2.804-0.658,4.864-1.975,6.181s-3.378,1.974-6.182,1.974h-9.873c-2.805,0-4.865-0.657-6.181-1.974
		c-1.317-1.316-1.975-3.377-1.975-6.181v-0.431c0-2.174,0.543-3.977,1.631-5.407c0.859-1.146,2.031-1.918,3.52-2.318
		c-1.287-0.43-2.326-1.181-3.111-2.254c-0.788-1.072-1.181-2.469-1.181-4.186v-0.429c0-2.604,0.658-4.543,1.974-5.817
		c1.316-1.271,3.377-1.909,6.182-1.909h8.156c2.804,0,4.865,0.638,6.182,1.909c1.314,1.274,1.975,3.213,1.975,5.817v0.429
		c0,1.717-0.395,3.113-1.181,4.186c-0.787,1.073-1.825,1.824-3.112,2.254c2.318,0.629,3.892,2.174,4.722,4.636
		c0.286,0.888,0.43,1.917,0.43,3.09V-622.403z M-357.545-626.696c-1.716,0-2.574,0.857-2.574,2.574v1.719
		c0,0.658,0.193,1.18,0.579,1.566s0.908,0.579,1.566,0.579h6.439c0.658,0,1.181-0.192,1.567-0.579
		c0.386-0.387,0.578-0.908,0.578-1.566v-1.719c0-1.717-0.857-2.574-2.575-2.574H-357.545z M-356.685-639.146
		c-1.718,0-2.576,0.859-2.576,2.576v1.287c0,1.718,0.858,2.576,2.576,2.576h3.862c1.717,0,2.576-0.858,2.576-2.576v-1.287
		c0-1.717-0.859-2.576-2.576-2.576H-356.685z"/>
	<path d="M-309.468-614.678c-2.776,0.286-5.495,0.429-8.155,0.429c-1.947,0-3.507-0.586-4.68-1.76
		c-1.174-1.172-1.76-2.732-1.76-4.679v-10.946h-2.575v-5.794h2.575l0.858-5.151h6.653v5.151h5.365v5.794h-5.365v9.873
		c0,0.43,0.143,0.787,0.43,1.073c0.285,0.287,0.645,0.43,1.072,0.43h5.581V-614.678z"/>
	<path d="M-285.86-615.106c-5.522,0.572-10.531,0.857-15.023,0.857c-1.947,0-3.506-0.586-4.679-1.76
		c-1.174-1.172-1.76-2.732-1.76-4.679v-10.302c0-2.146,0.607-3.827,1.824-5.043c1.215-1.217,2.896-1.825,5.044-1.825h8.585
		c2.146,0,3.826,0.608,5.044,1.825c1.216,1.216,1.823,2.896,1.823,5.043v7.941h-14.809v1.717c0,0.43,0.143,0.787,0.43,1.073
		c0.285,0.286,0.644,0.429,1.072,0.429c2.834,0,6.982-0.215,12.448-0.643V-615.106z M-298.094-632.491
		c-1.145,0-1.717,0.572-1.717,1.717v2.36h7.297v-2.36c0-1.145-0.573-1.717-1.718-1.717H-298.094z"/>
	<path d="M-280.065-636.999c5.237-0.572,9.958-0.858,14.165-0.858c1.947,0,3.506,0.587,4.68,1.761
		c1.172,1.173,1.76,2.732,1.76,4.678v16.741h-6.653l-0.429-2.146c-1.346,0.887-2.727,1.537-4.143,1.953
		c-1.418,0.414-2.612,0.621-3.585,0.621h-1.501c-1.947,0-3.507-0.586-4.681-1.76c-1.173-1.172-1.759-2.732-1.759-4.679v-1.931
		c0-1.946,0.586-3.506,1.759-4.68c1.174-1.173,2.733-1.76,4.681-1.76h8.799v-1.717c0-0.43-0.144-0.787-0.431-1.073
		c-0.285-0.286-0.643-0.429-1.072-0.429c-1.86,0-3.913,0.086-6.159,0.257c-2.247,0.172-4.058,0.301-5.431,0.386V-636.999z
		 M-272.124-620.258c1.517,0,3.233-0.286,5.151-0.858v-2.576h-6.225c-0.429,0-0.788,0.144-1.073,0.43
		c-0.286,0.286-0.429,0.645-0.429,1.072v0.43c0,0.43,0.143,0.787,0.429,1.073c0.285,0.287,0.645,0.43,1.073,0.43H-272.124z"/>
	<path d="M-240.359-637.857c2.316,0,4.105,0.858,5.365,2.575c1.315-0.887,2.738-1.537,4.271-1.953
		c1.53-0.414,2.896-0.622,4.099-0.622h0.429c1.946,0,3.506,0.587,4.68,1.761c1.172,1.173,1.76,2.732,1.76,4.678v16.741h-7.512
		v-15.453c0-0.429-0.145-0.786-0.43-1.073c-0.287-0.285-0.644-0.43-1.073-0.43h-0.215c-1.287,0-2.933,0.287-4.937,0.859v16.097
		h-7.512v-15.453c0-0.429-0.143-0.786-0.43-1.073c-0.286-0.285-0.644-0.43-1.072-0.43h-0.215c-1.287,0-2.934,0.287-4.937,0.859
		v16.097h-7.512v-22.75h6.653l0.43,2.146c1.344-0.887,2.726-1.537,4.142-1.953c1.417-0.414,2.61-0.622,3.585-0.622H-240.359z"/>
	<path d="M-191.855-623.692l3.863-13.735h8.155l-7.082,22.75h-7.941l-4.292-13.736l-4.293,13.736h-7.94l-7.083-22.75h8.156
		l3.861,13.735l3.864-13.735h6.868L-191.855-623.692z"/>
	<path d="M-157.516-615.106c-5.522,0.572-10.531,0.857-15.023,0.857c-1.947,0-3.506-0.586-4.679-1.76
		c-1.174-1.172-1.761-2.732-1.761-4.679v-10.302c0-2.146,0.608-3.827,1.825-5.043c1.216-1.217,2.897-1.825,5.043-1.825h8.585
		c2.146,0,3.828,0.608,5.044,1.825c1.216,1.216,1.823,2.896,1.823,5.043v7.941h-14.808v1.717c0,0.43,0.143,0.787,0.429,1.073
		c0.285,0.286,0.645,0.429,1.073,0.429c2.833,0,6.982-0.215,12.448-0.643V-615.106z M-169.748-632.491
		c-1.146,0-1.718,0.572-1.718,1.717v2.36h7.297v-2.36c0-1.145-0.572-1.717-1.718-1.717H-169.748z"/>
	<path d="M-151.722-636.999c5.237-0.572,9.959-0.858,14.166-0.858c1.946,0,3.505,0.587,4.679,1.761
		c1.174,1.173,1.76,2.732,1.76,4.678v16.741h-6.652l-0.43-2.146c-1.346,0.887-2.726,1.537-4.143,1.953
		c-1.417,0.414-2.611,0.621-3.585,0.621h-1.501c-1.947,0-3.507-0.586-4.68-1.76c-1.174-1.172-1.76-2.732-1.76-4.679v-1.931
		c0-1.946,0.586-3.506,1.76-4.68c1.173-1.173,2.732-1.76,4.68-1.76h8.799v-1.717c0-0.43-0.144-0.787-0.43-1.073
		s-0.643-0.429-1.073-0.429c-1.86,0-3.913,0.086-6.159,0.257c-2.246,0.172-4.057,0.301-5.431,0.386V-636.999z M-143.78-620.258
		c1.517,0,3.233-0.286,5.151-0.858v-2.576h-6.225c-0.429,0-0.787,0.144-1.073,0.43s-0.429,0.645-0.429,1.072v0.43
		c0,0.43,0.143,0.787,0.429,1.073c0.286,0.287,0.645,0.43,1.073,0.43H-143.78z"/>
	<path d="M-114.162-631.204c-1.803,0-3.664,0.43-5.581,1.288v15.238h-7.511v-22.75h6.653l0.429,2.79
		c2.461-2.146,5.036-3.22,7.727-3.22h1.932v6.653H-114.162z"/>
</g>
<g>
	<g>
		<path fill="#000113" d="M-164.028-805.032c0,0-42.674,1.03-62.027,20.149c-19.444,19.209-5.403,41.475,40.611,37.092
			c0,0-40.44-4.4-21.258-32.293C-192.769-800.344-164.028-805.032-164.028-805.032z"/>
	</g>
	<g>
		<path fill="#6609B7" d="M-183.015-753.211c4.518,0.898,10.05,3.099,13.256,6.268c2.833,2.799,4.419,6.532,4.61,10.502
			c0.966,20.031-49.021,53.163-111.475,81.201c0,0,81.451-31.276,120.245-56.651c22.371-14.634,20.473-26.909,18.463-31.769
			c-4.485-10.841-20.133-12.821-31.854-13.105c-8.694-0.211-13.541,0.328-16.623,0.506c-3.671,0.211-9.756,0.984-9.756,0.984
			S-193.871-755.367-183.015-753.211z"/>
	</g>
	<g>
		<polygon fill="#000113" points="-185.217,-747.836 -206.088,-747.836 -222.48,-737.979 -228.707,-747.836 -244.763,-747.836 
			-234.117,-730.98 -265.632,-712.025 -244.763,-712.025 -228.368,-721.884 -222.143,-712.025 -206.088,-712.025 -216.735,-728.883 
					"/>
	</g>
	<g>
		<path fill="#000113" d="M-260.754-747.836l-13.243,22.139c-1.322,2.207-4.154,3.619-7.27,3.619h-4.521l15.408-25.758h-14.447
			l-18.745,31.334c-1.244,2.084,0.695,4.477,3.633,4.477h17.766l-16.53,27.642h14.449l37.95-63.452H-260.754L-260.754-747.836z"/>
	</g>
	<g>
		<path fill="#000113" d="M-303.446-722.078"/>
	</g>
	<g>
		<path fill="#000113" d="M-297.639-747.746l6.114-10.142h-14.45l-6.111,10.142h-0.033h-9.631l-6.015,10.051h9.634l-12.648,21.283
			c-1.245,2.086,0.696,4.477,3.635,4.477h12.664c3.116,0,5.949-1.412,7.271-3.619l3.847-6.434h-9.632l0.054-0.09h-0.001
			l8.177-13.807c0.662-1.104,2.079-1.811,3.636-1.811h1.976c3.114,0,5.947-1.41,7.269-3.619l3.851-6.432H-297.639z"/>
	</g>
	<g>
		<path fill="#000113" d="M-323.078-749.646l4.93-8.241h-53.49c-3.117,0-5.949,1.41-7.271,3.619l-11.886,19.863
			c-1.186,1.984-3.25,4.013-10.287,4.456c-0.137,0.009,13.782,0.017,13.923,0.017h37.838l-3.614,6.045
			c-0.662,1.103-2.079,1.809-3.634,1.809h-39.044c-1.56,0-2.976,0.707-3.637,1.809c0,0-2.299,6.574-16.435,8.241h64.996
			c3.116,0,5.95-1.411,7.271-3.618l14.56-24.338h-44.148l3.616-6.043c0.66-1.104,2.075-1.809,3.635-1.809h39.045
			C-325.155-747.836-323.738-748.541-323.078-749.646"/>
	</g>
</g>
<g>
	<g>
		<polygon fill="#FFD700" points="916.727,89.922 541.607,89.922 577.102,0 952.223,0 		"/>
		<g>
			<path d="M605.588,58.738c-1.881-2.36-2.822-6.031-2.822-11.012c0-3.947,0.498-6.981,1.494-9.103s2.38-3.56,4.15-4.316
				c1.771-0.756,4.04-1.135,6.807-1.135c1.106,0,2.342,0.111,3.707,0.332c1.364,0.222,3.154,0.591,5.368,1.107l-0.222,7.525
				c-3.431-0.258-5.571-0.388-6.419-0.388c-1.438,0-2.527,0.176-3.265,0.526c-0.738,0.351-1.236,0.932-1.494,1.742
				c-0.259,0.813-0.388,1.992-0.388,3.542c0,1.66,0.139,2.924,0.415,3.79c0.276,0.867,0.783,1.477,1.521,1.826
				c0.738,0.352,1.808,0.526,3.21,0.526l6.363-0.388l0.277,7.581c-4.17,0.922-7.508,1.384-10.017,1.384
				C610.365,62.28,607.47,61.1,605.588,58.738z"/>
			<path d="M633.837,60.398c-2.011-1.254-3.561-3.006-4.647-5.257c-1.089-2.25-1.633-4.795-1.633-7.637
				c0-2.767,0.534-5.229,1.604-7.387c1.069-2.158,2.601-3.854,4.593-5.091s4.353-1.854,7.083-1.854c2.729,0,5.1,0.609,7.111,1.826
				c2.01,1.218,3.55,2.905,4.62,5.063c1.069,2.158,1.604,4.64,1.604,7.442c0,2.878-0.544,5.433-1.632,7.664
				c-1.089,2.232-2.647,3.976-4.676,5.229c-2.029,1.254-4.372,1.882-7.028,1.882S635.848,61.652,633.837,60.398z M643.383,52.513
				c0.737-1.124,1.106-2.794,1.106-5.008c0-2.028-0.351-3.577-1.051-4.648c-0.701-1.069-1.569-1.604-2.602-1.604
				c-1.033,0-1.891,0.535-2.573,1.604c-0.683,1.071-1.023,2.62-1.023,4.648c0,2.214,0.359,3.884,1.079,5.008
				c0.72,1.126,1.559,1.688,2.518,1.688S642.645,53.639,643.383,52.513z"/>
			<path d="M659.042,23.489h9.628v38.071h-9.628V23.489z"/>
			<path d="M675.421,23.489h9.628v38.071h-9.628V23.489z"/>
			<path d="M692.769,59.015c-2.012-2.176-3.016-5.735-3.016-10.68c0-5.054,1.06-8.844,3.182-11.371
				c2.121-2.526,5.357-3.791,9.711-3.791c4.021,0,7.111,1.033,9.27,3.099c2.158,2.067,3.236,5.092,3.236,9.075l-0.774,6.475h-14.94
				c0.11,0.664,0.322,1.144,0.636,1.438c0.313,0.296,0.747,0.471,1.301,0.526c0.554,0.055,1.494,0.083,2.822,0.083
				s2.905-0.037,4.731-0.111c1.826-0.073,3.071-0.146,3.735-0.221l1.494-0.166l0.11,6.917c-4.095,1.328-8.043,1.992-11.842,1.992
				C697.998,62.28,694.778,61.192,692.769,59.015z M705.745,44.628c0-1.439-0.222-2.407-0.664-2.905
				c-0.443-0.498-1.292-0.747-2.546-0.747c-1.255,0-2.085,0.249-2.49,0.747c-0.406,0.498-0.628,1.466-0.664,2.905H705.745z"/>
			<path d="M721.017,58.738c-1.881-2.36-2.822-6.031-2.822-11.012c0-3.947,0.498-6.981,1.494-9.103s2.38-3.56,4.15-4.316
				c1.771-0.756,4.04-1.135,6.807-1.135c1.106,0,2.342,0.111,3.707,0.332c1.364,0.222,3.154,0.591,5.368,1.107l-0.222,7.525
				c-3.431-0.258-5.571-0.388-6.419-0.388c-1.438,0-2.527,0.176-3.265,0.526c-0.738,0.351-1.236,0.932-1.494,1.742
				c-0.259,0.813-0.388,1.992-0.388,3.542c0,1.66,0.139,2.924,0.415,3.79c0.276,0.867,0.783,1.477,1.521,1.826
				c0.738,0.352,1.808,0.526,3.21,0.526l6.363-0.388l0.277,7.581c-4.17,0.922-7.508,1.384-10.017,1.384
				C725.794,62.28,722.898,61.1,721.017,58.738z"/>
			<path d="M749.182,61.201c-1.291-0.72-2.213-1.854-2.767-3.403c-0.554-1.55-0.83-3.652-0.83-6.309v-9.462h-2.822v-8.135h2.822
				v-7.193h9.629v7.193h5.478v8.135h-5.478v10.07c0,1.107,0.405,1.624,1.217,1.55l3.764,0.056l0.331,7.581
				c-1.586,0.405-2.758,0.673-3.514,0.802s-1.577,0.194-2.462,0.194C752.262,62.28,750.473,61.92,749.182,61.201z"/>
			<path d="M765.755,59.928c-1.494-1.567-2.241-3.956-2.241-7.166c0-3.062,0.82-5.21,2.462-6.446
				c1.642-1.235,4.307-1.945,7.996-2.131l4.095-0.221v-1.272c0-0.627-0.157-1.024-0.47-1.19c-0.314-0.166-0.969-0.249-1.965-0.249
				l-4.98,0.111c-3.173,0.147-4.869,0.185-5.091,0.11l-0.221-6.475c3.983-1.217,7.857-1.826,11.62-1.826
				c3.799,0,6.529,0.747,8.189,2.241s2.49,3.92,2.49,7.277v9.738c0.036,0.407,0.073,0.858,0.111,1.356
				c0.036,0.498,0.11,0.83,0.221,0.996c0.111,0.166,0.313,0.286,0.609,0.359l-0.277,7.139c-2.288,0-3.993-0.103-5.118-0.305
				c-1.126-0.203-2.352-0.673-3.68-1.411c-2.288,1.144-4.594,1.716-6.917,1.716C769.526,62.28,767.248,61.496,765.755,59.928z
				 M777.514,54.312l0.553-0.056v-3.818l-2.933,0.222c-0.628,0.074-1.126,0.296-1.494,0.664c-0.369,0.369-0.553,0.886-0.553,1.55
				c0,1.144,0.571,1.715,1.715,1.715C775.392,54.588,776.296,54.496,777.514,54.312z"/>
			<path d="M796.492,61.671l-2.489-0.276V23.489h9.628v10.846c0.295-0.11,0.793-0.285,1.494-0.525
				c0.7-0.239,1.337-0.405,1.909-0.498c0.571-0.092,1.208-0.139,1.909-0.139c3.726,0,6.521,1.145,8.384,3.431
				c1.862,2.288,2.794,5.996,2.794,11.123c0,5.165-1.043,8.891-3.126,11.178c-2.085,2.288-5.396,3.431-9.934,3.431
				C804.295,62.335,800.771,62.114,796.492,61.671z M809.331,52.43c0.7-0.848,1.051-2.36,1.051-4.537
				c0-4.095-1.328-6.143-3.984-6.143c-0.849,0-1.771,0.037-2.767,0.111v11.676c0.849,0.11,1.642,0.166,2.38,0.166
				C807.522,53.703,808.629,53.279,809.331,52.43z"/>
			<path d="M825.103,23.489h9.628v38.071h-9.628V23.489z"/>
			<path d="M842.449,59.015c-2.012-2.176-3.016-5.735-3.016-10.68c0-5.054,1.06-8.844,3.182-11.371
				c2.121-2.526,5.357-3.791,9.711-3.791c4.021,0,7.111,1.033,9.27,3.099c2.158,2.067,3.236,5.092,3.236,9.075l-0.774,6.475h-14.94
				c0.11,0.664,0.322,1.144,0.636,1.438c0.313,0.296,0.747,0.471,1.301,0.526c0.554,0.055,1.494,0.083,2.822,0.083
				s2.905-0.037,4.731-0.111c1.826-0.073,3.071-0.146,3.735-0.221l1.494-0.166l0.11,6.917c-4.095,1.328-8.043,1.992-11.842,1.992
				C847.679,62.28,844.459,61.192,842.449,59.015z M855.426,44.628c0-1.439-0.222-2.407-0.664-2.905
				c-0.443-0.498-1.292-0.747-2.546-0.747c-1.255,0-2.085,0.249-2.49,0.747c-0.406,0.498-0.628,1.466-0.664,2.905H855.426z"/>
			<path d="M870.255,61.173l-1.826-0.387l0.222-7.913c4.39,0.553,7.581,0.83,9.572,0.83c2.177,0,3.266-0.166,3.266-0.498
				c0-0.185-0.222-0.351-0.664-0.498c-0.443-0.147-1.162-0.295-2.158-0.443l-2.49-0.442c-2.841-0.479-4.925-1.374-6.253-2.684
				s-1.992-3.439-1.992-6.392c0-3.024,1.014-5.367,3.043-7.027s4.74-2.49,8.135-2.49c2.25,0,5.313,0.425,9.186,1.272l1.992,0.332
				l-0.11,7.913c-4.759-0.59-7.913-0.885-9.463-0.885c-1.07,0-1.881,0.037-2.435,0.11c-0.554,0.074-0.83,0.24-0.83,0.498
				c0,0.296,0.305,0.535,0.913,0.719c0.608,0.186,1.596,0.37,2.961,0.554l2.047,0.332c2.767,0.518,4.731,1.448,5.894,2.795
				s1.743,3.348,1.743,6.004c0,6.271-3.8,9.407-11.399,9.407C876.95,62.28,873.833,61.911,870.255,61.173z"/>
		</g>
	</g>
	<g>
		<path fill="#FFD700" d="M62.996,212.015c-0.245,1.502-0.695,3.036-1.349,4.6c-0.653,1.565-1.42,2.989-2.298,4.271
			c-0.879,1.283-1.818,2.347-2.818,3.191c-1.002,0.845-1.972,1.268-2.911,1.268H0l2.635-13.33h38.178
			c0.98,0,1.879-0.422,2.696-1.268c0.816-0.845,1.511-1.861,2.084-3.051c0.285-0.563,0.561-1.361,0.827-2.394
			c0.265-1.032,0.499-2.08,0.704-3.145c0.204-1.188,0.408-2.472,0.613-3.849H16.361c-1.43,0-2.829-0.219-4.197-0.657
			c-1.369-0.438-2.523-1.127-3.462-2.065c-0.94-0.938-1.573-2.127-1.9-3.567c-0.327-1.438-0.144-3.159,0.552-5.163l3.064-15.677
			c0.367-2.189,0.989-4.021,1.869-5.491c0.878-1.47,1.878-2.659,3.002-3.567c1.123-0.906,2.329-1.549,3.616-1.925
			c1.286-0.375,2.521-0.563,3.707-0.563h50.617l-2.758,14.081l-33.826,0.094c-1.961-0.125-3.463,0.156-4.504,0.845
			c-1.042,0.689-1.808,1.94-2.298,3.755l-1.349,6.759h31.253c1.021,0,2.001,0.141,2.941,0.423c0.939,0.281,1.746,0.783,2.421,1.502
			c0.674,0.72,1.164,1.643,1.471,2.769c0.306,1.127,0.315,2.535,0.03,4.225L62.996,212.015z"/>
		<path fill="#FFD700" d="M69.981,159.634c9.927,0.063,18.813,0.094,26.656,0.094c3.31,0,6.566,0,9.774,0c3.206,0,6.056,0,8.549,0
			c2.491,0,4.504,0,6.035,0c1.532,0,2.299-0.031,2.299-0.094c-0.245,1.002-0.46,1.94-0.644,2.816
			c-0.184,0.877-0.398,1.877-0.644,3.004c-0.245,1.126-0.49,2.285-0.735,3.473c-0.572,2.755-1.226,5.914-1.961,9.481h-17.71
			c-0.531,2.628-1.011,5.038-1.44,7.229c-0.429,2.191-0.93,4.693-1.501,7.51c-0.572,2.816-1.145,5.695-1.716,8.636
			c-1.349,6.886-2.901,14.738-4.657,23.563H74.516l9.131-46.937h-17.71L69.981,159.634z"/>
		<path fill="#FFD700" d="M164.475,159.634h22.734l-41.67,65.711h-19.181L164.475,159.634z M134.814,198.685l-6.189-39.051h17.343
			c0.49,0,0.98,0.173,1.471,0.516c0.49,0.345,0.929,0.799,1.317,1.361c0.388,0.563,0.725,1.206,1.011,1.925
			c0.286,0.72,0.49,1.424,0.613,2.112l0.98,6.102L134.814,198.685z"/>
		<path fill="#FFD700" d="M213.56,159.634h22.734l-41.67,65.711h-19.242L213.56,159.634z M208.963,225.345l-25.982-65.711h17.343
			c0.49,0,0.949,0.188,1.378,0.563c0.43,0.376,0.828,0.861,1.195,1.455c0.368,0.596,0.705,1.237,1.011,1.925
			c0.307,0.689,0.583,1.347,0.828,1.972l23.96,59.797H208.963z"/>
		<path fill="#FFD700" d="M259.335,225.345l12.93-65.711h19.181l-12.868,65.711H259.335z M310.811,159.728l19.241-0.094
			l-12.93,65.711H297.88l5.025-25.909h-13.543l3.309-16.615h13.543L310.811,159.728z"/>
		<path fill="#FFD700" d="M322.575,225.345l12.563-65.711c3.391,0.063,6.435,0.094,9.131,0.094c1.143,0,2.268,0,3.37,0
			c1.104,0,2.084,0,2.941,0c0.858,0,1.552,0,2.084,0c0.53,0,0.796-0.031,0.796-0.094c-0.776,3.693-1.471,7.087-2.083,10.185
			c-0.613,3.099-1.309,6.604-2.084,10.515c-0.776,3.911-1.573,7.932-2.39,12.063c-1.961,9.638-4.146,20.621-6.557,32.949H322.575z"
			/>
		<path fill="#FFD700" d="M410.083,212.015c-0.245,1.502-0.695,3.036-1.349,4.6c-0.653,1.565-1.42,2.989-2.298,4.271
			c-0.879,1.283-1.818,2.347-2.818,3.191c-1.002,0.845-1.972,1.268-2.911,1.268h-53.62l2.635-13.33h38.178
			c0.98,0,1.879-0.422,2.696-1.268c0.816-0.845,1.511-1.861,2.084-3.051c0.285-0.563,0.561-1.361,0.827-2.394
			c0.265-1.032,0.499-2.08,0.704-3.145c0.204-1.188,0.408-2.472,0.613-3.849h-31.376c-1.43,0-2.829-0.219-4.197-0.657
			c-1.369-0.438-2.523-1.127-3.462-2.065c-0.94-0.938-1.573-2.127-1.9-3.567c-0.327-1.438-0.144-3.159,0.552-5.163l3.064-15.677
			c0.367-2.189,0.989-4.021,1.869-5.491c0.878-1.47,1.878-2.659,3.002-3.567c1.123-0.906,2.329-1.549,3.616-1.925
			c1.286-0.375,2.521-0.563,3.707-0.563h50.617l-2.758,14.081l-33.826,0.094c-1.961-0.125-3.463,0.156-4.504,0.845
			c-1.042,0.689-1.808,1.94-2.298,3.755l-1.349,6.759h31.253c1.021,0,2.001,0.141,2.941,0.423c0.939,0.281,1.746,0.783,2.421,1.502
			c0.674,0.72,1.164,1.643,1.471,2.769c0.306,1.127,0.315,2.535,0.03,4.225L410.083,212.015z"/>
		<path fill="#FFD700" d="M417.068,159.634c9.927,0.063,18.813,0.094,26.656,0.094c3.31,0,6.566,0,9.774,0c3.206,0,6.056,0,8.549,0
			c2.491,0,4.504,0,6.035,0c1.532,0,2.299-0.031,2.299-0.094c-0.245,1.002-0.46,1.94-0.644,2.816
			c-0.184,0.877-0.398,1.877-0.644,3.004c-0.245,1.126-0.49,2.285-0.735,3.473c-0.572,2.755-1.226,5.914-1.961,9.481h-17.71
			c-0.531,2.628-1.011,5.038-1.44,7.229c-0.429,2.191-0.93,4.693-1.501,7.51c-0.572,2.816-1.145,5.695-1.716,8.636
			c-1.349,6.886-2.901,14.738-4.657,23.563h-17.771l9.131-46.937h-17.71L417.068,159.634z"/>
		<path fill="#FFD700" d="M469.094,225.345c-1.063,0.062-1.971-0.125-2.727-0.563c-0.757-0.437-1.358-1.063-1.808-1.877
			c-0.45-0.813-0.735-1.752-0.858-2.816c-0.122-1.063-0.103-2.221,0.062-3.474c1.471-8.636,2.819-16.489,4.045-23.562
			c0.53-3.004,1.051-5.976,1.563-8.918c0.51-2.941,0.98-5.601,1.409-7.979c0.429-2.378,0.786-4.396,1.072-6.055
			c0.285-1.657,0.49-2.706,0.613-3.145c0.652-2.629,1.479-4.506,2.481-5.633c1.001-1.127,2.032-1.689,3.095-1.689h43.447
			c0.775,0,1.44,0.281,1.992,0.845c0.551,0.563,0.97,1.314,1.256,2.253c0.285,0.938,0.408,2.019,0.367,3.238
			c-0.041,1.221-0.266,2.488-0.674,3.802l-11.521,55.573H469.094z M488.643,175.404c-0.94,5.195-1.777,9.92-2.513,14.175
			c-0.327,1.815-0.654,3.6-0.98,5.351c-0.327,1.753-0.623,3.365-0.889,4.835c-0.266,1.471-0.49,2.707-0.674,3.708
			s-0.297,1.628-0.337,1.877c-0.286,1.44-0.194,2.504,0.275,3.191c0.47,0.689,0.99,1.033,1.563,1.033h13.788l6.986-34.17H488.643z"
			/>
		<path fill="#FFD700" d="M518.73,225.345l13.788-65.711h46.328c0.652,0,1.256,0.251,1.808,0.751
			c0.552,0.501,1.042,1.189,1.471,2.065c0.429,0.877,0.786,1.894,1.072,3.051c0.285,1.158,0.511,2.362,0.674,3.613
			c0.082,0.627,0.071,1.487-0.03,2.582c-0.103,1.096-0.256,2.3-0.46,3.614c-0.205,1.314-0.459,2.722-0.766,4.224
			s-0.604,3.005-0.889,4.507c-0.735,3.442-1.594,7.166-2.574,11.171l-2.206,5.351c-0.327,0.751-0.787,1.377-1.378,1.877
			c-0.593,0.502-1.114,1.002-1.563,1.502c-0.327,0.314-0.726,0.502-1.194,0.563c-0.471,0.063-1.012,0.188-1.624,0.376
			c-0.123,0.063-0.123,0.392,0,0.985c0.122,0.596,0.326,1.377,0.612,2.347c0.286,0.971,0.644,2.065,1.072,3.285
			c0.43,1.221,0.868,2.457,1.318,3.708c1.062,3.004,2.328,6.384,3.799,10.139h-19.732l-7.047-20.746h-3.922l3.064-15.677
			l12.807-0.281l2.697-12.485h-16.975l-10.051,49.189H518.73z"/>
		<path fill="#FFD700" d="M579.213,225.345l12.563-65.711c3.391,0.063,6.435,0.094,9.131,0.094c1.143,0,2.268,0,3.37,0
			c1.104,0,2.084,0,2.941,0c0.858,0,1.552,0,2.084,0c0.53,0,0.796-0.031,0.796-0.094c-0.776,3.693-1.471,7.087-2.083,10.185
			c-0.613,3.099-1.309,6.604-2.084,10.515c-0.776,3.911-1.573,7.932-2.39,12.063c-1.961,9.638-4.146,20.621-6.557,32.949H579.213z"
			/>
		<path fill="#FFD700" d="M615.062,159.634h54.049l-3.248,16.428h-34.623l-6.006,30.603c-0.082,0.502-0.01,1.111,0.215,1.83
			c0.225,0.721,0.5,1.08,0.827,1.08c0.204,0,0.858,0,1.961,0c1.104,0,2.482-0.015,4.137-0.047c1.654-0.031,3.503-0.062,5.546-0.094
			c2.042-0.031,4.105-0.047,6.189-0.047c2.083,0,4.105-0.015,6.066-0.047c1.961-0.031,3.687-0.048,5.178-0.048
			s2.666,0.017,3.524,0.048c0.857,0.032,1.226,0.079,1.103,0.141l-3.063,15.864H611.63c-0.49,0-1.021-0.125-1.594-0.376
			c-0.572-0.249-1.134-0.594-1.685-1.032c-0.552-0.437-1.053-0.938-1.502-1.502c-0.45-0.563-0.817-1.157-1.103-1.783
			c-0.573-1.376-1.083-2.91-1.532-4.6c-0.45-1.69-0.511-3.316-0.184-4.882L615.062,159.634z"/>
		<path fill="#FFD700" d="M703.918,159.634h54.049l-3.248,16.428h-34.623l-6.006,30.603c-0.082,0.502-0.01,1.111,0.215,1.83
			c0.225,0.721,0.5,1.08,0.827,1.08c0.204,0,0.858,0,1.961,0c1.104,0,2.482-0.015,4.137-0.047c1.654-0.031,3.503-0.062,5.546-0.094
			c2.042-0.031,4.105-0.047,6.189-0.047c2.083,0,4.105-0.015,6.066-0.047c1.961-0.031,3.687-0.048,5.178-0.048
			s2.666,0.017,3.524,0.048c0.857,0.032,1.226,0.079,1.103,0.141l-3.063,15.864h-45.286c-0.49,0-1.021-0.125-1.594-0.376
			c-0.572-0.249-1.134-0.594-1.685-1.032c-0.552-0.437-1.053-0.938-1.502-1.502c-0.45-0.563-0.817-1.157-1.103-1.783
			c-0.573-1.376-1.083-2.91-1.532-4.6c-0.45-1.69-0.511-3.316-0.184-4.882L703.918,159.634z"/>
		<path fill="#FFD700" d="M750.857,225.345l37.81-65.711h15.442c0.735,0,1.471,0.36,2.206,1.079
			c0.735,0.721,1.327,1.519,1.777,2.394c0.408,0.814,0.786,1.659,1.134,2.535c0.347,0.877,0.644,1.753,0.889,2.628
			c0.04,0.251,0.204,1.253,0.49,3.004c0.285,1.753,0.633,3.976,1.041,6.665c0.408,2.691,0.858,5.743,1.349,9.153
			c0.49,3.411,1.001,6.868,1.532,10.373c1.226,8.261,2.594,17.554,4.105,27.88h-21.019l-2.207-12.109l-17.525-0.376
			c1.633-2.94,3.125-5.6,4.474-7.979c0.53-1.001,1.072-1.972,1.623-2.91c0.552-0.939,1.042-1.784,1.472-2.535
			c0.429-0.751,0.908-1.596,1.439-2.534h6.066l-2.206-13.706l-24.267,42.149H750.857z"/>
		<path fill="#FFD700" d="M818.51,225.345l13.788-65.711h46.328c0.652,0,1.256,0.251,1.808,0.751
			c0.552,0.501,1.042,1.189,1.471,2.065c0.429,0.877,0.786,1.894,1.072,3.051c0.285,1.158,0.511,2.362,0.674,3.613
			c0.082,0.627,0.071,1.487-0.03,2.582c-0.103,1.096-0.256,2.3-0.46,3.614c-0.205,1.314-0.459,2.722-0.766,4.224
			s-0.604,3.005-0.889,4.507c-0.735,3.442-1.594,7.166-2.574,11.171l-2.206,5.351c-0.327,0.751-0.787,1.377-1.378,1.877
			c-0.593,0.502-1.114,1.002-1.563,1.502c-0.327,0.314-0.726,0.502-1.194,0.563c-0.471,0.063-1.012,0.188-1.624,0.376
			c-0.123,0.063-0.123,0.392,0,0.985c0.122,0.596,0.326,1.377,0.612,2.347c0.286,0.971,0.644,2.065,1.072,3.285
			c0.43,1.221,0.868,2.457,1.318,3.708c1.062,3.004,2.328,6.384,3.799,10.139h-19.732l-7.047-20.746h-3.922l3.064-15.677
			l12.807-0.281l2.697-12.485H848.66l-10.051,49.189H818.51z"/>
		<path fill="#FFD700" d="M941.989,212.015c-0.245,1.502-0.695,3.036-1.349,4.6c-0.653,1.565-1.42,2.989-2.298,4.271
			c-0.879,1.283-1.818,2.347-2.818,3.191c-1.002,0.845-1.972,1.268-2.911,1.268h-53.62l2.635-13.33h38.178
			c0.98,0,1.879-0.422,2.696-1.268c0.816-0.845,1.511-1.861,2.084-3.051c0.285-0.563,0.561-1.361,0.827-2.394
			c0.265-1.032,0.499-2.08,0.704-3.145c0.204-1.188,0.408-2.472,0.613-3.849h-31.376c-1.43,0-2.829-0.219-4.197-0.657
			c-1.369-0.438-2.523-1.127-3.462-2.065c-0.94-0.938-1.573-2.127-1.9-3.567c-0.327-1.438-0.144-3.159,0.552-5.163l3.064-15.677
			c0.367-2.189,0.989-4.021,1.869-5.491c0.878-1.47,1.878-2.659,3.002-3.567c1.123-0.906,2.329-1.549,3.616-1.925
			c1.286-0.375,2.521-0.563,3.707-0.563h50.617l-2.758,14.081l-33.826,0.094c-1.961-0.125-3.463,0.156-4.504,0.845
			c-1.042,0.689-1.808,1.94-2.298,3.755l-1.349,6.759h31.253c1.021,0,2.001,0.141,2.941,0.423c0.939,0.281,1.746,0.783,2.421,1.502
			c0.674,0.72,1.164,1.643,1.471,2.769c0.306,1.127,0.315,2.535,0.03,4.225L941.989,212.015z"/>
		<path fill="#FFD700" d="M244.566,272.281h19.12l-10.479,50.128h34.256l-2.329,15.583h-43.079c-1.268,0-2.554-0.517-3.861-1.549
			s-2.431-2.174-3.37-3.427c-0.327-0.437-0.582-1.204-0.766-2.3c-0.185-1.094-0.317-2.3-0.398-3.614
			c-0.082-1.313-0.102-2.643-0.062-3.989c0.04-1.345,0.143-2.455,0.307-3.332L244.566,272.281z"/>
		<path fill="#FFD700" d="M287.401,337.992l12.563-65.711c3.391,0.063,6.435,0.094,9.131,0.094c1.143,0,2.268,0,3.37,0
			c1.104,0,2.084,0,2.941,0c0.858,0,1.552,0,2.084,0c0.53,0,0.796-0.031,0.796-0.094c-0.776,3.693-1.471,7.087-2.083,10.185
			c-0.613,3.099-1.309,6.604-2.084,10.515c-0.776,3.911-1.573,7.932-2.39,12.063c-1.961,9.638-4.146,20.621-6.557,32.949H287.401z"
			/>
		<path fill="#FFD700" d="M311.974,337.992l11.582-56.042l5.393,34.545l-3.8,21.497H311.974z M343.042,272.281
			c0.49,0,0.98,0.173,1.471,0.516c0.49,0.345,0.929,0.799,1.317,1.361c0.389,0.563,0.726,1.206,1.012,1.925
			c0.285,0.72,0.49,1.424,0.612,2.112l4.657,30.227l21.632-36.141h22.735l-13.236,65.711h-19.794l4.045-21.497l-12.686,21.497
			h-19.18l-9.928-65.711H343.042z"/>
		<path fill="#FFD700" d="M388.88,337.992l12.563-65.711c3.391,0.063,6.435,0.094,9.131,0.094c1.143,0,2.268,0,3.37,0
			c1.104,0,2.084,0,2.941,0c0.858,0,1.552,0,2.084,0c0.53,0,0.796-0.031,0.796-0.094c-0.776,3.693-1.471,7.087-2.083,10.185
			c-0.613,3.099-1.309,6.604-2.084,10.515c-0.776,3.911-1.573,7.932-2.39,12.063c-1.961,9.638-4.146,20.621-6.557,32.949H388.88z"/>
		<path fill="#FFD700" d="M417.437,272.281c9.927,0.063,18.813,0.094,26.656,0.094c3.31,0,6.566,0,9.774,0c3.206,0,6.056,0,8.549,0
			c2.491,0,4.504,0,6.035,0c1.532,0,2.299-0.031,2.299-0.094c-0.245,1.002-0.46,1.94-0.644,2.816
			c-0.184,0.877-0.398,1.877-0.644,3.004c-0.245,1.126-0.49,2.285-0.735,3.473c-0.572,2.755-1.226,5.914-1.961,9.481h-17.71
			c-0.531,2.628-1.011,5.038-1.44,7.229c-0.429,2.191-0.93,4.693-1.501,7.51c-0.572,2.816-1.145,5.695-1.716,8.636
			c-1.349,6.886-2.901,14.738-4.657,23.563h-17.771l9.131-46.937h-17.71L417.437,272.281z"/>
		<path fill="#FFD700" d="M475.039,272.375l54.232-0.094l-3.248,16.428H491.4l-6.006,30.603c-0.082,0.502-0.01,1.111,0.215,1.83
			c0.225,0.721,0.5,1.08,0.827,1.08c0.204,0,0.858,0,1.961,0c1.104,0,2.482-0.015,4.137-0.047c1.654-0.031,3.503-0.062,5.546-0.094
			c2.042-0.031,4.105-0.047,6.189-0.047c2.083,0,4.105-0.015,6.066-0.047c1.961-0.031,3.687-0.048,5.178-0.048
			s2.666,0.017,3.524,0.048c0.857,0.032,1.226,0.079,1.103,0.141l-3.063,15.864h-45.286c-0.49,0-1.021-0.125-1.594-0.376
			c-0.572-0.249-1.134-0.594-1.685-1.032c-0.552-0.437-1.053-0.938-1.502-1.502c-0.45-0.563-0.817-1.157-1.103-1.783
			c-0.573-1.376-1.083-2.91-1.532-4.6c-0.45-1.69-0.511-3.316-0.184-4.882L475.039,272.375z M494.342,296.782h27.515l-3.554,14.644
			H490.91L494.342,296.782z"/>
		<path fill="#FFD700" d="M531.109,272.281c0.081,0,0.889-0.015,2.421-0.047c1.531-0.031,3.523-0.047,5.975-0.047s5.218,0,8.303,0
			s6.24,0,9.468,0c7.558,0,16.117,0.032,25.677,0.094c0.612,0.563,1.185,1.189,1.716,1.877c0.449,0.563,0.889,1.206,1.317,1.925
			c0.429,0.72,0.725,1.518,0.889,2.394c0.245,1.44,0.398,2.942,0.46,4.506c0.061,1.565-0.011,3.067-0.215,4.506
			c-0.041,0.376-0.194,1.236-0.46,2.582s-0.603,2.989-1.011,4.928c-0.409,1.94-0.858,4.084-1.349,6.431s-1.001,4.74-1.531,7.182
			c-1.226,5.695-2.595,12.016-4.106,18.962c-0.286,0.626-0.551,1.283-0.796,1.972c-0.205,0.563-0.43,1.158-0.675,1.783
			c-0.245,0.626-0.47,1.159-0.674,1.596c-0.327,0.877-0.704,1.737-1.134,2.582c-0.429,0.845-0.949,1.424-1.563,1.736
			c-0.327,0.188-0.715,0.36-1.164,0.517c-0.45,0.156-0.858,0.234-1.226,0.234h-52.578l7.415-38.206h20.1l-4.474,22.153h18.507
			c0.449,0,0.897-0.234,1.348-0.704c0.449-0.469,0.775-1.016,0.98-1.643c0.04-0.124,0.163-0.641,0.368-1.549
			c0.204-0.906,0.459-2.065,0.766-3.473c0.307-1.408,0.653-2.972,1.042-4.694c0.388-1.721,0.766-3.487,1.134-5.304
			c0.897-4.192,1.878-8.918,2.941-14.175c0.122-0.249,0.07-0.531-0.153-0.845c-0.225-0.313-0.439-0.47-0.644-0.47l-40.139,0.094
			L531.109,272.281z"/>
		<path fill="#FFD700" d="M624.193,272.375l54.232-0.094l-3.248,16.428h-34.623l-6.006,30.603c-0.082,0.502-0.01,1.111,0.215,1.83
			c0.225,0.721,0.5,1.08,0.827,1.08c0.204,0,0.858,0,1.961,0c1.104,0,2.482-0.015,4.137-0.047c1.654-0.031,3.503-0.062,5.546-0.094
			c2.042-0.031,4.105-0.047,6.189-0.047c2.083,0,4.105-0.015,6.066-0.047c1.961-0.031,3.687-0.048,5.178-0.048
			s2.666,0.017,3.524,0.048c0.857,0.032,1.226,0.079,1.103,0.141l-3.063,15.864h-45.286c-0.49,0-1.021-0.125-1.594-0.376
			c-0.572-0.249-1.134-0.594-1.685-1.032c-0.552-0.437-1.053-0.938-1.502-1.502c-0.45-0.563-0.817-1.157-1.103-1.783
			c-0.573-1.376-1.083-2.91-1.532-4.6c-0.45-1.69-0.511-3.316-0.184-4.882L624.193,272.375z M643.496,296.782h27.515l-3.554,14.644
			h-27.393L643.496,296.782z"/>
		<path fill="#FFD700" d="M680.265,272.281c0.081,0,0.889-0.015,2.421-0.047c1.531-0.031,3.523-0.047,5.975-0.047s5.218,0,8.303,0
			s6.24,0,9.468,0c7.558,0,16.117,0.032,25.677,0.094c0.612,0.563,1.185,1.189,1.716,1.877c0.449,0.563,0.889,1.206,1.317,1.925
			c0.429,0.72,0.725,1.518,0.889,2.394c0.245,1.44,0.398,2.942,0.46,4.506c0.061,1.565-0.011,3.067-0.215,4.506
			c-0.041,0.376-0.194,1.236-0.46,2.582s-0.603,2.989-1.011,4.928c-0.409,1.94-0.858,4.084-1.349,6.431s-1.001,4.74-1.531,7.182
			c-1.226,5.695-2.595,12.016-4.106,18.962c-0.286,0.626-0.551,1.283-0.796,1.972c-0.205,0.563-0.43,1.158-0.675,1.783
			c-0.245,0.626-0.47,1.159-0.674,1.596c-0.327,0.877-0.704,1.737-1.134,2.582c-0.429,0.845-0.949,1.424-1.563,1.736
			c-0.327,0.188-0.715,0.36-1.164,0.517c-0.45,0.156-0.858,0.234-1.226,0.234h-52.578l7.415-38.206h20.1l-4.474,22.153h18.507
			c0.449,0,0.897-0.234,1.348-0.704c0.449-0.469,0.775-1.016,0.98-1.643c0.04-0.124,0.163-0.641,0.368-1.549
			c0.204-0.906,0.459-2.065,0.766-3.473c0.307-1.408,0.653-2.972,1.042-4.694c0.388-1.721,0.766-3.487,1.134-5.304
			c0.897-4.192,1.878-8.918,2.941-14.175c0.122-0.249,0.07-0.531-0.153-0.845c-0.225-0.313-0.439-0.47-0.644-0.47l-40.139,0.094
			L680.265,272.281z"/>
		<path fill="#FFD700" d="M731.556,337.992l12.563-65.711c3.391,0.063,6.435,0.094,9.131,0.094c1.143,0,2.268,0,3.37,0
			c1.104,0,2.084,0,2.941,0c0.858,0,1.552,0,2.084,0c0.53,0,0.796-0.031,0.796-0.094c-0.776,3.693-1.471,7.087-2.083,10.185
			c-0.613,3.099-1.309,6.604-2.084,10.515c-0.776,3.911-1.573,7.932-2.39,12.063c-1.961,9.638-4.146,20.621-6.557,32.949H731.556z"
			/>
		<path fill="#FFD700" d="M760.112,272.281c9.927,0.063,18.813,0.094,26.656,0.094c3.31,0,6.566,0,9.774,0c3.206,0,6.056,0,8.549,0
			c2.491,0,4.504,0,6.035,0c1.532,0,2.299-0.031,2.299-0.094c-0.245,1.002-0.46,1.94-0.644,2.816
			c-0.184,0.877-0.398,1.877-0.644,3.004c-0.245,1.126-0.49,2.285-0.735,3.473c-0.572,2.755-1.226,5.914-1.961,9.481h-17.71
			c-0.531,2.628-1.011,5.038-1.44,7.229c-0.429,2.191-0.93,4.693-1.501,7.51c-0.572,2.816-1.145,5.695-1.716,8.636
			c-1.349,6.886-2.901,14.738-4.657,23.563h-17.771l9.131-46.937h-17.71L760.112,272.281z"/>
		<path fill="#FFD700" d="M806.562,337.992l12.563-65.711c3.391,0.063,6.435,0.094,9.131,0.094c1.143,0,2.268,0,3.37,0
			c1.104,0,2.084,0,2.941,0c0.858,0,1.552,0,2.084,0c0.53,0,0.796-0.031,0.796-0.094c-0.776,3.693-1.471,7.087-2.083,10.185
			c-0.613,3.099-1.309,6.604-2.084,10.515c-0.776,3.911-1.573,7.932-2.39,12.063c-1.961,9.638-4.146,20.621-6.557,32.949H806.562z"
			/>
		<path fill="#FFD700" d="M836.648,337.992c-1.063,0.062-1.971-0.125-2.727-0.563c-0.757-0.437-1.358-1.063-1.808-1.877
			c-0.45-0.813-0.735-1.752-0.858-2.816c-0.122-1.063-0.103-2.221,0.062-3.474c1.471-8.636,2.819-16.489,4.045-23.562
			c0.53-3.004,1.051-5.976,1.563-8.918c0.51-2.941,0.98-5.601,1.409-7.979c0.429-2.378,0.786-4.396,1.072-6.055
			c0.285-1.657,0.49-2.706,0.613-3.145c0.652-2.629,1.479-4.506,2.481-5.633c1.001-1.127,2.032-1.689,3.095-1.689h43.447
			c0.775,0,1.44,0.281,1.992,0.845c0.551,0.563,0.97,1.314,1.256,2.253c0.285,0.938,0.408,2.019,0.367,3.238
			c-0.041,1.221-0.266,2.488-0.674,3.802l-11.521,55.573H836.648z M856.197,288.052c-0.94,5.195-1.777,9.92-2.513,14.175
			c-0.327,1.815-0.654,3.6-0.98,5.351c-0.327,1.753-0.623,3.365-0.889,4.835c-0.266,1.471-0.49,2.707-0.674,3.708
			s-0.297,1.628-0.337,1.877c-0.286,1.44-0.194,2.504,0.275,3.191c0.47,0.689,0.99,1.033,1.563,1.033h13.788l6.986-34.17H856.197z"
			/>
		<path fill="#FFD700" d="M886.285,337.992l10.847-58.389l7.844,22.529l-6.802,35.953L886.285,337.992z M928.937,305.043
			l7.537-32.762h15.688l-12.991,65.805h-18.445l-21.815-65.805h15.32c0.735-0.125,1.725,0.438,2.972,1.689
			c1.246,1.253,2.298,3.036,3.156,5.351L928.937,305.043z"/>
	</g>
</g>
</svg>
