<?xml version="1.0" encoding="utf-8"?>
<!-- Generator: Adobe Illustrator 22.1.0, SVG Export Plug-In . SVG Version: 6.00 Build 0)  -->
<svg version="1.1" id="Layer_1" xmlns="http://www.w3.org/2000/svg" xmlns:xlink="http://www.w3.org/1999/xlink" x="0px" y="0px"
	 viewBox="0 0 145.428 115.348" enable-background="new 0 0 145.428 115.348" xml:space="preserve">
<path fill="#FFFFFF" d="M144.357,13.678c-0.854-1.007-2.108-1.587-3.43-1.587H30.053l-1.714-8.482C27.914,1.51,26.069,0,23.928,0
	H4.5C2.015,0,0,2.015,0,4.5S2.015,9,4.5,9h15.746l15.843,78.392C36.514,89.49,38.358,91,40.5,91h9.285
	c-5.435,1.294-9.481,6.169-9.481,12c0,6.82,5.528,12.348,12.348,12.348S65,109.82,65,103c0-5.831-4.047-10.706-9.481-12h60.89
	c-5.435,1.294-9.481,6.169-9.481,12c0,6.82,5.528,12.348,12.348,12.348c6.82,0,12.348-5.528,12.348-12.348
	c0-5.831-4.047-10.706-9.481-12h7.564c2.485,0,4.5-2.015,4.5-4.5s-2.015-4.5-4.5-4.5H44.182l-2.223-11h90.779
	c2.204,0,4.084-1.597,4.44-3.771l8.19-49.909C145.582,16.017,145.213,14.685,144.357,13.678z M133.011,37.046h-24.572l0.776-15.955
	h26.414L133.011,37.046z M70.001,37.046l-0.776-15.955h30.979l-0.776,15.955H70.001z M98.989,46.046L98.213,62H71.215l-0.776-15.954
	H98.989z M60.213,21.091l0.776,15.955H35.096l-3.224-15.955H60.213z M36.915,46.046h24.512L62.203,62H40.14L36.915,46.046z
	 M107.225,62l0.776-15.954h23.533L128.916,62H107.225z"/>
</svg>
