<?xml version="1.0" encoding="utf-8"?>
<!-- Generator: Adobe Illustrator 22.1.0, SVG Export Plug-In . SVG Version: 6.00 Build 0)  -->
<svg version="1.1" id="Layer_1" xmlns="http://www.w3.org/2000/svg" xmlns:xlink="http://www.w3.org/1999/xlink" x="0px" y="0px"
	 viewBox="0 0 45 30" enable-background="new 0 0 45 30" xml:space="preserve">
<rect x="-1080.343" y="-721.382" fill="#000113" width="841.89" height="595.28"/>
<g>
	<rect x="-1044.214" y="-687.677" fill="#FFFFFF" width="100" height="100"/>
	<g>
		<g>
			<path fill="#000113" d="M-977.252-597.677h-33.925c-12.703,0-23.038-10.335-23.038-23.038v-33.925
				c0-12.703,10.334-23.038,23.038-23.038h33.925c12.703,0,23.038,10.334,23.038,23.038v33.925
				C-954.214-608.012-964.549-597.677-977.252-597.677z M-1011.177-670.364c-8.67,0-15.724,7.054-15.724,15.724v33.925
				c0,8.67,7.054,15.724,15.724,15.724h33.925c8.67,0,15.724-7.054,15.724-15.724v-33.925c0-8.67-7.054-15.724-15.724-15.724
				H-1011.177z"/>
		</g>
		<g>
			<path fill="#000113" d="M-994.351-616.747c-11.502,0-20.86-9.358-20.86-20.86c0-11.503,9.358-20.861,20.86-20.861
				c11.503,0,20.861,9.358,20.861,20.861C-973.49-626.105-982.848-616.747-994.351-616.747z M-994.351-651.154
				c-7.47,0-13.547,6.077-13.547,13.547c0,7.47,6.077,13.547,13.547,13.547c7.47,0,13.548-6.077,13.548-13.547
				C-980.803-645.077-986.882-651.154-994.351-651.154z"/>
		</g>
		<path fill="#000113" d="M-968.208-659.037c0,2.726-2.21,4.936-4.935,4.936c-2.727,0-4.937-2.209-4.937-4.936
			c0-2.726,2.21-4.935,4.937-4.935C-970.418-663.972-968.208-661.762-968.208-659.037z"/>
	</g>
</g>
<g>
	<rect x="-925.809" y="-687.677" fill="#FFFFFF" width="100" height="100"/>
	<path fill="#000113" d="M-872.073-587.677v-36.515h-11.918v-14.2h11.918v-12.932c0,0,0.467-14.531,14.795-16.047
		c0,0,7.448-0.689,14.746,0v12.951h-9.098c0,0-5.855,0-5.855,5.856c0,5.855,0,9.988,0,9.988h14.122l-2.342,14.191h-11.849v36.708
		H-872.073z"/>
</g>
<g>
	<rect x="-807.404" y="-687.677" fill="#FFFFFF" width="100" height="100"/>
	<g>
		<path fill="#000113" d="M-717.748-624.59c-0.3,6.583-3.288,13.474-14.048,14.155c-10.76,0.682-42.443,0.598-51.111,0
			c-8.667-0.598-13.45-5.296-14.048-14.155c-0.598-8.859-0.598-18.21,0-26.387c0.598-8.177,4.882-13.044,14.048-13.857
			c9.167-0.813,44.137-0.697,51.708,0c7.572,0.697,12.852,5.296,13.451,13.857C-717.151-642.416-717.449-631.173-717.748-624.59z"/>
		<polygon fill="#FFFFFF" points="-764.974,-649.888 -764.974,-625.379 -745.048,-637.634 		"/>
	</g>
</g>
<g>
	<rect x="-688.999" y="-687.677" fill="#FFFFFF" width="100" height="100"/>
	<path fill="#000113" d="M-598.999-662.914c-5.846,2.748-8.794,2.299-8.794,2.299c5.996-3.948,6.546-8.795,6.546-8.795
		c-4.997,3.148-10.586,3.94-10.586,3.94v0.003c-2.987-3.155-7.213-5.126-11.9-5.126c-9.052,0-16.39,7.338-16.39,16.39
		c0,1.23,0.14,2.428,0.397,3.581c-21.858-0.853-33.314-17.173-33.314-17.173c-7.063,13.992,4.797,22.12,4.797,22.12
		c-3.997-0.133-6.929-1.866-6.929-1.866c-0.4,13.326,12.637,16.123,12.637,16.123c-2.421,0.933-7.174,0.267-7.174,0.267
		c3.731,11.193,14.924,11.46,14.924,11.46c-8.261,8.794-24.212,6.872-24.212,6.872c8.873,6.081,19.903,9.097,31.425,7.732
		c24.646-2.919,42.424-24.8,40.481-49.326C-601.803-657.694-598.999-662.914-598.999-662.914z"/>
</g>
<g>
	<rect x="-842.531" y="-407.677" fill="#FFFFFF" width="100" height="100"/>
	<g>
		<g>
			<path fill="#000113" d="M-775.569-317.677h-33.925c-12.703,0-23.038-10.336-23.038-23.038v-33.925
				c0-12.703,10.335-23.037,23.038-23.037h33.925c12.703,0,23.038,10.334,23.038,23.037v33.925
				C-752.531-328.013-762.865-317.677-775.569-317.677z M-809.493-390.364c-8.67,0-15.724,7.055-15.724,15.725v33.925
				c0,8.671,7.054,15.724,15.724,15.724h33.925c8.67,0,15.724-7.053,15.724-15.724v-33.925c0-8.67-7.054-15.725-15.724-15.725
				H-809.493z"/>
		</g>
		<g>
			<path fill="#000113" d="M-792.668-336.747c-11.502,0-20.86-9.357-20.86-20.859c0-11.504,9.358-20.861,20.86-20.861
				c11.503,0,20.861,9.357,20.861,20.861C-771.807-346.105-781.165-336.747-792.668-336.747z M-792.668-371.154
				c-7.47,0-13.547,6.077-13.547,13.548c0,7.469,6.077,13.547,13.547,13.547c7.47,0,13.548-6.078,13.548-13.547
				C-779.12-365.077-785.199-371.154-792.668-371.154z"/>
		</g>
		<path fill="#000113" d="M-766.525-379.036c0,2.726-2.21,4.936-4.935,4.936c-2.727,0-4.937-2.21-4.937-4.936
			c0-2.727,2.21-4.935,4.937-4.935C-768.735-383.972-766.525-381.763-766.525-379.036z"/>
	</g>
</g>
<g>
	<rect x="-724.126" y="-407.677" fill="#FFFFFF" width="100" height="100"/>
	<path fill="#000113" d="M-670.389-307.677v-36.516h-11.918v-14.199h11.918v-12.933c0,0,0.467-14.531,14.795-16.047
		c0,0,7.449-0.688,14.746,0v12.95h-9.098c0,0-5.855,0.001-5.855,5.857c0,5.854,0,9.988,0,9.988h14.123l-2.342,14.19h-11.85v36.709
		H-670.389z"/>
</g>
<g>
	<rect x="-605.998" y="-407.677" fill="#FFFFFF" width="100" height="100"/>
	<path fill="#000113" d="M-515.998-382.914c-5.846,2.749-8.795,2.299-8.795,2.299c5.996-3.948,6.547-8.795,6.547-8.795
		c-4.998,3.147-10.586,3.94-10.586,3.94v0.004c-2.988-3.156-7.213-5.127-11.9-5.127c-9.053,0-16.391,7.338-16.391,16.391
		c0,1.23,0.141,2.428,0.396,3.58c-21.857-0.852-33.314-17.172-33.314-17.172c-7.063,13.991,4.797,22.119,4.797,22.119
		c-3.996-0.133-6.928-1.865-6.928-1.865c-0.4,13.326,12.637,16.123,12.637,16.123c-2.422,0.934-7.174,0.268-7.174,0.268
		c3.73,11.193,14.924,11.459,14.924,11.459c-8.262,8.795-24.213,6.873-24.213,6.873c8.873,6.081,19.904,9.096,31.426,7.732
		c24.644-2.919,42.424-24.801,40.48-49.326C-518.803-377.694-515.998-382.914-515.998-382.914z"/>
</g>
<g>
	<circle fill="#FFFFFF" cx="-994.214" cy="-491.677" r="60"/>
	<path fill="#000113" d="M-977.252-451.677h-33.925c-12.703,0-23.038-10.335-23.038-23.038v-33.925
		c0-12.703,10.334-23.038,23.038-23.038h33.925c12.703,0,23.038,10.334,23.038,23.038v33.925
		C-954.214-462.012-964.549-451.677-977.252-451.677z M-1011.177-524.364c-8.67,0-15.724,7.054-15.724,15.724v33.925
		c0,8.67,7.054,15.724,15.724,15.724h33.925c8.67,0,15.724-7.054,15.724-15.724v-33.925c0-8.67-7.054-15.724-15.724-15.724
		H-1011.177z"/>
	<path fill="#000113" d="M-994.351-470.747c-11.502,0-20.86-9.358-20.86-20.86c0-11.503,9.358-20.861,20.86-20.861
		c11.503,0,20.861,9.358,20.861,20.861C-973.49-480.105-982.848-470.747-994.351-470.747z M-994.351-505.154
		c-7.47,0-13.547,6.077-13.547,13.547c0,7.47,6.077,13.547,13.547,13.547c7.47,0,13.548-6.077,13.548-13.547
		C-980.803-499.077-986.882-505.154-994.351-505.154z"/>
	<path fill="#000113" d="M-968.208-513.037c0,2.726-2.21,4.936-4.935,4.936c-2.727,0-4.937-2.209-4.937-4.936
		c0-2.726,2.21-4.935,4.937-4.935C-970.418-517.972-968.208-515.762-968.208-513.037z"/>
</g>
<g>
	<circle fill="#FFFFFF" cx="-865.809" cy="-491.677" r="60"/>
	<path fill="#000113" d="M-862.073-431.677v-46.515h-11.918v-14.2h11.918v-12.932c0,0,0.467-14.531,14.795-16.047
		c0,0,7.448-0.689,14.746,0v12.951h-9.098c0,0-5.855,0.001-5.855,5.856c0,5.855,0,9.988,0,9.988h14.122l-2.342,14.191h-11.849
		v46.708H-862.073z"/>
</g>
<g>
	<circle fill="#FFFFFF" cx="-737.404" cy="-491.677" r="60"/>
	<path fill="#000113" d="M-697.748-478.59c-0.3,6.584-3.288,13.474-14.048,14.155c-10.76,0.682-42.443,0.598-51.111,0
		c-8.667-0.598-13.45-5.296-14.048-14.155c-0.598-8.859-0.598-18.209,0-26.387c0.598-8.177,4.882-13.044,14.048-13.857
		c9.167-0.813,44.137-0.697,51.708,0c7.572,0.697,12.852,5.296,13.451,13.857C-697.151-496.416-697.449-485.173-697.748-478.59z"/>
	<polygon fill="#FFFFFF" points="-744.974,-503.888 -744.974,-479.379 -725.048,-491.634 	"/>
</g>
<g>
	<path fill="#FFFFFF" d="M-735.011-101.667c-33,0-60,27-60,60s27,60,60,60s60-27,60-60S-702.011-101.667-735.011-101.667z
		 M-695.355-28.579c-0.3,6.583-3.288,13.473-14.048,14.154c-10.76,0.682-42.443,0.598-51.111,0
		c-8.667-0.598-13.45-5.295-14.048-14.154c-0.598-8.859-0.598-18.21,0-26.387c0.598-8.178,4.882-13.044,14.048-13.857
		c9.167-0.813,44.137-0.697,51.708,0c7.572,0.697,12.852,5.297,13.451,13.857C-694.758-46.405-695.056-35.163-695.355-28.579z"/>
	<polygon fill="#FFFFFF" points="-742.581,-29.369 -722.655,-41.624 -742.581,-53.878 	"/>
</g>
<g>
	<circle fill="#FFFFFF" cx="-608.999" cy="-491.677" r="60"/>
	<path fill="#000113" d="M-568.999-516.914c-5.846,2.748-8.794,2.299-8.794,2.299c5.996-3.948,6.546-8.795,6.546-8.795
		c-4.997,3.148-10.586,3.94-10.586,3.94v0.003c-2.987-3.155-7.213-5.126-11.9-5.126c-9.052,0-16.39,7.338-16.39,16.39
		c0,1.23,0.14,2.428,0.396,3.581c-21.858-0.853-33.314-17.173-33.314-17.173c-7.063,13.992,4.797,22.12,4.797,22.12
		c-3.997-0.133-6.929-1.866-6.929-1.866c-0.4,13.326,12.637,16.124,12.637,16.124c-2.421,0.933-7.174,0.267-7.174,0.267
		c3.731,11.193,14.924,11.46,14.924,11.46c-8.261,8.794-24.212,6.872-24.212,6.872c8.873,6.082,19.903,9.097,31.425,7.732
		c24.646-2.919,42.424-24.8,40.481-49.326C-571.803-511.694-568.999-516.914-568.999-516.914z"/>
</g>
<g>
	<path fill="#FFFFFF" d="M-977.252-74.354h-33.925c-8.67,0-15.724,7.054-15.724,15.724v33.926c0,8.67,7.054,15.724,15.724,15.724
		h33.925c8.67,0,15.724-7.054,15.724-15.724V-58.63C-961.528-67.3-968.582-74.354-977.252-74.354z M-994.351-20.736
		c-11.502,0-20.86-9.358-20.86-20.86c0-11.503,9.358-20.861,20.86-20.861c11.503,0,20.861,9.358,20.861,20.861
		C-973.49-30.095-982.848-20.736-994.351-20.736z M-973.142-58.091c-2.727,0-4.937-2.209-4.937-4.936
		c0-2.726,2.21-4.936,4.937-4.936c2.725,0,4.935,2.21,4.935,4.936C-968.208-60.3-970.418-58.091-973.142-58.091z"/>
	<path fill="#FFFFFF" d="M-994.351-55.144c-7.47,0-13.547,6.076-13.547,13.547c0,7.47,6.077,13.547,13.547,13.547
		c7.47,0,13.548-6.077,13.548-13.547C-980.803-49.067-986.882-55.144-994.351-55.144z"/>
	<path fill="#FFFFFF" d="M-994.214-101.667c-33,0-60,27-60,60s27,60,60,60s60-27,60-60S-961.214-101.667-994.214-101.667z
		 M-954.214-24.704c0,12.702-10.335,23.037-23.038,23.037h-33.925c-12.703,0-23.038-10.335-23.038-23.037V-58.63
		c0-12.703,10.334-23.037,23.038-23.037h33.925c12.703,0,23.038,10.334,23.038,23.037V-24.704z"/>
</g>
<g>
	<path fill="#FFFFFF" d="M-805.809-41.667c0-33-27-60-60-60s-60,27-60,60s27,60,60,60c1.256,0,2.499-0.052,3.736-0.129v-46.386
		h-11.918v-14.2h11.918v-12.932c0,0,0.467-14.531,14.795-16.047c0,0,7.448-0.689,14.746,0v12.95h-9.098c0,0-5.855,0.001-5.855,5.856
		c0,5.854,0,9.988,0,9.988h14.122l-2.342,14.19h-11.849v43.841C-823.409,7.694-805.809-15.026-805.809-41.667z"/>
</g>
<path fill="#FFFFFF" d="M-608.999-101.667c-33,0-60,27-60,60s27,60,60,60c33,0,60-27,60-60S-575.999-101.667-608.999-101.667z
	 M-577.093-58.401c1.943,24.526-15.835,46.408-40.481,49.326c-11.521,1.364-22.552-1.65-31.425-7.732c0,0,15.951,1.922,24.212-6.872
	c0,0-11.193-0.267-14.924-11.46c0,0,4.753,0.666,7.174-0.267c0,0-13.037-2.798-12.637-16.124c0,0,2.932,1.732,6.929,1.866
	c0,0-11.859-8.128-4.797-22.12c0,0,11.456,16.32,33.314,17.173c-0.257-1.153-0.396-2.351-0.396-3.581
	c0-9.052,7.338-16.391,16.39-16.391c4.688,0,8.913,1.972,11.9,5.127v-0.004c0,0,5.589-0.792,10.586-3.939
	c0,0-0.55,4.847-6.546,8.795c0,0,2.948,0.449,8.794-2.299C-568.999-66.903-571.803-61.685-577.093-58.401z"/>
<g>
	<path fill="#000113" d="M131.585-530.747c-33,0-60,27-60,60s27,59.999,60,59.999s60-26.999,60-59.999
		S164.585-530.747,131.585-530.747z M171.24-457.659c-0.3,6.583-3.288,13.473-14.049,14.154c-10.76,0.682-42.442,0.598-51.11,0
		c-8.667-0.598-13.45-5.295-14.048-14.154c-0.598-8.859-0.598-18.21,0-26.387c0.598-8.178,4.882-13.044,14.048-13.857
		c9.167-0.813,44.137-0.697,51.708,0c7.572,0.697,12.853,5.297,13.451,13.857C171.838-475.485,171.539-464.243,171.24-457.659z"/>
	<polygon fill="#000113" points="124.015,-458.449 143.942,-470.704 124.015,-482.958 	"/>
</g>
<g>
	<path fill="#000113" d="M-131.452-503.433h-33.925c-8.671,0-15.724,7.054-15.724,15.724v33.926c0,8.67,7.053,15.724,15.724,15.724
		h33.925c8.67,0,15.724-7.054,15.724-15.724v-33.926C-115.728-496.379-122.782-503.433-131.452-503.433z M-148.552-449.816
		c-11.502,0-20.86-9.358-20.86-20.86c0-11.503,9.358-20.861,20.86-20.861c11.503,0,20.861,9.358,20.861,20.861
		C-127.69-459.174-137.049-449.816-148.552-449.816z M-127.343-487.17c-2.727,0-4.937-2.209-4.937-4.935
		c0-2.726,2.21-4.936,4.937-4.936c2.725,0,4.935,2.21,4.935,4.936C-122.408-489.379-124.618-487.17-127.343-487.17z"/>
	<path fill="#000113" d="M-148.552-484.223c-7.47,0-13.547,6.076-13.547,13.547c0,7.47,6.077,13.547,13.547,13.547
		c7.47,0,13.548-6.077,13.548-13.547C-135.004-478.147-141.082-484.223-148.552-484.223z"/>
	<path fill="#000113" d="M-148.415-530.747c-33,0-60,27-60,60s27,59.999,60,59.999s60-26.999,60-59.999
		S-115.415-530.747-148.415-530.747z M-108.414-453.784c0,12.702-10.335,23.037-23.038,23.037h-33.925
		c-12.703,0-23.038-10.335-23.038-23.037v-33.926c0-12.703,10.335-23.037,23.038-23.037h33.925
		c12.703,0,23.038,10.334,23.038,23.037V-453.784z"/>
</g>
<g>
	<path fill="#000113" d="M51.585-470.747c0-33-27-60-60-60s-60,27-60,60s27,59.999,60,59.999c1.256,0,2.498-0.051,3.736-0.129
		v-46.385h-11.918v-14.2h11.918v-12.932c0,0,0.467-14.531,14.795-16.047c0,0,7.448-0.689,14.746,0v12.95h-9.098
		c0,0-5.855,0.001-5.855,5.856c0,5.854,0,9.988,0,9.988h14.122l-2.342,14.19H9.841v43.84
		C33.985-421.386,51.585-444.106,51.585-470.747z"/>
</g>
<path fill="#000113" d="M271.585-530.676c-33,0-60,27-60,60s27,59.999,60,59.999s60-26.999,60-59.999
	S304.585-530.676,271.585-530.676z M303.491-487.41c1.943,24.526-15.835,46.408-40.48,49.326
	c-11.521,1.364-22.552-1.65-31.425-7.733c0,0,15.951,1.922,24.212-6.872c0,0-11.193-0.267-14.924-11.46c0,0,4.753,0.666,7.174-0.267
	c0,0-13.037-2.798-12.637-16.124c0,0,2.932,1.732,6.929,1.866c0,0-11.859-8.128-4.797-22.12c0,0,11.456,16.32,33.314,17.173
	c-0.257-1.153-0.397-2.351-0.397-3.581c0-9.052,7.338-16.391,16.39-16.391c4.688,0,8.913,1.972,11.9,5.127v-0.004
	c0,0,5.589-0.792,10.586-3.94c0,0-0.55,4.847-6.546,8.795c0,0,2.948,0.449,8.794-2.299
	C311.585-495.912,308.781-490.693,303.491-487.41z"/>
<g>
	<circle fill="#FFFFFF" cx="-146.343" cy="-661.382" r="60"/>
	<path fill="#000113" d="M-106.343-686.619c-5.846,2.748-8.794,2.299-8.794,2.299c5.996-3.948,6.546-8.795,6.546-8.795
		c-4.997,3.148-10.586,3.94-10.586,3.94v0.003c-2.987-3.155-7.213-5.126-11.9-5.126c-9.052,0-16.39,7.338-16.39,16.39
		c0,1.231,0.14,2.428,0.396,3.581c-21.858-0.853-33.314-17.173-33.314-17.173c-7.063,13.992,4.797,22.12,4.797,22.12
		c-3.997-0.133-6.929-1.866-6.929-1.866c-0.4,13.326,12.637,16.124,12.637,16.124c-2.421,0.933-7.174,0.267-7.174,0.267
		c3.73,11.193,14.924,11.46,14.924,11.46c-8.261,8.794-24.212,6.872-24.212,6.872c8.873,6.081,19.903,9.097,31.425,7.732
		c24.646-2.919,42.424-24.8,40.48-49.326C-109.146-681.399-106.343-686.619-106.343-686.619z"/>
</g>
<g>
	<polygon fill="#FFFFFF" points="-982.486,-290.128 -971.686,-345.974 -982.486,-401.819 -947.334,-345.974 	"/>
</g>
<g>
	<polygon fill="#FFFFFF" points="-1006.217,-290.128 -1017.016,-345.974 -1006.217,-401.819 -1041.367,-345.974 	"/>
</g>
<polygon fill="#FFFFFF" points="-948.154,-146.446 -1024.278,-146.446 -960.402,-206.446 -884.278,-206.446 "/>
<g>
	<polygon fill="#000113" points="-146.569,-195.985 -135.769,-251.831 -146.569,-307.677 -111.418,-251.831 	"/>
</g>
<g>
	<polygon fill="#000113" points="-170.301,-195.985 -181.099,-251.831 -170.301,-307.677 -205.451,-251.831 	"/>
</g>
<polygon fill="#000113" points="105.114,-221.831 28.99,-221.831 92.865,-281.831 168.99,-281.831 "/>
<g>
	<path fill="#000113" d="M-773.605-824.59c-0.3,6.583-3.288,13.474-14.048,14.155c-10.76,0.682-42.443,0.598-51.111,0
		c-8.667-0.598-13.45-5.296-14.048-14.155c-0.598-8.859-0.598-18.21,0-26.387c0.598-8.177,4.882-13.044,14.048-13.857
		c9.167-0.813,44.137-0.697,51.708,0c7.572,0.697,12.852,5.296,13.451,13.857C-773.008-842.416-773.306-831.173-773.605-824.59z"/>
</g>
<g>
	<polygon fill="#FFFFFF" points="-712.544,-849.888 -712.544,-825.379 -692.618,-837.634 	"/>
</g>
<polygon fill="#000113" points="8.99,-276.934 -41.214,-226.729 -91.418,-276.934 "/>
<polygon fill="#6609B7" points="-231.637,-38.855 -281.842,11.351 -332.046,-38.855 "/>
<polygon fill="#FFD700" points="259.514,-55.957 251.514,-47.957 243.514,-55.957 "/>
<polygon fill="#FFD700" points="259.514,-55.957 251.514,-63.957 243.514,-55.957 "/>
<circle fill="none" stroke="#FFFFFF" stroke-width="7" stroke-miterlimit="10" cx="-455.046" cy="-855.382" r="80"/>
<circle fill="none" stroke="#FFFFFF" stroke-width="7" stroke-miterlimit="10" cx="-269.816" cy="-855.382" r="80"/>
<circle fill="none" stroke="#FFFFFF" stroke-width="7" stroke-miterlimit="10" cx="-86.343" cy="-855.382" r="80"/>
<path fill="none" stroke="#FFFFFF" stroke-width="7" stroke-miterlimit="10" d="M-407.423-835.449c0,9.231-6.6,16.713-14.741,16.713
	h-65.772c-8.142,0-14.741-7.483-14.741-16.713v-29.572c0-9.23,6.6-16.713,14.741-16.713h65.772c8.142,0,14.741,7.482,14.741,16.713
	V-835.449z"/>
<path fill="none" stroke="#FFFFFF" stroke-width="7" stroke-miterlimit="10" d="M-438.763-850.235
	c0,8.995-7.291,16.286-16.286,16.286c-8.995,0-16.286-7.292-16.286-16.286c0-8.995,7.291-16.287,16.286-16.287
	C-446.054-866.521-438.763-859.23-438.763-850.235z"/>
<path fill="none" stroke="#FFFFFF" stroke-width="7" stroke-miterlimit="10" d="M-442.401-884.228c0,1.377-1.343,2.494-3,2.494
	h-19.297c-1.657,0-3-1.117-3-2.494v-8.727c0-1.377,1.343-2.494,3-2.494h19.297c1.657,0,3,1.117,3,2.494V-884.228z"/>
<path fill="#FFFFFF" d="M-483.55-883.234c0,0.829-0.691,1.5-1.542,1.5h-9.916c-0.852,0-1.542-0.671-1.542-1.5v-5.25
	c0-0.829,0.69-1.5,1.542-1.5h9.916c0.852,0,1.542,0.671,1.542,1.5V-883.234z"/>
<path fill="#FFFFFF" d="M-418.051-866.521c0,3.313-2.685,6-5.999,6c-3.315,0-5.999-2.687-5.999-6c0-3.313,2.685-6,5.999-6
	C-420.735-872.521-418.051-869.834-418.051-866.521z"/>
<path fill="none" stroke="#FFFFFF" stroke-width="7" stroke-miterlimit="10" d="M-246.974-815.887h-49.683
	c-8.03,0-14.541-6.509-14.541-14.54h49.683C-261.515-822.396-255.004-815.887-246.974-815.887c8.03,0,14.541-6.509,14.541-14.54
	v-64.449h-64.224v64.449"/>
<path fill="none" stroke="#FFFFFF" stroke-width="7" stroke-miterlimit="10" d="M-303.263-810.538"/>
<line fill="none" stroke="#FFFFFF" stroke-width="7" stroke-linecap="round" stroke-miterlimit="10" x1="-285.35" y1="-881.309" x2="-243.514" y2="-881.309"/>
<line fill="none" stroke="#FFFFFF" stroke-width="7" stroke-linecap="round" stroke-miterlimit="10" x1="-285.35" y1="-868.269" x2="-243.514" y2="-868.269"/>
<line fill="none" stroke="#FFFFFF" stroke-width="7" stroke-linecap="round" stroke-miterlimit="10" x1="-285.35" y1="-855.227" x2="-243.514" y2="-855.227"/>
<line fill="none" stroke="#FFFFFF" stroke-width="7" stroke-linecap="round" stroke-miterlimit="10" x1="-285.35" y1="-842.187" x2="-243.514" y2="-842.187"/>
<polygon fill="none" stroke="#FFFFFF" stroke-width="7" stroke-linejoin="round" stroke-miterlimit="10" points="-48.947,-855.228 
	-105.884,-822.354 -105.884,-888.1 "/>
<circle fill="none" stroke="#FFFFFF" stroke-width="7" stroke-miterlimit="10" cx="94.39" cy="-855.382" r="80"/>
<g>
	<path fill="#FFFFFF" d="M-455.046-1129.906c-46.042,0-83.5,37.458-83.5,83.5s37.458,83.5,83.5,83.5s83.5-37.458,83.5-83.5
		S-409.004-1129.906-455.046-1129.906z M-455.046-969.906c-42.183,0-76.5-34.318-76.5-76.5c0-42.182,34.317-76.5,76.5-76.5
		s76.5,34.318,76.5,76.5C-378.546-1004.224-412.863-969.906-455.046-969.906z"/>
	<path fill="#FFFFFF" d="M-422.164-1076.259h-16.737v-7.721c0-3.305-2.916-5.994-6.5-5.994h-19.297c-3.584,0-6.5,2.689-6.5,5.994
		v7.721h-12.351v-3.25c0-0.828-0.691-1.5-1.542-1.5h-9.916c-0.852,0-1.542,0.672-1.542,1.5v5.25c0,0.13,0.022,0.255,0.055,0.375
		c-5.754,3.404-9.682,10.119-9.682,17.838v29.572c0,11.146,8.183,20.213,18.241,20.213h65.772c10.059,0,18.241-9.068,18.241-20.213
		v-29.572C-403.923-1067.191-412.105-1076.259-422.164-1076.259z M-464.198-1076.26v-6.713l18.297,0.001v6.713L-464.198-1076.26z
		 M-410.923-1026.474c0,7.286-5.043,13.213-11.241,13.213h-65.772c-6.198,0-11.241-5.928-11.241-13.213v-29.572
		c0-7.286,5.043-13.213,11.241-13.213h23.237h19.297h23.237c6.198,0,11.241,5.927,11.241,13.213V-1026.474z"/>
	<path fill="#FFFFFF" d="M-455.05-1061.046c-10.91,0-19.786,8.876-19.786,19.787s8.876,19.786,19.786,19.786
		c10.91,0,19.786-8.876,19.786-19.786S-444.139-1061.046-455.05-1061.046z M-455.05-1028.473c-7.051,0-12.786-5.736-12.786-12.786
		c0-7.051,5.735-12.787,12.786-12.787c7.051,0,12.786,5.736,12.786,12.787C-442.263-1034.209-447.999-1028.473-455.05-1028.473z"/>
	<path fill="#FFFFFF" d="M-424.05-1063.545c-3.315,0-5.999,2.686-5.999,6c0,3.313,2.685,5.999,5.999,5.999
		c3.314,0,5.999-2.686,5.999-5.999C-418.051-1060.859-420.735-1063.545-424.05-1063.545z"/>
</g>
<g>
	<path fill="#FFFFFF" d="M-269.816-1129.906c-46.042,0-83.5,37.458-83.5,83.5s37.458,83.5,83.5,83.5s83.5-37.458,83.5-83.5
		S-223.774-1129.906-269.816-1129.906z M-269.816-969.906c-42.183,0-76.5-34.318-76.5-76.5c0-42.182,34.317-76.5,76.5-76.5
		s76.5,34.318,76.5,76.5C-193.316-1004.224-227.634-969.906-269.816-969.906z"/>
	<path fill="#FFFFFF" d="M-300.157-1024.952h-14.541v3.5c0,9.948,8.093,18.04,18.041,18.04h49.683
		c9.948,0,18.041-8.093,18.041-18.04v-67.949h-71.224V-1024.952z M-296.657-1010.412c-4.865,0-9.006-3.163-10.473-7.54h42.455
		c0.553,2.798,1.754,5.367,3.441,7.54H-296.657z M-293.157-1082.401h57.224v60.949c0,6.088-4.953,11.04-11.041,11.04
		c-6.088,0-11.041-4.953-11.041-11.04v-3.5h-35.142V-1082.401z"/>
	<path fill="#FFFFFF" d="M-285.35-1068.833h41.836c1.933,0,3.5-1.567,3.5-3.5s-1.567-3.5-3.5-3.5h-41.836
		c-1.933,0-3.5,1.567-3.5,3.5S-287.283-1068.833-285.35-1068.833z"/>
	<path fill="#FFFFFF" d="M-285.35-1055.793h41.836c1.933,0,3.5-1.567,3.5-3.5s-1.567-3.5-3.5-3.5h-41.836
		c-1.933,0-3.5,1.567-3.5,3.5S-287.283-1055.793-285.35-1055.793z"/>
	<path fill="#FFFFFF" d="M-285.35-1042.751h41.836c1.933,0,3.5-1.567,3.5-3.5s-1.567-3.5-3.5-3.5h-41.836
		c-1.933,0-3.5,1.567-3.5,3.5S-287.283-1042.751-285.35-1042.751z"/>
	<path fill="#FFFFFF" d="M-240.014-1033.211c0-1.933-1.567-3.5-3.5-3.5h-41.836c-1.933,0-3.5,1.567-3.5,3.5s1.567,3.5,3.5,3.5
		h41.836C-241.582-1029.711-240.014-1031.278-240.014-1033.211z"/>
</g>
<g>
	<path fill="#FFFFFF" d="M-86.343-1129.906c-46.042,0-83.5,37.458-83.5,83.5s37.458,83.5,83.5,83.5s83.5-37.458,83.5-83.5
		S-40.301-1129.906-86.343-1129.906z M-86.343-969.906c-42.183,0-76.5-34.318-76.5-76.5c0-42.182,34.317-76.5,76.5-76.5
		s76.5,34.318,76.5,76.5C-9.843-1004.224-44.16-969.906-86.343-969.906z"/>
	<path fill="#FFFFFF" d="M-47.197-1049.283l-56.937-32.872c-1.082-0.625-2.418-0.625-3.5,0c-1.083,0.625-1.75,1.781-1.75,3.031
		v65.746c0,1.251,0.667,2.406,1.75,3.031c0.541,0.313,1.145,0.469,1.75,0.469c0.604,0,1.209-0.156,1.75-0.469l56.937-32.874
		c1.083-0.625,1.75-1.781,1.75-3.031S-46.114-1048.658-47.197-1049.283z M-102.384-1019.441v-53.621l46.437,26.81L-102.384-1019.441
		z"/>
</g>
<polygon fill="none" stroke="#FFFFFF" stroke-width="6" stroke-linejoin="round" stroke-miterlimit="10" points="133.341,-824.827 
	61.059,-824.827 49.817,-874.622 144.586,-874.622 "/>
<g>
	
		<line fill="none" stroke="#FFFFFF" stroke-width="6" stroke-linecap="round" stroke-linejoin="round" stroke-miterlimit="10" x1="69.894" y1="-859.362" x2="77.525" y2="-859.362"/>
	
		<line fill="none" stroke="#FFFFFF" stroke-width="6" stroke-linecap="round" stroke-linejoin="round" stroke-miterlimit="10" x1="93.185" y1="-859.362" x2="100.814" y2="-859.362"/>
	
		<line fill="none" stroke="#FFFFFF" stroke-width="6" stroke-linecap="round" stroke-linejoin="round" stroke-miterlimit="10" x1="116.476" y1="-859.362" x2="124.106" y2="-859.362"/>
</g>
<g>
	
		<line fill="none" stroke="#FFFFFF" stroke-width="6" stroke-linecap="round" stroke-linejoin="round" stroke-miterlimit="10" x1="69.894" y1="-849.725" x2="77.525" y2="-849.725"/>
	
		<line fill="none" stroke="#FFFFFF" stroke-width="6" stroke-linecap="round" stroke-linejoin="round" stroke-miterlimit="10" x1="93.185" y1="-849.725" x2="100.814" y2="-849.725"/>
	
		<line fill="none" stroke="#FFFFFF" stroke-width="6" stroke-linecap="round" stroke-linejoin="round" stroke-miterlimit="10" x1="116.476" y1="-849.725" x2="124.106" y2="-849.725"/>
</g>
<g>
	
		<line fill="none" stroke="#FFFFFF" stroke-width="6" stroke-linecap="round" stroke-linejoin="round" stroke-miterlimit="10" x1="69.894" y1="-840.086" x2="77.525" y2="-840.086"/>
	
		<line fill="none" stroke="#FFFFFF" stroke-width="6" stroke-linecap="round" stroke-linejoin="round" stroke-miterlimit="10" x1="93.185" y1="-840.086" x2="100.814" y2="-840.086"/>
	
		<line fill="none" stroke="#FFFFFF" stroke-width="6" stroke-linecap="round" stroke-linejoin="round" stroke-miterlimit="10" x1="116.476" y1="-840.086" x2="124.106" y2="-840.086"/>
</g>
<polyline fill="none" stroke="#FFFFFF" stroke-width="6" stroke-linecap="round" stroke-linejoin="round" stroke-miterlimit="10" points="
	77.525,-874.622 44.194,-893.094 59.253,-893.094 92.783,-874.622 "/>
<path fill="none" stroke="#FFFFFF" stroke-width="6" stroke-linecap="round" stroke-linejoin="round" stroke-miterlimit="10" d="
	M86.736-815.993c0,4.768-3.864,8.633-8.633,8.633c-4.769,0-8.635-3.865-8.635-8.633c0-4.769,3.866-8.634,8.635-8.634
	C82.871-824.626,86.736-820.761,86.736-815.993z"/>
<path fill="none" stroke="#FFFFFF" stroke-width="6" stroke-linecap="round" stroke-linejoin="round" stroke-miterlimit="10" d="
	M125.333-815.993c0,4.768-3.864,8.633-8.633,8.633c-4.77,0-8.634-3.865-8.634-8.633c0-4.769,3.864-8.634,8.634-8.634
	C121.469-824.626,125.333-820.761,125.333-815.993z"/>
<g>
	<path fill="#FFFFFF" d="M94.39-1129.751c-46.042,0-83.5,37.458-83.5,83.5s37.458,83.5,83.5,83.5s83.5-37.458,83.5-83.5
		S140.432-1129.751,94.39-1129.751z M94.39-969.751c-42.183,0-76.5-34.318-76.5-76.5s34.317-76.5,76.5-76.5s76.5,34.318,76.5,76.5
		S136.572-969.751,94.39-969.751z"/>
	<path fill="#FFFFFF" d="M144.586-1068.491H93.554l-32.854-18.1c-0.443-0.245-0.941-0.373-1.447-0.373h-15.06
		c-1.367,0-2.563,0.925-2.904,2.249c-0.343,1.324,0.254,2.712,1.45,3.375l23.184,12.848H49.817c-0.912,0-1.774,0.415-2.344,1.127
		c-0.568,0.712-0.783,1.645-0.583,2.534l11.242,49.794c0.31,1.368,1.524,2.339,2.927,2.339h6.994
		c-1.001,1.718-1.585,3.707-1.585,5.834c0,6.415,5.22,11.633,11.635,11.633c6.414,0,11.633-5.219,11.633-11.633
		c0-2.127-0.584-4.117-1.585-5.834h18.501c-1.002,1.718-1.585,3.707-1.585,5.834c0,6.415,5.219,11.633,11.634,11.633
		c6.414,0,11.633-5.219,11.633-11.633c0-2.127-0.584-4.117-1.585-5.834h6.593c1.402,0,2.617-0.971,2.927-2.339l11.245-49.794
		c0.2-0.889-0.014-1.822-0.583-2.534C146.361-1068.077,145.498-1068.491,144.586-1068.491z M78.103-1001.229
		c-3.107,0-5.635-2.527-5.635-5.633c0-3.106,2.527-5.634,5.635-5.634c3.105,0,5.633,2.527,5.633,5.634
		C83.736-1003.756,81.208-1001.229,78.103-1001.229z M116.7-1001.229c-3.106,0-5.634-2.527-5.634-5.633
		c0-3.106,2.527-5.634,5.634-5.634c3.105,0,5.633,2.527,5.633,5.634C122.333-1003.756,119.806-1001.229,116.7-1001.229z
		 M55.796-1080.963h2.686l22.64,12.472H78.3L55.796-1080.963z M130.943-1018.697H63.457l-9.888-43.794h39.207c0,0,0.003,0,0.004,0
		c0,0,0.002,0,0.004,0h48.049L130.943-1018.697z"/>
	<path fill="#FFFFFF" d="M77.525-1053.232h-7.631c-1.657,0-3,1.343-3,3s1.343,3,3,3h7.631c1.657,0,3-1.343,3-3
		S79.182-1053.232,77.525-1053.232z"/>
	<path fill="#FFFFFF" d="M90.185-1050.232c0,1.657,1.343,3,3,3h7.629c1.657,0,3-1.343,3-3s-1.343-3-3-3h-7.629
		C91.528-1053.232,90.185-1051.889,90.185-1050.232z"/>
	<path fill="#FFFFFF" d="M116.476-1047.232h7.63c1.657,0,3-1.343,3-3s-1.343-3-3-3h-7.63c-1.657,0-3,1.343-3,3
		S114.819-1047.232,116.476-1047.232z"/>
	<path fill="#FFFFFF" d="M77.525-1043.594h-7.631c-1.657,0-3,1.343-3,3s1.343,3,3,3h7.631c1.657,0,3-1.343,3-3
		S79.182-1043.594,77.525-1043.594z"/>
	<path fill="#FFFFFF" d="M100.814-1043.594h-7.629c-1.657,0-3,1.343-3,3s1.343,3,3,3h7.629c1.657,0,3-1.343,3-3
		S102.471-1043.594,100.814-1043.594z"/>
	<path fill="#FFFFFF" d="M116.476-1037.594h7.63c1.657,0,3-1.343,3-3s-1.343-3-3-3h-7.63c-1.657,0-3,1.343-3,3
		S114.819-1037.594,116.476-1037.594z"/>
	<path fill="#FFFFFF" d="M77.525-1033.956h-7.631c-1.657,0-3,1.343-3,3c0,1.657,1.343,3,3,3h7.631c1.657,0,3-1.343,3-3
		C80.525-1032.613,79.182-1033.956,77.525-1033.956z"/>
	<path fill="#FFFFFF" d="M100.814-1033.956h-7.629c-1.657,0-3,1.343-3,3c0,1.657,1.343,3,3,3h7.629c1.657,0,3-1.343,3-3
		C103.814-1032.613,102.471-1033.956,100.814-1033.956z"/>
	<path fill="#FFFFFF" d="M116.476-1027.956h7.63c1.657,0,3-1.343,3-3c0-1.657-1.343-3-3-3h-7.63c-1.657,0-3,1.343-3,3
		C113.476-1029.299,114.819-1027.956,116.476-1027.956z"/>
</g>
<g>
	<g>
		<path fill="#000113" d="M411.585-530.754c-33.084,0-60,26.916-60,60s26.916,60,60,60c33.084,0,60-26.916,60-60
			S444.669-530.754,411.585-530.754z M411.585-415.784c-30.311,0-54.97-24.659-54.97-54.97c0-30.31,24.659-54.97,54.97-54.97
			c30.311,0,54.97,24.659,54.97,54.97C466.555-440.443,441.896-415.784,411.585-415.784z"/>
		<path fill="#000113" d="M435.213-492.205h-12.027v-5.548c0-2.374-2.095-4.307-4.671-4.307H404.65
			c-2.575,0-4.671,1.933-4.671,4.307v5.548h-8.875v-2.335c0-0.595-0.496-1.078-1.108-1.078h-7.125c-0.612,0-1.108,0.483-1.108,1.078
			v3.773c0,0.094,0.017,0.183,0.039,0.27c-4.134,2.446-6.956,7.271-6.956,12.817v21.25c0,8.009,5.879,14.523,13.107,14.523h47.261
			c7.228,0,13.107-6.515,13.107-14.523v-21.25C448.321-485.689,442.441-492.205,435.213-492.205z M405.009-492.205v-4.825
			l13.147,0.002v4.823H405.009z M443.29-456.431c0,5.234-3.624,9.494-8.077,9.494h-47.261c-4.454,0-8.078-4.26-8.078-9.494v-21.25
			c0-5.234,3.624-9.494,8.078-9.494h16.697h13.865h16.698c4.453,0,8.077,4.26,8.077,9.494V-456.431z"/>
		<path fill="#000113" d="M411.582-481.273c-7.84,0-14.218,6.379-14.218,14.219c0,7.839,6.378,14.217,14.218,14.217
			c7.84,0,14.218-6.378,14.218-14.217C425.8-474.895,419.422-481.273,411.582-481.273z M411.582-457.868
			c-5.066,0-9.188-4.121-9.188-9.187c0-5.067,4.121-9.188,9.188-9.188c5.066,0,9.188,4.121,9.188,9.188
			C420.77-461.989,416.649-457.868,411.582-457.868z"/>
		<path fill="#000113" d="M433.858-483.069c-2.382,0-4.311,1.931-4.311,4.311c0,2.381,1.929,4.312,4.311,4.312
			s4.31-1.931,4.31-4.312C438.168-481.139,436.239-483.069,433.858-483.069z"/>
	</g>
	<g>
		<path fill="#000113" d="M551.585-530.754c-33.084,0-60,26.916-60,60s26.916,60,60,60c33.084,0,60-26.916,60-60
			S584.669-530.754,551.585-530.754z M551.585-415.784c-30.31,0-54.97-24.659-54.97-54.97c0-30.31,24.659-54.97,54.97-54.97
			c30.311,0,54.97,24.659,54.97,54.97C606.555-440.443,581.896-415.784,551.585-415.784z"/>
		<path fill="#000113" d="M529.783-455.338h-10.449v2.515c0,7.148,5.815,12.964,12.964,12.964h35.7
			c7.148,0,12.964-5.815,12.964-12.964v-48.825h-51.179V-455.338z M532.298-444.89c-3.496,0-6.471-2.273-7.525-5.418h30.507
			c0.397,2.011,1.261,3.856,2.473,5.418H532.298z M534.814-496.618h41.118v43.795c0,4.375-3.559,7.934-7.934,7.934
			c-4.374,0-7.934-3.559-7.934-7.934v-2.515h-25.251V-496.618z"/>
		<path fill="#000113" d="M540.423-486.869h30.062c1.389,0,2.515-1.125,2.515-2.515c0-1.39-1.126-2.515-2.515-2.515h-30.062
			c-1.389,0-2.515,1.125-2.515,2.515C537.908-487.994,539.034-486.869,540.423-486.869z"/>
		<path fill="#000113" d="M540.423-477.499h30.062c1.389,0,2.515-1.126,2.515-2.515c0-1.389-1.126-2.515-2.515-2.515h-30.062
			c-1.389,0-2.515,1.126-2.515,2.515C537.908-478.625,539.034-477.499,540.423-477.499z"/>
		<path fill="#000113" d="M540.423-468.127h30.062c1.389,0,2.515-1.127,2.515-2.516c0-1.39-1.126-2.515-2.515-2.515h-30.062
			c-1.389,0-2.515,1.125-2.515,2.515C537.908-469.254,539.034-468.127,540.423-468.127z"/>
		<path fill="#000113" d="M572.999-461.272c0-1.389-1.126-2.515-2.515-2.515h-30.062c-1.389,0-2.515,1.126-2.515,2.515
			c0,1.389,1.126,2.516,2.515,2.516h30.062C571.873-458.757,572.999-459.884,572.999-461.272z"/>
	</g>
	<g>
		<path fill="#000113" d="M691.585-530.754c-33.084,0-60,26.916-60,60s26.916,60,60,60c33.084,0,60-26.916,60-60
			S724.669-530.754,691.585-530.754z M691.585-415.784c-30.31,0-54.97-24.659-54.97-54.97c0-30.31,24.659-54.97,54.97-54.97
			c30.311,0,54.97,24.659,54.97,54.97C746.555-440.443,721.896-415.784,691.585-415.784z"/>
		<path fill="#000113" d="M719.714-472.821l-40.913-23.62c-0.777-0.449-1.737-0.449-2.515,0c-0.778,0.448-1.258,1.279-1.258,2.178
			v47.243c0,0.898,0.479,1.728,1.258,2.178c0.389,0.225,0.823,0.337,1.258,0.337c0.434,0,0.868-0.112,1.257-0.337l40.913-23.622
			c0.777-0.45,1.257-1.279,1.257-2.178C720.971-471.542,720.491-472.371,719.714-472.821z M680.059-451.377v-38.53l33.367,19.265
			L680.059-451.377z"/>
	</g>
	<g>
		<path fill="#000113" d="M831.585-530.599c-33.084,0-60,26.915-60,60c0,33.083,26.916,60,60,60c33.084,0,60-26.917,60-60
			C891.585-503.684,864.669-530.599,831.585-530.599z M831.585-415.629c-30.31,0-54.97-24.659-54.97-54.97
			c0-30.31,24.659-54.97,54.97-54.97c30.311,0,54.97,24.659,54.97,54.97C886.555-440.288,861.896-415.629,831.585-415.629z"/>
		<path fill="#000113" d="M867.655-486.58h-36.67l-23.607-13.005c-0.318-0.176-0.677-0.269-1.04-0.269h-10.821
			c-0.982,0-1.841,0.665-2.087,1.617c-0.246,0.951,0.183,1.947,1.042,2.425l16.659,9.232h-11.573c-0.655,0-1.275,0.298-1.685,0.81
			c-0.408,0.511-0.563,1.182-0.419,1.82l8.078,35.78c0.223,0.983,1.096,1.682,2.104,1.682h5.025
			c-0.72,1.233-1.139,2.664-1.139,4.191c0,4.609,3.751,8.359,8.36,8.359c4.608,0,8.358-3.75,8.358-8.359
			c0-1.527-0.419-2.958-1.139-4.191h13.294c-0.72,1.233-1.139,2.664-1.139,4.191c0,4.609,3.75,8.359,8.359,8.359
			c4.609,0,8.359-3.75,8.359-8.359c0-1.527-0.42-2.958-1.139-4.191h4.737c1.007,0,1.88-0.698,2.102-1.682l8.08-35.78
			c0.144-0.639-0.01-1.31-0.419-1.82C868.929-486.282,868.31-486.58,867.655-486.58z M819.882-438.248
			c-2.233,0-4.049-1.815-4.049-4.048c0-2.231,1.815-4.048,4.049-4.048c2.232,0,4.047,1.816,4.047,4.048
			C823.929-440.063,822.114-438.248,819.882-438.248z M847.616-438.248c-2.232,0-4.048-1.815-4.048-4.048
			c0-2.231,1.815-4.048,4.048-4.048c2.231,0,4.048,1.816,4.048,4.048C851.664-440.063,849.848-438.248,847.616-438.248z
			 M803.853-495.542h1.93l16.269,8.962h-2.027L803.853-495.542z M857.851-450.799h-48.492l-7.105-31.47h28.173h0.003
			c0,0,0.001,0,0.003,0h34.525L857.851-450.799z"/>
		<path fill="#000113" d="M819.466-475.614h-5.482c-1.191,0-2.156,0.965-2.156,2.155c0,1.19,0.965,2.156,2.156,2.156h5.482
			c1.191,0,2.156-0.966,2.156-2.156C821.622-474.649,820.657-475.614,819.466-475.614z"/>
		<path fill="#000113" d="M828.564-473.459c0,1.19,0.965,2.156,2.155,2.156h5.482c1.19,0,2.155-0.966,2.155-2.156
			c0-1.191-0.965-2.155-2.155-2.155h-5.482C829.529-475.614,828.564-474.649,828.564-473.459z"/>
		<path fill="#000113" d="M847.455-471.303h5.482c1.19,0,2.155-0.966,2.155-2.156c0-1.191-0.965-2.155-2.155-2.155h-5.482
			c-1.19,0-2.155,0.965-2.155,2.155C845.3-472.269,846.265-471.303,847.455-471.303z"/>
		<path fill="#000113" d="M819.466-468.69h-5.482c-1.191,0-2.156,0.966-2.156,2.156c0,1.19,0.965,2.155,2.156,2.155h5.482
			c1.191,0,2.156-0.965,2.156-2.155C821.622-467.725,820.657-468.69,819.466-468.69z"/>
		<path fill="#000113" d="M836.201-468.69h-5.482c-1.19,0-2.155,0.966-2.155,2.156c0,1.19,0.965,2.155,2.155,2.155h5.482
			c1.19,0,2.155-0.965,2.155-2.155C838.357-467.725,837.392-468.69,836.201-468.69z"/>
		<path fill="#000113" d="M847.455-464.379h5.482c1.19,0,2.155-0.965,2.155-2.155c0-1.191-0.965-2.156-2.155-2.156h-5.482
			c-1.19,0-2.155,0.966-2.155,2.156C845.3-465.344,846.265-464.379,847.455-464.379z"/>
		<path fill="#000113" d="M819.466-461.764h-5.482c-1.191,0-2.156,0.965-2.156,2.155c0,1.19,0.965,2.156,2.156,2.156h5.482
			c1.191,0,2.156-0.966,2.156-2.156C821.622-460.799,820.657-461.764,819.466-461.764z"/>
		<path fill="#000113" d="M836.201-461.764h-5.482c-1.19,0-2.155,0.965-2.155,2.155c0,1.19,0.965,2.156,2.155,2.156h5.482
			c1.19,0,2.155-0.966,2.155-2.156C838.357-460.799,837.392-461.764,836.201-461.764z"/>
		<path fill="#000113" d="M847.455-457.452h5.482c1.19,0,2.155-0.966,2.155-2.156c0-1.19-0.965-2.155-2.155-2.155h-5.482
			c-1.19,0-2.155,0.965-2.155,2.155C845.3-458.418,846.265-457.452,847.455-457.452z"/>
	</g>
</g>
<g>
	<path d="M13.206-376.688c-8.066-8.07-21.193-8.07-29.262,0c-8.066,8.068-8.07,21.193,0,29.266
		c7.299,7.301,18.734,7.969,26.824,2.057l11.02,11.022c1.246,1.244,3.26,1.244,4.5,0c1.242-1.242,1.242-3.256,0-4.496
		l-11.021-11.022C21.181-357.952,20.509-369.386,13.206-376.688z M8.708-351.923c-5.586,5.584-14.68,5.588-20.266,0
		c-5.588-5.586-5.588-14.678,0-20.266c5.586-5.592,14.68-5.592,20.266,0C14.296-366.601,14.296-357.509,8.708-351.923z"/>
</g>
<path d="M-170.868-358.075l18.35-18.35c1.445-1.445,1.445-3.786,0-5.231c-1.445-1.445-3.786-1.445-5.231,0l-18.351,18.35
	l-18.351-18.35c-1.445-1.445-3.786-1.445-5.231,0c-1.445,1.445-1.445,3.786,0,5.231l18.352,18.35l-18.347,18.347
	c-1.445,1.445-1.445,3.786,0,5.231c0.722,0.723,1.67,1.084,2.615,1.084c0.947,0,1.893-0.361,2.616-1.084l18.346-18.347
	l18.351,18.347c0.723,0.723,1.668,1.084,2.615,1.084c0.946,0,1.894-0.361,2.616-1.084c1.445-1.445,1.445-3.786,0-5.231
	L-170.868-358.075z"/>
<path fill="#FFD700" d="M-64.714-93.807v-25.95c0-2.044-1.655-3.699-3.699-3.699c-2.044,0-3.699,1.655-3.699,3.699l-0.001,25.951
	h-25.951c-2.044,0-3.699,1.655-3.699,3.699c0,2.044,1.655,3.699,3.699,3.699l25.952-0.001v25.946c0,2.044,1.655,3.699,3.699,3.699
	c1.021,0,1.947-0.415,2.615-1.083c0.67-0.67,1.084-1.595,1.084-2.616l-0.001-25.945l25.949-0.003c1.021,0,1.945-0.413,2.615-1.083
	c0.669-0.669,1.084-1.595,1.084-2.616c0-2.044-1.655-3.699-3.699-3.699L-64.714-93.807z"/>
<g>
	<path d="M-108.019-370.599h42.497c1.887,0,3.415-1.528,3.415-3.415c0-1.886-1.528-3.414-3.415-3.414h-42.497
		c-1.885,0-3.415,1.528-3.415,3.414C-111.434-372.127-109.904-370.599-108.019-370.599z"/>
	<path d="M-65.522-361.493h-42.497c-1.885,0-3.415,1.532-3.415,3.416c0,1.885,1.53,3.415,3.415,3.415h42.497
		c1.887,0,3.415-1.53,3.415-3.415C-62.107-359.961-63.636-361.493-65.522-361.493z"/>
	<path d="M-65.522-345.556h-42.497c-1.885,0-3.415,1.529-3.415,3.415c0,1.885,1.53,3.415,3.415,3.415h42.497
		c1.887,0,3.415-1.53,3.415-3.415C-62.107-344.026-63.636-345.556-65.522-345.556z"/>
</g>
<g>
	<path fill="#FFFFFF" d="M-80.56,37.944c-0.332,0-0.648-0.132-0.882-0.366l-12.504-12.503c-0.488-0.488-0.488-1.279,0-1.765
		c0.488-0.488,1.278-0.488,1.765,0L-80.56,34.93l11.621-11.621c0.488-0.488,1.278-0.488,1.766,0c0.487,0.487,0.487,1.277,0,1.765
		l-12.503,12.503C-79.911,37.812-80.228,37.944-80.56,37.944z"/>
</g>
<g>
	<path d="M186.118-357.29c7.121,0,12.894-5.772,12.894-12.893c0-7.121-5.773-12.895-12.894-12.895s-12.893,5.773-12.893,12.895
		C173.225-363.063,178.997-357.29,186.118-357.29z"/>
	<path d="M186.118-356.269c-12.808,0-23.191,10.383-23.191,23.191h46.383C209.31-345.886,198.926-356.269,186.118-356.269z"/>
</g>
<path d="M295.505-375.955c-5.07-5.071-13.291-5.071-18.361,0l-2.834,2.833l-2.834-2.833c-5.072-5.071-13.293-5.071-18.363,0
	c-5.07,5.071-5.07,13.292,0,18.362l2.834,2.834l18.363,18.363l18.363-18.363l2.832-2.834
	C300.577-362.663,300.577-370.885,295.505-375.955z"/>
<g>
	<path d="M379.697-368.888h-37.684v-8.48l22.465-3.018c0.74-0.1,1.258-0.78,1.16-1.52c-0.1-0.74-0.781-1.258-1.52-1.16
		l-23.637,3.177c-0.672,0.091-1.172,0.663-1.172,1.339v9.662v0.338v24.324h33.022L379.697-368.888z"/>
	<path d="M345.052-343.888c-2.984,0-5.404,2.42-5.404,5.405c0,2.985,2.42,5.405,5.404,5.405c2.986,0,5.406-2.42,5.406-5.405
		C350.458-341.468,348.038-343.888,345.052-343.888z"/>
	<path d="M367.755-343.888c-2.984,0-5.404,2.42-5.404,5.405c0,2.985,2.42,5.405,5.404,5.405c2.986,0,5.406-2.42,5.406-5.405
		C373.161-341.468,370.741-343.888,367.755-343.888z"/>
</g>
<polygon fill="#FFD700" points="-414.843,179.618 -685.843,179.618 -626.843,97.618 -355.843,97.618 "/>
<polygon opacity="0.7" fill="#FFD700" points="-378.843,179.618 -403.343,179.618 -344.343,97.618 -319.843,97.618 "/>
<polygon opacity="0.4" fill="#FFD700" points="-353.343,179.618 -361.546,179.618 -302.546,97.618 -294.343,97.618 "/>
<polyline fill="none" stroke="#FFFFFF" stroke-width="15" stroke-linecap="round" stroke-linejoin="round" stroke-miterlimit="10" points="
	37.5,7.5 22.5,22.5 7.5,7.5 "/>
</svg>
