<?xml version="1.0" encoding="utf-8"?>
<!-- Generator: Adobe Illustrator 22.1.0, SVG Export Plug-In . SVG Version: 6.00 Build 0)  -->
<svg version="1.1" id="Layer_1" xmlns="http://www.w3.org/2000/svg" xmlns:xlink="http://www.w3.org/1999/xlink" x="0px" y="0px"
	 viewBox="0 0 66.697 66.693" enable-background="new 0 0 66.697 66.693" xml:space="preserve">
<rect x="-978.579" y="-597.926" fill="#000113" width="841.89" height="595.28"/>
<g>
	<rect x="-942.451" y="-564.221" fill="#FFFFFF" width="100" height="100"/>
	<g>
		<g>
			<path fill="#000113" d="M-875.488-474.221h-33.925c-12.703,0-23.038-10.335-23.038-23.038v-33.925
				c0-12.703,10.335-23.038,23.038-23.038h33.925c12.703,0,23.038,10.334,23.038,23.038v33.925
				C-852.45-484.556-862.785-474.221-875.488-474.221z M-909.413-546.908c-8.67,0-15.724,7.054-15.724,15.724v33.925
				c0,8.67,7.054,15.724,15.724,15.724h33.925c8.67,0,15.724-7.054,15.724-15.724v-33.925c0-8.67-7.054-15.724-15.724-15.724
				H-909.413z"/>
		</g>
		<g>
			<path fill="#000113" d="M-892.588-493.29c-11.502,0-20.86-9.358-20.86-20.86c0-11.503,9.358-20.861,20.86-20.861
				c11.503,0,20.861,9.358,20.861,20.861C-871.727-502.648-881.085-493.29-892.588-493.29z M-892.588-527.698
				c-7.47,0-13.547,6.077-13.547,13.547c0,7.47,6.077,13.547,13.547,13.547c7.47,0,13.548-6.077,13.548-13.547
				C-879.04-521.621-885.118-527.698-892.588-527.698z"/>
		</g>
		<path fill="#000113" d="M-866.444-535.581c0,2.726-2.21,4.936-4.935,4.936c-2.727,0-4.936-2.209-4.936-4.936
			c0-2.726,2.21-4.935,4.936-4.935C-868.654-540.516-866.444-538.306-866.444-535.581z"/>
	</g>
</g>
<g>
	<rect x="-824.045" y="-564.221" fill="#FFFFFF" width="100" height="100"/>
	<path fill="#000113" d="M-770.309-464.221v-36.515h-11.918v-14.2h11.918v-12.932c0,0,0.467-14.531,14.795-16.047
		c0,0,7.448-0.689,14.746,0v12.951h-9.098c0,0-5.856,0-5.856,5.856c0,5.855,0,9.988,0,9.988h14.122l-2.342,14.191h-11.849v36.708
		H-770.309z"/>
</g>
<g>
	<rect x="-705.64" y="-564.221" fill="#FFFFFF" width="100" height="100"/>
	<g>
		<path fill="#000113" d="M-615.985-501.134c-0.3,6.583-3.288,13.474-14.048,14.155c-10.76,0.682-42.443,0.598-51.111,0
			c-8.667-0.598-13.45-5.296-14.048-14.155c-0.598-8.859-0.598-18.21,0-26.387c0.598-8.177,4.882-13.044,14.048-13.857
			c9.167-0.813,44.137-0.697,51.708,0c7.572,0.697,12.852,5.296,13.451,13.857C-615.387-518.96-615.686-507.717-615.985-501.134z"/>
		<polygon fill="#FFFFFF" points="-663.21,-526.432 -663.21,-501.923 -643.284,-514.178 		"/>
	</g>
</g>
<g>
	<rect x="-587.235" y="-564.221" fill="#FFFFFF" width="100" height="100"/>
	<path fill="#000113" d="M-497.235-539.458c-5.846,2.749-8.794,2.299-8.794,2.299c5.996-3.948,6.546-8.795,6.546-8.795
		c-4.997,3.148-10.586,3.94-10.586,3.94v0.003c-2.987-3.155-7.213-5.126-11.9-5.126c-9.052,0-16.39,7.338-16.39,16.39
		c0,1.23,0.14,2.428,0.396,3.581c-21.858-0.853-33.314-17.173-33.314-17.173c-7.063,13.992,4.797,22.12,4.797,22.12
		c-3.997-0.133-6.929-1.866-6.929-1.866c-0.4,13.326,12.637,16.123,12.637,16.123c-2.421,0.933-7.174,0.267-7.174,0.267
		c3.731,11.193,14.924,11.46,14.924,11.46c-8.261,8.794-24.212,6.872-24.212,6.872c8.873,6.081,19.903,9.097,31.425,7.732
		c24.646-2.919,42.424-24.8,40.48-49.326C-500.039-534.238-497.235-539.458-497.235-539.458z"/>
</g>
<g>
	<rect x="-740.768" y="-284.221" fill="#FFFFFF" width="100" height="100"/>
	<g>
		<g>
			<path fill="#000113" d="M-673.805-194.221h-33.925c-12.703,0-23.038-10.336-23.038-23.038v-33.925
				c0-12.703,10.334-23.037,23.038-23.037h33.925c12.703,0,23.038,10.334,23.038,23.037v33.925
				C-650.767-204.557-661.102-194.221-673.805-194.221z M-707.73-266.908c-8.67,0-15.724,7.055-15.724,15.725v33.925
				c0,8.671,7.054,15.724,15.724,15.724h33.925c8.67,0,15.724-7.053,15.724-15.724v-33.925c0-8.67-7.054-15.725-15.724-15.725
				H-707.73z"/>
		</g>
		<g>
			<path fill="#000113" d="M-690.905-213.291c-11.502,0-20.86-9.357-20.86-20.859c0-11.504,9.358-20.861,20.86-20.861
				c11.503,0,20.861,9.357,20.861,20.861C-670.043-222.648-679.402-213.291-690.905-213.291z M-690.905-247.698
				c-7.47,0-13.547,6.077-13.547,13.548c0,7.469,6.077,13.547,13.547,13.547s13.548-6.078,13.548-13.547
				C-677.357-241.621-683.435-247.698-690.905-247.698z"/>
		</g>
		<path fill="#000113" d="M-664.761-255.58c0,2.726-2.21,4.936-4.935,4.936c-2.727,0-4.936-2.21-4.936-4.936
			c0-2.727,2.21-4.936,4.936-4.936C-666.971-260.516-664.761-258.307-664.761-255.58z"/>
	</g>
</g>
<g>
	<rect x="-622.362" y="-284.221" fill="#FFFFFF" width="100" height="100"/>
	<path fill="#000113" d="M-568.626-184.221v-36.516h-11.918v-14.199h11.918v-12.933c0,0,0.467-14.531,14.795-16.047
		c0,0,7.449-0.688,14.746,0v12.95h-9.098c0,0-5.856,0.001-5.856,5.857c0,5.854,0,9.988,0,9.988h14.123l-2.342,14.19h-11.85v36.709
		H-568.626z"/>
</g>
<g>
	<rect x="-504.234" y="-284.221" fill="#FFFFFF" width="100" height="100"/>
	<path fill="#000113" d="M-414.234-259.458c-5.846,2.749-8.795,2.299-8.795,2.299c5.996-3.948,6.547-8.795,6.547-8.795
		c-4.998,3.147-10.586,3.94-10.586,3.94v0.004c-2.988-3.156-7.213-5.127-11.9-5.127c-9.053,0-16.391,7.338-16.391,16.391
		c0,1.23,0.141,2.428,0.396,3.58c-21.857-0.852-33.314-17.172-33.314-17.172c-7.063,13.991,4.797,22.119,4.797,22.119
		c-3.996-0.133-6.928-1.865-6.928-1.865c-0.4,13.326,12.637,16.123,12.637,16.123c-2.422,0.934-7.174,0.268-7.174,0.268
		c3.73,11.193,14.924,11.459,14.924,11.459c-8.262,8.795-24.213,6.873-24.213,6.873c8.873,6.081,19.904,9.096,31.426,7.732
		c24.645-2.919,42.424-24.801,40.481-49.326C-417.039-254.238-414.234-259.458-414.234-259.458z"/>
</g>
<g>
	<circle fill="#FFFFFF" cx="-892.451" cy="-368.221" r="60"/>
	<path fill="#000113" d="M-875.488-328.221h-33.925c-12.703,0-23.038-10.335-23.038-23.038v-33.925
		c0-12.703,10.335-23.038,23.038-23.038h33.925c12.703,0,23.038,10.335,23.038,23.038v33.925
		C-852.45-338.556-862.785-328.221-875.488-328.221z M-909.413-400.908c-8.67,0-15.724,7.054-15.724,15.724v33.925
		c0,8.67,7.054,15.724,15.724,15.724h33.925c8.67,0,15.724-7.054,15.724-15.724v-33.925c0-8.67-7.054-15.724-15.724-15.724H-909.413
		z"/>
	<path fill="#000113" d="M-892.588-347.29c-11.502,0-20.86-9.358-20.86-20.86c0-11.503,9.358-20.861,20.86-20.861
		c11.503,0,20.861,9.358,20.861,20.861C-871.727-356.648-881.085-347.29-892.588-347.29z M-892.588-381.698
		c-7.47,0-13.547,6.077-13.547,13.547c0,7.47,6.077,13.547,13.547,13.547c7.47,0,13.548-6.077,13.548-13.547
		C-879.04-375.621-885.118-381.698-892.588-381.698z"/>
	<path fill="#000113" d="M-866.444-389.581c0,2.726-2.21,4.936-4.935,4.936c-2.727,0-4.936-2.21-4.936-4.936
		c0-2.726,2.21-4.936,4.936-4.936C-868.654-394.516-866.444-392.306-866.444-389.581z"/>
</g>
<g>
	<circle fill="#FFFFFF" cx="-764.045" cy="-368.221" r="60"/>
	<path fill="#000113" d="M-760.309-308.221v-46.515h-11.918v-14.2h11.918v-12.932c0,0,0.467-14.531,14.795-16.047
		c0,0,7.448-0.689,14.746,0v12.951h-9.098c0,0-5.856,0-5.856,5.856c0,5.855,0,9.988,0,9.988h14.122l-2.342,14.191h-11.849v46.708
		H-760.309z"/>
</g>
<g>
	<circle fill="#FFFFFF" cx="-635.64" cy="-368.221" r="60"/>
	<path fill="#000113" d="M-595.985-355.134c-0.3,6.583-3.288,13.474-14.048,14.155c-10.76,0.682-42.443,0.598-51.111,0
		c-8.667-0.598-13.45-5.296-14.048-14.155c-0.598-8.859-0.598-18.21,0-26.387c0.598-8.177,4.882-13.043,14.048-13.857
		c9.167-0.813,44.137-0.697,51.708,0c7.572,0.697,12.852,5.296,13.451,13.857C-595.387-372.96-595.686-361.717-595.985-355.134z"/>
	<polygon fill="#FFFFFF" points="-643.21,-380.432 -643.21,-355.923 -623.284,-368.178 	"/>
</g>
<g>
	<path fill="#FFFFFF" d="M-633.247,21.789c-33,0-60,27-60,60s27,60,60,60s60-27,60-60S-600.247,21.789-633.247,21.789z
		 M-593.592,94.877c-0.3,6.583-3.288,13.473-14.048,14.154c-10.76,0.682-42.443,0.598-51.111,0
		c-8.667-0.598-13.45-5.295-14.048-14.154c-0.598-8.859-0.598-18.21,0-26.387c0.598-8.178,4.882-13.044,14.048-13.857
		c9.167-0.813,44.137-0.697,51.708,0c7.572,0.697,12.852,5.297,13.451,13.857C-592.994,77.051-593.293,88.293-593.592,94.877z"/>
	<polygon fill="#FFFFFF" points="-640.817,94.087 -620.891,81.832 -640.817,69.578 	"/>
</g>
<g>
	<circle fill="#FFFFFF" cx="-507.235" cy="-368.221" r="60"/>
	<path fill="#000113" d="M-467.235-393.458c-5.846,2.749-8.794,2.299-8.794,2.299c5.996-3.948,6.546-8.795,6.546-8.795
		c-4.997,3.148-10.586,3.94-10.586,3.94v0.003c-2.987-3.155-7.213-5.126-11.9-5.126c-9.052,0-16.39,7.338-16.39,16.39
		c0,1.23,0.14,2.428,0.396,3.581c-21.858-0.853-33.314-17.173-33.314-17.173c-7.063,13.992,4.797,22.12,4.797,22.12
		c-3.997-0.133-6.929-1.866-6.929-1.866c-0.4,13.326,12.637,16.124,12.637,16.124c-2.421,0.933-7.174,0.267-7.174,0.267
		c3.731,11.193,14.924,11.46,14.924,11.46c-8.261,8.794-24.212,6.872-24.212,6.872c8.873,6.081,19.903,9.097,31.425,7.732
		c24.646-2.919,42.424-24.8,40.48-49.326C-470.039-388.238-467.235-393.458-467.235-393.458z"/>
</g>
<g>
	<path fill="#FFFFFF" d="M-875.488,49.103h-33.925c-8.67,0-15.724,7.054-15.724,15.724v33.926c0,8.67,7.054,15.724,15.724,15.724
		h33.925c8.67,0,15.724-7.054,15.724-15.724V64.826C-859.765,56.156-866.818,49.103-875.488,49.103z M-892.588,102.72
		c-11.502,0-20.86-9.358-20.86-20.86c0-11.503,9.358-20.861,20.86-20.861c11.503,0,20.861,9.358,20.861,20.861
		C-871.727,93.361-881.085,102.72-892.588,102.72z M-871.379,65.365c-2.727,0-4.936-2.209-4.936-4.935
		c0-2.726,2.21-4.936,4.936-4.936c2.725,0,4.935,2.21,4.935,4.936C-866.444,63.156-868.654,65.365-871.379,65.365z"/>
	<path fill="#FFFFFF" d="M-892.588,68.313c-7.47,0-13.547,6.076-13.547,13.547c0,7.47,6.077,13.547,13.547,13.547
		c7.47,0,13.548-6.077,13.548-13.547C-879.04,74.389-885.118,68.313-892.588,68.313z"/>
	<path fill="#FFFFFF" d="M-892.451,21.789c-33,0-60,27-60,60s27,60,60,60s60-27,60-60S-859.451,21.789-892.451,21.789z
		 M-852.45,98.752c0,12.702-10.335,23.037-23.038,23.037h-33.925c-12.703,0-23.038-10.335-23.038-23.037V64.826
		c0-12.703,10.335-23.037,23.038-23.037h33.925c12.703,0,23.038,10.334,23.038,23.037V98.752z"/>
</g>
<g>
	<path fill="#FFFFFF" d="M-704.045,81.789c0-33-27-60-60-60s-60,27-60,60s27,60,60,60c1.256,0,2.499-0.052,3.736-0.129V95.274
		h-11.918v-14.2h11.918V68.143c0,0,0.467-14.531,14.795-16.047c0,0,7.448-0.689,14.746,0v12.95h-9.098c0,0-5.856,0.001-5.856,5.856
		c0,5.854,0,9.988,0,9.988h14.122l-2.342,14.19h-11.849v43.841C-721.646,131.15-704.045,108.43-704.045,81.789z"/>
</g>
<path fill="#FFFFFF" d="M-507.235,21.789c-33,0-60,27-60,60s27,60,60,60s60-27,60-60S-474.235,21.789-507.235,21.789z
	 M-475.329,65.055c1.943,24.526-15.835,46.408-40.48,49.326c-11.521,1.364-22.552-1.65-31.425-7.732c0,0,15.951,1.922,24.212-6.872
	c0,0-11.193-0.267-14.924-11.46c0,0,4.753,0.666,7.174-0.267c0,0-13.037-2.798-12.637-16.124c0,0,2.932,1.732,6.929,1.866
	c0,0-11.859-8.128-4.797-22.12c0,0,11.456,16.32,33.314,17.173c-0.257-1.153-0.396-2.351-0.396-3.581
	c0-9.052,7.338-16.391,16.39-16.391c4.688,0,8.913,1.972,11.9,5.127v-0.004c0,0,5.589-0.792,10.586-3.94c0,0-0.55,4.847-6.546,8.795
	c0,0,2.948,0.449,8.794-2.299C-467.235,56.553-470.039,61.771-475.329,65.055z"/>
<g>
	<path fill="#000113" d="M233.349-407.29c-33,0-60,27-60,60s27,60,60,60s60-27,60-60S266.349-407.29,233.349-407.29z
		 M273.004-334.203c-0.3,6.583-3.288,13.473-14.049,14.154c-10.76,0.682-42.442,0.598-51.11,0
		c-8.667-0.598-13.45-5.295-14.048-14.154c-0.598-8.859-0.598-18.21,0-26.387c0.598-8.178,4.882-13.044,14.048-13.857
		c9.167-0.813,44.137-0.697,51.708,0c7.572,0.697,12.853,5.297,13.451,13.857C273.602-352.029,273.303-340.787,273.004-334.203z"/>
	<polygon fill="#000113" points="225.778,-334.993 245.705,-347.248 225.778,-359.501 	"/>
</g>
<g>
	<path fill="#000113" d="M-29.688-379.977h-33.925c-8.671,0-15.724,7.054-15.724,15.724v33.926c0,8.67,7.053,15.724,15.724,15.724
		h33.925c8.67,0,15.724-7.054,15.724-15.724v-33.926C-13.965-372.923-21.019-379.977-29.688-379.977z M-46.788-326.36
		c-11.502,0-20.86-9.358-20.86-20.86c0-11.503,9.358-20.861,20.86-20.861c11.503,0,20.861,9.358,20.861,20.861
		C-25.927-335.718-35.285-326.36-46.788-326.36z M-25.579-363.714c-2.727,0-4.937-2.209-4.937-4.936c0-2.726,2.21-4.936,4.937-4.936
		c2.725,0,4.935,2.21,4.935,4.936C-20.644-365.923-22.854-363.714-25.579-363.714z"/>
	<path fill="#000113" d="M-46.788-360.767c-7.47,0-13.547,6.076-13.547,13.547c0,7.47,6.077,13.547,13.547,13.547
		c7.47,0,13.548-6.077,13.548-13.547C-33.24-354.691-39.318-360.767-46.788-360.767z"/>
	<path fill="#000113" d="M-46.651-407.29c-33,0-60,27-60,60s27,60,60,60s60-27,60-60S-13.651-407.29-46.651-407.29z M-6.65-330.328
		c0,12.702-10.335,23.037-23.038,23.037h-33.925c-12.703,0-23.038-10.335-23.038-23.037v-33.926
		c0-12.703,10.335-23.037,23.038-23.037h33.925c12.703,0,23.038,10.334,23.038,23.037V-330.328z"/>
</g>
<g>
	<path fill="#000113" d="M153.349-347.29c0-33-27-60-60-60s-60,27-60,60s27,60,60,60c1.256,0,2.498-0.051,3.736-0.129v-46.385
		H85.167v-14.2h11.918v-12.932c0,0,0.467-14.531,14.795-16.047c0,0,7.448-0.69,14.746,0v12.95h-9.098c0,0-5.855,0.001-5.855,5.856
		c0,5.854,0,9.988,0,9.988h14.122l-2.342,14.19h-11.849v43.84C135.748-297.93,153.349-320.65,153.349-347.29z"/>
</g>
<path fill="#000113" d="M373.349-407.22c-33,0-60,27-60,60s27,59.999,60,59.999s60-26.999,60-59.999S406.349-407.22,373.349-407.22z
	 M405.255-363.954c1.943,24.526-15.835,46.408-40.48,49.326c-11.521,1.364-22.552-1.65-31.425-7.733c0,0,15.951,1.922,24.212-6.872
	c0,0-11.193-0.267-14.924-11.46c0,0,4.753,0.666,7.174-0.267c0,0-13.037-2.798-12.637-16.124c0,0,2.932,1.732,6.929,1.866
	c0,0-11.859-8.128-4.797-22.12c0,0,11.456,16.32,33.315,17.173c-0.257-1.153-0.396-2.351-0.396-3.581
	c0-9.052,7.338-16.391,16.39-16.391c4.688,0,8.913,1.972,11.9,5.127v-0.004c0,0,5.589-0.792,10.586-3.94c0,0-0.55,4.847-6.546,8.795
	c0,0,2.948,0.449,8.794-2.299C413.349-372.456,410.545-367.237,405.255-363.954z"/>
<g>
	<circle fill="#FFFFFF" cx="-44.579" cy="-537.926" r="60"/>
	<path fill="#000113" d="M-4.579-563.163c-5.846,2.748-8.794,2.299-8.794,2.299c5.996-3.948,6.546-8.795,6.546-8.795
		c-4.997,3.148-10.586,3.94-10.586,3.94v0.003c-2.987-3.155-7.213-5.126-11.9-5.126c-9.052,0-16.39,7.338-16.39,16.39
		c0,1.23,0.14,2.428,0.396,3.581c-21.858-0.853-33.314-17.173-33.314-17.173c-7.063,13.992,4.797,22.12,4.797,22.12
		c-3.997-0.133-6.929-1.866-6.929-1.866c-0.4,13.326,12.637,16.123,12.637,16.123c-2.421,0.933-7.174,0.267-7.174,0.267
		c3.73,11.193,14.924,11.46,14.924,11.46c-8.261,8.794-24.212,6.872-24.212,6.872c8.873,6.082,19.903,9.097,31.425,7.732
		c24.645-2.918,42.424-24.8,40.48-49.326C-7.383-557.943-4.579-563.163-4.579-563.163z"/>
</g>
<g>
	<polygon fill="#FFFFFF" points="-880.722,-166.672 -869.922,-222.518 -880.722,-278.363 -845.571,-222.518 	"/>
</g>
<g>
	<polygon fill="#FFFFFF" points="-904.453,-166.672 -915.252,-222.518 -904.453,-278.363 -939.604,-222.518 	"/>
</g>
<polygon fill="#FFFFFF" points="-846.39,-22.99 -922.514,-22.99 -858.639,-82.99 -782.515,-82.99 "/>
<g>
	<polygon fill="#000113" points="-44.806,-72.529 -34.006,-128.375 -44.806,-184.221 -9.654,-128.375 	"/>
</g>
<g>
	<polygon fill="#000113" points="-68.537,-72.529 -79.336,-128.375 -68.537,-184.221 -103.688,-128.375 	"/>
</g>
<polygon fill="#000113" points="206.878,-98.375 130.754,-98.375 194.629,-158.375 270.754,-158.375 "/>
<g>
	<path fill="#000113" d="M-671.842-701.134c-0.3,6.583-3.288,13.474-14.048,14.155c-10.76,0.682-42.443,0.598-51.111,0
		c-8.667-0.598-13.45-5.296-14.048-14.155c-0.598-8.859-0.598-18.21,0-26.387c0.598-8.177,4.882-13.044,14.048-13.857
		c9.167-0.813,44.137-0.697,51.708,0c7.572,0.697,12.852,5.296,13.451,13.857C-671.244-718.96-671.543-707.717-671.842-701.134z"/>
</g>
<g>
	<polygon fill="#FFFFFF" points="-610.781,-726.432 -610.781,-701.923 -590.854,-714.178 	"/>
</g>
<polygon fill="#000113" points="110.754,-153.478 60.55,-103.272 10.346,-153.478 "/>
<polygon fill="#6609B7" points="-129.874,84.602 -180.078,134.807 -230.282,84.602 "/>
<polygon fill="#FFD700" points="361.277,67.499 353.277,75.499 345.277,67.499 "/>
<polygon fill="#FFD700" points="361.277,67.499 353.277,59.499 345.277,67.499 "/>
<circle fill="none" stroke="#FFFFFF" stroke-width="7" stroke-miterlimit="10" cx="-353.282" cy="-731.926" r="80"/>
<circle fill="none" stroke="#FFFFFF" stroke-width="7" stroke-miterlimit="10" cx="-168.053" cy="-731.926" r="80"/>
<circle fill="none" stroke="#FFFFFF" stroke-width="7" stroke-miterlimit="10" cx="15.421" cy="-731.926" r="80"/>
<path fill="none" stroke="#FFFFFF" stroke-width="7" stroke-miterlimit="10" d="M-305.659-711.993c0,9.231-6.6,16.713-14.741,16.713
	h-65.771c-8.142,0-14.741-7.483-14.741-16.713v-29.572c0-9.231,6.6-16.713,14.741-16.713h65.771c8.142,0,14.741,7.482,14.741,16.713
	V-711.993z"/>
<path fill="none" stroke="#FFFFFF" stroke-width="7" stroke-miterlimit="10" d="M-337-726.779c0,8.995-7.291,16.286-16.286,16.286
	c-8.995,0-16.286-7.292-16.286-16.286c0-8.995,7.291-16.287,16.286-16.287C-344.291-743.065-337-735.774-337-726.779z"/>
<path fill="none" stroke="#FFFFFF" stroke-width="7" stroke-miterlimit="10" d="M-340.638-760.772c0,1.377-1.343,2.494-3,2.494
	h-19.297c-1.657,0-3-1.117-3-2.494v-8.727c0-1.377,1.343-2.494,3-2.494h19.297c1.657,0,3,1.117,3,2.494V-760.772z"/>
<path fill="#FFFFFF" d="M-381.786-759.778c0,0.829-0.691,1.5-1.542,1.5h-9.916c-0.852,0-1.542-0.671-1.542-1.5v-5.25
	c0-0.829,0.69-1.5,1.542-1.5h9.916c0.851,0,1.542,0.671,1.542,1.5V-759.778z"/>
<path fill="#FFFFFF" d="M-316.287-743.065c0,3.313-2.685,5.999-5.999,5.999c-3.315,0-5.999-2.687-5.999-5.999
	c0-3.313,2.685-6,5.999-6C-318.972-749.065-316.287-746.378-316.287-743.065z"/>
<path fill="none" stroke="#FFFFFF" stroke-width="7" stroke-miterlimit="10" d="M-145.211-692.431h-49.683
	c-8.03,0-14.541-6.509-14.541-14.54h49.683C-159.752-698.94-153.24-692.431-145.211-692.431c8.03,0,14.541-6.509,14.541-14.54
	v-64.449h-64.224v64.449"/>
<path fill="none" stroke="#FFFFFF" stroke-width="7" stroke-miterlimit="10" d="M-201.5-687.082"/>
<line fill="none" stroke="#FFFFFF" stroke-width="7" stroke-linecap="round" stroke-miterlimit="10" x1="-183.587" y1="-757.853" x2="-141.751" y2="-757.853"/>
<line fill="none" stroke="#FFFFFF" stroke-width="7" stroke-linecap="round" stroke-miterlimit="10" x1="-183.587" y1="-744.813" x2="-141.751" y2="-744.813"/>
<line fill="none" stroke="#FFFFFF" stroke-width="7" stroke-linecap="round" stroke-miterlimit="10" x1="-183.587" y1="-731.771" x2="-141.751" y2="-731.771"/>
<line fill="none" stroke="#FFFFFF" stroke-width="7" stroke-linecap="round" stroke-miterlimit="10" x1="-183.587" y1="-718.73" x2="-141.751" y2="-718.73"/>
<polygon fill="none" stroke="#FFFFFF" stroke-width="7" stroke-linejoin="round" stroke-miterlimit="10" points="52.816,-731.771 
	-4.12,-698.898 -4.12,-764.644 "/>
<circle fill="none" stroke="#FFFFFF" stroke-width="7" stroke-miterlimit="10" cx="196.153" cy="-731.926" r="80"/>
<g>
	<path fill="#FFFFFF" d="M-353.282-1006.45c-46.042,0-83.5,37.458-83.5,83.5s37.458,83.5,83.5,83.5s83.5-37.458,83.5-83.5
		S-307.24-1006.45-353.282-1006.45z M-353.282-846.45c-42.183,0-76.5-34.318-76.5-76.5c0-42.182,34.317-76.5,76.5-76.5
		s76.5,34.318,76.5,76.5C-276.782-880.768-311.1-846.45-353.282-846.45z"/>
	<path fill="#FFFFFF" d="M-320.4-952.803h-16.737v-7.721c0-3.305-2.916-5.994-6.5-5.994h-19.297c-3.584,0-6.5,2.689-6.5,5.994v7.721
		h-12.351v-3.25c0-0.829-0.691-1.5-1.542-1.5h-9.916c-0.852,0-1.542,0.671-1.542,1.5v5.25c0,0.13,0.022,0.254,0.055,0.375
		c-5.754,3.404-9.682,10.119-9.682,17.838v29.572c0,11.146,8.183,20.213,18.241,20.213h65.771c10.059,0,18.241-9.068,18.241-20.213
		v-29.572C-302.159-943.735-310.342-952.803-320.4-952.803z M-362.435-952.804v-6.713l18.297,0.001v6.713L-362.435-952.804z
		 M-309.159-903.018c0,7.286-5.043,13.213-11.241,13.213h-65.771c-6.198,0-11.241-5.928-11.241-13.213v-29.572
		c0-7.286,5.043-13.213,11.241-13.213h23.237h19.297h23.237c6.198,0,11.241,5.927,11.241,13.213V-903.018z"/>
	<path fill="#FFFFFF" d="M-353.286-937.59c-10.91,0-19.786,8.877-19.786,19.787c0,10.91,8.876,19.786,19.786,19.786
		c10.91,0,19.786-8.876,19.786-19.786C-333.5-928.713-342.376-937.59-353.286-937.59z M-353.286-905.017
		c-7.051,0-12.786-5.736-12.786-12.786c0-7.051,5.735-12.787,12.786-12.787c7.051,0,12.786,5.736,12.786,12.787
		C-340.5-910.753-346.235-905.017-353.286-905.017z"/>
	<path fill="#FFFFFF" d="M-322.286-940.089c-3.315,0-5.999,2.687-5.999,6s2.685,6,5.999,6c3.314,0,5.999-2.687,5.999-6
		S-318.972-940.089-322.286-940.089z"/>
</g>
<g>
	<path fill="#FFFFFF" d="M-168.053-1006.45c-46.042,0-83.5,37.458-83.5,83.5s37.458,83.5,83.5,83.5s83.5-37.458,83.5-83.5
		S-122.011-1006.45-168.053-1006.45z M-168.053-846.45c-42.183,0-76.5-34.318-76.5-76.5c0-42.182,34.317-76.5,76.5-76.5
		s76.5,34.318,76.5,76.5C-91.553-880.768-125.87-846.45-168.053-846.45z"/>
	<path fill="#FFFFFF" d="M-198.394-901.496h-14.541v3.5c0,9.948,8.093,18.041,18.041,18.041h49.683
		c9.948,0,18.041-8.093,18.041-18.041v-67.949h-71.224V-901.496z M-194.894-886.956c-4.865,0-9.006-3.163-10.473-7.541h42.455
		c0.553,2.798,1.754,5.367,3.441,7.541H-194.894z M-191.394-958.945h57.224v60.949c0,6.088-4.953,11.041-11.041,11.041
		c-6.088,0-11.041-4.953-11.041-11.041v-3.5h-35.142V-958.945z"/>
	<path fill="#FFFFFF" d="M-183.587-945.377h41.836c1.933,0,3.5-1.567,3.5-3.5s-1.567-3.5-3.5-3.5h-41.836
		c-1.933,0-3.5,1.567-3.5,3.5S-185.52-945.377-183.587-945.377z"/>
	<path fill="#FFFFFF" d="M-183.587-932.337h41.836c1.933,0,3.5-1.567,3.5-3.5s-1.567-3.5-3.5-3.5h-41.836
		c-1.933,0-3.5,1.567-3.5,3.5S-185.52-932.337-183.587-932.337z"/>
	<path fill="#FFFFFF" d="M-183.587-919.295h41.836c1.933,0,3.5-1.567,3.5-3.5s-1.567-3.5-3.5-3.5h-41.836
		c-1.933,0-3.5,1.567-3.5,3.5S-185.52-919.295-183.587-919.295z"/>
	<path fill="#FFFFFF" d="M-138.251-909.755c0-1.933-1.567-3.5-3.5-3.5h-41.836c-1.933,0-3.5,1.567-3.5,3.5s1.567,3.5,3.5,3.5h41.836
		C-139.818-906.255-138.251-907.822-138.251-909.755z"/>
</g>
<g>
	<path fill="#FFFFFF" d="M15.421-1006.45c-46.042,0-83.5,37.458-83.5,83.5s37.458,83.5,83.5,83.5s83.5-37.458,83.5-83.5
		S61.463-1006.45,15.421-1006.45z M15.421-846.45c-42.183,0-76.5-34.318-76.5-76.5c0-42.182,34.317-76.5,76.5-76.5
		s76.5,34.318,76.5,76.5C91.921-880.768,57.604-846.45,15.421-846.45z"/>
	<path fill="#FFFFFF" d="M54.566-925.827L-2.37-958.699c-1.082-0.625-2.418-0.625-3.5,0c-1.083,0.626-1.75,1.781-1.75,3.031v65.746
		c0,1.25,0.667,2.406,1.75,3.031c0.541,0.313,1.145,0.469,1.75,0.469c0.604,0,1.209-0.156,1.75-0.469l56.937-32.874
		c1.083-0.625,1.75-1.781,1.75-3.031S55.649-925.202,54.566-925.827z M-0.62-895.985v-53.621l46.437,26.81L-0.62-895.985z"/>
</g>
<polygon fill="none" stroke="#FFFFFF" stroke-width="6" stroke-linejoin="round" stroke-miterlimit="10" points="235.105,-701.371 
	162.822,-701.371 151.58,-751.165 246.35,-751.165 "/>
<g>
	
		<line fill="none" stroke="#FFFFFF" stroke-width="6" stroke-linecap="round" stroke-linejoin="round" stroke-miterlimit="10" x1="171.657" y1="-735.906" x2="179.288" y2="-735.906"/>
	
		<line fill="none" stroke="#FFFFFF" stroke-width="6" stroke-linecap="round" stroke-linejoin="round" stroke-miterlimit="10" x1="194.948" y1="-735.906" x2="202.577" y2="-735.906"/>
	
		<line fill="none" stroke="#FFFFFF" stroke-width="6" stroke-linecap="round" stroke-linejoin="round" stroke-miterlimit="10" x1="218.239" y1="-735.906" x2="225.869" y2="-735.906"/>
</g>
<g>
	
		<line fill="none" stroke="#FFFFFF" stroke-width="6" stroke-linecap="round" stroke-linejoin="round" stroke-miterlimit="10" x1="171.657" y1="-726.269" x2="179.288" y2="-726.269"/>
	
		<line fill="none" stroke="#FFFFFF" stroke-width="6" stroke-linecap="round" stroke-linejoin="round" stroke-miterlimit="10" x1="194.948" y1="-726.269" x2="202.577" y2="-726.269"/>
	
		<line fill="none" stroke="#FFFFFF" stroke-width="6" stroke-linecap="round" stroke-linejoin="round" stroke-miterlimit="10" x1="218.239" y1="-726.269" x2="225.869" y2="-726.269"/>
</g>
<g>
	
		<line fill="none" stroke="#FFFFFF" stroke-width="6" stroke-linecap="round" stroke-linejoin="round" stroke-miterlimit="10" x1="171.657" y1="-716.63" x2="179.288" y2="-716.63"/>
	
		<line fill="none" stroke="#FFFFFF" stroke-width="6" stroke-linecap="round" stroke-linejoin="round" stroke-miterlimit="10" x1="194.948" y1="-716.63" x2="202.577" y2="-716.63"/>
	
		<line fill="none" stroke="#FFFFFF" stroke-width="6" stroke-linecap="round" stroke-linejoin="round" stroke-miterlimit="10" x1="218.239" y1="-716.63" x2="225.869" y2="-716.63"/>
</g>
<polyline fill="none" stroke="#FFFFFF" stroke-width="6" stroke-linecap="round" stroke-linejoin="round" stroke-miterlimit="10" points="
	179.288,-751.165 145.957,-769.638 161.017,-769.638 194.547,-751.165 "/>
<path fill="none" stroke="#FFFFFF" stroke-width="6" stroke-linecap="round" stroke-linejoin="round" stroke-miterlimit="10" d="
	M188.499-692.537c0,4.768-3.864,8.633-8.633,8.633c-4.769,0-8.635-3.865-8.635-8.633c0-4.769,3.866-8.634,8.635-8.634
	C184.635-701.17,188.499-697.305,188.499-692.537z"/>
<path fill="none" stroke="#FFFFFF" stroke-width="6" stroke-linecap="round" stroke-linejoin="round" stroke-miterlimit="10" d="
	M227.097-692.537c0,4.768-3.864,8.633-8.633,8.633c-4.77,0-8.634-3.865-8.634-8.633c0-4.769,3.864-8.634,8.634-8.634
	C223.232-701.17,227.097-697.305,227.097-692.537z"/>
<g>
	<path fill="#FFFFFF" d="M196.153-1006.295c-46.042,0-83.5,37.458-83.5,83.5s37.458,83.5,83.5,83.5s83.5-37.458,83.5-83.5
		S242.195-1006.295,196.153-1006.295z M196.153-846.295c-42.183,0-76.5-34.318-76.5-76.5c0-42.182,34.317-76.5,76.5-76.5
		s76.5,34.318,76.5,76.5C272.653-880.613,238.336-846.295,196.153-846.295z"/>
	<path fill="#FFFFFF" d="M246.35-945.035h-51.032l-32.854-18.1c-0.443-0.245-0.941-0.372-1.447-0.372h-15.06
		c-1.367,0-2.563,0.925-2.904,2.249c-0.343,1.324,0.254,2.712,1.45,3.375l23.184,12.848H151.58c-0.912,0-1.774,0.415-2.344,1.127
		c-0.568,0.712-0.783,1.645-0.583,2.534l11.242,49.794c0.31,1.368,1.524,2.339,2.927,2.339h6.994
		c-1.001,1.718-1.585,3.707-1.585,5.834c0,6.415,5.22,11.633,11.635,11.633c6.414,0,11.633-5.219,11.633-11.633
		c0-2.127-0.584-4.117-1.585-5.834h18.501c-1.002,1.718-1.585,3.707-1.585,5.834c0,6.415,5.219,11.633,11.634,11.633
		c6.414,0,11.633-5.219,11.633-11.633c0-2.127-0.584-4.117-1.585-5.834h6.593c1.402,0,2.617-0.971,2.927-2.339l11.245-49.794
		c0.2-0.889-0.014-1.822-0.583-2.534C248.124-944.621,247.262-945.035,246.35-945.035z M179.866-877.773
		c-3.107,0-5.635-2.527-5.635-5.633c0-3.106,2.527-5.634,5.635-5.634c3.105,0,5.633,2.527,5.633,5.634
		C185.499-880.3,182.972-877.773,179.866-877.773z M218.464-877.773c-3.107,0-5.634-2.527-5.634-5.633
		c0-3.106,2.527-5.634,5.634-5.634c3.105,0,5.633,2.527,5.633,5.634C224.097-880.3,221.569-877.773,218.464-877.773z
		 M157.56-957.507h2.685l22.64,12.472h-2.821L157.56-957.507z M232.706-895.241h-67.485l-9.888-43.794h39.207
		c0,0,0.003,0.001,0.004,0.001c0,0,0.002-0.001,0.004-0.001h48.049L232.706-895.241z"/>
	<path fill="#FFFFFF" d="M179.288-929.776h-7.631c-1.657,0-3,1.343-3,3c0,1.657,1.343,3,3,3h7.631c1.657,0,3-1.343,3-3
		C182.288-928.433,180.945-929.776,179.288-929.776z"/>
	<path fill="#FFFFFF" d="M191.948-926.776c0,1.657,1.343,3,3,3h7.629c1.657,0,3-1.343,3-3c0-1.657-1.343-3-3-3h-7.629
		C193.291-929.776,191.948-928.433,191.948-926.776z"/>
	<path fill="#FFFFFF" d="M218.239-923.776h7.63c1.657,0,3-1.343,3-3c0-1.657-1.343-3-3-3h-7.63c-1.657,0-3,1.343-3,3
		C215.239-925.119,216.582-923.776,218.239-923.776z"/>
	<path fill="#FFFFFF" d="M179.288-920.138h-7.631c-1.657,0-3,1.343-3,3c0,1.657,1.343,3,3,3h7.631c1.657,0,3-1.343,3-3
		C182.288-918.795,180.945-920.138,179.288-920.138z"/>
	<path fill="#FFFFFF" d="M202.577-920.138h-7.629c-1.657,0-3,1.343-3,3c0,1.657,1.343,3,3,3h7.629c1.657,0,3-1.343,3-3
		C205.577-918.795,204.234-920.138,202.577-920.138z"/>
	<path fill="#FFFFFF" d="M218.239-914.138h7.63c1.657,0,3-1.343,3-3c0-1.657-1.343-3-3-3h-7.63c-1.657,0-3,1.343-3,3
		C215.239-915.482,216.582-914.138,218.239-914.138z"/>
	<path fill="#FFFFFF" d="M179.288-910.5h-7.631c-1.657,0-3,1.343-3,3c0,1.657,1.343,3,3,3h7.631c1.657,0,3-1.343,3-3
		C182.288-909.157,180.945-910.5,179.288-910.5z"/>
	<path fill="#FFFFFF" d="M202.577-910.5h-7.629c-1.657,0-3,1.343-3,3c0,1.657,1.343,3,3,3h7.629c1.657,0,3-1.343,3-3
		C205.577-909.157,204.234-910.5,202.577-910.5z"/>
	<path fill="#FFFFFF" d="M218.239-904.5h7.63c1.657,0,3-1.343,3-3c0-1.657-1.343-3-3-3h-7.63c-1.657,0-3,1.343-3,3
		C215.239-905.843,216.582-904.5,218.239-904.5z"/>
</g>
<g>
	<g>
		<path fill="#000113" d="M513.349-407.298c-33.084,0-60,26.916-60,60s26.916,60,60,60c33.084,0,60-26.916,60-60
			S546.433-407.298,513.349-407.298z M513.349-292.328c-30.311,0-54.97-24.659-54.97-54.97c0-30.31,24.659-54.97,54.97-54.97
			c30.311,0,54.97,24.659,54.97,54.97C568.318-316.987,543.659-292.328,513.349-292.328z"/>
		<path fill="#000113" d="M536.977-368.749h-12.027v-5.548c0-2.374-2.095-4.307-4.671-4.307h-13.865
			c-2.575,0-4.671,1.933-4.671,4.307v5.548h-8.875v-2.335c0-0.595-0.496-1.078-1.108-1.078h-7.125c-0.612,0-1.108,0.483-1.108,1.078
			v3.773c0,0.094,0.017,0.183,0.039,0.27c-4.134,2.446-6.956,7.271-6.956,12.817v21.25c0,8.009,5.879,14.523,13.107,14.523h47.261
			c7.227,0,13.107-6.515,13.107-14.523v-21.25C550.084-362.233,544.204-368.749,536.977-368.749z M506.773-368.749v-4.825
			l13.147,0.002v4.823H506.773z M545.054-332.975c0,5.234-3.624,9.494-8.077,9.494h-47.261c-4.454,0-8.078-4.26-8.078-9.494v-21.25
			c0-5.234,3.624-9.494,8.078-9.494h16.697h13.865h16.698c4.453,0,8.077,4.26,8.077,9.494V-332.975z"/>
		<path fill="#000113" d="M513.346-357.817c-7.84,0-14.218,6.379-14.218,14.219c0,7.839,6.378,14.217,14.218,14.217
			c7.84,0,14.218-6.378,14.218-14.217C527.564-351.439,521.186-357.817,513.346-357.817z M513.346-334.412
			c-5.066,0-9.187-4.121-9.187-9.187c0-5.067,4.121-9.188,9.187-9.188c5.066,0,9.188,4.121,9.188,9.188
			C522.533-338.533,518.412-334.412,513.346-334.412z"/>
		<path fill="#000113" d="M535.621-359.613c-2.382,0-4.311,1.931-4.311,4.311c0,2.381,1.929,4.312,4.311,4.312
			c2.382,0,4.31-1.931,4.31-4.312C539.932-357.683,538.003-359.613,535.621-359.613z"/>
	</g>
	<g>
		<path fill="#000113" d="M653.349-407.298c-33.084,0-60,26.916-60,60s26.916,60,60,60c33.084,0,60-26.916,60-60
			S686.433-407.298,653.349-407.298z M653.349-292.328c-30.31,0-54.97-24.659-54.97-54.97c0-30.31,24.659-54.97,54.97-54.97
			c30.311,0,54.97,24.659,54.97,54.97C708.318-316.987,683.659-292.328,653.349-292.328z"/>
		<path fill="#000113" d="M631.547-331.882h-10.449v2.515c0,7.148,5.815,12.964,12.964,12.964h35.7
			c7.148,0,12.964-5.816,12.964-12.964v-48.825h-51.179V-331.882z M634.062-321.434c-3.496,0-6.471-2.273-7.525-5.418h30.507
			c0.397,2.011,1.261,3.857,2.473,5.418H634.062z M636.577-373.162h41.118v43.795c0,4.375-3.559,7.934-7.934,7.934
			c-4.374,0-7.934-3.559-7.934-7.934v-2.515h-25.251V-373.162z"/>
		<path fill="#000113" d="M642.187-363.413h30.062c1.389,0,2.515-1.125,2.515-2.515c0-1.39-1.126-2.515-2.515-2.515h-30.062
			c-1.389,0-2.515,1.125-2.515,2.515C639.672-364.538,640.798-363.413,642.187-363.413z"/>
		<path fill="#000113" d="M642.187-354.043h30.062c1.389,0,2.515-1.126,2.515-2.515c0-1.389-1.126-2.515-2.515-2.515h-30.062
			c-1.389,0-2.515,1.126-2.515,2.515C639.672-355.169,640.798-354.043,642.187-354.043z"/>
		<path fill="#000113" d="M642.187-344.671h30.062c1.389,0,2.515-1.127,2.515-2.516c0-1.39-1.126-2.515-2.515-2.515h-30.062
			c-1.389,0-2.515,1.125-2.515,2.515C639.672-345.798,640.798-344.671,642.187-344.671z"/>
		<path fill="#000113" d="M674.763-337.816c0-1.389-1.126-2.515-2.515-2.515h-30.062c-1.389,0-2.515,1.126-2.515,2.515
			c0,1.389,1.126,2.516,2.515,2.516h30.062C673.637-335.301,674.763-336.428,674.763-337.816z"/>
	</g>
	<g>
		<path fill="#000113" d="M793.349-407.298c-33.084,0-60,26.916-60,60s26.916,60,60,60c33.084,0,60-26.916,60-60
			S826.433-407.298,793.349-407.298z M793.349-292.328c-30.31,0-54.97-24.659-54.97-54.97c0-30.31,24.659-54.97,54.97-54.97
			c30.311,0,54.97,24.659,54.97,54.97C848.318-316.987,823.659-292.328,793.349-292.328z"/>
		<path fill="#000113" d="M821.478-349.365l-40.913-23.62c-0.777-0.449-1.737-0.449-2.515,0c-0.778,0.448-1.258,1.279-1.258,2.178
			v47.243c0,0.898,0.479,1.728,1.258,2.178c0.389,0.225,0.823,0.337,1.258,0.337c0.434,0,0.868-0.112,1.257-0.337l40.913-23.622
			c0.777-0.45,1.257-1.279,1.257-2.178C822.734-348.086,822.255-348.915,821.478-349.365z M781.822-327.921v-38.53l33.367,19.265
			L781.822-327.921z"/>
	</g>
	<g>
		<path fill="#000113" d="M933.349-407.143c-33.084,0-60,26.915-60,60c0,33.083,26.916,60,60,60c33.084,0,60-26.917,60-60
			C993.349-380.228,966.433-407.143,933.349-407.143z M933.349-292.173c-30.31,0-54.97-24.659-54.97-54.97
			c0-30.31,24.659-54.97,54.97-54.97c30.311,0,54.97,24.659,54.97,54.97C988.318-316.832,963.659-292.173,933.349-292.173z"/>
		<path fill="#000113" d="M969.418-363.124h-36.67l-23.607-13.005c-0.318-0.176-0.677-0.269-1.04-0.269h-10.821
			c-0.982,0-1.841,0.665-2.087,1.617c-0.246,0.951,0.183,1.947,1.042,2.425l16.659,9.232H901.32c-0.655,0-1.275,0.298-1.685,0.81
			c-0.408,0.511-0.563,1.182-0.419,1.82l8.078,35.78c0.223,0.983,1.096,1.682,2.104,1.682h5.025
			c-0.72,1.233-1.139,2.664-1.139,4.191c0,4.609,3.751,8.359,8.36,8.359c4.608,0,8.358-3.75,8.358-8.359
			c0-1.527-0.419-2.958-1.139-4.191h13.294c-0.72,1.233-1.139,2.664-1.139,4.191c0,4.609,3.75,8.359,8.359,8.359
			c4.609,0,8.359-3.75,8.359-8.359c0-1.527-0.42-2.958-1.139-4.191h4.737c1.007,0,1.88-0.698,2.102-1.682l8.08-35.78
			c0.145-0.639-0.01-1.31-0.419-1.82C970.692-362.826,970.073-363.124,969.418-363.124z M921.646-314.792
			c-2.233,0-4.049-1.815-4.049-4.048c0-2.231,1.815-4.048,4.049-4.048c2.232,0,4.047,1.816,4.047,4.048
			C925.692-316.607,923.877-314.792,921.646-314.792z M949.38-314.792c-2.232,0-4.048-1.815-4.048-4.048
			c0-2.231,1.815-4.048,4.048-4.048c2.231,0,4.048,1.816,4.048,4.048C953.428-316.607,951.611-314.792,949.38-314.792z
			 M905.616-372.086h1.93l16.269,8.962h-2.027L905.616-372.086z M959.614-327.343h-48.492l-7.106-31.47h28.173h0.003
			c0,0,0.001,0,0.003,0h34.525L959.614-327.343z"/>
		<path fill="#000113" d="M921.23-352.158h-5.482c-1.191,0-2.156,0.965-2.156,2.155c0,1.19,0.965,2.156,2.156,2.156h5.482
			c1.191,0,2.156-0.966,2.156-2.156C923.386-351.193,922.421-352.158,921.23-352.158z"/>
		<path fill="#000113" d="M930.327-350.003c0,1.19,0.965,2.156,2.155,2.156h5.482c1.19,0,2.155-0.966,2.155-2.156
			c0-1.19-0.965-2.155-2.155-2.155h-5.482C931.292-352.158,930.327-351.193,930.327-350.003z"/>
		<path fill="#000113" d="M949.219-347.847h5.482c1.19,0,2.155-0.966,2.155-2.156c0-1.19-0.965-2.155-2.155-2.155h-5.482
			c-1.19,0-2.155,0.965-2.155,2.155C947.064-348.813,948.028-347.847,949.219-347.847z"/>
		<path fill="#000113" d="M921.23-345.234h-5.482c-1.191,0-2.156,0.966-2.156,2.156c0,1.19,0.965,2.155,2.156,2.155h5.482
			c1.191,0,2.156-0.965,2.156-2.155C923.386-344.269,922.421-345.234,921.23-345.234z"/>
		<path fill="#000113" d="M937.965-345.234h-5.482c-1.19,0-2.155,0.966-2.155,2.156c0,1.19,0.965,2.155,2.155,2.155h5.482
			c1.19,0,2.155-0.965,2.155-2.155C940.12-344.269,939.155-345.234,937.965-345.234z"/>
		<path fill="#000113" d="M949.219-340.923h5.482c1.19,0,2.155-0.965,2.155-2.155c0-1.19-0.965-2.156-2.155-2.156h-5.482
			c-1.19,0-2.155,0.966-2.155,2.156C947.064-341.888,948.028-340.923,949.219-340.923z"/>
		<path fill="#000113" d="M921.23-338.308h-5.482c-1.191,0-2.156,0.965-2.156,2.155c0,1.19,0.965,2.156,2.156,2.156h5.482
			c1.191,0,2.156-0.966,2.156-2.156C923.386-337.343,922.421-338.308,921.23-338.308z"/>
		<path fill="#000113" d="M937.965-338.308h-5.482c-1.19,0-2.155,0.965-2.155,2.155c0,1.19,0.965,2.156,2.155,2.156h5.482
			c1.19,0,2.155-0.966,2.155-2.156C940.12-337.343,939.155-338.308,937.965-338.308z"/>
		<path fill="#000113" d="M949.219-333.996h5.482c1.19,0,2.155-0.966,2.155-2.156c0-1.19-0.965-2.155-2.155-2.155h-5.482
			c-1.19,0-2.155,0.965-2.155,2.155C947.064-334.962,948.028-333.996,949.219-333.996z"/>
	</g>
</g>
<g>
	<path d="M114.97-253.232c-8.066-8.07-21.193-8.07-29.262,0c-8.066,8.068-8.07,21.193,0,29.266
		c7.299,7.301,18.734,7.969,26.824,2.057l11.02,11.021c1.246,1.244,3.26,1.244,4.5,0c1.242-1.242,1.242-3.256,0-4.496
		l-11.021-11.021C122.944-234.496,122.273-245.93,114.97-253.232z M110.472-228.467c-5.586,5.584-14.68,5.588-20.266,0
		c-5.588-5.586-5.588-14.678,0-20.266c5.586-5.592,14.68-5.592,20.266,0C116.06-243.145,116.06-234.053,110.472-228.467z"/>
</g>
<path d="M-69.104-234.619l18.35-18.35c1.445-1.445,1.445-3.786,0-5.231c-1.445-1.445-3.786-1.445-5.231,0l-18.351,18.35
	l-18.351-18.35c-1.445-1.445-3.786-1.445-5.231,0c-1.445,1.445-1.445,3.786,0,5.231l18.352,18.35l-18.347,18.347
	c-1.445,1.445-1.445,3.786,0,5.232c0.722,0.723,1.67,1.084,2.615,1.084c0.947,0,1.894-0.361,2.616-1.084l18.346-18.347
	l18.351,18.347c0.723,0.723,1.668,1.084,2.615,1.084c0.946,0,1.894-0.361,2.616-1.084c1.445-1.445,1.445-3.786,0-5.232
	L-69.104-234.619z"/>
<path fill="#FFD700" d="M37.05,29.649V3.699C37.05,1.655,35.395,0,33.351,0c-2.044,0-3.699,1.655-3.699,3.699L29.65,29.65H3.699
	C1.655,29.65,0,31.306,0,33.35c0,2.044,1.655,3.699,3.699,3.699l25.952-0.001v25.946c0,2.044,1.655,3.699,3.699,3.699
	c1.021,0,1.947-0.415,2.615-1.083c0.67-0.67,1.084-1.595,1.084-2.616l-0.001-25.945l25.949-0.003c1.021,0,1.945-0.413,2.615-1.083
	c0.669-0.669,1.084-1.595,1.084-2.616c0-2.044-1.655-3.699-3.699-3.699L37.05,29.649z"/>
<g>
	<path d="M-6.256-247.143h42.497c1.887,0,3.415-1.528,3.415-3.415c0-1.886-1.528-3.414-3.415-3.414H-6.256
		c-1.885,0-3.415,1.528-3.415,3.414C-9.671-248.671-8.141-247.143-6.256-247.143z"/>
	<path d="M36.241-238.037H-6.256c-1.885,0-3.415,1.532-3.415,3.416c0,1.885,1.53,3.415,3.415,3.415h42.497
		c1.887,0,3.415-1.53,3.415-3.415C39.656-236.505,38.128-238.037,36.241-238.037z"/>
	<path d="M36.241-222.1H-6.256c-1.885,0-3.415,1.529-3.415,3.415c0,1.885,1.53,3.415,3.415,3.415h42.497
		c1.887,0,3.415-1.53,3.415-3.415C39.656-220.57,38.128-222.1,36.241-222.1z"/>
</g>
<g>
	<path fill="#FFFFFF" d="M21.204,161.4c-0.332,0-0.648-0.132-0.882-0.366L7.817,148.53c-0.488-0.488-0.488-1.279,0-1.765
		c0.488-0.488,1.278-0.488,1.765,0l11.622,11.621l11.621-11.621c0.488-0.488,1.278-0.488,1.766,0c0.487,0.487,0.487,1.277,0,1.765
		l-12.503,12.503C21.853,161.268,21.535,161.4,21.204,161.4z"/>
</g>
<g>
	<path fill="#FFD700" d="M550.084-103.44c16.872,0,30.548-13.676,30.548-30.546c0-16.872-13.676-30.55-30.548-30.55
		c-16.872,0-30.548,13.679-30.548,30.55C519.536-117.117,533.212-103.44,550.084-103.44z"/>
	<path fill="#FFD700" d="M550.084-101.02c-34.95,0-63.286,24.599-63.286,54.946H613.37C613.37-76.421,585.034-101.02,550.084-101.02
		z"/>
</g>
<g>
	<path fill="#FFFFFF" d="M423.53-103.44c16.872,0,30.548-13.676,30.548-30.546c0-16.872-13.676-30.55-30.548-30.55
		c-16.872,0-30.548,13.679-30.548,30.55C392.983-117.117,406.659-103.44,423.53-103.44z"/>
	<path fill="#FFFFFF" d="M423.53-101.02c-34.95,0-63.286,24.599-63.286,54.946h126.571C486.816-76.421,458.481-101.02,423.53-101.02
		z"/>
</g>
<path d="M397.269-252.499c-5.07-5.071-13.291-5.071-18.361,0l-2.834,2.833l-2.834-2.833c-5.072-5.071-13.293-5.071-18.363,0
	c-5.07,5.071-5.07,13.292,0,18.362l2.834,2.834l18.363,18.363l18.363-18.363l2.832-2.834
	C402.341-239.207,402.341-247.429,397.269-252.499z"/>
<g>
	<path d="M481.46-245.432h-37.684v-8.48l22.465-3.018c0.74-0.1,1.258-0.78,1.16-1.52c-0.1-0.74-0.781-1.258-1.52-1.16l-23.637,3.177
		c-0.672,0.091-1.172,0.663-1.172,1.339v9.662v0.338v24.324h33.022L481.46-245.432z"/>
	<path d="M446.815-220.432c-2.984,0-5.404,2.42-5.404,5.405c0,2.985,2.42,5.405,5.404,5.405c2.986,0,5.406-2.42,5.406-5.405
		C452.222-218.012,449.802-220.432,446.815-220.432z"/>
	<path d="M469.519-220.432c-2.984,0-5.404,2.42-5.404,5.405c0,2.985,2.42,5.405,5.404,5.405c2.986,0,5.406-2.42,5.406-5.405
		C474.925-218.012,472.505-220.432,469.519-220.432z"/>
</g>
<polygon fill="#FFD700" points="-313.079,303.074 -584.079,303.074 -525.079,221.074 -254.079,221.074 "/>
<polygon opacity="0.7" fill="#FFD700" points="-277.079,303.074 -301.579,303.074 -242.579,221.074 -218.079,221.074 "/>
<polygon opacity="0.4" fill="#FFD700" points="-251.579,303.074 -259.782,303.074 -200.782,221.074 -192.579,221.074 "/>
<polyline fill="none" stroke="#FFFFFF" stroke-width="15" stroke-linecap="round" stroke-linejoin="round" stroke-miterlimit="10" points="
	139.263,130.956 124.263,145.956 109.263,130.956 "/>
<path fill="#FFFFFF" d="M536.016,9.121c-0.854-1.007-2.108-1.587-3.43-1.587H421.712l-1.714-8.482
	c-0.425-2.099-2.27-3.608-4.411-3.608h-19.428c-2.485,0-4.5,2.015-4.5,4.5s2.015,4.5,4.5,4.5h15.746l15.843,78.392
	c0.425,2.099,2.27,3.608,4.411,3.608h9.285c-5.435,1.294-9.481,6.169-9.481,12c0,6.82,5.528,12.348,12.348,12.348
	s12.348-5.528,12.348-12.348c0-5.831-4.047-10.706-9.481-12h60.89c-5.435,1.294-9.481,6.169-9.481,12
	c0,6.82,5.528,12.348,12.348,12.348c6.82,0,12.348-5.528,12.348-12.348c0-5.831-4.047-10.706-9.481-12h7.564
	c2.485,0,4.5-2.015,4.5-4.5s-2.015-4.5-4.5-4.5H435.84l-2.223-11h90.779c2.204,0,4.084-1.597,4.44-3.771l8.19-49.909
	C537.24,11.459,536.871,10.127,536.016,9.121z M524.669,32.489h-24.572l0.776-15.955h26.414L524.669,32.489z M461.659,32.489
	l-0.776-15.955h30.979l-0.776,15.955H461.659z M490.648,41.489l-0.776,15.954h-26.999l-0.776-15.954H490.648z M451.872,16.534
	l0.776,15.955h-25.893l-3.224-15.955H451.872z M428.574,41.489h24.512l0.776,15.954h-22.063L428.574,41.489z M498.883,57.443
	l0.776-15.954h23.533l-2.618,15.954H498.883z"/>
<path fill="#FFFFFF" d="M659.056-9.006c-9.688-2.537-23.495,1.523-30.576,8.604L618.172,9.906l-8.542-8.542
	c-14.018-14.018-36.958-14.018-50.976,0l0,0c-14.018,14.018-14.018,36.958,0,50.976l8.542,8.542l45.58,45.58
	c2.98,2.98,7.813,2.98,10.793,0l45.58-45.58l8.542-8.542C696.371,33.66,690.159-0.86,659.056-9.006z"/>
</svg>
